<svg width="43" height="43" viewBox="0 0 43 43" fill="none" xmlns="http://www.w3.org/2000/svg">
<circle cx="21.5" cy="21.5" r="21.5" fill="#0C7479"/>
<path d="M13.4312 11.1763V31.1299C13.4312 31.1299 14.4962 31.1869 15.1397 30.1772V10.2233C15.1397 10.2233 14.075 10.1595 13.4312 11.1763Z" fill="white"/>
<path d="M17.0364 6.02161V26.1698C17.0364 26.1698 17.5667 27.115 18.7449 27.1138V6.97469C18.7449 6.97469 18.218 6.02652 17.0364 6.02161Z" fill="white"/>
<path d="M20.6447 13.8545L20.645 33.79C20.645 33.79 21.7131 33.8484 22.3536 32.8376V12.9007C22.3536 12.9007 21.316 12.8286 20.6447 13.8545Z" fill="white"/>
<path d="M24.2518 8.70084L24.2499 28.8449C24.2499 28.8449 24.7598 29.7927 25.9603 29.8025V9.65355C25.9603 9.65355 25.4466 8.71367 24.2518 8.70084Z" fill="white"/>
<path d="M27.8582 15.0248V35.1771C27.8582 35.1771 28.3703 36.1182 29.5667 36.1299L29.5678 15.9771C29.5678 15.9771 29.047 15.0248 27.8582 15.0248Z" fill="white"/>
<path d="M21.4995 39.2957C11.7065 39.2957 3.73944 31.312 3.73944 21.4995C3.73944 11.687 11.7065 3.70366 21.4995 3.70366C31.2924 3.70366 39.2599 11.687 39.2599 21.4995C39.2599 31.312 31.2924 39.2957 21.4995 39.2957ZM35.0802 7.93199C33.3174 6.16764 31.2645 4.78234 28.9781 3.81417C26.6092 2.81168 24.0928 2.30289 21.4995 2.30289C18.9057 2.30289 16.3897 2.81168 14.0208 3.81417C11.7344 4.78234 9.68158 6.16764 7.91911 7.93199C4.29764 11.5569 2.30322 16.3754 2.30322 21.4995C2.30322 26.624 4.29764 31.4425 7.91911 35.0674C9.68158 36.8314 11.7344 38.2171 14.0208 39.1849C16.3897 40.1877 18.9057 40.6965 21.4995 40.6965C24.0928 40.6965 26.6092 40.1877 28.9781 39.1849C31.2645 38.2171 33.3174 36.8314 35.0802 35.0674C38.7017 31.4422 40.6961 26.624 40.6961 21.4995C40.6961 16.3754 38.7017 11.5569 35.0802 7.93199Z" fill="white"/>
</svg>
