<svg width="58" height="58" viewBox="0 0 58 58" fill="none" xmlns="http://www.w3.org/2000/svg">
<rect x="0.5" y="0.5" width="57" height="57" rx="28.5" fill="#BFD8BD"/>
<rect x="0.5" y="0.5" width="57" height="57" rx="28.5" stroke="#052D23"/>
<path d="M22.8212 17.023L24.2799 16.5833C25.9331 16.085 27.6994 16.8903 28.4072 18.4651L29.5344 20.9723C30.1377 22.3146 29.8197 23.8921 28.7435 24.8958L26.8756 26.6376C26.821 26.6885 26.7864 26.7572 26.7781 26.8315C26.7227 27.3279 27.0592 28.2946 27.8345 29.6375C28.3984 30.6141 28.9086 31.2989 29.343 31.6841C29.6456 31.9525 29.8122 32.0105 29.8832 31.9894L32.3961 31.2211C33.8031 30.791 35.3279 31.3039 36.1887 32.497L37.7896 34.7157C38.7972 36.1122 38.6161 38.0389 37.3657 39.223L36.2577 40.2722C35.0622 41.4045 33.3602 41.8264 31.7744 41.3837C28.3317 40.4229 25.2451 37.5176 22.4803 32.7289C19.7116 27.9334 18.7401 23.8028 19.6356 20.338C20.0455 18.7524 21.2531 17.4957 22.8212 17.023ZM23.3623 18.8183C22.4215 19.1018 21.6969 19.8559 21.451 20.8073C20.6977 23.7216 21.5587 27.3827 24.1041 31.7914C26.646 36.194 29.3821 38.7694 32.2785 39.5777C33.23 39.8434 34.2511 39.5902 34.9685 38.9109L36.0764 37.8616C36.6447 37.3234 36.7271 36.4476 36.2691 35.8129L34.6682 33.5941C34.2769 33.0519 33.5839 32.8186 32.9442 33.0142L30.4251 33.7844C28.963 34.2202 27.6359 33.0434 26.2107 30.575C25.2504 28.9116 24.8027 27.6257 24.9147 26.6234C24.9727 26.104 25.2147 25.6226 25.5968 25.2663L27.4647 23.5245C27.954 23.0682 28.0985 22.3512 27.8242 21.7411L26.6971 19.2339C26.3753 18.5181 25.5725 18.1521 24.8211 18.3786L23.3623 18.8183Z" fill="#052D23"/>
</svg>
