<svg width="58" height="58" viewBox="0 0 58 58" fill="none" xmlns="http://www.w3.org/2000/svg">
<rect x="0.5" y="0.5" width="57" height="57" rx="28.5" fill="#BFD8BD"/>
<rect x="0.5" y="0.5" width="57" height="57" rx="28.5" stroke="#052D23"/>
<g clip-path="url(#clip0_2064_101)">
<path d="M29 15.875C26.7388 15.8737 24.5157 16.457 22.5464 17.5682C20.5771 18.6794 18.9284 20.2809 17.7605 22.2171C16.5925 24.1533 15.9449 26.3585 15.8805 28.6188C15.8161 30.8791 16.337 33.1176 17.3928 35.1172L15.875 41.1875L20.7809 39.2253C22.4162 40.5413 24.3432 41.4458 26.4004 41.8631C28.4575 42.2803 30.5846 42.1981 32.6034 41.6234C34.6222 41.0486 36.4737 39.998 38.0025 38.5598C39.5314 37.1216 40.693 35.3377 41.3899 33.3578C42.0868 31.3779 42.2987 29.2597 42.0078 27.1809C41.7169 25.1022 40.9316 23.1235 39.718 21.411C38.5043 19.6984 36.8976 18.3019 35.0327 17.3387C33.1678 16.3754 31.099 15.8735 29 15.875Z" stroke="#052D23" stroke-width="2" stroke-linejoin="round"/>
<path d="M30.3729 31.6048L31.6985 30.2792C32.0507 29.9288 32.5273 29.7322 33.0241 29.7322C33.5209 29.7322 33.9975 29.9288 34.3497 30.2792L35.6754 31.6048C36.0257 31.957 36.2224 32.4336 36.2224 32.9305C36.2224 33.4273 36.0257 33.9039 35.6754 34.2561L34.3497 35.5826C34.3497 35.5826 31.0357 38.8967 25.0685 32.9305C19.1013 26.9642 22.4163 23.6492 22.4163 23.6492L23.7429 22.3226C24.0953 21.9727 24.5718 21.7764 25.0685 21.7764C25.5651 21.7764 26.0417 21.9727 26.3941 22.3226L27.7197 23.6492C28.0701 24.0014 28.2668 24.478 28.2668 24.9748C28.2668 25.4716 28.0701 25.9482 27.7197 26.3005L26.3941 27.6261L30.3729 31.6048Z" stroke="#052D23" stroke-width="2" stroke-linejoin="round"/>
</g>
<defs>
<clipPath id="clip0_2064_101">
<rect width="30" height="30" fill="white" transform="translate(14 14)"/>
</clipPath>
</defs>
</svg>
