<svg width="1924" height="901" viewBox="0 0 1924 901" fill="none" xmlns="http://www.w3.org/2000/svg">
<g opacity="0.12" clip-path="url(#clip0_1718_1325)">
<path d="M2159.07 -389.705C1808.83 -411.363 1635.51 -349.996 1505.53 90.3974C1445.23 294.696 1306.94 325.032 920.591 332.251C665.403 337.02 663.916 462.727 573.675 586.704C435.386 776.693 224.953 850.29 40.0797 850.29C6.48376 850.29 -153.583 848.7 -268.262 779.275" stroke="white" stroke-width="1.33333" stroke-miterlimit="10" stroke-linecap="round" stroke-linejoin="round"/>
<path d="M2146.45 -415.112C1796.05 -440.934 1620.64 -377.179 1492.2 55.6876C1431.67 259.036 1299.44 294.486 911.566 298.791C731.373 300.792 666.011 358.804 621.434 442.918C606.276 471.516 567.185 548.343 526.428 592.119C403.243 724.431 235.043 817.579 40.0804 817.579C-63.4303 817.579 -198.971 796.773 -337.549 695.92" stroke="white" stroke-width="1.33333" stroke-miterlimit="10" stroke-linecap="round" stroke-linejoin="round"/>
<path d="M596.726 437.178C596.751 437.152 596.777 437.126 596.777 437.074C649.386 341.231 701.169 266.043 902.539 265.32C1291.93 263.951 1418.12 223.388 1478.86 20.9852C1605.77 -404.373 1783.28 -470.498 2133.83 -440.521" stroke="white" stroke-width="1.33333" stroke-miterlimit="10" stroke-linecap="round" stroke-linejoin="round"/>
<path d="M653.027 258.4C700.574 220.471 768.653 197.104 884.486 198.42C1276.95 202.861 1391.02 152.048 1452.21 -48.4445C1576.05 -458.724 1757.71 -529.652 2108.59 -491.335" stroke="white" stroke-width="1.33333" stroke-miterlimit="10" stroke-linecap="round" stroke-linejoin="round"/>
<path d="M658.451 211.046C705.972 180.785 771.985 163.021 875.447 164.958C1269.43 172.316 1377.47 116.39 1438.86 -83.1467C1561.17 -485.913 1744.95 -559.216 2095.99 -516.742" stroke="white" stroke-width="1.33333" stroke-miterlimit="10" stroke-linecap="round" stroke-linejoin="round"/>
<path d="M660.207 168.366C707.496 143.14 771.494 129.016 866.433 131.495C1261.94 141.771 1364.35 80.8617 1425.53 -117.849C1547.15 -512.843 1732.17 -588.806 2083.39 -542.149" stroke="white" stroke-width="1.33333" stroke-miterlimit="10" stroke-linecap="round" stroke-linejoin="round"/>
<path d="M659.227 128.345C706.231 106.682 768.473 95.063 857.395 98.0323C1254.45 111.226 1350.84 45.2304 1412.2 -152.577C1532.4 -539.98 1719.39 -618.369 2070.76 -567.556" stroke="white" stroke-width="1.33333" stroke-miterlimit="10" stroke-linecap="round" stroke-linejoin="round"/>
<path d="M655.895 90.1055C702.692 70.947 763.643 61.1613 848.381 64.5695C1246.94 80.6812 1337.33 9.59876 1398.88 -187.279C1517.6 -567.143 1706.63 -647.933 2058.15 -592.963" stroke="white" stroke-width="1.33333" stroke-miterlimit="10" stroke-linecap="round" stroke-linejoin="round"/>
<path d="M650.418 53.1055C697.216 35.7028 757.34 27.208 839.34 31.1068C1239.45 50.1361 1323.82 -26.0586 1385.55 -221.981C1502.8 -594.305 1693.84 -677.523 2045.52 -618.369" stroke="white" stroke-width="1.33333" stroke-miterlimit="10" stroke-linecap="round" stroke-linejoin="round"/>
<path d="M642.801 17.0864C689.805 0.845646 749.672 -6.74538 830.328 -2.35598C1231.96 19.591 1310.32 -61.6904 1372.2 -256.709C1487.98 -621.468 1681.06 -707.087 2032.92 -643.776" stroke="white" stroke-width="1.33333" stroke-miterlimit="10" stroke-linecap="round" stroke-linejoin="round"/>
<path d="M641.406 315.772C688.514 264.804 757.497 231.341 893.5 231.883C1284.44 233.407 1404.56 187.705 1465.54 -13.7424C1590.9 -431.562 1770.5 -500.088 2121.22 -465.928" stroke="white" stroke-width="1.33333" stroke-miterlimit="10" stroke-linecap="round" stroke-linejoin="round"/>
<path d="M596.777 437.074C596.777 437.126 596.751 437.152 596.726 437.178" stroke="white" stroke-width="1.33333" stroke-miterlimit="10" stroke-linecap="round" stroke-linejoin="round"/>
<path d="M173.167 1447.67C173.167 1447.67 283.422 1215.08 512.556 1108.34C830.328 960.343 1126.4 1057.81 1249.93 919.47C1296.32 867.52 1316.77 813.04 1327.49 761.451" stroke="white" stroke-width="1.33333" stroke-miterlimit="10" stroke-linecap="round" stroke-linejoin="round"/>
<path d="M202.301 1465.74C202.301 1465.74 306.718 1234.5 546.802 1129.02C862.482 990.346 1156.91 1088 1280.85 948.621C1329.82 893.65 1349.29 835.374 1358.87 780.61" stroke="white" stroke-width="1.33333" stroke-miterlimit="10" stroke-linecap="round" stroke-linejoin="round"/>
<path d="M231.433 1483.82C231.433 1483.82 329.807 1253.86 581.049 1149.68C894.275 1019.81 1187.38 1118.15 1311.76 977.797C1364.11 918.824 1382.09 855.591 1390.22 796.773" stroke="white" stroke-width="1.33333" stroke-miterlimit="10" stroke-linecap="round" stroke-linejoin="round"/>
<path d="M260.591 1501.89C260.591 1501.89 352.689 1273.15 615.268 1170.34C925.757 1048.8 1217.88 1148.31 1342.68 1006.97C1399.21 943.121 1414.81 873.665 1421.29 810.148" stroke="white" stroke-width="1.33333" stroke-miterlimit="10" stroke-linecap="round" stroke-linejoin="round"/>
<path d="M289.724 1519.96C289.724 1519.96 375.391 1292.34 649.515 1190.99C956.956 1077.36 1248.36 1178.5 1373.59 1036.12C1434.98 966.617 1447.12 889.673 1451.85 820.941" stroke="white" stroke-width="1.33333" stroke-miterlimit="10" stroke-linecap="round" stroke-linejoin="round"/>
<path d="M318.856 1538.04C318.856 1538.04 397.964 1311.44 683.761 1211.68C987.922 1105.5 1278.86 1208.65 1404.51 1065.3C1471.37 989.364 1478.6 903.668 1481.73 829.435" stroke="white" stroke-width="1.33333" stroke-miterlimit="10" stroke-linecap="round" stroke-linejoin="round"/>
<path d="M347.988 1556.11C347.988 1556.11 420.38 1330.39 718.007 1232.33C1018.68 1133.26 1309.33 1238.84 1435.42 1094.48C1508.38 1011.39 1508.85 915.468 1511.01 835.787" stroke="white" stroke-width="1.33333" stroke-miterlimit="10" stroke-linecap="round" stroke-linejoin="round"/>
<path d="M377.121 1574.19C377.121 1574.19 442.643 1349.19 752.228 1252.99C1049.29 1160.68 1339.84 1269 1466.33 1123.63C1545.98 1032.66 1537.46 924.969 1539.97 840.331" stroke="white" stroke-width="1.33333" stroke-miterlimit="10" stroke-linecap="round" stroke-linejoin="round"/>
<path d="M2210.97 468.291C2217.86 654.711 2111.87 721.998 1922.07 729.615" stroke="white" stroke-width="1.33333" stroke-miterlimit="10" stroke-linecap="round" stroke-linejoin="round"/>
<path d="M406.254 1592.26C406.254 1592.26 464.803 1367.83 786.474 1273.67C1079.74 1187.79 1370.34 1299.15 1497.25 1152.81C1584.23 1053.14 1563.81 931.76 1568.92 843.146" stroke="white" stroke-width="1.33333" stroke-miterlimit="10" stroke-linecap="round" stroke-linejoin="round"/>
<path d="M2234.81 492.071C2243.48 699.354 2112.93 760.006 1887.18 756.029" stroke="white" stroke-width="1.33333" stroke-miterlimit="10" stroke-linecap="round" stroke-linejoin="round"/>
<path d="M435.386 1610.34C435.386 1610.34 486.858 1386.29 820.72 1294.32C1110.06 1214.59 1400.81 1329.34 1528.16 1181.98C1623.33 1072.63 1587.2 935.065 1598.88 844.282" stroke="white" stroke-width="1.33333" stroke-miterlimit="10" stroke-linecap="round" stroke-linejoin="round"/>
<path d="M2258.65 515.852C2269.29 743.894 2111.85 795.276 1849.91 779.396" stroke="white" stroke-width="1.33333" stroke-miterlimit="10" stroke-linecap="round" stroke-linejoin="round"/>
<path d="M464.519 1628.41C464.519 1628.41 508.837 1404.58 854.966 1314.98C1140.27 1241.14 1431.31 1359.49 1559.08 1211.13C1663.73 1090.55 1606.26 933.129 1631.52 843.533" stroke="white" stroke-width="1.33333" stroke-miterlimit="10" stroke-linecap="round" stroke-linejoin="round"/>
<path d="M2282.48 539.632C2295.19 787.246 2110.3 827.525 1815.05 800.698C1813.01 800.517 1810.99 800.336 1809 800.207" stroke="white" stroke-width="1.33333" stroke-miterlimit="10" stroke-linecap="round" stroke-linejoin="round"/>
<path d="M493.651 1646.48C493.651 1646.48 530.687 1422.62 889.213 1335.64C1170.41 1267.42 1461.79 1389.65 1589.99 1240.31C1706.88 1105.19 1617.11 920.502 1671.99 839.634" stroke="white" stroke-width="1.33333" stroke-miterlimit="10" stroke-linecap="round" stroke-linejoin="round"/>
<path d="M522.791 1664.57C522.791 1664.57 552.492 1440.44 923.44 1356.31C1200.46 1293.48 1491.99 1419.57 1620.91 1269.48C1780.19 1084.03 1546.38 799.902 1839.58 826.551C2132.78 853.198 2320.33 813.856 2306.31 563.402" stroke="white" stroke-width="1.33333" stroke-miterlimit="10" stroke-linecap="round" stroke-linejoin="round"/>
<path d="M551.927 1682.64C551.927 1682.64 574.22 1458.01 957.682 1376.97C1230.47 1319.32 1522.47 1449.73 1651.82 1298.64C1809.7 1114.24 1572.95 825.937 1864.11 852.4C2155.27 878.863 2345.47 840.453 2330.15 587.177" stroke="white" stroke-width="1.33333" stroke-miterlimit="10" stroke-linecap="round" stroke-linejoin="round"/>
<path d="M581.062 1700.72C581.062 1700.72 595.886 1475.31 991.922 1397.63C1260.43 1344.97 1552.95 1479.9 1682.74 1327.81C1839.21 1144.45 1599.53 851.974 1888.63 878.251C2177.75 904.525 2370.6 867.047 2353.98 610.952" stroke="white" stroke-width="1.33333" stroke-miterlimit="10" stroke-linecap="round" stroke-linejoin="round"/>
<path d="M610.196 1718.79C610.196 1718.79 617.5 1492.33 1026.16 1418.3C1290.36 1370.43 1583.44 1510.06 1713.65 1356.98C1868.72 1174.67 1626.1 878.008 1913.16 904.099C2200.23 930.19 2395.73 893.645 2377.82 634.727" stroke="white" stroke-width="1.33333" stroke-miterlimit="10" stroke-linecap="round" stroke-linejoin="round"/>
<path d="M639.328 1736.86C639.328 1736.86 639.075 1509.05 1060.4 1438.96C1320.26 1395.73 1613.93 1540.23 1744.56 1386.15C1898.24 1204.88 1652.67 904.045 1937.69 929.95C2222.71 955.855 2420.87 920.242 2401.65 658.502" stroke="white" stroke-width="1.33333" stroke-miterlimit="10" stroke-linecap="round" stroke-linejoin="round"/>
<path d="M668.465 1754.94C668.465 1754.94 660.616 1525.45 1094.64 1459.62C1350.16 1420.87 1644.43 1570.4 1775.48 1415.32C1927.76 1235.11 1679.25 930.082 1962.22 955.799C2245.2 981.518 2446 946.839 2425.49 682.277" stroke="white" stroke-width="1.33333" stroke-miterlimit="10" stroke-linecap="round" stroke-linejoin="round"/>
<path d="M697.6 1773.01C697.6 1773.01 682.135 1541.5 1128.88 1480.28C1380.05 1445.87 1675.23 1600.84 1806.4 1444.49C1957.64 1265.63 1705.82 956.116 1986.75 981.649C2267.68 1007.18 2471.14 973.433 2449.32 706.052" stroke="white" stroke-width="1.33333" stroke-miterlimit="10" stroke-linecap="round" stroke-linejoin="round"/>
<path d="M726.734 1791.09C726.734 1791.09 703.637 1557.2 1163.12 1500.95C1409.95 1470.73 1705.72 1631.01 1837.31 1473.65C1987.15 1295.85 1732.39 982.153 2011.28 1007.5C2290.16 1032.85 2496.27 1000.03 2473.16 729.825" stroke="white" stroke-width="1.33333" stroke-miterlimit="10" stroke-linecap="round" stroke-linejoin="round"/>
<path d="M755.869 1809.16C755.869 1809.16 725.137 1572.51 1197.36 1521.61C1439.86 1495.47 1736.21 1661.18 1868.22 1502.82C2016.66 1326.06 1758.96 1008.19 2035.8 1033.35C2312.64 1058.51 2521.4 1026.63 2496.99 753.6" stroke="white" stroke-width="1.33333" stroke-miterlimit="10" stroke-linecap="round" stroke-linejoin="round"/>
<path d="M785.005 1827.24C785.005 1827.24 746.647 1587.43 1231.6 1542.27C1469.8 1520.1 1766.71 1691.34 1899.14 1531.99C2046.18 1356.27 1785.54 1034.22 2060.33 1059.2C2335.13 1084.18 2546.54 1053.23 2520.83 777.374" stroke="white" stroke-width="1.33333" stroke-miterlimit="10" stroke-linecap="round" stroke-linejoin="round"/>
<path d="M814.137 1845.31C814.137 1845.31 768.173 1601.91 1265.85 1562.94C1499.77 1544.62 1797.2 1721.51 1930.05 1561.16C2075.69 1386.49 1812.11 1060.26 2084.86 1085.05C2357.61 1109.84 2571.67 1079.82 2544.66 801.15" stroke="white" stroke-width="1.33333" stroke-miterlimit="10" stroke-linecap="round" stroke-linejoin="round"/>
<path d="M843.275 1863.38C843.275 1863.38 789.731 1615.95 1300.09 1583.6C1529.78 1569.04 1827.69 1751.68 1960.97 1590.32C2105.2 1416.7 1838.68 1086.29 2109.39 1110.9C2380.09 1135.5 2596.82 1106.42 2568.5 824.925" stroke="white" stroke-width="1.33333" stroke-miterlimit="10" stroke-linecap="round" stroke-linejoin="round"/>
<path d="M872.406 1881.46C872.406 1881.46 811.334 1629.52 1334.32 1604.26C1559.83 1593.37 1858.17 1781.85 1991.88 1619.49C2134.71 1446.91 1865.26 1112.33 2133.91 1136.75C2402.58 1161.17 2621.95 1133.02 2592.33 848.7" stroke="white" stroke-width="1.33333" stroke-miterlimit="10" stroke-linecap="round" stroke-linejoin="round"/>
<path d="M901.542 1899.53C901.542 1899.53 835.498 1679.54 1368.57 1624.93C1588.9 1602.35 1888.67 1812.02 2022.79 1648.66C2164.22 1477.13 1891.83 1138.37 2158.44 1162.6C2425.06 1186.83 2647.08 1159.61 2616.16 872.475" stroke="white" stroke-width="1.33333" stroke-miterlimit="10" stroke-linecap="round" stroke-linejoin="round"/>
<path d="M930.677 1917.61C930.677 1917.61 856.043 1684.56 1402.81 1645.59C1619.58 1630.14 1919.16 1842.18 2053.71 1677.83C2193.73 1507.34 1918.4 1164.4 2182.97 1188.45C2447.54 1212.5 2672.21 1186.21 2640 896.25" stroke="white" stroke-width="1.33333" stroke-miterlimit="10" stroke-linecap="round" stroke-linejoin="round"/>
<path d="M1603.09 -155.778H1603.32C1879.56 -155.778 2103.5 68.081 2103.5 344.277C2103.5 620.448 1879.56 844.308 1603.32 844.308C1327.08 844.308 1103.13 620.448 1103.13 344.277C1103.13 337.952 1103.26 331.677 1103.47 325.403" stroke="white" stroke-width="1.33333" stroke-miterlimit="10" stroke-linecap="round" stroke-linejoin="round"/>
<path d="M1588.24 -127.609C1593.25 -127.763 1598.28 -127.841 1603.32 -127.841C1864.12 -127.841 2075.56 83.5216 2075.56 344.278C2075.56 605.008 1864.12 816.371 1603.32 816.371C1342.5 816.371 1131.08 605.008 1131.08 344.278C1131.08 337.255 1131.23 330.283 1131.54 323.338" stroke="white" stroke-width="1.33333" stroke-miterlimit="10" stroke-linecap="round" stroke-linejoin="round"/>
<path d="M1574.47 -98.9743C1584 -99.594 1593.63 -99.9038 1603.32 -99.9038C1848.7 -99.9038 2047.62 98.9618 2047.62 344.278C2047.62 589.568 1848.7 788.459 1603.32 788.459C1357.94 788.459 1159.02 589.568 1159.02 344.278C1159.02 336.402 1159.23 328.605 1159.62 320.833" stroke="white" stroke-width="1.33333" stroke-miterlimit="10" stroke-linecap="round" stroke-linejoin="round"/>
<path d="M1561.71 -69.9267C1575.4 -71.2951 1589.27 -71.9923 1603.32 -71.9923C1833.26 -71.9923 2019.67 114.376 2019.67 344.278C2019.67 574.153 1833.26 760.522 1603.32 760.522C1373.36 760.522 1186.97 574.153 1186.97 344.278C1186.97 335.37 1187.25 326.514 1187.82 317.761" stroke="white" stroke-width="1.33333" stroke-miterlimit="10" stroke-linecap="round" stroke-linejoin="round"/>
<path d="M1549.73 -40.3888C1567.24 -42.8159 1585.14 -44.0552 1603.32 -44.0552C1817.84 -44.0552 1991.73 129.817 1991.73 344.278C1991.73 558.713 1817.84 732.584 1603.32 732.584C1388.8 732.584 1214.91 558.713 1214.91 344.278C1214.91 334.079 1215.3 323.983 1216.07 313.991" stroke="white" stroke-width="1.33333" stroke-miterlimit="10" stroke-linecap="round" stroke-linejoin="round"/>
<path d="M1538.39 -10.2827C1559.47 -14.1299 1581.16 -16.1181 1603.32 -16.1181C1802.39 -16.1181 1963.78 145.231 1963.78 344.278C1963.78 543.298 1802.39 704.647 1603.32 704.647C1404.25 704.647 1242.86 543.298 1242.86 344.278C1242.86 332.478 1243.43 320.833 1244.54 309.317" stroke="white" stroke-width="1.33333" stroke-miterlimit="10" stroke-linecap="round" stroke-linejoin="round"/>
<path d="M1527.62 20.4948C1551.92 14.8144 1577.29 11.8193 1603.32 11.8193C1786.97 11.8193 1935.84 160.672 1935.84 344.278C1935.84 527.858 1786.97 676.71 1603.32 676.71C1419.67 676.71 1270.8 527.858 1270.8 344.278C1270.8 330.464 1271.65 316.831 1273.28 303.456" stroke="white" stroke-width="1.33333" stroke-miterlimit="10" stroke-linecap="round" stroke-linejoin="round"/>
<path d="M1517.24 52.0986C1544.54 44.0686 1573.41 39.7566 1603.32 39.7566C1771.53 39.7566 1907.89 176.086 1907.89 344.278C1907.89 512.443 1771.53 648.773 1603.32 648.773C1435.11 648.773 1298.75 512.443 1298.75 344.278C1298.75 327.856 1300.04 311.719 1302.57 295.994" stroke="white" stroke-width="1.33333" stroke-miterlimit="10" stroke-linecap="round" stroke-linejoin="round"/>
<path d="M1507.17 84.8639C1537.1 73.7613 1569.51 67.6936 1603.32 67.6936C1756.11 67.6936 1879.95 191.526 1879.95 344.277C1879.95 497.003 1756.11 620.835 1603.32 620.835C1450.53 620.835 1326.69 497.003 1326.69 344.277C1326.69 324.344 1328.81 304.902 1332.84 286.157" stroke="white" stroke-width="1.33333" stroke-miterlimit="10" stroke-linecap="round" stroke-linejoin="round"/>
<path d="M1495.78 120.031C1528.35 104.384 1564.81 95.6311 1603.32 95.6311C1740.67 95.6311 1852.01 206.941 1852.01 344.278C1852.01 481.588 1740.67 592.898 1603.32 592.898C1465.97 592.898 1354.61 481.588 1354.61 344.278C1354.61 319.258 1358.3 295.116 1365.17 272.369" stroke="white" stroke-width="1.33333" stroke-miterlimit="10" stroke-linecap="round" stroke-linejoin="round"/>
<path d="M1476.69 163.486C1512.54 138.337 1556.21 123.568 1603.32 123.568C1725.22 123.568 1824.06 222.381 1824.06 344.278C1824.06 466.148 1725.22 564.961 1603.32 564.961C1481.39 564.961 1382.55 466.148 1382.55 344.278C1382.55 310.169 1390.3 277.869 1404.12 249.028" stroke="white" stroke-width="1.33333" stroke-miterlimit="10" stroke-linecap="round" stroke-linejoin="round"/>
<path d="M1603.31 151.508C1709.8 151.508 1796.12 237.809 1796.12 344.265C1796.12 450.723 1709.8 537.024 1603.31 537.024C1496.83 537.024 1410.51 450.723 1410.51 344.265C1410.51 237.809 1496.83 151.508 1603.31 151.508Z" stroke="white" stroke-width="1.33333" stroke-miterlimit="10" stroke-linecap="round" stroke-linejoin="round"/>
<path d="M1603.31 179.443C1694.37 179.443 1768.18 253.236 1768.18 344.265C1768.18 435.296 1694.37 509.087 1603.31 509.087C1512.26 509.087 1438.45 435.296 1438.45 344.265C1438.45 253.236 1512.26 179.443 1603.31 179.443Z" stroke="white" stroke-width="1.33333" stroke-miterlimit="10" stroke-linecap="round" stroke-linejoin="round"/>
<path d="M1603.31 207.38C1678.94 207.38 1740.24 268.664 1740.24 344.265C1740.24 419.865 1678.94 481.152 1603.31 481.152C1527.7 481.152 1466.39 419.865 1466.39 344.265C1466.39 268.664 1527.7 207.38 1603.31 207.38Z" stroke="white" stroke-width="1.33333" stroke-miterlimit="10" stroke-linecap="round" stroke-linejoin="round"/>
<path d="M1603.31 235.315C1663.5 235.315 1712.3 284.094 1712.3 344.265C1712.3 404.436 1663.5 453.215 1603.31 453.215C1543.13 453.215 1494.34 404.436 1494.34 344.265C1494.34 284.094 1543.13 235.315 1603.31 235.315Z" stroke="white" stroke-width="1.33333" stroke-miterlimit="10" stroke-linecap="round" stroke-linejoin="round"/>
<path d="M1603.31 263.252C1648.07 263.252 1684.35 299.524 1684.35 344.265C1684.35 389.008 1648.07 425.28 1603.31 425.28C1558.56 425.28 1522.28 389.008 1522.28 344.265C1522.28 299.524 1558.56 263.252 1603.31 263.252Z" stroke="white" stroke-width="1.33333" stroke-miterlimit="10" stroke-linecap="round" stroke-linejoin="round"/>
<path d="M1656.41 344.265C1656.41 373.581 1632.64 397.343 1603.31 397.343C1573.99 397.343 1550.22 373.581 1550.22 344.265C1550.22 314.951 1573.99 291.186 1603.31 291.186C1632.64 291.186 1656.41 314.951 1656.41 344.265Z" stroke="white" stroke-width="1.33333" stroke-miterlimit="10" stroke-linecap="round" stroke-linejoin="round"/>
<path d="M1632.91 344.265C1632.91 360.609 1619.66 373.857 1603.31 373.857C1586.97 373.857 1573.72 360.609 1573.72 344.265C1573.72 327.923 1586.97 314.675 1603.31 314.675C1619.66 314.675 1632.91 327.923 1632.91 344.265Z" stroke="white" stroke-width="1.33333" stroke-miterlimit="10" stroke-linecap="round" stroke-linejoin="round"/>
<path d="M660.223 163.602C660.223 506.009 382.573 783.584 40.0798 783.584C-302.417 783.584 -580.064 506.009 -580.064 163.602C-580.064 -178.805 -302.417 -456.38 40.0798 -456.38C382.573 -456.38 660.223 -178.805 660.223 163.602Z" stroke="white" stroke-width="1.33333" stroke-miterlimit="10" stroke-linecap="round" stroke-linejoin="round"/>
<path d="M40.0804 -421.745C363.441 -421.745 625.577 -159.675 625.577 163.602C625.577 486.881 363.441 748.949 40.0804 748.949C-283.282 748.949 -545.42 486.881 -545.42 163.602C-545.42 -159.675 -283.282 -421.745 40.0804 -421.745Z" stroke="white" stroke-width="1.33333" stroke-miterlimit="10" stroke-linecap="round" stroke-linejoin="round"/>
<path d="M40.0803 -387.108C344.306 -387.108 590.933 -140.547 590.933 163.602C590.933 467.751 344.306 714.314 40.0803 714.314C-264.147 714.314 -510.773 467.751 -510.773 163.602C-510.773 -140.547 -264.147 -387.108 40.0803 -387.108Z" stroke="white" stroke-width="1.33333" stroke-miterlimit="10" stroke-linecap="round" stroke-linejoin="round"/>
<path d="M40.0802 -352.473C325.174 -352.473 556.289 -121.417 556.289 163.602C556.289 448.624 325.174 679.677 40.0802 679.677C-245.015 679.677 -476.13 448.624 -476.13 163.602C-476.13 -121.417 -245.015 -352.473 40.0802 -352.473Z" stroke="white" stroke-width="1.33333" stroke-miterlimit="10" stroke-linecap="round" stroke-linejoin="round"/>
<path d="M40.0802 -317.837C306.039 -317.837 521.642 -102.289 521.642 163.602C521.642 429.494 306.039 645.042 40.0802 645.042C-225.881 645.042 -441.483 429.494 -441.483 163.602C-441.483 -102.289 -225.881 -317.837 40.0802 -317.837Z" stroke="white" stroke-width="1.33333" stroke-miterlimit="10" stroke-linecap="round" stroke-linejoin="round"/>
<path d="M40.0797 -283.2C286.906 -283.2 486.998 -83.1598 486.998 163.602C486.998 410.364 286.906 610.404 40.0797 610.404C-206.748 610.404 -406.84 410.364 -406.84 163.602C-406.84 -83.1598 -206.748 -283.2 40.0797 -283.2Z" stroke="white" stroke-width="1.33333" stroke-miterlimit="10" stroke-linecap="round" stroke-linejoin="round"/>
<path d="M40.0804 -248.565C267.771 -248.565 452.352 -64.0322 452.352 163.602C452.352 391.236 267.771 575.769 40.0804 575.769C-187.614 575.769 -372.195 391.236 -372.195 163.602C-372.195 -64.0322 -187.614 -248.565 40.0804 -248.565Z" stroke="white" stroke-width="1.33333" stroke-miterlimit="10" stroke-linecap="round" stroke-linejoin="round"/>
<path d="M40.0804 -213.927C248.638 -213.927 417.708 -44.902 417.708 163.602C417.708 372.107 248.638 541.135 40.0804 541.135C-168.479 541.135 -337.549 372.107 -337.549 163.602C-337.549 -44.902 -168.479 -213.927 40.0804 -213.927Z" stroke="white" stroke-width="1.33333" stroke-miterlimit="10" stroke-linecap="round" stroke-linejoin="round"/>
<path d="M40.0801 -179.292C229.504 -179.292 383.064 -25.7719 383.064 163.602C383.064 352.979 229.504 506.5 40.0801 506.5C-149.346 506.5 -302.905 352.979 -302.905 163.602C-302.905 -25.7719 -149.346 -179.292 40.0801 -179.292Z" stroke="white" stroke-width="1.33333" stroke-miterlimit="10" stroke-linecap="round" stroke-linejoin="round"/>
<path d="M40.0797 -144.658C210.37 -144.658 348.417 -6.64451 348.417 163.602C348.417 333.849 210.37 471.862 40.0797 471.862C-130.212 471.862 -268.262 333.849 -268.262 163.602C-268.262 -6.64451 -130.212 -144.658 40.0797 -144.658Z" stroke="white" stroke-width="1.33333" stroke-miterlimit="10" stroke-linecap="round" stroke-linejoin="round"/>
<path d="M40.08 -110.02C191.237 -110.02 313.774 12.4856 313.774 163.602C313.774 314.722 191.237 437.227 40.08 437.227C-111.079 437.227 -233.615 314.722 -233.615 163.602C-233.615 12.4856 -111.079 -110.02 40.08 -110.02Z" stroke="white" stroke-width="1.33333" stroke-miterlimit="10" stroke-linecap="round" stroke-linejoin="round"/>
<path d="M40.0804 -75.385C172.102 -75.385 279.13 31.6131 279.13 163.602C279.13 295.592 172.102 402.59 40.0804 402.59C-91.9445 402.59 -198.971 295.592 -198.971 163.602C-198.971 31.6131 -91.9445 -75.385 40.0804 -75.385Z" stroke="white" stroke-width="1.33333" stroke-miterlimit="10" stroke-linecap="round" stroke-linejoin="round"/>
<path d="M40.08 -40.7501C152.969 -40.7501 244.484 50.7405 244.484 163.602C244.484 276.462 152.969 367.955 40.08 367.955C-72.8099 367.955 -164.326 276.462 -164.326 163.602C-164.326 50.7405 -72.8099 -40.7501 40.08 -40.7501Z" stroke="white" stroke-width="1.33333" stroke-miterlimit="10" stroke-linecap="round" stroke-linejoin="round"/>
<path d="M40.0803 -6.11536C133.835 -6.11536 209.839 69.8703 209.839 163.602C209.839 257.334 133.835 333.317 40.0803 333.317C-53.6767 333.317 -129.68 257.334 -129.68 163.602C-129.68 69.8703 -53.6767 -6.11536 40.0803 -6.11536Z" stroke="white" stroke-width="1.33333" stroke-miterlimit="10" stroke-linecap="round" stroke-linejoin="round"/>
<path d="M40.0797 28.5225C114.7 28.5225 175.193 89.0008 175.193 163.602C175.193 238.204 114.7 298.682 40.0797 298.682C-34.5433 298.682 -95.0371 238.204 -95.0371 163.602C-95.0371 89.0008 -34.5433 28.5225 40.0797 28.5225Z" stroke="white" stroke-width="1.33333" stroke-miterlimit="10" stroke-linecap="round" stroke-linejoin="round"/>
<path d="M40.0803 63.16C95.5681 63.16 140.549 108.128 140.549 163.602C140.549 219.077 95.5681 264.047 40.0803 264.047C-15.4089 264.047 -60.3906 219.077 -60.3906 163.602C-60.3906 108.128 -15.4089 63.16 40.0803 63.16Z" stroke="white" stroke-width="1.33333" stroke-miterlimit="10" stroke-linecap="round" stroke-linejoin="round"/>
<path d="M105.904 163.602C105.904 199.947 76.4326 229.412 40.0797 229.412C3.72355 229.412 -25.7461 199.947 -25.7461 163.602C-25.7461 127.258 3.72355 97.7923 40.0797 97.7923C76.4326 97.7923 105.904 127.258 105.904 163.602Z" stroke="white" stroke-width="1.33333" stroke-miterlimit="10" stroke-linecap="round" stroke-linejoin="round"/>
<path d="M79.2956 163.602C79.2956 185.257 61.7376 202.81 40.0797 202.81C18.4194 202.81 0.861328 185.257 0.861328 163.602C0.861328 141.95 18.4194 124.397 40.0797 124.397C61.7376 124.397 79.2956 141.95 79.2956 163.602Z" stroke="white" stroke-width="1.33333" stroke-miterlimit="10" stroke-linecap="round" stroke-linejoin="round"/>
<path d="M454.807 1139.25C442.23 1104.24 435.386 1066.46 435.386 1027.11C435.386 843.714 584.096 695.042 767.542 695.042C939.471 695.042 1080.87 825.614 1097.97 992.979" stroke="white" stroke-width="1.33333" stroke-miterlimit="10" stroke-linecap="round" stroke-linejoin="round"/>
<path d="M480.299 1124.58C469.916 1093.99 464.286 1061.2 464.286 1027.11C464.286 859.671 600.057 723.909 767.543 723.909C925.137 723.909 1054.68 844.101 1069.4 997.808" stroke="white" stroke-width="1.33333" stroke-miterlimit="10" stroke-linecap="round" stroke-linejoin="round"/>
<path d="M506.358 1111.31C497.783 1084.79 493.16 1056.5 493.16 1027.11C493.16 875.627 616.018 752.802 767.543 752.802C910.493 752.802 1027.93 862.123 1040.74 1001.68" stroke="white" stroke-width="1.33333" stroke-miterlimit="10" stroke-linecap="round" stroke-linejoin="round"/>
<path d="M532.83 1099.23C525.831 1076.43 522.061 1052.21 522.061 1027.11C522.061 891.558 631.953 781.668 767.543 781.668C895.617 781.668 1000.81 879.733 1012.04 1004.86" stroke="white" stroke-width="1.33333" stroke-miterlimit="10" stroke-linecap="round" stroke-linejoin="round"/>
<path d="M559.664 1088.1C553.982 1068.76 550.935 1048.29 550.935 1027.11C550.935 907.515 647.914 810.561 767.543 810.561C880.612 810.561 973.433 897.161 983.273 1007.64" stroke="white" stroke-width="1.33333" stroke-miterlimit="10" stroke-linecap="round" stroke-linejoin="round"/>
<path d="M586.782 1077.85C582.263 1061.71 579.835 1044.7 579.835 1027.11C579.835 923.472 663.875 839.454 767.543 839.454C865.529 839.454 946.005 914.512 954.502 1010.25" stroke="white" stroke-width="1.33333" stroke-miterlimit="10" stroke-linecap="round" stroke-linejoin="round"/>
<path d="M614.184 1068.5C610.594 1055.31 608.709 1041.42 608.709 1027.11C608.709 939.403 679.81 868.32 767.543 868.32C850.447 868.32 918.5 931.812 925.731 1012.81" stroke="white" stroke-width="1.33333" stroke-miterlimit="10" stroke-linecap="round" stroke-linejoin="round"/>
<path d="M641.819 1060.03C639.082 1049.53 637.609 1038.5 637.609 1027.11C637.609 955.359 695.771 897.213 767.543 897.213C835.39 897.213 891.098 949.163 896.961 1015.47" stroke="white" stroke-width="1.33333" stroke-miterlimit="10" stroke-linecap="round" stroke-linejoin="round"/>
<path d="M-352.172 901.138C-106.818 1142.94 97.599 1009.99 212.787 1350.59C214.956 1357.02 217.151 1363.37 219.347 1369.62" stroke="white" stroke-width="1.33333" stroke-miterlimit="10" stroke-linecap="round" stroke-linejoin="round"/>
<path d="M-322.032 881.54C-78.1766 1121.82 124.95 989.726 239.466 1328.2C240.472 1331.14 241.455 1334.06 242.462 1336.98" stroke="white" stroke-width="1.33333" stroke-miterlimit="10" stroke-linecap="round" stroke-linejoin="round"/>
<path d="M-291.867 861.917C-49.5358 1100.73 152.326 969.431 266.118 1305.81C266.17 1305.99 266.247 1306.15 266.299 1306.33" stroke="white" stroke-width="1.33333" stroke-miterlimit="10" stroke-linecap="round" stroke-linejoin="round"/>
<path d="M-261.728 842.294C-22.3149 1078.21 177.351 950.66 290.782 1277.59" stroke="white" stroke-width="1.33333" stroke-miterlimit="10" stroke-linecap="round" stroke-linejoin="round"/>
<path d="M-231.562 822.696C5.21668 1056.03 202.867 931.528 315.86 1250.74" stroke="white" stroke-width="1.33333" stroke-miterlimit="10" stroke-linecap="round" stroke-linejoin="round"/>
<path d="M-188.069 815.88C40.5744 1029.75 231.252 917.946 341.532 1225.59" stroke="white" stroke-width="1.33333" stroke-miterlimit="10" stroke-linecap="round" stroke-linejoin="round"/>
<path d="M-111.286 835.994C94.8367 995.071 265.808 918.979 367.824 1202.15" stroke="white" stroke-width="1.33333" stroke-miterlimit="10" stroke-linecap="round" stroke-linejoin="round"/>
<path d="M-38.3008 846.502C147.264 965.223 300.597 918.463 394.709 1180.43" stroke="white" stroke-width="1.33333" stroke-miterlimit="10" stroke-linecap="round" stroke-linejoin="round"/>
<path d="M32.0518 850.246C198.53 939.325 335.721 917.223 422.215 1160.32" stroke="white" stroke-width="1.33333" stroke-miterlimit="10" stroke-linecap="round" stroke-linejoin="round"/>
<path d="M97.4443 847.923C247.393 917.069 370.742 914.28 450.288 1141.99" stroke="white" stroke-width="1.33333" stroke-miterlimit="10" stroke-linecap="round" stroke-linejoin="round"/>
<path d="M156.407 840.59C268.391 887.117 364.001 903.332 435.386 1026.75" stroke="white" stroke-width="1.33333" stroke-miterlimit="10" stroke-linecap="round" stroke-linejoin="round"/>
<path d="M209.068 829.693C299.073 864.886 377.535 886.265 440.113 971.006" stroke="white" stroke-width="1.33333" stroke-miterlimit="10" stroke-linecap="round" stroke-linejoin="round"/>
<path d="M256.098 816.19C330.013 844.359 395.613 866.539 450.262 928.507" stroke="white" stroke-width="1.33333" stroke-miterlimit="10" stroke-linecap="round" stroke-linejoin="round"/>
<path d="M298.428 800.827C360.231 824.22 415.862 845.392 463.77 892.617" stroke="white" stroke-width="1.33333" stroke-miterlimit="10" stroke-linecap="round" stroke-linejoin="round"/>
<path d="M336.78 783.941C389.518 803.977 437.582 823.497 479.912 860.936" stroke="white" stroke-width="1.33333" stroke-miterlimit="10" stroke-linecap="round" stroke-linejoin="round"/>
<path d="M498.506 832.327C460.464 801.369 418.005 783.476 371.801 765.815" stroke="white" stroke-width="1.33333" stroke-miterlimit="10" stroke-linecap="round" stroke-linejoin="round"/>
<path d="M519.606 806.12C484.534 779.267 445.794 762.691 403.98 746.605" stroke="white" stroke-width="1.33333" stroke-miterlimit="10" stroke-linecap="round" stroke-linejoin="round"/>
<path d="M543.29 782.159C509.896 757.475 473.197 741.699 433.733 726.465" stroke="white" stroke-width="1.33333" stroke-miterlimit="10" stroke-linecap="round" stroke-linejoin="round"/>
<path d="M569.762 760.29C536.627 736.019 500.263 720.475 461.161 705.422" stroke="white" stroke-width="1.33333" stroke-miterlimit="10" stroke-linecap="round" stroke-linejoin="round"/>
<path d="M599.282 740.744C565.062 715.182 527.329 699.251 486.626 683.656" stroke="white" stroke-width="1.33333" stroke-miterlimit="10" stroke-linecap="round" stroke-linejoin="round"/>
<path d="M632.211 723.754H632.185C595.485 694.913 554.602 678.104 510.231 661.167" stroke="white" stroke-width="1.33333" stroke-miterlimit="10" stroke-linecap="round" stroke-linejoin="round"/>
<path d="M668.678 710.018H668.653C628.208 675.29 582.366 657.087 532.133 638.032" stroke="white" stroke-width="1.33333" stroke-miterlimit="10" stroke-linecap="round" stroke-linejoin="round"/>
<path d="M708.555 700.284H708.529C663.306 656.106 610.775 636.379 552.433 614.303" stroke="white" stroke-width="1.33333" stroke-miterlimit="10" stroke-linecap="round" stroke-linejoin="round"/>
<path d="M751.324 695.43H751.298C700.703 636.947 639.856 616.111 571.234 590.032" stroke="white" stroke-width="1.33333" stroke-miterlimit="10" stroke-linecap="round" stroke-linejoin="round"/>
<path d="M795.901 696.256H795.875C739.831 617.117 669.428 596.281 588.564 565.09" stroke="white" stroke-width="1.33333" stroke-miterlimit="10" stroke-linecap="round" stroke-linejoin="round"/>
<path d="M604.499 539.58C699.128 577.071 779.991 595.842 840.994 703.201" stroke="white" stroke-width="1.33333" stroke-miterlimit="10" stroke-linecap="round" stroke-linejoin="round"/>
<path d="M619.634 513.553C729.061 558.635 820.824 572.5 885.726 716.705" stroke="white" stroke-width="1.33333" stroke-miterlimit="10" stroke-linecap="round" stroke-linejoin="round"/>
<path d="M634.717 487.269C759.382 541.181 862.043 546.784 929.451 737.103" stroke="white" stroke-width="1.33333" stroke-miterlimit="10" stroke-linecap="round" stroke-linejoin="round"/>
<path d="M650.6 461.036C782.135 521.015 890.09 519.234 959.202 723.573C964.368 738.807 969.533 753.473 974.776 767.622" stroke="white" stroke-width="1.33333" stroke-miterlimit="10" stroke-linecap="round" stroke-linejoin="round"/>
<path d="M668.291 435.319C803.958 500.411 915.271 492.588 985.856 701.187C1003.44 753.189 1021.37 798.632 1040.79 838.24C1040.79 838.266 1040.81 838.292 1040.81 838.317" stroke="white" stroke-width="1.33333" stroke-miterlimit="10" stroke-linecap="round" stroke-linejoin="round"/>
<path d="M1072.69 895.715V895.741C1094.15 929.694 1117.78 958.071 1144.79 981.696" stroke="white" stroke-width="1.33333" stroke-miterlimit="10" stroke-linecap="round" stroke-linejoin="round"/>
<path d="M688.953 410.842C827.384 479.936 941.021 467.491 1012.51 678.802C1059.38 817.403 1108.56 908.935 1182.76 967.624" stroke="white" stroke-width="1.33333" stroke-miterlimit="10" stroke-linecap="round" stroke-linejoin="round"/>
<path d="M713.953 388.378C853.211 459.331 967.519 444.588 1039.16 656.39C1087.33 798.813 1137.92 891.171 1216.02 949.085" stroke="white" stroke-width="1.33333" stroke-miterlimit="10" stroke-linecap="round" stroke-linejoin="round"/>
<path d="M744.506 368.781C882.059 438.34 994.973 424.526 1065.82 634.004C1114.11 776.737 1164.83 868.811 1243.66 926.157" stroke="white" stroke-width="1.33333" stroke-miterlimit="10" stroke-linecap="round" stroke-linejoin="round"/>
<path d="M782.238 352.695C914.807 416.987 1023.64 408.131 1092.47 611.618C1139.86 751.692 1189.6 842.604 1266.36 899.614" stroke="white" stroke-width="1.33333" stroke-miterlimit="10" stroke-linecap="round" stroke-linejoin="round"/>
<path d="M829.32 340.663C952.72 395.737 1053.99 396.615 1119.12 589.232C1164.96 724.735 1213.05 813.866 1286.01 870.696" stroke="white" stroke-width="1.33333" stroke-miterlimit="10" stroke-linecap="round" stroke-linejoin="round"/>
<path d="M889.807 333.485C997.969 376.449 1086.81 392.406 1145.8 566.82C1189.42 695.817 1235.08 782.443 1302.65 839.066" stroke="white" stroke-width="1.33333" stroke-miterlimit="10" stroke-linecap="round" stroke-linejoin="round"/>
<path d="M1220.62 666.227C1248.1 724.116 1278.71 769.275 1316.23 804.08" stroke="white" stroke-width="1.33333" stroke-miterlimit="10" stroke-linecap="round" stroke-linejoin="round"/>
<path d="M966.279 331.238C1020.41 351.972 1068.6 373.067 1109.26 422.719" stroke="white" stroke-width="1.33333" stroke-miterlimit="10" stroke-linecap="round" stroke-linejoin="round"/>
<path d="M1326.77 764.808C1323.67 761.529 1320.62 758.198 1317.62 754.764" stroke="white" stroke-width="1.33333" stroke-miterlimit="10" stroke-linecap="round" stroke-linejoin="round"/>
<path d="M1103.7 368.342C1083.53 351.662 1061.89 339.372 1038.93 328.837" stroke="white" stroke-width="1.33333" stroke-miterlimit="10" stroke-linecap="round" stroke-linejoin="round"/>
<path d="M1103.42 327.34C1102.46 326.746 1101.51 326.152 1100.55 325.584" stroke="white" stroke-width="1.33333" stroke-miterlimit="10" stroke-linecap="round" stroke-linejoin="round"/>
</g>
<defs>
<clipPath id="clip0_1718_1325">
<rect width="1924" height="901" fill="white"/>
</clipPath>
</defs>
</svg>
