<svg width="2139" height="949" viewBox="0 0 2139 949" fill="none" xmlns="http://www.w3.org/2000/svg">
<g opacity="0.3">
<mask id="path-1-outside-1_1887_1446" maskUnits="userSpaceOnUse" x="974" y="653" width="1075" height="215" fill="black">
<rect fill="white" x="974" y="653" width="1075" height="215"/>
<path d="M1070.42 861H978.923V660H1070.42C1132.82 660 1172.12 698.4 1172.12 760.5C1172.12 822.6 1132.82 861 1070.42 861ZM1070.42 689.1H1011.02V831.9H1070.42C1116.92 831.9 1137.92 812.1 1137.92 760.5C1137.92 708.9 1116.92 689.1 1070.42 689.1ZM1357.06 861H1196.26V660H1357.06V689.1H1228.66V745.5H1352.56V774.3H1228.66V831.9H1357.06V861ZM1466.6 864C1406.6 864 1376 837.6 1376 795.3V793.5H1408.4V798.3C1408.4 822.3 1422.5 834.3 1466.6 834.3C1505 834.3 1518.5 825.9 1518.5 807C1518.5 789.6 1508.3 783 1482.8 778.2L1433.6 770.1C1399.7 764.1 1375.7 748.5 1375.7 715.5C1375.7 686.4 1399.7 657 1462.1 657C1520.9 657 1547.6 686.4 1547.6 725.7V727.5H1515.5V723.6C1515.5 699 1500.8 686.7 1459.1 686.7C1422.5 686.7 1408.1 695.7 1408.1 713.7C1408.1 731.1 1418.3 736.8 1442 741.9L1490.9 750.3C1531.1 757.5 1550.9 775.8 1550.9 805.2C1550.9 835.8 1526 864 1466.6 864ZM1606.3 861H1573.9V660H1606.3V861ZM1728.7 864C1669.6 864 1630.3 823.2 1630.3 760.5C1630.3 697.8 1672.6 657 1736.8 657C1793.8 657 1833.4 685.8 1833.4 732.3V734.7H1797.7V732.3C1797.7 703.5 1777.6 687.9 1735.9 687.9C1687.6 687.9 1664.5 710.4 1664.5 760.5C1664.5 810.6 1687.3 832.8 1734.4 832.8C1782.4 832.8 1801.3 819.6 1801.3 785.7V783H1726.9V758.4H1833.4V861H1804V817.5H1801.9C1793.5 846.9 1768 864 1728.7 864ZM1893.12 861H1860.72V660H1895.52L1985.52 777.6L2011.62 815.1H2014.02L2012.52 778.8V660H2044.92V861H2010.12L1919.52 743.7L1894.32 708.3H1891.92L1893.12 743.1V861Z"/>
</mask>
<path d="M978.923 861H974.923V865H978.923V861ZM978.923 660V656H974.923V660H978.923ZM1011.02 689.1V685.1H1007.02V689.1H1011.02ZM1011.02 831.9H1007.02V835.9H1011.02V831.9ZM1070.42 857H978.923V865H1070.42V857ZM982.923 861V660H974.923V861H982.923ZM978.923 664H1070.42V656H978.923V664ZM1070.42 664C1100.8 664 1125.14 673.331 1141.87 689.812C1158.59 706.286 1168.12 730.309 1168.12 760.5H1176.12C1176.12 728.591 1166.01 702.364 1147.48 684.113C1128.96 665.869 1102.45 656 1070.42 656V664ZM1168.12 760.5C1168.12 790.691 1158.59 814.714 1141.87 831.188C1125.14 847.669 1100.8 857 1070.42 857V865C1102.45 865 1128.96 855.131 1147.48 836.887C1166.01 818.636 1176.12 792.409 1176.12 760.5H1168.12ZM1070.42 685.1H1011.02V693.1H1070.42V685.1ZM1007.02 689.1V831.9H1015.02V689.1H1007.02ZM1011.02 835.9H1070.42V827.9H1011.02V835.9ZM1070.42 835.9C1094.13 835.9 1112.32 830.868 1124.48 818.336C1136.61 805.835 1141.92 786.712 1141.92 760.5H1133.92C1133.92 785.888 1128.73 802.465 1118.74 812.764C1108.78 823.032 1093.22 827.9 1070.42 827.9V835.9ZM1141.92 760.5C1141.92 734.288 1136.61 715.165 1124.48 702.664C1112.32 690.132 1094.13 685.1 1070.42 685.1V693.1C1093.22 693.1 1108.78 697.968 1118.74 708.236C1128.73 718.535 1133.92 735.112 1133.92 760.5H1141.92ZM1357.06 861V865H1361.06V861H1357.06ZM1196.26 861H1192.26V865H1196.26V861ZM1196.26 660V656H1192.26V660H1196.26ZM1357.06 660H1361.06V656H1357.06V660ZM1357.06 689.1V693.1H1361.06V689.1H1357.06ZM1228.66 689.1V685.1H1224.66V689.1H1228.66ZM1228.66 745.5H1224.66V749.5H1228.66V745.5ZM1352.56 745.5H1356.56V741.5H1352.56V745.5ZM1352.56 774.3V778.3H1356.56V774.3H1352.56ZM1228.66 774.3V770.3H1224.66V774.3H1228.66ZM1228.66 831.9H1224.66V835.9H1228.66V831.9ZM1357.06 831.9H1361.06V827.9H1357.06V831.9ZM1357.06 857H1196.26V865H1357.06V857ZM1200.26 861V660H1192.26V861H1200.26ZM1196.26 664H1357.06V656H1196.26V664ZM1353.06 660V689.1H1361.06V660H1353.06ZM1357.06 685.1H1228.66V693.1H1357.06V685.1ZM1224.66 689.1V745.5H1232.66V689.1H1224.66ZM1228.66 749.5H1352.56V741.5H1228.66V749.5ZM1348.56 745.5V774.3H1356.56V745.5H1348.56ZM1352.56 770.3H1228.66V778.3H1352.56V770.3ZM1224.66 774.3V831.9H1232.66V774.3H1224.66ZM1228.66 835.9H1357.06V827.9H1228.66V835.9ZM1353.06 831.9V861H1361.06V831.9H1353.06ZM1376 793.5V789.5H1372V793.5H1376ZM1408.4 793.5H1412.4V789.5H1408.4V793.5ZM1482.8 778.2L1483.54 774.269L1483.49 774.261L1483.45 774.253L1482.8 778.2ZM1433.6 770.1L1432.9 774.039L1432.93 774.043L1432.95 774.047L1433.6 770.1ZM1547.6 727.5V731.5H1551.6V727.5H1547.6ZM1515.5 727.5H1511.5V731.5H1515.5V727.5ZM1442 741.9L1441.16 745.81L1441.24 745.828L1441.32 745.842L1442 741.9ZM1490.9 750.3L1491.6 746.363L1491.59 746.36L1491.58 746.358L1490.9 750.3ZM1466.6 860C1437.11 860 1415.46 853.504 1401.27 842.366C1387.21 831.337 1380 815.395 1380 795.3H1372C1372 817.505 1380.08 835.913 1396.33 848.659C1412.43 861.296 1436.09 868 1466.6 868V860ZM1380 795.3V793.5H1372V795.3H1380ZM1376 797.5H1408.4V789.5H1376V797.5ZM1404.4 793.5V798.3H1412.4V793.5H1404.4ZM1404.4 798.3C1404.4 811.175 1408.26 821.666 1418.75 828.632C1428.82 835.317 1444.38 838.3 1466.6 838.3V830.3C1444.72 830.3 1431.18 827.283 1423.17 821.968C1415.59 816.934 1412.4 809.425 1412.4 798.3H1404.4ZM1466.6 838.3C1485.9 838.3 1499.75 836.225 1508.87 831.248C1513.53 828.701 1517.02 825.359 1519.31 821.144C1521.57 816.962 1522.5 812.193 1522.5 807H1514.5C1514.5 811.257 1513.74 814.626 1512.27 817.334C1510.82 820.009 1508.54 822.312 1505.03 824.227C1497.8 828.175 1485.7 830.3 1466.6 830.3V838.3ZM1522.5 807C1522.5 797.37 1519.6 790.061 1512.65 784.708C1506.1 779.654 1496.34 776.678 1483.54 774.269L1482.06 782.131C1494.76 784.522 1502.85 787.246 1507.77 791.042C1512.3 794.539 1514.5 799.23 1514.5 807H1522.5ZM1483.45 774.253L1434.25 766.153L1432.95 774.047L1482.15 782.147L1483.45 774.253ZM1434.3 766.161C1417.69 763.222 1404.01 758.007 1394.54 749.888C1385.23 741.909 1379.7 730.888 1379.7 715.5H1371.7C1371.7 733.112 1378.17 746.391 1389.33 755.962C1400.34 765.393 1415.61 770.978 1432.9 774.039L1434.3 766.161ZM1379.7 715.5C1379.7 702.114 1385.19 688.662 1397.99 678.467C1410.87 668.215 1431.48 661 1462.1 661V653C1430.31 653 1407.73 660.485 1393.01 672.208C1378.21 683.988 1371.7 699.786 1371.7 715.5H1379.7ZM1462.1 661C1490.87 661 1511.19 668.193 1524.27 679.624C1537.28 690.999 1543.6 706.995 1543.6 725.7H1551.6C1551.6 705.105 1544.57 686.751 1529.53 673.601C1514.56 660.507 1492.12 653 1462.1 653V661ZM1543.6 725.7V727.5H1551.6V725.7H1543.6ZM1547.6 723.5H1515.5V731.5H1547.6V723.5ZM1519.5 727.5V723.6H1511.5V727.5H1519.5ZM1519.5 723.6C1519.5 710.424 1515.49 699.751 1505.21 692.636C1495.29 685.771 1480.16 682.7 1459.1 682.7V690.7C1479.74 690.7 1492.81 693.779 1500.66 699.214C1508.15 704.399 1511.5 712.176 1511.5 723.6H1519.5ZM1459.1 682.7C1440.63 682.7 1427.04 684.941 1417.94 689.946C1413.32 692.494 1409.79 695.796 1407.44 699.908C1405.11 704.008 1404.1 708.661 1404.1 713.7H1412.1C1412.1 709.739 1412.89 706.517 1414.4 703.867C1415.9 701.229 1418.26 698.906 1421.8 696.954C1429.06 692.959 1440.96 690.7 1459.1 690.7V682.7ZM1404.1 713.7C1404.1 723.338 1407.01 730.421 1413.72 735.584C1420.02 740.427 1429.32 743.263 1441.16 745.81L1442.84 737.99C1430.98 735.437 1423.32 732.873 1418.6 729.241C1414.29 725.929 1412.1 721.462 1412.1 713.7H1404.1ZM1441.32 745.842L1490.22 754.242L1491.58 746.358L1442.68 737.958L1441.32 745.842ZM1490.19 754.237C1509.9 757.766 1524.07 763.932 1533.27 772.373C1542.34 780.69 1546.9 791.505 1546.9 805.2H1554.9C1554.9 789.495 1549.56 776.46 1538.68 766.477C1527.93 756.618 1512.1 750.034 1491.6 746.363L1490.19 754.237ZM1546.9 805.2C1546.9 819.342 1541.18 832.867 1528.53 842.947C1515.8 853.087 1495.71 860 1466.6 860V868C1496.89 868 1518.94 860.813 1533.52 849.203C1548.16 837.533 1554.9 821.658 1554.9 805.2H1546.9ZM1606.3 861V865H1610.3V861H1606.3ZM1573.9 861H1569.9V865H1573.9V861ZM1573.9 660V656H1569.9V660H1573.9ZM1606.3 660H1610.3V656H1606.3V660ZM1606.3 857H1573.9V865H1606.3V857ZM1577.9 861V660H1569.9V861H1577.9ZM1573.9 664H1606.3V656H1573.9V664ZM1602.3 660V861H1610.3V660H1602.3ZM1833.4 734.7V738.7H1837.4V734.7H1833.4ZM1797.7 734.7H1793.7V738.7H1797.7V734.7ZM1801.3 783H1805.3V779H1801.3V783ZM1726.9 783H1722.9V787H1726.9V783ZM1726.9 758.4V754.4H1722.9V758.4H1726.9ZM1833.4 758.4H1837.4V754.4H1833.4V758.4ZM1833.4 861V865H1837.4V861H1833.4ZM1804 861H1800V865H1804V861ZM1804 817.5H1808V813.5H1804V817.5ZM1801.9 817.5V813.5H1798.89L1798.06 816.401L1801.9 817.5ZM1728.7 860C1700.11 860 1676.6 850.152 1660.23 833.001C1643.85 815.833 1634.3 791.009 1634.3 760.5H1626.3C1626.3 792.691 1636.4 819.617 1654.45 838.524C1672.5 857.448 1698.2 868 1728.7 868V860ZM1634.3 760.5C1634.3 730.078 1644.54 705.292 1662.26 688.109C1679.99 670.914 1705.56 661 1736.8 661V653C1703.85 653 1676.16 663.486 1656.69 682.366C1637.21 701.258 1626.3 728.222 1626.3 760.5H1634.3ZM1736.8 661C1764.68 661 1787.9 668.046 1804.05 680.391C1820.1 692.658 1829.4 710.315 1829.4 732.3H1837.4C1837.4 707.785 1826.91 687.792 1808.91 674.034C1791.01 660.354 1765.93 653 1736.8 653V661ZM1829.4 732.3V734.7H1837.4V732.3H1829.4ZM1833.4 730.7H1797.7V738.7H1833.4V730.7ZM1801.7 734.7V732.3H1793.7V734.7H1801.7ZM1801.7 732.3C1801.7 716.861 1796.25 704.456 1784.8 696.073C1773.58 687.853 1757.14 683.9 1735.9 683.9V691.9C1756.37 691.9 1770.82 695.747 1780.08 702.527C1789.11 709.144 1793.7 718.939 1793.7 732.3H1801.7ZM1735.9 683.9C1711.21 683.9 1692.12 689.647 1679.25 702.593C1666.39 715.533 1660.5 734.915 1660.5 760.5H1668.5C1668.5 735.985 1674.16 719.067 1684.93 708.232C1695.69 697.403 1712.3 691.9 1735.9 691.9V683.9ZM1660.5 760.5C1660.5 786.072 1666.31 805.372 1678.93 818.239C1691.57 831.122 1710.3 836.8 1734.4 836.8V828.8C1711.41 828.8 1695.18 823.378 1684.65 812.636C1674.09 801.878 1668.5 785.028 1668.5 760.5H1660.5ZM1734.4 836.8C1758.57 836.8 1776.36 833.52 1788.15 825.235C1800.31 816.689 1805.3 803.425 1805.3 785.7H1797.3C1797.3 801.875 1792.84 812.161 1783.55 818.69C1773.89 825.48 1758.24 828.8 1734.4 828.8V836.8ZM1805.3 785.7V783H1797.3V785.7H1805.3ZM1801.3 779H1726.9V787H1801.3V779ZM1730.9 783V758.4H1722.9V783H1730.9ZM1726.9 762.4H1833.4V754.4H1726.9V762.4ZM1829.4 758.4V861H1837.4V758.4H1829.4ZM1833.4 857H1804V865H1833.4V857ZM1808 861V817.5H1800V861H1808ZM1804 813.5H1801.9V821.5H1804V813.5ZM1798.06 816.401C1794.11 830.212 1786.21 841.013 1774.72 848.413C1763.19 855.846 1747.79 860 1728.7 860V868C1748.91 868 1765.92 863.604 1779.06 855.137C1792.25 846.637 1801.29 834.188 1805.75 818.599L1798.06 816.401ZM1893.12 861V865H1897.12V861H1893.12ZM1860.72 861H1856.72V865H1860.72V861ZM1860.72 660V656H1856.72V660H1860.72ZM1895.52 660L1898.69 657.569L1897.49 656H1895.52V660ZM1985.52 777.6L1988.8 775.315L1988.75 775.241L1988.69 775.169L1985.52 777.6ZM2011.62 815.1L2008.33 817.385L2009.53 819.1H2011.62V815.1ZM2014.02 815.1V819.1H2018.19L2018.01 814.935L2014.02 815.1ZM2012.52 778.8H2008.52V778.883L2008.52 778.965L2012.52 778.8ZM2012.52 660V656H2008.52V660H2012.52ZM2044.92 660H2048.92V656H2044.92V660ZM2044.92 861V865H2048.92V861H2044.92ZM2010.12 861L2006.95 863.445L2008.15 865H2010.12V861ZM1919.52 743.7L1916.26 746.02L1916.3 746.083L1916.35 746.145L1919.52 743.7ZM1894.32 708.3L1897.58 705.98L1896.38 704.3H1894.32V708.3ZM1891.92 708.3V704.3H1887.78L1887.92 708.438L1891.92 708.3ZM1893.12 743.1H1897.12V743.031L1897.11 742.962L1893.12 743.1ZM1893.12 857H1860.72V865H1893.12V857ZM1864.72 861V660H1856.72V861H1864.72ZM1860.72 664H1895.52V656H1860.72V664ZM1892.34 662.431L1982.34 780.031L1988.69 775.169L1898.69 657.569L1892.34 662.431ZM1982.23 779.885L2008.33 817.385L2014.9 812.815L1988.8 775.315L1982.23 779.885ZM2011.62 819.1H2014.02V811.1H2011.62V819.1ZM2018.01 814.935L2016.51 778.635L2008.52 778.965L2010.02 815.265L2018.01 814.935ZM2016.52 778.8V660H2008.52V778.8H2016.52ZM2012.52 664H2044.92V656H2012.52V664ZM2040.92 660V861H2048.92V660H2040.92ZM2044.92 857H2010.12V865H2044.92V857ZM2013.28 858.555L1922.68 741.255L1916.35 746.145L2006.95 863.445L2013.28 858.555ZM1922.78 741.38L1897.58 705.98L1891.06 710.62L1916.26 746.02L1922.78 741.38ZM1894.32 704.3H1891.92V712.3H1894.32V704.3ZM1887.92 708.438L1889.12 743.238L1897.11 742.962L1895.91 708.162L1887.92 708.438ZM1889.12 743.1V861H1897.12V743.1H1889.12Z" fill="#98C9A3" mask="url(#path-1-outside-1_1887_1446)"/>
</g>
<path opacity="0.3" d="M91.6422 477H59.2422V276H91.6422V477ZM154.045 477H121.645V276H156.445L246.445 393.6L272.545 431.1H274.945L273.445 394.8V276H305.845V477H271.045L180.445 359.7L155.245 324.3H152.845L154.045 359.1V477ZM435.705 477H403.605V305.1H324.405V276H514.605V305.1H435.705V477ZM694.359 477H533.559V276H694.359V305.1H565.959V361.5H689.859V390.3H565.959V447.9H694.359V477ZM751.994 477H719.594V276H823.994C869.594 276 897.794 297.6 897.794 335.1C897.794 368.4 875.894 388.8 838.094 390.9V393C853.694 397.2 860.894 406.2 868.094 418.8L901.694 477H864.494L832.394 421.5C823.394 405.6 814.094 399 788.894 399H751.994V477ZM751.994 305.1V374.1H823.694C850.694 374.1 864.194 364.8 864.194 339.6C864.194 315 850.694 305.1 823.694 305.1H751.994ZM953.556 477H921.156V276H953.556V477ZM1082.26 480C1019.26 480 977.559 439.2 977.559 376.5C977.559 313.8 1019.26 273 1082.26 273C1145.86 273 1187.26 313.8 1187.26 376.5C1187.26 439.2 1145.86 480 1082.26 480ZM1082.26 448.8C1129.96 448.8 1153.06 426.6 1153.06 376.5C1153.06 326.4 1129.96 303.9 1082.26 303.9C1034.56 303.9 1011.76 326.4 1011.76 376.5C1011.76 426.6 1034.56 448.8 1082.26 448.8ZM1243.6 477H1211.2V276H1315.6C1361.2 276 1389.4 297.6 1389.4 335.1C1389.4 368.4 1367.5 388.8 1329.7 390.9V393C1345.3 397.2 1352.5 406.2 1359.7 418.8L1393.3 477H1356.1L1324 421.5C1315 405.6 1305.7 399 1280.5 399H1243.6V477ZM1243.6 305.1V374.1H1315.3C1342.3 374.1 1355.8 364.8 1355.8 339.6C1355.8 315 1342.3 305.1 1315.3 305.1H1243.6Z" fill="#98C9A3"/>
<g opacity="0.12" clip-path="url(#clip0_1887_1446)">
<path d="M2203.07 -389.705C1852.83 -411.362 1679.51 -349.996 1549.53 90.3977C1489.23 294.696 1350.94 325.032 964.591 332.251C709.403 337.02 707.916 462.727 617.675 586.705C479.386 776.693 268.953 850.291 84.0797 850.291C50.4838 850.291 -109.583 848.7 -224.262 779.275" stroke="white" stroke-width="1.33333" stroke-miterlimit="10" stroke-linecap="round" stroke-linejoin="round"/>
<path d="M2190.45 -415.111C1840.05 -440.934 1664.64 -377.179 1536.2 55.6878C1475.67 259.036 1343.44 294.487 955.566 298.791C775.373 300.792 710.011 358.804 665.434 442.918C650.276 471.516 611.185 548.344 570.428 592.119C447.243 724.431 279.043 817.579 84.0804 817.579C-19.4303 817.579 -154.971 796.773 -293.549 695.92" stroke="white" stroke-width="1.33333" stroke-miterlimit="10" stroke-linecap="round" stroke-linejoin="round"/>
<path d="M640.726 437.178C640.751 437.152 640.777 437.127 640.777 437.075C693.386 341.231 745.169 266.043 946.539 265.32C1335.93 263.952 1462.12 223.389 1522.86 20.9857C1649.77 -404.373 1827.28 -470.498 2177.83 -440.521" stroke="white" stroke-width="1.33333" stroke-miterlimit="10" stroke-linecap="round" stroke-linejoin="round"/>
<path d="M697.027 258.401C744.574 220.471 812.653 197.104 928.486 198.421C1320.95 202.862 1435.02 152.048 1496.21 -48.4442C1620.05 -458.724 1801.71 -529.652 2152.59 -491.335" stroke="white" stroke-width="1.33333" stroke-miterlimit="10" stroke-linecap="round" stroke-linejoin="round"/>
<path d="M702.451 211.047C749.972 180.786 815.985 163.021 919.447 164.958C1313.43 172.317 1421.47 116.39 1482.86 -83.1465C1605.17 -485.913 1788.95 -559.216 2139.99 -516.742" stroke="white" stroke-width="1.33333" stroke-miterlimit="10" stroke-linecap="round" stroke-linejoin="round"/>
<path d="M704.207 168.366C751.496 143.14 815.494 129.017 910.433 131.495C1305.94 141.772 1408.35 80.8622 1469.53 -117.848C1591.15 -512.843 1776.17 -588.805 2127.39 -542.148" stroke="white" stroke-width="1.33333" stroke-miterlimit="10" stroke-linecap="round" stroke-linejoin="round"/>
<path d="M703.227 128.345C750.231 106.682 812.473 95.0633 901.395 98.0326C1298.45 111.227 1394.84 45.2306 1456.2 -152.576C1576.4 -539.98 1763.39 -618.369 2114.76 -567.555" stroke="white" stroke-width="1.33333" stroke-miterlimit="10" stroke-linecap="round" stroke-linejoin="round"/>
<path d="M699.895 90.1057C746.692 70.9473 807.643 61.1615 892.381 64.5698C1290.94 80.6814 1381.33 9.59901 1442.88 -187.278C1561.6 -567.142 1750.63 -647.933 2102.15 -592.962" stroke="white" stroke-width="1.33333" stroke-miterlimit="10" stroke-linecap="round" stroke-linejoin="round"/>
<path d="M694.418 53.1057C741.216 35.703 801.34 27.2082 883.34 31.107C1283.45 50.1364 1367.82 -26.0584 1429.55 -221.981C1546.8 -594.305 1737.84 -677.523 2089.52 -618.369" stroke="white" stroke-width="1.33333" stroke-miterlimit="10" stroke-linecap="round" stroke-linejoin="round"/>
<path d="M686.801 17.0867C733.805 0.84589 793.672 -6.74514 874.328 -2.35574C1275.96 19.5913 1354.32 -61.6901 1416.2 -256.709C1531.98 -621.468 1725.06 -707.087 2076.92 -643.776" stroke="white" stroke-width="1.33333" stroke-miterlimit="10" stroke-linecap="round" stroke-linejoin="round"/>
<path d="M685.406 315.773C732.514 264.804 801.497 231.341 937.5 231.883C1328.44 233.407 1448.56 187.706 1509.54 -13.7421C1634.9 -431.561 1814.5 -500.088 2165.22 -465.928" stroke="white" stroke-width="1.33333" stroke-miterlimit="10" stroke-linecap="round" stroke-linejoin="round"/>
<path d="M640.777 437.075C640.777 437.127 640.751 437.152 640.726 437.178" stroke="white" stroke-width="1.33333" stroke-miterlimit="10" stroke-linecap="round" stroke-linejoin="round"/>
<path d="M217.167 1447.67C217.167 1447.67 327.422 1215.08 556.556 1108.34C874.328 960.343 1170.4 1057.81 1293.93 919.47C1340.32 867.52 1360.77 813.04 1371.49 761.451" stroke="white" stroke-width="1.33333" stroke-miterlimit="10" stroke-linecap="round" stroke-linejoin="round"/>
<path d="M246.301 1465.74C246.301 1465.74 350.718 1234.5 590.802 1129.03C906.482 990.346 1200.91 1088 1324.85 948.621C1373.82 893.65 1393.29 835.374 1402.87 780.61" stroke="white" stroke-width="1.33333" stroke-miterlimit="10" stroke-linecap="round" stroke-linejoin="round"/>
<path d="M275.433 1483.82C275.433 1483.82 373.807 1253.86 625.049 1149.68C938.275 1019.81 1231.38 1118.15 1355.76 977.798C1408.11 918.825 1426.09 855.592 1434.22 796.774" stroke="white" stroke-width="1.33333" stroke-miterlimit="10" stroke-linecap="round" stroke-linejoin="round"/>
<path d="M304.591 1501.89C304.591 1501.89 396.689 1273.15 659.268 1170.34C969.757 1048.8 1261.88 1148.31 1386.68 1006.97C1443.21 943.121 1458.81 873.665 1465.29 810.148" stroke="white" stroke-width="1.33333" stroke-miterlimit="10" stroke-linecap="round" stroke-linejoin="round"/>
<path d="M333.724 1519.97C333.724 1519.97 419.391 1292.34 693.515 1190.99C1000.96 1077.36 1292.36 1178.5 1417.59 1036.12C1478.98 966.617 1491.12 889.674 1495.85 820.941" stroke="white" stroke-width="1.33333" stroke-miterlimit="10" stroke-linecap="round" stroke-linejoin="round"/>
<path d="M362.856 1538.04C362.856 1538.04 441.964 1311.44 727.761 1211.68C1031.92 1105.5 1322.86 1208.65 1448.51 1065.3C1515.37 989.365 1522.6 903.668 1525.73 829.436" stroke="white" stroke-width="1.33333" stroke-miterlimit="10" stroke-linecap="round" stroke-linejoin="round"/>
<path d="M391.988 1556.11C391.988 1556.11 464.38 1330.39 762.007 1232.33C1062.68 1133.26 1353.33 1238.84 1479.42 1094.48C1552.38 1011.39 1552.85 915.468 1555.01 835.787" stroke="white" stroke-width="1.33333" stroke-miterlimit="10" stroke-linecap="round" stroke-linejoin="round"/>
<path d="M421.121 1574.19C421.121 1574.19 486.643 1349.19 796.228 1252.99C1093.29 1160.68 1383.84 1269 1510.33 1123.63C1589.98 1032.66 1581.46 924.969 1583.97 840.332" stroke="white" stroke-width="1.33333" stroke-miterlimit="10" stroke-linecap="round" stroke-linejoin="round"/>
<path d="M2254.97 468.291C2261.86 654.712 2155.87 721.999 1966.07 729.615" stroke="white" stroke-width="1.33333" stroke-miterlimit="10" stroke-linecap="round" stroke-linejoin="round"/>
<path d="M450.254 1592.26C450.254 1592.26 508.803 1367.83 830.474 1273.67C1123.74 1187.79 1414.34 1299.15 1541.25 1152.81C1628.23 1053.14 1607.81 931.76 1612.92 843.146" stroke="white" stroke-width="1.33333" stroke-miterlimit="10" stroke-linecap="round" stroke-linejoin="round"/>
<path d="M2278.81 492.071C2287.48 699.354 2156.93 760.006 1931.18 756.029" stroke="white" stroke-width="1.33333" stroke-miterlimit="10" stroke-linecap="round" stroke-linejoin="round"/>
<path d="M479.386 1610.34C479.386 1610.34 530.858 1386.29 864.72 1294.32C1154.06 1214.59 1444.81 1329.34 1572.16 1181.98C1667.33 1072.63 1631.2 935.065 1642.88 844.282" stroke="white" stroke-width="1.33333" stroke-miterlimit="10" stroke-linecap="round" stroke-linejoin="round"/>
<path d="M2302.65 515.852C2313.29 743.894 2155.85 795.276 1893.91 779.397" stroke="white" stroke-width="1.33333" stroke-miterlimit="10" stroke-linecap="round" stroke-linejoin="round"/>
<path d="M508.519 1628.41C508.519 1628.41 552.837 1404.58 898.966 1314.98C1184.27 1241.14 1475.31 1359.49 1603.08 1211.13C1707.73 1090.55 1650.26 933.129 1675.52 843.533" stroke="white" stroke-width="1.33333" stroke-miterlimit="10" stroke-linecap="round" stroke-linejoin="round"/>
<path d="M2326.48 539.632C2339.19 787.246 2154.3 827.525 1859.05 800.698C1857.01 800.518 1854.99 800.337 1853 800.208" stroke="white" stroke-width="1.33333" stroke-miterlimit="10" stroke-linecap="round" stroke-linejoin="round"/>
<path d="M537.651 1646.48C537.651 1646.48 574.687 1422.62 933.213 1335.64C1214.41 1267.42 1505.79 1389.65 1633.99 1240.31C1750.88 1105.19 1661.11 920.503 1715.99 839.634" stroke="white" stroke-width="1.33333" stroke-miterlimit="10" stroke-linecap="round" stroke-linejoin="round"/>
<path d="M566.791 1664.57C566.791 1664.57 596.492 1440.44 967.44 1356.31C1244.46 1293.48 1535.99 1419.57 1664.91 1269.48C1824.19 1084.03 1590.38 799.903 1883.58 826.552C2176.78 853.198 2364.33 813.856 2350.31 563.402" stroke="white" stroke-width="1.33333" stroke-miterlimit="10" stroke-linecap="round" stroke-linejoin="round"/>
<path d="M595.927 1682.64C595.927 1682.64 618.22 1458.01 1001.68 1376.97C1274.47 1319.32 1566.47 1449.73 1695.82 1298.64C1853.7 1114.24 1616.95 825.937 1908.11 852.4C2199.27 878.863 2389.47 840.453 2374.15 587.177" stroke="white" stroke-width="1.33333" stroke-miterlimit="10" stroke-linecap="round" stroke-linejoin="round"/>
<path d="M625.062 1700.72C625.062 1700.72 639.886 1475.31 1035.92 1397.63C1304.43 1344.97 1596.95 1479.9 1726.74 1327.81C1883.21 1144.45 1643.53 851.974 1932.63 878.251C2221.75 904.525 2414.6 867.047 2397.98 610.952" stroke="white" stroke-width="1.33333" stroke-miterlimit="10" stroke-linecap="round" stroke-linejoin="round"/>
<path d="M654.196 1718.79C654.196 1718.79 661.5 1492.33 1070.16 1418.3C1334.36 1370.43 1627.44 1510.06 1757.65 1356.98C1912.72 1174.67 1670.1 878.008 1957.16 904.099C2244.23 930.191 2439.73 893.645 2421.82 634.727" stroke="white" stroke-width="1.33333" stroke-miterlimit="10" stroke-linecap="round" stroke-linejoin="round"/>
<path d="M683.328 1736.86C683.328 1736.86 683.075 1509.05 1104.4 1438.96C1364.26 1395.73 1657.93 1540.23 1788.56 1386.15C1942.24 1204.88 1696.67 904.045 1981.69 929.951C2266.71 955.856 2464.87 920.242 2445.65 658.502" stroke="white" stroke-width="1.33333" stroke-miterlimit="10" stroke-linecap="round" stroke-linejoin="round"/>
<path d="M712.465 1754.94C712.465 1754.94 704.616 1525.45 1138.64 1459.62C1394.16 1420.87 1688.43 1570.41 1819.48 1415.32C1971.76 1235.11 1723.25 930.082 2006.22 955.799C2289.2 981.518 2490 946.839 2469.49 682.277" stroke="white" stroke-width="1.33333" stroke-miterlimit="10" stroke-linecap="round" stroke-linejoin="round"/>
<path d="M741.6 1773.01C741.6 1773.01 726.135 1541.5 1172.88 1480.28C1424.05 1445.87 1719.23 1600.84 1850.4 1444.49C2001.64 1265.63 1749.82 956.116 2030.75 981.649C2311.68 1007.18 2515.14 973.434 2493.32 706.052" stroke="white" stroke-width="1.33333" stroke-miterlimit="10" stroke-linecap="round" stroke-linejoin="round"/>
<path d="M770.734 1791.09C770.734 1791.09 747.637 1557.2 1207.12 1500.95C1453.95 1470.73 1749.72 1631.01 1881.31 1473.65C2031.15 1295.85 1776.39 982.153 2055.28 1007.5C2334.16 1032.85 2540.27 1000.03 2517.16 729.825" stroke="white" stroke-width="1.33333" stroke-miterlimit="10" stroke-linecap="round" stroke-linejoin="round"/>
<path d="M799.869 1809.16C799.869 1809.16 769.137 1572.51 1241.36 1521.61C1483.86 1495.47 1780.21 1661.18 1912.22 1502.82C2060.66 1326.06 1802.96 1008.19 2079.8 1033.35C2356.64 1058.51 2565.4 1026.63 2540.99 753.6" stroke="white" stroke-width="1.33333" stroke-miterlimit="10" stroke-linecap="round" stroke-linejoin="round"/>
<path d="M829.005 1827.24C829.005 1827.24 790.647 1587.43 1275.6 1542.27C1513.8 1520.1 1810.71 1691.34 1943.14 1531.99C2090.18 1356.27 1829.54 1034.22 2104.33 1059.2C2379.13 1084.18 2590.54 1053.23 2564.83 777.374" stroke="white" stroke-width="1.33333" stroke-miterlimit="10" stroke-linecap="round" stroke-linejoin="round"/>
<path d="M858.137 1845.31C858.137 1845.31 812.173 1601.91 1309.85 1562.94C1543.77 1544.62 1841.2 1721.51 1974.05 1561.16C2119.69 1386.49 1856.11 1060.26 2128.86 1085.05C2401.61 1109.84 2615.67 1079.82 2588.66 801.15" stroke="white" stroke-width="1.33333" stroke-miterlimit="10" stroke-linecap="round" stroke-linejoin="round"/>
<path d="M887.275 1863.38C887.275 1863.38 833.731 1615.95 1344.09 1583.6C1573.78 1569.04 1871.69 1751.68 2004.97 1590.33C2149.2 1416.7 1882.68 1086.3 2153.39 1110.9C2424.09 1135.5 2640.82 1106.42 2612.5 824.925" stroke="white" stroke-width="1.33333" stroke-miterlimit="10" stroke-linecap="round" stroke-linejoin="round"/>
<path d="M916.406 1881.46C916.406 1881.46 855.334 1629.52 1378.32 1604.26C1603.83 1593.37 1902.17 1781.85 2035.88 1619.49C2178.71 1446.91 1909.26 1112.33 2177.91 1136.75C2446.58 1161.17 2665.95 1133.02 2636.33 848.7" stroke="white" stroke-width="1.33333" stroke-miterlimit="10" stroke-linecap="round" stroke-linejoin="round"/>
<path d="M945.542 1899.54C945.542 1899.54 879.498 1679.54 1412.57 1624.93C1632.9 1602.35 1932.67 1812.02 2066.79 1648.66C2208.22 1477.13 1935.83 1138.37 2202.44 1162.6C2469.06 1186.83 2691.08 1159.61 2660.16 872.475" stroke="white" stroke-width="1.33333" stroke-miterlimit="10" stroke-linecap="round" stroke-linejoin="round"/>
<path d="M974.677 1917.61C974.677 1917.61 900.043 1684.56 1446.81 1645.59C1663.58 1630.14 1963.16 1842.18 2097.71 1677.83C2237.73 1507.34 1962.4 1164.4 2226.97 1188.45C2491.54 1212.5 2716.21 1186.21 2684 896.25" stroke="white" stroke-width="1.33333" stroke-miterlimit="10" stroke-linecap="round" stroke-linejoin="round"/>
<path d="M1647.09 -155.778H1647.32C1923.56 -155.778 2147.5 68.0815 2147.5 344.278C2147.5 620.449 1923.56 844.308 1647.32 844.308C1371.08 844.308 1147.13 620.449 1147.13 344.278C1147.13 337.952 1147.26 331.678 1147.47 325.404" stroke="white" stroke-width="1.33333" stroke-miterlimit="10" stroke-linecap="round" stroke-linejoin="round"/>
<path d="M1632.24 -127.609C1637.25 -127.763 1642.28 -127.841 1647.32 -127.841C1908.12 -127.841 2119.56 83.5216 2119.56 344.278C2119.56 605.008 1908.12 816.371 1647.32 816.371C1386.5 816.371 1175.08 605.008 1175.08 344.278C1175.08 337.255 1175.23 330.283 1175.54 323.338" stroke="white" stroke-width="1.33333" stroke-miterlimit="10" stroke-linecap="round" stroke-linejoin="round"/>
<path d="M1618.47 -98.9743C1628 -99.594 1637.63 -99.9038 1647.32 -99.9038C1892.7 -99.9038 2091.62 98.9618 2091.62 344.278C2091.62 589.568 1892.7 788.459 1647.32 788.459C1401.94 788.459 1203.02 589.568 1203.02 344.278C1203.02 336.402 1203.23 328.605 1203.62 320.833" stroke="white" stroke-width="1.33333" stroke-miterlimit="10" stroke-linecap="round" stroke-linejoin="round"/>
<path d="M1605.71 -69.9267C1619.4 -71.2951 1633.27 -71.9923 1647.32 -71.9923C1877.26 -71.9923 2063.67 114.376 2063.67 344.278C2063.67 574.153 1877.26 760.522 1647.32 760.522C1417.36 760.522 1230.97 574.153 1230.97 344.278C1230.97 335.37 1231.25 326.514 1231.82 317.761" stroke="white" stroke-width="1.33333" stroke-miterlimit="10" stroke-linecap="round" stroke-linejoin="round"/>
<path d="M1593.73 -40.3883C1611.24 -42.8154 1629.14 -44.0547 1647.32 -44.0547C1861.84 -44.0547 2035.73 129.817 2035.73 344.278C2035.73 558.713 1861.84 732.585 1647.32 732.585C1432.8 732.585 1258.91 558.713 1258.91 344.278C1258.91 334.079 1259.3 323.983 1260.07 313.991" stroke="white" stroke-width="1.33333" stroke-miterlimit="10" stroke-linecap="round" stroke-linejoin="round"/>
<path d="M1582.39 -10.2825C1603.47 -14.1296 1625.16 -16.1178 1647.32 -16.1178C1846.39 -16.1178 2007.78 145.231 2007.78 344.278C2007.78 543.298 1846.39 704.647 1647.32 704.647C1448.25 704.647 1286.86 543.298 1286.86 344.278C1286.86 332.478 1287.43 320.833 1288.54 309.317" stroke="white" stroke-width="1.33333" stroke-miterlimit="10" stroke-linecap="round" stroke-linejoin="round"/>
<path d="M1571.62 20.4953C1595.92 14.8149 1621.29 11.8198 1647.32 11.8198C1830.97 11.8198 1979.84 160.672 1979.84 344.278C1979.84 527.858 1830.97 676.71 1647.32 676.71C1463.67 676.71 1314.8 527.858 1314.8 344.278C1314.8 330.464 1315.65 316.831 1317.28 303.457" stroke="white" stroke-width="1.33333" stroke-miterlimit="10" stroke-linecap="round" stroke-linejoin="round"/>
<path d="M1561.24 52.0989C1588.54 44.0688 1617.41 39.7568 1647.32 39.7568C1815.53 39.7568 1951.89 176.086 1951.89 344.278C1951.89 512.444 1815.53 648.773 1647.32 648.773C1479.11 648.773 1342.75 512.444 1342.75 344.278C1342.75 327.856 1344.04 311.719 1346.57 295.995" stroke="white" stroke-width="1.33333" stroke-miterlimit="10" stroke-linecap="round" stroke-linejoin="round"/>
<path d="M1551.17 84.8644C1581.1 73.7618 1613.51 67.6941 1647.32 67.6941C1800.11 67.6941 1923.95 191.527 1923.95 344.278C1923.95 497.003 1800.11 620.836 1647.32 620.836C1494.53 620.836 1370.69 497.003 1370.69 344.278C1370.69 324.345 1372.81 304.902 1376.84 286.157" stroke="white" stroke-width="1.33333" stroke-miterlimit="10" stroke-linecap="round" stroke-linejoin="round"/>
<path d="M1539.78 120.031C1572.35 104.384 1608.81 95.6311 1647.32 95.6311C1784.67 95.6311 1896.01 206.941 1896.01 344.278C1896.01 481.588 1784.67 592.898 1647.32 592.898C1509.97 592.898 1398.61 481.588 1398.61 344.278C1398.61 319.258 1402.3 295.116 1409.17 272.369" stroke="white" stroke-width="1.33333" stroke-miterlimit="10" stroke-linecap="round" stroke-linejoin="round"/>
<path d="M1520.69 163.486C1556.54 138.338 1600.21 123.569 1647.32 123.569C1769.22 123.569 1868.06 222.382 1868.06 344.278C1868.06 466.148 1769.22 564.961 1647.32 564.961C1525.39 564.961 1426.55 466.148 1426.55 344.278C1426.55 310.17 1434.3 277.869 1448.12 249.028" stroke="white" stroke-width="1.33333" stroke-miterlimit="10" stroke-linecap="round" stroke-linejoin="round"/>
<path d="M1647.31 151.508C1753.8 151.508 1840.12 237.809 1840.12 344.265C1840.12 450.723 1753.8 537.024 1647.31 537.024C1540.83 537.024 1454.51 450.723 1454.51 344.265C1454.51 237.809 1540.83 151.508 1647.31 151.508Z" stroke="white" stroke-width="1.33333" stroke-miterlimit="10" stroke-linecap="round" stroke-linejoin="round"/>
<path d="M1647.31 179.443C1738.37 179.443 1812.18 253.237 1812.18 344.265C1812.18 435.296 1738.37 509.087 1647.31 509.087C1556.26 509.087 1482.45 435.296 1482.45 344.265C1482.45 253.237 1556.26 179.443 1647.31 179.443Z" stroke="white" stroke-width="1.33333" stroke-miterlimit="10" stroke-linecap="round" stroke-linejoin="round"/>
<path d="M1647.31 207.38C1722.94 207.38 1784.24 268.664 1784.24 344.265C1784.24 419.866 1722.94 481.152 1647.31 481.152C1571.7 481.152 1510.39 419.866 1510.39 344.265C1510.39 268.664 1571.7 207.38 1647.31 207.38Z" stroke="white" stroke-width="1.33333" stroke-miterlimit="10" stroke-linecap="round" stroke-linejoin="round"/>
<path d="M1647.31 235.315C1707.5 235.315 1756.3 284.094 1756.3 344.265C1756.3 404.436 1707.5 453.215 1647.31 453.215C1587.13 453.215 1538.34 404.436 1538.34 344.265C1538.34 284.094 1587.13 235.315 1647.31 235.315Z" stroke="white" stroke-width="1.33333" stroke-miterlimit="10" stroke-linecap="round" stroke-linejoin="round"/>
<path d="M1647.31 263.252C1692.07 263.252 1728.35 299.524 1728.35 344.265C1728.35 389.008 1692.07 425.28 1647.31 425.28C1602.56 425.28 1566.28 389.008 1566.28 344.265C1566.28 299.524 1602.56 263.252 1647.31 263.252Z" stroke="white" stroke-width="1.33333" stroke-miterlimit="10" stroke-linecap="round" stroke-linejoin="round"/>
<path d="M1700.41 344.265C1700.41 373.581 1676.64 397.343 1647.31 397.343C1617.99 397.343 1594.22 373.581 1594.22 344.265C1594.22 314.951 1617.99 291.187 1647.31 291.187C1676.64 291.187 1700.41 314.951 1700.41 344.265Z" stroke="white" stroke-width="1.33333" stroke-miterlimit="10" stroke-linecap="round" stroke-linejoin="round"/>
<path d="M1676.91 344.265C1676.91 360.609 1663.66 373.857 1647.31 373.857C1630.97 373.857 1617.72 360.609 1617.72 344.265C1617.72 327.924 1630.97 314.675 1647.31 314.675C1663.66 314.675 1676.91 327.924 1676.91 344.265Z" stroke="white" stroke-width="1.33333" stroke-miterlimit="10" stroke-linecap="round" stroke-linejoin="round"/>
<path d="M704.223 163.602C704.223 506.009 426.573 783.584 84.0798 783.584C-258.417 783.584 -536.064 506.009 -536.064 163.602C-536.064 -178.804 -258.417 -456.38 84.0798 -456.38C426.573 -456.38 704.223 -178.804 704.223 163.602Z" stroke="white" stroke-width="1.33333" stroke-miterlimit="10" stroke-linecap="round" stroke-linejoin="round"/>
<path d="M84.0804 -421.745C407.441 -421.745 669.577 -159.675 669.577 163.602C669.577 486.881 407.441 748.949 84.0804 748.949C-239.282 748.949 -501.42 486.881 -501.42 163.602C-501.42 -159.675 -239.282 -421.745 84.0804 -421.745Z" stroke="white" stroke-width="1.33333" stroke-miterlimit="10" stroke-linecap="round" stroke-linejoin="round"/>
<path d="M84.0803 -387.107C388.306 -387.107 634.933 -140.547 634.933 163.602C634.933 467.752 388.306 714.314 84.0803 714.314C-220.147 714.314 -466.773 467.752 -466.773 163.602C-466.773 -140.547 -220.147 -387.107 84.0803 -387.107Z" stroke="white" stroke-width="1.33333" stroke-miterlimit="10" stroke-linecap="round" stroke-linejoin="round"/>
<path d="M84.0802 -352.472C369.174 -352.472 600.289 -121.417 600.289 163.602C600.289 448.624 369.174 679.677 84.0802 679.677C-201.015 679.677 -432.13 448.624 -432.13 163.602C-432.13 -121.417 -201.015 -352.472 84.0802 -352.472Z" stroke="white" stroke-width="1.33333" stroke-miterlimit="10" stroke-linecap="round" stroke-linejoin="round"/>
<path d="M84.0802 -317.837C350.039 -317.837 565.642 -102.289 565.642 163.602C565.642 429.494 350.039 645.042 84.0802 645.042C-181.881 645.042 -397.483 429.494 -397.483 163.602C-397.483 -102.289 -181.881 -317.837 84.0802 -317.837Z" stroke="white" stroke-width="1.33333" stroke-miterlimit="10" stroke-linecap="round" stroke-linejoin="round"/>
<path d="M84.0797 -283.2C330.906 -283.2 530.998 -83.1595 530.998 163.602C530.998 410.364 330.906 610.404 84.0797 610.404C-162.748 610.404 -362.84 410.364 -362.84 163.602C-362.84 -83.1595 -162.748 -283.2 84.0797 -283.2Z" stroke="white" stroke-width="1.33333" stroke-miterlimit="10" stroke-linecap="round" stroke-linejoin="round"/>
<path d="M84.0804 -248.565C311.771 -248.565 496.352 -64.0319 496.352 163.602C496.352 391.237 311.771 575.77 84.0804 575.77C-143.614 575.77 -328.195 391.237 -328.195 163.602C-328.195 -64.0319 -143.614 -248.565 84.0804 -248.565Z" stroke="white" stroke-width="1.33333" stroke-miterlimit="10" stroke-linecap="round" stroke-linejoin="round"/>
<path d="M84.0804 -213.927C292.638 -213.927 461.708 -44.9017 461.708 163.603C461.708 372.107 292.638 541.135 84.0804 541.135C-124.479 541.135 -293.549 372.107 -293.549 163.603C-293.549 -44.9017 -124.479 -213.927 84.0804 -213.927Z" stroke="white" stroke-width="1.33333" stroke-miterlimit="10" stroke-linecap="round" stroke-linejoin="round"/>
<path d="M84.0801 -179.292C273.504 -179.292 427.064 -25.7717 427.064 163.603C427.064 352.979 273.504 506.5 84.0801 506.5C-105.346 506.5 -258.905 352.979 -258.905 163.603C-258.905 -25.7717 -105.346 -179.292 84.0801 -179.292Z" stroke="white" stroke-width="1.33333" stroke-miterlimit="10" stroke-linecap="round" stroke-linejoin="round"/>
<path d="M84.0797 -144.657C254.37 -144.657 392.417 -6.64427 392.417 163.602C392.417 333.849 254.37 471.862 84.0797 471.862C-86.212 471.862 -224.262 333.849 -224.262 163.602C-224.262 -6.64427 -86.212 -144.657 84.0797 -144.657Z" stroke="white" stroke-width="1.33333" stroke-miterlimit="10" stroke-linecap="round" stroke-linejoin="round"/>
<path d="M84.08 -110.02C235.237 -110.02 357.774 12.4856 357.774 163.602C357.774 314.722 235.237 437.227 84.08 437.227C-67.0788 437.227 -189.615 314.722 -189.615 163.602C-189.615 12.4856 -67.0788 -110.02 84.08 -110.02Z" stroke="white" stroke-width="1.33333" stroke-miterlimit="10" stroke-linecap="round" stroke-linejoin="round"/>
<path d="M84.0804 -75.3848C216.102 -75.3848 323.13 31.6133 323.13 163.603C323.13 295.592 216.102 402.59 84.0804 402.59C-47.9445 402.59 -154.971 295.592 -154.971 163.603C-154.971 31.6133 -47.9445 -75.3848 84.0804 -75.3848Z" stroke="white" stroke-width="1.33333" stroke-miterlimit="10" stroke-linecap="round" stroke-linejoin="round"/>
<path d="M84.08 -40.7499C196.969 -40.7499 288.484 50.7407 288.484 163.603C288.484 276.462 196.969 367.955 84.08 367.955C-28.8099 367.955 -120.326 276.462 -120.326 163.603C-120.326 50.7407 -28.8099 -40.7499 84.08 -40.7499Z" stroke="white" stroke-width="1.33333" stroke-miterlimit="10" stroke-linecap="round" stroke-linejoin="round"/>
<path d="M84.0803 -6.11487C177.835 -6.11487 253.839 69.8708 253.839 163.603C253.839 257.334 177.835 333.317 84.0803 333.317C-9.67672 333.317 -85.6797 257.334 -85.6797 163.603C-85.6797 69.8708 -9.67672 -6.11487 84.0803 -6.11487Z" stroke="white" stroke-width="1.33333" stroke-miterlimit="10" stroke-linecap="round" stroke-linejoin="round"/>
<path d="M84.0797 28.5228C158.7 28.5228 219.193 89.001 219.193 163.603C219.193 238.204 158.7 298.683 84.0797 298.683C9.4567 298.683 -51.0371 238.204 -51.0371 163.603C-51.0371 89.001 9.4567 28.5228 84.0797 28.5228Z" stroke="white" stroke-width="1.33333" stroke-miterlimit="10" stroke-linecap="round" stroke-linejoin="round"/>
<path d="M84.0803 63.16C139.568 63.16 184.549 108.128 184.549 163.602C184.549 219.077 139.568 264.047 84.0803 264.047C28.5911 264.047 -16.3906 219.077 -16.3906 163.602C-16.3906 108.128 28.5911 63.16 84.0803 63.16Z" stroke="white" stroke-width="1.33333" stroke-miterlimit="10" stroke-linecap="round" stroke-linejoin="round"/>
<path d="M149.904 163.603C149.904 199.947 120.433 229.413 84.0797 229.413C47.7235 229.413 18.2539 199.947 18.2539 163.603C18.2539 127.258 47.7235 97.7925 84.0797 97.7925C120.433 97.7925 149.904 127.258 149.904 163.603Z" stroke="white" stroke-width="1.33333" stroke-miterlimit="10" stroke-linecap="round" stroke-linejoin="round"/>
<path d="M123.296 163.602C123.296 185.258 105.738 202.81 84.0797 202.81C62.4194 202.81 44.8613 185.258 44.8613 163.602C44.8613 141.95 62.4194 124.397 84.0797 124.397C105.738 124.397 123.296 141.95 123.296 163.602Z" stroke="white" stroke-width="1.33333" stroke-miterlimit="10" stroke-linecap="round" stroke-linejoin="round"/>
<path d="M498.807 1139.25C486.23 1104.24 479.386 1066.46 479.386 1027.11C479.386 843.714 628.096 695.042 811.542 695.042C983.471 695.042 1124.87 825.614 1141.97 992.979" stroke="white" stroke-width="1.33333" stroke-miterlimit="10" stroke-linecap="round" stroke-linejoin="round"/>
<path d="M524.299 1124.58C513.916 1093.99 508.286 1061.2 508.286 1027.11C508.286 859.671 644.057 723.909 811.543 723.909C969.137 723.909 1098.68 844.102 1113.4 997.808" stroke="white" stroke-width="1.33333" stroke-miterlimit="10" stroke-linecap="round" stroke-linejoin="round"/>
<path d="M550.358 1111.31C541.783 1084.8 537.16 1056.5 537.16 1027.11C537.16 875.628 660.018 752.802 811.543 752.802C954.493 752.802 1071.93 862.124 1084.74 1001.68" stroke="white" stroke-width="1.33333" stroke-miterlimit="10" stroke-linecap="round" stroke-linejoin="round"/>
<path d="M576.83 1099.23C569.831 1076.43 566.061 1052.21 566.061 1027.11C566.061 891.559 675.953 781.669 811.543 781.669C939.617 781.669 1044.81 879.733 1056.04 1004.86" stroke="white" stroke-width="1.33333" stroke-miterlimit="10" stroke-linecap="round" stroke-linejoin="round"/>
<path d="M603.664 1088.1C597.982 1068.76 594.935 1048.29 594.935 1027.11C594.935 907.516 691.914 810.561 811.543 810.561C924.612 810.561 1017.43 897.162 1027.27 1007.65" stroke="white" stroke-width="1.33333" stroke-miterlimit="10" stroke-linecap="round" stroke-linejoin="round"/>
<path d="M630.782 1077.85C626.263 1061.71 623.835 1044.7 623.835 1027.11C623.835 923.472 707.875 839.454 811.543 839.454C909.529 839.454 990.005 914.513 998.502 1010.25" stroke="white" stroke-width="1.33333" stroke-miterlimit="10" stroke-linecap="round" stroke-linejoin="round"/>
<path d="M658.184 1068.5C654.594 1055.31 652.709 1041.42 652.709 1027.11C652.709 939.403 723.81 868.32 811.543 868.32C894.447 868.32 962.5 931.812 969.731 1012.81" stroke="white" stroke-width="1.33333" stroke-miterlimit="10" stroke-linecap="round" stroke-linejoin="round"/>
<path d="M685.819 1060.03C683.082 1049.53 681.609 1038.5 681.609 1027.11C681.609 955.36 739.771 897.213 811.543 897.213C879.39 897.213 935.098 949.163 940.961 1015.47" stroke="white" stroke-width="1.33333" stroke-miterlimit="10" stroke-linecap="round" stroke-linejoin="round"/>
<path d="M-308.172 901.138C-62.818 1142.94 141.599 1009.99 256.787 1350.59C258.956 1357.02 261.151 1363.37 263.347 1369.62" stroke="white" stroke-width="1.33333" stroke-miterlimit="10" stroke-linecap="round" stroke-linejoin="round"/>
<path d="M-278.032 881.541C-34.1766 1121.82 168.95 989.726 283.466 1328.2C284.472 1331.14 285.455 1334.06 286.462 1336.98" stroke="white" stroke-width="1.33333" stroke-miterlimit="10" stroke-linecap="round" stroke-linejoin="round"/>
<path d="M-247.867 861.917C-5.53584 1100.73 196.326 969.431 310.118 1305.81C310.17 1305.99 310.247 1306.15 310.299 1306.33" stroke="white" stroke-width="1.33333" stroke-miterlimit="10" stroke-linecap="round" stroke-linejoin="round"/>
<path d="M-217.728 842.294C21.6851 1078.21 221.351 950.66 334.782 1277.59" stroke="white" stroke-width="1.33333" stroke-miterlimit="10" stroke-linecap="round" stroke-linejoin="round"/>
<path d="M-187.562 822.697C49.2167 1056.03 246.867 931.528 359.86 1250.74" stroke="white" stroke-width="1.33333" stroke-miterlimit="10" stroke-linecap="round" stroke-linejoin="round"/>
<path d="M-144.069 815.88C84.5744 1029.75 275.252 917.947 385.532 1225.59" stroke="white" stroke-width="1.33333" stroke-miterlimit="10" stroke-linecap="round" stroke-linejoin="round"/>
<path d="M-67.2861 835.994C138.837 995.071 309.808 918.979 411.824 1202.15" stroke="white" stroke-width="1.33333" stroke-miterlimit="10" stroke-linecap="round" stroke-linejoin="round"/>
<path d="M5.69922 846.503C191.264 965.223 344.597 918.463 438.709 1180.43" stroke="white" stroke-width="1.33333" stroke-miterlimit="10" stroke-linecap="round" stroke-linejoin="round"/>
<path d="M76.0518 850.246C242.53 939.325 379.721 917.223 466.215 1160.32" stroke="white" stroke-width="1.33333" stroke-miterlimit="10" stroke-linecap="round" stroke-linejoin="round"/>
<path d="M141.444 847.923C291.393 917.069 414.742 914.28 494.288 1141.99" stroke="white" stroke-width="1.33333" stroke-miterlimit="10" stroke-linecap="round" stroke-linejoin="round"/>
<path d="M200.407 840.59C312.391 887.117 408.001 903.332 479.386 1026.75" stroke="white" stroke-width="1.33333" stroke-miterlimit="10" stroke-linecap="round" stroke-linejoin="round"/>
<path d="M253.068 829.694C343.073 864.887 421.535 886.266 484.113 971.007" stroke="white" stroke-width="1.33333" stroke-miterlimit="10" stroke-linecap="round" stroke-linejoin="round"/>
<path d="M300.098 816.19C374.013 844.359 439.613 866.539 494.262 928.507" stroke="white" stroke-width="1.33333" stroke-miterlimit="10" stroke-linecap="round" stroke-linejoin="round"/>
<path d="M342.428 800.827C404.231 824.22 459.862 845.392 507.77 892.617" stroke="white" stroke-width="1.33333" stroke-miterlimit="10" stroke-linecap="round" stroke-linejoin="round"/>
<path d="M380.78 783.941C433.518 803.977 481.582 823.497 523.912 860.936" stroke="white" stroke-width="1.33333" stroke-miterlimit="10" stroke-linecap="round" stroke-linejoin="round"/>
<path d="M542.506 832.327C504.464 801.369 462.005 783.476 415.801 765.815" stroke="white" stroke-width="1.33333" stroke-miterlimit="10" stroke-linecap="round" stroke-linejoin="round"/>
<path d="M563.606 806.12C528.534 779.267 489.794 762.691 447.98 746.605" stroke="white" stroke-width="1.33333" stroke-miterlimit="10" stroke-linecap="round" stroke-linejoin="round"/>
<path d="M587.29 782.159C553.896 757.475 517.197 741.699 477.733 726.465" stroke="white" stroke-width="1.33333" stroke-miterlimit="10" stroke-linecap="round" stroke-linejoin="round"/>
<path d="M613.762 760.29C580.627 736.019 544.263 720.475 505.161 705.422" stroke="white" stroke-width="1.33333" stroke-miterlimit="10" stroke-linecap="round" stroke-linejoin="round"/>
<path d="M643.282 740.744C609.062 715.182 571.329 699.251 530.626 683.656" stroke="white" stroke-width="1.33333" stroke-miterlimit="10" stroke-linecap="round" stroke-linejoin="round"/>
<path d="M676.211 723.754H676.185C639.485 694.913 598.602 678.105 554.231 661.167" stroke="white" stroke-width="1.33333" stroke-miterlimit="10" stroke-linecap="round" stroke-linejoin="round"/>
<path d="M712.678 710.018H712.653C672.208 675.29 626.366 657.087 576.133 638.032" stroke="white" stroke-width="1.33333" stroke-miterlimit="10" stroke-linecap="round" stroke-linejoin="round"/>
<path d="M752.555 700.284H752.529C707.306 656.106 654.775 636.38 596.433 614.304" stroke="white" stroke-width="1.33333" stroke-miterlimit="10" stroke-linecap="round" stroke-linejoin="round"/>
<path d="M795.324 695.43H795.298C744.703 636.947 683.856 616.111 615.234 590.032" stroke="white" stroke-width="1.33333" stroke-miterlimit="10" stroke-linecap="round" stroke-linejoin="round"/>
<path d="M839.901 696.256H839.875C783.831 617.118 713.428 596.281 632.564 565.09" stroke="white" stroke-width="1.33333" stroke-miterlimit="10" stroke-linecap="round" stroke-linejoin="round"/>
<path d="M648.499 539.58C743.128 577.071 823.991 595.842 884.994 703.202" stroke="white" stroke-width="1.33333" stroke-miterlimit="10" stroke-linecap="round" stroke-linejoin="round"/>
<path d="M663.634 513.554C773.061 558.636 864.824 572.501 929.726 716.706" stroke="white" stroke-width="1.33333" stroke-miterlimit="10" stroke-linecap="round" stroke-linejoin="round"/>
<path d="M678.717 487.269C803.382 541.181 906.043 546.784 973.451 737.104" stroke="white" stroke-width="1.33333" stroke-miterlimit="10" stroke-linecap="round" stroke-linejoin="round"/>
<path d="M694.6 461.036C826.135 521.016 934.09 519.234 1003.2 723.574C1008.37 738.807 1013.53 753.473 1018.78 767.623" stroke="white" stroke-width="1.33333" stroke-miterlimit="10" stroke-linecap="round" stroke-linejoin="round"/>
<path d="M712.291 435.319C847.958 500.411 959.271 492.588 1029.86 701.187C1047.44 753.189 1065.37 798.632 1084.79 838.24C1084.79 838.266 1084.81 838.292 1084.81 838.317" stroke="white" stroke-width="1.33333" stroke-miterlimit="10" stroke-linecap="round" stroke-linejoin="round"/>
<path d="M1116.69 895.716V895.742C1138.15 929.695 1161.78 958.071 1188.79 981.696" stroke="white" stroke-width="1.33333" stroke-miterlimit="10" stroke-linecap="round" stroke-linejoin="round"/>
<path d="M732.953 410.842C871.384 479.936 985.021 467.491 1056.51 678.802C1103.38 817.403 1152.56 908.935 1226.76 967.624" stroke="white" stroke-width="1.33333" stroke-miterlimit="10" stroke-linecap="round" stroke-linejoin="round"/>
<path d="M757.953 388.378C897.211 459.332 1011.52 444.588 1083.16 656.39C1131.33 798.813 1181.92 891.171 1260.02 949.085" stroke="white" stroke-width="1.33333" stroke-miterlimit="10" stroke-linecap="round" stroke-linejoin="round"/>
<path d="M788.506 368.781C926.059 438.34 1038.97 424.526 1109.82 634.004C1158.11 776.737 1208.83 868.811 1287.66 926.157" stroke="white" stroke-width="1.33333" stroke-miterlimit="10" stroke-linecap="round" stroke-linejoin="round"/>
<path d="M826.238 352.695C958.807 416.987 1067.64 408.131 1136.47 611.618C1183.86 751.692 1233.6 842.604 1310.36 899.614" stroke="white" stroke-width="1.33333" stroke-miterlimit="10" stroke-linecap="round" stroke-linejoin="round"/>
<path d="M873.32 340.663C996.72 395.737 1097.99 396.615 1163.12 589.232C1208.96 724.736 1257.05 813.866 1330.01 870.696" stroke="white" stroke-width="1.33333" stroke-miterlimit="10" stroke-linecap="round" stroke-linejoin="round"/>
<path d="M933.807 333.485C1041.97 376.449 1130.81 392.406 1189.8 566.82C1233.42 695.817 1279.08 782.443 1346.65 839.066" stroke="white" stroke-width="1.33333" stroke-miterlimit="10" stroke-linecap="round" stroke-linejoin="round"/>
<path d="M1264.62 666.227C1292.1 724.116 1322.71 769.275 1360.23 804.08" stroke="white" stroke-width="1.33333" stroke-miterlimit="10" stroke-linecap="round" stroke-linejoin="round"/>
<path d="M1010.28 331.239C1064.41 351.972 1112.6 373.067 1153.26 422.719" stroke="white" stroke-width="1.33333" stroke-miterlimit="10" stroke-linecap="round" stroke-linejoin="round"/>
<path d="M1370.77 764.808C1367.67 761.529 1364.62 758.198 1361.62 754.764" stroke="white" stroke-width="1.33333" stroke-miterlimit="10" stroke-linecap="round" stroke-linejoin="round"/>
<path d="M1147.7 368.342C1127.53 351.663 1105.89 339.372 1082.93 328.838" stroke="white" stroke-width="1.33333" stroke-miterlimit="10" stroke-linecap="round" stroke-linejoin="round"/>
<path d="M1147.42 327.34C1146.46 326.746 1145.51 326.152 1144.55 325.584" stroke="white" stroke-width="1.33333" stroke-miterlimit="10" stroke-linecap="round" stroke-linejoin="round"/>
</g>
<defs>
<clipPath id="clip0_1887_1446">
<rect width="1924" height="901" fill="white" transform="translate(44)"/>
</clipPath>
</defs>
</svg>
