<svg width="1937" height="1302" viewBox="0 0 1937 1302" fill="none" xmlns="http://www.w3.org/2000/svg">
<g opacity="0.2" clip-path="url(#clip0_1791_1366)">
<path d="M2159.07 -376.705C1808.83 -398.363 1635.51 -336.996 1505.53 103.397C1445.23 307.695 1306.94 338.031 920.591 345.251C665.403 350.02 663.916 475.727 573.675 599.704C435.386 789.693 224.953 863.29 40.0797 863.29C6.48376 863.29 -153.583 861.7 -268.262 792.275" stroke="#999999" stroke-opacity="0.5" stroke-width="1.33333" stroke-miterlimit="10" stroke-linecap="round" stroke-linejoin="round"/>
<path d="M2146.45 -402.112C1796.05 -427.934 1620.64 -364.179 1492.2 68.6876C1431.67 272.036 1299.44 307.486 911.566 311.791C731.373 313.792 666.011 371.804 621.434 455.918C606.276 484.516 567.185 561.343 526.428 605.119C403.243 737.431 235.043 830.579 40.0804 830.579C-63.4303 830.579 -198.971 809.773 -337.549 708.92" stroke="#999999" stroke-opacity="0.5" stroke-width="1.33333" stroke-miterlimit="10" stroke-linecap="round" stroke-linejoin="round"/>
<path d="M596.725 450.178C596.75 450.152 596.776 450.126 596.776 450.075C649.385 354.231 701.168 279.043 902.538 278.32C1291.93 276.951 1418.12 236.388 1478.86 33.9853C1605.77 -391.373 1783.28 -457.498 2133.82 -427.521" stroke="#999999" stroke-opacity="0.5" stroke-width="1.33333" stroke-miterlimit="10" stroke-linecap="round" stroke-linejoin="round"/>
<path d="M653.027 271.4C700.574 233.471 768.653 210.104 884.486 211.42C1276.95 215.861 1391.02 165.048 1452.21 -35.4445C1576.05 -445.724 1757.71 -516.652 2108.59 -478.335" stroke="#999999" stroke-opacity="0.5" stroke-width="1.33333" stroke-miterlimit="10" stroke-linecap="round" stroke-linejoin="round"/>
<path d="M658.451 224.046C705.972 193.785 771.985 176.021 875.447 177.958C1269.43 185.316 1377.47 129.39 1438.86 -70.1467C1561.17 -472.913 1744.95 -546.216 2095.99 -503.742" stroke="#999999" stroke-opacity="0.5" stroke-width="1.33333" stroke-miterlimit="10" stroke-linecap="round" stroke-linejoin="round"/>
<path d="M660.207 181.366C707.496 156.14 771.494 142.016 866.433 144.495C1261.94 154.771 1364.35 93.8619 1425.53 -104.849C1547.15 -499.843 1732.17 -575.806 2083.39 -529.149" stroke="#999999" stroke-opacity="0.5" stroke-width="1.33333" stroke-miterlimit="10" stroke-linecap="round" stroke-linejoin="round"/>
<path d="M659.227 141.345C706.231 119.682 768.473 108.063 857.395 111.032C1254.45 124.226 1350.84 58.2304 1412.2 -139.577C1532.4 -526.98 1719.39 -605.369 2070.76 -554.556" stroke="#999999" stroke-opacity="0.5" stroke-width="1.33333" stroke-miterlimit="10" stroke-linecap="round" stroke-linejoin="round"/>
<path d="M655.895 103.105C702.692 83.947 763.643 74.1613 848.381 77.5695C1246.94 93.6812 1337.33 22.5988 1398.88 -174.279C1517.6 -554.143 1706.63 -634.933 2058.15 -579.963" stroke="#999999" stroke-opacity="0.5" stroke-width="1.33333" stroke-miterlimit="10" stroke-linecap="round" stroke-linejoin="round"/>
<path d="M650.418 66.1056C697.216 48.7029 757.34 40.2081 839.34 44.1069C1239.45 63.1362 1323.82 -13.0585 1385.55 -208.981C1502.8 -581.305 1693.84 -664.523 2045.52 -605.369" stroke="#999999" stroke-opacity="0.5" stroke-width="1.33333" stroke-miterlimit="10" stroke-linecap="round" stroke-linejoin="round"/>
<path d="M642.801 30.0865C689.805 13.8458 749.672 6.25474 830.328 10.6441C1231.96 32.5911 1310.32 -48.6902 1372.2 -243.709C1487.98 -608.468 1681.06 -694.087 2032.92 -630.776" stroke="#999999" stroke-opacity="0.5" stroke-width="1.33333" stroke-miterlimit="10" stroke-linecap="round" stroke-linejoin="round"/>
<path d="M641.406 328.772C688.514 277.804 757.497 244.341 893.5 244.883C1284.44 246.407 1404.56 200.705 1465.54 -0.742476C1590.9 -418.562 1770.5 -487.088 2121.22 -452.928" stroke="#999999" stroke-opacity="0.5" stroke-width="1.33333" stroke-miterlimit="10" stroke-linecap="round" stroke-linejoin="round"/>
<path d="M596.776 450.075C596.776 450.126 596.75 450.152 596.725 450.178" stroke="#999999" stroke-opacity="0.5" stroke-width="1.33333" stroke-miterlimit="10" stroke-linecap="round" stroke-linejoin="round"/>
<path d="M173.168 1460.67C173.168 1460.67 283.423 1228.08 512.557 1121.34C830.329 973.343 1126.41 1070.81 1249.93 932.47C1296.32 880.52 1316.77 826.04 1327.49 774.451" stroke="#999999" stroke-opacity="0.5" stroke-width="1.33333" stroke-miterlimit="10" stroke-linecap="round" stroke-linejoin="round"/>
<path d="M202.301 1478.74C202.301 1478.74 306.718 1247.5 546.802 1142.02C862.482 1003.35 1156.91 1101 1280.85 961.621C1329.82 906.65 1349.29 848.374 1358.87 793.61" stroke="#999999" stroke-opacity="0.5" stroke-width="1.33333" stroke-miterlimit="10" stroke-linecap="round" stroke-linejoin="round"/>
<path d="M231.434 1496.82C231.434 1496.82 329.808 1266.86 581.05 1162.68C894.276 1032.81 1187.38 1131.15 1311.76 990.797C1364.11 931.824 1382.09 868.591 1390.23 809.773" stroke="#999999" stroke-opacity="0.5" stroke-width="1.33333" stroke-miterlimit="10" stroke-linecap="round" stroke-linejoin="round"/>
<path d="M260.59 1514.89C260.59 1514.89 352.688 1286.15 615.267 1183.34C925.756 1061.8 1217.88 1161.31 1342.68 1019.97C1399.21 956.121 1414.81 886.665 1421.29 823.148" stroke="#999999" stroke-opacity="0.5" stroke-width="1.33333" stroke-miterlimit="10" stroke-linecap="round" stroke-linejoin="round"/>
<path d="M289.725 1532.96C289.725 1532.96 375.392 1305.34 649.516 1203.99C956.956 1090.36 1248.36 1191.5 1373.59 1049.12C1434.98 979.617 1447.12 902.673 1451.85 833.941" stroke="#999999" stroke-opacity="0.5" stroke-width="1.33333" stroke-miterlimit="10" stroke-linecap="round" stroke-linejoin="round"/>
<path d="M318.855 1551.04C318.855 1551.04 397.963 1324.44 683.76 1224.68C987.921 1118.5 1278.86 1221.65 1404.51 1078.3C1471.37 1002.36 1478.6 916.668 1481.73 842.436" stroke="#999999" stroke-opacity="0.5" stroke-width="1.33333" stroke-miterlimit="10" stroke-linecap="round" stroke-linejoin="round"/>
<path d="M347.988 1569.11C347.988 1569.11 420.38 1343.39 718.007 1245.33C1018.68 1146.26 1309.33 1251.84 1435.42 1107.48C1508.38 1024.39 1508.85 928.468 1511.01 848.787" stroke="#999999" stroke-opacity="0.5" stroke-width="1.33333" stroke-miterlimit="10" stroke-linecap="round" stroke-linejoin="round"/>
<path d="M377.121 1587.19C377.121 1587.19 442.643 1362.19 752.228 1265.99C1049.29 1173.68 1339.84 1282 1466.33 1136.63C1545.98 1045.66 1537.46 937.969 1539.97 853.332" stroke="#999999" stroke-opacity="0.5" stroke-width="1.33333" stroke-miterlimit="10" stroke-linecap="round" stroke-linejoin="round"/>
<path d="M2210.97 481.291C2217.86 667.711 2111.87 734.998 1922.07 742.615" stroke="#999999" stroke-opacity="0.5" stroke-width="1.33333" stroke-miterlimit="10" stroke-linecap="round" stroke-linejoin="round"/>
<path d="M406.254 1605.26C406.254 1605.26 464.803 1380.83 786.474 1286.67C1079.74 1200.79 1370.34 1312.15 1497.25 1165.81C1584.23 1066.14 1563.81 944.76 1568.92 856.146" stroke="#999999" stroke-opacity="0.5" stroke-width="1.33333" stroke-miterlimit="10" stroke-linecap="round" stroke-linejoin="round"/>
<path d="M2234.81 505.071C2243.48 712.354 2112.93 773.005 1887.18 769.029" stroke="#999999" stroke-opacity="0.5" stroke-width="1.33333" stroke-miterlimit="10" stroke-linecap="round" stroke-linejoin="round"/>
<path d="M435.387 1623.34C435.387 1623.34 486.859 1399.29 820.721 1307.32C1110.06 1227.59 1400.81 1342.34 1528.16 1194.98C1623.34 1085.63 1587.2 948.065 1598.88 857.282" stroke="#999999" stroke-opacity="0.5" stroke-width="1.33333" stroke-miterlimit="10" stroke-linecap="round" stroke-linejoin="round"/>
<path d="M2258.65 528.852C2269.29 756.894 2111.85 808.276 1849.91 792.396" stroke="#999999" stroke-opacity="0.5" stroke-width="1.33333" stroke-miterlimit="10" stroke-linecap="round" stroke-linejoin="round"/>
<path d="M464.52 1641.41C464.52 1641.41 508.838 1417.58 854.967 1327.98C1140.27 1254.14 1431.31 1372.49 1559.08 1224.13C1663.73 1103.55 1606.26 946.129 1631.52 856.533" stroke="#999999" stroke-opacity="0.5" stroke-width="1.33333" stroke-miterlimit="10" stroke-linecap="round" stroke-linejoin="round"/>
<path d="M2282.48 552.632C2295.19 800.246 2110.3 840.525 1815.05 813.698C1813.01 813.517 1810.99 813.336 1809 813.207" stroke="#999999" stroke-opacity="0.5" stroke-width="1.33333" stroke-miterlimit="10" stroke-linecap="round" stroke-linejoin="round"/>
<path d="M493.652 1659.48C493.652 1659.48 530.688 1435.62 889.214 1348.64C1170.41 1280.42 1461.79 1402.65 1589.99 1253.31C1706.89 1118.19 1617.11 933.502 1671.99 852.634" stroke="#999999" stroke-opacity="0.5" stroke-width="1.33333" stroke-miterlimit="10" stroke-linecap="round" stroke-linejoin="round"/>
<path d="M522.791 1677.57C522.791 1677.57 552.492 1453.44 923.44 1369.31C1200.46 1306.48 1491.99 1432.57 1620.91 1282.48C1780.19 1097.03 1546.38 812.902 1839.58 839.551C2132.78 866.198 2320.33 826.856 2306.31 576.402" stroke="#999999" stroke-opacity="0.5" stroke-width="1.33333" stroke-miterlimit="10" stroke-linecap="round" stroke-linejoin="round"/>
<path d="M551.926 1695.64C551.926 1695.64 574.219 1471.01 957.681 1389.97C1230.47 1332.32 1522.47 1462.73 1651.82 1311.64C1809.7 1127.24 1572.95 838.937 1864.11 865.4C2155.27 891.862 2345.47 853.453 2330.15 600.176" stroke="#999999" stroke-opacity="0.5" stroke-width="1.33333" stroke-miterlimit="10" stroke-linecap="round" stroke-linejoin="round"/>
<path d="M581.061 1713.72C581.061 1713.72 595.885 1488.31 991.921 1410.63C1260.43 1357.97 1552.95 1492.9 1682.74 1340.81C1839.21 1157.45 1599.52 864.974 1888.63 891.251C2177.75 917.525 2370.6 880.047 2353.98 623.952" stroke="#999999" stroke-opacity="0.5" stroke-width="1.33333" stroke-miterlimit="10" stroke-linecap="round" stroke-linejoin="round"/>
<path d="M610.197 1731.79C610.197 1731.79 617.501 1505.33 1026.16 1431.3C1290.36 1383.43 1583.44 1523.06 1713.65 1369.98C1868.72 1187.67 1626.1 891.008 1913.17 917.099C2200.23 943.19 2395.73 906.645 2377.82 647.727" stroke="#999999" stroke-opacity="0.5" stroke-width="1.33333" stroke-miterlimit="10" stroke-linecap="round" stroke-linejoin="round"/>
<path d="M639.328 1749.86C639.328 1749.86 639.075 1522.05 1060.4 1451.96C1320.26 1408.73 1613.93 1553.23 1744.56 1399.15C1898.24 1217.88 1652.67 917.045 1937.69 942.95C2222.71 968.855 2420.87 933.242 2401.65 671.502" stroke="#999999" stroke-opacity="0.5" stroke-width="1.33333" stroke-miterlimit="10" stroke-linecap="round" stroke-linejoin="round"/>
<path d="M668.465 1767.94C668.465 1767.94 660.616 1538.45 1094.64 1472.62C1350.16 1433.87 1644.43 1583.4 1775.48 1428.32C1927.76 1248.11 1679.25 943.082 1962.22 968.799C2245.2 994.518 2446 959.839 2425.49 695.277" stroke="#999999" stroke-opacity="0.5" stroke-width="1.33333" stroke-miterlimit="10" stroke-linecap="round" stroke-linejoin="round"/>
<path d="M697.6 1786.01C697.6 1786.01 682.135 1554.5 1128.88 1493.28C1380.05 1458.87 1675.23 1613.84 1806.4 1457.49C1957.64 1278.63 1705.82 969.116 1986.75 994.649C2267.68 1020.18 2471.14 986.433 2449.32 719.052" stroke="#999999" stroke-opacity="0.5" stroke-width="1.33333" stroke-miterlimit="10" stroke-linecap="round" stroke-linejoin="round"/>
<path d="M726.734 1804.09C726.734 1804.09 703.637 1570.2 1163.12 1513.95C1409.95 1483.73 1705.72 1644.01 1837.31 1486.65C1987.15 1308.85 1732.39 995.153 2011.28 1020.5C2290.16 1045.85 2496.27 1013.03 2473.16 742.825" stroke="#999999" stroke-opacity="0.5" stroke-width="1.33333" stroke-miterlimit="10" stroke-linecap="round" stroke-linejoin="round"/>
<path d="M755.869 1822.16C755.869 1822.16 725.137 1585.51 1197.36 1534.61C1439.86 1508.47 1736.21 1674.18 1868.22 1515.82C2016.66 1339.06 1758.96 1021.19 2035.8 1046.35C2312.64 1071.51 2521.4 1039.63 2496.99 766.6" stroke="#999999" stroke-opacity="0.5" stroke-width="1.33333" stroke-miterlimit="10" stroke-linecap="round" stroke-linejoin="round"/>
<path d="M785.005 1840.24C785.005 1840.24 746.647 1600.43 1231.6 1555.27C1469.8 1533.1 1766.71 1704.34 1899.14 1544.99C2046.18 1369.27 1785.54 1047.22 2060.33 1072.2C2335.13 1097.18 2546.54 1066.23 2520.83 790.374" stroke="#999999" stroke-opacity="0.5" stroke-width="1.33333" stroke-miterlimit="10" stroke-linecap="round" stroke-linejoin="round"/>
<path d="M814.137 1858.31C814.137 1858.31 768.173 1614.91 1265.85 1575.94C1499.77 1557.62 1797.2 1734.51 1930.05 1574.16C2075.69 1399.49 1812.11 1073.26 2084.86 1098.05C2357.61 1122.84 2571.67 1092.82 2544.66 814.15" stroke="#999999" stroke-opacity="0.5" stroke-width="1.33333" stroke-miterlimit="10" stroke-linecap="round" stroke-linejoin="round"/>
<path d="M843.275 1876.38C843.275 1876.38 789.731 1628.95 1300.09 1596.6C1529.78 1582.04 1827.69 1764.68 1960.97 1603.32C2105.2 1429.7 1838.68 1099.29 2109.39 1123.9C2380.09 1148.5 2596.82 1119.42 2568.5 837.925" stroke="#999999" stroke-opacity="0.5" stroke-width="1.33333" stroke-miterlimit="10" stroke-linecap="round" stroke-linejoin="round"/>
<path d="M872.406 1894.46C872.406 1894.46 811.334 1642.52 1334.32 1617.26C1559.83 1606.37 1858.17 1794.85 1991.88 1632.49C2134.71 1459.91 1865.26 1125.33 2133.91 1149.75C2402.58 1174.17 2621.95 1146.02 2592.33 861.7" stroke="#999999" stroke-opacity="0.5" stroke-width="1.33333" stroke-miterlimit="10" stroke-linecap="round" stroke-linejoin="round"/>
<path d="M901.542 1912.53C901.542 1912.53 835.498 1692.54 1368.57 1637.93C1588.9 1615.35 1888.67 1825.02 2022.79 1661.66C2164.22 1490.13 1891.83 1151.37 2158.44 1175.6C2425.06 1199.83 2647.08 1172.61 2616.16 885.475" stroke="#999999" stroke-opacity="0.5" stroke-width="1.33333" stroke-miterlimit="10" stroke-linecap="round" stroke-linejoin="round"/>
<path d="M930.677 1930.61C930.677 1930.61 856.043 1697.56 1402.81 1658.59C1619.58 1643.14 1919.16 1855.18 2053.71 1690.83C2193.73 1520.34 1918.4 1177.4 2182.97 1201.45C2447.54 1225.5 2672.21 1199.21 2640 909.25" stroke="#999999" stroke-opacity="0.5" stroke-width="1.33333" stroke-miterlimit="10" stroke-linecap="round" stroke-linejoin="round"/>
<path d="M959.811 1948.68C959.811 1948.68 876.988 1700.93 1437.04 1679.25C1650.17 1671 1949.65 1885.35 2084.62 1720C2223.25 1550.55 1944.97 1203.44 2207.5 1227.3C2470.03 1251.16 2697.34 1225.81 2663.84 933.022" stroke="#999999" stroke-opacity="0.5" stroke-width="1.33333" stroke-miterlimit="10" stroke-linecap="round" stroke-linejoin="round"/>
<path d="M988.947 1966.76C988.947 1966.76 898.515 1691.65 1471.29 1699.91C1680.63 1702.94 1980.14 1915.52 2115.54 1749.17C2252.76 1580.77 1971.55 1229.47 2232.03 1253.15C2492.51 1276.82 2722.47 1252.4 2687.68 956.797" stroke="#999999" stroke-opacity="0.5" stroke-width="1.33333" stroke-miterlimit="10" stroke-linecap="round" stroke-linejoin="round"/>
<path d="M1018.08 1984.83C1018.08 1984.83 920.591 1702.53 1505.53 1720.58C1711.02 1726.92 2010.63 1945.69 2146.45 1778.34C2282.27 1610.98 1998.12 1255.51 2256.55 1279C2514.99 1302.49 2747.62 1279 2711.52 980.572" stroke="#999999" stroke-opacity="0.5" stroke-width="1.33333" stroke-miterlimit="10" stroke-linecap="round" stroke-linejoin="round"/>
<path d="M1603.09 -142.778H1603.32C1879.56 -142.778 2103.5 81.0811 2103.5 357.278C2103.5 633.448 1879.56 857.308 1603.32 857.308C1327.08 857.308 1103.13 633.448 1103.13 357.278C1103.13 350.952 1103.26 344.677 1103.47 338.403" stroke="#999999" stroke-opacity="0.5" stroke-width="1.33333" stroke-miterlimit="10" stroke-linecap="round" stroke-linejoin="round"/>
<path d="M1588.24 -114.609C1593.25 -114.764 1598.28 -114.841 1603.32 -114.841C1864.12 -114.841 2075.56 96.5214 2075.56 357.278C2075.56 618.008 1864.12 829.37 1603.32 829.37C1342.5 829.37 1131.08 618.008 1131.08 357.278C1131.08 350.255 1131.23 343.283 1131.54 336.338" stroke="#999999" stroke-opacity="0.5" stroke-width="1.33333" stroke-miterlimit="10" stroke-linecap="round" stroke-linejoin="round"/>
<path d="M1574.47 -85.9743C1584 -86.594 1593.63 -86.9038 1603.32 -86.9038C1848.7 -86.9038 2047.62 111.962 2047.62 357.278C2047.62 602.568 1848.7 801.459 1603.32 801.459C1357.94 801.459 1159.02 602.568 1159.02 357.278C1159.02 349.402 1159.23 341.605 1159.62 333.833" stroke="#999999" stroke-opacity="0.5" stroke-width="1.33333" stroke-miterlimit="10" stroke-linecap="round" stroke-linejoin="round"/>
<path d="M1561.71 -56.9268C1575.4 -58.2952 1589.27 -58.9924 1603.32 -58.9924C1833.26 -58.9924 2019.67 127.376 2019.67 357.278C2019.67 587.153 1833.26 773.522 1603.32 773.522C1373.36 773.522 1186.97 587.153 1186.97 357.278C1186.97 348.37 1187.25 339.513 1187.82 330.76" stroke="#999999" stroke-opacity="0.5" stroke-width="1.33333" stroke-miterlimit="10" stroke-linecap="round" stroke-linejoin="round"/>
<path d="M1549.73 -27.3887C1567.24 -29.8158 1585.14 -31.055 1603.32 -31.055C1817.84 -31.055 1991.73 142.817 1991.73 357.278C1991.73 571.713 1817.84 745.585 1603.32 745.585C1388.8 745.585 1214.91 571.713 1214.91 357.278C1214.91 347.079 1215.3 336.983 1216.07 326.991" stroke="#999999" stroke-opacity="0.5" stroke-width="1.33333" stroke-miterlimit="10" stroke-linecap="round" stroke-linejoin="round"/>
<path d="M1538.39 2.71729C1559.47 -1.12989 1581.16 -3.11805 1603.32 -3.11805C1802.39 -3.11805 1963.78 158.231 1963.78 357.278C1963.78 556.298 1802.39 717.647 1603.32 717.647C1404.25 717.647 1242.86 556.298 1242.86 357.278C1242.86 345.478 1243.43 333.833 1244.54 322.317" stroke="#999999" stroke-opacity="0.5" stroke-width="1.33333" stroke-miterlimit="10" stroke-linecap="round" stroke-linejoin="round"/>
<path d="M1527.62 33.4949C1551.92 27.8145 1577.29 24.8194 1603.32 24.8194C1786.97 24.8194 1935.84 173.672 1935.84 357.278C1935.84 540.858 1786.97 689.71 1603.32 689.71C1419.67 689.71 1270.8 540.858 1270.8 357.278C1270.8 343.464 1271.65 329.831 1273.28 316.456" stroke="#999999" stroke-opacity="0.5" stroke-width="1.33333" stroke-miterlimit="10" stroke-linecap="round" stroke-linejoin="round"/>
<path d="M1517.24 65.0986C1544.54 57.0686 1573.41 52.7566 1603.32 52.7566C1771.53 52.7566 1907.89 189.086 1907.89 357.278C1907.89 525.443 1771.53 661.773 1603.32 661.773C1435.11 661.773 1298.75 525.443 1298.75 357.278C1298.75 340.856 1300.04 324.719 1302.57 308.994" stroke="#999999" stroke-opacity="0.5" stroke-width="1.33333" stroke-miterlimit="10" stroke-linecap="round" stroke-linejoin="round"/>
<path d="M1507.17 97.864C1537.1 86.7614 1569.51 80.6937 1603.32 80.6937C1756.11 80.6937 1879.95 204.526 1879.95 357.278C1879.95 510.003 1756.11 633.836 1603.32 633.836C1450.53 633.836 1326.69 510.003 1326.69 357.278C1326.69 337.344 1328.81 317.902 1332.84 299.157" stroke="#999999" stroke-opacity="0.5" stroke-width="1.33333" stroke-miterlimit="10" stroke-linecap="round" stroke-linejoin="round"/>
<path d="M1495.78 133.031C1528.35 117.384 1564.81 108.631 1603.32 108.631C1740.67 108.631 1852.01 219.941 1852.01 357.278C1852.01 494.588 1740.67 605.898 1603.32 605.898C1465.97 605.898 1354.61 494.588 1354.61 357.278C1354.61 332.258 1358.3 308.116 1365.17 285.369" stroke="#999999" stroke-opacity="0.5" stroke-width="1.33333" stroke-miterlimit="10" stroke-linecap="round" stroke-linejoin="round"/>
<path d="M1476.69 176.486C1512.54 151.337 1556.21 136.568 1603.32 136.568C1725.22 136.568 1824.06 235.381 1824.06 357.278C1824.06 479.148 1725.22 577.961 1603.32 577.961C1481.39 577.961 1382.55 479.148 1382.55 357.278C1382.55 323.169 1390.3 290.869 1404.12 262.028" stroke="#999999" stroke-opacity="0.5" stroke-width="1.33333" stroke-miterlimit="10" stroke-linecap="round" stroke-linejoin="round"/>
<path d="M1603.31 164.508C1709.8 164.508 1796.12 250.809 1796.12 357.265C1796.12 463.723 1709.8 550.024 1603.31 550.024C1496.83 550.024 1410.51 463.723 1410.51 357.265C1410.51 250.809 1496.83 164.508 1603.31 164.508Z" stroke="#999999" stroke-opacity="0.5" stroke-width="1.33333" stroke-miterlimit="10" stroke-linecap="round" stroke-linejoin="round"/>
<path d="M1603.31 192.443C1694.37 192.443 1768.18 266.236 1768.18 357.265C1768.18 448.296 1694.37 522.087 1603.31 522.087C1512.26 522.087 1438.45 448.296 1438.45 357.265C1438.45 266.236 1512.26 192.443 1603.31 192.443Z" stroke="#999999" stroke-opacity="0.5" stroke-width="1.33333" stroke-miterlimit="10" stroke-linecap="round" stroke-linejoin="round"/>
<path d="M1603.31 220.38C1678.94 220.38 1740.24 281.664 1740.24 357.265C1740.24 432.866 1678.94 494.152 1603.31 494.152C1527.7 494.152 1466.39 432.866 1466.39 357.265C1466.39 281.664 1527.7 220.38 1603.31 220.38Z" stroke="#999999" stroke-opacity="0.5" stroke-width="1.33333" stroke-miterlimit="10" stroke-linecap="round" stroke-linejoin="round"/>
<path d="M1603.31 248.315C1663.5 248.315 1712.3 297.094 1712.3 357.265C1712.3 417.436 1663.5 466.215 1603.31 466.215C1543.13 466.215 1494.34 417.436 1494.34 357.265C1494.34 297.094 1543.13 248.315 1603.31 248.315Z" stroke="#999999" stroke-opacity="0.5" stroke-width="1.33333" stroke-miterlimit="10" stroke-linecap="round" stroke-linejoin="round"/>
<path d="M1603.31 276.252C1648.07 276.252 1684.35 312.524 1684.35 357.265C1684.35 402.008 1648.07 438.28 1603.31 438.28C1558.56 438.28 1522.28 402.008 1522.28 357.265C1522.28 312.524 1558.56 276.252 1603.31 276.252Z" stroke="#999999" stroke-opacity="0.5" stroke-width="1.33333" stroke-miterlimit="10" stroke-linecap="round" stroke-linejoin="round"/>
<path d="M1656.41 357.265C1656.41 386.581 1632.64 410.343 1603.31 410.343C1573.99 410.343 1550.22 386.581 1550.22 357.265C1550.22 327.951 1573.99 304.186 1603.31 304.186C1632.64 304.186 1656.41 327.951 1656.41 357.265Z" stroke="#999999" stroke-opacity="0.5" stroke-width="1.33333" stroke-miterlimit="10" stroke-linecap="round" stroke-linejoin="round"/>
<path d="M1632.91 357.265C1632.91 373.609 1619.66 386.857 1603.31 386.857C1586.97 386.857 1573.72 373.609 1573.72 357.265C1573.72 340.923 1586.97 327.675 1603.31 327.675C1619.66 327.675 1632.91 340.923 1632.91 357.265Z" stroke="#999999" stroke-opacity="0.5" stroke-width="1.33333" stroke-miterlimit="10" stroke-linecap="round" stroke-linejoin="round"/>
<path d="M660.223 176.602C660.223 519.009 382.573 796.584 40.0798 796.584C-302.417 796.584 -580.064 519.009 -580.064 176.602C-580.064 -165.805 -302.417 -443.38 40.0798 -443.38C382.573 -443.38 660.223 -165.805 660.223 176.602Z" stroke="#999999" stroke-opacity="0.5" stroke-width="1.33333" stroke-miterlimit="10" stroke-linecap="round" stroke-linejoin="round"/>
<path d="M40.0804 -408.745C363.441 -408.745 625.577 -146.675 625.577 176.602C625.577 499.881 363.441 761.949 40.0804 761.949C-283.282 761.949 -545.42 499.881 -545.42 176.602C-545.42 -146.675 -283.282 -408.745 40.0804 -408.745Z" stroke="#999999" stroke-opacity="0.5" stroke-width="1.33333" stroke-miterlimit="10" stroke-linecap="round" stroke-linejoin="round"/>
<path d="M40.0803 -374.107C344.306 -374.107 590.933 -127.547 590.933 176.602C590.933 480.752 344.306 727.314 40.0803 727.314C-264.147 727.314 -510.773 480.752 -510.773 176.602C-510.773 -127.547 -264.147 -374.107 40.0803 -374.107Z" stroke="#999999" stroke-opacity="0.5" stroke-width="1.33333" stroke-miterlimit="10" stroke-linecap="round" stroke-linejoin="round"/>
<path d="M40.0792 -339.473C325.173 -339.473 556.288 -108.417 556.288 176.602C556.288 461.624 325.173 692.677 40.0792 692.677C-245.016 692.677 -476.131 461.624 -476.131 176.602C-476.131 -108.417 -245.016 -339.473 40.0792 -339.473Z" stroke="#999999" stroke-opacity="0.5" stroke-width="1.33333" stroke-miterlimit="10" stroke-linecap="round" stroke-linejoin="round"/>
<path d="M40.0792 -304.837C306.038 -304.837 521.641 -89.2895 521.641 176.602C521.641 442.494 306.038 658.042 40.0792 658.042C-225.882 658.042 -441.484 442.494 -441.484 176.602C-441.484 -89.2895 -225.882 -304.837 40.0792 -304.837Z" stroke="#999999" stroke-opacity="0.5" stroke-width="1.33333" stroke-miterlimit="10" stroke-linecap="round" stroke-linejoin="round"/>
<path d="M40.0797 -270.2C286.906 -270.2 486.998 -70.1595 486.998 176.602C486.998 423.364 286.906 623.404 40.0797 623.404C-206.748 623.404 -406.84 423.364 -406.84 176.602C-406.84 -70.1595 -206.748 -270.2 40.0797 -270.2Z" stroke="#999999" stroke-opacity="0.5" stroke-width="1.33333" stroke-miterlimit="10" stroke-linecap="round" stroke-linejoin="round"/>
<path d="M40.0804 -235.565C267.771 -235.565 452.352 -51.0322 452.352 176.602C452.352 404.236 267.771 588.769 40.0804 588.769C-187.614 588.769 -372.195 404.236 -372.195 176.602C-372.195 -51.0322 -187.614 -235.565 40.0804 -235.565Z" stroke="#999999" stroke-opacity="0.5" stroke-width="1.33333" stroke-miterlimit="10" stroke-linecap="round" stroke-linejoin="round"/>
<path d="M40.0804 -200.927C248.638 -200.927 417.708 -31.902 417.708 176.602C417.708 385.107 248.638 554.135 40.0804 554.135C-168.479 554.135 -337.549 385.107 -337.549 176.602C-337.549 -31.902 -168.479 -200.927 40.0804 -200.927Z" stroke="#999999" stroke-opacity="0.5" stroke-width="1.33333" stroke-miterlimit="10" stroke-linecap="round" stroke-linejoin="round"/>
<path d="M40.0791 -166.292C229.503 -166.292 383.063 -12.7719 383.063 176.602C383.063 365.979 229.503 519.5 40.0791 519.5C-149.347 519.5 -302.906 365.979 -302.906 176.602C-302.906 -12.7719 -149.347 -166.292 40.0791 -166.292Z" stroke="#999999" stroke-opacity="0.5" stroke-width="1.33333" stroke-miterlimit="10" stroke-linecap="round" stroke-linejoin="round"/>
<path d="M40.0797 -131.658C210.37 -131.658 348.417 6.35537 348.417 176.602C348.417 346.849 210.37 484.862 40.0797 484.862C-130.212 484.862 -268.262 346.849 -268.262 176.602C-268.262 6.35537 -130.212 -131.658 40.0797 -131.658Z" stroke="#999999" stroke-opacity="0.5" stroke-width="1.33333" stroke-miterlimit="10" stroke-linecap="round" stroke-linejoin="round"/>
<path d="M40.08 -97.0201C191.237 -97.0201 313.774 25.4855 313.774 176.602C313.774 327.721 191.237 450.227 40.08 450.227C-111.079 450.227 -233.615 327.721 -233.615 176.602C-233.615 25.4855 -111.079 -97.0201 40.08 -97.0201Z" stroke="#999999" stroke-opacity="0.5" stroke-width="1.33333" stroke-miterlimit="10" stroke-linecap="round" stroke-linejoin="round"/>
<path d="M40.0804 -62.3852C172.102 -62.3852 279.13 44.613 279.13 176.602C279.13 308.591 172.102 415.589 40.0804 415.589C-91.9445 415.589 -198.971 308.591 -198.971 176.602C-198.971 44.613 -91.9445 -62.3852 40.0804 -62.3852Z" stroke="#999999" stroke-opacity="0.5" stroke-width="1.33333" stroke-miterlimit="10" stroke-linecap="round" stroke-linejoin="round"/>
<path d="M40.08 -27.7501C152.969 -27.7501 244.484 63.7405 244.484 176.602C244.484 289.462 152.969 380.955 40.08 380.955C-72.8099 380.955 -164.326 289.462 -164.326 176.602C-164.326 63.7405 -72.8099 -27.7501 40.08 -27.7501Z" stroke="#999999" stroke-opacity="0.5" stroke-width="1.33333" stroke-miterlimit="10" stroke-linecap="round" stroke-linejoin="round"/>
<path d="M40.0803 6.88476C133.835 6.88476 209.839 82.8705 209.839 176.602C209.839 270.334 133.835 346.317 40.0803 346.317C-53.6767 346.317 -129.68 270.334 -129.68 176.602C-129.68 82.8705 -53.6767 6.88476 40.0803 6.88476Z" stroke="#999999" stroke-opacity="0.5" stroke-width="1.33333" stroke-miterlimit="10" stroke-linecap="round" stroke-linejoin="round"/>
<path d="M40.0797 41.5223C114.7 41.5223 175.193 102.001 175.193 176.602C175.193 251.204 114.7 311.682 40.0797 311.682C-34.5433 311.682 -95.0371 251.204 -95.0371 176.602C-95.0371 102.001 -34.5433 41.5223 40.0797 41.5223Z" stroke="#999999" stroke-opacity="0.5" stroke-width="1.33333" stroke-miterlimit="10" stroke-linecap="round" stroke-linejoin="round"/>
<path d="M40.0803 76.1599C95.5681 76.1599 140.549 121.128 140.549 176.602C140.549 232.077 95.5681 277.047 40.0803 277.047C-15.4089 277.047 -60.3906 232.077 -60.3906 176.602C-60.3906 121.128 -15.4089 76.1599 40.0803 76.1599Z" stroke="#999999" stroke-opacity="0.5" stroke-width="1.33333" stroke-miterlimit="10" stroke-linecap="round" stroke-linejoin="round"/>
<path d="M105.904 176.602C105.904 212.946 76.4326 242.412 40.0797 242.412C3.72355 242.412 -25.7461 212.946 -25.7461 176.602C-25.7461 140.258 3.72355 110.792 40.0797 110.792C76.4326 110.792 105.904 140.258 105.904 176.602Z" stroke="#999999" stroke-opacity="0.5" stroke-width="1.33333" stroke-miterlimit="10" stroke-linecap="round" stroke-linejoin="round"/>
<path d="M79.2956 176.602C79.2956 198.258 61.7376 215.81 40.0797 215.81C18.4194 215.81 0.861328 198.258 0.861328 176.602C0.861328 154.95 18.4194 137.397 40.0797 137.397C61.7376 137.397 79.2956 154.95 79.2956 176.602Z" stroke="#999999" stroke-opacity="0.5" stroke-width="1.33333" stroke-miterlimit="10" stroke-linecap="round" stroke-linejoin="round"/>
<path d="M879.27 1030.2C852.772 1032.91 825.499 1036.06 797.58 1040.11" stroke="#999999" stroke-opacity="0.5" stroke-width="1.33333" stroke-miterlimit="10" stroke-linecap="round" stroke-linejoin="round"/>
<path d="M586.55 1090.95H586.523" stroke="#999999" stroke-opacity="0.5" stroke-width="1.33333" stroke-miterlimit="10" stroke-linecap="round" stroke-linejoin="round"/>
<path d="M454.808 1152.25C442.231 1117.24 435.387 1079.46 435.387 1040.11C435.387 856.714 584.097 708.042 767.543 708.042C939.472 708.042 1080.87 838.614 1097.97 1005.98" stroke="#999999" stroke-opacity="0.5" stroke-width="1.33333" stroke-miterlimit="10" stroke-linecap="round" stroke-linejoin="round"/>
<path d="M480.298 1137.58C469.915 1106.99 464.285 1074.2 464.285 1040.11C464.285 872.671 600.056 736.909 767.542 736.909C925.136 736.909 1054.68 857.101 1069.4 1010.81" stroke="#999999" stroke-opacity="0.5" stroke-width="1.33333" stroke-miterlimit="10" stroke-linecap="round" stroke-linejoin="round"/>
<path d="M506.358 1124.31C497.783 1097.79 493.16 1069.5 493.16 1040.11C493.16 888.627 616.018 765.802 767.543 765.802C910.493 765.802 1027.93 875.123 1040.74 1014.68" stroke="#999999" stroke-opacity="0.5" stroke-width="1.33333" stroke-miterlimit="10" stroke-linecap="round" stroke-linejoin="round"/>
<path d="M532.83 1112.23C525.831 1089.43 522.061 1065.21 522.061 1040.11C522.061 904.558 631.953 794.668 767.543 794.668C895.617 794.668 1000.81 892.733 1012.04 1017.86" stroke="#999999" stroke-opacity="0.5" stroke-width="1.33333" stroke-miterlimit="10" stroke-linecap="round" stroke-linejoin="round"/>
<path d="M559.663 1101.1C553.981 1081.76 550.934 1061.29 550.934 1040.11C550.934 920.515 647.913 823.561 767.542 823.561C880.611 823.561 973.432 910.161 983.272 1020.64" stroke="#999999" stroke-opacity="0.5" stroke-width="1.33333" stroke-miterlimit="10" stroke-linecap="round" stroke-linejoin="round"/>
<path d="M586.781 1090.85C582.262 1074.71 579.834 1057.7 579.834 1040.11C579.834 936.472 663.874 852.454 767.542 852.454C865.529 852.454 946.004 927.512 954.501 1023.25" stroke="#999999" stroke-opacity="0.5" stroke-width="1.33333" stroke-miterlimit="10" stroke-linecap="round" stroke-linejoin="round"/>
<path d="M614.184 1081.5C610.594 1068.31 608.709 1054.42 608.709 1040.11C608.709 952.403 679.81 881.32 767.543 881.32C850.447 881.32 918.5 944.812 925.731 1025.81" stroke="#999999" stroke-opacity="0.5" stroke-width="1.33333" stroke-miterlimit="10" stroke-linecap="round" stroke-linejoin="round"/>
<path d="M641.819 1073.03C639.082 1062.53 637.609 1051.5 637.609 1040.11C637.609 968.359 695.771 910.213 767.543 910.213C835.39 910.213 891.098 962.163 896.961 1028.47" stroke="#999999" stroke-opacity="0.5" stroke-width="1.33333" stroke-miterlimit="10" stroke-linecap="round" stroke-linejoin="round"/>
<path d="M669.659 1065.39C667.593 1057.31 666.482 1048.84 666.482 1040.11C666.482 984.316 711.731 939.08 767.542 939.08C820.409 939.08 863.798 979.669 868.24 1031.36" stroke="#999999" stroke-opacity="0.5" stroke-width="1.33333" stroke-miterlimit="10" stroke-linecap="round" stroke-linejoin="round"/>
<path d="M697.759 1058.55C696.209 1052.66 695.383 1046.49 695.383 1040.11C695.383 1000.27 727.692 967.972 767.542 967.972C805.534 967.972 836.706 997.329 839.496 1034.59" stroke="#999999" stroke-opacity="0.5" stroke-width="1.33333" stroke-miterlimit="10" stroke-linecap="round" stroke-linejoin="round"/>
<path d="M726.04 1052.43C724.878 1048.53 724.258 1044.4 724.258 1040.11C724.258 1016.2 743.628 996.839 767.543 996.839C790.839 996.839 809.822 1015.2 810.777 1038.25" stroke="#999999" stroke-opacity="0.5" stroke-width="1.33333" stroke-miterlimit="10" stroke-linecap="round" stroke-linejoin="round"/>
<path d="M-623.51 1090.69C-364.504 1345.93 -148.731 1205.6 -27.1147 1565.13C94.5015 1924.66 227.929 2039.93 609.879 2058.11" stroke="#999999" stroke-opacity="0.5" stroke-width="1.33333" stroke-miterlimit="10" stroke-linecap="round" stroke-linejoin="round"/>
<path d="M-593.361 1071.07C-335.872 1324.82 -121.361 1185.31 -0.456941 1542.74C120.448 1900.16 253.093 2014.76 632.809 2032.83" stroke="#999999" stroke-opacity="0.5" stroke-width="1.33333" stroke-miterlimit="10" stroke-linecap="round" stroke-linejoin="round"/>
<path d="M-563.211 1051.46C-307.238 1303.71 -93.9924 1165.02 26.2003 1520.34C146.392 1875.66 278.258 1989.58 655.735 2007.55" stroke="#999999" stroke-opacity="0.5" stroke-width="1.33333" stroke-miterlimit="10" stroke-linecap="round" stroke-linejoin="round"/>
<path d="M-533.062 1031.84C-278.608 1282.6 -66.6249 1144.73 52.8547 1497.95C172.336 1851.17 303.419 1964.41 678.66 1982.27" stroke="#999999" stroke-opacity="0.5" stroke-width="1.33333" stroke-miterlimit="10" stroke-linecap="round" stroke-linejoin="round"/>
<path d="M-502.914 1012.23C-249.974 1261.49 -39.2546 1124.45 79.5137 1475.56C198.282 1826.67 328.586 1939.24 701.587 1956.99" stroke="#999999" stroke-opacity="0.5" stroke-width="1.33333" stroke-miterlimit="10" stroke-linecap="round" stroke-linejoin="round"/>
<path d="M-472.766 992.61C-221.343 1240.38 -11.8881 1104.16 106.169 1453.16C224.224 1802.17 353.747 1914.06 724.515 1931.71" stroke="#999999" stroke-opacity="0.5" stroke-width="1.33333" stroke-miterlimit="10" stroke-linecap="round" stroke-linejoin="round"/>
<path d="M-442.617 972.994C-192.71 1219.27 15.4822 1083.87 132.827 1430.77C250.171 1777.67 378.911 1888.89 747.442 1906.43" stroke="#999999" stroke-opacity="0.5" stroke-width="1.33333" stroke-miterlimit="10" stroke-linecap="round" stroke-linejoin="round"/>
<path d="M-412.467 953.381C-164.078 1198.16 42.8517 1063.58 159.484 1408.38C276.116 1753.17 404.074 1863.72 770.369 1881.15" stroke="#999999" stroke-opacity="0.5" stroke-width="1.33333" stroke-miterlimit="10" stroke-linecap="round" stroke-linejoin="round"/>
<path d="M-382.312 933.761C-135.435 1177.06 70.2218 1043.29 186.132 1385.97C189.774 1396.71 193.416 1407.22 197.056 1417.5" stroke="#999999" stroke-opacity="0.5" stroke-width="1.33333" stroke-miterlimit="10" stroke-linecap="round" stroke-linejoin="round"/>
<path d="M-352.172 914.137C-106.818 1155.94 97.599 1022.99 212.787 1363.59C214.956 1370.02 217.151 1376.37 219.347 1382.62" stroke="#999999" stroke-opacity="0.5" stroke-width="1.33333" stroke-miterlimit="10" stroke-linecap="round" stroke-linejoin="round"/>
<path d="M-322.031 894.54C-78.1756 1134.82 124.951 1002.73 239.467 1341.2C240.473 1344.14 241.456 1347.06 242.463 1349.98" stroke="#999999" stroke-opacity="0.5" stroke-width="1.33333" stroke-miterlimit="10" stroke-linecap="round" stroke-linejoin="round"/>
<path d="M-291.867 874.917C-49.5358 1113.73 152.326 982.431 266.118 1318.81C266.17 1318.99 266.247 1319.15 266.299 1319.33" stroke="#999999" stroke-opacity="0.5" stroke-width="1.33333" stroke-miterlimit="10" stroke-linecap="round" stroke-linejoin="round"/>
<path d="M-261.727 855.294C-22.314 1091.21 177.352 963.66 290.783 1290.59" stroke="#999999" stroke-opacity="0.5" stroke-width="1.33333" stroke-miterlimit="10" stroke-linecap="round" stroke-linejoin="round"/>
<path d="M-231.562 835.696C5.21668 1069.03 202.867 944.528 315.86 1263.74" stroke="#999999" stroke-opacity="0.5" stroke-width="1.33333" stroke-miterlimit="10" stroke-linecap="round" stroke-linejoin="round"/>
<path d="M-188.07 828.88C40.5734 1042.75 231.251 930.946 341.531 1238.59" stroke="#999999" stroke-opacity="0.5" stroke-width="1.33333" stroke-miterlimit="10" stroke-linecap="round" stroke-linejoin="round"/>
<path d="M-111.285 848.994C94.8377 1008.07 265.809 931.979 367.825 1215.15" stroke="#999999" stroke-opacity="0.5" stroke-width="1.33333" stroke-miterlimit="10" stroke-linecap="round" stroke-linejoin="round"/>
<path d="M-38.3008 859.502C147.264 978.223 300.597 931.463 394.709 1193.43" stroke="#999999" stroke-opacity="0.5" stroke-width="1.33333" stroke-miterlimit="10" stroke-linecap="round" stroke-linejoin="round"/>
<path d="M32.0508 863.246C198.529 952.325 335.72 930.223 422.214 1173.32" stroke="#999999" stroke-opacity="0.5" stroke-width="1.33333" stroke-miterlimit="10" stroke-linecap="round" stroke-linejoin="round"/>
<path d="M97.4453 860.923C247.394 930.069 370.743 927.28 450.289 1154.99" stroke="#999999" stroke-opacity="0.5" stroke-width="1.33333" stroke-miterlimit="10" stroke-linecap="round" stroke-linejoin="round"/>
<path d="M156.406 853.59C268.39 900.117 364 916.332 435.385 1039.75" stroke="#999999" stroke-opacity="0.5" stroke-width="1.33333" stroke-miterlimit="10" stroke-linecap="round" stroke-linejoin="round"/>
<path d="M209.068 842.693C299.073 877.886 377.535 899.265 440.113 984.006" stroke="#999999" stroke-opacity="0.5" stroke-width="1.33333" stroke-miterlimit="10" stroke-linecap="round" stroke-linejoin="round"/>
<path d="M256.098 829.19C330.013 857.359 395.613 879.539 450.262 941.507" stroke="#999999" stroke-opacity="0.5" stroke-width="1.33333" stroke-miterlimit="10" stroke-linecap="round" stroke-linejoin="round"/>
<path d="M298.428 813.827C360.231 837.22 415.862 858.392 463.77 905.617" stroke="#999999" stroke-opacity="0.5" stroke-width="1.33333" stroke-miterlimit="10" stroke-linecap="round" stroke-linejoin="round"/>
<path d="M336.781 796.94C389.519 816.977 437.583 836.497 479.913 873.936" stroke="#999999" stroke-opacity="0.5" stroke-width="1.33333" stroke-miterlimit="10" stroke-linecap="round" stroke-linejoin="round"/>
<path d="M498.506 845.327C460.464 814.369 418.005 796.476 371.801 778.815" stroke="#999999" stroke-opacity="0.5" stroke-width="1.33333" stroke-miterlimit="10" stroke-linecap="round" stroke-linejoin="round"/>
<path d="M519.606 819.12C484.534 792.267 445.794 775.691 403.98 759.605" stroke="#999999" stroke-opacity="0.5" stroke-width="1.33333" stroke-miterlimit="10" stroke-linecap="round" stroke-linejoin="round"/>
<path d="M543.289 795.159C509.895 770.475 473.196 754.699 433.732 739.465" stroke="#999999" stroke-opacity="0.5" stroke-width="1.33333" stroke-miterlimit="10" stroke-linecap="round" stroke-linejoin="round"/>
<path d="M569.761 773.29C536.626 749.019 500.262 733.475 461.16 718.422" stroke="#999999" stroke-opacity="0.5" stroke-width="1.33333" stroke-miterlimit="10" stroke-linecap="round" stroke-linejoin="round"/>
<path d="M599.283 753.744C565.063 728.182 527.33 712.251 486.627 696.656" stroke="#999999" stroke-opacity="0.5" stroke-width="1.33333" stroke-miterlimit="10" stroke-linecap="round" stroke-linejoin="round"/>
<path d="M632.212 736.754H632.186C595.486 707.913 554.603 691.104 510.232 674.167" stroke="#999999" stroke-opacity="0.5" stroke-width="1.33333" stroke-miterlimit="10" stroke-linecap="round" stroke-linejoin="round"/>
<path d="M668.678 723.018H668.653C628.208 688.29 582.366 670.087 532.133 651.032" stroke="#999999" stroke-opacity="0.5" stroke-width="1.33333" stroke-miterlimit="10" stroke-linecap="round" stroke-linejoin="round"/>
<path d="M708.554 713.284H708.528C663.305 669.106 610.774 649.379 552.432 627.303" stroke="#999999" stroke-opacity="0.5" stroke-width="1.33333" stroke-miterlimit="10" stroke-linecap="round" stroke-linejoin="round"/>
<path d="M751.324 708.43H751.298C700.703 649.947 639.856 629.111 571.234 603.032" stroke="#999999" stroke-opacity="0.5" stroke-width="1.33333" stroke-miterlimit="10" stroke-linecap="round" stroke-linejoin="round"/>
<path d="M795.901 709.256H795.875C739.831 630.118 669.428 609.281 588.564 578.09" stroke="#999999" stroke-opacity="0.5" stroke-width="1.33333" stroke-miterlimit="10" stroke-linecap="round" stroke-linejoin="round"/>
<path d="M604.5 552.58C699.129 590.071 779.992 608.842 840.995 716.201" stroke="#999999" stroke-opacity="0.5" stroke-width="1.33333" stroke-miterlimit="10" stroke-linecap="round" stroke-linejoin="round"/>
<path d="M619.633 526.553C729.06 571.635 820.823 585.5 885.725 729.705" stroke="#999999" stroke-opacity="0.5" stroke-width="1.33333" stroke-miterlimit="10" stroke-linecap="round" stroke-linejoin="round"/>
<path d="M634.717 500.269C759.382 554.181 862.043 559.784 929.451 750.103" stroke="#999999" stroke-opacity="0.5" stroke-width="1.33333" stroke-miterlimit="10" stroke-linecap="round" stroke-linejoin="round"/>
<path d="M650.6 474.036C782.135 534.015 890.09 532.234 959.202 736.573C964.368 751.807 969.533 766.473 974.776 780.622" stroke="#999999" stroke-opacity="0.5" stroke-width="1.33333" stroke-miterlimit="10" stroke-linecap="round" stroke-linejoin="round"/>
<path d="M668.291 448.319C803.958 513.411 915.271 505.588 985.856 714.187C1003.44 766.189 1021.37 811.632 1040.79 851.24C1040.79 851.266 1040.81 851.292 1040.81 851.317" stroke="#999999" stroke-opacity="0.5" stroke-width="1.33333" stroke-miterlimit="10" stroke-linecap="round" stroke-linejoin="round"/>
<path d="M1072.69 908.715V908.741C1094.15 942.694 1117.78 971.071 1144.79 994.696" stroke="#999999" stroke-opacity="0.5" stroke-width="1.33333" stroke-miterlimit="10" stroke-linecap="round" stroke-linejoin="round"/>
<path d="M688.953 423.842C827.384 492.936 941.021 480.491 1012.51 691.802C1059.38 830.403 1108.56 921.935 1182.76 980.624" stroke="#999999" stroke-opacity="0.5" stroke-width="1.33333" stroke-miterlimit="10" stroke-linecap="round" stroke-linejoin="round"/>
<path d="M713.953 401.378C853.211 472.331 967.519 457.588 1039.16 669.39C1087.33 811.813 1137.92 904.171 1216.02 962.085" stroke="#999999" stroke-opacity="0.5" stroke-width="1.33333" stroke-miterlimit="10" stroke-linecap="round" stroke-linejoin="round"/>
<path d="M744.506 381.781C882.059 451.34 994.973 437.526 1065.82 647.004C1114.11 789.737 1164.83 881.811 1243.66 939.157" stroke="#999999" stroke-opacity="0.5" stroke-width="1.33333" stroke-miterlimit="10" stroke-linecap="round" stroke-linejoin="round"/>
<path d="M782.238 365.695C914.807 429.987 1023.64 421.13 1092.47 624.618C1139.86 764.691 1189.6 855.604 1266.36 912.614" stroke="#999999" stroke-opacity="0.5" stroke-width="1.33333" stroke-miterlimit="10" stroke-linecap="round" stroke-linejoin="round"/>
<path d="M829.32 353.663C952.72 408.737 1053.99 409.615 1119.12 602.232C1164.96 737.735 1213.05 826.866 1286.01 883.696" stroke="#999999" stroke-opacity="0.5" stroke-width="1.33333" stroke-miterlimit="10" stroke-linecap="round" stroke-linejoin="round"/>
<path d="M889.807 346.485C997.969 389.449 1086.81 405.406 1145.8 579.82C1189.42 708.817 1235.08 795.443 1302.65 852.066" stroke="#999999" stroke-opacity="0.5" stroke-width="1.33333" stroke-miterlimit="10" stroke-linecap="round" stroke-linejoin="round"/>
<path d="M1220.62 679.227C1248.1 737.116 1278.71 782.275 1316.23 817.08" stroke="#999999" stroke-opacity="0.5" stroke-width="1.33333" stroke-miterlimit="10" stroke-linecap="round" stroke-linejoin="round"/>
<path d="M966.279 344.238C1020.41 364.972 1068.6 386.067 1109.26 435.719" stroke="#999999" stroke-opacity="0.5" stroke-width="1.33333" stroke-miterlimit="10" stroke-linecap="round" stroke-linejoin="round"/>
<path d="M1326.77 777.808C1323.67 774.529 1320.62 771.198 1317.62 767.764" stroke="#999999" stroke-opacity="0.5" stroke-width="1.33333" stroke-miterlimit="10" stroke-linecap="round" stroke-linejoin="round"/>
<path d="M1103.7 381.342C1083.53 364.662 1061.89 352.372 1038.93 341.837" stroke="#999999" stroke-opacity="0.5" stroke-width="1.33333" stroke-miterlimit="10" stroke-linecap="round" stroke-linejoin="round"/>
<path d="M1103.42 340.34C1102.46 339.746 1101.51 339.152 1100.55 338.584" stroke="#999999" stroke-opacity="0.5" stroke-width="1.33333" stroke-miterlimit="10" stroke-linecap="round" stroke-linejoin="round"/>
</g>
<defs>
<clipPath id="clip0_1791_1366">
<rect width="1937" height="1302" fill="white"/>
</clipPath>
</defs>
</svg>
