<svg width="1916" height="1069" viewBox="0 0 1916 1069" fill="none" xmlns="http://www.w3.org/2000/svg">
<g clip-path="url(#clip0_1889_1447)">
<g opacity="0.3">
<mask id="path-1-outside-1_1889_1447" maskUnits="userSpaceOnUse" x="922" y="653" width="1075" height="215" fill="black">
<rect fill="white" x="922" y="653" width="1075" height="215"/>
<path d="M1018.42 861H926.923V660H1018.42C1080.82 660 1120.12 698.4 1120.12 760.5C1120.12 822.6 1080.82 861 1018.42 861ZM1018.42 689.1H959.023V831.9H1018.42C1064.92 831.9 1085.92 812.1 1085.92 760.5C1085.92 708.9 1064.92 689.1 1018.42 689.1ZM1305.06 861H1144.26V660H1305.06V689.1H1176.66V745.5H1300.56V774.3H1176.66V831.9H1305.06V861ZM1414.6 864C1354.6 864 1324 837.6 1324 795.3V793.5H1356.4V798.3C1356.4 822.3 1370.5 834.3 1414.6 834.3C1453 834.3 1466.5 825.9 1466.5 807C1466.5 789.6 1456.3 783 1430.8 778.2L1381.6 770.1C1347.7 764.1 1323.7 748.5 1323.7 715.5C1323.7 686.4 1347.7 657 1410.1 657C1468.9 657 1495.6 686.4 1495.6 725.7V727.5H1463.5V723.6C1463.5 699 1448.8 686.7 1407.1 686.7C1370.5 686.7 1356.1 695.7 1356.1 713.7C1356.1 731.1 1366.3 736.8 1390 741.9L1438.9 750.3C1479.1 757.5 1498.9 775.8 1498.9 805.2C1498.9 835.8 1474 864 1414.6 864ZM1554.3 861H1521.9V660H1554.3V861ZM1676.7 864C1617.6 864 1578.3 823.2 1578.3 760.5C1578.3 697.8 1620.6 657 1684.8 657C1741.8 657 1781.4 685.8 1781.4 732.3V734.7H1745.7V732.3C1745.7 703.5 1725.6 687.9 1683.9 687.9C1635.6 687.9 1612.5 710.4 1612.5 760.5C1612.5 810.6 1635.3 832.8 1682.4 832.8C1730.4 832.8 1749.3 819.6 1749.3 785.7V783H1674.9V758.4H1781.4V861H1752V817.5H1749.9C1741.5 846.9 1716 864 1676.7 864ZM1841.12 861H1808.72V660H1843.52L1933.52 777.6L1959.62 815.1H1962.02L1960.52 778.8V660H1992.92V861H1958.12L1867.52 743.7L1842.32 708.3H1839.92L1841.12 743.1V861Z"/>
</mask>
<path d="M926.923 861H922.923V865H926.923V861ZM926.923 660V656H922.923V660H926.923ZM959.023 689.1V685.1H955.023V689.1H959.023ZM959.023 831.9H955.023V835.9H959.023V831.9ZM1018.42 857H926.923V865H1018.42V857ZM930.923 861V660H922.923V861H930.923ZM926.923 664H1018.42V656H926.923V664ZM1018.42 664C1048.8 664 1073.14 673.331 1089.87 689.812C1106.59 706.286 1116.12 730.309 1116.12 760.5H1124.12C1124.12 728.591 1114.01 702.364 1095.48 684.113C1076.96 665.869 1050.45 656 1018.42 656V664ZM1116.12 760.5C1116.12 790.691 1106.59 814.714 1089.87 831.188C1073.14 847.669 1048.8 857 1018.42 857V865C1050.45 865 1076.96 855.131 1095.48 836.887C1114.01 818.636 1124.12 792.409 1124.12 760.5H1116.12ZM1018.42 685.1H959.023V693.1H1018.42V685.1ZM955.023 689.1V831.9H963.023V689.1H955.023ZM959.023 835.9H1018.42V827.9H959.023V835.9ZM1018.42 835.9C1042.13 835.9 1060.32 830.868 1072.48 818.336C1084.61 805.835 1089.92 786.712 1089.92 760.5H1081.92C1081.92 785.888 1076.73 802.465 1066.74 812.764C1056.78 823.032 1041.22 827.9 1018.42 827.9V835.9ZM1089.92 760.5C1089.92 734.288 1084.61 715.165 1072.48 702.664C1060.32 690.132 1042.13 685.1 1018.42 685.1V693.1C1041.22 693.1 1056.78 697.968 1066.74 708.236C1076.73 718.535 1081.92 735.112 1081.92 760.5H1089.92ZM1305.06 861V865H1309.06V861H1305.06ZM1144.26 861H1140.26V865H1144.26V861ZM1144.26 660V656H1140.26V660H1144.26ZM1305.06 660H1309.06V656H1305.06V660ZM1305.06 689.1V693.1H1309.06V689.1H1305.06ZM1176.66 689.1V685.1H1172.66V689.1H1176.66ZM1176.66 745.5H1172.66V749.5H1176.66V745.5ZM1300.56 745.5H1304.56V741.5H1300.56V745.5ZM1300.56 774.3V778.3H1304.56V774.3H1300.56ZM1176.66 774.3V770.3H1172.66V774.3H1176.66ZM1176.66 831.9H1172.66V835.9H1176.66V831.9ZM1305.06 831.9H1309.06V827.9H1305.06V831.9ZM1305.06 857H1144.26V865H1305.06V857ZM1148.26 861V660H1140.26V861H1148.26ZM1144.26 664H1305.06V656H1144.26V664ZM1301.06 660V689.1H1309.06V660H1301.06ZM1305.06 685.1H1176.66V693.1H1305.06V685.1ZM1172.66 689.1V745.5H1180.66V689.1H1172.66ZM1176.66 749.5H1300.56V741.5H1176.66V749.5ZM1296.56 745.5V774.3H1304.56V745.5H1296.56ZM1300.56 770.3H1176.66V778.3H1300.56V770.3ZM1172.66 774.3V831.9H1180.66V774.3H1172.66ZM1176.66 835.9H1305.06V827.9H1176.66V835.9ZM1301.06 831.9V861H1309.06V831.9H1301.06ZM1324 793.5V789.5H1320V793.5H1324ZM1356.4 793.5H1360.4V789.5H1356.4V793.5ZM1430.8 778.2L1431.54 774.269L1431.49 774.261L1431.45 774.253L1430.8 778.2ZM1381.6 770.1L1380.9 774.039L1380.93 774.043L1380.95 774.047L1381.6 770.1ZM1495.6 727.5V731.5H1499.6V727.5H1495.6ZM1463.5 727.5H1459.5V731.5H1463.5V727.5ZM1390 741.9L1389.16 745.81L1389.24 745.828L1389.32 745.842L1390 741.9ZM1438.9 750.3L1439.6 746.363L1439.59 746.36L1439.58 746.358L1438.9 750.3ZM1414.6 860C1385.11 860 1363.46 853.504 1349.27 842.366C1335.21 831.337 1328 815.395 1328 795.3H1320C1320 817.505 1328.08 835.913 1344.33 848.659C1360.43 861.296 1384.09 868 1414.6 868V860ZM1328 795.3V793.5H1320V795.3H1328ZM1324 797.5H1356.4V789.5H1324V797.5ZM1352.4 793.5V798.3H1360.4V793.5H1352.4ZM1352.4 798.3C1352.4 811.175 1356.26 821.666 1366.75 828.632C1376.82 835.317 1392.38 838.3 1414.6 838.3V830.3C1392.72 830.3 1379.18 827.283 1371.17 821.968C1363.59 816.934 1360.4 809.425 1360.4 798.3H1352.4ZM1414.6 838.3C1433.9 838.3 1447.75 836.225 1456.87 831.248C1461.53 828.701 1465.02 825.359 1467.31 821.144C1469.57 816.962 1470.5 812.193 1470.5 807H1462.5C1462.5 811.257 1461.74 814.626 1460.27 817.334C1458.82 820.009 1456.54 822.312 1453.03 824.227C1445.8 828.175 1433.7 830.3 1414.6 830.3V838.3ZM1470.5 807C1470.5 797.37 1467.6 790.061 1460.65 784.708C1454.1 779.654 1444.34 776.678 1431.54 774.269L1430.06 782.131C1442.76 784.522 1450.85 787.246 1455.77 791.042C1460.3 794.539 1462.5 799.23 1462.5 807H1470.5ZM1431.45 774.253L1382.25 766.153L1380.95 774.047L1430.15 782.147L1431.45 774.253ZM1382.3 766.161C1365.69 763.222 1352.01 758.007 1342.54 749.888C1333.23 741.909 1327.7 730.888 1327.7 715.5H1319.7C1319.7 733.112 1326.17 746.391 1337.33 755.962C1348.34 765.393 1363.61 770.978 1380.9 774.039L1382.3 766.161ZM1327.7 715.5C1327.7 702.114 1333.19 688.662 1345.99 678.467C1358.87 668.215 1379.48 661 1410.1 661V653C1378.31 653 1355.73 660.485 1341.01 672.208C1326.21 683.988 1319.7 699.786 1319.7 715.5H1327.7ZM1410.1 661C1438.87 661 1459.19 668.193 1472.27 679.624C1485.28 690.999 1491.6 706.995 1491.6 725.7H1499.6C1499.6 705.105 1492.57 686.751 1477.53 673.601C1462.56 660.507 1440.12 653 1410.1 653V661ZM1491.6 725.7V727.5H1499.6V725.7H1491.6ZM1495.6 723.5H1463.5V731.5H1495.6V723.5ZM1467.5 727.5V723.6H1459.5V727.5H1467.5ZM1467.5 723.6C1467.5 710.424 1463.49 699.751 1453.21 692.636C1443.29 685.771 1428.16 682.7 1407.1 682.7V690.7C1427.74 690.7 1440.81 693.779 1448.66 699.214C1456.15 704.399 1459.5 712.176 1459.5 723.6H1467.5ZM1407.1 682.7C1388.63 682.7 1375.04 684.941 1365.94 689.946C1361.32 692.494 1357.79 695.796 1355.44 699.908C1353.11 704.008 1352.1 708.661 1352.1 713.7H1360.1C1360.1 709.739 1360.89 706.517 1362.4 703.867C1363.9 701.229 1366.26 698.906 1369.8 696.954C1377.06 692.959 1388.96 690.7 1407.1 690.7V682.7ZM1352.1 713.7C1352.1 723.338 1355.01 730.421 1361.72 735.584C1368.02 740.427 1377.32 743.263 1389.16 745.81L1390.84 737.99C1378.98 735.437 1371.32 732.873 1366.6 729.241C1362.29 725.929 1360.1 721.462 1360.1 713.7H1352.1ZM1389.32 745.842L1438.22 754.242L1439.58 746.358L1390.68 737.958L1389.32 745.842ZM1438.19 754.237C1457.9 757.766 1472.07 763.932 1481.27 772.373C1490.34 780.69 1494.9 791.505 1494.9 805.2H1502.9C1502.9 789.495 1497.56 776.46 1486.68 766.477C1475.93 756.618 1460.1 750.034 1439.6 746.363L1438.19 754.237ZM1494.9 805.2C1494.9 819.342 1489.18 832.867 1476.53 842.947C1463.8 853.087 1443.71 860 1414.6 860V868C1444.89 868 1466.94 860.813 1481.52 849.203C1496.16 837.533 1502.9 821.658 1502.9 805.2H1494.9ZM1554.3 861V865H1558.3V861H1554.3ZM1521.9 861H1517.9V865H1521.9V861ZM1521.9 660V656H1517.9V660H1521.9ZM1554.3 660H1558.3V656H1554.3V660ZM1554.3 857H1521.9V865H1554.3V857ZM1525.9 861V660H1517.9V861H1525.9ZM1521.9 664H1554.3V656H1521.9V664ZM1550.3 660V861H1558.3V660H1550.3ZM1781.4 734.7V738.7H1785.4V734.7H1781.4ZM1745.7 734.7H1741.7V738.7H1745.7V734.7ZM1749.3 783H1753.3V779H1749.3V783ZM1674.9 783H1670.9V787H1674.9V783ZM1674.9 758.4V754.4H1670.9V758.4H1674.9ZM1781.4 758.4H1785.4V754.4H1781.4V758.4ZM1781.4 861V865H1785.4V861H1781.4ZM1752 861H1748V865H1752V861ZM1752 817.5H1756V813.5H1752V817.5ZM1749.9 817.5V813.5H1746.89L1746.06 816.401L1749.9 817.5ZM1676.7 860C1648.11 860 1624.6 850.152 1608.23 833.001C1591.85 815.833 1582.3 791.009 1582.3 760.5H1574.3C1574.3 792.691 1584.4 819.617 1602.45 838.524C1620.5 857.448 1646.2 868 1676.7 868V860ZM1582.3 760.5C1582.3 730.078 1592.54 705.292 1610.26 688.109C1627.99 670.914 1653.56 661 1684.8 661V653C1651.85 653 1624.16 663.486 1604.69 682.366C1585.21 701.258 1574.3 728.222 1574.3 760.5H1582.3ZM1684.8 661C1712.68 661 1735.9 668.046 1752.05 680.391C1768.1 692.658 1777.4 710.315 1777.4 732.3H1785.4C1785.4 707.785 1774.91 687.792 1756.91 674.034C1739.01 660.354 1713.93 653 1684.8 653V661ZM1777.4 732.3V734.7H1785.4V732.3H1777.4ZM1781.4 730.7H1745.7V738.7H1781.4V730.7ZM1749.7 734.7V732.3H1741.7V734.7H1749.7ZM1749.7 732.3C1749.7 716.861 1744.25 704.456 1732.8 696.073C1721.58 687.853 1705.14 683.9 1683.9 683.9V691.9C1704.37 691.9 1718.82 695.747 1728.08 702.527C1737.11 709.144 1741.7 718.939 1741.7 732.3H1749.7ZM1683.9 683.9C1659.21 683.9 1640.12 689.647 1627.25 702.593C1614.39 715.533 1608.5 734.915 1608.5 760.5H1616.5C1616.5 735.985 1622.16 719.067 1632.93 708.232C1643.69 697.403 1660.3 691.9 1683.9 691.9V683.9ZM1608.5 760.5C1608.5 786.072 1614.31 805.372 1626.93 818.239C1639.57 831.122 1658.3 836.8 1682.4 836.8V828.8C1659.41 828.8 1643.18 823.378 1632.65 812.636C1622.09 801.878 1616.5 785.028 1616.5 760.5H1608.5ZM1682.4 836.8C1706.57 836.8 1724.36 833.52 1736.15 825.235C1748.31 816.689 1753.3 803.425 1753.3 785.7H1745.3C1745.3 801.875 1740.84 812.161 1731.55 818.69C1721.89 825.48 1706.24 828.8 1682.4 828.8V836.8ZM1753.3 785.7V783H1745.3V785.7H1753.3ZM1749.3 779H1674.9V787H1749.3V779ZM1678.9 783V758.4H1670.9V783H1678.9ZM1674.9 762.4H1781.4V754.4H1674.9V762.4ZM1777.4 758.4V861H1785.4V758.4H1777.4ZM1781.4 857H1752V865H1781.4V857ZM1756 861V817.5H1748V861H1756ZM1752 813.5H1749.9V821.5H1752V813.5ZM1746.06 816.401C1742.11 830.212 1734.21 841.013 1722.72 848.413C1711.19 855.846 1695.79 860 1676.7 860V868C1696.91 868 1713.92 863.604 1727.06 855.137C1740.25 846.637 1749.29 834.188 1753.75 818.599L1746.06 816.401ZM1841.12 861V865H1845.12V861H1841.12ZM1808.72 861H1804.72V865H1808.72V861ZM1808.72 660V656H1804.72V660H1808.72ZM1843.52 660L1846.69 657.569L1845.49 656H1843.52V660ZM1933.52 777.6L1936.8 775.315L1936.75 775.241L1936.69 775.169L1933.52 777.6ZM1959.62 815.1L1956.33 817.385L1957.53 819.1H1959.62V815.1ZM1962.02 815.1V819.1H1966.19L1966.01 814.935L1962.02 815.1ZM1960.52 778.8H1956.52V778.883L1956.52 778.965L1960.52 778.8ZM1960.52 660V656H1956.52V660H1960.52ZM1992.92 660H1996.92V656H1992.92V660ZM1992.92 861V865H1996.92V861H1992.92ZM1958.12 861L1954.95 863.445L1956.15 865H1958.12V861ZM1867.52 743.7L1864.26 746.02L1864.3 746.083L1864.35 746.145L1867.52 743.7ZM1842.32 708.3L1845.58 705.98L1844.38 704.3H1842.32V708.3ZM1839.92 708.3V704.3H1835.78L1835.92 708.438L1839.92 708.3ZM1841.12 743.1H1845.12V743.031L1845.11 742.962L1841.12 743.1ZM1841.12 857H1808.72V865H1841.12V857ZM1812.72 861V660H1804.72V861H1812.72ZM1808.72 664H1843.52V656H1808.72V664ZM1840.34 662.431L1930.34 780.031L1936.69 775.169L1846.69 657.569L1840.34 662.431ZM1930.23 779.885L1956.33 817.385L1962.9 812.815L1936.8 775.315L1930.23 779.885ZM1959.62 819.1H1962.02V811.1H1959.62V819.1ZM1966.01 814.935L1964.51 778.635L1956.52 778.965L1958.02 815.265L1966.01 814.935ZM1964.52 778.8V660H1956.52V778.8H1964.52ZM1960.52 664H1992.92V656H1960.52V664ZM1988.92 660V861H1996.92V660H1988.92ZM1992.92 857H1958.12V865H1992.92V857ZM1961.28 858.555L1870.68 741.255L1864.35 746.145L1954.95 863.445L1961.28 858.555ZM1870.78 741.38L1845.58 705.98L1839.06 710.62L1864.26 746.02L1870.78 741.38ZM1842.32 704.3H1839.92V712.3H1842.32V704.3ZM1835.92 708.438L1837.12 743.238L1845.11 742.962L1843.91 708.162L1835.92 708.438ZM1837.12 743.1V861H1845.12V743.1H1837.12Z" fill="#98C9A3" mask="url(#path-1-outside-1_1889_1447)"/>
</g>
<path opacity="0.3" d="M39.6422 477H7.24219V276H39.6422V477ZM102.045 477H69.6445V276H104.445L194.445 393.6L220.545 431.1H222.945L221.445 394.8V276H253.845V477H219.045L128.445 359.7L103.245 324.3H100.845L102.045 359.1V477ZM383.705 477H351.605V305.1H272.405V276H462.605V305.1H383.705V477ZM642.359 477H481.559V276H642.359V305.1H513.959V361.5H637.859V390.3H513.959V447.9H642.359V477ZM699.994 477H667.594V276H771.994C817.594 276 845.794 297.6 845.794 335.1C845.794 368.4 823.894 388.8 786.094 390.9V393C801.694 397.2 808.894 406.2 816.094 418.8L849.694 477H812.494L780.394 421.5C771.394 405.6 762.094 399 736.894 399H699.994V477ZM699.994 305.1V374.1H771.694C798.694 374.1 812.194 364.8 812.194 339.6C812.194 315 798.694 305.1 771.694 305.1H699.994ZM901.556 477H869.156V276H901.556V477ZM1030.26 480C967.259 480 925.559 439.2 925.559 376.5C925.559 313.8 967.259 273 1030.26 273C1093.86 273 1135.26 313.8 1135.26 376.5C1135.26 439.2 1093.86 480 1030.26 480ZM1030.26 448.8C1077.96 448.8 1101.06 426.6 1101.06 376.5C1101.06 326.4 1077.96 303.9 1030.26 303.9C982.559 303.9 959.759 326.4 959.759 376.5C959.759 426.6 982.559 448.8 1030.26 448.8ZM1191.6 477H1159.2V276H1263.6C1309.2 276 1337.4 297.6 1337.4 335.1C1337.4 368.4 1315.5 388.8 1277.7 390.9V393C1293.3 397.2 1300.5 406.2 1307.7 418.8L1341.3 477H1304.1L1272 421.5C1263 405.6 1253.7 399 1228.5 399H1191.6V477ZM1191.6 305.1V374.1H1263.3C1290.3 374.1 1303.8 364.8 1303.8 339.6C1303.8 315 1290.3 305.1 1263.3 305.1H1191.6Z" fill="#98C9A3"/>
<g opacity="0.12" clip-path="url(#clip1_1889_1447)">
<path d="M2151.07 -366.507C1800.83 -387.821 1627.51 -327.43 1497.53 105.96C1437.23 307.009 1298.94 336.863 912.591 343.967C657.403 348.66 655.916 472.369 565.675 594.374C427.386 781.342 216.953 853.769 32.0797 853.769C-1.51624 853.769 -161.583 852.203 -276.262 783.883" stroke="white" stroke-width="1.33333" stroke-miterlimit="10" stroke-linecap="round" stroke-linejoin="round"/>
<path d="M2138.45 -391.51C1788.05 -416.922 1612.64 -354.181 1484.2 71.802C1423.67 271.916 1291.44 306.803 903.566 311.039C723.373 313.008 658.011 370.098 613.434 452.874C598.276 481.018 559.185 556.623 518.428 599.702C395.243 729.91 227.043 821.577 32.0804 821.577C-71.4303 821.577 -206.971 801.102 -345.549 701.853" stroke="white" stroke-width="1.33333" stroke-miterlimit="10" stroke-linecap="round" stroke-linejoin="round"/>
<path d="M588.726 447.226C588.751 447.2 588.777 447.175 588.777 447.124C641.386 352.804 693.169 278.812 894.539 278.101C1283.93 276.754 1410.12 236.836 1470.86 37.6516C1597.77 -380.943 1775.28 -446.016 2125.83 -416.516" stroke="white" stroke-width="1.33333" stroke-miterlimit="10" stroke-linecap="round" stroke-linejoin="round"/>
<path d="M645.027 271.291C692.574 233.965 760.653 210.969 876.486 212.265C1268.95 216.636 1383.02 166.63 1444.21 -30.6739C1568.05 -434.429 1749.71 -504.229 2100.59 -466.521" stroke="white" stroke-width="1.33333" stroke-miterlimit="10" stroke-linecap="round" stroke-linejoin="round"/>
<path d="M650.451 224.69C697.972 194.911 763.985 177.429 867.447 179.335C1261.43 186.576 1369.47 131.54 1430.86 -64.8242C1553.17 -461.185 1736.95 -533.323 2087.99 -491.524" stroke="white" stroke-width="1.33333" stroke-miterlimit="10" stroke-linecap="round" stroke-linejoin="round"/>
<path d="M652.207 182.688C699.496 157.864 763.494 143.965 858.433 146.404C1253.94 156.517 1356.35 96.5761 1417.53 -98.9746C1539.15 -487.687 1724.17 -562.442 2075.39 -516.527" stroke="white" stroke-width="1.33333" stroke-miterlimit="10" stroke-linecap="round" stroke-linejoin="round"/>
<path d="M651.227 143.304C698.231 121.986 760.473 110.552 849.395 113.474C1246.45 126.458 1342.84 61.5114 1404.2 -133.15C1524.4 -514.392 1711.39 -591.535 2062.76 -541.53" stroke="white" stroke-width="1.33333" stroke-miterlimit="10" stroke-linecap="round" stroke-linejoin="round"/>
<path d="M647.895 105.673C694.692 86.8191 755.643 77.189 840.381 80.543C1238.94 96.3984 1329.33 26.4464 1390.88 -167.3C1509.6 -541.123 1698.63 -620.629 2050.15 -566.533" stroke="white" stroke-width="1.33333" stroke-miterlimit="10" stroke-linecap="round" stroke-linejoin="round"/>
<path d="M642.418 69.2612C689.216 52.1353 749.34 43.7756 831.34 47.6124C1231.45 66.3391 1315.82 -8.64394 1377.55 -201.45C1494.8 -567.854 1685.84 -649.748 2037.52 -591.535" stroke="white" stroke-width="1.33333" stroke-miterlimit="10" stroke-linecap="round" stroke-linejoin="round"/>
<path d="M634.801 33.8149C681.805 17.8324 741.672 10.3621 822.328 14.6817C1223.96 36.2797 1302.32 -43.7091 1364.2 -235.626C1479.98 -594.585 1673.06 -678.842 2024.92 -616.538" stroke="white" stroke-width="1.33333" stroke-miterlimit="10" stroke-linecap="round" stroke-linejoin="round"/>
<path d="M633.406 327.751C680.514 277.593 749.497 244.662 885.5 245.196C1276.44 246.695 1396.56 201.72 1457.54 3.47633C1582.9 -407.698 1762.5 -475.135 2113.22 -441.518" stroke="white" stroke-width="1.33333" stroke-miterlimit="10" stroke-linecap="round" stroke-linejoin="round"/>
<path d="M588.777 447.124C588.777 447.175 588.751 447.2 588.726 447.226" stroke="white" stroke-width="1.33333" stroke-miterlimit="10" stroke-linecap="round" stroke-linejoin="round"/>
<path d="M165.167 1441.65C165.167 1441.65 275.422 1212.76 504.556 1107.72C822.328 962.071 1118.4 1057.99 1241.93 921.848C1288.32 870.724 1308.77 817.11 1319.49 766.342" stroke="white" stroke-width="1.33333" stroke-miterlimit="10" stroke-linecap="round" stroke-linejoin="round"/>
<path d="M194.301 1459.43C194.301 1459.43 298.718 1231.87 538.802 1128.07C854.482 991.596 1148.91 1087.7 1272.85 950.535C1321.82 896.438 1341.29 839.089 1350.87 785.196" stroke="white" stroke-width="1.33333" stroke-miterlimit="10" stroke-linecap="round" stroke-linejoin="round"/>
<path d="M223.433 1477.22C223.433 1477.22 321.807 1250.93 573.049 1148.4C886.275 1020.59 1179.38 1117.37 1303.76 979.248C1356.11 921.213 1374.09 858.985 1382.22 801.103" stroke="white" stroke-width="1.33333" stroke-miterlimit="10" stroke-linecap="round" stroke-linejoin="round"/>
<path d="M252.591 1495.01C252.591 1495.01 344.689 1269.91 607.268 1168.73C917.757 1049.12 1209.88 1147.05 1334.68 1007.96C1391.21 945.123 1406.81 876.771 1413.29 814.264" stroke="white" stroke-width="1.33333" stroke-miterlimit="10" stroke-linecap="round" stroke-linejoin="round"/>
<path d="M281.724 1512.79C281.724 1512.79 367.391 1288.78 641.515 1189.05C948.956 1077.23 1240.36 1176.75 1365.59 1036.65C1426.98 968.245 1439.12 892.525 1443.85 824.886" stroke="white" stroke-width="1.33333" stroke-miterlimit="10" stroke-linecap="round" stroke-linejoin="round"/>
<path d="M310.856 1530.58C310.856 1530.58 389.964 1307.59 675.761 1209.41C979.922 1104.92 1270.86 1206.43 1396.51 1065.36C1463.37 990.631 1470.6 906.297 1473.73 833.245" stroke="white" stroke-width="1.33333" stroke-miterlimit="10" stroke-linecap="round" stroke-linejoin="round"/>
<path d="M339.988 1548.37C339.988 1548.37 412.38 1326.24 710.007 1229.73C1010.68 1132.24 1301.33 1236.14 1427.42 1094.07C1500.38 1012.3 1500.85 917.909 1503.01 839.496" stroke="white" stroke-width="1.33333" stroke-miterlimit="10" stroke-linecap="round" stroke-linejoin="round"/>
<path d="M369.121 1566.15C369.121 1566.15 434.643 1344.74 744.228 1250.06C1041.29 1159.22 1331.84 1265.82 1458.33 1122.76C1537.98 1033.24 1529.46 927.26 1531.97 843.968" stroke="white" stroke-width="1.33333" stroke-miterlimit="10" stroke-linecap="round" stroke-linejoin="round"/>
<path d="M2202.97 477.844C2209.86 661.3 2103.87 727.517 1914.07 735.012" stroke="white" stroke-width="1.33333" stroke-miterlimit="10" stroke-linecap="round" stroke-linejoin="round"/>
<path d="M398.254 1583.94C398.254 1583.94 456.803 1363.08 778.474 1270.41C1071.74 1185.9 1362.34 1295.49 1489.25 1151.47C1576.23 1053.39 1555.81 933.943 1560.92 846.738" stroke="white" stroke-width="1.33333" stroke-miterlimit="10" stroke-linecap="round" stroke-linejoin="round"/>
<path d="M2226.81 501.246C2235.48 705.233 2104.93 764.919 1879.18 761.006" stroke="white" stroke-width="1.33333" stroke-miterlimit="10" stroke-linecap="round" stroke-linejoin="round"/>
<path d="M427.386 1601.73C427.386 1601.73 478.858 1381.25 812.72 1290.74C1102.06 1212.28 1392.81 1325.2 1520.16 1180.19C1615.33 1072.58 1579.2 937.195 1590.88 847.855" stroke="white" stroke-width="1.33333" stroke-miterlimit="10" stroke-linecap="round" stroke-linejoin="round"/>
<path d="M2250.65 524.648C2261.29 749.064 2103.85 799.629 1841.91 784.002" stroke="white" stroke-width="1.33333" stroke-miterlimit="10" stroke-linecap="round" stroke-linejoin="round"/>
<path d="M456.519 1619.51C456.519 1619.51 500.837 1399.24 846.966 1311.07C1132.27 1238.4 1423.31 1354.88 1551.08 1208.87C1655.73 1090.21 1598.26 935.29 1623.52 847.119" stroke="white" stroke-width="1.33333" stroke-miterlimit="10" stroke-linecap="round" stroke-linejoin="round"/>
<path d="M2274.48 548.05C2287.19 791.726 2102.3 831.365 1807.05 804.965C1805.01 804.787 1802.99 804.609 1801 804.482" stroke="white" stroke-width="1.33333" stroke-miterlimit="10" stroke-linecap="round" stroke-linejoin="round"/>
<path d="M485.651 1637.3C485.651 1637.3 522.687 1417 881.213 1331.4C1162.41 1264.26 1453.79 1384.55 1581.99 1237.58C1698.88 1104.62 1609.11 922.864 1663.99 843.282" stroke="white" stroke-width="1.33333" stroke-miterlimit="10" stroke-linecap="round" stroke-linejoin="round"/>
<path d="M514.791 1655.09C514.791 1655.09 544.492 1434.53 915.44 1351.74C1192.46 1289.91 1483.99 1414 1612.91 1266.29C1772.19 1083.79 1538.38 804.182 1831.58 830.407C2124.78 856.629 2312.33 817.913 2298.31 571.442" stroke="white" stroke-width="1.33333" stroke-miterlimit="10" stroke-linecap="round" stroke-linejoin="round"/>
<path d="M543.927 1672.88C543.927 1672.88 566.22 1451.82 949.682 1372.07C1222.47 1315.34 1514.47 1443.68 1643.82 1294.99C1801.7 1113.52 1564.95 829.802 1856.11 855.844C2147.27 881.886 2337.47 844.087 2322.15 594.839" stroke="white" stroke-width="1.33333" stroke-miterlimit="10" stroke-linecap="round" stroke-linejoin="round"/>
<path d="M573.062 1690.67C573.062 1690.67 587.886 1468.85 983.922 1392.41C1252.43 1340.58 1544.95 1473.36 1674.74 1323.7C1831.21 1143.25 1591.53 855.425 1880.63 881.284C2169.75 907.141 2362.6 870.259 2345.98 618.236" stroke="white" stroke-width="1.33333" stroke-miterlimit="10" stroke-linecap="round" stroke-linejoin="round"/>
<path d="M602.196 1708.46C602.196 1708.46 609.5 1485.6 1018.16 1412.74C1282.36 1365.64 1575.44 1503.05 1705.65 1352.4C1860.72 1172.99 1618.1 881.046 1905.16 906.722C2192.23 932.398 2387.73 896.433 2369.82 641.633" stroke="white" stroke-width="1.33333" stroke-miterlimit="10" stroke-linecap="round" stroke-linejoin="round"/>
<path d="M631.328 1726.24C631.328 1726.24 631.075 1502.05 1052.4 1433.08C1312.26 1390.53 1605.93 1532.74 1736.56 1381.1C1890.24 1202.72 1644.67 906.668 1929.69 932.162C2214.71 957.655 2412.87 922.608 2393.65 665.03" stroke="white" stroke-width="1.33333" stroke-miterlimit="10" stroke-linecap="round" stroke-linejoin="round"/>
<path d="M660.465 1744.03C660.465 1744.03 652.616 1518.19 1086.64 1453.41C1342.16 1415.27 1636.43 1562.43 1767.48 1409.81C1919.76 1232.47 1671.25 932.291 1954.22 957.599C2237.2 982.909 2438 948.782 2417.49 688.427" stroke="white" stroke-width="1.33333" stroke-miterlimit="10" stroke-linecap="round" stroke-linejoin="round"/>
<path d="M689.6 1761.82C689.6 1761.82 674.135 1533.99 1120.88 1473.74C1372.05 1439.87 1667.23 1592.38 1798.4 1438.51C1949.64 1262.5 1697.82 957.911 1978.75 983.038C2259.68 1008.17 2463.14 974.953 2441.32 711.824" stroke="white" stroke-width="1.33333" stroke-miterlimit="10" stroke-linecap="round" stroke-linejoin="round"/>
<path d="M718.734 1779.61C718.734 1779.61 695.637 1549.44 1155.12 1494.08C1401.95 1464.34 1697.72 1622.07 1829.31 1467.22C1979.15 1292.24 1724.39 983.534 2003.28 1008.48C2282.16 1033.42 2488.27 1001.13 2465.16 735.219" stroke="white" stroke-width="1.33333" stroke-miterlimit="10" stroke-linecap="round" stroke-linejoin="round"/>
<path d="M747.869 1797.39C747.869 1797.39 717.137 1564.51 1189.36 1514.41C1431.86 1488.69 1728.21 1651.76 1860.22 1495.92C2008.66 1321.97 1750.96 1009.15 2027.8 1033.92C2304.64 1058.68 2513.4 1027.3 2488.99 758.615" stroke="white" stroke-width="1.33333" stroke-miterlimit="10" stroke-linecap="round" stroke-linejoin="round"/>
<path d="M777.005 1815.18C777.005 1815.18 738.647 1579.18 1223.6 1534.75C1461.8 1512.92 1758.71 1681.45 1891.14 1524.63C2038.18 1351.7 1777.54 1034.78 2052.33 1059.36C2327.13 1083.93 2538.54 1053.48 2512.83 782.012" stroke="white" stroke-width="1.33333" stroke-miterlimit="10" stroke-linecap="round" stroke-linejoin="round"/>
<path d="M806.137 1832.96C806.137 1832.96 760.173 1593.44 1257.85 1555.08C1491.77 1537.05 1789.2 1711.13 1922.05 1553.33C2067.69 1381.44 1804.11 1060.4 2076.86 1084.8C2349.61 1109.19 2563.67 1079.65 2536.66 805.409" stroke="white" stroke-width="1.33333" stroke-miterlimit="10" stroke-linecap="round" stroke-linejoin="round"/>
<path d="M835.275 1850.75C835.275 1850.75 781.731 1607.25 1292.09 1575.42C1521.78 1561.09 1819.69 1740.82 1952.97 1582.03C2097.2 1411.17 1830.68 1086.02 2101.39 1110.24C2372.09 1134.45 2588.82 1105.82 2560.5 828.806" stroke="white" stroke-width="1.33333" stroke-miterlimit="10" stroke-linecap="round" stroke-linejoin="round"/>
<path d="M864.406 1868.54C864.406 1868.54 803.334 1620.61 1326.32 1595.75C1551.83 1585.03 1850.17 1770.51 1983.88 1610.74C2126.71 1440.9 1857.26 1111.64 2125.91 1135.67C2394.58 1159.7 2613.95 1132 2584.33 852.203" stroke="white" stroke-width="1.33333" stroke-miterlimit="10" stroke-linecap="round" stroke-linejoin="round"/>
<path d="M893.542 1886.33C893.542 1886.33 827.498 1669.83 1360.57 1616.09C1580.9 1593.87 1880.67 1800.2 2014.79 1639.44C2156.22 1470.64 1883.83 1137.26 2150.44 1161.11C2417.06 1184.96 2639.08 1158.17 2608.16 875.6" stroke="white" stroke-width="1.33333" stroke-miterlimit="10" stroke-linecap="round" stroke-linejoin="round"/>
<path d="M922.677 1904.11C922.677 1904.11 848.043 1674.77 1394.81 1636.42C1611.58 1621.22 1911.16 1829.89 2045.71 1668.15C2185.73 1500.37 1910.4 1162.89 2174.97 1186.55C2439.54 1210.21 2664.21 1184.35 2632 898.998" stroke="white" stroke-width="1.33333" stroke-miterlimit="10" stroke-linecap="round" stroke-linejoin="round"/>
<path d="M951.811 1921.9C951.811 1921.9 868.988 1678.09 1429.04 1656.76C1642.17 1648.63 1941.65 1859.58 2076.62 1696.85C2215.25 1530.1 1936.97 1188.51 2199.5 1211.99C2462.03 1235.47 2689.34 1210.52 2655.84 922.392" stroke="white" stroke-width="1.33333" stroke-miterlimit="10" stroke-linecap="round" stroke-linejoin="round"/>
<path d="M980.947 1939.69C980.947 1939.69 890.515 1668.95 1463.29 1677.09C1672.63 1680.06 1972.14 1889.26 2107.54 1725.56C2244.76 1559.84 1963.55 1214.13 2224.03 1237.43C2484.51 1260.73 2714.47 1236.69 2679.68 945.789" stroke="white" stroke-width="1.33333" stroke-miterlimit="10" stroke-linecap="round" stroke-linejoin="round"/>
<path d="M1010.08 1957.47C1010.08 1957.47 912.591 1679.66 1497.53 1697.42C1703.02 1703.66 2002.63 1918.95 2138.45 1754.26C2274.27 1589.57 1990.12 1239.75 2248.55 1262.87C2506.99 1285.98 2739.62 1262.87 2703.52 969.186" stroke="white" stroke-width="1.33333" stroke-miterlimit="10" stroke-linecap="round" stroke-linejoin="round"/>
<path d="M1595.09 -136.301H1595.32C1871.56 -136.301 2095.5 83.9983 2095.5 355.803C2095.5 627.581 1871.56 847.881 1595.32 847.881C1319.08 847.881 1095.13 627.581 1095.13 355.803C1095.13 349.577 1095.26 343.403 1095.47 337.228" stroke="white" stroke-width="1.33333" stroke-miterlimit="10" stroke-linecap="round" stroke-linejoin="round"/>
<path d="M1580.24 -108.579C1585.25 -108.732 1590.28 -108.808 1595.32 -108.808C1856.12 -108.808 2067.56 99.1934 2067.56 355.803C2067.56 612.387 1856.12 820.388 1595.32 820.388C1334.5 820.388 1123.08 612.387 1123.08 355.803C1123.08 348.892 1123.23 342.031 1123.54 335.196" stroke="white" stroke-width="1.33333" stroke-miterlimit="10" stroke-linecap="round" stroke-linejoin="round"/>
<path d="M1566.47 -80.4003C1576 -81.0101 1585.63 -81.315 1595.32 -81.315C1840.7 -81.315 2039.62 114.388 2039.62 355.803C2039.62 597.192 1840.7 792.92 1595.32 792.92C1349.94 792.92 1151.02 597.192 1151.02 355.803C1151.02 348.053 1151.23 340.379 1151.62 332.731" stroke="white" stroke-width="1.33333" stroke-miterlimit="10" stroke-linecap="round" stroke-linejoin="round"/>
<path d="M1553.71 -51.8144C1567.4 -53.1611 1581.27 -53.8472 1595.32 -53.8472C1825.26 -53.8472 2011.67 129.558 2011.67 355.803C2011.67 582.023 1825.26 765.428 1595.32 765.428C1365.36 765.428 1178.97 582.023 1178.97 355.803C1178.97 347.037 1179.25 338.321 1179.82 329.708" stroke="white" stroke-width="1.33333" stroke-miterlimit="10" stroke-linecap="round" stroke-linejoin="round"/>
<path d="M1541.73 -22.7463C1559.24 -25.1348 1577.14 -26.3544 1595.32 -26.3544C1809.84 -26.3544 1983.73 144.752 1983.73 355.803C1983.73 566.828 1809.84 737.935 1595.32 737.935C1380.8 737.935 1206.91 566.828 1206.91 355.803C1206.91 345.766 1207.3 335.831 1208.07 325.998" stroke="white" stroke-width="1.33333" stroke-miterlimit="10" stroke-linecap="round" stroke-linejoin="round"/>
<path d="M1530.39 6.88079C1551.47 3.09479 1573.16 1.13824 1595.32 1.13824C1794.39 1.13824 1955.78 159.922 1955.78 355.803C1955.78 551.658 1794.39 710.441 1595.32 710.441C1396.25 710.441 1234.86 551.658 1234.86 355.803C1234.86 344.19 1235.43 332.731 1236.54 321.398" stroke="white" stroke-width="1.33333" stroke-miterlimit="10" stroke-linecap="round" stroke-linejoin="round"/>
<path d="M1519.62 37.1692C1543.92 31.5791 1569.29 28.6316 1595.32 28.6316C1778.97 28.6316 1927.84 175.117 1927.84 355.803C1927.84 536.464 1778.97 682.949 1595.32 682.949C1411.67 682.949 1262.8 536.464 1262.8 355.803C1262.8 342.209 1263.65 328.793 1265.28 315.631" stroke="white" stroke-width="1.33333" stroke-miterlimit="10" stroke-linecap="round" stroke-linejoin="round"/>
<path d="M1509.24 68.2702C1536.54 60.3679 1565.41 56.1244 1595.32 56.1244C1763.53 56.1244 1899.89 190.286 1899.89 355.803C1899.89 521.294 1763.53 655.456 1595.32 655.456C1427.11 655.456 1290.75 521.294 1290.75 355.803C1290.75 339.642 1292.04 323.762 1294.57 308.287" stroke="white" stroke-width="1.33333" stroke-miterlimit="10" stroke-linecap="round" stroke-linejoin="round"/>
<path d="M1499.17 100.515C1529.1 89.5887 1561.51 83.6175 1595.32 83.6175C1748.11 83.6175 1871.95 205.481 1871.95 355.803C1871.95 506.099 1748.11 627.963 1595.32 627.963C1442.53 627.963 1318.69 506.099 1318.69 355.803C1318.69 336.187 1320.81 317.054 1324.84 298.606" stroke="white" stroke-width="1.33333" stroke-miterlimit="10" stroke-linecap="round" stroke-linejoin="round"/>
<path d="M1487.78 135.122C1520.35 119.724 1556.81 111.11 1595.32 111.11C1732.67 111.11 1844.01 220.65 1844.01 355.803C1844.01 490.93 1732.67 600.47 1595.32 600.47C1457.97 600.47 1346.61 490.93 1346.61 355.803C1346.61 331.181 1350.3 307.423 1357.17 285.038" stroke="white" stroke-width="1.33333" stroke-miterlimit="10" stroke-linecap="round" stroke-linejoin="round"/>
<path d="M1468.69 177.886C1504.54 153.138 1548.21 138.604 1595.32 138.604C1717.22 138.604 1816.06 235.845 1816.06 355.803C1816.06 475.735 1717.22 572.977 1595.32 572.977C1473.39 572.977 1374.55 475.735 1374.55 355.803C1374.55 322.237 1382.3 290.45 1396.12 262.068" stroke="white" stroke-width="1.33333" stroke-miterlimit="10" stroke-linecap="round" stroke-linejoin="round"/>
<path d="M1595.31 166.099C1701.8 166.099 1788.12 251.027 1788.12 355.79C1788.12 460.556 1701.8 545.484 1595.31 545.484C1488.83 545.484 1402.51 460.556 1402.51 355.79C1402.51 251.027 1488.83 166.099 1595.31 166.099Z" stroke="white" stroke-width="1.33333" stroke-miterlimit="10" stroke-linecap="round" stroke-linejoin="round"/>
<path d="M1595.31 193.589C1686.37 193.589 1760.18 266.209 1760.18 355.79C1760.18 445.373 1686.37 517.991 1595.31 517.991C1504.26 517.991 1430.45 445.373 1430.45 355.79C1430.45 266.209 1504.26 193.589 1595.31 193.589Z" stroke="white" stroke-width="1.33333" stroke-miterlimit="10" stroke-linecap="round" stroke-linejoin="round"/>
<path d="M1595.31 221.082C1670.94 221.082 1732.24 281.391 1732.24 355.79C1732.24 430.189 1670.94 490.5 1595.31 490.5C1519.7 490.5 1458.39 430.189 1458.39 355.79C1458.39 281.391 1519.7 221.082 1595.31 221.082Z" stroke="white" stroke-width="1.33333" stroke-miterlimit="10" stroke-linecap="round" stroke-linejoin="round"/>
<path d="M1595.31 248.573C1655.5 248.573 1704.3 296.576 1704.3 355.79C1704.3 415.004 1655.5 463.008 1595.31 463.008C1535.13 463.008 1486.34 415.004 1486.34 355.79C1486.34 296.576 1535.13 248.573 1595.31 248.573Z" stroke="white" stroke-width="1.33333" stroke-miterlimit="10" stroke-linecap="round" stroke-linejoin="round"/>
<path d="M1595.31 276.066C1640.07 276.066 1676.35 311.761 1676.35 355.79C1676.35 399.822 1640.07 435.517 1595.31 435.517C1550.56 435.517 1514.28 399.822 1514.28 355.79C1514.28 311.761 1550.56 276.066 1595.31 276.066Z" stroke="white" stroke-width="1.33333" stroke-miterlimit="10" stroke-linecap="round" stroke-linejoin="round"/>
<path d="M1648.41 355.79C1648.41 384.64 1624.64 408.024 1595.31 408.024C1565.99 408.024 1542.22 384.64 1542.22 355.79C1542.22 326.943 1565.99 303.556 1595.31 303.556C1624.64 303.556 1648.41 326.943 1648.41 355.79Z" stroke="white" stroke-width="1.33333" stroke-miterlimit="10" stroke-linecap="round" stroke-linejoin="round"/>
<path d="M1624.91 355.79C1624.91 371.874 1611.66 384.912 1595.31 384.912C1578.97 384.912 1565.72 371.874 1565.72 355.79C1565.72 339.709 1578.97 326.671 1595.31 326.671C1611.66 326.671 1624.91 339.709 1624.91 355.79Z" stroke="white" stroke-width="1.33333" stroke-miterlimit="10" stroke-linecap="round" stroke-linejoin="round"/>
<path d="M652.223 178C652.223 514.962 374.573 788.123 32.0798 788.123C-310.417 788.123 -588.064 514.962 -588.064 178C-588.064 -158.961 -310.417 -432.122 32.0798 -432.122C374.573 -432.122 652.223 -158.961 652.223 178Z" stroke="white" stroke-width="1.33333" stroke-miterlimit="10" stroke-linecap="round" stroke-linejoin="round"/>
<path d="M32.0804 -398.038C355.441 -398.038 617.577 -140.135 617.577 178C617.577 496.139 355.441 754.039 32.0804 754.039C-291.282 754.039 -553.42 496.139 -553.42 178C-553.42 -140.135 -291.282 -398.038 32.0804 -398.038Z" stroke="white" stroke-width="1.33333" stroke-miterlimit="10" stroke-linecap="round" stroke-linejoin="round"/>
<path d="M32.0803 -363.951C336.306 -363.951 582.933 -121.312 582.933 178.001C582.933 477.313 336.306 719.955 32.0803 719.955C-272.147 719.955 -518.773 477.313 -518.773 178.001C-518.773 -121.312 -272.147 -363.951 32.0803 -363.951Z" stroke="white" stroke-width="1.33333" stroke-miterlimit="10" stroke-linecap="round" stroke-linejoin="round"/>
<path d="M32.0802 -329.867C317.174 -329.867 548.289 -102.486 548.289 178.001C548.289 458.49 317.174 685.868 32.0802 685.868C-253.015 685.868 -484.13 458.49 -484.13 178.001C-484.13 -102.486 -253.015 -329.867 32.0802 -329.867Z" stroke="white" stroke-width="1.33333" stroke-miterlimit="10" stroke-linecap="round" stroke-linejoin="round"/>
<path d="M32.0802 -295.783C298.039 -295.783 513.642 -83.6626 513.642 178.001C513.642 439.664 298.039 651.784 32.0802 651.784C-233.881 651.784 -449.483 439.664 -449.483 178.001C-449.483 -83.6626 -233.881 -295.783 32.0802 -295.783Z" stroke="white" stroke-width="1.33333" stroke-miterlimit="10" stroke-linecap="round" stroke-linejoin="round"/>
<path d="M32.0797 -261.696C278.906 -261.696 478.998 -64.837 478.998 178.001C478.998 420.838 278.906 617.697 32.0797 617.697C-214.748 617.697 -414.84 420.838 -414.84 178.001C-414.84 -64.837 -214.748 -261.696 32.0797 -261.696Z" stroke="white" stroke-width="1.33333" stroke-miterlimit="10" stroke-linecap="round" stroke-linejoin="round"/>
<path d="M32.0804 -227.612C259.771 -227.612 444.352 -46.0136 444.352 178.001C444.352 402.015 259.771 583.613 32.0804 583.613C-195.614 583.613 -380.195 402.015 -380.195 178.001C-380.195 -46.0136 -195.614 -227.612 32.0804 -227.612Z" stroke="white" stroke-width="1.33333" stroke-miterlimit="10" stroke-linecap="round" stroke-linejoin="round"/>
<path d="M32.0804 -193.525C240.638 -193.525 409.708 -27.1877 409.708 178.001C409.708 383.189 240.638 549.529 32.0804 549.529C-176.479 549.529 -345.549 383.189 -345.549 178.001C-345.549 -27.1877 -176.479 -193.525 32.0804 -193.525Z" stroke="white" stroke-width="1.33333" stroke-miterlimit="10" stroke-linecap="round" stroke-linejoin="round"/>
<path d="M32.0801 -159.441C221.504 -159.441 375.064 -8.36204 375.064 178.001C375.064 364.366 221.504 515.445 32.0801 515.445C-157.346 515.445 -310.905 364.366 -310.905 178.001C-310.905 -8.36204 -157.346 -159.441 32.0801 -159.441Z" stroke="white" stroke-width="1.33333" stroke-miterlimit="10" stroke-linecap="round" stroke-linejoin="round"/>
<path d="M32.0797 -125.357C202.37 -125.357 340.417 10.4614 340.417 178.001C340.417 345.54 202.37 481.358 32.0797 481.358C-138.212 481.358 -276.262 345.54 -276.262 178.001C-276.262 10.4614 -138.212 -125.357 32.0797 -125.357Z" stroke="white" stroke-width="1.33333" stroke-miterlimit="10" stroke-linecap="round" stroke-linejoin="round"/>
<path d="M32.08 -91.2704C183.237 -91.2704 305.774 29.287 305.774 178.001C305.774 326.717 183.237 447.274 32.08 447.274C-119.079 447.274 -241.615 326.717 -241.615 178.001C-241.615 29.287 -119.079 -91.2704 32.08 -91.2704Z" stroke="white" stroke-width="1.33333" stroke-miterlimit="10" stroke-linecap="round" stroke-linejoin="round"/>
<path d="M32.0804 -57.1861C164.102 -57.1861 271.13 48.1105 271.13 178.001C271.13 307.891 164.102 413.188 32.0804 413.188C-99.9445 413.188 -206.971 307.891 -206.971 178.001C-206.971 48.1105 -99.9445 -57.1861 32.0804 -57.1861Z" stroke="white" stroke-width="1.33333" stroke-miterlimit="10" stroke-linecap="round" stroke-linejoin="round"/>
<path d="M32.08 -23.102C144.969 -23.102 236.484 66.9337 236.484 178.001C236.484 289.065 144.969 379.103 32.08 379.103C-80.8099 379.103 -172.326 289.065 -172.326 178.001C-172.326 66.9337 -80.8099 -23.102 32.08 -23.102Z" stroke="white" stroke-width="1.33333" stroke-miterlimit="10" stroke-linecap="round" stroke-linejoin="round"/>
<path d="M32.0803 10.9822C125.835 10.9822 201.839 85.7596 201.839 178.001C201.839 270.242 125.835 345.017 32.0803 345.017C-61.6767 345.017 -137.68 270.242 -137.68 178.001C-137.68 85.7596 -61.6767 10.9822 32.0803 10.9822Z" stroke="white" stroke-width="1.33333" stroke-miterlimit="10" stroke-linecap="round" stroke-linejoin="round"/>
<path d="M32.0797 45.0691C106.7 45.0691 167.193 104.586 167.193 178.001C167.193 251.416 106.7 310.933 32.0797 310.933C-42.5433 310.933 -103.037 251.416 -103.037 178.001C-103.037 104.586 -42.5433 45.0691 32.0797 45.0691Z" stroke="white" stroke-width="1.33333" stroke-miterlimit="10" stroke-linecap="round" stroke-linejoin="round"/>
<path d="M32.0803 79.1554C87.5681 79.1554 132.549 123.409 132.549 178.001C132.549 232.593 87.5681 276.848 32.0803 276.848C-23.4089 276.848 -68.3906 232.593 -68.3906 178.001C-68.3906 123.409 -23.4089 79.1554 32.0803 79.1554Z" stroke="white" stroke-width="1.33333" stroke-miterlimit="10" stroke-linecap="round" stroke-linejoin="round"/>
<path d="M97.9044 178.001C97.9044 213.767 68.4326 242.764 32.0797 242.764C-4.27645 242.764 -33.7461 213.767 -33.7461 178.001C-33.7461 142.234 -4.27645 113.237 32.0797 113.237C68.4326 113.237 97.9044 142.234 97.9044 178.001Z" stroke="white" stroke-width="1.33333" stroke-miterlimit="10" stroke-linecap="round" stroke-linejoin="round"/>
<path d="M71.2956 178.001C71.2956 199.312 53.7376 216.585 32.0797 216.585C10.4194 216.585 -7.13867 199.312 -7.13867 178.001C-7.13867 156.692 10.4194 139.419 32.0797 139.419C53.7376 139.419 71.2956 156.692 71.2956 178.001Z" stroke="white" stroke-width="1.33333" stroke-miterlimit="10" stroke-linecap="round" stroke-linejoin="round"/>
<path d="M871.27 1018.02C844.772 1020.69 817.499 1023.79 789.58 1027.78" stroke="white" stroke-width="1.33333" stroke-miterlimit="10" stroke-linecap="round" stroke-linejoin="round"/>
<path d="M446.807 1138.13C434.23 1103.68 427.386 1066.5 427.386 1027.78C427.386 847.296 576.096 700.989 759.542 700.989C931.471 700.989 1072.87 829.484 1089.97 994.188" stroke="white" stroke-width="1.33333" stroke-miterlimit="10" stroke-linecap="round" stroke-linejoin="round"/>
<path d="M472.299 1123.7C461.916 1093.59 456.286 1061.32 456.286 1027.78C456.286 863 592.057 729.397 759.543 729.397C917.137 729.397 1046.68 847.678 1061.4 998.94" stroke="white" stroke-width="1.33333" stroke-miterlimit="10" stroke-linecap="round" stroke-linejoin="round"/>
<path d="M498.358 1110.64C489.783 1084.54 485.16 1056.7 485.16 1027.78C485.16 878.703 608.018 757.83 759.543 757.83C902.493 757.83 1019.93 865.414 1032.74 1002.75" stroke="white" stroke-width="1.33333" stroke-miterlimit="10" stroke-linecap="round" stroke-linejoin="round"/>
<path d="M524.83 1098.75C517.831 1076.31 514.061 1052.48 514.061 1027.78C514.061 894.38 623.953 786.238 759.543 786.238C887.617 786.238 992.809 882.743 1004.04 1005.88" stroke="white" stroke-width="1.33333" stroke-miterlimit="10" stroke-linecap="round" stroke-linejoin="round"/>
<path d="M551.664 1087.8C545.982 1068.76 542.935 1048.62 542.935 1027.78C542.935 910.083 639.914 814.671 759.543 814.671C872.612 814.671 965.433 899.894 975.273 1008.62" stroke="white" stroke-width="1.33333" stroke-miterlimit="10" stroke-linecap="round" stroke-linejoin="round"/>
<path d="M578.782 1077.71C574.263 1061.83 571.835 1045.08 571.835 1027.78C571.835 925.786 655.875 843.104 759.543 843.104C857.529 843.104 938.005 916.969 946.502 1011.19" stroke="white" stroke-width="1.33333" stroke-miterlimit="10" stroke-linecap="round" stroke-linejoin="round"/>
<path d="M606.184 1068.51C602.594 1055.53 600.709 1041.86 600.709 1027.78C600.709 941.464 671.81 871.512 759.543 871.512C842.447 871.512 910.5 933.993 917.731 1013.7" stroke="white" stroke-width="1.33333" stroke-miterlimit="10" stroke-linecap="round" stroke-linejoin="round"/>
<path d="M633.819 1060.18C631.082 1049.84 629.609 1038.98 629.609 1027.78C629.609 957.167 687.771 899.945 759.543 899.945C827.39 899.945 883.098 951.069 888.961 1016.32" stroke="white" stroke-width="1.33333" stroke-miterlimit="10" stroke-linecap="round" stroke-linejoin="round"/>
<path d="M661.659 1052.66C659.593 1044.7 658.482 1036.37 658.482 1027.78C658.482 972.87 703.731 928.353 759.542 928.353C812.409 928.353 855.798 968.296 860.24 1019.17" stroke="white" stroke-width="1.33333" stroke-miterlimit="10" stroke-linecap="round" stroke-linejoin="round"/>
<path d="M689.759 1045.92C688.209 1040.13 687.383 1034.06 687.383 1027.78C687.383 988.573 719.692 956.786 759.542 956.786C797.534 956.786 828.706 985.676 831.496 1022.34" stroke="white" stroke-width="1.33333" stroke-miterlimit="10" stroke-linecap="round" stroke-linejoin="round"/>
<path d="M718.04 1039.9C716.878 1036.06 716.258 1032 716.258 1027.78C716.258 1004.25 735.628 985.193 759.543 985.193C782.839 985.193 801.822 1003.26 802.777 1025.95" stroke="white" stroke-width="1.33333" stroke-miterlimit="10" stroke-linecap="round" stroke-linejoin="round"/>
<path d="M-601.362 1058.25C-343.873 1307.96 -129.362 1170.67 -8.45792 1522.41C112.447 1874.15 245.092 1986.93 624.808 2004.71" stroke="white" stroke-width="1.33333" stroke-miterlimit="10" stroke-linecap="round" stroke-linejoin="round"/>
<path d="M-571.212 1038.94C-315.239 1287.18 -101.993 1150.7 18.1993 1500.37C138.391 1850.04 270.257 1962.15 647.734 1979.83" stroke="white" stroke-width="1.33333" stroke-miterlimit="10" stroke-linecap="round" stroke-linejoin="round"/>
<path d="M-541.062 1019.64C-286.608 1266.41 -74.6249 1130.74 44.8547 1478.34C164.336 1825.94 295.419 1937.38 670.66 1954.95" stroke="white" stroke-width="1.33333" stroke-miterlimit="10" stroke-linecap="round" stroke-linejoin="round"/>
<path d="M-510.915 1000.34C-257.975 1245.64 -47.2556 1110.77 71.5127 1456.3C190.281 1801.83 320.585 1912.61 693.586 1930.07" stroke="white" stroke-width="1.33333" stroke-miterlimit="10" stroke-linecap="round" stroke-linejoin="round"/>
<path d="M-480.765 981.031C-229.342 1224.86 -19.8871 1090.8 98.17 1434.26C216.225 1777.72 345.748 1887.83 716.516 1905.2" stroke="white" stroke-width="1.33333" stroke-miterlimit="10" stroke-linecap="round" stroke-linejoin="round"/>
<path d="M-450.617 961.728C-200.71 1204.09 7.48215 1070.84 124.827 1412.22C242.171 1753.61 370.911 1863.06 739.442 1880.32" stroke="white" stroke-width="1.33333" stroke-miterlimit="10" stroke-linecap="round" stroke-linejoin="round"/>
<path d="M-420.467 942.427C-172.078 1183.31 34.8517 1050.87 151.484 1390.19C268.116 1729.5 396.074 1838.29 762.369 1855.44" stroke="white" stroke-width="1.33333" stroke-miterlimit="10" stroke-linecap="round" stroke-linejoin="round"/>
<path d="M-390.312 923.118C-143.434 1162.55 62.2228 1030.91 178.133 1368.14C181.775 1378.71 185.417 1389.05 189.057 1399.16" stroke="white" stroke-width="1.33333" stroke-miterlimit="10" stroke-linecap="round" stroke-linejoin="round"/>
<path d="M-360.172 903.807C-114.818 1141.77 89.599 1010.93 204.787 1346.11C206.956 1352.44 209.151 1358.69 211.347 1364.84" stroke="white" stroke-width="1.33333" stroke-miterlimit="10" stroke-linecap="round" stroke-linejoin="round"/>
<path d="M-330.032 884.522C-86.1766 1120.98 116.95 990.987 231.466 1324.08C232.472 1326.98 233.455 1329.85 234.462 1332.72" stroke="white" stroke-width="1.33333" stroke-miterlimit="10" stroke-linecap="round" stroke-linejoin="round"/>
<path d="M-299.867 865.21C-57.5358 1100.22 144.326 971.015 258.118 1302.05C258.17 1302.23 258.247 1302.38 258.299 1302.56" stroke="white" stroke-width="1.33333" stroke-miterlimit="10" stroke-linecap="round" stroke-linejoin="round"/>
<path d="M-269.728 845.899C-30.3149 1078.06 169.351 952.542 282.782 1274.28" stroke="white" stroke-width="1.33333" stroke-miterlimit="10" stroke-linecap="round" stroke-linejoin="round"/>
<path d="M-239.562 826.614C-2.78332 1056.24 194.867 933.714 307.86 1247.85" stroke="white" stroke-width="1.33333" stroke-miterlimit="10" stroke-linecap="round" stroke-linejoin="round"/>
<path d="M-196.069 819.905C32.5744 1030.37 223.252 920.349 333.532 1223.1" stroke="white" stroke-width="1.33333" stroke-miterlimit="10" stroke-linecap="round" stroke-linejoin="round"/>
<path d="M-119.286 839.699C86.8367 996.246 257.808 921.365 359.824 1200.03" stroke="white" stroke-width="1.33333" stroke-miterlimit="10" stroke-linecap="round" stroke-linejoin="round"/>
<path d="M-46.3008 850.041C139.264 966.873 292.597 920.857 386.709 1178.66" stroke="white" stroke-width="1.33333" stroke-miterlimit="10" stroke-linecap="round" stroke-linejoin="round"/>
<path d="M24.0518 853.725C190.53 941.388 327.721 919.637 414.215 1158.87" stroke="white" stroke-width="1.33333" stroke-miterlimit="10" stroke-linecap="round" stroke-linejoin="round"/>
<path d="M89.4443 851.438C239.393 919.485 362.742 916.741 442.288 1140.83" stroke="white" stroke-width="1.33333" stroke-miterlimit="10" stroke-linecap="round" stroke-linejoin="round"/>
<path d="M148.407 844.222C260.391 890.01 356.001 905.967 427.386 1027.42" stroke="white" stroke-width="1.33333" stroke-miterlimit="10" stroke-linecap="round" stroke-linejoin="round"/>
<path d="M201.068 833.499C291.073 868.132 369.535 889.171 432.113 972.565" stroke="white" stroke-width="1.33333" stroke-miterlimit="10" stroke-linecap="round" stroke-linejoin="round"/>
<path d="M248.098 820.21C322.013 847.932 387.613 869.759 442.262 930.741" stroke="white" stroke-width="1.33333" stroke-miterlimit="10" stroke-linecap="round" stroke-linejoin="round"/>
<path d="M290.428 805.091C352.231 828.112 407.862 848.948 455.77 895.422" stroke="white" stroke-width="1.33333" stroke-miterlimit="10" stroke-linecap="round" stroke-linejoin="round"/>
<path d="M328.78 788.474C381.518 808.192 429.582 827.401 471.912 864.245" stroke="white" stroke-width="1.33333" stroke-miterlimit="10" stroke-linecap="round" stroke-linejoin="round"/>
<path d="M490.506 836.091C452.464 805.625 410.005 788.016 363.801 770.636" stroke="white" stroke-width="1.33333" stroke-miterlimit="10" stroke-linecap="round" stroke-linejoin="round"/>
<path d="M511.606 810.301C476.534 783.875 437.794 767.562 395.98 751.732" stroke="white" stroke-width="1.33333" stroke-miterlimit="10" stroke-linecap="round" stroke-linejoin="round"/>
<path d="M535.29 786.721C501.896 762.429 465.197 746.904 425.733 731.913" stroke="white" stroke-width="1.33333" stroke-miterlimit="10" stroke-linecap="round" stroke-linejoin="round"/>
<path d="M561.762 765.199C528.627 741.314 492.263 726.018 453.161 711.204" stroke="white" stroke-width="1.33333" stroke-miterlimit="10" stroke-linecap="round" stroke-linejoin="round"/>
<path d="M591.282 745.964C557.062 720.809 519.329 705.131 478.626 689.784" stroke="white" stroke-width="1.33333" stroke-miterlimit="10" stroke-linecap="round" stroke-linejoin="round"/>
<path d="M624.211 729.245H624.185C587.485 700.862 546.602 684.321 502.231 667.652" stroke="white" stroke-width="1.33333" stroke-miterlimit="10" stroke-linecap="round" stroke-linejoin="round"/>
<path d="M660.678 715.727H660.653C620.208 681.551 574.366 663.637 524.133 644.885" stroke="white" stroke-width="1.33333" stroke-miterlimit="10" stroke-linecap="round" stroke-linejoin="round"/>
<path d="M700.555 706.147H700.529C655.306 662.672 602.775 643.259 544.433 621.534" stroke="white" stroke-width="1.33333" stroke-miterlimit="10" stroke-linecap="round" stroke-linejoin="round"/>
<path d="M743.324 701.371H743.298C692.703 643.818 631.856 623.313 563.234 597.649" stroke="white" stroke-width="1.33333" stroke-miterlimit="10" stroke-linecap="round" stroke-linejoin="round"/>
<path d="M787.901 702.183H787.875C731.831 624.304 661.428 603.798 580.564 573.104" stroke="white" stroke-width="1.33333" stroke-miterlimit="10" stroke-linecap="round" stroke-linejoin="round"/>
<path d="M596.499 547.999C691.128 584.894 771.991 603.366 832.994 709.019" stroke="white" stroke-width="1.33333" stroke-miterlimit="10" stroke-linecap="round" stroke-linejoin="round"/>
<path d="M611.634 522.387C721.061 566.751 812.824 580.396 877.726 722.308" stroke="white" stroke-width="1.33333" stroke-miterlimit="10" stroke-linecap="round" stroke-linejoin="round"/>
<path d="M626.717 496.52C751.382 549.575 854.043 555.089 921.451 742.381" stroke="white" stroke-width="1.33333" stroke-miterlimit="10" stroke-linecap="round" stroke-linejoin="round"/>
<path d="M642.6 470.704C774.135 529.73 882.09 527.977 951.202 729.067C956.368 744.058 961.533 758.491 966.776 772.415" stroke="white" stroke-width="1.33333" stroke-miterlimit="10" stroke-linecap="round" stroke-linejoin="round"/>
<path d="M660.291 445.396C795.958 509.453 907.271 501.754 977.856 707.037C995.444 758.211 1013.37 802.932 1032.79 841.91C1032.79 841.935 1032.81 841.96 1032.81 841.986" stroke="white" stroke-width="1.33333" stroke-miterlimit="10" stroke-linecap="round" stroke-linejoin="round"/>
<path d="M1064.69 898.471V898.497C1086.15 931.91 1109.78 959.835 1136.79 983.084" stroke="white" stroke-width="1.33333" stroke-miterlimit="10" stroke-linecap="round" stroke-linejoin="round"/>
<path d="M680.953 421.308C819.384 489.304 933.021 477.056 1004.51 685.007C1051.38 821.405 1100.56 911.481 1174.76 969.236" stroke="white" stroke-width="1.33333" stroke-miterlimit="10" stroke-linecap="round" stroke-linejoin="round"/>
<path d="M705.953 399.202C845.211 469.027 959.519 454.518 1031.16 662.951C1079.33 803.11 1129.92 893.999 1208.02 950.992" stroke="white" stroke-width="1.33333" stroke-miterlimit="10" stroke-linecap="round" stroke-linejoin="round"/>
<path d="M736.506 379.916C874.059 448.369 986.973 434.775 1057.82 640.921C1106.11 781.385 1156.83 871.994 1235.66 928.429" stroke="white" stroke-width="1.33333" stroke-miterlimit="10" stroke-linecap="round" stroke-linejoin="round"/>
<path d="M774.238 364.086C906.807 427.356 1015.64 418.64 1084.47 618.892C1131.86 756.738 1181.6 846.204 1258.36 902.308" stroke="white" stroke-width="1.33333" stroke-miterlimit="10" stroke-linecap="round" stroke-linejoin="round"/>
<path d="M821.32 352.246C944.72 406.444 1045.99 407.308 1111.12 596.862C1156.96 730.21 1205.05 817.924 1278.01 873.85" stroke="white" stroke-width="1.33333" stroke-miterlimit="10" stroke-linecap="round" stroke-linejoin="round"/>
<path d="M881.807 345.181C989.969 387.463 1078.81 403.166 1137.8 574.806C1181.42 701.751 1227.08 787 1294.65 842.723" stroke="white" stroke-width="1.33333" stroke-miterlimit="10" stroke-linecap="round" stroke-linejoin="round"/>
<path d="M1212.62 672.632C1240.1 729.6 1270.71 774.041 1308.23 808.293" stroke="white" stroke-width="1.33333" stroke-miterlimit="10" stroke-linecap="round" stroke-linejoin="round"/>
<path d="M958.279 342.971C1012.41 363.375 1060.6 384.134 1101.26 432.997" stroke="white" stroke-width="1.33333" stroke-miterlimit="10" stroke-linecap="round" stroke-linejoin="round"/>
<path d="M1318.77 769.646C1315.67 766.419 1312.62 763.141 1309.62 759.761" stroke="white" stroke-width="1.33333" stroke-miterlimit="10" stroke-linecap="round" stroke-linejoin="round"/>
<path d="M1095.7 379.484C1075.53 363.07 1053.89 350.975 1030.93 340.608" stroke="white" stroke-width="1.33333" stroke-miterlimit="10" stroke-linecap="round" stroke-linejoin="round"/>
<path d="M1095.42 339.134C1094.46 338.55 1093.51 337.965 1092.55 337.406" stroke="white" stroke-width="1.33333" stroke-miterlimit="10" stroke-linecap="round" stroke-linejoin="round"/>
</g>
</g>
<defs>
<clipPath id="clip0_1889_1447">
<rect width="1916" height="1069" fill="white"/>
</clipPath>
<clipPath id="clip1_1889_1447">
<rect width="1924" height="1052" fill="white" transform="translate(-8 17)"/>
</clipPath>
</defs>
</svg>
