<svg width="1916" height="901" viewBox="0 0 1916 901" fill="none" xmlns="http://www.w3.org/2000/svg">
<g clip-path="url(#clip0_1889_1447)">
<g opacity="0.3">
<mask id="path-1-outside-1_1889_1447" maskUnits="userSpaceOnUse" x="922" y="653" width="1075" height="215" fill="black">
<rect fill="white" x="922" y="653" width="1075" height="215"/>
<path d="M1018.42 861H926.923V660H1018.42C1080.82 660 1120.12 698.4 1120.12 760.5C1120.12 822.6 1080.82 861 1018.42 861ZM1018.42 689.1H959.023V831.9H1018.42C1064.92 831.9 1085.92 812.1 1085.92 760.5C1085.92 708.9 1064.92 689.1 1018.42 689.1ZM1305.06 861H1144.26V660H1305.06V689.1H1176.66V745.5H1300.56V774.3H1176.66V831.9H1305.06V861ZM1414.6 864C1354.6 864 1324 837.6 1324 795.3V793.5H1356.4V798.3C1356.4 822.3 1370.5 834.3 1414.6 834.3C1453 834.3 1466.5 825.9 1466.5 807C1466.5 789.6 1456.3 783 1430.8 778.2L1381.6 770.1C1347.7 764.1 1323.7 748.5 1323.7 715.5C1323.7 686.4 1347.7 657 1410.1 657C1468.9 657 1495.6 686.4 1495.6 725.7V727.5H1463.5V723.6C1463.5 699 1448.8 686.7 1407.1 686.7C1370.5 686.7 1356.1 695.7 1356.1 713.7C1356.1 731.1 1366.3 736.8 1390 741.9L1438.9 750.3C1479.1 757.5 1498.9 775.8 1498.9 805.2C1498.9 835.8 1474 864 1414.6 864ZM1554.3 861H1521.9V660H1554.3V861ZM1676.7 864C1617.6 864 1578.3 823.2 1578.3 760.5C1578.3 697.8 1620.6 657 1684.8 657C1741.8 657 1781.4 685.8 1781.4 732.3V734.7H1745.7V732.3C1745.7 703.5 1725.6 687.9 1683.9 687.9C1635.6 687.9 1612.5 710.4 1612.5 760.5C1612.5 810.6 1635.3 832.8 1682.4 832.8C1730.4 832.8 1749.3 819.6 1749.3 785.7V783H1674.9V758.4H1781.4V861H1752V817.5H1749.9C1741.5 846.9 1716 864 1676.7 864ZM1841.12 861H1808.72V660H1843.52L1933.52 777.6L1959.62 815.1H1962.02L1960.52 778.8V660H1992.92V861H1958.12L1867.52 743.7L1842.32 708.3H1839.92L1841.12 743.1V861Z"/>
</mask>
<path d="M926.923 861H922.923V865H926.923V861ZM926.923 660V656H922.923V660H926.923ZM959.023 689.1V685.1H955.023V689.1H959.023ZM959.023 831.9H955.023V835.9H959.023V831.9ZM1018.42 857H926.923V865H1018.42V857ZM930.923 861V660H922.923V861H930.923ZM926.923 664H1018.42V656H926.923V664ZM1018.42 664C1048.8 664 1073.14 673.331 1089.87 689.812C1106.59 706.286 1116.12 730.309 1116.12 760.5H1124.12C1124.12 728.591 1114.01 702.364 1095.48 684.113C1076.96 665.869 1050.45 656 1018.42 656V664ZM1116.12 760.5C1116.12 790.691 1106.59 814.714 1089.87 831.188C1073.14 847.669 1048.8 857 1018.42 857V865C1050.45 865 1076.96 855.131 1095.48 836.887C1114.01 818.636 1124.12 792.409 1124.12 760.5H1116.12ZM1018.42 685.1H959.023V693.1H1018.42V685.1ZM955.023 689.1V831.9H963.023V689.1H955.023ZM959.023 835.9H1018.42V827.9H959.023V835.9ZM1018.42 835.9C1042.13 835.9 1060.32 830.868 1072.48 818.336C1084.61 805.835 1089.92 786.712 1089.92 760.5H1081.92C1081.92 785.888 1076.73 802.465 1066.74 812.764C1056.78 823.032 1041.22 827.9 1018.42 827.9V835.9ZM1089.92 760.5C1089.92 734.288 1084.61 715.165 1072.48 702.664C1060.32 690.132 1042.13 685.1 1018.42 685.1V693.1C1041.22 693.1 1056.78 697.968 1066.74 708.236C1076.73 718.535 1081.92 735.112 1081.92 760.5H1089.92ZM1305.06 861V865H1309.06V861H1305.06ZM1144.26 861H1140.26V865H1144.26V861ZM1144.26 660V656H1140.26V660H1144.26ZM1305.06 660H1309.06V656H1305.06V660ZM1305.06 689.1V693.1H1309.06V689.1H1305.06ZM1176.66 689.1V685.1H1172.66V689.1H1176.66ZM1176.66 745.5H1172.66V749.5H1176.66V745.5ZM1300.56 745.5H1304.56V741.5H1300.56V745.5ZM1300.56 774.3V778.3H1304.56V774.3H1300.56ZM1176.66 774.3V770.3H1172.66V774.3H1176.66ZM1176.66 831.9H1172.66V835.9H1176.66V831.9ZM1305.06 831.9H1309.06V827.9H1305.06V831.9ZM1305.06 857H1144.26V865H1305.06V857ZM1148.26 861V660H1140.26V861H1148.26ZM1144.26 664H1305.06V656H1144.26V664ZM1301.06 660V689.1H1309.06V660H1301.06ZM1305.06 685.1H1176.66V693.1H1305.06V685.1ZM1172.66 689.1V745.5H1180.66V689.1H1172.66ZM1176.66 749.5H1300.56V741.5H1176.66V749.5ZM1296.56 745.5V774.3H1304.56V745.5H1296.56ZM1300.56 770.3H1176.66V778.3H1300.56V770.3ZM1172.66 774.3V831.9H1180.66V774.3H1172.66ZM1176.66 835.9H1305.06V827.9H1176.66V835.9ZM1301.06 831.9V861H1309.06V831.9H1301.06ZM1324 793.5V789.5H1320V793.5H1324ZM1356.4 793.5H1360.4V789.5H1356.4V793.5ZM1430.8 778.2L1431.54 774.269L1431.49 774.261L1431.45 774.253L1430.8 778.2ZM1381.6 770.1L1380.9 774.039L1380.93 774.043L1380.95 774.047L1381.6 770.1ZM1495.6 727.5V731.5H1499.6V727.5H1495.6ZM1463.5 727.5H1459.5V731.5H1463.5V727.5ZM1390 741.9L1389.16 745.81L1389.24 745.828L1389.32 745.842L1390 741.9ZM1438.9 750.3L1439.6 746.363L1439.59 746.36L1439.58 746.358L1438.9 750.3ZM1414.6 860C1385.11 860 1363.46 853.504 1349.27 842.366C1335.21 831.337 1328 815.395 1328 795.3H1320C1320 817.505 1328.08 835.913 1344.33 848.659C1360.43 861.296 1384.09 868 1414.6 868V860ZM1328 795.3V793.5H1320V795.3H1328ZM1324 797.5H1356.4V789.5H1324V797.5ZM1352.4 793.5V798.3H1360.4V793.5H1352.4ZM1352.4 798.3C1352.4 811.175 1356.26 821.666 1366.75 828.632C1376.82 835.317 1392.38 838.3 1414.6 838.3V830.3C1392.72 830.3 1379.18 827.283 1371.17 821.968C1363.59 816.934 1360.4 809.425 1360.4 798.3H1352.4ZM1414.6 838.3C1433.9 838.3 1447.75 836.225 1456.87 831.248C1461.53 828.701 1465.02 825.359 1467.31 821.144C1469.57 816.962 1470.5 812.193 1470.5 807H1462.5C1462.5 811.257 1461.74 814.626 1460.27 817.334C1458.82 820.009 1456.54 822.312 1453.03 824.227C1445.8 828.175 1433.7 830.3 1414.6 830.3V838.3ZM1470.5 807C1470.5 797.37 1467.6 790.061 1460.65 784.708C1454.1 779.654 1444.34 776.678 1431.54 774.269L1430.06 782.131C1442.76 784.522 1450.85 787.246 1455.77 791.042C1460.3 794.539 1462.5 799.23 1462.5 807H1470.5ZM1431.45 774.253L1382.25 766.153L1380.95 774.047L1430.15 782.147L1431.45 774.253ZM1382.3 766.161C1365.69 763.222 1352.01 758.007 1342.54 749.888C1333.23 741.909 1327.7 730.888 1327.7 715.5H1319.7C1319.7 733.112 1326.17 746.391 1337.33 755.962C1348.34 765.393 1363.61 770.978 1380.9 774.039L1382.3 766.161ZM1327.7 715.5C1327.7 702.114 1333.19 688.662 1345.99 678.467C1358.87 668.215 1379.48 661 1410.1 661V653C1378.31 653 1355.73 660.485 1341.01 672.208C1326.21 683.988 1319.7 699.786 1319.7 715.5H1327.7ZM1410.1 661C1438.87 661 1459.19 668.193 1472.27 679.624C1485.28 690.999 1491.6 706.995 1491.6 725.7H1499.6C1499.6 705.105 1492.57 686.751 1477.53 673.601C1462.56 660.507 1440.12 653 1410.1 653V661ZM1491.6 725.7V727.5H1499.6V725.7H1491.6ZM1495.6 723.5H1463.5V731.5H1495.6V723.5ZM1467.5 727.5V723.6H1459.5V727.5H1467.5ZM1467.5 723.6C1467.5 710.424 1463.5 699.751 1453.21 692.636C1443.29 685.771 1428.16 682.7 1407.1 682.7V690.7C1427.74 690.7 1440.81 693.779 1448.66 699.214C1456.15 704.399 1459.5 712.176 1459.5 723.6H1467.5ZM1407.1 682.7C1388.63 682.7 1375.04 684.941 1365.94 689.946C1361.32 692.494 1357.79 695.796 1355.44 699.908C1353.11 704.008 1352.1 708.661 1352.1 713.7H1360.1C1360.1 709.739 1360.89 706.517 1362.4 703.867C1363.9 701.229 1366.26 698.906 1369.8 696.954C1377.06 692.959 1388.96 690.7 1407.1 690.7V682.7ZM1352.1 713.7C1352.1 723.338 1355.01 730.421 1361.72 735.584C1368.02 740.427 1377.32 743.263 1389.16 745.81L1390.84 737.99C1378.98 735.437 1371.32 732.873 1366.6 729.241C1362.29 725.929 1360.1 721.462 1360.1 713.7H1352.1ZM1389.32 745.842L1438.22 754.242L1439.58 746.358L1390.68 737.958L1389.32 745.842ZM1438.19 754.237C1457.9 757.766 1472.07 763.932 1481.27 772.373C1490.34 780.69 1494.9 791.505 1494.9 805.2H1502.9C1502.9 789.495 1497.56 776.46 1486.68 766.477C1475.93 756.618 1460.1 750.034 1439.6 746.363L1438.19 754.237ZM1494.9 805.2C1494.9 819.342 1489.18 832.867 1476.53 842.946C1463.8 853.087 1443.71 860 1414.6 860V868C1444.89 868 1466.94 860.813 1481.52 849.203C1496.16 837.533 1502.9 821.658 1502.9 805.2H1494.9ZM1554.3 861V865H1558.3V861H1554.3ZM1521.9 861H1517.9V865H1521.9V861ZM1521.9 660V656H1517.9V660H1521.9ZM1554.3 660H1558.3V656H1554.3V660ZM1554.3 857H1521.9V865H1554.3V857ZM1525.9 861V660H1517.9V861H1525.9ZM1521.9 664H1554.3V656H1521.9V664ZM1550.3 660V861H1558.3V660H1550.3ZM1781.4 734.7V738.7H1785.4V734.7H1781.4ZM1745.7 734.7H1741.7V738.7H1745.7V734.7ZM1749.3 783H1753.3V779H1749.3V783ZM1674.9 783H1670.9V787H1674.9V783ZM1674.9 758.4V754.4H1670.9V758.4H1674.9ZM1781.4 758.4H1785.4V754.4H1781.4V758.4ZM1781.4 861V865H1785.4V861H1781.4ZM1752 861H1748V865H1752V861ZM1752 817.5H1756V813.5H1752V817.5ZM1749.9 817.5V813.5H1746.89L1746.06 816.401L1749.9 817.5ZM1676.7 860C1648.11 860 1624.6 850.152 1608.23 833.001C1591.85 815.833 1582.3 791.009 1582.3 760.5H1574.3C1574.3 792.691 1584.4 819.617 1602.45 838.524C1620.5 857.448 1646.2 868 1676.7 868V860ZM1582.3 760.5C1582.3 730.078 1592.54 705.292 1610.26 688.109C1627.99 670.914 1653.56 661 1684.8 661V653C1651.85 653 1624.16 663.486 1604.69 682.366C1585.21 701.258 1574.3 728.222 1574.3 760.5H1582.3ZM1684.8 661C1712.68 661 1735.9 668.046 1752.05 680.391C1768.1 692.658 1777.4 710.315 1777.4 732.3H1785.4C1785.4 707.785 1774.91 687.792 1756.91 674.034C1739.01 660.354 1713.93 653 1684.8 653V661ZM1777.4 732.3V734.7H1785.4V732.3H1777.4ZM1781.4 730.7H1745.7V738.7H1781.4V730.7ZM1749.7 734.7V732.3H1741.7V734.7H1749.7ZM1749.7 732.3C1749.7 716.861 1744.25 704.456 1732.8 696.073C1721.58 687.853 1705.14 683.9 1683.9 683.9V691.9C1704.37 691.9 1718.82 695.747 1728.08 702.527C1737.11 709.144 1741.7 718.939 1741.7 732.3H1749.7ZM1683.9 683.9C1659.21 683.9 1640.12 689.647 1627.25 702.593C1614.39 715.533 1608.5 734.915 1608.5 760.5H1616.5C1616.5 735.985 1622.16 719.067 1632.93 708.232C1643.69 697.403 1660.3 691.9 1683.9 691.9V683.9ZM1608.5 760.5C1608.5 786.072 1614.31 805.372 1626.93 818.239C1639.57 831.122 1658.3 836.8 1682.4 836.8V828.8C1659.41 828.8 1643.18 823.378 1632.65 812.636C1622.09 801.878 1616.5 785.028 1616.5 760.5H1608.5ZM1682.4 836.8C1706.57 836.8 1724.36 833.52 1736.15 825.235C1748.31 816.689 1753.3 803.425 1753.3 785.7H1745.3C1745.3 801.875 1740.84 812.161 1731.55 818.69C1721.89 825.48 1706.24 828.8 1682.4 828.8V836.8ZM1753.3 785.7V783H1745.3V785.7H1753.3ZM1749.3 779H1674.9V787H1749.3V779ZM1678.9 783V758.4H1670.9V783H1678.9ZM1674.9 762.4H1781.4V754.4H1674.9V762.4ZM1777.4 758.4V861H1785.4V758.4H1777.4ZM1781.4 857H1752V865H1781.4V857ZM1756 861V817.5H1748V861H1756ZM1752 813.5H1749.9V821.5H1752V813.5ZM1746.06 816.401C1742.11 830.212 1734.21 841.013 1722.72 848.413C1711.19 855.846 1695.79 860 1676.7 860V868C1696.91 868 1713.92 863.604 1727.06 855.137C1740.25 846.637 1749.29 834.188 1753.75 818.599L1746.06 816.401ZM1841.12 861V865H1845.12V861H1841.12ZM1808.72 861H1804.72V865H1808.72V861ZM1808.72 660V656H1804.72V660H1808.72ZM1843.52 660L1846.69 657.569L1845.49 656H1843.52V660ZM1933.52 777.6L1936.8 775.315L1936.75 775.241L1936.69 775.169L1933.52 777.6ZM1959.62 815.1L1956.33 817.385L1957.53 819.1H1959.62V815.1ZM1962.02 815.1V819.1H1966.19L1966.01 814.935L1962.02 815.1ZM1960.52 778.8H1956.52V778.883L1956.52 778.965L1960.52 778.8ZM1960.52 660V656H1956.52V660H1960.52ZM1992.92 660H1996.92V656H1992.92V660ZM1992.92 861V865H1996.92V861H1992.92ZM1958.12 861L1954.95 863.445L1956.15 865H1958.12V861ZM1867.52 743.7L1864.26 746.02L1864.3 746.083L1864.35 746.145L1867.52 743.7ZM1842.32 708.3L1845.58 705.98L1844.38 704.3H1842.32V708.3ZM1839.92 708.3V704.3H1835.78L1835.92 708.438L1839.92 708.3ZM1841.12 743.1H1845.12V743.031L1845.11 742.962L1841.12 743.1ZM1841.12 857H1808.72V865H1841.12V857ZM1812.72 861V660H1804.72V861H1812.72ZM1808.72 664H1843.52V656H1808.72V664ZM1840.34 662.431L1930.34 780.031L1936.69 775.169L1846.69 657.569L1840.34 662.431ZM1930.23 779.885L1956.33 817.385L1962.9 812.815L1936.8 775.315L1930.23 779.885ZM1959.62 819.1H1962.02V811.1H1959.62V819.1ZM1966.01 814.935L1964.51 778.635L1956.52 778.965L1958.02 815.265L1966.01 814.935ZM1964.52 778.8V660H1956.52V778.8H1964.52ZM1960.52 664H1992.92V656H1960.52V664ZM1988.92 660V861H1996.92V660H1988.92ZM1992.92 857H1958.12V865H1992.92V857ZM1961.28 858.555L1870.68 741.255L1864.35 746.145L1954.95 863.445L1961.28 858.555ZM1870.78 741.38L1845.58 705.98L1839.06 710.62L1864.26 746.02L1870.78 741.38ZM1842.32 704.3H1839.92V712.3H1842.32V704.3ZM1835.92 708.438L1837.12 743.238L1845.11 742.962L1843.91 708.162L1835.92 708.438ZM1837.12 743.1V861H1845.12V743.1H1837.12Z" fill="#98C9A3" mask="url(#path-1-outside-1_1889_1447)"/>
</g>
<path opacity="0.3" d="M39.6422 477H7.24219V276H39.6422V477ZM102.045 477H69.6445V276H104.445L194.445 393.6L220.545 431.1H222.945L221.445 394.8V276H253.845V477H219.045L128.445 359.7L103.245 324.3H100.845L102.045 359.1V477ZM383.705 477H351.605V305.1H272.405V276H462.605V305.1H383.705V477ZM642.359 477H481.559V276H642.359V305.1H513.959V361.5H637.859V390.3H513.959V447.9H642.359V477ZM699.994 477H667.594V276H771.994C817.594 276 845.794 297.6 845.794 335.1C845.794 368.4 823.894 388.8 786.094 390.9V393C801.694 397.2 808.894 406.2 816.094 418.8L849.694 477H812.494L780.394 421.5C771.394 405.6 762.094 399 736.894 399H699.994V477ZM699.994 305.1V374.1H771.694C798.694 374.1 812.194 364.8 812.194 339.6C812.194 315 798.694 305.1 771.694 305.1H699.994ZM901.556 477H869.156V276H901.556V477ZM1030.26 480C967.259 480 925.559 439.2 925.559 376.5C925.559 313.8 967.259 273 1030.26 273C1093.86 273 1135.26 313.8 1135.26 376.5C1135.26 439.2 1093.86 480 1030.26 480ZM1030.26 448.8C1077.96 448.8 1101.06 426.6 1101.06 376.5C1101.06 326.4 1077.96 303.9 1030.26 303.9C982.559 303.9 959.759 326.4 959.759 376.5C959.759 426.6 982.559 448.8 1030.26 448.8ZM1191.6 477H1159.2V276H1263.6C1309.2 276 1337.4 297.6 1337.4 335.1C1337.4 368.4 1315.5 388.8 1277.7 390.9V393C1293.3 397.2 1300.5 406.2 1307.7 418.8L1341.3 477H1304.1L1272 421.5C1263 405.6 1253.7 399 1228.5 399H1191.6V477ZM1191.6 305.1V374.1H1263.3C1290.3 374.1 1303.8 364.8 1303.8 339.6C1303.8 315 1290.3 305.1 1263.3 305.1H1191.6Z" fill="#98C9A3"/>
<g opacity="0.12" clip-path="url(#clip1_1889_1447)">
<path d="M2151.07 -389.705C1800.83 -411.362 1627.51 -349.996 1497.53 90.3977C1437.23 294.696 1298.94 325.032 912.591 332.251C657.403 337.02 655.916 462.727 565.675 586.705C427.386 776.693 216.953 850.291 32.0797 850.291C-1.51624 850.291 -161.583 848.7 -276.262 779.275" stroke="white" stroke-width="1.33333" stroke-miterlimit="10" stroke-linecap="round" stroke-linejoin="round"/>
<path d="M2138.45 -415.111C1788.05 -440.934 1612.64 -377.179 1484.2 55.6878C1423.67 259.036 1291.44 294.487 903.566 298.791C723.373 300.792 658.011 358.804 613.434 442.918C598.276 471.516 559.185 548.344 518.428 592.119C395.243 724.431 227.043 817.579 32.0804 817.579C-71.4303 817.579 -206.971 796.773 -345.549 695.92" stroke="white" stroke-width="1.33333" stroke-miterlimit="10" stroke-linecap="round" stroke-linejoin="round"/>
<path d="M588.726 437.178C588.751 437.152 588.777 437.127 588.777 437.075C641.386 341.231 693.169 266.043 894.539 265.32C1283.93 263.952 1410.12 223.389 1470.86 20.9857C1597.77 -404.373 1775.28 -470.498 2125.83 -440.521" stroke="white" stroke-width="1.33333" stroke-miterlimit="10" stroke-linecap="round" stroke-linejoin="round"/>
<path d="M645.027 258.401C692.574 220.471 760.653 197.104 876.486 198.421C1268.95 202.862 1383.02 152.048 1444.21 -48.4442C1568.05 -458.724 1749.71 -529.652 2100.59 -491.335" stroke="white" stroke-width="1.33333" stroke-miterlimit="10" stroke-linecap="round" stroke-linejoin="round"/>
<path d="M650.451 211.047C697.972 180.786 763.985 163.021 867.447 164.958C1261.43 172.317 1369.47 116.39 1430.86 -83.1465C1553.17 -485.913 1736.95 -559.216 2087.99 -516.742" stroke="white" stroke-width="1.33333" stroke-miterlimit="10" stroke-linecap="round" stroke-linejoin="round"/>
<path d="M652.207 168.366C699.496 143.14 763.494 129.017 858.433 131.495C1253.94 141.772 1356.35 80.8622 1417.53 -117.848C1539.15 -512.843 1724.17 -588.805 2075.39 -542.148" stroke="white" stroke-width="1.33333" stroke-miterlimit="10" stroke-linecap="round" stroke-linejoin="round"/>
<path d="M651.227 128.345C698.231 106.682 760.473 95.0633 849.395 98.0326C1246.45 111.227 1342.84 45.2306 1404.2 -152.576C1524.4 -539.98 1711.39 -618.369 2062.76 -567.555" stroke="white" stroke-width="1.33333" stroke-miterlimit="10" stroke-linecap="round" stroke-linejoin="round"/>
<path d="M647.895 90.1057C694.692 70.9473 755.643 61.1615 840.381 64.5698C1238.94 80.6814 1329.33 9.59901 1390.88 -187.278C1509.6 -567.142 1698.63 -647.933 2050.15 -592.962" stroke="white" stroke-width="1.33333" stroke-miterlimit="10" stroke-linecap="round" stroke-linejoin="round"/>
<path d="M642.418 53.1057C689.216 35.703 749.34 27.2082 831.34 31.107C1231.45 50.1364 1315.82 -26.0584 1377.55 -221.981C1494.8 -594.305 1685.84 -677.523 2037.52 -618.369" stroke="white" stroke-width="1.33333" stroke-miterlimit="10" stroke-linecap="round" stroke-linejoin="round"/>
<path d="M634.801 17.0867C681.805 0.84589 741.672 -6.74514 822.328 -2.35574C1223.96 19.5913 1302.32 -61.6901 1364.2 -256.709C1479.98 -621.468 1673.06 -707.087 2024.92 -643.776" stroke="white" stroke-width="1.33333" stroke-miterlimit="10" stroke-linecap="round" stroke-linejoin="round"/>
<path d="M633.406 315.773C680.514 264.804 749.497 231.341 885.5 231.883C1276.44 233.407 1396.56 187.706 1457.54 -13.7421C1582.9 -431.561 1762.5 -500.088 2113.22 -465.928" stroke="white" stroke-width="1.33333" stroke-miterlimit="10" stroke-linecap="round" stroke-linejoin="round"/>
<path d="M588.777 437.075C588.777 437.127 588.751 437.152 588.726 437.178" stroke="white" stroke-width="1.33333" stroke-miterlimit="10" stroke-linecap="round" stroke-linejoin="round"/>
<path d="M165.167 1447.67C165.167 1447.67 275.422 1215.08 504.556 1108.34C822.328 960.343 1118.4 1057.81 1241.93 919.47C1288.32 867.52 1308.77 813.04 1319.49 761.451" stroke="white" stroke-width="1.33333" stroke-miterlimit="10" stroke-linecap="round" stroke-linejoin="round"/>
<path d="M194.301 1465.74C194.301 1465.74 298.718 1234.5 538.802 1129.03C854.482 990.346 1148.91 1088 1272.85 948.621C1321.82 893.65 1341.29 835.374 1350.87 780.61" stroke="white" stroke-width="1.33333" stroke-miterlimit="10" stroke-linecap="round" stroke-linejoin="round"/>
<path d="M223.433 1483.82C223.433 1483.82 321.807 1253.86 573.049 1149.68C886.275 1019.81 1179.38 1118.15 1303.76 977.798C1356.11 918.825 1374.09 855.592 1382.22 796.774" stroke="white" stroke-width="1.33333" stroke-miterlimit="10" stroke-linecap="round" stroke-linejoin="round"/>
<path d="M252.591 1501.89C252.591 1501.89 344.689 1273.15 607.268 1170.34C917.757 1048.8 1209.88 1148.31 1334.68 1006.97C1391.21 943.121 1406.81 873.665 1413.29 810.148" stroke="white" stroke-width="1.33333" stroke-miterlimit="10" stroke-linecap="round" stroke-linejoin="round"/>
<path d="M281.724 1519.97C281.724 1519.97 367.391 1292.34 641.515 1190.99C948.956 1077.36 1240.36 1178.5 1365.59 1036.12C1426.98 966.617 1439.12 889.674 1443.85 820.941" stroke="white" stroke-width="1.33333" stroke-miterlimit="10" stroke-linecap="round" stroke-linejoin="round"/>
<path d="M310.856 1538.04C310.856 1538.04 389.964 1311.44 675.761 1211.68C979.922 1105.5 1270.86 1208.65 1396.51 1065.3C1463.37 989.365 1470.6 903.668 1473.73 829.436" stroke="white" stroke-width="1.33333" stroke-miterlimit="10" stroke-linecap="round" stroke-linejoin="round"/>
<path d="M339.988 1556.11C339.988 1556.11 412.38 1330.39 710.007 1232.33C1010.68 1133.26 1301.33 1238.84 1427.42 1094.48C1500.38 1011.39 1500.85 915.468 1503.01 835.787" stroke="white" stroke-width="1.33333" stroke-miterlimit="10" stroke-linecap="round" stroke-linejoin="round"/>
<path d="M369.121 1574.19C369.121 1574.19 434.643 1349.19 744.228 1252.99C1041.29 1160.68 1331.84 1269 1458.33 1123.63C1537.98 1032.66 1529.46 924.969 1531.97 840.332" stroke="white" stroke-width="1.33333" stroke-miterlimit="10" stroke-linecap="round" stroke-linejoin="round"/>
<path d="M2202.97 468.291C2209.86 654.712 2103.87 721.999 1914.07 729.615" stroke="white" stroke-width="1.33333" stroke-miterlimit="10" stroke-linecap="round" stroke-linejoin="round"/>
<path d="M398.254 1592.26C398.254 1592.26 456.803 1367.83 778.474 1273.67C1071.74 1187.79 1362.34 1299.15 1489.25 1152.81C1576.23 1053.14 1555.81 931.76 1560.92 843.146" stroke="white" stroke-width="1.33333" stroke-miterlimit="10" stroke-linecap="round" stroke-linejoin="round"/>
<path d="M2226.81 492.071C2235.48 699.354 2104.93 760.006 1879.18 756.029" stroke="white" stroke-width="1.33333" stroke-miterlimit="10" stroke-linecap="round" stroke-linejoin="round"/>
<path d="M427.386 1610.34C427.386 1610.34 478.858 1386.29 812.72 1294.32C1102.06 1214.59 1392.81 1329.34 1520.16 1181.98C1615.33 1072.63 1579.2 935.065 1590.88 844.282" stroke="white" stroke-width="1.33333" stroke-miterlimit="10" stroke-linecap="round" stroke-linejoin="round"/>
<path d="M2250.65 515.852C2261.29 743.894 2103.85 795.276 1841.91 779.397" stroke="white" stroke-width="1.33333" stroke-miterlimit="10" stroke-linecap="round" stroke-linejoin="round"/>
<path d="M456.519 1628.41C456.519 1628.41 500.837 1404.58 846.966 1314.98C1132.27 1241.14 1423.31 1359.49 1551.08 1211.13C1655.73 1090.55 1598.26 933.129 1623.52 843.533" stroke="white" stroke-width="1.33333" stroke-miterlimit="10" stroke-linecap="round" stroke-linejoin="round"/>
<path d="M2274.48 539.632C2287.19 787.246 2102.3 827.525 1807.05 800.698C1805.01 800.518 1802.99 800.337 1801 800.208" stroke="white" stroke-width="1.33333" stroke-miterlimit="10" stroke-linecap="round" stroke-linejoin="round"/>
<path d="M485.651 1646.48C485.651 1646.48 522.687 1422.62 881.213 1335.64C1162.41 1267.42 1453.79 1389.65 1581.99 1240.31C1698.88 1105.19 1609.11 920.503 1663.99 839.634" stroke="white" stroke-width="1.33333" stroke-miterlimit="10" stroke-linecap="round" stroke-linejoin="round"/>
<path d="M514.791 1664.57C514.791 1664.57 544.492 1440.44 915.44 1356.31C1192.46 1293.48 1483.99 1419.57 1612.91 1269.48C1772.19 1084.03 1538.38 799.903 1831.58 826.552C2124.78 853.198 2312.33 813.856 2298.31 563.402" stroke="white" stroke-width="1.33333" stroke-miterlimit="10" stroke-linecap="round" stroke-linejoin="round"/>
<path d="M543.927 1682.64C543.927 1682.64 566.22 1458.01 949.682 1376.97C1222.47 1319.32 1514.47 1449.73 1643.82 1298.64C1801.7 1114.24 1564.95 825.937 1856.11 852.4C2147.27 878.863 2337.47 840.453 2322.15 587.177" stroke="white" stroke-width="1.33333" stroke-miterlimit="10" stroke-linecap="round" stroke-linejoin="round"/>
<path d="M573.062 1700.72C573.062 1700.72 587.886 1475.31 983.922 1397.63C1252.43 1344.97 1544.95 1479.9 1674.74 1327.81C1831.21 1144.45 1591.53 851.974 1880.63 878.251C2169.75 904.525 2362.6 867.047 2345.98 610.952" stroke="white" stroke-width="1.33333" stroke-miterlimit="10" stroke-linecap="round" stroke-linejoin="round"/>
<path d="M602.196 1718.79C602.196 1718.79 609.5 1492.33 1018.16 1418.3C1282.36 1370.43 1575.44 1510.06 1705.65 1356.98C1860.72 1174.67 1618.1 878.008 1905.16 904.099C2192.23 930.191 2387.73 893.645 2369.82 634.727" stroke="white" stroke-width="1.33333" stroke-miterlimit="10" stroke-linecap="round" stroke-linejoin="round"/>
<path d="M631.328 1736.86C631.328 1736.86 631.075 1509.05 1052.4 1438.96C1312.26 1395.73 1605.93 1540.23 1736.56 1386.15C1890.24 1204.88 1644.67 904.045 1929.69 929.951C2214.71 955.856 2412.87 920.242 2393.65 658.502" stroke="white" stroke-width="1.33333" stroke-miterlimit="10" stroke-linecap="round" stroke-linejoin="round"/>
<path d="M660.465 1754.94C660.465 1754.94 652.616 1525.45 1086.64 1459.62C1342.16 1420.87 1636.43 1570.41 1767.48 1415.32C1919.76 1235.11 1671.25 930.082 1954.22 955.799C2237.2 981.518 2438 946.839 2417.49 682.277" stroke="white" stroke-width="1.33333" stroke-miterlimit="10" stroke-linecap="round" stroke-linejoin="round"/>
<path d="M689.6 1773.01C689.6 1773.01 674.135 1541.5 1120.88 1480.28C1372.05 1445.87 1667.23 1600.84 1798.4 1444.49C1949.64 1265.63 1697.82 956.116 1978.75 981.649C2259.68 1007.18 2463.14 973.434 2441.32 706.052" stroke="white" stroke-width="1.33333" stroke-miterlimit="10" stroke-linecap="round" stroke-linejoin="round"/>
<path d="M718.734 1791.09C718.734 1791.09 695.637 1557.2 1155.12 1500.95C1401.95 1470.73 1697.72 1631.01 1829.31 1473.65C1979.15 1295.85 1724.39 982.153 2003.28 1007.5C2282.16 1032.85 2488.27 1000.03 2465.16 729.825" stroke="white" stroke-width="1.33333" stroke-miterlimit="10" stroke-linecap="round" stroke-linejoin="round"/>
<path d="M747.869 1809.16C747.869 1809.16 717.137 1572.51 1189.36 1521.61C1431.86 1495.47 1728.21 1661.18 1860.22 1502.82C2008.66 1326.06 1750.96 1008.19 2027.8 1033.35C2304.64 1058.51 2513.4 1026.63 2488.99 753.6" stroke="white" stroke-width="1.33333" stroke-miterlimit="10" stroke-linecap="round" stroke-linejoin="round"/>
<path d="M777.005 1827.24C777.005 1827.24 738.647 1587.43 1223.6 1542.27C1461.8 1520.1 1758.71 1691.34 1891.14 1531.99C2038.18 1356.27 1777.54 1034.22 2052.33 1059.2C2327.13 1084.18 2538.54 1053.23 2512.83 777.374" stroke="white" stroke-width="1.33333" stroke-miterlimit="10" stroke-linecap="round" stroke-linejoin="round"/>
<path d="M806.137 1845.31C806.137 1845.31 760.173 1601.91 1257.85 1562.94C1491.77 1544.62 1789.2 1721.51 1922.05 1561.16C2067.69 1386.49 1804.11 1060.26 2076.86 1085.05C2349.61 1109.84 2563.67 1079.82 2536.66 801.15" stroke="white" stroke-width="1.33333" stroke-miterlimit="10" stroke-linecap="round" stroke-linejoin="round"/>
<path d="M835.275 1863.38C835.275 1863.38 781.731 1615.95 1292.09 1583.6C1521.78 1569.04 1819.69 1751.68 1952.97 1590.33C2097.2 1416.7 1830.68 1086.3 2101.39 1110.9C2372.09 1135.5 2588.82 1106.42 2560.5 824.925" stroke="white" stroke-width="1.33333" stroke-miterlimit="10" stroke-linecap="round" stroke-linejoin="round"/>
<path d="M864.406 1881.46C864.406 1881.46 803.334 1629.52 1326.32 1604.26C1551.83 1593.37 1850.17 1781.85 1983.88 1619.49C2126.71 1446.91 1857.26 1112.33 2125.91 1136.75C2394.58 1161.17 2613.95 1133.02 2584.33 848.7" stroke="white" stroke-width="1.33333" stroke-miterlimit="10" stroke-linecap="round" stroke-linejoin="round"/>
<path d="M893.542 1899.54C893.542 1899.54 827.498 1679.54 1360.57 1624.93C1580.9 1602.35 1880.67 1812.02 2014.79 1648.66C2156.22 1477.13 1883.83 1138.37 2150.44 1162.6C2417.06 1186.83 2639.08 1159.61 2608.16 872.475" stroke="white" stroke-width="1.33333" stroke-miterlimit="10" stroke-linecap="round" stroke-linejoin="round"/>
<path d="M922.677 1917.61C922.677 1917.61 848.043 1684.56 1394.81 1645.59C1611.58 1630.14 1911.16 1842.18 2045.71 1677.83C2185.73 1507.34 1910.4 1164.4 2174.97 1188.45C2439.54 1212.5 2664.21 1186.21 2632 896.25" stroke="white" stroke-width="1.33333" stroke-miterlimit="10" stroke-linecap="round" stroke-linejoin="round"/>
<path d="M1595.09 -155.778H1595.32C1871.56 -155.778 2095.5 68.0815 2095.5 344.278C2095.5 620.449 1871.56 844.308 1595.32 844.308C1319.08 844.308 1095.13 620.449 1095.13 344.278C1095.13 337.952 1095.26 331.678 1095.47 325.404" stroke="white" stroke-width="1.33333" stroke-miterlimit="10" stroke-linecap="round" stroke-linejoin="round"/>
<path d="M1580.24 -127.609C1585.25 -127.763 1590.28 -127.841 1595.32 -127.841C1856.12 -127.841 2067.56 83.5216 2067.56 344.278C2067.56 605.008 1856.12 816.371 1595.32 816.371C1334.5 816.371 1123.08 605.008 1123.08 344.278C1123.08 337.255 1123.23 330.283 1123.54 323.338" stroke="white" stroke-width="1.33333" stroke-miterlimit="10" stroke-linecap="round" stroke-linejoin="round"/>
<path d="M1566.47 -98.9743C1576 -99.594 1585.63 -99.9038 1595.32 -99.9038C1840.7 -99.9038 2039.62 98.9618 2039.62 344.278C2039.62 589.568 1840.7 788.459 1595.32 788.459C1349.94 788.459 1151.02 589.568 1151.02 344.278C1151.02 336.402 1151.23 328.605 1151.62 320.833" stroke="white" stroke-width="1.33333" stroke-miterlimit="10" stroke-linecap="round" stroke-linejoin="round"/>
<path d="M1553.71 -69.9267C1567.4 -71.2951 1581.27 -71.9923 1595.32 -71.9923C1825.26 -71.9923 2011.67 114.376 2011.67 344.278C2011.67 574.153 1825.26 760.522 1595.32 760.522C1365.36 760.522 1178.97 574.153 1178.97 344.278C1178.97 335.37 1179.25 326.514 1179.82 317.761" stroke="white" stroke-width="1.33333" stroke-miterlimit="10" stroke-linecap="round" stroke-linejoin="round"/>
<path d="M1541.73 -40.3883C1559.24 -42.8154 1577.14 -44.0547 1595.32 -44.0547C1809.84 -44.0547 1983.73 129.817 1983.73 344.278C1983.73 558.713 1809.84 732.585 1595.32 732.585C1380.8 732.585 1206.91 558.713 1206.91 344.278C1206.91 334.079 1207.3 323.983 1208.07 313.991" stroke="white" stroke-width="1.33333" stroke-miterlimit="10" stroke-linecap="round" stroke-linejoin="round"/>
<path d="M1530.39 -10.2825C1551.47 -14.1296 1573.16 -16.1178 1595.32 -16.1178C1794.39 -16.1178 1955.78 145.231 1955.78 344.278C1955.78 543.298 1794.39 704.647 1595.32 704.647C1396.25 704.647 1234.86 543.298 1234.86 344.278C1234.86 332.478 1235.43 320.833 1236.54 309.317" stroke="white" stroke-width="1.33333" stroke-miterlimit="10" stroke-linecap="round" stroke-linejoin="round"/>
<path d="M1519.62 20.4953C1543.92 14.8149 1569.29 11.8198 1595.32 11.8198C1778.97 11.8198 1927.84 160.672 1927.84 344.278C1927.84 527.858 1778.97 676.71 1595.32 676.71C1411.67 676.71 1262.8 527.858 1262.8 344.278C1262.8 330.464 1263.65 316.831 1265.28 303.457" stroke="white" stroke-width="1.33333" stroke-miterlimit="10" stroke-linecap="round" stroke-linejoin="round"/>
<path d="M1509.24 52.0989C1536.54 44.0688 1565.41 39.7568 1595.32 39.7568C1763.53 39.7568 1899.89 176.086 1899.89 344.278C1899.89 512.444 1763.53 648.773 1595.32 648.773C1427.11 648.773 1290.75 512.444 1290.75 344.278C1290.75 327.856 1292.04 311.719 1294.57 295.995" stroke="white" stroke-width="1.33333" stroke-miterlimit="10" stroke-linecap="round" stroke-linejoin="round"/>
<path d="M1499.17 84.8644C1529.1 73.7618 1561.51 67.6941 1595.32 67.6941C1748.11 67.6941 1871.95 191.527 1871.95 344.278C1871.95 497.003 1748.11 620.836 1595.32 620.836C1442.53 620.836 1318.69 497.003 1318.69 344.278C1318.69 324.345 1320.81 304.902 1324.84 286.157" stroke="white" stroke-width="1.33333" stroke-miterlimit="10" stroke-linecap="round" stroke-linejoin="round"/>
<path d="M1487.78 120.031C1520.35 104.384 1556.81 95.6311 1595.32 95.6311C1732.67 95.6311 1844.01 206.941 1844.01 344.278C1844.01 481.588 1732.67 592.898 1595.32 592.898C1457.97 592.898 1346.61 481.588 1346.61 344.278C1346.61 319.258 1350.3 295.116 1357.17 272.369" stroke="white" stroke-width="1.33333" stroke-miterlimit="10" stroke-linecap="round" stroke-linejoin="round"/>
<path d="M1468.69 163.486C1504.54 138.338 1548.21 123.569 1595.32 123.569C1717.22 123.569 1816.06 222.382 1816.06 344.278C1816.06 466.148 1717.22 564.961 1595.32 564.961C1473.39 564.961 1374.55 466.148 1374.55 344.278C1374.55 310.17 1382.3 277.869 1396.12 249.028" stroke="white" stroke-width="1.33333" stroke-miterlimit="10" stroke-linecap="round" stroke-linejoin="round"/>
<path d="M1595.31 151.508C1701.8 151.508 1788.12 237.809 1788.12 344.265C1788.12 450.723 1701.8 537.024 1595.31 537.024C1488.83 537.024 1402.51 450.723 1402.51 344.265C1402.51 237.809 1488.83 151.508 1595.31 151.508Z" stroke="white" stroke-width="1.33333" stroke-miterlimit="10" stroke-linecap="round" stroke-linejoin="round"/>
<path d="M1595.31 179.443C1686.37 179.443 1760.18 253.237 1760.18 344.265C1760.18 435.296 1686.37 509.087 1595.31 509.087C1504.26 509.087 1430.45 435.296 1430.45 344.265C1430.45 253.237 1504.26 179.443 1595.31 179.443Z" stroke="white" stroke-width="1.33333" stroke-miterlimit="10" stroke-linecap="round" stroke-linejoin="round"/>
<path d="M1595.31 207.38C1670.94 207.38 1732.24 268.664 1732.24 344.265C1732.24 419.866 1670.94 481.152 1595.31 481.152C1519.7 481.152 1458.39 419.866 1458.39 344.265C1458.39 268.664 1519.7 207.38 1595.31 207.38Z" stroke="white" stroke-width="1.33333" stroke-miterlimit="10" stroke-linecap="round" stroke-linejoin="round"/>
<path d="M1595.31 235.315C1655.5 235.315 1704.3 284.094 1704.3 344.265C1704.3 404.436 1655.5 453.215 1595.31 453.215C1535.13 453.215 1486.34 404.436 1486.34 344.265C1486.34 284.094 1535.13 235.315 1595.31 235.315Z" stroke="white" stroke-width="1.33333" stroke-miterlimit="10" stroke-linecap="round" stroke-linejoin="round"/>
<path d="M1595.31 263.252C1640.07 263.252 1676.35 299.524 1676.35 344.265C1676.35 389.008 1640.07 425.28 1595.31 425.28C1550.56 425.28 1514.28 389.008 1514.28 344.265C1514.28 299.524 1550.56 263.252 1595.31 263.252Z" stroke="white" stroke-width="1.33333" stroke-miterlimit="10" stroke-linecap="round" stroke-linejoin="round"/>
<path d="M1648.41 344.265C1648.41 373.581 1624.64 397.343 1595.31 397.343C1565.99 397.343 1542.22 373.581 1542.22 344.265C1542.22 314.951 1565.99 291.187 1595.31 291.187C1624.64 291.187 1648.41 314.951 1648.41 344.265Z" stroke="white" stroke-width="1.33333" stroke-miterlimit="10" stroke-linecap="round" stroke-linejoin="round"/>
<path d="M1624.91 344.265C1624.91 360.609 1611.66 373.857 1595.31 373.857C1578.97 373.857 1565.72 360.609 1565.72 344.265C1565.72 327.924 1578.97 314.675 1595.31 314.675C1611.66 314.675 1624.91 327.924 1624.91 344.265Z" stroke="white" stroke-width="1.33333" stroke-miterlimit="10" stroke-linecap="round" stroke-linejoin="round"/>
<path d="M652.223 163.602C652.223 506.009 374.573 783.584 32.0798 783.584C-310.417 783.584 -588.064 506.009 -588.064 163.602C-588.064 -178.804 -310.417 -456.38 32.0798 -456.38C374.573 -456.38 652.223 -178.804 652.223 163.602Z" stroke="white" stroke-width="1.33333" stroke-miterlimit="10" stroke-linecap="round" stroke-linejoin="round"/>
<path d="M32.0804 -421.745C355.441 -421.745 617.577 -159.675 617.577 163.602C617.577 486.881 355.441 748.949 32.0804 748.949C-291.282 748.949 -553.42 486.881 -553.42 163.602C-553.42 -159.675 -291.282 -421.745 32.0804 -421.745Z" stroke="white" stroke-width="1.33333" stroke-miterlimit="10" stroke-linecap="round" stroke-linejoin="round"/>
<path d="M32.0803 -387.107C336.306 -387.107 582.933 -140.547 582.933 163.602C582.933 467.752 336.306 714.314 32.0803 714.314C-272.147 714.314 -518.773 467.752 -518.773 163.602C-518.773 -140.547 -272.147 -387.107 32.0803 -387.107Z" stroke="white" stroke-width="1.33333" stroke-miterlimit="10" stroke-linecap="round" stroke-linejoin="round"/>
<path d="M32.0802 -352.472C317.174 -352.472 548.289 -121.417 548.289 163.602C548.289 448.624 317.174 679.677 32.0802 679.677C-253.015 679.677 -484.13 448.624 -484.13 163.602C-484.13 -121.417 -253.015 -352.472 32.0802 -352.472Z" stroke="white" stroke-width="1.33333" stroke-miterlimit="10" stroke-linecap="round" stroke-linejoin="round"/>
<path d="M32.0802 -317.837C298.039 -317.837 513.642 -102.289 513.642 163.602C513.642 429.494 298.039 645.042 32.0802 645.042C-233.881 645.042 -449.483 429.494 -449.483 163.602C-449.483 -102.289 -233.881 -317.837 32.0802 -317.837Z" stroke="white" stroke-width="1.33333" stroke-miterlimit="10" stroke-linecap="round" stroke-linejoin="round"/>
<path d="M32.0797 -283.2C278.906 -283.2 478.998 -83.1595 478.998 163.602C478.998 410.364 278.906 610.404 32.0797 610.404C-214.748 610.404 -414.84 410.364 -414.84 163.602C-414.84 -83.1595 -214.748 -283.2 32.0797 -283.2Z" stroke="white" stroke-width="1.33333" stroke-miterlimit="10" stroke-linecap="round" stroke-linejoin="round"/>
<path d="M32.0804 -248.565C259.771 -248.565 444.352 -64.0319 444.352 163.602C444.352 391.237 259.771 575.77 32.0804 575.77C-195.614 575.77 -380.195 391.237 -380.195 163.602C-380.195 -64.0319 -195.614 -248.565 32.0804 -248.565Z" stroke="white" stroke-width="1.33333" stroke-miterlimit="10" stroke-linecap="round" stroke-linejoin="round"/>
<path d="M32.0804 -213.927C240.638 -213.927 409.708 -44.9017 409.708 163.603C409.708 372.107 240.638 541.135 32.0804 541.135C-176.479 541.135 -345.549 372.107 -345.549 163.603C-345.549 -44.9017 -176.479 -213.927 32.0804 -213.927Z" stroke="white" stroke-width="1.33333" stroke-miterlimit="10" stroke-linecap="round" stroke-linejoin="round"/>
<path d="M32.0801 -179.292C221.504 -179.292 375.064 -25.7717 375.064 163.603C375.064 352.979 221.504 506.5 32.0801 506.5C-157.346 506.5 -310.905 352.979 -310.905 163.603C-310.905 -25.7717 -157.346 -179.292 32.0801 -179.292Z" stroke="white" stroke-width="1.33333" stroke-miterlimit="10" stroke-linecap="round" stroke-linejoin="round"/>
<path d="M32.0797 -144.657C202.37 -144.657 340.417 -6.64427 340.417 163.602C340.417 333.849 202.37 471.862 32.0797 471.862C-138.212 471.862 -276.262 333.849 -276.262 163.602C-276.262 -6.64427 -138.212 -144.657 32.0797 -144.657Z" stroke="white" stroke-width="1.33333" stroke-miterlimit="10" stroke-linecap="round" stroke-linejoin="round"/>
<path d="M32.08 -110.02C183.237 -110.02 305.774 12.4856 305.774 163.602C305.774 314.722 183.237 437.227 32.08 437.227C-119.079 437.227 -241.615 314.722 -241.615 163.602C-241.615 12.4856 -119.079 -110.02 32.08 -110.02Z" stroke="white" stroke-width="1.33333" stroke-miterlimit="10" stroke-linecap="round" stroke-linejoin="round"/>
<path d="M32.0804 -75.3848C164.102 -75.3848 271.13 31.6133 271.13 163.603C271.13 295.592 164.102 402.59 32.0804 402.59C-99.9445 402.59 -206.971 295.592 -206.971 163.603C-206.971 31.6133 -99.9445 -75.3848 32.0804 -75.3848Z" stroke="white" stroke-width="1.33333" stroke-miterlimit="10" stroke-linecap="round" stroke-linejoin="round"/>
<path d="M32.08 -40.7499C144.969 -40.7499 236.484 50.7407 236.484 163.603C236.484 276.462 144.969 367.955 32.08 367.955C-80.8099 367.955 -172.326 276.462 -172.326 163.603C-172.326 50.7407 -80.8099 -40.7499 32.08 -40.7499Z" stroke="white" stroke-width="1.33333" stroke-miterlimit="10" stroke-linecap="round" stroke-linejoin="round"/>
<path d="M32.0803 -6.11487C125.835 -6.11487 201.839 69.8708 201.839 163.603C201.839 257.334 125.835 333.317 32.0803 333.317C-61.6767 333.317 -137.68 257.334 -137.68 163.603C-137.68 69.8708 -61.6767 -6.11487 32.0803 -6.11487Z" stroke="white" stroke-width="1.33333" stroke-miterlimit="10" stroke-linecap="round" stroke-linejoin="round"/>
<path d="M32.0797 28.5228C106.7 28.5228 167.193 89.001 167.193 163.603C167.193 238.204 106.7 298.683 32.0797 298.683C-42.5433 298.683 -103.037 238.204 -103.037 163.603C-103.037 89.001 -42.5433 28.5228 32.0797 28.5228Z" stroke="white" stroke-width="1.33333" stroke-miterlimit="10" stroke-linecap="round" stroke-linejoin="round"/>
<path d="M32.0803 63.16C87.5681 63.16 132.549 108.128 132.549 163.602C132.549 219.077 87.5681 264.047 32.0803 264.047C-23.4089 264.047 -68.3906 219.077 -68.3906 163.602C-68.3906 108.128 -23.4089 63.16 32.0803 63.16Z" stroke="white" stroke-width="1.33333" stroke-miterlimit="10" stroke-linecap="round" stroke-linejoin="round"/>
<path d="M97.9044 163.603C97.9044 199.947 68.4326 229.413 32.0797 229.413C-4.27645 229.413 -33.7461 199.947 -33.7461 163.603C-33.7461 127.258 -4.27645 97.7925 32.0797 97.7925C68.4326 97.7925 97.9044 127.258 97.9044 163.603Z" stroke="white" stroke-width="1.33333" stroke-miterlimit="10" stroke-linecap="round" stroke-linejoin="round"/>
<path d="M71.2956 163.602C71.2956 185.258 53.7376 202.81 32.0797 202.81C10.4194 202.81 -7.13867 185.258 -7.13867 163.602C-7.13867 141.95 10.4194 124.397 32.0797 124.397C53.7376 124.397 71.2956 141.95 71.2956 163.602Z" stroke="white" stroke-width="1.33333" stroke-miterlimit="10" stroke-linecap="round" stroke-linejoin="round"/>
<path d="M446.807 1139.25C434.23 1104.24 427.386 1066.46 427.386 1027.11C427.386 843.714 576.096 695.042 759.542 695.042C931.471 695.042 1072.87 825.614 1089.97 992.979" stroke="white" stroke-width="1.33333" stroke-miterlimit="10" stroke-linecap="round" stroke-linejoin="round"/>
<path d="M472.299 1124.58C461.916 1093.99 456.286 1061.2 456.286 1027.11C456.286 859.671 592.057 723.909 759.543 723.909C917.137 723.909 1046.68 844.102 1061.4 997.808" stroke="white" stroke-width="1.33333" stroke-miterlimit="10" stroke-linecap="round" stroke-linejoin="round"/>
<path d="M498.358 1111.31C489.783 1084.8 485.16 1056.5 485.16 1027.11C485.16 875.628 608.018 752.802 759.543 752.802C902.493 752.802 1019.93 862.124 1032.74 1001.68" stroke="white" stroke-width="1.33333" stroke-miterlimit="10" stroke-linecap="round" stroke-linejoin="round"/>
<path d="M524.83 1099.23C517.831 1076.43 514.061 1052.21 514.061 1027.11C514.061 891.559 623.953 781.669 759.543 781.669C887.617 781.669 992.809 879.733 1004.04 1004.86" stroke="white" stroke-width="1.33333" stroke-miterlimit="10" stroke-linecap="round" stroke-linejoin="round"/>
<path d="M551.664 1088.1C545.982 1068.76 542.935 1048.29 542.935 1027.11C542.935 907.516 639.914 810.561 759.543 810.561C872.612 810.561 965.433 897.162 975.273 1007.65" stroke="white" stroke-width="1.33333" stroke-miterlimit="10" stroke-linecap="round" stroke-linejoin="round"/>
<path d="M578.782 1077.85C574.263 1061.71 571.835 1044.7 571.835 1027.11C571.835 923.472 655.875 839.454 759.543 839.454C857.529 839.454 938.005 914.513 946.502 1010.25" stroke="white" stroke-width="1.33333" stroke-miterlimit="10" stroke-linecap="round" stroke-linejoin="round"/>
<path d="M606.184 1068.5C602.594 1055.31 600.709 1041.42 600.709 1027.11C600.709 939.403 671.81 868.32 759.543 868.32C842.447 868.32 910.5 931.812 917.731 1012.81" stroke="white" stroke-width="1.33333" stroke-miterlimit="10" stroke-linecap="round" stroke-linejoin="round"/>
<path d="M633.819 1060.03C631.082 1049.53 629.609 1038.5 629.609 1027.11C629.609 955.36 687.771 897.213 759.543 897.213C827.39 897.213 883.098 949.163 888.961 1015.47" stroke="white" stroke-width="1.33333" stroke-miterlimit="10" stroke-linecap="round" stroke-linejoin="round"/>
<path d="M-360.172 901.138C-114.818 1142.94 89.599 1009.99 204.787 1350.59C206.956 1357.02 209.151 1363.37 211.347 1369.62" stroke="white" stroke-width="1.33333" stroke-miterlimit="10" stroke-linecap="round" stroke-linejoin="round"/>
<path d="M-330.032 881.541C-86.1766 1121.82 116.95 989.726 231.466 1328.2C232.472 1331.14 233.455 1334.06 234.462 1336.98" stroke="white" stroke-width="1.33333" stroke-miterlimit="10" stroke-linecap="round" stroke-linejoin="round"/>
<path d="M-299.867 861.917C-57.5358 1100.73 144.326 969.431 258.118 1305.81C258.17 1305.99 258.247 1306.15 258.299 1306.33" stroke="white" stroke-width="1.33333" stroke-miterlimit="10" stroke-linecap="round" stroke-linejoin="round"/>
<path d="M-269.728 842.294C-30.3149 1078.21 169.351 950.66 282.782 1277.59" stroke="white" stroke-width="1.33333" stroke-miterlimit="10" stroke-linecap="round" stroke-linejoin="round"/>
<path d="M-239.562 822.697C-2.78332 1056.03 194.867 931.528 307.86 1250.74" stroke="white" stroke-width="1.33333" stroke-miterlimit="10" stroke-linecap="round" stroke-linejoin="round"/>
<path d="M-196.069 815.88C32.5744 1029.75 223.252 917.947 333.532 1225.59" stroke="white" stroke-width="1.33333" stroke-miterlimit="10" stroke-linecap="round" stroke-linejoin="round"/>
<path d="M-119.286 835.994C86.8367 995.071 257.808 918.979 359.824 1202.15" stroke="white" stroke-width="1.33333" stroke-miterlimit="10" stroke-linecap="round" stroke-linejoin="round"/>
<path d="M-46.3008 846.503C139.264 965.223 292.597 918.463 386.709 1180.43" stroke="white" stroke-width="1.33333" stroke-miterlimit="10" stroke-linecap="round" stroke-linejoin="round"/>
<path d="M24.0518 850.246C190.53 939.325 327.721 917.223 414.215 1160.32" stroke="white" stroke-width="1.33333" stroke-miterlimit="10" stroke-linecap="round" stroke-linejoin="round"/>
<path d="M89.4443 847.923C239.393 917.069 362.742 914.28 442.288 1141.99" stroke="white" stroke-width="1.33333" stroke-miterlimit="10" stroke-linecap="round" stroke-linejoin="round"/>
<path d="M148.407 840.59C260.391 887.117 356.001 903.332 427.386 1026.75" stroke="white" stroke-width="1.33333" stroke-miterlimit="10" stroke-linecap="round" stroke-linejoin="round"/>
<path d="M201.068 829.694C291.073 864.887 369.535 886.266 432.113 971.007" stroke="white" stroke-width="1.33333" stroke-miterlimit="10" stroke-linecap="round" stroke-linejoin="round"/>
<path d="M248.098 816.19C322.013 844.359 387.613 866.539 442.262 928.507" stroke="white" stroke-width="1.33333" stroke-miterlimit="10" stroke-linecap="round" stroke-linejoin="round"/>
<path d="M290.428 800.827C352.231 824.22 407.862 845.392 455.77 892.617" stroke="white" stroke-width="1.33333" stroke-miterlimit="10" stroke-linecap="round" stroke-linejoin="round"/>
<path d="M328.78 783.941C381.518 803.977 429.582 823.497 471.912 860.936" stroke="white" stroke-width="1.33333" stroke-miterlimit="10" stroke-linecap="round" stroke-linejoin="round"/>
<path d="M490.506 832.327C452.464 801.369 410.005 783.476 363.801 765.815" stroke="white" stroke-width="1.33333" stroke-miterlimit="10" stroke-linecap="round" stroke-linejoin="round"/>
<path d="M511.606 806.12C476.534 779.267 437.794 762.691 395.98 746.605" stroke="white" stroke-width="1.33333" stroke-miterlimit="10" stroke-linecap="round" stroke-linejoin="round"/>
<path d="M535.29 782.159C501.896 757.475 465.197 741.699 425.733 726.465" stroke="white" stroke-width="1.33333" stroke-miterlimit="10" stroke-linecap="round" stroke-linejoin="round"/>
<path d="M561.762 760.29C528.627 736.019 492.263 720.475 453.161 705.422" stroke="white" stroke-width="1.33333" stroke-miterlimit="10" stroke-linecap="round" stroke-linejoin="round"/>
<path d="M591.282 740.744C557.062 715.182 519.329 699.251 478.626 683.656" stroke="white" stroke-width="1.33333" stroke-miterlimit="10" stroke-linecap="round" stroke-linejoin="round"/>
<path d="M624.211 723.754H624.185C587.485 694.913 546.602 678.105 502.231 661.167" stroke="white" stroke-width="1.33333" stroke-miterlimit="10" stroke-linecap="round" stroke-linejoin="round"/>
<path d="M660.678 710.018H660.653C620.208 675.29 574.366 657.087 524.133 638.032" stroke="white" stroke-width="1.33333" stroke-miterlimit="10" stroke-linecap="round" stroke-linejoin="round"/>
<path d="M700.555 700.284H700.529C655.306 656.106 602.775 636.38 544.433 614.304" stroke="white" stroke-width="1.33333" stroke-miterlimit="10" stroke-linecap="round" stroke-linejoin="round"/>
<path d="M743.324 695.43H743.298C692.703 636.947 631.856 616.111 563.234 590.032" stroke="white" stroke-width="1.33333" stroke-miterlimit="10" stroke-linecap="round" stroke-linejoin="round"/>
<path d="M787.901 696.256H787.875C731.831 617.118 661.428 596.281 580.564 565.09" stroke="white" stroke-width="1.33333" stroke-miterlimit="10" stroke-linecap="round" stroke-linejoin="round"/>
<path d="M596.499 539.58C691.128 577.071 771.991 595.842 832.994 703.202" stroke="white" stroke-width="1.33333" stroke-miterlimit="10" stroke-linecap="round" stroke-linejoin="round"/>
<path d="M611.634 513.554C721.061 558.636 812.824 572.501 877.726 716.706" stroke="white" stroke-width="1.33333" stroke-miterlimit="10" stroke-linecap="round" stroke-linejoin="round"/>
<path d="M626.717 487.269C751.382 541.181 854.043 546.784 921.451 737.104" stroke="white" stroke-width="1.33333" stroke-miterlimit="10" stroke-linecap="round" stroke-linejoin="round"/>
<path d="M642.6 461.036C774.135 521.016 882.09 519.234 951.202 723.574C956.368 738.807 961.533 753.473 966.776 767.623" stroke="white" stroke-width="1.33333" stroke-miterlimit="10" stroke-linecap="round" stroke-linejoin="round"/>
<path d="M660.291 435.319C795.958 500.411 907.271 492.588 977.856 701.187C995.444 753.189 1013.37 798.632 1032.79 838.24C1032.79 838.266 1032.81 838.292 1032.81 838.317" stroke="white" stroke-width="1.33333" stroke-miterlimit="10" stroke-linecap="round" stroke-linejoin="round"/>
<path d="M1064.69 895.716V895.742C1086.15 929.695 1109.78 958.071 1136.79 981.696" stroke="white" stroke-width="1.33333" stroke-miterlimit="10" stroke-linecap="round" stroke-linejoin="round"/>
<path d="M680.953 410.842C819.384 479.936 933.021 467.491 1004.51 678.802C1051.38 817.403 1100.56 908.935 1174.76 967.624" stroke="white" stroke-width="1.33333" stroke-miterlimit="10" stroke-linecap="round" stroke-linejoin="round"/>
<path d="M705.953 388.378C845.211 459.332 959.519 444.588 1031.16 656.39C1079.33 798.813 1129.92 891.171 1208.02 949.085" stroke="white" stroke-width="1.33333" stroke-miterlimit="10" stroke-linecap="round" stroke-linejoin="round"/>
<path d="M736.506 368.781C874.059 438.34 986.973 424.526 1057.82 634.004C1106.11 776.737 1156.83 868.811 1235.66 926.157" stroke="white" stroke-width="1.33333" stroke-miterlimit="10" stroke-linecap="round" stroke-linejoin="round"/>
<path d="M774.238 352.695C906.807 416.987 1015.64 408.131 1084.47 611.618C1131.86 751.692 1181.6 842.604 1258.36 899.614" stroke="white" stroke-width="1.33333" stroke-miterlimit="10" stroke-linecap="round" stroke-linejoin="round"/>
<path d="M821.32 340.663C944.72 395.737 1045.99 396.615 1111.12 589.232C1156.96 724.736 1205.05 813.866 1278.01 870.696" stroke="white" stroke-width="1.33333" stroke-miterlimit="10" stroke-linecap="round" stroke-linejoin="round"/>
<path d="M881.807 333.485C989.969 376.449 1078.81 392.406 1137.8 566.82C1181.42 695.817 1227.08 782.443 1294.65 839.066" stroke="white" stroke-width="1.33333" stroke-miterlimit="10" stroke-linecap="round" stroke-linejoin="round"/>
<path d="M1212.62 666.227C1240.1 724.116 1270.71 769.275 1308.23 804.08" stroke="white" stroke-width="1.33333" stroke-miterlimit="10" stroke-linecap="round" stroke-linejoin="round"/>
<path d="M958.279 331.239C1012.41 351.972 1060.6 373.067 1101.26 422.719" stroke="white" stroke-width="1.33333" stroke-miterlimit="10" stroke-linecap="round" stroke-linejoin="round"/>
<path d="M1318.77 764.808C1315.67 761.529 1312.62 758.198 1309.62 754.764" stroke="white" stroke-width="1.33333" stroke-miterlimit="10" stroke-linecap="round" stroke-linejoin="round"/>
<path d="M1095.7 368.342C1075.53 351.663 1053.89 339.372 1030.93 328.838" stroke="white" stroke-width="1.33333" stroke-miterlimit="10" stroke-linecap="round" stroke-linejoin="round"/>
<path d="M1095.42 327.34C1094.46 326.746 1093.51 326.152 1092.55 325.584" stroke="white" stroke-width="1.33333" stroke-miterlimit="10" stroke-linecap="round" stroke-linejoin="round"/>
</g>
</g>
<defs>
<clipPath id="clip0_1889_1447">
<rect width="1916" height="901" fill="white"/>
</clipPath>
<clipPath id="clip1_1889_1447">
<rect width="1924" height="901" fill="white" transform="translate(-8)"/>
</clipPath>
</defs>
</svg>
