<svg width="1503" height="1040" viewBox="0 0 1503 1040" fill="none" xmlns="http://www.w3.org/2000/svg">
<path d="M802 938.027L900.869 915L831.376 953.384L802 938.027Z" fill="#98C9A3"/>
<path d="M900.869 915L878.758 982.275L843.064 959.547L900.869 915Z" fill="#77BFA3"/>
<path d="M831.377 953.384L835.484 982.275L843.065 959.547L900.87 915L831.377 953.384Z" fill="#BFD8BD"/>
<path d="M835.482 982.275L856.952 968.391L843.063 959.547L835.482 982.275Z" fill="#052D23"/>
<path d="M2 2C16.1586 23.8815 27.2019 47.3683 40.6457 69.63C57.2671 97.1537 79.8928 122.745 101.375 146.576C149.667 200.15 212.202 203.862 280.111 208.686C344.569 213.265 402.13 169.233 464.023 156.583C526.7 143.773 595.291 143.073 652.766 174.181C677.388 187.507 696.736 205.204 713.841 226.973C738.059 257.797 770.922 279.577 805.624 297.019C833.685 311.123 861.617 325.911 892.922 331.179C950.623 340.888 1012.95 335.214 1070.62 328.073C1149.41 318.318 1214.79 260.309 1294.22 250.092C1367.56 240.658 1474.45 294.772 1493.66 371.205C1500.86 399.878 1505.4 439.846 1494.35 468.164C1477.3 511.84 1412.07 507.981 1373.92 509.57C1353.31 510.429 1333 519.509 1313.19 524.753C1303.65 527.279 1302.73 529.219 1296.98 536.829C1272.46 569.278 1257.55 606.498 1236.59 641.035C1216.26 674.554 1185.8 704.103 1146.53 713.15C1028.1 740.437 895.679 711.051 779.055 689.342C692.596 673.248 612.135 663.913 526.133 687.272C473.675 701.519 422.345 723.446 372.93 745.93C324.213 768.097 260.136 804.215 231.114 850.826C216.921 873.62 198.748 907.207 207.305 935.018C216.711 965.587 245.744 982.968 272.865 995.747C327.14 1021.32 389.556 1031.52 448.841 1036.46C581.449 1047.51 701.326 1009.7 828.052 977.115" stroke="black" stroke-width="3" stroke-linecap="round" stroke-dasharray="6 6"/>
</svg>
