<svg width="33" height="32" viewBox="0 0 33 32" fill="none" xmlns="http://www.w3.org/2000/svg">
<path d="M29.8333 18.0002H10.7867C10.7533 18.0002 10.7267 18.0135 10.6933 18.0202C10.6667 18.0268 10.6333 18.0202 10.6067 18.0268C10.5933 18.0335 10.5867 18.0401 10.5733 18.0468C10.5267 18.0601 10.4933 18.0868 10.4533 18.1068C10.42 18.1268 10.38 18.1468 10.3533 18.1735C10.32 18.2002 10.3 18.2335 10.2733 18.2668C10.2467 18.3001 10.22 18.3335 10.2 18.3735C10.18 18.4068 10.1733 18.4468 10.16 18.4868C10.1467 18.5335 10.1333 18.5735 10.1333 18.6202C10.1333 18.6335 10.1267 18.6468 10.1267 18.6601C10.1267 18.6935 10.14 18.7202 10.1467 18.7468C10.1533 18.7802 10.1467 18.8068 10.1533 18.8402L10.52 20.1268L10.94 23.0801L9.28667 21.7535L9.80667 20.1935C9.84 20.0935 9.84667 19.9801 9.83333 19.8735L9.61333 18.5401C9.60667 18.5135 9.59333 18.4935 9.58667 18.4668C9.57333 18.4268 9.56 18.3802 9.54 18.3468C9.52 18.3068 9.49333 18.2735 9.46667 18.2335C9.44 18.2068 9.42 18.1735 9.38667 18.1535C9.34667 18.1201 9.31333 18.0935 9.26667 18.0735C9.23333 18.0535 9.20667 18.0402 9.16667 18.0268C9.12 18.0135 9.07333 18.0002 9.02 18.0002C8.99333 18.0002 8.97333 17.9868 8.94667 17.9868H3.16667C2.8 17.9868 2.5 18.2868 2.5 18.6535V29.3201C2.5 29.6868 2.8 29.9868 3.16667 29.9868H15.8333C15.8667 29.9868 15.9 29.9735 15.9333 29.9668C15.98 29.9601 16.02 29.9535 16.0667 29.9401C16.1067 29.9268 16.1467 29.9002 16.18 29.8735C16.2133 29.8535 16.2467 29.8335 16.28 29.8068C16.3133 29.7735 16.34 29.7335 16.3733 29.6935C16.3933 29.6668 16.4133 29.6468 16.4333 29.6201L17.7667 26.9535C17.8333 26.8201 17.8533 26.6668 17.8267 26.5268L17.5933 25.3535L19.0333 26.7868L17.9133 29.0268C17.9133 29.0335 17.9133 29.0401 17.9067 29.0468C17.8867 29.0868 17.88 29.1335 17.8733 29.1735C17.86 29.2201 17.8467 29.2601 17.8467 29.3068C17.8467 29.3135 17.84 29.3202 17.84 29.3268C17.84 29.3602 17.8533 29.3868 17.86 29.4201C17.8667 29.4668 17.8733 29.5135 17.8867 29.5601C17.9 29.6001 17.9267 29.6335 17.9467 29.6735C17.9667 29.7068 17.9867 29.7468 18.02 29.7801C18.0533 29.8135 18.0933 29.8401 18.1333 29.8668C18.16 29.8868 18.18 29.9135 18.2067 29.9268C18.2133 29.9268 18.22 29.9268 18.2267 29.9335C18.3133 29.9735 18.4 30.0001 18.5 30.0001H18.5067H29.84C30.2067 30.0001 30.5067 29.7001 30.5067 29.3335V24.1468C30.5067 24.1335 30.5 24.1201 30.5 24.1135C30.5 24.1001 30.5067 24.0868 30.5067 24.0735C30.5 24.0402 30.4867 24.0135 30.48 23.9868C30.4667 23.9401 30.46 23.8935 30.44 23.8535C30.4267 23.8201 30.4 23.7935 30.38 23.7668C30.3467 23.7268 30.32 23.6868 30.28 23.6535C30.2533 23.6335 30.2267 23.6202 30.2 23.6002C30.1533 23.5735 30.1133 23.5468 30.06 23.5268C30.0267 23.5135 29.9867 23.5135 29.9467 23.5068C29.9133 23.5001 29.88 23.4868 29.8467 23.4868C29.8333 23.4868 29.82 23.4935 29.8067 23.4935C29.7933 23.4935 29.78 23.4868 29.7667 23.4868L26.9867 23.7935L27.5 23.2801L29.9667 22.7868C29.9867 22.7801 30.0067 22.7668 30.0267 22.7601C30.0733 22.7468 30.1133 22.7268 30.1533 22.7068C30.1933 22.6868 30.22 22.6668 30.2533 22.6401C30.2867 22.6135 30.3133 22.5801 30.3467 22.5468C30.3733 22.5135 30.3933 22.4801 30.4133 22.4468C30.4333 22.4068 30.4467 22.3735 30.46 22.3335C30.4733 22.2935 30.48 22.2468 30.4867 22.2068C30.4867 22.1868 30.5 22.1668 30.5 22.1401V18.6668C30.5 18.3002 30.2 18.0002 29.8333 18.0002ZM27.0333 22.0135C26.9067 22.0402 26.7867 22.1002 26.6933 22.1935L24.6933 24.1935C24.4933 24.3935 24.44 24.7002 24.5667 24.9535C24.68 25.1868 24.9133 25.3335 25.1667 25.3335C25.1933 25.3335 25.2133 25.3335 25.24 25.3268L29.1667 24.8935V28.6668H19.58L20.4333 26.9668C20.56 26.7135 20.5133 26.4001 20.3067 26.2001L16.9733 22.8668C16.7667 22.6601 16.4467 22.6135 16.1867 22.7535C15.9267 22.8935 15.7867 23.1868 15.8467 23.4735L16.4667 26.5801L15.42 28.6668H3.83333V19.3335H8.38L8.48 19.9468L7.86667 21.7868C7.78 22.0535 7.86667 22.3468 8.08 22.5201L11.4133 25.1868C11.54 25.2868 11.6867 25.3335 11.8333 25.3335C11.9467 25.3335 12.06 25.3068 12.1667 25.2468C12.4067 25.1135 12.5333 24.8468 12.4933 24.5735L11.8267 19.9068C11.82 19.8802 11.8133 19.8468 11.8067 19.8201L11.6733 19.3335H29.1667V21.5868L27.0333 22.0135Z" fill="#052D23"/>
<path d="M29.8333 11.3333H27.6667L25.14 2.48667C25.06 2.19333 24.8 2 24.5 2C24.4933 2 24.4933 2 24.4867 2C24.1867 2.00667 23.9267 2.22 23.8533 2.51333L20.9867 14.5533L17.78 7.07333C17.6733 6.82667 17.4267 6.67333 17.1533 6.66667C16.88 6.67333 16.64 6.84 16.54 7.09333L13.9 13.9733L11.1333 5.13333C11.0467 4.86667 10.8067 4.68 10.52 4.66667C10.22 4.64 9.98 4.82667 9.87333 5.08667L7.38 11.3333H6.38C6.1 10.56 5.36667 10 4.5 10C3.4 10 2.5 10.9 2.5 12C2.5 13.1 3.4 14 4.5 14C5.36667 14 6.1 13.44 6.38 12.6667H7.83333C8.10667 12.6667 8.35333 12.5 8.45333 12.2467L10.4267 7.32L13.2 16.2C13.2867 16.4733 13.5333 16.66 13.8133 16.6667C14.0933 16.6933 14.3533 16.5067 14.46 16.24L17.2067 9.10667L20.56 16.9333C20.5667 16.9533 20.58 16.9667 20.5933 16.9867C20.6067 17.0067 20.62 17.0333 20.6333 17.0533C20.6667 17.1 20.7067 17.1467 20.7533 17.18L20.7933 17.22C20.86 17.2667 20.9267 17.3 21.0067 17.32C21.0133 17.32 21.0133 17.3267 21.02 17.3267C21.06 17.3267 21.1133 17.3333 21.1667 17.3333C21.2533 17.3333 21.3333 17.3133 21.4067 17.28C21.4133 17.28 21.42 17.28 21.4267 17.2733C21.4467 17.2667 21.4533 17.2533 21.4733 17.24C21.5267 17.2133 21.5733 17.18 21.6133 17.1467C21.6333 17.1267 21.6533 17.1067 21.6733 17.08C21.7067 17.04 21.7333 17 21.7533 16.9533C21.7667 16.9267 21.78 16.8933 21.7933 16.86C21.8 16.84 21.8133 16.8267 21.8133 16.8133L24.56 5.29333L26.5267 12.18C26.6067 12.4667 26.8667 12.6667 27.1667 12.6667H29.8333C30.2 12.6667 30.5 12.3667 30.5 12C30.5 11.6333 30.2 11.3333 29.8333 11.3333ZM4.5 12.6667C4.13333 12.6667 3.83333 12.3667 3.83333 12C3.83333 11.6333 4.13333 11.3333 4.5 11.3333C4.86667 11.3333 5.16667 11.6333 5.16667 12C5.16667 12.3667 4.86667 12.6667 4.5 12.6667Z" fill="#052D23"/>
</svg>
