<svg width="33" height="28" viewBox="0 0 33 28" fill="none" xmlns="http://www.w3.org/2000/svg">
<path d="M29.0962 13.4899V5.37173C29.0962 4.15186 28.1037 3.15936 26.8838 3.15936H25.8793V2.00754C25.8793 0.979981 25.0434 0.144043 24.0158 0.144043C22.9882 0.144043 22.1523 0.979981 22.1523 2.00754V3.15929H19.7342V2.00754C19.7342 0.979981 18.8983 0.144043 17.8708 0.144043C16.8432 0.144043 16.0072 0.979981 16.0072 2.00754V3.15929H13.5892V2.00754C13.5892 0.979981 12.7532 0.144043 11.7257 0.144043C10.6981 0.144043 9.86219 0.979981 9.86219 2.00754V3.15929H7.44413V2.00754C7.44413 0.979981 6.60819 0.144043 5.58063 0.144043C4.55306 0.144043 3.71694 0.979981 3.71694 2.00754V3.15929H2.71237C1.4925 3.15929 0.5 4.15173 0.5 5.37173V5.60261C0.5 5.86104 0.709562 6.07061 0.968 6.07061C1.22644 6.07061 1.436 5.86104 1.436 5.60261V5.37173C1.436 4.66798 2.00862 4.09536 2.71237 4.09536H3.71681C3.71681 4.09536 3.71681 5.24704 3.71681 5.24711C3.71681 6.27467 4.55275 7.11061 5.58031 7.11061C6.60788 7.11061 7.44381 6.27467 7.44381 5.24704V4.09536H9.86187C9.86187 4.09536 9.86187 5.24704 9.86187 5.24711C9.86187 6.27467 10.6978 7.11061 11.7254 7.11061C12.7529 7.11061 13.5889 6.27467 13.5889 5.24704V4.09536H16.0069C16.0069 4.09536 16.0069 5.24704 16.0069 5.24711C16.0069 6.27467 16.8429 7.11061 17.8704 7.11061C18.898 7.11061 19.7339 6.27467 19.7339 5.24704V4.09536H22.152C22.152 4.09536 22.152 5.24704 22.152 5.24711C22.152 6.27467 22.9879 7.11061 24.0155 7.11061C25.0431 7.11061 25.879 6.27467 25.879 5.24704V4.09536H26.8834C27.5872 4.09536 28.1599 4.66798 28.1599 5.37173V8.67486H1.436V7.47461C1.436 7.21617 1.22644 7.00661 0.968 7.00661C0.709562 7.00661 0.5 7.2161 0.5 7.47461V23.626C0.5 24.8459 1.4925 25.8384 2.71237 25.8384H19.3558C20.7522 27.0922 22.5968 27.8562 24.6168 27.8562C26.3035 27.8562 27.9126 27.3305 29.2702 26.3362C29.4788 26.1834 29.5239 25.8905 29.3712 25.682C29.2184 25.4735 28.9255 25.4284 28.7171 25.581C27.521 26.4571 26.1032 26.9201 24.6168 26.9201C20.7861 26.9201 17.6696 23.8036 17.6696 19.973C17.6696 16.1424 20.7861 13.0259 24.6168 13.0259C25.3099 13.0259 26.0002 13.1295 26.6628 13.3334C26.6759 13.3374 26.6888 13.3416 26.7019 13.3457C29.5169 14.2334 31.5639 16.8685 31.5639 19.973C31.5639 21.5747 31.0056 23.1377 29.9919 24.3742C29.8281 24.574 29.8572 24.869 30.0571 25.0328C30.257 25.1967 30.5519 25.1675 30.7157 24.9677C31.8663 23.5644 32.5 21.7905 32.5 19.973C32.5 17.2889 31.1512 14.9142 29.0962 13.4899ZM6.50781 5.24704C6.50781 5.75848 6.09175 6.17454 5.58031 6.17454C5.06888 6.17454 4.65281 5.75854 4.65281 5.24704V2.00754C4.65281 1.49611 5.06881 1.08004 5.58031 1.08004C6.09175 1.08004 6.50781 1.49604 6.50781 2.00754V5.24704ZM12.6529 5.24704C12.6529 5.75848 12.2369 6.17454 11.7254 6.17454C11.214 6.17454 10.7979 5.75854 10.7979 5.24704V2.00754C10.7979 1.49611 11.214 1.08004 11.7254 1.08004C12.2369 1.08004 12.6529 1.49604 12.6529 2.00754V5.24704ZM18.7981 5.24704C18.7981 5.75848 18.3821 6.17454 17.8706 6.17454C17.3592 6.17454 16.9431 5.75854 16.9431 5.24704V2.00754C16.9431 1.49611 17.3592 1.08004 17.8706 1.08004C18.3821 1.08004 18.7981 1.49604 18.7981 2.00754V5.24704ZM24.9433 5.24704C24.9433 5.75848 24.5272 6.17454 24.0158 6.17454C23.5043 6.17454 23.0882 5.75854 23.0882 5.24704V2.00754C23.0882 1.49611 23.5043 1.08004 24.0158 1.08004C24.5272 1.08004 24.9433 1.49604 24.9433 2.00754V5.24704ZM12.5001 9.61086H17.0961V14.084H12.5001V9.61086ZM6.032 24.9024H2.71237C2.00862 24.9024 1.436 24.3297 1.436 23.6259V20.4292H6.03194L6.032 24.9024ZM6.032 19.4932H1.436V15.02H6.03194L6.032 19.4932ZM6.032 14.084H1.436V9.61086H6.03194L6.032 14.084ZM6.968 15.02H11.5639V19.4932H6.968V15.02ZM11.5641 24.9024H6.96812V20.4292H11.5641V24.9024ZM11.5641 14.084H6.96812V9.61086H11.5641V14.084ZM12.5 15.02H17.096V17.6088C16.9069 18.2093 16.7881 18.8407 16.7487 19.4932H12.5V15.02ZM18.4628 24.9024H12.5001V20.4292H16.7468C16.8396 22.0812 17.4351 23.6274 18.4628 24.9024ZM18.0321 15.644V15.02H18.489C18.3269 15.2202 18.1744 15.4285 18.0321 15.644ZM22.6281 12.3442C21.4061 12.6629 20.299 13.2685 19.3825 14.084H18.0321V9.61086H22.6281V12.3442ZM28.1601 12.9295C27.7194 12.7074 27.2596 12.5288 26.7869 12.3937C26.7769 12.3908 26.7668 12.3879 26.7568 12.385C26.0616 12.1887 25.3393 12.0897 24.6169 12.0897C24.2599 12.0898 23.9086 12.114 23.5641 12.1602V9.61073H28.1601V12.9295Z" fill="#052D23"/>
</svg>
