<svg width="32" height="32" viewBox="0 0 32 32" fill="none" xmlns="http://www.w3.org/2000/svg">
<g clip-path="url(#clip0_2089_3723)">
<path d="M31 28.5H30.5V13C30.5 12.8674 30.4473 12.7402 30.3536 12.6464C30.2598 12.5527 30.1326 12.5 30 12.5H23.205L16.5 5.795V4H19C19.1326 4 19.2598 3.94732 19.3536 3.85355C19.4473 3.75979 19.5 3.63261 19.5 3.5V1C19.5 0.867392 19.4473 0.740215 19.3536 0.646447C19.2598 0.552678 19.1326 0.5 19 0.5H16C15.8674 0.5 15.7402 0.552678 15.6464 0.646447C15.5527 0.740215 15.5 0.867392 15.5 1V5.795L8.795 12.5H2C1.86739 12.5 1.74021 12.5527 1.64645 12.6464C1.55268 12.7402 1.5 12.8674 1.5 13V28.5H1C0.867392 28.5 0.740215 28.5527 0.646447 28.6464C0.552678 28.7402 0.5 28.8674 0.5 29V31C0.5 31.1326 0.552678 31.2598 0.646447 31.3536C0.740215 31.4473 0.867392 31.5 1 31.5H31C31.1326 31.5 31.2598 31.4473 31.3536 31.3536C31.4473 31.2598 31.5 31.1326 31.5 31V29C31.5 28.8674 31.4473 28.7402 31.3536 28.6464C31.2598 28.5527 31.1326 28.5 31 28.5ZM16.5 1.5H18.5V3H16.5V1.5ZM29.5 28.5H23.5V13.5H29.5V28.5ZM12.5 23.5V22.5H19.5V23.5H12.5ZM15.5 24.5V28.5H13.5V24.5H15.5ZM16.5 24.5H18.5V28.5H16.5V24.5ZM19.5 24.5H20C20.1326 24.5 20.2598 24.4473 20.3536 24.3536C20.4473 24.2598 20.5 24.1326 20.5 24V22C20.5 21.8674 20.4473 21.7402 20.3536 21.6464C20.2598 21.5527 20.1326 21.5 20 21.5H12C11.8674 21.5 11.7402 21.5527 11.6464 21.6464C11.5527 21.7402 11.5 21.8674 11.5 22V24C11.5 24.1326 11.5527 24.2598 11.6464 24.3536C11.7402 24.4473 11.8674 24.5 12 24.5H12.5V28.5H9.5V20.5H22.5V28.5H19.5V24.5ZM9.5 18.5H22.5V19.5H9.5V18.5ZM22.5 17.5H9.5V13.205L16 6.705L22.5 13.205V17.5ZM2.5 13.5H8.5V28.5H2.5V13.5ZM30.5 30.5H1.5V29.5H30.5V30.5Z" fill="#052D23"/>
<path d="M5.5 14.5C4.96957 14.5 4.46086 14.7107 4.08579 15.0858C3.71071 15.4609 3.5 15.9696 3.5 16.5V20C3.5 20.1326 3.55268 20.2598 3.64645 20.3536C3.74021 20.4473 3.86739 20.5 4 20.5H7C7.13261 20.5 7.25979 20.4473 7.35355 20.3536C7.44732 20.2598 7.5 20.1326 7.5 20V16.5C7.5 15.9696 7.28929 15.4609 6.91421 15.0858C6.53914 14.7107 6.03043 14.5 5.5 14.5ZM5.5 15.5C5.76522 15.5 6.01957 15.6054 6.20711 15.7929C6.39464 15.9804 6.5 16.2348 6.5 16.5V17.5H4.5V16.5C4.5 16.2348 4.60536 15.9804 4.79289 15.7929C4.98043 15.6054 5.23478 15.5 5.5 15.5ZM4.5 19.5V18.5H6.5V19.5H4.5Z" fill="#052D23"/>
<path d="M5.5 21.5C4.96957 21.5 4.46086 21.7107 4.08579 22.0858C3.71071 22.4609 3.5 22.9696 3.5 23.5V27C3.5 27.1326 3.55268 27.2598 3.64645 27.3536C3.74021 27.4473 3.86739 27.5 4 27.5H7C7.13261 27.5 7.25979 27.4473 7.35355 27.3536C7.44732 27.2598 7.5 27.1326 7.5 27V23.5C7.5 22.9696 7.28929 22.4609 6.91421 22.0858C6.53914 21.7107 6.03043 21.5 5.5 21.5ZM5.5 22.5C5.76522 22.5 6.01957 22.6054 6.20711 22.7929C6.39464 22.9804 6.5 23.2348 6.5 23.5V24.5H4.5V23.5C4.5 23.2348 4.60536 22.9804 4.79289 22.7929C4.98043 22.6054 5.23478 22.5 5.5 22.5ZM4.5 26.5V25.5H6.5V26.5H4.5Z" fill="#052D23"/>
<path d="M25 20.5H28C28.1326 20.5 28.2598 20.4473 28.3536 20.3536C28.4473 20.2598 28.5 20.1326 28.5 20V16.5C28.5 15.9696 28.2893 15.4609 27.9142 15.0858C27.5391 14.7107 27.0304 14.5 26.5 14.5C25.9696 14.5 25.4609 14.7107 25.0858 15.0858C24.7107 15.4609 24.5 15.9696 24.5 16.5V20C24.5 20.1326 24.5527 20.2598 24.6464 20.3536C24.7402 20.4473 24.8674 20.5 25 20.5ZM25.5 19.5V18.5H27.5V19.5H25.5ZM26.5 15.5C26.7652 15.5 27.0196 15.6054 27.2071 15.7929C27.3946 15.9804 27.5 16.2348 27.5 16.5V17.5H25.5V16.5C25.5 16.2348 25.6054 15.9804 25.7929 15.7929C25.9804 15.6054 26.2348 15.5 26.5 15.5Z" fill="#052D23"/>
<path d="M25 27.5H28C28.1326 27.5 28.2598 27.4473 28.3536 27.3536C28.4473 27.2598 28.5 27.1326 28.5 27V23.5C28.5 22.9696 28.2893 22.4609 27.9142 22.0858C27.5391 21.7107 27.0304 21.5 26.5 21.5C25.9696 21.5 25.4609 21.7107 25.0858 22.0858C24.7107 22.4609 24.5 22.9696 24.5 23.5V27C24.5 27.1326 24.5527 27.2598 24.6464 27.3536C24.7402 27.4473 24.8674 27.5 25 27.5ZM25.5 26.5V25.5H27.5V26.5H25.5ZM26.5 22.5C26.7652 22.5 27.0196 22.6054 27.2071 22.7929C27.3946 22.9804 27.5 23.2348 27.5 23.5V24.5H25.5V23.5C25.5 23.2348 25.6054 22.9804 25.7929 22.7929C25.9804 22.6054 26.2348 22.5 26.5 22.5Z" fill="#052D23"/>
<path d="M12.5 13C12.5 13.6922 12.7053 14.3689 13.0899 14.9445C13.4744 15.5201 14.0211 15.9687 14.6606 16.2336C15.3001 16.4985 16.0039 16.5678 16.6828 16.4327C17.3617 16.2977 17.9854 15.9644 18.4749 15.4749C18.9644 14.9854 19.2977 14.3618 19.4327 13.6828C19.5678 13.0039 19.4985 12.3001 19.2336 11.6606C18.9687 11.0211 18.5201 10.4744 17.9445 10.0899C17.3689 9.70527 16.6922 9.5 16 9.5C15.0717 9.5 14.1815 9.86875 13.5251 10.5251C12.8687 11.1815 12.5 12.0717 12.5 13ZM18.5 13C18.5 13.4945 18.3534 13.9778 18.0787 14.3889C17.804 14.8 17.4135 15.1205 16.9567 15.3097C16.4999 15.4989 15.9972 15.5484 15.5123 15.452C15.0273 15.3555 14.5819 15.1174 14.2322 14.7678C13.8826 14.4181 13.6445 13.9727 13.548 13.4877C13.4516 13.0028 13.5011 12.5001 13.6903 12.0433C13.8795 11.5865 14.2 11.196 14.6111 10.9213C15.0222 10.6466 15.5055 10.5 16 10.5C16.663 10.5 17.2989 10.7634 17.7678 11.2322C18.2366 11.7011 18.5 12.337 18.5 13Z" fill="#052D23"/>
<path d="M15.5 11.5V13C15.4996 13.0658 15.5122 13.131 15.5371 13.192C15.562 13.2529 15.5987 13.3083 15.645 13.355L16.645 14.355L17.355 13.645L16.5 12.795V11.5H15.5Z" fill="#052D23"/>
<path d="M25.0002 8.99983H28.0002C28.3585 9.00034 28.7051 8.87257 28.9774 8.63966C29.2497 8.40674 29.4296 8.08406 29.4845 7.73001C29.5395 7.37595 29.4659 7.01391 29.2771 6.70939C29.0883 6.40488 28.7968 6.178 28.4552 6.06983C28.3587 5.62296 28.1121 5.22261 27.7564 4.93546C27.4007 4.64832 26.9573 4.4917 26.5002 4.4917C26.043 4.4917 25.5997 4.64832 25.2439 4.93546C24.8882 5.22261 24.6416 5.62296 24.5452 6.06983C24.2036 6.178 23.912 6.40488 23.7232 6.70939C23.5344 7.01391 23.4608 7.37595 23.5158 7.73001C23.5708 8.08406 23.7507 8.40674 24.023 8.63966C24.2952 8.87257 24.6419 9.00034 25.0002 8.99983ZM25.0002 6.99983C25.1328 6.99983 25.26 6.94715 25.3537 6.85338C25.4475 6.75961 25.5002 6.63244 25.5002 6.49983C25.5002 6.23461 25.6055 5.98026 25.7931 5.79272C25.9806 5.60519 26.235 5.49983 26.5002 5.49983C26.7654 5.49983 27.0197 5.60519 27.2073 5.79272C27.3948 5.98026 27.5002 6.23461 27.5002 6.49983C27.5002 6.63244 27.5529 6.75961 27.6466 6.85338C27.7404 6.94715 27.8676 6.99983 28.0002 6.99983C28.1328 6.99983 28.26 7.05251 28.3537 7.14628C28.4475 7.24004 28.5002 7.36722 28.5002 7.49983C28.5002 7.63244 28.4475 7.75961 28.3537 7.85338C28.26 7.94715 28.1328 7.99983 28.0002 7.99983H25.0002C24.8676 7.99983 24.7404 7.94715 24.6466 7.85338C24.5529 7.75961 24.5002 7.63244 24.5002 7.49983C24.5002 7.36722 24.5529 7.24004 24.6466 7.14628C24.7404 7.05251 24.8676 6.99983 25.0002 6.99983Z" fill="#052D23"/>
<path d="M4.00018 6.99983H7.00018C7.35847 7.00034 7.70512 6.87257 7.97739 6.63966C8.24965 6.40674 8.42955 6.08406 8.48454 5.73001C8.53952 5.37595 8.46595 5.01391 8.27714 4.70939C8.08833 4.40488 7.79675 4.178 7.45518 4.06983C7.35875 3.62296 7.11213 3.22261 6.75641 2.93546C6.40069 2.64832 5.95733 2.4917 5.50018 2.4917C5.04302 2.4917 4.59966 2.64832 4.24394 2.93546C3.88822 3.22261 3.64161 3.62296 3.54518 4.06983C3.2036 4.178 2.91202 4.40488 2.72321 4.70939C2.5344 5.01391 2.46083 5.37595 2.51582 5.73001C2.5708 6.08406 2.7507 6.40674 3.02296 6.63966C3.29523 6.87257 3.64188 7.00034 4.00018 6.99983ZM4.00018 4.99983C4.13278 4.99983 4.25996 4.94715 4.35373 4.85338C4.4475 4.75961 4.50018 4.63244 4.50018 4.49983C4.50018 4.23461 4.60553 3.98026 4.79307 3.79272C4.98061 3.60519 5.23496 3.49983 5.50018 3.49983C5.76539 3.49983 6.01975 3.60519 6.20728 3.79272C6.39482 3.98026 6.50018 4.23461 6.50018 4.49983C6.50018 4.63244 6.55285 4.75961 6.64662 4.85338C6.74039 4.94715 6.86757 4.99983 7.00018 4.99983C7.13278 4.99983 7.25996 5.05251 7.35373 5.14628C7.4475 5.24004 7.50018 5.36722 7.50018 5.49983C7.50018 5.63244 7.4475 5.75961 7.35373 5.85338C7.25996 5.94715 7.13278 5.99983 7.00018 5.99983H4.00018C3.86757 5.99983 3.74039 5.94715 3.64662 5.85338C3.55285 5.75961 3.50018 5.63244 3.50018 5.49983C3.50018 5.36722 3.55285 5.24004 3.64662 5.14628C3.74039 5.05251 3.86757 4.99983 4.00018 4.99983Z" fill="#052D23"/>
</g>
<defs>
<clipPath id="clip0_2089_3723">
<rect width="32" height="32" fill="white"/>
</clipPath>
</defs>
</svg>
