<svg width="40" height="610" viewBox="0 0 40 610" fill="none" xmlns="http://www.w3.org/2000/svg">
<g clip-path="url(#clip0_2_14585)">
<path d="M14.2586 -10C14.2586 -10 20.5794 6.14495 21.0204 20.9629C21.4615 36.0022 21.0204 48.8296 18.8155 67.1862C15.8756 92.1778 3.9689 140.391 10.4367 166.047C16.9046 191.702 17.1985 192.807 21.3144 205.856C26.0183 220.453 35.4261 250.089 34.985 286.802C34.544 325.948 10.5837 396.942 11.7596 426.135C11.9067 429.231 12.9356 440.733 14.6996 449.358C16.4636 457.762 20.2854 470.147 21.6084 486.956C22.1964 494.033 23.2254 505.312 22.9314 518.36C22.7844 521.678 22.3434 532.294 20.5794 544.9C18.8155 557.507 16.0225 569.229 15.1406 579.844C13.5236 602.624 15.8756 617 15.8756 617H0L7.15776e-06 -10L14.2586 -10ZM16.6106 40.2042C15.1406 41.7524 16.0225 44.6275 16.0225 49.7142C16.0225 54.8011 14.2586 63.2053 14.4056 62.5418C14.5526 61.8783 16.6106 55.6857 17.1985 49.2719C17.9335 42.637 18.0805 38.8773 16.6106 40.2042ZM12.6417 80.8984C12.6417 80.8984 12.3477 86.2064 11.3187 93.2836C10.1427 100.36 7.20282 116.064 6.17384 126.68C4.55688 144.815 6.17384 161.624 6.32084 160.075C6.46783 158.306 5.43886 138.844 7.9378 121.151C8.96676 113.852 11.1717 100.582 11.9067 93.7259C12.7887 86.4275 12.6417 80.8984 12.6417 80.8984ZM12.4946 207.404C11.4657 203.644 19.4035 236.819 21.4614 248.32C22.3434 252.964 23.8134 262.031 24.4013 270.436C24.9894 279.062 24.9894 290.12 25.1363 289.898C25.4303 289.898 26.3123 277.071 25.1363 265.128C23.9604 253.185 23.5194 253.627 22.7844 248.32C21.6084 239.915 13.5236 211.164 12.4946 207.404ZM10.1427 176.662C10.1427 176.22 9.55474 178.431 11.7596 187.278C13.9646 196.125 16.9046 202.096 17.1985 202.538C17.3456 202.981 14.5526 194.798 12.7887 187.942C11.0248 181.307 10.1427 176.884 10.1427 176.662ZM8.81977 -8.89418C8.96676 -8.67302 10.4367 -4.69209 12.4946 1.72167C14.5526 8.13546 16.6106 16.982 16.4636 16.5397C16.4636 16.0973 15.5816 8.79893 12.7887 0.173554C9.99574 -8.45183 8.67278 -9.11534 8.81977 -8.89418ZM17.0515 547.776C16.7575 547.555 16.7575 551.978 15.2875 557.728C13.8177 563.478 12.9356 569.671 12.3477 574.978C11.1717 583.825 12.4946 600.855 12.6417 599.971C12.7887 599.307 12.2007 581.835 13.6706 572.325C14.4056 567.46 14.4056 567.017 16.0225 559.718C17.6396 552.42 17.4925 547.997 17.0515 547.776ZM13.5236 455.551C13.3767 454.665 11.1717 447.809 9.70174 436.973C8.08478 426.135 8.96676 417.289 8.52577 417.289C8.08478 417.289 7.20281 419.5 8.08478 431.001C8.96676 442.502 13.6706 456.435 13.5236 455.551ZM9.84874 458.647C9.99573 458.204 7.93779 451.127 7.3498 446.04C6.90882 440.953 6.61482 441.838 6.46782 441.838C6.32083 441.838 6.17384 444.271 6.76182 447.809C7.4968 451.569 9.70174 459.089 9.84874 458.647ZM6.46782 409.991C6.76182 409.769 7.6438 402.249 9.11376 397.605C10.5837 392.96 9.99573 393.624 9.84874 393.403C9.70174 393.182 8.67277 395.173 7.93779 398.711C7.05581 402.249 6.17384 410.211 6.46782 409.991ZM16.3165 472.358C16.7575 472.58 17.0515 471.695 16.0225 468.156C14.9936 464.618 14.1116 462.406 14.2586 463.291C14.4056 464.176 14.8466 465.282 15.4346 468.82C16.0225 472.58 15.8756 472.138 16.3165 472.358ZM18.2275 540.698C18.2275 541.14 19.4035 536.054 19.5505 533.4C19.6975 530.746 19.6975 528.977 19.2565 528.977C18.8155 528.977 18.5215 529.198 18.6685 532.515C18.8155 536.054 18.2275 540.256 18.2275 540.698ZM31.0162 280.389C31.1632 280.609 30.5752 285.696 30.5752 296.976C30.5752 308.034 27.0473 327.054 25.4303 335.016C23.8134 342.978 31.1632 312.9 31.4571 298.524C31.7511 284.148 30.8692 280.167 31.0162 280.389Z" fill="#BFD8BD"/>
<path d="M26.4481 30.2519C26.3012 30.4696 26.8889 40.2632 26.4481 45.9218C25.4195 61.8093 21.7461 82.92 22.1869 82.0494C22.6277 81.1789 26.742 52.2332 27.0359 45.0512C27.6236 34.387 26.4481 30.0343 26.4481 30.2519Z" fill="#BFD8BD"/>
<path d="M14.4007 122.094C14.2538 122.529 12.9313 131.887 12.6374 142.769C12.3436 153.651 13.5191 170.409 13.3721 169.539C13.2252 168.886 10.7272 156.698 11.6089 140.593C12.4905 124.488 14.5476 121.659 14.4007 122.094Z" fill="#BFD8BD"/>
<path d="M19.69 171.933C19.543 172.15 18.2206 167.58 18.0737 164.968C17.9267 162.357 18.0737 160.616 18.5145 160.616C18.9553 160.616 19.2492 160.833 19.1022 164.098C18.9553 167.798 19.8369 171.715 19.69 171.933Z" fill="#BFD8BD"/>
<path d="M15.5754 179.55C15.4284 179.55 17.3386 189.126 18.808 193.262C20.1304 197.397 23.3631 206.754 23.3631 206.537C23.51 206.319 21.0121 197.397 19.5427 192.826C18.0733 188.256 15.7223 179.55 15.5754 179.55Z" fill="#BFD8BD"/>
<path d="M39.2323 280.751C39.0854 280.969 39.6731 290.762 39.2323 296.421C38.2037 312.308 34.5303 333.419 34.9711 332.548C35.4119 331.678 39.5262 302.733 39.8201 295.55C40.4078 284.886 39.3792 280.533 39.2323 280.751Z" fill="#BFD8BD"/>
<path d="M28.3574 525.811C28.3574 525.811 27.9166 523.199 28.2105 519.499C28.5044 515.799 29.533 506.876 29.2391 501.653C28.6513 492.512 25.2718 485.547 25.4187 486.418C25.4187 487.288 28.6513 495.776 28.2105 505.135C28.0636 509.052 27.4758 516.235 27.6228 519.717C27.7697 523.199 28.3574 525.811 28.3574 525.811Z" fill="#BFD8BD"/>
<path d="M18.5153 452.684C18.6622 452.249 17.3398 448.331 16.8989 443.326C16.6051 438.321 16.4581 438.756 16.1643 438.756C16.0173 438.756 15.5765 442.673 16.1643 446.156C16.8989 449.637 18.3683 453.119 18.5153 452.684Z" fill="#BFD8BD"/>
<path d="M19.3969 583.049C19.25 583.049 19.3969 573.691 20.1316 568.467C20.8663 563.244 22.9234 557.585 23.0704 557.585C23.2173 557.585 21.8949 563.462 21.0132 568.685C20.1316 573.691 19.5439 582.832 19.3969 583.049Z" fill="#BFD8BD"/>
</g>
<defs>
<clipPath id="clip0_2_14585">
<rect width="40" height="617" fill="white"/>
</clipPath>
</defs>
</svg>
