<svg width="360" height="40" viewBox="0 0 360 40" fill="none" xmlns="http://www.w3.org/2000/svg">
<g clip-path="url(#clip0_32_2055)">
<g clip-path="url(#clip1_32_2055)">
<path d="M417 16.7404C417 16.7404 405.979 20.1717 395.864 20.4111C385.598 20.6505 376.842 20.4111 364.312 19.2141C347.252 17.6182 314.34 11.1545 296.828 14.6657C279.315 18.1768 278.561 18.3363 269.653 20.5707C259.689 23.1242 239.459 28.2313 214.398 27.9919C187.676 27.7525 139.215 14.7454 119.287 15.3838C117.174 15.4637 109.323 16.0222 103.435 16.9798C97.6985 17.9374 89.2444 20.0121 77.7706 20.7303C72.9392 21.0495 65.2397 21.6081 56.3328 21.4485C54.0678 21.3687 46.8217 21.1293 38.216 20.1717C29.611 19.2142 21.6097 17.698 14.3629 17.2192C-1.18698 16.3414 -11 17.6182 -11 17.6182L-11 9.00002L417 9L417 16.7404ZM382.73 18.0172C381.673 17.2192 379.71 17.6979 376.238 17.6979C372.766 17.6979 367.029 16.7404 367.482 16.8202C367.935 16.9 372.162 18.0172 376.54 18.3364C381.069 18.7353 383.636 18.8152 382.73 18.0172ZM354.951 15.8626C354.951 15.8626 351.328 15.703 346.497 15.1444C341.666 14.506 330.947 12.9101 323.701 12.3515C311.321 11.4737 299.847 12.3515 300.904 12.4313C302.112 12.5111 315.397 11.9525 327.475 13.3091C332.457 13.8677 341.515 15.0646 346.195 15.4636C351.177 15.9424 354.951 15.8626 354.951 15.8626ZM268.597 15.7828C271.163 15.2243 248.517 19.5333 240.667 20.6505C237.497 21.1293 231.307 21.9273 225.57 22.2464C219.682 22.5657 212.134 22.5657 212.285 22.6454C212.285 22.8051 221.041 23.2838 229.194 22.6454C237.346 22.0071 237.044 21.7677 240.667 21.3687C246.404 20.7303 266.03 16.3414 268.597 15.7828ZM289.582 14.506C289.883 14.506 288.374 14.1869 282.335 15.3838C276.296 16.5808 272.22 18.1768 271.918 18.3363C271.616 18.4162 277.202 16.9 281.882 15.9424C286.411 14.9849 289.43 14.506 289.582 14.506ZM416.245 13.7879C416.094 13.8677 413.377 14.6656 408.999 15.7828C404.62 16.9 398.582 18.0172 398.884 17.9374C399.186 17.9374 404.168 17.4586 410.055 15.9424C415.943 14.4263 416.396 13.7081 416.245 13.7879ZM36.2534 18.2566C36.4044 18.097 33.3853 18.097 29.4601 17.299C25.5349 16.501 21.3078 16.0222 17.6844 15.703C11.6457 15.0647 0.0209964 15.7828 0.624695 15.8627C1.07748 15.9424 13.004 15.6233 19.4961 16.4212C22.817 16.8202 23.1195 16.8202 28.1012 17.698C33.0834 18.5758 36.1025 18.496 36.2534 18.2566ZM99.2083 16.3414C99.812 16.2616 104.492 15.0647 111.889 14.2667C119.287 13.3889 125.326 13.8677 125.326 13.6283C125.326 13.3889 123.816 12.9101 115.966 13.3889C108.115 13.8677 98.604 16.4212 99.2083 16.3414ZM97.0948 14.3465C97.3966 14.4263 102.227 13.3091 105.7 12.9899C109.172 12.7505 108.568 12.5909 108.568 12.5111C108.568 12.4313 106.908 12.3515 104.492 12.6707C101.926 13.0697 96.7923 14.2667 97.0948 14.3465ZM130.308 12.5111C130.459 12.6707 135.592 13.1495 138.762 13.9475C141.933 14.7454 141.479 14.4263 141.63 14.3465C141.782 14.2667 140.423 13.7081 138.008 13.3091C135.592 12.8303 130.157 12.3515 130.308 12.5111ZM87.7345 17.8576C87.5836 18.097 88.1873 18.2566 90.6027 17.698C93.0181 17.1394 94.5279 16.6606 93.9242 16.7404C93.3205 16.8202 92.5653 17.0596 90.1499 17.3788C87.5836 17.698 87.8854 17.6182 87.7345 17.8576ZM41.0848 18.8949C40.7829 18.8949 44.2548 19.5333 46.0665 19.6132C47.8781 19.6929 49.0861 19.6929 49.0861 19.4535C49.0861 19.2142 48.9352 19.0546 46.6707 19.1343C44.2548 19.2142 41.3866 18.8949 41.0848 18.8949ZM218.776 25.8373C218.625 25.9172 215.153 25.598 207.453 25.598C199.905 25.598 186.922 23.6828 181.487 22.8051C176.052 21.9273 196.584 25.9172 206.397 26.0767C216.21 26.2363 218.927 25.7576 218.776 25.8373Z" fill="#EFFAFC"/>
<path d="M395.995 23.5531C395.843 23.4658 389.041 23.8149 385.111 23.5531C374.076 22.942 359.413 20.7598 360.018 21.0217C360.623 21.2836 380.727 23.7277 385.716 23.9023C393.123 24.2514 396.146 23.5531 395.995 23.5531Z" fill="#EFFAFC"/>
<path d="M331.971 16.995C331.669 16.8966 325.17 16.0112 317.613 15.8144C310.056 15.6177 298.418 16.4048 299.023 16.3063C299.476 16.208 307.94 14.5355 319.125 15.1259C330.309 15.7161 332.274 17.0933 331.971 16.995Z" fill="#EFFAFC"/>
<path d="M298.005 19.9902C297.852 19.9031 301.08 19.1197 302.925 19.0327C304.77 18.9456 306 19.0327 306 19.2938C306 19.5549 305.846 19.729 303.54 19.642C300.926 19.5549 298.159 20.0772 298.005 19.9902Z" fill="#EFFAFC"/>
<path d="M292 18.0041C292 17.9287 285.614 18.9081 282.856 19.6614C280.098 20.3394 273.857 21.9968 274.002 21.9968C274.148 22.0721 280.098 20.7915 283.146 20.0381C286.194 19.2848 292 18.0794 292 18.0041Z" fill="#EFFAFC"/>
<path d="M221.995 30.5454C221.844 30.4584 215.041 30.8065 211.111 30.5454C200.076 29.9362 185.414 27.7606 186.018 28.0216C186.623 28.2827 206.727 30.7194 211.716 30.8935C219.122 31.2416 222.146 30.6324 221.995 30.5454Z" fill="#EFFAFC"/>
<path d="M52 24.5183C52 24.5183 53.8529 24.2909 56.4783 24.4425C59.103 24.5941 65.4336 25.1246 69.1395 24.9731C75.6244 24.6699 80.5658 22.9266 79.9478 23.0024C79.3303 23.0024 73.3084 24.6699 66.6691 24.4425C63.8894 24.3667 58.7943 24.0635 56.3239 24.1393C53.8529 24.2151 52 24.5183 52 24.5183Z" fill="#EFFAFC"/>
<path d="M103.026 18.9957C103.338 19.051 106.141 18.5537 109.723 18.3879C113.305 18.2775 112.993 18.2222 112.993 18.1117C112.993 18.0564 110.19 17.8907 107.699 18.1117C105.207 18.3879 102.715 18.9405 103.026 18.9957Z" fill="#EFFAFC"/>
<path d="M13 20.0274C13 19.9488 19.2477 20.0274 22.735 20.4207C26.2222 20.814 30 21.9153 30 21.994C30 22.0726 26.077 21.3647 22.5897 20.8927C19.2477 20.4207 13.1453 20.1061 13 20.0274Z" fill="#EFFAFC"/>
</g>
</g>
<defs>
<clipPath id="clip0_32_2055">
<rect width="40" height="470" fill="white" transform="translate(417) rotate(90)"/>
</clipPath>
<clipPath id="clip1_32_2055">
<rect width="40" height="760" fill="white" transform="translate(416.935) rotate(90)"/>
</clipPath>
</defs>
</svg>
