<svg width="40" height="616" viewBox="0 0 40 616" fill="none" xmlns="http://www.w3.org/2000/svg">
<g clip-path="url(#clip0_2_14583)">
<g clip-path="url(#clip1_2_14583)">
<path d="M14.2586 -5C14.2586 -5 20.5794 11.1449 21.0204 25.9629C21.4615 41.0022 21.0204 53.8296 18.8155 72.1862C15.8756 97.1778 3.9689 145.391 10.4367 171.047C16.9046 196.702 17.1985 197.807 21.3144 210.856C26.0183 225.453 35.4261 255.089 34.985 291.802C34.544 330.948 10.5837 401.942 11.7596 431.135C11.9067 434.231 12.9356 445.733 14.6996 454.358C16.4636 462.762 20.2854 475.147 21.6084 491.956C22.1964 499.033 23.2254 510.312 22.9314 523.36C22.7844 526.678 22.3434 537.294 20.5794 549.9C18.8155 562.507 16.0225 574.229 15.1406 584.844C13.5236 607.624 15.8756 622 15.8756 622H0L7.15776e-06 -5L14.2586 -5ZM16.6106 45.2042C15.1406 46.7524 16.0225 49.6275 16.0225 54.7142C16.0225 59.8011 14.2586 68.2053 14.4056 67.5418C14.5526 66.8783 16.6106 60.6857 17.1985 54.2719C17.9335 47.637 18.0805 43.8773 16.6106 45.2042ZM12.6417 85.8984C12.6417 85.8984 12.3477 91.2064 11.3187 98.2836C10.1427 105.36 7.20282 121.064 6.17384 131.68C4.55688 149.815 6.17384 166.624 6.32084 165.075C6.46783 163.306 5.43886 143.844 7.9378 126.151C8.96676 118.852 11.1717 105.582 11.9067 98.7259C12.7887 91.4275 12.6417 85.8984 12.6417 85.8984ZM12.4946 212.404C11.4657 208.644 19.4035 241.819 21.4614 253.32C22.3434 257.964 23.8134 267.031 24.4013 275.436C24.9894 284.062 24.9894 295.12 25.1363 294.898C25.4303 294.898 26.3123 282.071 25.1363 270.128C23.9604 258.185 23.5194 258.627 22.7844 253.32C21.6084 244.915 13.5236 216.164 12.4946 212.404ZM10.1427 181.662C10.1427 181.22 9.55474 183.431 11.7596 192.278C13.9646 201.125 16.9046 207.096 17.1985 207.538C17.3456 207.981 14.5526 199.798 12.7887 192.942C11.0248 186.307 10.1427 181.884 10.1427 181.662ZM8.81977 -3.89418C8.96676 -3.67302 10.4367 0.30791 12.4946 6.72167C14.5526 13.1355 16.6106 21.982 16.4636 21.5397C16.4636 21.0973 15.5816 13.7989 12.7887 5.17355C9.99574 -3.45183 8.67278 -4.11534 8.81977 -3.89418ZM17.0515 552.776C16.7575 552.555 16.7575 556.978 15.2875 562.728C13.8177 568.478 12.9356 574.671 12.3477 579.978C11.1717 588.825 12.4946 605.855 12.6417 604.971C12.7887 604.307 12.2007 586.835 13.6706 577.325C14.4056 572.46 14.4056 572.017 16.0225 564.718C17.6396 557.42 17.4925 552.997 17.0515 552.776ZM13.5236 460.551C13.3767 459.665 11.1717 452.809 9.70174 441.973C8.08478 431.135 8.96676 422.289 8.52577 422.289C8.08478 422.289 7.20281 424.5 8.08478 436.001C8.96676 447.502 13.6706 461.435 13.5236 460.551ZM9.84874 463.647C9.99573 463.204 7.93779 456.127 7.3498 451.04C6.90882 445.953 6.61482 446.838 6.46782 446.838C6.32083 446.838 6.17384 449.271 6.76182 452.809C7.4968 456.569 9.70174 464.089 9.84874 463.647ZM6.46782 414.991C6.76182 414.769 7.6438 407.249 9.11376 402.605C10.5837 397.96 9.99573 398.624 9.84874 398.403C9.70174 398.182 8.67277 400.173 7.93779 403.711C7.05581 407.249 6.17384 415.211 6.46782 414.991ZM16.3165 477.358C16.7575 477.58 17.0515 476.695 16.0225 473.156C14.9936 469.618 14.1116 467.406 14.2586 468.291C14.4056 469.176 14.8466 470.282 15.4346 473.82C16.0225 477.58 15.8756 477.138 16.3165 477.358ZM18.2275 545.698C18.2275 546.14 19.4035 541.054 19.5505 538.4C19.6975 535.746 19.6975 533.977 19.2565 533.977C18.8155 533.977 18.5215 534.198 18.6685 537.515C18.8155 541.054 18.2275 545.256 18.2275 545.698ZM31.0162 285.389C31.1632 285.609 30.5752 290.696 30.5752 301.976C30.5752 313.034 27.0473 332.054 25.4303 340.016C23.8134 347.978 31.1632 317.9 31.4571 303.524C31.7511 289.148 30.8692 285.167 31.0162 285.389Z" fill="#BFD8BD"/>
<path d="M26.4481 35.2519C26.3012 35.4696 26.8889 45.2632 26.4481 50.9218C25.4195 66.8093 21.7461 87.92 22.1869 87.0494C22.6277 86.1789 26.742 57.2332 27.0359 50.0512C27.6236 39.387 26.4481 35.0343 26.4481 35.2519Z" fill="#BFD8BD"/>
<path d="M14.4007 127.094C14.2538 127.529 12.9313 136.887 12.6374 147.769C12.3436 158.651 13.5191 175.409 13.3721 174.539C13.2252 173.886 10.7272 161.698 11.6089 145.593C12.4905 129.488 14.5476 126.659 14.4007 127.094Z" fill="#BFD8BD"/>
<path d="M19.69 176.933C19.543 177.15 18.2206 172.58 18.0737 169.968C17.9267 167.357 18.0737 165.616 18.5145 165.616C18.9553 165.616 19.2492 165.833 19.1022 169.098C18.9553 172.798 19.8369 176.715 19.69 176.933Z" fill="#BFD8BD"/>
<path d="M15.5754 184.55C15.4284 184.55 17.3386 194.126 18.808 198.262C20.1304 202.397 23.3631 211.754 23.3631 211.537C23.51 211.319 21.0121 202.397 19.5427 197.826C18.0733 193.256 15.7223 184.55 15.5754 184.55Z" fill="#BFD8BD"/>
<path d="M39.2323 285.751C39.0854 285.969 39.6731 295.762 39.2323 301.421C38.2037 317.308 34.5303 338.419 34.9711 337.548C35.4119 336.678 39.5262 307.733 39.8201 300.55C40.4078 289.886 39.3792 285.533 39.2323 285.751Z" fill="#BFD8BD"/>
<path d="M28.3574 530.811C28.3574 530.811 27.9166 528.199 28.2105 524.499C28.5044 520.799 29.533 511.876 29.2391 506.653C28.6513 497.512 25.2718 490.547 25.4187 491.418C25.4187 492.288 28.6513 500.776 28.2105 510.135C28.0636 514.052 27.4758 521.235 27.6228 524.717C27.7697 528.199 28.3574 530.811 28.3574 530.811Z" fill="#BFD8BD"/>
<path d="M18.5153 457.684C18.6622 457.249 17.3398 453.331 16.8989 448.326C16.6051 443.321 16.4581 443.756 16.1643 443.756C16.0173 443.756 15.5765 447.673 16.1643 451.156C16.8989 454.637 18.3683 458.119 18.5153 457.684Z" fill="#BFD8BD"/>
<path d="M19.3969 588.049C19.25 588.049 19.3969 578.691 20.1316 573.467C20.8663 568.244 22.9234 562.585 23.0704 562.585C23.2173 562.585 21.8949 568.462 21.0132 573.685C20.1316 578.691 19.5439 587.832 19.3969 588.049Z" fill="#BFD8BD"/>
</g>
</g>
<defs>
<clipPath id="clip0_2_14583">
<rect width="40" height="615" fill="white"/>
</clipPath>
<clipPath id="clip1_2_14583">
<rect width="40" height="617" fill="white" transform="translate(0 5)"/>
</clipPath>
</defs>
</svg>
