<svg width="1290" height="591" viewBox="0 0 1290 591" fill="none" xmlns="http://www.w3.org/2000/svg">
<path d="M269.178 131H149.178C29.1804 151 -115.82 461 149.179 591H269.179V481H199.179C144.179 476 69.179 296 199.179 241H269.178V131Z" fill="#00652E"/>
<path d="M289.179 301H409.18V591H289.18L289.179 301Z" fill="#00652E"/>
<path d="M439.18 131V241H579.18C649.18 256 717.18 437 549.18 481V301H439.18V591H629.18C769.18 586 901.18 243 629.18 131H439.18Z" fill="#00652E"/>
<path d="M809.18 131V241H964.18C989.18 241 1009.18 286 964.18 301H809.18V421H964.18C984.18 431 1004.18 461 964.18 481H809.18V591H1024.18C1079.18 591 1165.18 442 1049.18 366C1104.18 331 1152.18 183 1024.18 131H809.18Z" fill="#00652E"/>
<path d="M1129.18 131H1249.18V591H1129.18V131Z" fill="#00652E"/>
<path d="M289.179 131V241H409.18V131H289.179Z" fill="#EC2028"/>
<path d="M1079.18 101H1289.18C1254.18 65.9997 1184.18 -3.00034 1184.18 0.999661C1184.18 4.99966 1114.18 69.333 1079.18 101Z" fill="#EC2028"/>
</svg>
