<svg width="1418" height="640" viewBox="0 0 1418 640" fill="none" xmlns="http://www.w3.org/2000/svg">
<path d="M269.178 180H149.178C29.1804 200 -115.82 510 149.179 640H269.179V530H199.179C144.179 525 69.179 345 199.179 290H269.178V180Z" fill="#00652E"/>
<path d="M289.179 350H409.18V640H289.18L289.179 350Z" fill="#00652E"/>
<path d="M439.18 180V290H579.18C649.18 305 717.18 486 549.18 530V350H439.18V640H629.18C769.18 635 901.18 292 629.18 180H439.18Z" fill="#00652E"/>
<path d="M809.18 180V290H964.18C989.18 290 1009.18 335 964.18 350H809.18V470H964.18C984.18 480 1004.18 510 964.18 530H809.18V640H1024.18C1079.18 640 1165.18 491 1049.18 415C1104.18 380 1152.18 232 1024.18 180H809.18Z" fill="#00652E"/>
<path d="M1129.18 180H1249.18V640H1129.18V180Z" fill="#00652E"/>
<path d="M289.179 180V290H409.18V180H289.179Z" fill="#EC2028"/>
<path d="M1079.18 150H1289.18C1254.18 115 1184.18 45.9997 1184.18 49.9997C1184.18 53.9997 1114.18 118.333 1079.18 150Z" fill="#EC2028"/>
<path d="M1298.86 26.0682V19.8182H1342.5V26.0682H1324.2V78H1317.16V26.0682H1298.86ZM1353.37 19.8182H1361.78L1381.56 68.1136H1382.24L1402.01 19.8182H1410.42V78H1403.83V33.7955H1403.26L1385.08 78H1378.71L1360.53 33.7955H1359.96V78H1353.37V19.8182Z" fill="black"/>
</svg>
