<svg width="24" height="251" viewBox="0 0 24 251" fill="none" xmlns="http://www.w3.org/2000/svg">
<circle cx="12" cy="12" r="11" transform="rotate(-180 12 12)" fill="white"/>
<path d="M1.04907e-06 12C1.62846e-06 5.37258 5.37259 -1.62846e-06 12 -1.04907e-06C18.6274 -4.69686e-07 24 5.37258 24 12C24 18.6274 18.6274 24 12 24C5.37258 24 4.69686e-07 18.6274 1.04907e-06 12ZM21.6 12C21.6 6.69807 17.3019 2.4 12 2.4C6.69807 2.4 2.4 6.69806 2.4 12C2.4 17.3019 6.69807 21.6 12 21.6C17.3019 21.6 21.6 17.3019 21.6 12Z" fill="black"/>
<circle cx="12" cy="12" r="7" transform="rotate(-180 12 12)" fill="#D4FA95"/>
<line x1="13" y1="24" x2="13" y2="251" stroke="black" stroke-width="2"/>
</svg>
