<svg width="549" height="404" viewBox="0 0 549 404" fill="none" xmlns="http://www.w3.org/2000/svg">
<path d="M1 198.006C30 212.006 101.3 239.606 154.5 238.006C174.667 239.839 234.1 234.406 310.5 198.006C326.667 188.673 368.4 168.906 406 164.506C422 162.339 472.8 166.006 548 198.006" stroke="black" stroke-width="2"/>
<circle cx="140" cy="239" r="11" fill="white"/>
<path d="M152 239C152 245.627 146.627 251 140 251C133.373 251 128 245.627 128 239C128 232.373 133.373 227 140 227C146.627 227 152 232.373 152 239ZM130.4 239C130.4 244.302 134.698 248.6 140 248.6C145.302 248.6 149.6 244.302 149.6 239C149.6 233.698 145.302 229.4 140 229.4C134.698 229.4 130.4 233.698 130.4 239Z" fill="black"/>
<circle cx="140" cy="239" r="7" fill="#D4FA95"/>
<line x1="139" y1="227" x2="139" y2="-4.37114e-08" stroke="black" stroke-width="2"/>
<circle cx="418" cy="165" r="11" transform="rotate(-180 418 165)" fill="white"/>
<path d="M406 165C406 158.373 411.373 153 418 153C424.627 153 430 158.373 430 165C430 171.627 424.627 177 418 177C411.373 177 406 171.627 406 165ZM427.6 165C427.6 159.698 423.302 155.4 418 155.4C412.698 155.4 408.4 159.698 408.4 165C408.4 170.302 412.698 174.6 418 174.6C423.302 174.6 427.6 170.302 427.6 165Z" fill="black"/>
<circle cx="418" cy="165" r="7" transform="rotate(-180 418 165)" fill="#D4FA95"/>
<line x1="419" y1="177" x2="419" y2="404" stroke="black" stroke-width="2"/>
</svg>
