<svg width="12" height="16" viewBox="0 0 12 16" fill="none" xmlns="http://www.w3.org/2000/svg">
<path d="M6.00288 7.77563C6.37386 7.77563 6.69045 7.64354 6.95268 7.37938C7.21504 7.11521 7.34622 6.79764 7.34622 6.42667C7.34622 6.05569 7.21407 5.73903 6.94976 5.47667C6.68559 5.21444 6.36802 5.08333 5.99705 5.08333C5.62608 5.08333 5.30948 5.21542 5.04726 5.47958C4.7849 5.74375 4.65372 6.06132 4.65372 6.43229C4.65372 6.80326 4.78587 7.11993 5.05018 7.38229C5.31434 7.64451 5.63191 7.77563 6.00288 7.77563ZM5.99997 14.3975C7.56622 13.0342 8.80448 11.6476 9.71476 10.2379C10.625 8.82819 11.0802 7.60896 11.0802 6.58021C11.0802 5.05562 10.5975 3.79729 9.63226 2.80521C8.66698 1.81326 7.45622 1.31729 5.99997 1.31729C4.54372 1.31729 3.33295 1.81326 2.36768 2.80521C1.4024 3.79729 0.919759 5.05562 0.919759 6.58021C0.919759 7.60896 1.3749 8.82819 2.28518 10.2379C3.19545 11.6476 4.43372 13.0342 5.99997 14.3975ZM5.99997 15.516C4.04163 13.7842 2.56649 12.1691 1.57455 10.6706C0.582467 9.17229 0.0864258 7.80882 0.0864258 6.58021C0.0864258 4.81729 0.660454 3.36319 1.80851 2.21792C2.95643 1.07264 4.35358 0.5 5.99997 0.5C7.64636 0.5 9.04351 1.07264 10.1914 2.21792C11.3395 3.36319 11.9135 4.81729 11.9135 6.58021C11.9135 7.80882 11.4175 9.17229 10.4254 10.6706C9.43344 12.1691 7.9583 13.7842 5.99997 15.516Z" fill="#1C1B1F"/>
</svg>
