<svg width="320" height="40" viewBox="0 0 320 40" fill="none" xmlns="http://www.w3.org/2000/svg">
<g clip-path="url(#clip0_32_2257)">
<g clip-path="url(#clip1_32_2257)">
<path d="M-49 24.0229C-49 24.0229 -38.4942 19.6001 -28.8519 19.2915C-19.0656 18.9829 -10.7185 19.2915 1.22644 20.8343C17.4889 22.8915 48.8622 31.2229 65.5569 26.6972C82.2509 22.1715 82.9703 21.9658 91.4615 19.0858C100.96 15.7944 120.245 9.21153 144.134 9.52015C169.607 9.82871 215.804 26.5943 234.801 25.7715C236.816 25.6686 244.3 24.9486 249.912 23.7143C255.381 22.48 263.44 19.8058 274.378 18.8801C278.983 18.4687 286.323 17.7486 294.813 17.9544C296.972 18.0572 303.881 18.3658 312.083 19.6001C320.287 20.8343 327.914 22.7886 334.822 23.4058C349.645 24.5372 359 22.8915 359 22.8915L359 34L-49 34L-49 24.0229ZM-16.3312 22.3772C-15.3238 23.4058 -13.4529 22.7887 -10.1429 22.7887C-6.83279 22.7887 -1.36402 24.0229 -1.79575 23.9201C-2.22749 23.8172 -6.25716 22.3772 -10.4307 21.9658C-14.7482 21.4515 -17.1947 21.3486 -16.3312 22.3772ZM10.1492 25.1543C10.1492 25.1543 13.6032 25.36 18.2085 26.0801C22.8134 26.9029 33.0318 28.96 39.9399 29.68C51.7407 30.8114 62.6785 29.68 61.6707 29.5772C60.5195 29.4743 47.8551 30.1943 36.342 28.4457C31.5929 27.7257 22.9576 26.1829 18.4963 25.6686C13.7471 25.0515 10.1492 25.1543 10.1492 25.1543ZM92.4686 25.2572C90.0219 25.9772 111.609 20.4229 119.093 18.983C122.115 18.3658 128.016 17.3372 133.485 16.9258C139.098 16.5143 146.293 16.5143 146.149 16.4115C146.149 16.2058 137.802 15.5887 130.03 16.4115C122.259 17.2344 122.547 17.5429 119.093 18.0572C113.624 18.8801 94.9152 24.5372 92.4686 25.2572ZM72.4643 26.9029C72.1767 26.9029 73.6156 27.3143 79.3725 25.7715C85.1293 24.2286 89.0148 22.1715 89.3025 21.9658C89.5908 21.8629 84.2657 23.8172 79.8042 25.0515C75.4869 26.2857 72.6085 26.9029 72.4643 26.9029ZM-48.2804 27.8286C-48.1365 27.7257 -45.546 26.6972 -41.3725 25.2572C-37.1989 23.8172 -31.4423 22.3772 -31.7302 22.48C-32.018 22.48 -36.7672 23.0972 -42.3799 25.0515C-47.9926 27.0057 -48.4243 27.9315 -48.2804 27.8286ZM313.955 22.0686C313.811 22.2744 316.689 22.2744 320.43 23.3029C324.172 24.3314 328.202 24.9486 331.656 25.36C337.413 26.1829 348.494 25.2572 347.919 25.1543C347.487 25.0515 336.117 25.4629 329.929 24.4343C326.763 23.9201 326.475 23.9201 321.726 22.7886C316.977 21.6572 314.098 21.7601 313.955 22.0686ZM253.942 24.5372C253.366 24.64 248.905 26.1829 241.853 27.2115C234.801 28.3429 229.045 27.7257 229.045 28.0343C229.045 28.3429 230.483 28.96 237.967 28.3429C245.451 27.7257 254.517 24.4343 253.942 24.5372ZM255.957 27.1086C255.669 27.0057 251.064 28.4457 247.753 28.8572C244.443 29.1657 245.019 29.3714 245.019 29.4743C245.019 29.5772 246.602 29.68 248.905 29.2686C251.351 28.7543 256.245 27.2115 255.957 27.1086ZM224.295 29.4743C224.151 29.2686 219.258 28.6514 216.236 27.6229C213.213 26.5943 213.645 27.0057 213.502 27.1086C213.358 27.2115 214.653 27.9315 216.955 28.4457C219.258 29.0629 224.439 29.68 224.295 29.4743ZM264.879 22.5829C265.023 22.2744 264.447 22.0686 262.145 22.7886C259.842 23.5086 258.403 24.1258 258.979 24.0229C259.555 23.9201 260.274 23.6115 262.577 23.2C265.023 22.7886 264.736 22.8915 264.879 22.5829ZM309.349 21.2458C309.637 21.2458 306.327 20.4229 304.6 20.32C302.873 20.2172 301.722 20.2172 301.722 20.5258C301.722 20.8343 301.866 21.04 304.024 20.9372C306.327 20.8343 309.061 21.2458 309.349 21.2458ZM139.961 12.2973C140.105 12.1944 143.415 12.6058 150.755 12.6058C157.951 12.6058 170.327 15.0744 175.508 16.2058C180.689 17.3372 161.117 12.1944 151.762 11.9887C142.407 11.783 139.817 12.4001 139.961 12.2973Z" fill="#BFD8BD"/>
<path d="M-28.9959 15.4857C-28.8519 15.5886 -22.3757 15.1772 -18.6339 15.4857C-8.12808 16.2057 5.8317 18.7771 5.25602 18.4686C4.68033 18.16 -14.4604 15.28 -19.2096 15.0743C-26.2614 14.6629 -29.1397 15.4857 -28.9959 15.4857Z" fill="#BFD8BD"/>
<path d="M31.736 23.92C32.0237 24.0228 38.2123 24.9486 45.4081 25.1543C52.6039 25.36 63.6851 24.5371 63.1099 24.64C62.6781 24.7429 54.6187 26.4915 43.9692 25.8743C33.3191 25.2572 31.4484 23.8172 31.736 23.92Z" fill="#BFD8BD"/>
<path d="M64.6934 20.2167C64.8368 20.3196 61.8149 21.2453 60.0877 21.3481C58.3612 21.451 57.21 21.3481 57.21 21.0396C57.21 20.731 57.3534 20.5253 59.5124 20.6282C61.9591 20.731 64.5492 20.1139 64.6934 20.2167Z" fill="#BFD8BD"/>
<path d="M69.7295 23.0969C69.7295 23.1998 76.0617 21.8627 78.7966 20.8341C81.5309 19.9084 87.7189 17.6456 87.5754 17.6456C87.4313 17.5427 81.5309 19.2913 78.5083 20.3198C75.4864 21.3484 69.7295 22.9941 69.7295 23.0969Z" fill="#BFD8BD"/>
<path d="M136.651 6.53748C136.795 6.64031 143.27 6.22892 147.012 6.53748C157.518 7.2575 171.478 9.82888 170.902 9.52032C170.327 9.21176 151.186 6.33175 146.437 6.12602C139.385 5.71463 136.506 6.43465 136.651 6.53748Z" fill="#BFD8BD"/>
<path d="M298.7 14.1496C298.7 14.1496 296.973 14.4582 294.526 14.2524C292.08 14.0467 286.179 13.3267 282.725 13.5324C276.681 13.9439 272.075 16.3095 272.651 16.2067C273.226 16.2067 278.839 13.9439 285.028 14.2524C287.618 14.3553 292.368 14.7667 294.67 14.6638C296.973 14.561 298.7 14.1496 298.7 14.1496Z" fill="#BFD8BD"/>
<path d="M250.344 21.0389C250.056 20.9361 247.465 21.8618 244.155 22.1704C240.846 22.3761 241.133 22.479 241.133 22.6846C241.133 22.7875 243.723 23.0961 246.027 22.6846C248.329 22.1704 250.632 21.1418 250.344 21.0389Z" fill="#BFD8BD"/>
<path d="M336.549 20.4222C336.549 20.525 330.361 20.4222 326.907 19.9079C323.453 19.3936 319.711 17.9536 319.711 17.8507C319.711 17.7479 323.597 18.6736 327.051 19.2908C330.361 19.9079 336.406 20.3193 336.549 20.4222Z" fill="#BFD8BD"/>
</g>
</g>
<defs>
<clipPath id="clip0_32_2257">
<rect width="40" height="606.13" fill="white" transform="translate(-49 40) rotate(-90)"/>
</clipPath>
<clipPath id="clip1_32_2257">
<rect width="28" height="408" fill="white" transform="translate(-49 34) rotate(-90)"/>
</clipPath>
</defs>
</svg>
