<svg width="24" height="251" viewBox="0 0 24 251" fill="none" xmlns="http://www.w3.org/2000/svg">
<circle cx="12" cy="239" r="11" fill="white"/>
<path d="M24 239C24 245.627 18.6274 251 12 251C5.37258 251 0 245.627 0 239C0 232.373 5.37258 227 12 227C18.6274 227 24 232.373 24 239ZM2.4 239C2.4 244.302 6.69807 248.6 12 248.6C17.3019 248.6 21.6 244.302 21.6 239C21.6 233.698 17.3019 229.4 12 229.4C6.69807 229.4 2.4 233.698 2.4 239Z" fill="black"/>
<circle cx="12" cy="239" r="7" fill="#D4FA95"/>
<line x1="11" y1="227" x2="11" y2="-4.37114e-08" stroke="black" stroke-width="2"/>
</svg>
