<svg width="16" height="14" viewBox="0 0 16 14" fill="none" xmlns="http://www.w3.org/2000/svg">
<path d="M1.84625 13.6663C1.46264 13.6663 1.14236 13.5379 0.885417 13.2809C0.628472 13.024 0.5 12.7037 0.5 12.3201V4.17926C0.5 3.79565 0.628472 3.47537 0.885417 3.21842C1.14236 2.96148 1.46264 2.83301 1.84625 2.83301H5.5V1.67905C5.5 1.29558 5.62847 0.975369 5.88542 0.718424C6.14236 0.46148 6.46264 0.333008 6.84625 0.333008H9.15375C9.53736 0.333008 9.85764 0.46148 10.1146 0.718424C10.3715 0.975369 10.5 1.29558 10.5 1.67905V2.83301H14.1538C14.5374 2.83301 14.8576 2.96148 15.1146 3.21842C15.3715 3.47537 15.5 3.79565 15.5 4.17926V12.3201C15.5 12.7037 15.3715 13.024 15.1146 13.2809C14.8576 13.5379 14.5374 13.6663 14.1538 13.6663H1.84625ZM1.84625 12.833H14.1538C14.2821 12.833 14.3997 12.7796 14.5065 12.6728C14.6133 12.566 14.6667 12.4484 14.6667 12.3201V4.17926C14.6667 4.05092 14.6133 3.93336 14.5065 3.82655C14.3997 3.71974 14.2821 3.66634 14.1538 3.66634H1.84625C1.71792 3.66634 1.60035 3.71974 1.49354 3.82655C1.38674 3.93336 1.33333 4.05092 1.33333 4.17926V12.3201C1.33333 12.4484 1.38674 12.566 1.49354 12.6728C1.60035 12.7796 1.71792 12.833 1.84625 12.833ZM6.33333 2.83301H9.66667V1.67905C9.66667 1.55085 9.61326 1.43336 9.50646 1.32655C9.39965 1.21974 9.28208 1.16634 9.15375 1.16634H6.84625C6.71792 1.16634 6.60035 1.21974 6.49354 1.32655C6.38674 1.43336 6.33333 1.55085 6.33333 1.67905V2.83301Z" fill="#1C1B1F"/>
</svg>
