<svg width="1944" height="3541" viewBox="0 0 1944 3541" fill="none" xmlns="http://www.w3.org/2000/svg">
<g opacity="0.12" clip-path="url(#clip0_1663_1294)">
<path d="M2159.07 -364.705C1808.83 -386.363 1635.51 -324.996 1505.53 115.397C1445.23 319.695 1306.94 350.031 920.591 357.251C665.403 362.019 663.916 487.727 573.675 611.704C435.386 801.693 224.953 875.29 40.0797 875.29C6.48376 875.29 -153.583 873.7 -268.262 804.275" stroke="#999999" stroke-width="1.33333" stroke-miterlimit="10" stroke-linecap="round" stroke-linejoin="round"/>
<path d="M2146.45 -390.111C1796.05 -415.934 1620.64 -352.179 1492.2 80.6878C1431.67 284.036 1299.44 319.487 911.566 323.791C731.373 325.792 666.011 383.804 621.434 467.918C606.276 496.516 567.185 573.344 526.428 617.119C403.243 749.431 235.043 842.579 40.0804 842.579C-63.4303 842.579 -198.971 821.773 -337.549 720.92" stroke="#999999" stroke-width="1.33333" stroke-miterlimit="10" stroke-linecap="round" stroke-linejoin="round"/>
<path d="M596.725 462.178C596.751 462.152 596.777 462.126 596.777 462.074C649.386 366.231 701.168 291.043 902.539 290.32C1291.93 288.951 1418.12 248.388 1478.86 45.9852C1605.77 -379.373 1783.28 -445.498 2133.83 -415.521" stroke="#999999" stroke-width="1.33333" stroke-miterlimit="10" stroke-linecap="round" stroke-linejoin="round"/>
<path d="M653.027 283.4C700.574 245.471 768.653 222.104 884.486 223.42C1276.95 227.861 1391.02 177.048 1452.21 -23.4445C1576.05 -433.724 1757.71 -504.652 2108.59 -466.335" stroke="#999999" stroke-width="1.33333" stroke-miterlimit="10" stroke-linecap="round" stroke-linejoin="round"/>
<path d="M658.451 236.047C705.972 205.786 771.985 188.022 875.446 189.958C1269.43 197.317 1377.47 141.391 1438.86 -58.1462C1561.17 -460.912 1744.95 -534.215 2095.99 -491.741" stroke="#999999" stroke-width="1.33333" stroke-miterlimit="10" stroke-linecap="round" stroke-linejoin="round"/>
<path d="M660.207 193.365C707.496 168.139 771.494 154.016 866.433 156.494C1261.94 166.771 1364.35 105.861 1425.53 -92.8495C1547.15 -487.844 1732.17 -563.806 2083.39 -517.149" stroke="#999999" stroke-width="1.33333" stroke-miterlimit="10" stroke-linecap="round" stroke-linejoin="round"/>
<path d="M659.226 153.346C706.23 131.683 768.472 120.064 857.394 123.033C1254.45 136.227 1350.84 70.2311 1412.2 -127.576C1532.4 -514.979 1719.38 -593.369 2070.76 -542.555" stroke="#999999" stroke-width="1.33333" stroke-miterlimit="10" stroke-linecap="round" stroke-linejoin="round"/>
<path d="M655.894 115.105C702.692 95.947 763.643 86.1613 848.38 89.5695C1246.94 105.681 1337.33 34.5988 1398.88 -162.279C1517.6 -542.143 1706.63 -622.933 2058.15 -567.963" stroke="#999999" stroke-width="1.33333" stroke-miterlimit="10" stroke-linecap="round" stroke-linejoin="round"/>
<path d="M650.418 78.1055C697.216 60.7028 757.341 52.208 839.341 56.1068C1239.45 75.1361 1323.82 -1.05863 1385.55 -196.981C1502.8 -569.305 1693.84 -652.523 2045.52 -593.369" stroke="#999999" stroke-width="1.33333" stroke-miterlimit="10" stroke-linecap="round" stroke-linejoin="round"/>
<path d="M642.8 42.0859C689.804 25.8452 749.671 18.2541 830.327 22.6435C1231.96 44.5905 1310.32 -36.6909 1372.2 -231.709C1487.98 -596.468 1681.06 -682.088 2032.92 -618.777" stroke="#999999" stroke-width="1.33333" stroke-miterlimit="10" stroke-linecap="round" stroke-linejoin="round"/>
<path d="M633.141 6.8418C680.636 -8.80512 740.838 -15.7765 821.288 -10.8191C1224.44 14.0456 1296.81 -72.3481 1358.87 -266.411C1473.15 -623.631 1668.3 -711.651 2020.29 -644.184" stroke="#999999" stroke-width="1.33333" stroke-miterlimit="10" stroke-linecap="round" stroke-linejoin="round"/>
<path d="M641.405 340.773C688.513 289.805 757.496 256.342 893.499 256.884C1284.44 258.408 1404.56 212.706 1465.53 11.2586C1590.9 -406.561 1770.5 -475.087 2121.22 -440.927" stroke="#999999" stroke-width="1.33333" stroke-miterlimit="10" stroke-linecap="round" stroke-linejoin="round"/>
<path d="M596.777 462.074C596.777 462.126 596.751 462.152 596.725 462.178" stroke="#999999" stroke-width="1.33333" stroke-miterlimit="10" stroke-linecap="round" stroke-linejoin="round"/>
<path d="M173.167 1472.67C173.167 1472.67 283.422 1240.08 512.556 1133.34C830.328 985.343 1126.4 1082.81 1249.93 944.47C1296.32 892.52 1316.77 838.04 1327.49 786.451" stroke="#999999" stroke-width="1.33333" stroke-miterlimit="10" stroke-linecap="round" stroke-linejoin="round"/>
<path d="M202.3 1490.74C202.3 1490.74 306.717 1259.5 546.802 1154.03C862.481 1015.35 1156.91 1113 1280.85 973.621C1329.81 918.65 1349.29 860.374 1358.87 805.61" stroke="#999999" stroke-width="1.33333" stroke-miterlimit="10" stroke-linecap="round" stroke-linejoin="round"/>
<path d="M231.433 1508.82C231.433 1508.82 329.807 1278.86 581.049 1174.68C894.275 1044.81 1187.38 1143.15 1311.76 1002.8C1364.11 943.825 1382.09 880.592 1390.22 821.774" stroke="#999999" stroke-width="1.33333" stroke-miterlimit="10" stroke-linecap="round" stroke-linejoin="round"/>
<path d="M260.591 1526.89C260.591 1526.89 352.689 1298.15 615.268 1195.34C925.757 1073.8 1217.88 1173.31 1342.68 1031.97C1399.21 968.121 1414.81 898.666 1421.29 835.148" stroke="#999999" stroke-width="1.33333" stroke-miterlimit="10" stroke-linecap="round" stroke-linejoin="round"/>
<path d="M289.724 1544.96C289.724 1544.96 375.391 1317.34 649.515 1215.99C956.956 1102.36 1248.36 1203.5 1373.59 1061.12C1434.98 991.617 1447.12 914.673 1451.85 845.941" stroke="#999999" stroke-width="1.33333" stroke-miterlimit="10" stroke-linecap="round" stroke-linejoin="round"/>
<path d="M318.856 1563.04C318.856 1563.04 397.964 1336.44 683.761 1236.68C987.922 1130.5 1278.86 1233.65 1404.51 1090.3C1471.37 1014.37 1478.6 928.669 1481.73 854.436" stroke="#999999" stroke-width="1.33333" stroke-miterlimit="10" stroke-linecap="round" stroke-linejoin="round"/>
<path d="M347.988 1581.11C347.988 1581.11 420.38 1355.39 718.007 1257.33C1018.68 1158.26 1309.33 1263.84 1435.42 1119.48C1508.38 1036.39 1508.85 940.468 1511.01 860.787" stroke="#999999" stroke-width="1.33333" stroke-miterlimit="10" stroke-linecap="round" stroke-linejoin="round"/>
<path d="M377.121 1599.19C377.121 1599.19 442.643 1374.19 752.228 1277.99C1049.29 1185.68 1339.84 1294 1466.33 1148.63C1545.98 1057.66 1537.46 949.969 1539.97 865.332" stroke="#999999" stroke-width="1.33333" stroke-miterlimit="10" stroke-linecap="round" stroke-linejoin="round"/>
<path d="M2210.97 493.291C2217.86 679.711 2111.87 746.998 1922.07 754.615" stroke="#999999" stroke-width="1.33333" stroke-miterlimit="10" stroke-linecap="round" stroke-linejoin="round"/>
<path d="M406.253 1617.26C406.253 1617.26 464.802 1392.83 786.474 1298.67C1079.74 1212.79 1370.34 1324.15 1497.25 1177.81C1584.23 1078.14 1563.8 956.76 1568.92 868.146" stroke="#999999" stroke-width="1.33333" stroke-miterlimit="10" stroke-linecap="round" stroke-linejoin="round"/>
<path d="M2234.81 517.072C2243.49 724.355 2112.93 785.006 1887.18 781.03" stroke="#999999" stroke-width="1.33333" stroke-miterlimit="10" stroke-linecap="round" stroke-linejoin="round"/>
<path d="M435.386 1635.34C435.386 1635.34 486.858 1411.3 820.72 1319.32C1110.06 1239.59 1400.81 1354.34 1528.16 1206.98C1623.33 1097.63 1587.2 960.065 1598.88 869.282" stroke="#999999" stroke-width="1.33333" stroke-miterlimit="10" stroke-linecap="round" stroke-linejoin="round"/>
<path d="M2258.65 540.852C2269.29 768.894 2111.85 820.276 1849.91 804.396" stroke="#999999" stroke-width="1.33333" stroke-miterlimit="10" stroke-linecap="round" stroke-linejoin="round"/>
<path d="M464.519 1653.41C464.519 1653.41 508.837 1429.58 854.966 1339.98C1140.27 1266.14 1431.31 1384.5 1559.08 1236.13C1663.73 1115.55 1606.26 958.129 1631.52 868.534" stroke="#999999" stroke-width="1.33333" stroke-miterlimit="10" stroke-linecap="round" stroke-linejoin="round"/>
<path d="M2282.48 564.632C2295.19 812.246 2110.3 852.525 1815.05 825.698C1813.01 825.518 1810.99 825.337 1809 825.208" stroke="#999999" stroke-width="1.33333" stroke-miterlimit="10" stroke-linecap="round" stroke-linejoin="round"/>
<path d="M493.651 1671.48C493.651 1671.48 530.687 1447.62 889.213 1360.64C1170.41 1292.42 1461.79 1414.65 1589.99 1265.31C1706.88 1130.19 1617.11 945.503 1671.99 864.634" stroke="#999999" stroke-width="1.33333" stroke-miterlimit="10" stroke-linecap="round" stroke-linejoin="round"/>
<path d="M522.791 1689.57C522.791 1689.57 552.492 1465.44 923.44 1381.31C1200.46 1318.48 1491.99 1444.57 1620.91 1294.48C1780.19 1109.03 1546.38 824.903 1839.58 851.552C2132.78 878.198 2320.33 838.856 2306.31 588.402" stroke="#999999" stroke-width="1.33333" stroke-miterlimit="10" stroke-linecap="round" stroke-linejoin="round"/>
<path d="M551.926 1707.64C551.926 1707.64 574.219 1483.01 957.681 1401.97C1230.47 1344.32 1522.47 1474.73 1651.82 1323.64C1809.7 1139.24 1572.95 850.937 1864.11 877.4C2155.27 903.862 2345.47 865.453 2330.15 612.176" stroke="#999999" stroke-width="1.33333" stroke-miterlimit="10" stroke-linecap="round" stroke-linejoin="round"/>
<path d="M581.061 1725.72C581.061 1725.72 595.886 1500.31 991.922 1422.63C1260.43 1369.97 1552.95 1504.9 1682.74 1352.81C1839.21 1169.45 1599.53 876.974 1888.63 903.251C2177.75 929.525 2370.6 892.047 2353.98 635.952" stroke="#999999" stroke-width="1.33333" stroke-miterlimit="10" stroke-linecap="round" stroke-linejoin="round"/>
<path d="M610.196 1743.79C610.196 1743.79 617.5 1517.33 1026.16 1443.3C1290.36 1395.43 1583.44 1535.06 1713.65 1381.98C1868.72 1199.67 1626.1 903.008 1913.16 929.099C2200.23 955.191 2395.73 918.645 2377.82 659.727" stroke="#999999" stroke-width="1.33333" stroke-miterlimit="10" stroke-linecap="round" stroke-linejoin="round"/>
<path d="M639.329 1761.86C639.329 1761.86 639.076 1534.05 1060.4 1463.96C1320.26 1420.73 1613.93 1565.23 1744.57 1411.15C1898.24 1229.88 1652.67 929.045 1937.69 954.951C2222.71 980.856 2420.87 945.242 2401.65 683.502" stroke="#999999" stroke-width="1.33333" stroke-miterlimit="10" stroke-linecap="round" stroke-linejoin="round"/>
<path d="M668.464 1779.94C668.464 1779.94 660.615 1550.45 1094.64 1484.62C1350.16 1445.87 1644.42 1595.4 1775.48 1440.32C1927.76 1260.11 1679.24 955.082 1962.22 980.798C2245.2 1006.52 2446 971.839 2425.49 707.277" stroke="#999999" stroke-width="1.33333" stroke-miterlimit="10" stroke-linecap="round" stroke-linejoin="round"/>
<path d="M697.599 1798.01C697.599 1798.01 682.134 1566.5 1128.88 1505.28C1380.05 1470.87 1675.23 1625.84 1806.39 1469.49C1957.64 1290.63 1705.82 981.116 1986.75 1006.65C2267.68 1032.18 2471.14 998.434 2449.32 731.052" stroke="#999999" stroke-width="1.33333" stroke-miterlimit="10" stroke-linecap="round" stroke-linejoin="round"/>
<path d="M726.734 1816.09C726.734 1816.09 703.637 1582.2 1163.12 1525.95C1409.95 1495.73 1705.72 1656.01 1837.31 1498.65C1987.15 1320.85 1732.39 1007.15 2011.28 1032.5C2290.16 1057.85 2496.27 1025.03 2473.16 754.825" stroke="#999999" stroke-width="1.33333" stroke-miterlimit="10" stroke-linecap="round" stroke-linejoin="round"/>
<path d="M755.87 1834.16C755.87 1834.16 725.138 1597.51 1197.36 1546.61C1439.87 1520.47 1736.21 1686.17 1868.22 1527.82C2016.67 1351.06 1758.96 1033.19 2035.81 1058.35C2312.64 1083.51 2521.4 1051.63 2496.99 778.599" stroke="#999999" stroke-width="1.33333" stroke-miterlimit="10" stroke-linecap="round" stroke-linejoin="round"/>
<path d="M785.004 1852.24C785.004 1852.24 746.646 1612.43 1231.6 1567.27C1469.8 1545.1 1766.71 1716.34 1899.14 1556.99C2046.17 1381.27 1785.54 1059.22 2060.33 1084.2C2335.13 1109.18 2546.54 1078.23 2520.82 802.374" stroke="#999999" stroke-width="1.33333" stroke-miterlimit="10" stroke-linecap="round" stroke-linejoin="round"/>
<path d="M814.136 1870.31C814.136 1870.31 768.173 1626.91 1265.84 1587.94C1499.77 1569.62 1797.19 1746.51 1930.05 1586.16C2075.69 1411.49 1812.11 1085.26 2084.86 1110.05C2357.61 1134.84 2571.67 1104.82 2544.66 826.15" stroke="#999999" stroke-width="1.33333" stroke-miterlimit="10" stroke-linecap="round" stroke-linejoin="round"/>
<path d="M843.274 1888.38C843.274 1888.38 789.73 1640.95 1300.09 1608.6C1529.78 1594.04 1827.69 1776.68 1960.96 1615.33C2105.2 1441.7 1838.68 1111.3 2109.39 1135.9C2380.09 1160.5 2596.82 1131.42 2568.5 849.925" stroke="#999999" stroke-width="1.33333" stroke-miterlimit="10" stroke-linecap="round" stroke-linejoin="round"/>
<path d="M872.407 1906.46C872.407 1906.46 811.334 1654.52 1334.32 1629.26C1559.83 1618.37 1858.17 1806.85 1991.88 1644.49C2134.71 1471.91 1865.26 1137.33 2133.92 1161.75C2402.58 1186.17 2621.95 1158.02 2592.33 873.7" stroke="#999999" stroke-width="1.33333" stroke-miterlimit="10" stroke-linecap="round" stroke-linejoin="round"/>
<path d="M901.542 1924.54C901.542 1924.54 835.498 1704.54 1368.57 1649.93C1588.9 1627.35 1888.67 1837.02 2022.79 1673.66C2164.22 1502.13 1891.83 1163.37 2158.44 1187.6C2425.06 1211.83 2647.08 1184.61 2616.16 897.475" stroke="#999999" stroke-width="1.33333" stroke-miterlimit="10" stroke-linecap="round" stroke-linejoin="round"/>
<path d="M930.677 1942.61C930.677 1942.61 856.043 1709.56 1402.81 1670.59C1619.58 1655.14 1919.16 1867.18 2053.71 1702.83C2193.73 1532.34 1918.4 1189.4 2182.97 1213.45C2447.54 1237.5 2672.21 1211.21 2640 921.25" stroke="#999999" stroke-width="1.33333" stroke-miterlimit="10" stroke-linecap="round" stroke-linejoin="round"/>
<path d="M959.812 1960.68C959.812 1960.68 876.989 1712.93 1437.05 1691.25C1650.17 1683 1949.65 1897.35 2084.62 1732C2223.25 1562.55 1944.97 1215.44 2207.5 1239.3C2470.03 1263.16 2697.34 1237.81 2663.84 945.022" stroke="#999999" stroke-width="1.33333" stroke-miterlimit="10" stroke-linecap="round" stroke-linejoin="round"/>
<path d="M988.947 1978.76C988.947 1978.76 898.515 1703.65 1471.29 1711.91C1680.63 1714.94 1980.14 1927.52 2115.54 1761.17C2252.76 1592.77 1971.55 1241.47 2232.03 1265.15C2492.51 1288.82 2722.47 1264.4 2687.68 968.797" stroke="#999999" stroke-width="1.33333" stroke-miterlimit="10" stroke-linecap="round" stroke-linejoin="round"/>
<path d="M1018.08 1996.83C1018.08 1996.83 920.591 1714.53 1505.53 1732.58C1711.02 1738.92 2010.63 1957.69 2146.45 1790.34C2282.27 1622.98 1998.12 1267.51 2256.55 1291C2514.99 1314.49 2747.62 1291 2711.52 992.573" stroke="#999999" stroke-width="1.33333" stroke-miterlimit="10" stroke-linecap="round" stroke-linejoin="round"/>
<path d="M1603.09 -130.778H1603.32C1879.56 -130.778 2103.5 93.081 2103.5 369.277C2103.5 645.448 1879.56 869.308 1603.32 869.308C1327.08 869.308 1103.13 645.448 1103.13 369.277C1103.13 362.952 1103.26 356.677 1103.47 350.403" stroke="#999999" stroke-width="1.33333" stroke-miterlimit="10" stroke-linecap="round" stroke-linejoin="round"/>
<path d="M1588.24 -102.608C1593.25 -102.763 1598.28 -102.84 1603.32 -102.84C1864.12 -102.84 2075.56 108.522 2075.56 369.278C2075.56 630.009 1864.12 841.371 1603.32 841.371C1342.5 841.371 1131.08 630.009 1131.08 369.278C1131.08 362.255 1131.23 355.284 1131.54 348.338" stroke="#999999" stroke-width="1.33333" stroke-miterlimit="10" stroke-linecap="round" stroke-linejoin="round"/>
<path d="M1574.47 -73.9743C1584 -74.594 1593.63 -74.9038 1603.32 -74.9038C1848.7 -74.9038 2047.62 123.962 2047.62 369.278C2047.62 614.568 1848.7 813.459 1603.32 813.459C1357.94 813.459 1159.02 614.568 1159.02 369.278C1159.02 361.402 1159.23 353.605 1159.62 345.833" stroke="#999999" stroke-width="1.33333" stroke-miterlimit="10" stroke-linecap="round" stroke-linejoin="round"/>
<path d="M1561.71 -44.9262C1575.4 -46.2946 1589.27 -46.9918 1603.32 -46.9918C1833.25 -46.9918 2019.67 139.377 2019.67 369.278C2019.67 599.154 1833.25 785.522 1603.32 785.522C1373.36 785.522 1186.97 599.154 1186.97 369.278C1186.97 360.37 1187.25 351.514 1187.82 342.761" stroke="#999999" stroke-width="1.33333" stroke-miterlimit="10" stroke-linecap="round" stroke-linejoin="round"/>
<path d="M1549.73 -15.3883C1567.24 -17.8154 1585.14 -19.0547 1603.32 -19.0547C1817.84 -19.0547 1991.73 154.817 1991.73 369.278C1991.73 583.713 1817.84 757.585 1603.32 757.585C1388.8 757.585 1214.91 583.713 1214.91 369.278C1214.91 359.079 1215.3 348.983 1216.07 338.991" stroke="#999999" stroke-width="1.33333" stroke-miterlimit="10" stroke-linecap="round" stroke-linejoin="round"/>
<path d="M1538.39 14.7175C1559.47 10.8704 1581.16 8.88219 1603.32 8.88219C1802.39 8.88219 1963.78 170.231 1963.78 369.278C1963.78 568.298 1802.39 729.647 1603.32 729.647C1404.25 729.647 1242.86 568.298 1242.86 369.278C1242.86 357.478 1243.42 345.833 1244.54 334.317" stroke="#999999" stroke-width="1.33333" stroke-miterlimit="10" stroke-linecap="round" stroke-linejoin="round"/>
<path d="M1527.62 45.4948C1551.92 39.8144 1577.29 36.8193 1603.32 36.8193C1786.97 36.8193 1935.84 185.672 1935.84 369.278C1935.84 552.858 1786.97 701.71 1603.32 701.71C1419.67 701.71 1270.8 552.858 1270.8 369.278C1270.8 355.464 1271.65 341.831 1273.28 328.456" stroke="#999999" stroke-width="1.33333" stroke-miterlimit="10" stroke-linecap="round" stroke-linejoin="round"/>
<path d="M1517.24 77.0991C1544.54 69.0691 1573.41 64.7571 1603.32 64.7571C1771.53 64.7571 1907.89 201.087 1907.89 369.278C1907.89 537.444 1771.53 673.773 1603.32 673.773C1435.11 673.773 1298.75 537.444 1298.75 369.278C1298.75 352.857 1300.04 336.719 1302.57 320.995" stroke="#999999" stroke-width="1.33333" stroke-miterlimit="10" stroke-linecap="round" stroke-linejoin="round"/>
<path d="M1507.17 109.864C1537.1 98.7618 1569.51 92.6941 1603.32 92.6941C1756.11 92.6941 1879.95 216.527 1879.95 369.278C1879.95 522.003 1756.11 645.836 1603.32 645.836C1450.53 645.836 1326.69 522.003 1326.69 369.278C1326.69 349.345 1328.81 329.902 1332.84 311.157" stroke="#999999" stroke-width="1.33333" stroke-miterlimit="10" stroke-linecap="round" stroke-linejoin="round"/>
<path d="M1495.78 145.031C1528.34 129.384 1564.81 120.631 1603.32 120.631C1740.67 120.631 1852 231.941 1852 369.278C1852 506.588 1740.67 617.898 1603.32 617.898C1465.97 617.898 1354.61 506.588 1354.61 369.278C1354.61 344.258 1358.3 320.116 1365.17 297.369" stroke="#999999" stroke-width="1.33333" stroke-miterlimit="10" stroke-linecap="round" stroke-linejoin="round"/>
<path d="M1476.69 188.486C1512.54 163.337 1556.21 148.568 1603.32 148.568C1725.22 148.568 1824.06 247.381 1824.06 369.277C1824.06 491.148 1725.22 589.961 1603.32 589.961C1481.39 589.961 1382.55 491.148 1382.55 369.277C1382.55 335.169 1390.3 302.868 1404.12 274.028" stroke="#999999" stroke-width="1.33333" stroke-miterlimit="10" stroke-linecap="round" stroke-linejoin="round"/>
<path d="M1603.31 176.509C1709.8 176.509 1796.12 262.809 1796.12 369.265C1796.12 475.724 1709.8 562.024 1603.31 562.024C1496.83 562.024 1410.51 475.724 1410.51 369.265C1410.51 262.809 1496.83 176.509 1603.31 176.509Z" stroke="#999999" stroke-width="1.33333" stroke-miterlimit="10" stroke-linecap="round" stroke-linejoin="round"/>
<path d="M1603.31 204.443C1694.37 204.443 1768.18 278.237 1768.18 369.265C1768.18 460.296 1694.37 534.087 1603.31 534.087C1512.26 534.087 1438.45 460.296 1438.45 369.265C1438.45 278.237 1512.26 204.443 1603.31 204.443Z" stroke="#999999" stroke-width="1.33333" stroke-miterlimit="10" stroke-linecap="round" stroke-linejoin="round"/>
<path d="M1603.31 232.38C1678.94 232.38 1740.24 293.664 1740.24 369.265C1740.24 444.866 1678.94 506.152 1603.31 506.152C1527.7 506.152 1466.39 444.866 1466.39 369.265C1466.39 293.664 1527.7 232.38 1603.31 232.38Z" stroke="#999999" stroke-width="1.33333" stroke-miterlimit="10" stroke-linecap="round" stroke-linejoin="round"/>
<path d="M1603.31 260.315C1663.5 260.315 1712.29 309.094 1712.29 369.265C1712.29 429.436 1663.5 478.215 1603.31 478.215C1543.13 478.215 1494.34 429.436 1494.34 369.265C1494.34 309.094 1543.13 260.315 1603.31 260.315Z" stroke="#999999" stroke-width="1.33333" stroke-miterlimit="10" stroke-linecap="round" stroke-linejoin="round"/>
<path d="M1603.31 288.252C1648.07 288.252 1684.35 324.524 1684.35 369.265C1684.35 414.008 1648.07 450.28 1603.31 450.28C1558.56 450.28 1522.28 414.008 1522.28 369.265C1522.28 324.524 1558.56 288.252 1603.31 288.252Z" stroke="#999999" stroke-width="1.33333" stroke-miterlimit="10" stroke-linecap="round" stroke-linejoin="round"/>
<path d="M1656.41 369.266C1656.41 398.582 1632.64 422.344 1603.31 422.344C1573.99 422.344 1550.22 398.582 1550.22 369.266C1550.22 339.952 1573.99 316.187 1603.31 316.187C1632.64 316.187 1656.41 339.952 1656.41 369.266Z" stroke="#999999" stroke-width="1.33333" stroke-miterlimit="10" stroke-linecap="round" stroke-linejoin="round"/>
<path d="M1632.91 369.265C1632.91 385.609 1619.66 398.857 1603.31 398.857C1586.97 398.857 1573.72 385.609 1573.72 369.265C1573.72 352.924 1586.97 339.675 1603.31 339.675C1619.66 339.675 1632.91 352.924 1632.91 369.265Z" stroke="#999999" stroke-width="1.33333" stroke-miterlimit="10" stroke-linecap="round" stroke-linejoin="round"/>
<path d="M660.222 188.602C660.222 531.009 382.573 808.584 40.0796 808.584C-302.418 808.584 -580.065 531.009 -580.065 188.602C-580.065 -153.805 -302.418 -431.38 40.0796 -431.38C382.573 -431.38 660.222 -153.805 660.222 188.602Z" stroke="#999999" stroke-width="1.33333" stroke-miterlimit="10" stroke-linecap="round" stroke-linejoin="round"/>
<path d="M40.0802 -396.745C363.441 -396.745 625.576 -134.675 625.576 188.602C625.576 511.881 363.441 773.949 40.0802 773.949C-283.282 773.949 -545.42 511.881 -545.42 188.602C-545.42 -134.675 -283.282 -396.745 40.0802 -396.745Z" stroke="#999999" stroke-width="1.33333" stroke-miterlimit="10" stroke-linecap="round" stroke-linejoin="round"/>
<path d="M40.0801 -362.107C344.306 -362.107 590.932 -115.547 590.932 188.602C590.932 492.752 344.306 739.314 40.0801 739.314C-264.147 739.314 -510.774 492.752 -510.774 188.602C-510.774 -115.547 -264.147 -362.107 40.0801 -362.107Z" stroke="#999999" stroke-width="1.33333" stroke-miterlimit="10" stroke-linecap="round" stroke-linejoin="round"/>
<path d="M40.0799 -327.473C325.173 -327.473 556.288 -96.417 556.288 188.602C556.288 473.624 325.173 704.677 40.0799 704.677C-245.015 704.677 -476.13 473.624 -476.13 188.602C-476.13 -96.417 -245.015 -327.473 40.0799 -327.473Z" stroke="#999999" stroke-width="1.33333" stroke-miterlimit="10" stroke-linecap="round" stroke-linejoin="round"/>
<path d="M40.0799 -292.837C306.038 -292.837 521.642 -77.2894 521.642 188.602C521.642 454.494 306.038 670.042 40.0799 670.042C-225.881 670.042 -441.484 454.494 -441.484 188.602C-441.484 -77.2894 -225.881 -292.837 40.0799 -292.837Z" stroke="#999999" stroke-width="1.33333" stroke-miterlimit="10" stroke-linecap="round" stroke-linejoin="round"/>
<path d="M40.0795 -258.2C286.905 -258.2 486.998 -58.1595 486.998 188.602C486.998 435.364 286.905 635.404 40.0795 635.404C-206.748 635.404 -406.84 435.364 -406.84 188.602C-406.84 -58.1595 -206.748 -258.2 40.0795 -258.2Z" stroke="#999999" stroke-width="1.33333" stroke-miterlimit="10" stroke-linecap="round" stroke-linejoin="round"/>
<path d="M40.0802 -223.565C267.771 -223.565 452.352 -39.0319 452.352 188.602C452.352 416.237 267.771 600.77 40.0802 600.77C-187.614 600.77 -372.196 416.237 -372.196 188.602C-372.196 -39.0319 -187.614 -223.565 40.0802 -223.565Z" stroke="#999999" stroke-width="1.33333" stroke-miterlimit="10" stroke-linecap="round" stroke-linejoin="round"/>
<path d="M40.0804 -188.927C248.638 -188.927 417.708 -19.9017 417.708 188.603C417.708 397.107 248.638 566.135 40.0804 566.135C-168.479 566.135 -337.549 397.107 -337.549 188.603C-337.549 -19.9017 -168.479 -188.927 40.0804 -188.927Z" stroke="#999999" stroke-width="1.33333" stroke-miterlimit="10" stroke-linecap="round" stroke-linejoin="round"/>
<path d="M40.0801 -154.292C229.504 -154.292 383.064 -0.771417 383.064 188.603C383.064 377.98 229.504 531.5 40.0801 531.5C-149.346 531.5 -302.905 377.98 -302.905 188.603C-302.905 -0.771417 -149.346 -154.292 40.0801 -154.292Z" stroke="#999999" stroke-width="1.33333" stroke-miterlimit="10" stroke-linecap="round" stroke-linejoin="round"/>
<path d="M40.0797 -119.657C210.37 -119.657 348.417 18.3557 348.417 188.602C348.417 358.849 210.37 496.862 40.0797 496.862C-130.212 496.862 -268.262 358.849 -268.262 188.602C-268.262 18.3557 -130.212 -119.657 40.0797 -119.657Z" stroke="#999999" stroke-width="1.33333" stroke-miterlimit="10" stroke-linecap="round" stroke-linejoin="round"/>
<path d="M40.0798 -85.0195C191.236 -85.0195 313.773 37.4861 313.773 188.603C313.773 339.722 191.236 462.228 40.0798 462.228C-111.079 462.228 -233.615 339.722 -233.615 188.603C-233.615 37.4861 -111.079 -85.0195 40.0798 -85.0195Z" stroke="#999999" stroke-width="1.33333" stroke-miterlimit="10" stroke-linecap="round" stroke-linejoin="round"/>
<path d="M40.0804 -50.3848C172.102 -50.3848 279.13 56.6133 279.13 188.603C279.13 320.592 172.102 427.59 40.0804 427.59C-91.9445 427.59 -198.971 320.592 -198.971 188.603C-198.971 56.6133 -91.9445 -50.3848 40.0804 -50.3848Z" stroke="#999999" stroke-width="1.33333" stroke-miterlimit="10" stroke-linecap="round" stroke-linejoin="round"/>
<path d="M40.0798 -15.7497C152.968 -15.7497 244.484 75.741 244.484 188.603C244.484 301.462 152.968 392.955 40.0798 392.955C-72.8101 392.955 -164.326 301.462 -164.326 188.603C-164.326 75.741 -72.8101 -15.7497 40.0798 -15.7497Z" stroke="#999999" stroke-width="1.33333" stroke-miterlimit="10" stroke-linecap="round" stroke-linejoin="round"/>
<path d="M40.0798 18.8842C133.834 18.8842 209.838 94.8698 209.838 188.602C209.838 282.333 133.834 358.316 40.0798 358.316C-53.6772 358.316 -129.68 282.333 -129.68 188.602C-129.68 94.8698 -53.6772 18.8842 40.0798 18.8842Z" stroke="#999999" stroke-width="1.33333" stroke-miterlimit="10" stroke-linecap="round" stroke-linejoin="round"/>
<path d="M40.0797 53.5238C114.7 53.5238 175.193 114.002 175.193 188.604C175.193 263.205 114.7 323.684 40.0797 323.684C-34.5433 323.684 -95.0371 263.205 -95.0371 188.604C-95.0371 114.002 -34.5433 53.5238 40.0797 53.5238Z" stroke="#999999" stroke-width="1.33333" stroke-miterlimit="10" stroke-linecap="round" stroke-linejoin="round"/>
<path d="M40.0803 88.1595C95.5681 88.1595 140.549 133.128 140.549 188.602C140.549 244.076 95.5681 289.047 40.0803 289.047C-15.4089 289.047 -60.3906 244.076 -60.3906 188.602C-60.3906 133.128 -15.4089 88.1595 40.0803 88.1595Z" stroke="#999999" stroke-width="1.33333" stroke-miterlimit="10" stroke-linecap="round" stroke-linejoin="round"/>
<path d="M105.904 188.602C105.904 224.946 76.4326 254.412 40.0797 254.412C3.72355 254.412 -25.7461 224.946 -25.7461 188.602C-25.7461 152.258 3.72355 122.792 40.0797 122.792C76.4326 122.792 105.904 152.258 105.904 188.602Z" stroke="#999999" stroke-width="1.33333" stroke-miterlimit="10" stroke-linecap="round" stroke-linejoin="round"/>
<path d="M79.2956 188.603C79.2956 210.258 61.7376 227.811 40.0797 227.811C18.4194 227.811 0.861328 210.258 0.861328 188.603C0.861328 166.95 18.4194 149.398 40.0797 149.398C61.7376 149.398 79.2956 166.95 79.2956 188.603Z" stroke="#999999" stroke-width="1.33333" stroke-miterlimit="10" stroke-linecap="round" stroke-linejoin="round"/>
<path d="M879.269 1042.2C852.771 1044.91 825.498 1048.06 797.579 1052.11" stroke="#999999" stroke-width="1.33333" stroke-miterlimit="10" stroke-linecap="round" stroke-linejoin="round"/>
<path d="M586.55 1102.95H586.523" stroke="#999999" stroke-width="1.33333" stroke-miterlimit="10" stroke-linecap="round" stroke-linejoin="round"/>
<path d="M454.807 1164.25C442.23 1129.24 435.386 1091.46 435.386 1052.11C435.386 868.714 584.096 720.042 767.542 720.042C939.471 720.042 1080.87 850.614 1097.97 1017.98" stroke="#999999" stroke-width="1.33333" stroke-miterlimit="10" stroke-linecap="round" stroke-linejoin="round"/>
<path d="M480.299 1149.58C469.916 1118.99 464.286 1086.2 464.286 1052.11C464.286 884.671 600.057 748.909 767.543 748.909C925.137 748.909 1054.68 869.101 1069.4 1022.81" stroke="#999999" stroke-width="1.33333" stroke-miterlimit="10" stroke-linecap="round" stroke-linejoin="round"/>
<path d="M506.358 1136.31C497.783 1109.8 493.16 1081.5 493.16 1052.11C493.16 900.628 616.018 777.802 767.543 777.802C910.493 777.802 1027.93 887.124 1040.74 1026.68" stroke="#999999" stroke-width="1.33333" stroke-miterlimit="10" stroke-linecap="round" stroke-linejoin="round"/>
<path d="M532.83 1124.23C525.831 1101.43 522.06 1077.21 522.06 1052.11C522.06 916.559 631.952 806.669 767.542 806.669C895.617 806.669 1000.81 904.733 1012.04 1029.86" stroke="#999999" stroke-width="1.33333" stroke-miterlimit="10" stroke-linecap="round" stroke-linejoin="round"/>
<path d="M559.664 1113.1C553.982 1093.76 550.935 1073.29 550.935 1052.11C550.935 932.516 647.914 835.561 767.543 835.561C880.612 835.561 973.433 922.162 983.273 1032.65" stroke="#999999" stroke-width="1.33333" stroke-miterlimit="10" stroke-linecap="round" stroke-linejoin="round"/>
<path d="M586.782 1102.85C582.263 1086.71 579.835 1069.7 579.835 1052.11C579.835 948.472 663.875 864.453 767.543 864.453C865.529 864.453 946.005 939.512 954.502 1035.25" stroke="#999999" stroke-width="1.33333" stroke-miterlimit="10" stroke-linecap="round" stroke-linejoin="round"/>
<path d="M614.184 1093.5C610.594 1080.31 608.709 1066.42 608.709 1052.11C608.709 964.403 679.81 893.321 767.543 893.321C850.447 893.321 918.5 956.812 925.731 1037.81" stroke="#999999" stroke-width="1.33333" stroke-miterlimit="10" stroke-linecap="round" stroke-linejoin="round"/>
<path d="M641.819 1085.03C639.082 1074.53 637.609 1063.5 637.609 1052.11C637.609 980.36 695.771 922.213 767.543 922.213C835.39 922.213 891.098 974.163 896.961 1040.47" stroke="#999999" stroke-width="1.33333" stroke-miterlimit="10" stroke-linecap="round" stroke-linejoin="round"/>
<path d="M669.659 1077.39C667.593 1069.31 666.482 1060.84 666.482 1052.11C666.482 996.316 711.731 951.079 767.542 951.079C820.409 951.079 863.798 991.668 868.24 1043.36" stroke="#999999" stroke-width="1.33333" stroke-miterlimit="10" stroke-linecap="round" stroke-linejoin="round"/>
<path d="M697.759 1070.55C696.209 1064.66 695.383 1058.49 695.383 1052.11C695.383 1012.27 727.692 979.973 767.542 979.973C805.534 979.973 836.706 1009.33 839.496 1046.59" stroke="#999999" stroke-width="1.33333" stroke-miterlimit="10" stroke-linecap="round" stroke-linejoin="round"/>
<path d="M726.04 1064.43C724.878 1060.53 724.258 1056.4 724.258 1052.11C724.258 1028.2 743.628 1008.84 767.543 1008.84C790.839 1008.84 809.822 1027.2 810.777 1050.26" stroke="#999999" stroke-width="1.33333" stroke-miterlimit="10" stroke-linecap="round" stroke-linejoin="round"/>
<path d="M-623.51 1102.69C-364.505 1357.93 -148.731 1217.6 -27.115 1577.13C94.5012 1936.66 227.929 2051.93 609.878 2070.11" stroke="#999999" stroke-width="1.33333" stroke-miterlimit="10" stroke-linecap="round" stroke-linejoin="round"/>
<path d="M-593.363 1083.07C-335.873 1336.82 -121.362 1197.31 -0.458162 1554.74C120.447 1912.16 253.092 2026.76 632.807 2044.83" stroke="#999999" stroke-width="1.33333" stroke-miterlimit="10" stroke-linecap="round" stroke-linejoin="round"/>
<path d="M-563.212 1063.46C-307.239 1315.71 -93.9936 1177.02 26.1991 1532.34C146.391 1887.66 278.257 2001.58 655.734 2019.55" stroke="#999999" stroke-width="1.33333" stroke-miterlimit="10" stroke-linecap="round" stroke-linejoin="round"/>
<path d="M-533.063 1043.84C-278.608 1294.6 -66.6251 1156.73 52.8545 1509.95C172.336 1863.17 303.419 1976.41 678.66 1994.27" stroke="#999999" stroke-width="1.33333" stroke-miterlimit="10" stroke-linecap="round" stroke-linejoin="round"/>
<path d="M-502.915 1024.23C-249.975 1273.49 -39.2558 1136.45 79.5125 1487.56C198.281 1838.67 328.585 1951.24 701.586 1968.99" stroke="#999999" stroke-width="1.33333" stroke-miterlimit="10" stroke-linecap="round" stroke-linejoin="round"/>
<path d="M-472.765 1004.61C-221.343 1252.38 -11.8874 1116.16 106.17 1465.16C224.225 1814.17 353.748 1926.06 724.515 1943.71" stroke="#999999" stroke-width="1.33333" stroke-miterlimit="10" stroke-linecap="round" stroke-linejoin="round"/>
<path d="M-442.617 984.995C-192.71 1231.27 15.4819 1095.87 132.827 1442.77C250.171 1789.67 378.911 1900.89 747.442 1918.43" stroke="#999999" stroke-width="1.33333" stroke-miterlimit="10" stroke-linecap="round" stroke-linejoin="round"/>
<path d="M-412.467 965.382C-164.078 1210.16 42.8514 1075.58 159.484 1420.38C276.116 1765.17 404.074 1875.72 770.369 1893.15" stroke="#999999" stroke-width="1.33333" stroke-miterlimit="10" stroke-linecap="round" stroke-linejoin="round"/>
<path d="M-382.312 945.761C-135.434 1189.06 70.2226 1055.29 186.133 1397.97C189.775 1408.71 193.417 1419.22 197.057 1429.5" stroke="#999999" stroke-width="1.33333" stroke-miterlimit="10" stroke-linecap="round" stroke-linejoin="round"/>
<path d="M-352.172 926.138C-106.818 1167.94 97.599 1034.99 212.787 1375.59C214.956 1382.02 217.151 1388.37 219.347 1394.62" stroke="#999999" stroke-width="1.33333" stroke-miterlimit="10" stroke-linecap="round" stroke-linejoin="round"/>
<path d="M-322.032 906.54C-78.1766 1146.82 124.95 1014.73 239.466 1353.2C240.472 1356.14 241.455 1359.06 242.462 1361.98" stroke="#999999" stroke-width="1.33333" stroke-miterlimit="10" stroke-linecap="round" stroke-linejoin="round"/>
<path d="M-291.867 886.917C-49.5358 1125.73 152.326 994.432 266.118 1330.81C266.17 1331 266.247 1331.15 266.299 1331.33" stroke="#999999" stroke-width="1.33333" stroke-miterlimit="10" stroke-linecap="round" stroke-linejoin="round"/>
<path d="M-261.728 867.294C-22.3149 1103.21 177.351 975.66 290.782 1302.59" stroke="#999999" stroke-width="1.33333" stroke-miterlimit="10" stroke-linecap="round" stroke-linejoin="round"/>
<path d="M-231.562 847.697C5.21668 1081.03 202.867 956.528 315.86 1275.74" stroke="#999999" stroke-width="1.33333" stroke-miterlimit="10" stroke-linecap="round" stroke-linejoin="round"/>
<path d="M-188.069 840.88C40.5744 1054.75 231.252 942.947 341.532 1250.59" stroke="#999999" stroke-width="1.33333" stroke-miterlimit="10" stroke-linecap="round" stroke-linejoin="round"/>
<path d="M-111.286 860.994C94.8367 1020.07 265.808 943.98 367.824 1227.15" stroke="#999999" stroke-width="1.33333" stroke-miterlimit="10" stroke-linecap="round" stroke-linejoin="round"/>
<path d="M-38.3008 871.502C147.264 990.222 300.597 943.462 394.709 1205.43" stroke="#999999" stroke-width="1.33333" stroke-miterlimit="10" stroke-linecap="round" stroke-linejoin="round"/>
<path d="M32.0518 875.246C198.53 964.325 335.721 942.223 422.215 1185.32" stroke="#999999" stroke-width="1.33333" stroke-miterlimit="10" stroke-linecap="round" stroke-linejoin="round"/>
<path d="M97.4443 872.923C247.393 942.069 370.742 939.28 450.288 1166.99" stroke="#999999" stroke-width="1.33333" stroke-miterlimit="10" stroke-linecap="round" stroke-linejoin="round"/>
<path d="M156.407 865.59C268.391 912.118 364.001 928.333 435.386 1051.75" stroke="#999999" stroke-width="1.33333" stroke-miterlimit="10" stroke-linecap="round" stroke-linejoin="round"/>
<path d="M209.068 854.694C299.073 889.887 377.535 911.266 440.113 996.007" stroke="#999999" stroke-width="1.33333" stroke-miterlimit="10" stroke-linecap="round" stroke-linejoin="round"/>
<path d="M256.098 841.19C330.013 869.359 395.613 891.539 450.262 953.507" stroke="#999999" stroke-width="1.33333" stroke-miterlimit="10" stroke-linecap="round" stroke-linejoin="round"/>
<path d="M298.428 825.827C360.231 849.22 415.862 870.392 463.77 917.617" stroke="#999999" stroke-width="1.33333" stroke-miterlimit="10" stroke-linecap="round" stroke-linejoin="round"/>
<path d="M336.78 808.94C389.518 828.977 437.582 848.497 479.912 885.936" stroke="#999999" stroke-width="1.33333" stroke-miterlimit="10" stroke-linecap="round" stroke-linejoin="round"/>
<path d="M498.506 857.327C460.464 826.369 418.005 808.476 371.801 790.815" stroke="#999999" stroke-width="1.33333" stroke-miterlimit="10" stroke-linecap="round" stroke-linejoin="round"/>
<path d="M519.606 831.12C484.534 804.267 445.794 787.691 403.98 771.605" stroke="#999999" stroke-width="1.33333" stroke-miterlimit="10" stroke-linecap="round" stroke-linejoin="round"/>
<path d="M543.29 807.159C509.896 782.475 473.196 766.699 433.733 751.465" stroke="#999999" stroke-width="1.33333" stroke-miterlimit="10" stroke-linecap="round" stroke-linejoin="round"/>
<path d="M569.762 785.29C536.626 761.019 500.262 745.476 461.161 730.423" stroke="#999999" stroke-width="1.33333" stroke-miterlimit="10" stroke-linecap="round" stroke-linejoin="round"/>
<path d="M599.282 765.744C565.062 740.182 527.329 724.251 486.626 708.656" stroke="#999999" stroke-width="1.33333" stroke-miterlimit="10" stroke-linecap="round" stroke-linejoin="round"/>
<path d="M632.211 748.754H632.185C595.485 719.913 554.602 703.104 510.231 686.166" stroke="#999999" stroke-width="1.33333" stroke-miterlimit="10" stroke-linecap="round" stroke-linejoin="round"/>
<path d="M668.678 735.018H668.653C628.208 700.29 582.366 682.087 532.133 663.031" stroke="#999999" stroke-width="1.33333" stroke-miterlimit="10" stroke-linecap="round" stroke-linejoin="round"/>
<path d="M708.554 725.284H708.528C663.306 681.106 610.775 661.38 552.432 639.304" stroke="#999999" stroke-width="1.33333" stroke-miterlimit="10" stroke-linecap="round" stroke-linejoin="round"/>
<path d="M751.324 720.43H751.298C700.703 661.947 639.856 641.111 571.234 615.032" stroke="#999999" stroke-width="1.33333" stroke-miterlimit="10" stroke-linecap="round" stroke-linejoin="round"/>
<path d="M795.901 721.256H795.875C739.831 642.118 669.428 621.281 588.564 590.09" stroke="#999999" stroke-width="1.33333" stroke-miterlimit="10" stroke-linecap="round" stroke-linejoin="round"/>
<path d="M604.499 564.58C699.128 602.07 779.991 620.842 840.994 728.201" stroke="#999999" stroke-width="1.33333" stroke-miterlimit="10" stroke-linecap="round" stroke-linejoin="round"/>
<path d="M619.633 538.553C729.061 583.635 820.823 597.5 885.725 741.705" stroke="#999999" stroke-width="1.33333" stroke-miterlimit="10" stroke-linecap="round" stroke-linejoin="round"/>
<path d="M634.717 512.269C759.382 566.181 862.043 571.784 929.451 762.104" stroke="#999999" stroke-width="1.33333" stroke-miterlimit="10" stroke-linecap="round" stroke-linejoin="round"/>
<path d="M650.6 486.036C782.135 546.016 890.09 544.235 959.202 748.574C964.368 763.808 969.533 778.474 974.776 792.623" stroke="#999999" stroke-width="1.33333" stroke-miterlimit="10" stroke-linecap="round" stroke-linejoin="round"/>
<path d="M668.291 460.319C803.958 525.411 915.271 517.588 985.856 726.187C1003.44 778.189 1021.37 823.632 1040.79 863.24C1040.79 863.266 1040.81 863.292 1040.81 863.317" stroke="#999999" stroke-width="1.33333" stroke-miterlimit="10" stroke-linecap="round" stroke-linejoin="round"/>
<path d="M1072.68 920.716V920.742C1094.15 954.695 1117.78 983.071 1144.79 1006.7" stroke="#999999" stroke-width="1.33333" stroke-miterlimit="10" stroke-linecap="round" stroke-linejoin="round"/>
<path d="M688.952 435.842C827.383 504.936 941.02 492.491 1012.51 703.802C1059.38 842.403 1108.56 933.935 1182.76 992.624" stroke="#999999" stroke-width="1.33333" stroke-miterlimit="10" stroke-linecap="round" stroke-linejoin="round"/>
<path d="M713.952 413.379C853.21 484.332 967.518 469.589 1039.16 681.39C1087.33 823.814 1137.92 916.172 1216.02 974.086" stroke="#999999" stroke-width="1.33333" stroke-miterlimit="10" stroke-linecap="round" stroke-linejoin="round"/>
<path d="M744.505 393.781C882.058 463.34 994.972 449.526 1065.81 659.004C1114.11 801.737 1164.83 893.811 1243.66 951.157" stroke="#999999" stroke-width="1.33333" stroke-miterlimit="10" stroke-linecap="round" stroke-linejoin="round"/>
<path d="M782.238 377.695C914.806 441.987 1023.64 433.131 1092.47 636.618C1139.86 776.692 1189.6 867.604 1266.36 924.614" stroke="#999999" stroke-width="1.33333" stroke-miterlimit="10" stroke-linecap="round" stroke-linejoin="round"/>
<path d="M829.32 365.663C952.72 420.737 1053.99 421.615 1119.12 614.232C1164.96 749.736 1213.05 838.866 1286.01 895.696" stroke="#999999" stroke-width="1.33333" stroke-miterlimit="10" stroke-linecap="round" stroke-linejoin="round"/>
<path d="M889.806 358.485C997.968 401.449 1086.81 417.406 1145.8 591.82C1189.42 720.817 1235.08 807.443 1302.65 864.066" stroke="#999999" stroke-width="1.33333" stroke-miterlimit="10" stroke-linecap="round" stroke-linejoin="round"/>
<path d="M1220.62 691.227C1248.1 749.116 1278.7 794.275 1316.23 829.08" stroke="#999999" stroke-width="1.33333" stroke-miterlimit="10" stroke-linecap="round" stroke-linejoin="round"/>
<path d="M966.279 356.238C1020.41 376.972 1068.6 398.067 1109.26 447.719" stroke="#999999" stroke-width="1.33333" stroke-miterlimit="10" stroke-linecap="round" stroke-linejoin="round"/>
<path d="M1326.77 789.809C1323.67 786.529 1320.62 783.199 1317.62 779.765" stroke="#999999" stroke-width="1.33333" stroke-miterlimit="10" stroke-linecap="round" stroke-linejoin="round"/>
<path d="M1103.7 393.342C1083.53 376.662 1061.89 364.372 1038.93 353.837" stroke="#999999" stroke-width="1.33333" stroke-miterlimit="10" stroke-linecap="round" stroke-linejoin="round"/>
<path d="M1103.42 352.34C1102.46 351.746 1101.51 351.152 1100.55 350.584" stroke="#999999" stroke-width="1.33333" stroke-miterlimit="10" stroke-linecap="round" stroke-linejoin="round"/>
</g>
<g opacity="0.12" clip-path="url(#clip1_1663_1294)">
<path d="M2166.07 1397.29C1815.83 1375.64 1642.51 1437 1512.53 1877.4C1452.23 2081.7 1313.94 2112.03 927.591 2119.25C672.403 2124.02 670.916 2249.73 580.675 2373.7C442.386 2563.69 231.953 2637.29 47.0797 2637.29C13.4838 2637.29 -146.583 2635.7 -261.262 2566.27" stroke="#999999" stroke-width="1.33333" stroke-miterlimit="10" stroke-linecap="round" stroke-linejoin="round"/>
<path d="M2153.45 1371.89C1803.05 1346.07 1627.64 1409.82 1499.2 1842.69C1438.67 2046.04 1306.44 2081.49 918.566 2085.79C738.373 2087.79 673.011 2145.8 628.434 2229.92C613.276 2258.52 574.185 2335.34 533.428 2379.12C410.243 2511.43 242.043 2604.58 47.0804 2604.58C-56.4303 2604.58 -191.971 2583.77 -330.549 2482.92" stroke="#999999" stroke-width="1.33333" stroke-miterlimit="10" stroke-linecap="round" stroke-linejoin="round"/>
<path d="M603.725 2224.18C603.751 2224.15 603.777 2224.13 603.777 2224.07C656.386 2128.23 708.168 2053.04 909.539 2052.32C1298.93 2050.95 1425.12 2010.39 1485.86 1807.99C1612.77 1382.63 1790.28 1316.5 2140.83 1346.48" stroke="#999999" stroke-width="1.33333" stroke-miterlimit="10" stroke-linecap="round" stroke-linejoin="round"/>
<path d="M660.027 2045.4C707.574 2007.47 775.653 1984.1 891.486 1985.42C1283.95 1989.86 1398.02 1939.05 1459.21 1738.56C1583.05 1328.28 1764.71 1257.35 2115.59 1295.67" stroke="#999999" stroke-width="1.33333" stroke-miterlimit="10" stroke-linecap="round" stroke-linejoin="round"/>
<path d="M665.451 1998.05C712.972 1967.79 778.985 1950.02 882.446 1951.96C1276.43 1959.32 1384.47 1903.39 1445.86 1703.85C1568.17 1301.09 1751.95 1227.78 2102.99 1270.26" stroke="#999999" stroke-width="1.33333" stroke-miterlimit="10" stroke-linecap="round" stroke-linejoin="round"/>
<path d="M667.207 1955.37C714.496 1930.14 778.494 1916.02 873.433 1918.5C1268.94 1928.77 1371.35 1867.86 1432.53 1669.15C1554.15 1274.16 1739.17 1198.19 2090.39 1244.85" stroke="#999999" stroke-width="1.33333" stroke-miterlimit="10" stroke-linecap="round" stroke-linejoin="round"/>
<path d="M666.226 1915.35C713.23 1893.68 775.472 1882.06 864.394 1885.03C1261.45 1898.23 1357.84 1832.23 1419.2 1634.42C1539.4 1247.02 1726.38 1168.63 2077.76 1219.45" stroke="#999999" stroke-width="1.33333" stroke-miterlimit="10" stroke-linecap="round" stroke-linejoin="round"/>
<path d="M662.894 1877.11C709.692 1857.95 770.643 1848.16 855.38 1851.57C1253.94 1867.68 1344.33 1796.6 1405.88 1599.72C1524.6 1219.86 1713.63 1139.07 2065.15 1194.04" stroke="#999999" stroke-width="1.33333" stroke-miterlimit="10" stroke-linecap="round" stroke-linejoin="round"/>
<path d="M657.418 1840.11C704.216 1822.7 764.341 1814.21 846.341 1818.11C1246.45 1837.14 1330.82 1760.94 1392.55 1565.02C1509.8 1192.69 1700.84 1109.48 2052.52 1168.63" stroke="#999999" stroke-width="1.33333" stroke-miterlimit="10" stroke-linecap="round" stroke-linejoin="round"/>
<path d="M649.8 1804.09C696.804 1787.85 756.671 1780.26 837.327 1784.64C1238.96 1806.59 1317.32 1725.31 1379.2 1530.29C1494.98 1165.53 1688.06 1079.91 2039.92 1143.22" stroke="#999999" stroke-width="1.33333" stroke-miterlimit="10" stroke-linecap="round" stroke-linejoin="round"/>
<path d="M640.141 1768.84C687.636 1753.2 747.838 1746.22 828.288 1751.18C1231.44 1776.05 1303.81 1689.65 1365.87 1495.59C1480.15 1138.37 1675.3 1050.35 2027.29 1117.82" stroke="#999999" stroke-width="1.33333" stroke-miterlimit="10" stroke-linecap="round" stroke-linejoin="round"/>
<path d="M648.405 2102.77C695.513 2051.8 764.496 2018.34 900.499 2018.88C1291.44 2020.41 1411.56 1974.71 1472.53 1773.26C1597.9 1355.44 1777.5 1286.91 2128.22 1321.07" stroke="#999999" stroke-width="1.33333" stroke-miterlimit="10" stroke-linecap="round" stroke-linejoin="round"/>
<path d="M603.777 2224.07C603.777 2224.13 603.751 2224.15 603.725 2224.18" stroke="#999999" stroke-width="1.33333" stroke-miterlimit="10" stroke-linecap="round" stroke-linejoin="round"/>
<path d="M180.167 3234.67C180.167 3234.67 290.422 3002.08 519.556 2895.34C837.328 2747.34 1133.4 2844.81 1256.93 2706.47C1303.32 2654.52 1323.77 2600.04 1334.49 2548.45" stroke="#999999" stroke-width="1.33333" stroke-miterlimit="10" stroke-linecap="round" stroke-linejoin="round"/>
<path d="M209.3 3252.74C209.3 3252.74 313.717 3021.5 553.802 2916.03C869.481 2777.35 1163.91 2875 1287.85 2735.62C1336.81 2680.65 1356.29 2622.37 1365.87 2567.61" stroke="#999999" stroke-width="1.33333" stroke-miterlimit="10" stroke-linecap="round" stroke-linejoin="round"/>
<path d="M238.433 3270.82C238.433 3270.82 336.807 3040.86 588.049 2936.68C901.275 2806.81 1194.38 2905.15 1318.76 2764.8C1371.11 2705.82 1389.09 2642.59 1397.22 2583.77" stroke="#999999" stroke-width="1.33333" stroke-miterlimit="10" stroke-linecap="round" stroke-linejoin="round"/>
<path d="M267.591 3288.89C267.591 3288.89 359.689 3060.15 622.268 2957.34C932.757 2835.8 1224.88 2935.31 1349.68 2793.97C1406.21 2730.12 1421.81 2660.67 1428.29 2597.15" stroke="#999999" stroke-width="1.33333" stroke-miterlimit="10" stroke-linecap="round" stroke-linejoin="round"/>
<path d="M296.724 3306.96C296.724 3306.96 382.391 3079.34 656.515 2977.99C963.956 2864.36 1255.36 2965.5 1380.59 2823.12C1441.98 2753.62 1454.12 2676.67 1458.85 2607.94" stroke="#999999" stroke-width="1.33333" stroke-miterlimit="10" stroke-linecap="round" stroke-linejoin="round"/>
<path d="M325.856 3325.04C325.856 3325.04 404.964 3098.44 690.761 2998.68C994.922 2892.5 1285.86 2995.65 1411.51 2852.3C1478.37 2776.37 1485.6 2690.67 1488.73 2616.44" stroke="#999999" stroke-width="1.33333" stroke-miterlimit="10" stroke-linecap="round" stroke-linejoin="round"/>
<path d="M354.988 3343.11C354.988 3343.11 427.38 3117.39 725.007 3019.33C1025.68 2920.26 1316.33 3025.84 1442.42 2881.48C1515.38 2798.39 1515.85 2702.47 1518.01 2622.79" stroke="#999999" stroke-width="1.33333" stroke-miterlimit="10" stroke-linecap="round" stroke-linejoin="round"/>
<path d="M384.121 3361.19C384.121 3361.19 449.643 3136.19 759.228 3039.99C1056.29 2947.68 1346.84 3056 1473.33 2910.63C1552.98 2819.66 1544.46 2711.97 1546.97 2627.33" stroke="#999999" stroke-width="1.33333" stroke-miterlimit="10" stroke-linecap="round" stroke-linejoin="round"/>
<path d="M2217.97 2255.29C2224.86 2441.71 2118.87 2509 1929.07 2516.62" stroke="#999999" stroke-width="1.33333" stroke-miterlimit="10" stroke-linecap="round" stroke-linejoin="round"/>
<path d="M413.253 3379.26C413.253 3379.26 471.802 3154.83 793.474 3060.67C1086.74 2974.79 1377.34 3086.15 1504.25 2939.81C1591.23 2840.14 1570.8 2718.76 1575.92 2630.15" stroke="#999999" stroke-width="1.33333" stroke-miterlimit="10" stroke-linecap="round" stroke-linejoin="round"/>
<path d="M2241.81 2279.07C2250.49 2486.35 2119.93 2547.01 1894.18 2543.03" stroke="#999999" stroke-width="1.33333" stroke-miterlimit="10" stroke-linecap="round" stroke-linejoin="round"/>
<path d="M442.386 3397.34C442.386 3397.34 493.858 3173.3 827.72 3081.32C1117.06 3001.59 1407.81 3116.34 1535.16 2968.98C1630.33 2859.63 1594.2 2722.07 1605.88 2631.28" stroke="#999999" stroke-width="1.33333" stroke-miterlimit="10" stroke-linecap="round" stroke-linejoin="round"/>
<path d="M2265.65 2302.85C2276.29 2530.89 2118.85 2582.28 1856.91 2566.4" stroke="#999999" stroke-width="1.33333" stroke-miterlimit="10" stroke-linecap="round" stroke-linejoin="round"/>
<path d="M471.519 3415.41C471.519 3415.41 515.837 3191.58 861.966 3101.98C1147.27 3028.14 1438.31 3146.5 1566.08 2998.13C1670.73 2877.55 1613.26 2720.13 1638.52 2630.53" stroke="#999999" stroke-width="1.33333" stroke-miterlimit="10" stroke-linecap="round" stroke-linejoin="round"/>
<path d="M2289.48 2326.63C2302.19 2574.25 2117.3 2614.53 1822.05 2587.7C1820.01 2587.52 1817.99 2587.34 1816 2587.21" stroke="#999999" stroke-width="1.33333" stroke-miterlimit="10" stroke-linecap="round" stroke-linejoin="round"/>
<path d="M500.651 3433.48C500.651 3433.48 537.687 3209.62 896.213 3122.64C1177.41 3054.42 1468.79 3176.65 1596.99 3027.31C1713.88 2892.19 1624.11 2707.5 1678.99 2626.63" stroke="#999999" stroke-width="1.33333" stroke-miterlimit="10" stroke-linecap="round" stroke-linejoin="round"/>
<path d="M529.791 3451.57C529.791 3451.57 559.492 3227.44 930.44 3143.31C1207.46 3080.48 1498.99 3206.57 1627.91 3056.48C1787.19 2871.03 1553.38 2586.9 1846.58 2613.55C2139.78 2640.2 2327.33 2600.86 2313.31 2350.4" stroke="#999999" stroke-width="1.33333" stroke-miterlimit="10" stroke-linecap="round" stroke-linejoin="round"/>
<path d="M558.926 3469.64C558.926 3469.64 581.219 3245.01 964.681 3163.97C1237.47 3106.32 1529.47 3236.73 1658.82 3085.64C1816.7 2901.24 1579.95 2612.94 1871.11 2639.4C2162.27 2665.86 2352.47 2627.45 2337.15 2374.18" stroke="#999999" stroke-width="1.33333" stroke-miterlimit="10" stroke-linecap="round" stroke-linejoin="round"/>
<path d="M588.061 3487.72C588.061 3487.72 602.886 3262.31 998.922 3184.63C1267.43 3131.97 1559.95 3266.9 1689.74 3114.81C1846.21 2931.45 1606.53 2638.97 1895.63 2665.25C2184.75 2691.53 2377.6 2654.05 2360.98 2397.95" stroke="#999999" stroke-width="1.33333" stroke-miterlimit="10" stroke-linecap="round" stroke-linejoin="round"/>
<path d="M617.196 3505.79C617.196 3505.79 624.5 3279.33 1033.16 3205.3C1297.36 3157.43 1590.44 3297.06 1720.65 3143.98C1875.72 2961.67 1633.1 2665.01 1920.16 2691.1C2207.23 2717.19 2402.73 2680.64 2384.82 2421.73" stroke="#999999" stroke-width="1.33333" stroke-miterlimit="10" stroke-linecap="round" stroke-linejoin="round"/>
<path d="M646.329 3523.86C646.329 3523.86 646.076 3296.05 1067.4 3225.96C1327.26 3182.73 1620.93 3327.23 1751.57 3173.15C1905.24 2991.88 1659.67 2691.05 1944.69 2716.95C2229.71 2742.86 2427.87 2707.24 2408.65 2445.5" stroke="#999999" stroke-width="1.33333" stroke-miterlimit="10" stroke-linecap="round" stroke-linejoin="round"/>
<path d="M675.464 3541.94C675.464 3541.94 667.615 3312.45 1101.64 3246.62C1357.16 3207.87 1651.42 3357.4 1782.48 3202.32C1934.76 3022.11 1686.24 2717.08 1969.22 2742.8C2252.2 2768.52 2453 2733.84 2432.49 2469.28" stroke="#999999" stroke-width="1.33333" stroke-miterlimit="10" stroke-linecap="round" stroke-linejoin="round"/>
<path d="M704.599 3560.01C704.599 3560.01 689.134 3328.5 1135.88 3267.28C1387.05 3232.87 1682.23 3387.84 1813.39 3231.49C1964.64 3052.63 1712.82 2743.12 1993.75 2768.65C2274.68 2794.18 2478.14 2760.43 2456.32 2493.05" stroke="#999999" stroke-width="1.33333" stroke-miterlimit="10" stroke-linecap="round" stroke-linejoin="round"/>
<path d="M733.734 3578.09C733.734 3578.09 710.637 3344.2 1170.12 3287.95C1416.95 3257.73 1712.72 3418.01 1844.31 3260.65C1994.15 3082.85 1739.39 2769.15 2018.28 2794.5C2297.16 2819.85 2503.27 2787.03 2480.16 2516.83" stroke="#999999" stroke-width="1.33333" stroke-miterlimit="10" stroke-linecap="round" stroke-linejoin="round"/>
<path d="M762.87 3596.16C762.87 3596.16 732.138 3359.51 1204.36 3308.61C1446.87 3282.47 1743.21 3448.17 1875.22 3289.82C2023.67 3113.06 1765.96 2795.19 2042.81 2820.35C2319.64 2845.51 2528.4 2813.63 2503.99 2540.6" stroke="#999999" stroke-width="1.33333" stroke-miterlimit="10" stroke-linecap="round" stroke-linejoin="round"/>
<path d="M792.004 3614.24C792.004 3614.24 753.646 3374.43 1238.6 3329.27C1476.8 3307.1 1773.71 3478.34 1906.14 3318.99C2053.17 3143.27 1792.54 2821.22 2067.33 2846.2C2342.13 2871.18 2553.54 2840.23 2527.82 2564.37" stroke="#999999" stroke-width="1.33333" stroke-miterlimit="10" stroke-linecap="round" stroke-linejoin="round"/>
<path d="M821.136 3632.31C821.136 3632.31 775.173 3388.91 1272.84 3349.94C1506.77 3331.62 1804.19 3508.51 1937.05 3348.16C2082.69 3173.49 1819.11 2847.26 2091.86 2872.05C2364.61 2896.84 2578.67 2866.82 2551.66 2588.15" stroke="#999999" stroke-width="1.33333" stroke-miterlimit="10" stroke-linecap="round" stroke-linejoin="round"/>
<path d="M850.274 3650.38C850.274 3650.38 796.73 3402.95 1307.09 3370.6C1536.78 3356.04 1834.69 3538.68 1967.96 3377.33C2112.2 3203.7 1845.68 2873.3 2116.39 2897.9C2387.09 2922.5 2603.82 2893.42 2575.5 2611.93" stroke="#999999" stroke-width="1.33333" stroke-miterlimit="10" stroke-linecap="round" stroke-linejoin="round"/>
<path d="M879.407 3668.46C879.407 3668.46 818.334 3416.52 1341.32 3391.26C1566.83 3380.37 1865.17 3568.85 1998.88 3406.49C2141.71 3233.91 1872.26 2899.33 2140.92 2923.75C2409.58 2948.17 2628.95 2920.02 2599.33 2635.7" stroke="#999999" stroke-width="1.33333" stroke-miterlimit="10" stroke-linecap="round" stroke-linejoin="round"/>
<path d="M908.542 3686.54C908.542 3686.54 842.498 3466.54 1375.57 3411.93C1595.9 3389.35 1895.67 3599.02 2029.79 3435.66C2171.22 3264.13 1898.83 2925.37 2165.44 2949.6C2432.06 2973.83 2654.08 2946.61 2623.16 2659.47" stroke="#999999" stroke-width="1.33333" stroke-miterlimit="10" stroke-linecap="round" stroke-linejoin="round"/>
<path d="M937.677 3704.61C937.677 3704.61 863.043 3471.56 1409.81 3432.59C1626.58 3417.14 1926.16 3629.18 2060.71 3464.83C2200.73 3294.34 1925.4 2951.4 2189.97 2975.45C2454.54 2999.5 2679.21 2973.21 2647 2683.25" stroke="#999999" stroke-width="1.33333" stroke-miterlimit="10" stroke-linecap="round" stroke-linejoin="round"/>
<path d="M966.812 3722.68C966.812 3722.68 883.988 3474.93 1444.04 3453.25C1657.17 3445 1956.65 3659.35 2091.62 3494C2230.25 3324.55 1951.97 2977.44 2214.5 3001.3C2477.03 3025.16 2704.34 2999.81 2670.84 2707.02" stroke="#999999" stroke-width="1.33333" stroke-miterlimit="10" stroke-linecap="round" stroke-linejoin="round"/>
<path d="M995.947 3740.76C995.947 3740.76 905.515 3465.65 1478.29 3473.91C1687.63 3476.94 1987.14 3689.52 2122.54 3523.17C2259.76 3354.77 1978.55 3003.47 2239.03 3027.15C2499.51 3050.82 2729.47 3026.4 2694.68 2730.8" stroke="#999999" stroke-width="1.33333" stroke-miterlimit="10" stroke-linecap="round" stroke-linejoin="round"/>
<path d="M1025.08 3758.83C1025.08 3758.83 927.591 3476.53 1512.53 3494.58C1718.02 3500.92 2017.63 3719.69 2153.45 3552.34C2289.27 3384.98 2005.12 3029.51 2263.55 3053C2521.99 3076.49 2754.62 3053 2718.52 2754.57" stroke="#999999" stroke-width="1.33333" stroke-miterlimit="10" stroke-linecap="round" stroke-linejoin="round"/>
<path d="M1610.09 1631.22H1610.32C1886.56 1631.22 2110.5 1855.08 2110.5 2131.28C2110.5 2407.45 1886.56 2631.31 1610.32 2631.31C1334.08 2631.31 1110.13 2407.45 1110.13 2131.28C1110.13 2124.95 1110.26 2118.68 1110.47 2112.4" stroke="#999999" stroke-width="1.33333" stroke-miterlimit="10" stroke-linecap="round" stroke-linejoin="round"/>
<path d="M1595.24 1659.39C1600.25 1659.24 1605.28 1659.16 1610.32 1659.16C1871.12 1659.16 2082.56 1870.52 2082.56 2131.28C2082.56 2392.01 1871.12 2603.37 1610.32 2603.37C1349.5 2603.37 1138.08 2392.01 1138.08 2131.28C1138.08 2124.26 1138.23 2117.28 1138.54 2110.34" stroke="#999999" stroke-width="1.33333" stroke-miterlimit="10" stroke-linecap="round" stroke-linejoin="round"/>
<path d="M1581.47 1688.03C1591 1687.41 1600.63 1687.1 1610.32 1687.1C1855.7 1687.1 2054.62 1885.96 2054.62 2131.28C2054.62 2376.57 1855.7 2575.46 1610.32 2575.46C1364.94 2575.46 1166.02 2376.57 1166.02 2131.28C1166.02 2123.4 1166.23 2115.6 1166.62 2107.83" stroke="#999999" stroke-width="1.33333" stroke-miterlimit="10" stroke-linecap="round" stroke-linejoin="round"/>
<path d="M1568.71 1717.07C1582.4 1715.71 1596.27 1715.01 1610.32 1715.01C1840.25 1715.01 2026.67 1901.38 2026.67 2131.28C2026.67 2361.15 1840.25 2547.52 1610.32 2547.52C1380.36 2547.52 1193.97 2361.15 1193.97 2131.28C1193.97 2122.37 1194.25 2113.51 1194.82 2104.76" stroke="#999999" stroke-width="1.33333" stroke-miterlimit="10" stroke-linecap="round" stroke-linejoin="round"/>
<path d="M1556.73 1746.61C1574.24 1744.18 1592.14 1742.95 1610.32 1742.95C1824.84 1742.95 1998.73 1916.82 1998.73 2131.28C1998.73 2345.71 1824.84 2519.58 1610.32 2519.58C1395.8 2519.58 1221.91 2345.71 1221.91 2131.28C1221.91 2121.08 1222.3 2110.98 1223.07 2100.99" stroke="#999999" stroke-width="1.33333" stroke-miterlimit="10" stroke-linecap="round" stroke-linejoin="round"/>
<path d="M1545.39 1776.72C1566.47 1772.87 1588.16 1770.88 1610.32 1770.88C1809.39 1770.88 1970.78 1932.23 1970.78 2131.28C1970.78 2330.3 1809.39 2491.65 1610.32 2491.65C1411.25 2491.65 1249.86 2330.3 1249.86 2131.28C1249.86 2119.48 1250.42 2107.83 1251.54 2096.32" stroke="#999999" stroke-width="1.33333" stroke-miterlimit="10" stroke-linecap="round" stroke-linejoin="round"/>
<path d="M1534.62 1807.49C1558.92 1801.81 1584.29 1798.82 1610.32 1798.82C1793.97 1798.82 1942.84 1947.67 1942.84 2131.28C1942.84 2314.86 1793.97 2463.71 1610.32 2463.71C1426.67 2463.71 1277.8 2314.86 1277.8 2131.28C1277.8 2117.46 1278.65 2103.83 1280.28 2090.46" stroke="#999999" stroke-width="1.33333" stroke-miterlimit="10" stroke-linecap="round" stroke-linejoin="round"/>
<path d="M1524.24 1839.1C1551.54 1831.07 1580.41 1826.76 1610.32 1826.76C1778.53 1826.76 1914.89 1963.09 1914.89 2131.28C1914.89 2299.44 1778.53 2435.77 1610.32 2435.77C1442.11 2435.77 1305.75 2299.44 1305.75 2131.28C1305.75 2114.86 1307.04 2098.72 1309.57 2082.99" stroke="#999999" stroke-width="1.33333" stroke-miterlimit="10" stroke-linecap="round" stroke-linejoin="round"/>
<path d="M1514.17 1871.86C1544.1 1860.76 1576.51 1854.69 1610.32 1854.69C1763.11 1854.69 1886.95 1978.53 1886.95 2131.28C1886.95 2284 1763.11 2407.84 1610.32 2407.84C1457.53 2407.84 1333.69 2284 1333.69 2131.28C1333.69 2111.34 1335.81 2091.9 1339.84 2073.16" stroke="#999999" stroke-width="1.33333" stroke-miterlimit="10" stroke-linecap="round" stroke-linejoin="round"/>
<path d="M1502.78 1907.03C1535.34 1891.38 1571.81 1882.63 1610.32 1882.63C1747.67 1882.63 1859 1993.94 1859 2131.28C1859 2268.59 1747.67 2379.9 1610.32 2379.9C1472.97 2379.9 1361.61 2268.59 1361.61 2131.28C1361.61 2106.26 1365.3 2082.12 1372.17 2059.37" stroke="#999999" stroke-width="1.33333" stroke-miterlimit="10" stroke-linecap="round" stroke-linejoin="round"/>
<path d="M1483.69 1950.49C1519.54 1925.34 1563.21 1910.57 1610.32 1910.57C1732.22 1910.57 1831.06 2009.38 1831.06 2131.28C1831.06 2253.15 1732.22 2351.96 1610.32 2351.96C1488.39 2351.96 1389.55 2253.15 1389.55 2131.28C1389.55 2097.17 1397.3 2064.87 1411.12 2036.03" stroke="#999999" stroke-width="1.33333" stroke-miterlimit="10" stroke-linecap="round" stroke-linejoin="round"/>
<path d="M1610.31 1938.51C1716.8 1938.51 1803.12 2024.81 1803.12 2131.27C1803.12 2237.72 1716.8 2324.02 1610.31 2324.02C1503.83 2324.02 1417.51 2237.72 1417.51 2131.27C1417.51 2024.81 1503.83 1938.51 1610.31 1938.51Z" stroke="#999999" stroke-width="1.33333" stroke-miterlimit="10" stroke-linecap="round" stroke-linejoin="round"/>
<path d="M1610.31 1966.44C1701.37 1966.44 1775.18 2040.24 1775.18 2131.26C1775.18 2222.3 1701.37 2296.09 1610.31 2296.09C1519.26 2296.09 1445.45 2222.3 1445.45 2131.26C1445.45 2040.24 1519.26 1966.44 1610.31 1966.44Z" stroke="#999999" stroke-width="1.33333" stroke-miterlimit="10" stroke-linecap="round" stroke-linejoin="round"/>
<path d="M1610.31 1994.38C1685.94 1994.38 1747.24 2055.66 1747.24 2131.26C1747.24 2206.87 1685.94 2268.15 1610.31 2268.15C1534.7 2268.15 1473.39 2206.87 1473.39 2131.26C1473.39 2055.66 1534.7 1994.38 1610.31 1994.38Z" stroke="#999999" stroke-width="1.33333" stroke-miterlimit="10" stroke-linecap="round" stroke-linejoin="round"/>
<path d="M1610.31 2022.31C1670.5 2022.31 1719.29 2071.09 1719.29 2131.26C1719.29 2191.44 1670.5 2240.21 1610.31 2240.21C1550.13 2240.21 1501.34 2191.44 1501.34 2131.26C1501.34 2071.09 1550.13 2022.31 1610.31 2022.31Z" stroke="#999999" stroke-width="1.33333" stroke-miterlimit="10" stroke-linecap="round" stroke-linejoin="round"/>
<path d="M1610.31 2050.25C1655.07 2050.25 1691.35 2086.52 1691.35 2131.26C1691.35 2176.01 1655.07 2212.28 1610.31 2212.28C1565.56 2212.28 1529.28 2176.01 1529.28 2131.26C1529.28 2086.52 1565.56 2050.25 1610.31 2050.25Z" stroke="#999999" stroke-width="1.33333" stroke-miterlimit="10" stroke-linecap="round" stroke-linejoin="round"/>
<path d="M1663.41 2131.26C1663.41 2160.58 1639.64 2184.34 1610.31 2184.34C1580.99 2184.34 1557.22 2160.58 1557.22 2131.26C1557.22 2101.95 1580.99 2078.19 1610.31 2078.19C1639.64 2078.19 1663.41 2101.95 1663.41 2131.26Z" stroke="#999999" stroke-width="1.33333" stroke-miterlimit="10" stroke-linecap="round" stroke-linejoin="round"/>
<path d="M1639.91 2131.27C1639.91 2147.61 1626.66 2160.86 1610.31 2160.86C1593.97 2160.86 1580.72 2147.61 1580.72 2131.27C1580.72 2114.92 1593.97 2101.68 1610.31 2101.68C1626.66 2101.68 1639.91 2114.92 1639.91 2131.27Z" stroke="#999999" stroke-width="1.33333" stroke-miterlimit="10" stroke-linecap="round" stroke-linejoin="round"/>
<path d="M667.222 1950.6C667.222 2293.01 389.573 2570.58 47.0796 2570.58C-295.418 2570.58 -573.065 2293.01 -573.065 1950.6C-573.065 1608.2 -295.418 1330.62 47.0796 1330.62C389.573 1330.62 667.222 1608.2 667.222 1950.6Z" stroke="#999999" stroke-width="1.33333" stroke-miterlimit="10" stroke-linecap="round" stroke-linejoin="round"/>
<path d="M47.0802 1365.25C370.441 1365.25 632.576 1627.33 632.576 1950.6C632.576 2273.88 370.441 2535.95 47.0802 2535.95C-276.282 2535.95 -538.42 2273.88 -538.42 1950.6C-538.42 1627.33 -276.282 1365.25 47.0802 1365.25Z" stroke="#999999" stroke-width="1.33333" stroke-miterlimit="10" stroke-linecap="round" stroke-linejoin="round"/>
<path d="M47.0801 1399.89C351.306 1399.89 597.932 1646.45 597.932 1950.6C597.932 2254.75 351.306 2501.31 47.0801 2501.31C-257.147 2501.31 -503.774 2254.75 -503.774 1950.6C-503.774 1646.45 -257.147 1399.89 47.0801 1399.89Z" stroke="#999999" stroke-width="1.33333" stroke-miterlimit="10" stroke-linecap="round" stroke-linejoin="round"/>
<path d="M47.0799 1434.53C332.173 1434.53 563.288 1665.58 563.288 1950.6C563.288 2235.62 332.173 2466.68 47.0799 2466.68C-238.015 2466.68 -469.13 2235.62 -469.13 1950.6C-469.13 1665.58 -238.015 1434.53 47.0799 1434.53Z" stroke="#999999" stroke-width="1.33333" stroke-miterlimit="10" stroke-linecap="round" stroke-linejoin="round"/>
<path d="M47.0799 1469.16C313.038 1469.16 528.642 1684.71 528.642 1950.6C528.642 2216.49 313.038 2432.04 47.0799 2432.04C-218.881 2432.04 -434.484 2216.49 -434.484 1950.6C-434.484 1684.71 -218.881 1469.16 47.0799 1469.16Z" stroke="#999999" stroke-width="1.33333" stroke-miterlimit="10" stroke-linecap="round" stroke-linejoin="round"/>
<path d="M47.0795 1503.8C293.905 1503.8 493.998 1703.84 493.998 1950.6C493.998 2197.36 293.905 2397.4 47.0795 2397.4C-199.748 2397.4 -399.84 2197.36 -399.84 1950.6C-399.84 1703.84 -199.748 1503.8 47.0795 1503.8Z" stroke="#999999" stroke-width="1.33333" stroke-miterlimit="10" stroke-linecap="round" stroke-linejoin="round"/>
<path d="M47.0804 1538.44C274.771 1538.44 459.352 1722.97 459.352 1950.6C459.352 2178.24 274.771 2362.77 47.0804 2362.77C-180.614 2362.77 -365.195 2178.24 -365.195 1950.6C-365.195 1722.97 -180.614 1538.44 47.0804 1538.44Z" stroke="#999999" stroke-width="1.33333" stroke-miterlimit="10" stroke-linecap="round" stroke-linejoin="round"/>
<path d="M47.0804 1573.07C255.638 1573.07 424.708 1742.1 424.708 1950.6C424.708 2159.11 255.638 2328.13 47.0804 2328.13C-161.479 2328.13 -330.549 2159.11 -330.549 1950.6C-330.549 1742.1 -161.479 1573.07 47.0804 1573.07Z" stroke="#999999" stroke-width="1.33333" stroke-miterlimit="10" stroke-linecap="round" stroke-linejoin="round"/>
<path d="M47.0801 1607.71C236.504 1607.71 390.064 1761.23 390.064 1950.6C390.064 2139.98 236.504 2293.5 47.0801 2293.5C-142.346 2293.5 -295.905 2139.98 -295.905 1950.6C-295.905 1761.23 -142.346 1607.71 47.0801 1607.71Z" stroke="#999999" stroke-width="1.33333" stroke-miterlimit="10" stroke-linecap="round" stroke-linejoin="round"/>
<path d="M47.0797 1642.34C217.37 1642.34 355.417 1780.36 355.417 1950.6C355.417 2120.85 217.37 2258.86 47.0797 2258.86C-123.212 2258.86 -261.262 2120.85 -261.262 1950.6C-261.262 1780.36 -123.212 1642.34 47.0797 1642.34Z" stroke="#999999" stroke-width="1.33333" stroke-miterlimit="10" stroke-linecap="round" stroke-linejoin="round"/>
<path d="M47.0798 1676.98C198.236 1676.98 320.773 1799.49 320.773 1950.6C320.773 2101.72 198.236 2224.23 47.0798 2224.23C-104.079 2224.23 -226.615 2101.72 -226.615 1950.6C-226.615 1799.49 -104.079 1676.98 47.0798 1676.98Z" stroke="#999999" stroke-width="1.33333" stroke-miterlimit="10" stroke-linecap="round" stroke-linejoin="round"/>
<path d="M47.0804 1711.62C179.102 1711.62 286.13 1818.61 286.13 1950.6C286.13 2082.59 179.102 2189.59 47.0804 2189.59C-84.9445 2189.59 -191.971 2082.59 -191.971 1950.6C-191.971 1818.61 -84.9445 1711.62 47.0804 1711.62Z" stroke="#999999" stroke-width="1.33333" stroke-miterlimit="10" stroke-linecap="round" stroke-linejoin="round"/>
<path d="M47.0798 1746.25C159.968 1746.25 251.484 1837.74 251.484 1950.6C251.484 2063.46 159.968 2154.96 47.0798 2154.96C-65.8101 2154.96 -157.326 2063.46 -157.326 1950.6C-157.326 1837.74 -65.8101 1746.25 47.0798 1746.25Z" stroke="#999999" stroke-width="1.33333" stroke-miterlimit="10" stroke-linecap="round" stroke-linejoin="round"/>
<path d="M47.0798 1780.89C140.834 1780.89 216.838 1856.87 216.838 1950.6C216.838 2044.33 140.834 2120.32 47.0798 2120.32C-46.6772 2120.32 -122.68 2044.33 -122.68 1950.6C-122.68 1856.87 -46.6772 1780.89 47.0798 1780.89Z" stroke="#999999" stroke-width="1.33333" stroke-miterlimit="10" stroke-linecap="round" stroke-linejoin="round"/>
<path d="M47.0797 1815.52C121.7 1815.52 182.193 1876 182.193 1950.6C182.193 2025.2 121.7 2085.68 47.0797 2085.68C-27.5433 2085.68 -88.0371 2025.2 -88.0371 1950.6C-88.0371 1876 -27.5433 1815.52 47.0797 1815.52Z" stroke="#999999" stroke-width="1.33333" stroke-miterlimit="10" stroke-linecap="round" stroke-linejoin="round"/>
<path d="M47.0803 1850.16C102.568 1850.16 147.549 1895.13 147.549 1950.6C147.549 2006.08 102.568 2051.05 47.0803 2051.05C-8.40886 2051.05 -53.3906 2006.08 -53.3906 1950.6C-53.3906 1895.13 -8.40886 1850.16 47.0803 1850.16Z" stroke="#999999" stroke-width="1.33333" stroke-miterlimit="10" stroke-linecap="round" stroke-linejoin="round"/>
<path d="M112.904 1950.6C112.904 1986.95 83.4326 2016.41 47.0797 2016.41C10.7235 2016.41 -18.7461 1986.95 -18.7461 1950.6C-18.7461 1914.26 10.7235 1884.79 47.0797 1884.79C83.4326 1884.79 112.904 1914.26 112.904 1950.6Z" stroke="#999999" stroke-width="1.33333" stroke-miterlimit="10" stroke-linecap="round" stroke-linejoin="round"/>
<path d="M86.2956 1950.6C86.2956 1972.26 68.7376 1989.81 47.0797 1989.81C25.4194 1989.81 7.86133 1972.26 7.86133 1950.6C7.86133 1928.95 25.4194 1911.4 47.0797 1911.4C68.7376 1911.4 86.2956 1928.95 86.2956 1950.6Z" stroke="#999999" stroke-width="1.33333" stroke-miterlimit="10" stroke-linecap="round" stroke-linejoin="round"/>
<path d="M886.269 2804.2C859.771 2806.91 832.498 2810.06 804.579 2814.11" stroke="#999999" stroke-width="1.33333" stroke-miterlimit="10" stroke-linecap="round" stroke-linejoin="round"/>
<path d="M593.55 2864.95H593.523" stroke="#999999" stroke-width="1.33333" stroke-miterlimit="10" stroke-linecap="round" stroke-linejoin="round"/>
<path d="M461.807 2926.25C449.23 2891.24 442.386 2853.46 442.386 2814.11C442.386 2630.71 591.096 2482.04 774.542 2482.04C946.471 2482.04 1087.87 2612.61 1104.97 2779.98" stroke="#999999" stroke-width="1.33333" stroke-miterlimit="10" stroke-linecap="round" stroke-linejoin="round"/>
<path d="M487.299 2911.58C476.916 2880.99 471.286 2848.2 471.286 2814.11C471.286 2646.67 607.057 2510.91 774.543 2510.91C932.137 2510.91 1061.68 2631.1 1076.4 2784.81" stroke="#999999" stroke-width="1.33333" stroke-miterlimit="10" stroke-linecap="round" stroke-linejoin="round"/>
<path d="M513.358 2898.31C504.783 2871.8 500.16 2843.5 500.16 2814.11C500.16 2662.63 623.018 2539.8 774.543 2539.8C917.493 2539.8 1034.93 2649.12 1047.74 2788.68" stroke="#999999" stroke-width="1.33333" stroke-miterlimit="10" stroke-linecap="round" stroke-linejoin="round"/>
<path d="M539.83 2886.23C532.831 2863.43 529.06 2839.21 529.06 2814.11C529.06 2678.56 638.952 2568.67 774.542 2568.67C902.617 2568.67 1007.81 2666.73 1019.04 2791.86" stroke="#999999" stroke-width="1.33333" stroke-miterlimit="10" stroke-linecap="round" stroke-linejoin="round"/>
<path d="M566.664 2875.1C560.982 2855.76 557.935 2835.29 557.935 2814.11C557.935 2694.52 654.914 2597.56 774.543 2597.56C887.612 2597.56 980.433 2684.16 990.273 2794.65" stroke="#999999" stroke-width="1.33333" stroke-miterlimit="10" stroke-linecap="round" stroke-linejoin="round"/>
<path d="M593.782 2864.85C589.263 2848.71 586.835 2831.7 586.835 2814.11C586.835 2710.47 670.875 2626.45 774.543 2626.45C872.529 2626.45 953.005 2701.51 961.502 2797.25" stroke="#999999" stroke-width="1.33333" stroke-miterlimit="10" stroke-linecap="round" stroke-linejoin="round"/>
<path d="M621.184 2855.5C617.594 2842.31 615.709 2828.42 615.709 2814.11C615.709 2726.4 686.81 2655.32 774.543 2655.32C857.447 2655.32 925.5 2718.81 932.731 2799.81" stroke="#999999" stroke-width="1.33333" stroke-miterlimit="10" stroke-linecap="round" stroke-linejoin="round"/>
<path d="M648.819 2847.03C646.082 2836.53 644.609 2825.5 644.609 2814.11C644.609 2742.36 702.771 2684.21 774.543 2684.21C842.39 2684.21 898.098 2736.16 903.961 2802.47" stroke="#999999" stroke-width="1.33333" stroke-miterlimit="10" stroke-linecap="round" stroke-linejoin="round"/>
<path d="M676.659 2839.39C674.593 2831.31 673.482 2822.84 673.482 2814.11C673.482 2758.32 718.731 2713.08 774.542 2713.08C827.409 2713.08 870.798 2753.67 875.24 2805.36" stroke="#999999" stroke-width="1.33333" stroke-miterlimit="10" stroke-linecap="round" stroke-linejoin="round"/>
<path d="M704.759 2832.55C703.209 2826.66 702.383 2820.49 702.383 2814.11C702.383 2774.27 734.692 2741.97 774.542 2741.97C812.534 2741.97 843.706 2771.33 846.496 2808.59" stroke="#999999" stroke-width="1.33333" stroke-miterlimit="10" stroke-linecap="round" stroke-linejoin="round"/>
<path d="M733.04 2826.43C731.878 2822.53 731.258 2818.4 731.258 2814.11C731.258 2790.2 750.628 2770.84 774.543 2770.84C797.839 2770.84 816.822 2789.2 817.777 2812.26" stroke="#999999" stroke-width="1.33333" stroke-miterlimit="10" stroke-linecap="round" stroke-linejoin="round"/>
<path d="M-616.51 2864.69C-357.505 3119.93 -141.731 2979.6 -20.115 3339.13C101.501 3698.66 234.929 3813.93 616.878 3832.11" stroke="#999999" stroke-width="1.33333" stroke-miterlimit="10" stroke-linecap="round" stroke-linejoin="round"/>
<path d="M-586.363 2845.07C-328.873 3098.82 -114.362 2959.31 6.54184 3316.74C127.447 3674.16 260.092 3788.76 639.807 3806.83" stroke="#999999" stroke-width="1.33333" stroke-miterlimit="10" stroke-linecap="round" stroke-linejoin="round"/>
<path d="M-556.212 2825.46C-300.239 3077.71 -86.9936 2939.02 33.1991 3294.34C153.391 3649.66 285.257 3763.58 662.734 3781.55" stroke="#999999" stroke-width="1.33333" stroke-miterlimit="10" stroke-linecap="round" stroke-linejoin="round"/>
<path d="M-526.063 2805.84C-271.608 3056.6 -59.6251 2918.73 59.8545 3271.95C179.336 3625.17 310.419 3738.41 685.66 3756.27" stroke="#999999" stroke-width="1.33333" stroke-miterlimit="10" stroke-linecap="round" stroke-linejoin="round"/>
<path d="M-495.915 2786.23C-242.975 3035.49 -32.2558 2898.45 86.5125 3249.56C205.281 3600.67 335.585 3713.24 708.586 3730.99" stroke="#999999" stroke-width="1.33333" stroke-miterlimit="10" stroke-linecap="round" stroke-linejoin="round"/>
<path d="M-465.765 2766.61C-214.343 3014.38 -4.88736 2878.16 113.17 3227.16C231.225 3576.17 360.748 3688.06 731.515 3705.71" stroke="#999999" stroke-width="1.33333" stroke-miterlimit="10" stroke-linecap="round" stroke-linejoin="round"/>
<path d="M-435.617 2746.99C-185.71 2993.27 22.4819 2857.87 139.827 3204.77C257.171 3551.67 385.911 3662.89 754.442 3680.43" stroke="#999999" stroke-width="1.33333" stroke-miterlimit="10" stroke-linecap="round" stroke-linejoin="round"/>
<path d="M-405.467 2727.38C-157.078 2972.16 49.8514 2837.58 166.484 3182.38C283.116 3527.17 411.074 3637.72 777.369 3655.15" stroke="#999999" stroke-width="1.33333" stroke-miterlimit="10" stroke-linecap="round" stroke-linejoin="round"/>
<path d="M-375.312 2707.76C-128.434 2951.06 77.2226 2817.29 193.133 3159.97C196.775 3170.71 200.417 3181.22 204.057 3191.5" stroke="#999999" stroke-width="1.33333" stroke-miterlimit="10" stroke-linecap="round" stroke-linejoin="round"/>
<path d="M-345.172 2688.14C-99.818 2929.94 104.599 2796.99 219.787 3137.59C221.956 3144.02 224.151 3150.37 226.347 3156.62" stroke="#999999" stroke-width="1.33333" stroke-miterlimit="10" stroke-linecap="round" stroke-linejoin="round"/>
<path d="M-315.032 2668.54C-71.1766 2908.82 131.95 2776.73 246.466 3115.2C247.472 3118.14 248.455 3121.06 249.462 3123.98" stroke="#999999" stroke-width="1.33333" stroke-miterlimit="10" stroke-linecap="round" stroke-linejoin="round"/>
<path d="M-284.867 2648.92C-42.5358 2887.73 159.326 2756.43 273.118 3092.81C273.17 3093 273.247 3093.15 273.299 3093.33" stroke="#999999" stroke-width="1.33333" stroke-miterlimit="10" stroke-linecap="round" stroke-linejoin="round"/>
<path d="M-254.728 2629.29C-15.3149 2865.21 184.351 2737.66 297.782 3064.59" stroke="#999999" stroke-width="1.33333" stroke-miterlimit="10" stroke-linecap="round" stroke-linejoin="round"/>
<path d="M-224.562 2609.7C12.2167 2843.03 209.867 2718.53 322.86 3037.74" stroke="#999999" stroke-width="1.33333" stroke-miterlimit="10" stroke-linecap="round" stroke-linejoin="round"/>
<path d="M-181.069 2602.88C47.5744 2816.75 238.252 2704.95 348.532 3012.59" stroke="#999999" stroke-width="1.33333" stroke-miterlimit="10" stroke-linecap="round" stroke-linejoin="round"/>
<path d="M-104.286 2622.99C101.837 2782.07 272.808 2705.98 374.824 2989.15" stroke="#999999" stroke-width="1.33333" stroke-miterlimit="10" stroke-linecap="round" stroke-linejoin="round"/>
<path d="M-31.3008 2633.5C154.264 2752.22 307.597 2705.46 401.709 2967.43" stroke="#999999" stroke-width="1.33333" stroke-miterlimit="10" stroke-linecap="round" stroke-linejoin="round"/>
<path d="M39.0518 2637.25C205.53 2726.33 342.721 2704.22 429.215 2947.32" stroke="#999999" stroke-width="1.33333" stroke-miterlimit="10" stroke-linecap="round" stroke-linejoin="round"/>
<path d="M104.444 2634.92C254.393 2704.07 377.742 2701.28 457.288 2928.99" stroke="#999999" stroke-width="1.33333" stroke-miterlimit="10" stroke-linecap="round" stroke-linejoin="round"/>
<path d="M163.407 2627.59C275.391 2674.12 371.001 2690.33 442.386 2813.75" stroke="#999999" stroke-width="1.33333" stroke-miterlimit="10" stroke-linecap="round" stroke-linejoin="round"/>
<path d="M216.068 2616.69C306.073 2651.89 384.535 2673.27 447.113 2758.01" stroke="#999999" stroke-width="1.33333" stroke-miterlimit="10" stroke-linecap="round" stroke-linejoin="round"/>
<path d="M263.098 2603.19C337.013 2631.36 402.613 2653.54 457.262 2715.51" stroke="#999999" stroke-width="1.33333" stroke-miterlimit="10" stroke-linecap="round" stroke-linejoin="round"/>
<path d="M305.428 2587.83C367.231 2611.22 422.862 2632.39 470.77 2679.62" stroke="#999999" stroke-width="1.33333" stroke-miterlimit="10" stroke-linecap="round" stroke-linejoin="round"/>
<path d="M343.78 2570.94C396.518 2590.98 444.582 2610.5 486.912 2647.94" stroke="#999999" stroke-width="1.33333" stroke-miterlimit="10" stroke-linecap="round" stroke-linejoin="round"/>
<path d="M505.506 2619.33C467.464 2588.37 425.005 2570.48 378.801 2552.81" stroke="#999999" stroke-width="1.33333" stroke-miterlimit="10" stroke-linecap="round" stroke-linejoin="round"/>
<path d="M526.606 2593.12C491.534 2566.27 452.794 2549.69 410.98 2533.61" stroke="#999999" stroke-width="1.33333" stroke-miterlimit="10" stroke-linecap="round" stroke-linejoin="round"/>
<path d="M550.29 2569.16C516.896 2544.48 480.196 2528.7 440.733 2513.47" stroke="#999999" stroke-width="1.33333" stroke-miterlimit="10" stroke-linecap="round" stroke-linejoin="round"/>
<path d="M576.762 2547.29C543.626 2523.02 507.262 2507.48 468.161 2492.42" stroke="#999999" stroke-width="1.33333" stroke-miterlimit="10" stroke-linecap="round" stroke-linejoin="round"/>
<path d="M606.282 2527.74C572.062 2502.18 534.329 2486.25 493.626 2470.66" stroke="#999999" stroke-width="1.33333" stroke-miterlimit="10" stroke-linecap="round" stroke-linejoin="round"/>
<path d="M639.211 2510.75H639.185C602.485 2481.91 561.602 2465.1 517.231 2448.17" stroke="#999999" stroke-width="1.33333" stroke-miterlimit="10" stroke-linecap="round" stroke-linejoin="round"/>
<path d="M675.678 2497.02H675.653C635.208 2462.29 589.366 2444.09 539.133 2425.03" stroke="#999999" stroke-width="1.33333" stroke-miterlimit="10" stroke-linecap="round" stroke-linejoin="round"/>
<path d="M715.554 2487.28H715.528C670.306 2443.11 617.775 2423.38 559.432 2401.3" stroke="#999999" stroke-width="1.33333" stroke-miterlimit="10" stroke-linecap="round" stroke-linejoin="round"/>
<path d="M758.324 2482.43H758.298C707.703 2423.95 646.856 2403.11 578.234 2377.03" stroke="#999999" stroke-width="1.33333" stroke-miterlimit="10" stroke-linecap="round" stroke-linejoin="round"/>
<path d="M802.901 2483.26H802.875C746.831 2404.12 676.428 2383.28 595.564 2352.09" stroke="#999999" stroke-width="1.33333" stroke-miterlimit="10" stroke-linecap="round" stroke-linejoin="round"/>
<path d="M611.499 2326.58C706.128 2364.07 786.991 2382.84 847.994 2490.2" stroke="#999999" stroke-width="1.33333" stroke-miterlimit="10" stroke-linecap="round" stroke-linejoin="round"/>
<path d="M626.633 2300.55C736.061 2345.64 827.823 2359.5 892.725 2503.71" stroke="#999999" stroke-width="1.33333" stroke-miterlimit="10" stroke-linecap="round" stroke-linejoin="round"/>
<path d="M641.717 2274.27C766.382 2328.18 869.043 2333.78 936.451 2524.1" stroke="#999999" stroke-width="1.33333" stroke-miterlimit="10" stroke-linecap="round" stroke-linejoin="round"/>
<path d="M657.6 2248.04C789.135 2308.02 897.09 2306.23 966.202 2510.57C971.368 2525.81 976.533 2540.47 981.776 2554.62" stroke="#999999" stroke-width="1.33333" stroke-miterlimit="10" stroke-linecap="round" stroke-linejoin="round"/>
<path d="M675.291 2222.32C810.958 2287.41 922.271 2279.59 992.856 2488.19C1010.44 2540.19 1028.37 2585.63 1047.79 2625.24C1047.79 2625.27 1047.81 2625.29 1047.81 2625.32" stroke="#999999" stroke-width="1.33333" stroke-miterlimit="10" stroke-linecap="round" stroke-linejoin="round"/>
<path d="M1079.68 2682.72V2682.74C1101.15 2716.69 1124.78 2745.07 1151.79 2768.7" stroke="#999999" stroke-width="1.33333" stroke-miterlimit="10" stroke-linecap="round" stroke-linejoin="round"/>
<path d="M695.952 2197.84C834.383 2266.94 948.02 2254.49 1019.51 2465.8C1066.38 2604.4 1115.56 2695.94 1189.76 2754.62" stroke="#999999" stroke-width="1.33333" stroke-miterlimit="10" stroke-linecap="round" stroke-linejoin="round"/>
<path d="M720.952 2175.38C860.21 2246.33 974.518 2231.59 1046.16 2443.39C1094.33 2585.81 1144.92 2678.17 1223.02 2736.09" stroke="#999999" stroke-width="1.33333" stroke-miterlimit="10" stroke-linecap="round" stroke-linejoin="round"/>
<path d="M751.505 2155.78C889.058 2225.34 1001.97 2211.53 1072.81 2421C1121.11 2563.74 1171.83 2655.81 1250.66 2713.16" stroke="#999999" stroke-width="1.33333" stroke-miterlimit="10" stroke-linecap="round" stroke-linejoin="round"/>
<path d="M789.238 2139.7C921.806 2203.99 1030.64 2195.13 1099.47 2398.62C1146.86 2538.69 1196.6 2629.6 1273.36 2686.61" stroke="#999999" stroke-width="1.33333" stroke-miterlimit="10" stroke-linecap="round" stroke-linejoin="round"/>
<path d="M836.32 2127.66C959.72 2182.74 1060.99 2183.62 1126.12 2376.23C1171.96 2511.74 1220.05 2600.87 1293.01 2657.7" stroke="#999999" stroke-width="1.33333" stroke-miterlimit="10" stroke-linecap="round" stroke-linejoin="round"/>
<path d="M896.806 2120.48C1004.97 2163.45 1093.81 2179.41 1152.8 2353.82C1196.42 2482.82 1242.08 2569.44 1309.65 2626.07" stroke="#999999" stroke-width="1.33333" stroke-miterlimit="10" stroke-linecap="round" stroke-linejoin="round"/>
<path d="M1227.62 2453.23C1255.1 2511.12 1285.7 2556.27 1323.23 2591.08" stroke="#999999" stroke-width="1.33333" stroke-miterlimit="10" stroke-linecap="round" stroke-linejoin="round"/>
<path d="M973.279 2118.24C1027.41 2138.97 1075.6 2160.07 1116.26 2209.72" stroke="#999999" stroke-width="1.33333" stroke-miterlimit="10" stroke-linecap="round" stroke-linejoin="round"/>
<path d="M1333.77 2551.81C1330.67 2548.53 1327.62 2545.2 1324.62 2541.76" stroke="#999999" stroke-width="1.33333" stroke-miterlimit="10" stroke-linecap="round" stroke-linejoin="round"/>
<path d="M1110.7 2155.34C1090.53 2138.66 1068.89 2126.37 1045.93 2115.84" stroke="#999999" stroke-width="1.33333" stroke-miterlimit="10" stroke-linecap="round" stroke-linejoin="round"/>
<path d="M1110.42 2114.34C1109.46 2113.75 1108.51 2113.15 1107.55 2112.58" stroke="#999999" stroke-width="1.33333" stroke-miterlimit="10" stroke-linecap="round" stroke-linejoin="round"/>
</g>
<defs>
<clipPath id="clip0_1663_1294">
<rect width="1937" height="1779" fill="white"/>
</clipPath>
<clipPath id="clip1_1663_1294">
<rect width="1937" height="1779" fill="white" transform="translate(7 1762)"/>
</clipPath>
</defs>
</svg>
