<svg width="1920" height="2625" viewBox="0 0 1920 2625" fill="none" xmlns="http://www.w3.org/2000/svg">
<g opacity="0.12" clip-path="url(#clip0_1357_2646)">
<path d="M2145.07 -364.705C1794.83 -386.363 1621.51 -324.996 1491.53 115.397C1431.23 319.695 1292.94 350.031 906.591 357.251C651.403 362.019 649.916 487.727 559.675 611.704C421.386 801.693 210.953 875.29 26.0797 875.29C-7.51624 875.29 -167.583 873.7 -282.262 804.275" stroke="#999999" stroke-width="1.33333" stroke-miterlimit="10" stroke-linecap="round" stroke-linejoin="round"/>
<path d="M2132.45 -390.111C1782.05 -415.934 1606.64 -352.179 1478.2 80.6878C1417.67 284.036 1285.44 319.487 897.566 323.791C717.373 325.792 652.011 383.804 607.434 467.918C592.276 496.516 553.185 573.344 512.428 617.119C389.243 749.431 221.043 842.579 26.0804 842.579C-77.4303 842.579 -212.971 821.773 -351.549 720.92" stroke="#999999" stroke-width="1.33333" stroke-miterlimit="10" stroke-linecap="round" stroke-linejoin="round"/>
<path d="M582.725 462.178C582.751 462.152 582.777 462.126 582.777 462.074C635.386 366.231 687.168 291.043 888.539 290.32C1277.93 288.951 1404.12 248.388 1464.86 45.9852C1591.77 -379.373 1769.28 -445.498 2119.83 -415.521" stroke="#999999" stroke-width="1.33333" stroke-miterlimit="10" stroke-linecap="round" stroke-linejoin="round"/>
<path d="M639.027 283.4C686.574 245.471 754.653 222.104 870.486 223.42C1262.95 227.861 1377.02 177.048 1438.21 -23.4445C1562.05 -433.724 1743.71 -504.652 2094.59 -466.335" stroke="#999999" stroke-width="1.33333" stroke-miterlimit="10" stroke-linecap="round" stroke-linejoin="round"/>
<path d="M644.451 236.047C691.972 205.786 757.985 188.022 861.446 189.958C1255.43 197.317 1363.47 141.391 1424.86 -58.1462C1547.17 -460.912 1730.95 -534.215 2081.99 -491.741" stroke="#999999" stroke-width="1.33333" stroke-miterlimit="10" stroke-linecap="round" stroke-linejoin="round"/>
<path d="M646.207 193.366C693.496 168.14 757.494 154.017 852.433 156.495C1247.94 166.772 1350.35 105.862 1411.53 -92.8485C1533.15 -487.843 1718.17 -563.805 2069.39 -517.148" stroke="#999999" stroke-width="1.33333" stroke-miterlimit="10" stroke-linecap="round" stroke-linejoin="round"/>
<path d="M645.226 153.346C692.23 131.683 754.472 120.064 843.394 123.033C1240.45 136.227 1336.84 70.2311 1398.2 -127.576C1518.4 -514.979 1705.38 -593.369 2056.76 -542.555" stroke="#999999" stroke-width="1.33333" stroke-miterlimit="10" stroke-linecap="round" stroke-linejoin="round"/>
<path d="M641.894 115.105C688.692 95.947 749.643 86.1613 834.38 89.5695C1232.94 105.681 1323.33 34.5988 1384.88 -162.279C1503.6 -542.143 1692.63 -622.933 2044.15 -567.963" stroke="#999999" stroke-width="1.33333" stroke-miterlimit="10" stroke-linecap="round" stroke-linejoin="round"/>
<path d="M636.418 78.1055C683.216 60.7028 743.341 52.208 825.341 56.1068C1225.45 75.1361 1309.82 -1.05863 1371.55 -196.981C1488.8 -569.305 1679.84 -652.523 2031.52 -593.369" stroke="#999999" stroke-width="1.33333" stroke-miterlimit="10" stroke-linecap="round" stroke-linejoin="round"/>
<path d="M628.8 42.0869C675.804 25.8461 735.671 18.2551 816.327 22.6445C1217.96 44.5915 1296.32 -36.6899 1358.2 -231.708C1473.98 -596.467 1667.06 -682.087 2018.92 -618.776" stroke="#999999" stroke-width="1.33333" stroke-miterlimit="10" stroke-linecap="round" stroke-linejoin="round"/>
<path d="M619.141 6.84277C666.636 -8.80415 726.838 -15.7755 807.288 -10.8181C1210.44 14.0466 1282.81 -72.3471 1344.87 -266.41C1459.15 -623.63 1654.3 -711.65 2006.29 -644.183" stroke="#999999" stroke-width="1.33333" stroke-miterlimit="10" stroke-linecap="round" stroke-linejoin="round"/>
<path d="M627.405 340.772C674.513 289.804 743.496 256.341 879.499 256.883C1270.44 258.407 1390.56 212.705 1451.53 11.2576C1576.9 -406.562 1756.5 -475.088 2107.22 -440.928" stroke="#999999" stroke-width="1.33333" stroke-miterlimit="10" stroke-linecap="round" stroke-linejoin="round"/>
<path d="M582.777 462.074C582.777 462.126 582.751 462.152 582.725 462.178" stroke="#999999" stroke-width="1.33333" stroke-miterlimit="10" stroke-linecap="round" stroke-linejoin="round"/>
<path d="M159.167 1472.67C159.167 1472.67 269.422 1240.08 498.556 1133.34C816.328 985.343 1112.4 1082.81 1235.93 944.47C1282.32 892.52 1302.77 838.04 1313.49 786.451" stroke="#999999" stroke-width="1.33333" stroke-miterlimit="10" stroke-linecap="round" stroke-linejoin="round"/>
<path d="M188.3 1490.74C188.3 1490.74 292.717 1259.5 532.802 1154.03C848.481 1015.35 1142.91 1113 1266.85 973.621C1315.81 918.65 1335.29 860.374 1344.87 805.61" stroke="#999999" stroke-width="1.33333" stroke-miterlimit="10" stroke-linecap="round" stroke-linejoin="round"/>
<path d="M217.433 1508.82C217.433 1508.82 315.807 1278.86 567.049 1174.68C880.275 1044.81 1173.38 1143.15 1297.76 1002.8C1350.11 943.825 1368.09 880.592 1376.22 821.774" stroke="#999999" stroke-width="1.33333" stroke-miterlimit="10" stroke-linecap="round" stroke-linejoin="round"/>
<path d="M246.591 1526.89C246.591 1526.89 338.689 1298.15 601.268 1195.34C911.757 1073.8 1203.88 1173.31 1328.68 1031.97C1385.21 968.121 1400.81 898.666 1407.29 835.148" stroke="#999999" stroke-width="1.33333" stroke-miterlimit="10" stroke-linecap="round" stroke-linejoin="round"/>
<path d="M275.724 1544.96C275.724 1544.96 361.391 1317.34 635.515 1215.99C942.956 1102.36 1234.36 1203.5 1359.59 1061.12C1420.98 991.617 1433.12 914.673 1437.85 845.941" stroke="#999999" stroke-width="1.33333" stroke-miterlimit="10" stroke-linecap="round" stroke-linejoin="round"/>
<path d="M304.856 1563.04C304.856 1563.04 383.964 1336.44 669.761 1236.68C973.922 1130.5 1264.86 1233.65 1390.51 1090.3C1457.37 1014.37 1464.6 928.669 1467.73 854.436" stroke="#999999" stroke-width="1.33333" stroke-miterlimit="10" stroke-linecap="round" stroke-linejoin="round"/>
<path d="M333.988 1581.11C333.988 1581.11 406.38 1355.39 704.007 1257.33C1004.68 1158.26 1295.33 1263.84 1421.42 1119.48C1494.38 1036.39 1494.85 940.468 1497.01 860.787" stroke="#999999" stroke-width="1.33333" stroke-miterlimit="10" stroke-linecap="round" stroke-linejoin="round"/>
<path d="M363.121 1599.19C363.121 1599.19 428.643 1374.19 738.228 1277.99C1035.29 1185.68 1325.84 1294 1452.33 1148.63C1531.98 1057.66 1523.46 949.969 1525.97 865.332" stroke="#999999" stroke-width="1.33333" stroke-miterlimit="10" stroke-linecap="round" stroke-linejoin="round"/>
<path d="M2196.97 493.291C2203.86 679.711 2097.87 746.998 1908.07 754.615" stroke="#999999" stroke-width="1.33333" stroke-miterlimit="10" stroke-linecap="round" stroke-linejoin="round"/>
<path d="M392.253 1617.26C392.253 1617.26 450.802 1392.83 772.474 1298.67C1065.74 1212.79 1356.34 1324.15 1483.25 1177.81C1570.23 1078.14 1549.8 956.76 1554.92 868.146" stroke="#999999" stroke-width="1.33333" stroke-miterlimit="10" stroke-linecap="round" stroke-linejoin="round"/>
<path d="M2220.81 517.072C2229.49 724.355 2098.93 785.006 1873.18 781.03" stroke="#999999" stroke-width="1.33333" stroke-miterlimit="10" stroke-linecap="round" stroke-linejoin="round"/>
<path d="M421.386 1635.34C421.386 1635.34 472.858 1411.3 806.72 1319.32C1096.06 1239.59 1386.81 1354.34 1514.16 1206.98C1609.33 1097.63 1573.2 960.065 1584.88 869.282" stroke="#999999" stroke-width="1.33333" stroke-miterlimit="10" stroke-linecap="round" stroke-linejoin="round"/>
<path d="M2244.65 540.852C2255.29 768.894 2097.85 820.276 1835.91 804.396" stroke="#999999" stroke-width="1.33333" stroke-miterlimit="10" stroke-linecap="round" stroke-linejoin="round"/>
<path d="M450.519 1653.41C450.519 1653.41 494.837 1429.58 840.966 1339.98C1126.27 1266.14 1417.31 1384.5 1545.08 1236.13C1649.73 1115.55 1592.26 958.129 1617.52 868.534" stroke="#999999" stroke-width="1.33333" stroke-miterlimit="10" stroke-linecap="round" stroke-linejoin="round"/>
<path d="M2268.48 564.632C2281.19 812.246 2096.3 852.525 1801.05 825.698C1799.01 825.518 1796.99 825.337 1795 825.208" stroke="#999999" stroke-width="1.33333" stroke-miterlimit="10" stroke-linecap="round" stroke-linejoin="round"/>
<path d="M479.651 1671.48C479.651 1671.48 516.687 1447.62 875.213 1360.64C1156.41 1292.42 1447.79 1414.65 1575.99 1265.31C1692.88 1130.19 1603.11 945.503 1657.99 864.634" stroke="#999999" stroke-width="1.33333" stroke-miterlimit="10" stroke-linecap="round" stroke-linejoin="round"/>
<path d="M508.791 1689.57C508.791 1689.57 538.492 1465.44 909.44 1381.31C1186.46 1318.48 1477.99 1444.57 1606.91 1294.48C1766.19 1109.03 1532.38 824.903 1825.58 851.552C2118.78 878.198 2306.33 838.856 2292.31 588.402" stroke="#999999" stroke-width="1.33333" stroke-miterlimit="10" stroke-linecap="round" stroke-linejoin="round"/>
<path d="M537.926 1707.64C537.926 1707.64 560.219 1483.01 943.681 1401.97C1216.47 1344.32 1508.47 1474.73 1637.82 1323.64C1795.7 1139.24 1558.95 850.937 1850.11 877.4C2141.27 903.862 2331.47 865.453 2316.15 612.176" stroke="#999999" stroke-width="1.33333" stroke-miterlimit="10" stroke-linecap="round" stroke-linejoin="round"/>
<path d="M567.061 1725.72C567.061 1725.72 581.886 1500.31 977.922 1422.63C1246.43 1369.97 1538.95 1504.9 1668.74 1352.81C1825.21 1169.45 1585.53 876.974 1874.63 903.251C2163.75 929.525 2356.6 892.047 2339.98 635.952" stroke="#999999" stroke-width="1.33333" stroke-miterlimit="10" stroke-linecap="round" stroke-linejoin="round"/>
<path d="M596.196 1743.79C596.196 1743.79 603.5 1517.33 1012.16 1443.3C1276.36 1395.43 1569.44 1535.06 1699.65 1381.98C1854.72 1199.67 1612.1 903.008 1899.16 929.099C2186.23 955.191 2381.73 918.645 2363.82 659.727" stroke="#999999" stroke-width="1.33333" stroke-miterlimit="10" stroke-linecap="round" stroke-linejoin="round"/>
<path d="M625.329 1761.86C625.329 1761.86 625.076 1534.05 1046.4 1463.96C1306.26 1420.73 1599.93 1565.23 1730.57 1411.15C1884.24 1229.88 1638.67 929.045 1923.69 954.951C2208.71 980.856 2406.87 945.242 2387.65 683.502" stroke="#999999" stroke-width="1.33333" stroke-miterlimit="10" stroke-linecap="round" stroke-linejoin="round"/>
<path d="M654.464 1779.94C654.464 1779.94 646.615 1550.45 1080.64 1484.62C1336.16 1445.87 1630.42 1595.4 1761.48 1440.32C1913.76 1260.11 1665.24 955.082 1948.22 980.798C2231.2 1006.52 2432 971.839 2411.49 707.277" stroke="#999999" stroke-width="1.33333" stroke-miterlimit="10" stroke-linecap="round" stroke-linejoin="round"/>
<path d="M683.599 1798.01C683.599 1798.01 668.134 1566.5 1114.88 1505.28C1366.05 1470.87 1661.23 1625.84 1792.39 1469.49C1943.64 1290.63 1691.82 981.116 1972.75 1006.65C2253.68 1032.18 2457.14 998.434 2435.32 731.052" stroke="#999999" stroke-width="1.33333" stroke-miterlimit="10" stroke-linecap="round" stroke-linejoin="round"/>
<path d="M712.734 1816.09C712.734 1816.09 689.637 1582.2 1149.12 1525.95C1395.95 1495.73 1691.72 1656.01 1823.31 1498.65C1973.15 1320.85 1718.39 1007.15 1997.28 1032.5C2276.16 1057.85 2482.27 1025.03 2459.16 754.825" stroke="#999999" stroke-width="1.33333" stroke-miterlimit="10" stroke-linecap="round" stroke-linejoin="round"/>
<path d="M741.87 1834.16C741.87 1834.16 711.138 1597.51 1183.36 1546.61C1425.87 1520.47 1722.21 1686.17 1854.22 1527.82C2002.67 1351.06 1744.96 1033.19 2021.81 1058.35C2298.64 1083.51 2507.4 1051.63 2482.99 778.599" stroke="#999999" stroke-width="1.33333" stroke-miterlimit="10" stroke-linecap="round" stroke-linejoin="round"/>
<path d="M771.004 1852.24C771.004 1852.24 732.646 1612.43 1217.6 1567.27C1455.8 1545.1 1752.71 1716.34 1885.14 1556.99C2032.17 1381.27 1771.54 1059.22 2046.33 1084.2C2321.13 1109.18 2532.54 1078.23 2506.82 802.374" stroke="#999999" stroke-width="1.33333" stroke-miterlimit="10" stroke-linecap="round" stroke-linejoin="round"/>
<path d="M800.136 1870.31C800.136 1870.31 754.173 1626.91 1251.84 1587.94C1485.77 1569.62 1783.19 1746.51 1916.05 1586.16C2061.69 1411.49 1798.11 1085.26 2070.86 1110.05C2343.61 1134.84 2557.67 1104.82 2530.66 826.15" stroke="#999999" stroke-width="1.33333" stroke-miterlimit="10" stroke-linecap="round" stroke-linejoin="round"/>
<path d="M829.274 1888.38C829.274 1888.38 775.73 1640.95 1286.09 1608.6C1515.78 1594.04 1813.69 1776.68 1946.96 1615.33C2091.2 1441.7 1824.68 1111.3 2095.39 1135.9C2366.09 1160.5 2582.82 1131.42 2554.5 849.925" stroke="#999999" stroke-width="1.33333" stroke-miterlimit="10" stroke-linecap="round" stroke-linejoin="round"/>
<path d="M858.407 1906.46C858.407 1906.46 797.334 1654.52 1320.32 1629.26C1545.83 1618.37 1844.17 1806.85 1977.88 1644.49C2120.71 1471.91 1851.26 1137.33 2119.92 1161.75C2388.58 1186.17 2607.95 1158.02 2578.33 873.7" stroke="#999999" stroke-width="1.33333" stroke-miterlimit="10" stroke-linecap="round" stroke-linejoin="round"/>
<path d="M887.542 1924.54C887.542 1924.54 821.498 1704.54 1354.57 1649.93C1574.9 1627.35 1874.67 1837.02 2008.79 1673.66C2150.22 1502.13 1877.83 1163.37 2144.44 1187.6C2411.06 1211.83 2633.08 1184.61 2602.16 897.475" stroke="#999999" stroke-width="1.33333" stroke-miterlimit="10" stroke-linecap="round" stroke-linejoin="round"/>
<path d="M916.677 1942.61C916.677 1942.61 842.043 1709.56 1388.81 1670.59C1605.58 1655.14 1905.16 1867.18 2039.71 1702.83C2179.73 1532.34 1904.4 1189.4 2168.97 1213.45C2433.54 1237.5 2658.21 1211.21 2626 921.25" stroke="#999999" stroke-width="1.33333" stroke-miterlimit="10" stroke-linecap="round" stroke-linejoin="round"/>
<path d="M945.812 1960.68C945.812 1960.68 862.989 1712.93 1423.05 1691.25C1636.17 1683 1935.65 1897.35 2070.62 1732C2209.25 1562.55 1930.97 1215.44 2193.5 1239.3C2456.03 1263.16 2683.34 1237.81 2649.84 945.022" stroke="#999999" stroke-width="1.33333" stroke-miterlimit="10" stroke-linecap="round" stroke-linejoin="round"/>
<path d="M974.947 1978.76C974.947 1978.76 884.515 1703.65 1457.29 1711.91C1666.63 1714.94 1966.14 1927.52 2101.54 1761.17C2238.76 1592.77 1957.55 1241.47 2218.03 1265.15C2478.51 1288.82 2708.47 1264.4 2673.68 968.797" stroke="#999999" stroke-width="1.33333" stroke-miterlimit="10" stroke-linecap="round" stroke-linejoin="round"/>
<path d="M1004.08 1996.83C1004.08 1996.83 906.591 1714.53 1491.53 1732.58C1697.02 1738.92 1996.63 1957.69 2132.45 1790.34C2268.27 1622.98 1984.12 1267.51 2242.55 1291C2500.99 1314.49 2733.62 1291 2697.52 992.573" stroke="#999999" stroke-width="1.33333" stroke-miterlimit="10" stroke-linecap="round" stroke-linejoin="round"/>
<path d="M1589.09 -130.778H1589.32C1865.56 -130.778 2089.5 93.081 2089.5 369.277C2089.5 645.448 1865.56 869.308 1589.32 869.308C1313.08 869.308 1089.13 645.448 1089.13 369.277C1089.13 362.952 1089.26 356.677 1089.47 350.403" stroke="#999999" stroke-width="1.33333" stroke-miterlimit="10" stroke-linecap="round" stroke-linejoin="round"/>
<path d="M1574.24 -102.608C1579.25 -102.763 1584.28 -102.84 1589.32 -102.84C1850.12 -102.84 2061.56 108.522 2061.56 369.278C2061.56 630.009 1850.12 841.371 1589.32 841.371C1328.5 841.371 1117.08 630.009 1117.08 369.278C1117.08 362.255 1117.23 355.284 1117.54 348.338" stroke="#999999" stroke-width="1.33333" stroke-miterlimit="10" stroke-linecap="round" stroke-linejoin="round"/>
<path d="M1560.47 -73.9743C1570 -74.594 1579.63 -74.9038 1589.32 -74.9038C1834.7 -74.9038 2033.62 123.962 2033.62 369.278C2033.62 614.568 1834.7 813.459 1589.32 813.459C1343.94 813.459 1145.02 614.568 1145.02 369.278C1145.02 361.402 1145.23 353.605 1145.62 345.833" stroke="#999999" stroke-width="1.33333" stroke-miterlimit="10" stroke-linecap="round" stroke-linejoin="round"/>
<path d="M1547.71 -44.9262C1561.4 -46.2946 1575.27 -46.9918 1589.32 -46.9918C1819.25 -46.9918 2005.67 139.377 2005.67 369.278C2005.67 599.154 1819.25 785.522 1589.32 785.522C1359.36 785.522 1172.97 599.154 1172.97 369.278C1172.97 360.37 1173.25 351.514 1173.82 342.761" stroke="#999999" stroke-width="1.33333" stroke-miterlimit="10" stroke-linecap="round" stroke-linejoin="round"/>
<path d="M1535.73 -15.3883C1553.24 -17.8154 1571.14 -19.0547 1589.32 -19.0547C1803.84 -19.0547 1977.73 154.817 1977.73 369.278C1977.73 583.713 1803.84 757.585 1589.32 757.585C1374.8 757.585 1200.91 583.713 1200.91 369.278C1200.91 359.079 1201.3 348.983 1202.07 338.991" stroke="#999999" stroke-width="1.33333" stroke-miterlimit="10" stroke-linecap="round" stroke-linejoin="round"/>
<path d="M1524.39 14.7175C1545.47 10.8704 1567.16 8.88219 1589.32 8.88219C1788.39 8.88219 1949.78 170.231 1949.78 369.278C1949.78 568.298 1788.39 729.647 1589.32 729.647C1390.25 729.647 1228.86 568.298 1228.86 369.278C1228.86 357.478 1229.42 345.833 1230.54 334.317" stroke="#999999" stroke-width="1.33333" stroke-miterlimit="10" stroke-linecap="round" stroke-linejoin="round"/>
<path d="M1513.62 45.4948C1537.92 39.8144 1563.29 36.8193 1589.32 36.8193C1772.97 36.8193 1921.84 185.672 1921.84 369.278C1921.84 552.858 1772.97 701.71 1589.32 701.71C1405.67 701.71 1256.8 552.858 1256.8 369.278C1256.8 355.464 1257.65 341.831 1259.28 328.456" stroke="#999999" stroke-width="1.33333" stroke-miterlimit="10" stroke-linecap="round" stroke-linejoin="round"/>
<path d="M1503.24 77.0991C1530.54 69.0691 1559.41 64.7571 1589.32 64.7571C1757.53 64.7571 1893.89 201.087 1893.89 369.278C1893.89 537.444 1757.53 673.773 1589.32 673.773C1421.11 673.773 1284.75 537.444 1284.75 369.278C1284.75 352.857 1286.04 336.719 1288.57 320.995" stroke="#999999" stroke-width="1.33333" stroke-miterlimit="10" stroke-linecap="round" stroke-linejoin="round"/>
<path d="M1493.17 109.864C1523.1 98.7618 1555.51 92.6941 1589.32 92.6941C1742.11 92.6941 1865.95 216.527 1865.95 369.278C1865.95 522.003 1742.11 645.836 1589.32 645.836C1436.53 645.836 1312.69 522.003 1312.69 369.278C1312.69 349.345 1314.81 329.902 1318.84 311.157" stroke="#999999" stroke-width="1.33333" stroke-miterlimit="10" stroke-linecap="round" stroke-linejoin="round"/>
<path d="M1481.78 145.031C1514.34 129.384 1550.81 120.631 1589.32 120.631C1726.67 120.631 1838 231.941 1838 369.278C1838 506.588 1726.67 617.898 1589.32 617.898C1451.97 617.898 1340.61 506.588 1340.61 369.278C1340.61 344.258 1344.3 320.116 1351.17 297.369" stroke="#999999" stroke-width="1.33333" stroke-miterlimit="10" stroke-linecap="round" stroke-linejoin="round"/>
<path d="M1462.69 188.486C1498.54 163.337 1542.21 148.568 1589.32 148.568C1711.22 148.568 1810.06 247.381 1810.06 369.277C1810.06 491.148 1711.22 589.961 1589.32 589.961C1467.39 589.961 1368.55 491.148 1368.55 369.277C1368.55 335.169 1376.3 302.868 1390.12 274.028" stroke="#999999" stroke-width="1.33333" stroke-miterlimit="10" stroke-linecap="round" stroke-linejoin="round"/>
<path d="M1589.31 176.509C1695.8 176.509 1782.12 262.809 1782.12 369.265C1782.12 475.724 1695.8 562.024 1589.31 562.024C1482.83 562.024 1396.51 475.724 1396.51 369.265C1396.51 262.809 1482.83 176.509 1589.31 176.509Z" stroke="#999999" stroke-width="1.33333" stroke-miterlimit="10" stroke-linecap="round" stroke-linejoin="round"/>
<path d="M1589.31 204.443C1680.37 204.443 1754.18 278.237 1754.18 369.265C1754.18 460.296 1680.37 534.087 1589.31 534.087C1498.26 534.087 1424.45 460.296 1424.45 369.265C1424.45 278.237 1498.26 204.443 1589.31 204.443Z" stroke="#999999" stroke-width="1.33333" stroke-miterlimit="10" stroke-linecap="round" stroke-linejoin="round"/>
<path d="M1589.31 232.38C1664.94 232.38 1726.24 293.664 1726.24 369.265C1726.24 444.866 1664.94 506.152 1589.31 506.152C1513.7 506.152 1452.39 444.866 1452.39 369.265C1452.39 293.664 1513.7 232.38 1589.31 232.38Z" stroke="#999999" stroke-width="1.33333" stroke-miterlimit="10" stroke-linecap="round" stroke-linejoin="round"/>
<path d="M1589.31 260.315C1649.5 260.315 1698.29 309.094 1698.29 369.265C1698.29 429.436 1649.5 478.215 1589.31 478.215C1529.13 478.215 1480.34 429.436 1480.34 369.265C1480.34 309.094 1529.13 260.315 1589.31 260.315Z" stroke="#999999" stroke-width="1.33333" stroke-miterlimit="10" stroke-linecap="round" stroke-linejoin="round"/>
<path d="M1589.31 288.252C1634.07 288.252 1670.35 324.524 1670.35 369.265C1670.35 414.008 1634.07 450.28 1589.31 450.28C1544.56 450.28 1508.28 414.008 1508.28 369.265C1508.28 324.524 1544.56 288.252 1589.31 288.252Z" stroke="#999999" stroke-width="1.33333" stroke-miterlimit="10" stroke-linecap="round" stroke-linejoin="round"/>
<path d="M1642.41 369.265C1642.41 398.581 1618.64 422.343 1589.31 422.343C1559.99 422.343 1536.22 398.581 1536.22 369.265C1536.22 339.951 1559.99 316.186 1589.31 316.186C1618.64 316.186 1642.41 339.951 1642.41 369.265Z" stroke="#999999" stroke-width="1.33333" stroke-miterlimit="10" stroke-linecap="round" stroke-linejoin="round"/>
<path d="M1618.91 369.265C1618.91 385.609 1605.66 398.857 1589.31 398.857C1572.97 398.857 1559.72 385.609 1559.72 369.265C1559.72 352.924 1572.97 339.675 1589.31 339.675C1605.66 339.675 1618.91 352.924 1618.91 369.265Z" stroke="#999999" stroke-width="1.33333" stroke-miterlimit="10" stroke-linecap="round" stroke-linejoin="round"/>
<path d="M646.222 188.602C646.222 531.009 368.573 808.584 26.0796 808.584C-316.418 808.584 -594.065 531.009 -594.065 188.602C-594.065 -153.805 -316.418 -431.38 26.0796 -431.38C368.573 -431.38 646.222 -153.805 646.222 188.602Z" stroke="#999999" stroke-width="1.33333" stroke-miterlimit="10" stroke-linecap="round" stroke-linejoin="round"/>
<path d="M26.0802 -396.745C349.441 -396.745 611.576 -134.675 611.576 188.602C611.576 511.881 349.441 773.949 26.0802 773.949C-297.282 773.949 -559.42 511.881 -559.42 188.602C-559.42 -134.675 -297.282 -396.745 26.0802 -396.745Z" stroke="#999999" stroke-width="1.33333" stroke-miterlimit="10" stroke-linecap="round" stroke-linejoin="round"/>
<path d="M26.0801 -362.107C330.306 -362.107 576.932 -115.547 576.932 188.602C576.932 492.752 330.306 739.314 26.0801 739.314C-278.147 739.314 -524.774 492.752 -524.774 188.602C-524.774 -115.547 -278.147 -362.107 26.0801 -362.107Z" stroke="#999999" stroke-width="1.33333" stroke-miterlimit="10" stroke-linecap="round" stroke-linejoin="round"/>
<path d="M26.0799 -327.473C311.173 -327.473 542.288 -96.417 542.288 188.602C542.288 473.624 311.173 704.677 26.0799 704.677C-259.015 704.677 -490.13 473.624 -490.13 188.602C-490.13 -96.417 -259.015 -327.473 26.0799 -327.473Z" stroke="#999999" stroke-width="1.33333" stroke-miterlimit="10" stroke-linecap="round" stroke-linejoin="round"/>
<path d="M26.0799 -292.837C292.038 -292.837 507.642 -77.2894 507.642 188.602C507.642 454.494 292.038 670.042 26.0799 670.042C-239.881 670.042 -455.484 454.494 -455.484 188.602C-455.484 -77.2894 -239.881 -292.837 26.0799 -292.837Z" stroke="#999999" stroke-width="1.33333" stroke-miterlimit="10" stroke-linecap="round" stroke-linejoin="round"/>
<path d="M26.0795 -258.2C272.905 -258.2 472.998 -58.1595 472.998 188.602C472.998 435.364 272.905 635.404 26.0795 635.404C-220.748 635.404 -420.84 435.364 -420.84 188.602C-420.84 -58.1595 -220.748 -258.2 26.0795 -258.2Z" stroke="#999999" stroke-width="1.33333" stroke-miterlimit="10" stroke-linecap="round" stroke-linejoin="round"/>
<path d="M26.0802 -223.565C253.771 -223.565 438.352 -39.0319 438.352 188.602C438.352 416.237 253.771 600.77 26.0802 600.77C-201.614 600.77 -386.196 416.237 -386.196 188.602C-386.196 -39.0319 -201.614 -223.565 26.0802 -223.565Z" stroke="#999999" stroke-width="1.33333" stroke-miterlimit="10" stroke-linecap="round" stroke-linejoin="round"/>
<path d="M26.0804 -188.927C234.638 -188.927 403.708 -19.9017 403.708 188.603C403.708 397.107 234.638 566.135 26.0804 566.135C-182.479 566.135 -351.549 397.107 -351.549 188.603C-351.549 -19.9017 -182.479 -188.927 26.0804 -188.927Z" stroke="#999999" stroke-width="1.33333" stroke-miterlimit="10" stroke-linecap="round" stroke-linejoin="round"/>
<path d="M26.0801 -154.292C215.504 -154.292 369.064 -0.771417 369.064 188.603C369.064 377.98 215.504 531.5 26.0801 531.5C-163.346 531.5 -316.905 377.98 -316.905 188.603C-316.905 -0.771417 -163.346 -154.292 26.0801 -154.292Z" stroke="#999999" stroke-width="1.33333" stroke-miterlimit="10" stroke-linecap="round" stroke-linejoin="round"/>
<path d="M26.0797 -119.657C196.37 -119.657 334.417 18.3557 334.417 188.602C334.417 358.849 196.37 496.862 26.0797 496.862C-144.212 496.862 -282.262 358.849 -282.262 188.602C-282.262 18.3557 -144.212 -119.657 26.0797 -119.657Z" stroke="#999999" stroke-width="1.33333" stroke-miterlimit="10" stroke-linecap="round" stroke-linejoin="round"/>
<path d="M26.08 -85.0195C177.237 -85.0195 299.774 37.4861 299.774 188.603C299.774 339.722 177.237 462.228 26.08 462.228C-125.079 462.228 -247.615 339.722 -247.615 188.603C-247.615 37.4861 -125.079 -85.0195 26.08 -85.0195Z" stroke="#999999" stroke-width="1.33333" stroke-miterlimit="10" stroke-linecap="round" stroke-linejoin="round"/>
<path d="M26.0804 -50.3848C158.102 -50.3848 265.13 56.6133 265.13 188.603C265.13 320.592 158.102 427.59 26.0804 427.59C-105.944 427.59 -212.971 320.592 -212.971 188.603C-212.971 56.6133 -105.944 -50.3848 26.0804 -50.3848Z" stroke="#999999" stroke-width="1.33333" stroke-miterlimit="10" stroke-linecap="round" stroke-linejoin="round"/>
<path d="M26.08 -15.7497C138.969 -15.7497 230.484 75.741 230.484 188.603C230.484 301.462 138.969 392.955 26.08 392.955C-86.8099 392.955 -178.326 301.462 -178.326 188.603C-178.326 75.741 -86.8099 -15.7497 26.08 -15.7497Z" stroke="#999999" stroke-width="1.33333" stroke-miterlimit="10" stroke-linecap="round" stroke-linejoin="round"/>
<path d="M26.0798 18.8851C119.834 18.8851 195.838 94.8708 195.838 188.603C195.838 282.334 119.834 358.317 26.0798 358.317C-67.6772 358.317 -143.68 282.334 -143.68 188.603C-143.68 94.8708 -67.6772 18.8851 26.0798 18.8851Z" stroke="#999999" stroke-width="1.33333" stroke-miterlimit="10" stroke-linecap="round" stroke-linejoin="round"/>
<path d="M26.0797 53.5228C100.7 53.5228 161.193 114.001 161.193 188.603C161.193 263.204 100.7 323.683 26.0797 323.683C-48.5433 323.683 -109.037 263.204 -109.037 188.603C-109.037 114.001 -48.5433 53.5228 26.0797 53.5228Z" stroke="#999999" stroke-width="1.33333" stroke-miterlimit="10" stroke-linecap="round" stroke-linejoin="round"/>
<path d="M26.0803 88.1605C81.5681 88.1605 126.549 133.129 126.549 188.603C126.549 244.077 81.5681 289.048 26.0803 289.048C-29.4089 289.048 -74.3906 244.077 -74.3906 188.603C-74.3906 133.129 -29.4089 88.1605 26.0803 88.1605Z" stroke="#999999" stroke-width="1.33333" stroke-miterlimit="10" stroke-linecap="round" stroke-linejoin="round"/>
<path d="M91.9044 188.602C91.9044 224.946 62.4326 254.412 26.0797 254.412C-10.2765 254.412 -39.7461 224.946 -39.7461 188.602C-39.7461 152.258 -10.2765 122.792 26.0797 122.792C62.4326 122.792 91.9044 152.258 91.9044 188.602Z" stroke="#999999" stroke-width="1.33333" stroke-miterlimit="10" stroke-linecap="round" stroke-linejoin="round"/>
<path d="M65.2956 188.603C65.2956 210.258 47.7376 227.811 26.0797 227.811C4.41942 227.811 -13.1387 210.258 -13.1387 188.603C-13.1387 166.95 4.41942 149.398 26.0797 149.398C47.7376 149.398 65.2956 166.95 65.2956 188.603Z" stroke="#999999" stroke-width="1.33333" stroke-miterlimit="10" stroke-linecap="round" stroke-linejoin="round"/>
<path d="M865.269 1042.2C838.771 1044.91 811.498 1048.06 783.579 1052.11" stroke="#999999" stroke-width="1.33333" stroke-miterlimit="10" stroke-linecap="round" stroke-linejoin="round"/>
<path d="M572.55 1102.95H572.523" stroke="#999999" stroke-width="1.33333" stroke-miterlimit="10" stroke-linecap="round" stroke-linejoin="round"/>
<path d="M440.807 1164.25C428.23 1129.24 421.386 1091.46 421.386 1052.11C421.386 868.714 570.096 720.042 753.542 720.042C925.471 720.042 1066.87 850.614 1083.97 1017.98" stroke="#999999" stroke-width="1.33333" stroke-miterlimit="10" stroke-linecap="round" stroke-linejoin="round"/>
<path d="M466.299 1149.58C455.916 1118.99 450.286 1086.2 450.286 1052.11C450.286 884.671 586.057 748.909 753.543 748.909C911.137 748.909 1040.68 869.101 1055.4 1022.81" stroke="#999999" stroke-width="1.33333" stroke-miterlimit="10" stroke-linecap="round" stroke-linejoin="round"/>
<path d="M492.358 1136.31C483.783 1109.8 479.16 1081.5 479.16 1052.11C479.16 900.628 602.018 777.802 753.543 777.802C896.493 777.802 1013.93 887.124 1026.74 1026.68" stroke="#999999" stroke-width="1.33333" stroke-miterlimit="10" stroke-linecap="round" stroke-linejoin="round"/>
<path d="M518.83 1124.23C511.831 1101.43 508.06 1077.21 508.06 1052.11C508.06 916.559 617.952 806.669 753.542 806.669C881.617 806.669 986.809 904.733 998.044 1029.86" stroke="#999999" stroke-width="1.33333" stroke-miterlimit="10" stroke-linecap="round" stroke-linejoin="round"/>
<path d="M545.664 1113.1C539.982 1093.76 536.935 1073.29 536.935 1052.11C536.935 932.516 633.914 835.561 753.543 835.561C866.612 835.561 959.433 922.162 969.273 1032.65" stroke="#999999" stroke-width="1.33333" stroke-miterlimit="10" stroke-linecap="round" stroke-linejoin="round"/>
<path d="M572.782 1102.85C568.263 1086.71 565.835 1069.7 565.835 1052.11C565.835 948.472 649.875 864.453 753.543 864.453C851.529 864.453 932.005 939.512 940.502 1035.25" stroke="#999999" stroke-width="1.33333" stroke-miterlimit="10" stroke-linecap="round" stroke-linejoin="round"/>
<path d="M600.184 1093.5C596.594 1080.31 594.709 1066.42 594.709 1052.11C594.709 964.403 665.81 893.321 753.543 893.321C836.447 893.321 904.5 956.812 911.731 1037.81" stroke="#999999" stroke-width="1.33333" stroke-miterlimit="10" stroke-linecap="round" stroke-linejoin="round"/>
<path d="M627.819 1085.03C625.082 1074.53 623.609 1063.5 623.609 1052.11C623.609 980.36 681.771 922.213 753.543 922.213C821.39 922.213 877.098 974.163 882.961 1040.47" stroke="#999999" stroke-width="1.33333" stroke-miterlimit="10" stroke-linecap="round" stroke-linejoin="round"/>
<path d="M655.659 1077.39C653.593 1069.31 652.482 1060.84 652.482 1052.11C652.482 996.316 697.731 951.079 753.542 951.079C806.409 951.079 849.798 991.668 854.24 1043.36" stroke="#999999" stroke-width="1.33333" stroke-miterlimit="10" stroke-linecap="round" stroke-linejoin="round"/>
<path d="M683.759 1070.55C682.209 1064.66 681.383 1058.49 681.383 1052.11C681.383 1012.27 713.692 979.973 753.542 979.973C791.534 979.973 822.706 1009.33 825.496 1046.59" stroke="#999999" stroke-width="1.33333" stroke-miterlimit="10" stroke-linecap="round" stroke-linejoin="round"/>
<path d="M712.04 1064.43C710.878 1060.53 710.258 1056.4 710.258 1052.11C710.258 1028.2 729.628 1008.84 753.543 1008.84C776.839 1008.84 795.822 1027.2 796.777 1050.26" stroke="#999999" stroke-width="1.33333" stroke-miterlimit="10" stroke-linecap="round" stroke-linejoin="round"/>
<path d="M-637.51 1102.69C-378.505 1357.93 -162.731 1217.6 -41.115 1577.13C80.5012 1936.66 213.929 2051.93 595.878 2070.11" stroke="#999999" stroke-width="1.33333" stroke-miterlimit="10" stroke-linecap="round" stroke-linejoin="round"/>
<path d="M-607.363 1083.07C-349.873 1336.82 -135.362 1197.31 -14.4582 1554.74C106.447 1912.16 239.092 2026.76 618.807 2044.83" stroke="#999999" stroke-width="1.33333" stroke-miterlimit="10" stroke-linecap="round" stroke-linejoin="round"/>
<path d="M-577.212 1063.46C-321.239 1315.71 -107.994 1177.02 12.1991 1532.34C132.391 1887.66 264.257 2001.58 641.734 2019.55" stroke="#999999" stroke-width="1.33333" stroke-miterlimit="10" stroke-linecap="round" stroke-linejoin="round"/>
<path d="M-547.063 1043.84C-292.608 1294.6 -80.6251 1156.73 38.8545 1509.95C158.336 1863.17 289.419 1976.41 664.66 1994.27" stroke="#999999" stroke-width="1.33333" stroke-miterlimit="10" stroke-linecap="round" stroke-linejoin="round"/>
<path d="M-516.915 1024.23C-263.975 1273.49 -53.2558 1136.45 65.5125 1487.56C184.281 1838.67 314.585 1951.24 687.586 1968.99" stroke="#999999" stroke-width="1.33333" stroke-miterlimit="10" stroke-linecap="round" stroke-linejoin="round"/>
<path d="M-486.765 1004.61C-235.343 1252.38 -25.8874 1116.16 92.1698 1465.16C210.225 1814.17 339.748 1926.06 710.515 1943.71" stroke="#999999" stroke-width="1.33333" stroke-miterlimit="10" stroke-linecap="round" stroke-linejoin="round"/>
<path d="M-456.617 984.995C-206.71 1231.27 1.48191 1095.87 118.827 1442.77C236.171 1789.67 364.911 1900.89 733.442 1918.43" stroke="#999999" stroke-width="1.33333" stroke-miterlimit="10" stroke-linecap="round" stroke-linejoin="round"/>
<path d="M-426.467 965.382C-178.078 1210.16 28.8514 1075.58 145.484 1420.38C262.116 1765.17 390.074 1875.72 756.369 1893.15" stroke="#999999" stroke-width="1.33333" stroke-miterlimit="10" stroke-linecap="round" stroke-linejoin="round"/>
<path d="M-396.312 945.761C-149.434 1189.06 56.2226 1055.29 172.133 1397.97C175.775 1408.71 179.417 1419.22 183.057 1429.5" stroke="#999999" stroke-width="1.33333" stroke-miterlimit="10" stroke-linecap="round" stroke-linejoin="round"/>
<path d="M-366.172 926.138C-120.818 1167.94 83.599 1034.99 198.787 1375.59C200.956 1382.02 203.151 1388.37 205.347 1394.62" stroke="#999999" stroke-width="1.33333" stroke-miterlimit="10" stroke-linecap="round" stroke-linejoin="round"/>
<path d="M-336.032 906.54C-92.1766 1146.82 110.95 1014.73 225.466 1353.2C226.472 1356.14 227.455 1359.06 228.462 1361.98" stroke="#999999" stroke-width="1.33333" stroke-miterlimit="10" stroke-linecap="round" stroke-linejoin="round"/>
<path d="M-305.867 886.917C-63.5358 1125.73 138.326 994.432 252.118 1330.81C252.17 1331 252.247 1331.15 252.299 1331.33" stroke="#999999" stroke-width="1.33333" stroke-miterlimit="10" stroke-linecap="round" stroke-linejoin="round"/>
<path d="M-275.728 867.294C-36.3149 1103.21 163.351 975.66 276.782 1302.59" stroke="#999999" stroke-width="1.33333" stroke-miterlimit="10" stroke-linecap="round" stroke-linejoin="round"/>
<path d="M-245.562 847.697C-8.78332 1081.03 188.867 956.528 301.86 1275.74" stroke="#999999" stroke-width="1.33333" stroke-miterlimit="10" stroke-linecap="round" stroke-linejoin="round"/>
<path d="M-202.069 840.88C26.5744 1054.75 217.252 942.947 327.532 1250.59" stroke="#999999" stroke-width="1.33333" stroke-miterlimit="10" stroke-linecap="round" stroke-linejoin="round"/>
<path d="M-125.286 860.994C80.8367 1020.07 251.808 943.98 353.824 1227.15" stroke="#999999" stroke-width="1.33333" stroke-miterlimit="10" stroke-linecap="round" stroke-linejoin="round"/>
<path d="M-52.3008 871.502C133.264 990.222 286.597 943.462 380.709 1205.43" stroke="#999999" stroke-width="1.33333" stroke-miterlimit="10" stroke-linecap="round" stroke-linejoin="round"/>
<path d="M18.0518 875.246C184.53 964.325 321.721 942.223 408.215 1185.32" stroke="#999999" stroke-width="1.33333" stroke-miterlimit="10" stroke-linecap="round" stroke-linejoin="round"/>
<path d="M83.4443 872.923C233.393 942.069 356.742 939.28 436.288 1166.99" stroke="#999999" stroke-width="1.33333" stroke-miterlimit="10" stroke-linecap="round" stroke-linejoin="round"/>
<path d="M142.407 865.59C254.391 912.118 350.001 928.333 421.386 1051.75" stroke="#999999" stroke-width="1.33333" stroke-miterlimit="10" stroke-linecap="round" stroke-linejoin="round"/>
<path d="M195.068 854.694C285.073 889.887 363.535 911.266 426.113 996.007" stroke="#999999" stroke-width="1.33333" stroke-miterlimit="10" stroke-linecap="round" stroke-linejoin="round"/>
<path d="M242.098 841.19C316.013 869.359 381.613 891.539 436.262 953.507" stroke="#999999" stroke-width="1.33333" stroke-miterlimit="10" stroke-linecap="round" stroke-linejoin="round"/>
<path d="M284.428 825.827C346.231 849.22 401.862 870.392 449.77 917.617" stroke="#999999" stroke-width="1.33333" stroke-miterlimit="10" stroke-linecap="round" stroke-linejoin="round"/>
<path d="M322.78 808.94C375.518 828.977 423.582 848.497 465.912 885.936" stroke="#999999" stroke-width="1.33333" stroke-miterlimit="10" stroke-linecap="round" stroke-linejoin="round"/>
<path d="M484.506 857.327C446.464 826.369 404.005 808.476 357.801 790.815" stroke="#999999" stroke-width="1.33333" stroke-miterlimit="10" stroke-linecap="round" stroke-linejoin="round"/>
<path d="M505.606 831.12C470.534 804.267 431.794 787.691 389.98 771.605" stroke="#999999" stroke-width="1.33333" stroke-miterlimit="10" stroke-linecap="round" stroke-linejoin="round"/>
<path d="M529.29 807.159C495.896 782.475 459.196 766.699 419.733 751.465" stroke="#999999" stroke-width="1.33333" stroke-miterlimit="10" stroke-linecap="round" stroke-linejoin="round"/>
<path d="M555.762 785.29C522.626 761.019 486.262 745.476 447.161 730.423" stroke="#999999" stroke-width="1.33333" stroke-miterlimit="10" stroke-linecap="round" stroke-linejoin="round"/>
<path d="M585.282 765.744C551.062 740.182 513.329 724.251 472.626 708.656" stroke="#999999" stroke-width="1.33333" stroke-miterlimit="10" stroke-linecap="round" stroke-linejoin="round"/>
<path d="M618.211 748.754H618.185C581.485 719.913 540.602 703.104 496.231 686.166" stroke="#999999" stroke-width="1.33333" stroke-miterlimit="10" stroke-linecap="round" stroke-linejoin="round"/>
<path d="M654.678 735.018H654.653C614.208 700.29 568.366 682.087 518.133 663.031" stroke="#999999" stroke-width="1.33333" stroke-miterlimit="10" stroke-linecap="round" stroke-linejoin="round"/>
<path d="M694.554 725.284H694.528C649.306 681.106 596.775 661.38 538.432 639.304" stroke="#999999" stroke-width="1.33333" stroke-miterlimit="10" stroke-linecap="round" stroke-linejoin="round"/>
<path d="M737.324 720.43H737.298C686.703 661.947 625.856 641.111 557.234 615.032" stroke="#999999" stroke-width="1.33333" stroke-miterlimit="10" stroke-linecap="round" stroke-linejoin="round"/>
<path d="M781.901 721.256H781.875C725.831 642.118 655.428 621.281 574.564 590.09" stroke="#999999" stroke-width="1.33333" stroke-miterlimit="10" stroke-linecap="round" stroke-linejoin="round"/>
<path d="M590.499 564.58C685.128 602.07 765.991 620.842 826.994 728.201" stroke="#999999" stroke-width="1.33333" stroke-miterlimit="10" stroke-linecap="round" stroke-linejoin="round"/>
<path d="M605.633 538.553C715.061 583.635 806.823 597.5 871.725 741.705" stroke="#999999" stroke-width="1.33333" stroke-miterlimit="10" stroke-linecap="round" stroke-linejoin="round"/>
<path d="M620.717 512.269C745.382 566.181 848.043 571.784 915.451 762.104" stroke="#999999" stroke-width="1.33333" stroke-miterlimit="10" stroke-linecap="round" stroke-linejoin="round"/>
<path d="M636.6 486.036C768.135 546.016 876.09 544.235 945.202 748.574C950.368 763.808 955.533 778.474 960.776 792.623" stroke="#999999" stroke-width="1.33333" stroke-miterlimit="10" stroke-linecap="round" stroke-linejoin="round"/>
<path d="M654.291 460.319C789.958 525.411 901.271 517.588 971.856 726.187C989.444 778.189 1007.37 823.632 1026.79 863.24C1026.79 863.266 1026.81 863.292 1026.81 863.317" stroke="#999999" stroke-width="1.33333" stroke-miterlimit="10" stroke-linecap="round" stroke-linejoin="round"/>
<path d="M1058.68 920.716V920.742C1080.15 954.695 1103.78 983.071 1130.79 1006.7" stroke="#999999" stroke-width="1.33333" stroke-miterlimit="10" stroke-linecap="round" stroke-linejoin="round"/>
<path d="M674.952 435.842C813.383 504.936 927.02 492.491 998.509 703.802C1045.38 842.403 1094.56 933.935 1168.76 992.624" stroke="#999999" stroke-width="1.33333" stroke-miterlimit="10" stroke-linecap="round" stroke-linejoin="round"/>
<path d="M699.952 413.379C839.21 484.332 953.518 469.589 1025.16 681.39C1073.33 823.814 1123.92 916.172 1202.02 974.086" stroke="#999999" stroke-width="1.33333" stroke-miterlimit="10" stroke-linecap="round" stroke-linejoin="round"/>
<path d="M730.505 393.781C868.058 463.34 980.972 449.526 1051.81 659.004C1100.11 801.737 1150.83 893.811 1229.66 951.157" stroke="#999999" stroke-width="1.33333" stroke-miterlimit="10" stroke-linecap="round" stroke-linejoin="round"/>
<path d="M768.238 377.695C900.806 441.987 1009.64 433.131 1078.47 636.618C1125.86 776.692 1175.6 867.604 1252.36 924.614" stroke="#999999" stroke-width="1.33333" stroke-miterlimit="10" stroke-linecap="round" stroke-linejoin="round"/>
<path d="M815.32 365.663C938.72 420.737 1039.99 421.615 1105.12 614.232C1150.96 749.736 1199.05 838.866 1272.01 895.696" stroke="#999999" stroke-width="1.33333" stroke-miterlimit="10" stroke-linecap="round" stroke-linejoin="round"/>
<path d="M875.806 358.485C983.968 401.449 1072.81 417.406 1131.8 591.82C1175.42 720.817 1221.08 807.443 1288.65 864.066" stroke="#999999" stroke-width="1.33333" stroke-miterlimit="10" stroke-linecap="round" stroke-linejoin="round"/>
<path d="M1206.62 691.227C1234.1 749.116 1264.7 794.275 1302.23 829.08" stroke="#999999" stroke-width="1.33333" stroke-miterlimit="10" stroke-linecap="round" stroke-linejoin="round"/>
<path d="M952.279 356.238C1006.41 376.972 1054.6 398.067 1095.26 447.719" stroke="#999999" stroke-width="1.33333" stroke-miterlimit="10" stroke-linecap="round" stroke-linejoin="round"/>
<path d="M1312.77 789.809C1309.67 786.529 1306.62 783.199 1303.62 779.765" stroke="#999999" stroke-width="1.33333" stroke-miterlimit="10" stroke-linecap="round" stroke-linejoin="round"/>
<path d="M1089.7 393.342C1069.53 376.662 1047.89 364.372 1024.93 353.837" stroke="#999999" stroke-width="1.33333" stroke-miterlimit="10" stroke-linecap="round" stroke-linejoin="round"/>
<path d="M1089.42 352.34C1088.46 351.746 1087.51 351.152 1086.55 350.584" stroke="#999999" stroke-width="1.33333" stroke-miterlimit="10" stroke-linecap="round" stroke-linejoin="round"/>
</g>
<g opacity="0.12" clip-path="url(#clip1_1357_2646)">
<path d="M2152.07 1397.29C1801.83 1375.64 1628.51 1437 1498.53 1877.4C1438.23 2081.7 1299.94 2112.03 913.591 2119.25C658.403 2124.02 656.916 2249.73 566.675 2373.7C428.386 2563.69 217.953 2637.29 33.0797 2637.29C-0.516245 2637.29 -160.583 2635.7 -275.262 2566.27" stroke="#999999" stroke-width="1.33333" stroke-miterlimit="10" stroke-linecap="round" stroke-linejoin="round"/>
<path d="M2139.45 1371.89C1789.05 1346.07 1613.64 1409.82 1485.2 1842.69C1424.67 2046.04 1292.44 2081.49 904.566 2085.79C724.373 2087.79 659.011 2145.8 614.434 2229.92C599.276 2258.52 560.185 2335.34 519.428 2379.12C396.243 2511.43 228.043 2604.58 33.0804 2604.58C-70.4303 2604.58 -205.971 2583.77 -344.549 2482.92" stroke="#999999" stroke-width="1.33333" stroke-miterlimit="10" stroke-linecap="round" stroke-linejoin="round"/>
<path d="M589.725 2224.18C589.751 2224.15 589.777 2224.13 589.777 2224.07C642.386 2128.23 694.168 2053.04 895.539 2052.32C1284.93 2050.95 1411.12 2010.39 1471.86 1807.99C1598.77 1382.63 1776.28 1316.5 2126.83 1346.48" stroke="#999999" stroke-width="1.33333" stroke-miterlimit="10" stroke-linecap="round" stroke-linejoin="round"/>
<path d="M646.027 2045.4C693.574 2007.47 761.653 1984.1 877.486 1985.42C1269.95 1989.86 1384.02 1939.05 1445.21 1738.56C1569.05 1328.28 1750.71 1257.35 2101.59 1295.67" stroke="#999999" stroke-width="1.33333" stroke-miterlimit="10" stroke-linecap="round" stroke-linejoin="round"/>
<path d="M651.451 1998.05C698.972 1967.79 764.985 1950.02 868.446 1951.96C1262.43 1959.32 1370.47 1903.39 1431.86 1703.85C1554.17 1301.09 1737.95 1227.78 2088.99 1270.26" stroke="#999999" stroke-width="1.33333" stroke-miterlimit="10" stroke-linecap="round" stroke-linejoin="round"/>
<path d="M653.207 1955.37C700.496 1930.14 764.494 1916.02 859.433 1918.5C1254.94 1928.77 1357.35 1867.86 1418.53 1669.15C1540.15 1274.16 1725.17 1198.19 2076.39 1244.85" stroke="#999999" stroke-width="1.33333" stroke-miterlimit="10" stroke-linecap="round" stroke-linejoin="round"/>
<path d="M652.226 1915.35C699.23 1893.68 761.472 1882.06 850.394 1885.03C1247.45 1898.23 1343.84 1832.23 1405.2 1634.42C1525.4 1247.02 1712.38 1168.63 2063.76 1219.45" stroke="#999999" stroke-width="1.33333" stroke-miterlimit="10" stroke-linecap="round" stroke-linejoin="round"/>
<path d="M648.894 1877.11C695.692 1857.95 756.643 1848.16 841.38 1851.57C1239.94 1867.68 1330.33 1796.6 1391.88 1599.72C1510.6 1219.86 1699.63 1139.07 2051.15 1194.04" stroke="#999999" stroke-width="1.33333" stroke-miterlimit="10" stroke-linecap="round" stroke-linejoin="round"/>
<path d="M643.418 1840.11C690.216 1822.7 750.341 1814.21 832.341 1818.11C1232.45 1837.14 1316.82 1760.94 1378.55 1565.02C1495.8 1192.69 1686.84 1109.48 2038.52 1168.63" stroke="#999999" stroke-width="1.33333" stroke-miterlimit="10" stroke-linecap="round" stroke-linejoin="round"/>
<path d="M635.8 1804.09C682.804 1787.85 742.671 1780.26 823.327 1784.64C1224.96 1806.59 1303.32 1725.31 1365.2 1530.29C1480.98 1165.53 1674.06 1079.91 2025.92 1143.22" stroke="#999999" stroke-width="1.33333" stroke-miterlimit="10" stroke-linecap="round" stroke-linejoin="round"/>
<path d="M626.141 1768.84C673.636 1753.2 733.838 1746.22 814.288 1751.18C1217.44 1776.05 1289.81 1689.65 1351.87 1495.59C1466.15 1138.37 1661.3 1050.35 2013.29 1117.82" stroke="#999999" stroke-width="1.33333" stroke-miterlimit="10" stroke-linecap="round" stroke-linejoin="round"/>
<path d="M634.405 2102.77C681.513 2051.8 750.496 2018.34 886.499 2018.88C1277.44 2020.41 1397.56 1974.71 1458.53 1773.26C1583.9 1355.44 1763.5 1286.91 2114.22 1321.07" stroke="#999999" stroke-width="1.33333" stroke-miterlimit="10" stroke-linecap="round" stroke-linejoin="round"/>
<path d="M589.777 2224.07C589.777 2224.13 589.751 2224.15 589.725 2224.18" stroke="#999999" stroke-width="1.33333" stroke-miterlimit="10" stroke-linecap="round" stroke-linejoin="round"/>
<path d="M166.167 3234.67C166.167 3234.67 276.422 3002.08 505.556 2895.34C823.328 2747.34 1119.4 2844.81 1242.93 2706.47C1289.32 2654.52 1309.77 2600.04 1320.49 2548.45" stroke="#999999" stroke-width="1.33333" stroke-miterlimit="10" stroke-linecap="round" stroke-linejoin="round"/>
<path d="M195.3 3252.74C195.3 3252.74 299.717 3021.5 539.802 2916.03C855.481 2777.35 1149.91 2875 1273.85 2735.62C1322.81 2680.65 1342.29 2622.37 1351.87 2567.61" stroke="#999999" stroke-width="1.33333" stroke-miterlimit="10" stroke-linecap="round" stroke-linejoin="round"/>
<path d="M224.433 3270.82C224.433 3270.82 322.807 3040.86 574.049 2936.68C887.275 2806.81 1180.38 2905.15 1304.76 2764.8C1357.11 2705.82 1375.09 2642.59 1383.22 2583.77" stroke="#999999" stroke-width="1.33333" stroke-miterlimit="10" stroke-linecap="round" stroke-linejoin="round"/>
<path d="M253.591 3288.89C253.591 3288.89 345.689 3060.15 608.268 2957.34C918.757 2835.8 1210.88 2935.31 1335.68 2793.97C1392.21 2730.12 1407.81 2660.67 1414.29 2597.15" stroke="#999999" stroke-width="1.33333" stroke-miterlimit="10" stroke-linecap="round" stroke-linejoin="round"/>
<path d="M282.724 3306.96C282.724 3306.96 368.391 3079.34 642.515 2977.99C949.956 2864.36 1241.36 2965.5 1366.59 2823.12C1427.98 2753.62 1440.12 2676.67 1444.85 2607.94" stroke="#999999" stroke-width="1.33333" stroke-miterlimit="10" stroke-linecap="round" stroke-linejoin="round"/>
<path d="M311.856 3325.04C311.856 3325.04 390.964 3098.44 676.761 2998.68C980.922 2892.5 1271.86 2995.65 1397.51 2852.3C1464.37 2776.37 1471.6 2690.67 1474.73 2616.44" stroke="#999999" stroke-width="1.33333" stroke-miterlimit="10" stroke-linecap="round" stroke-linejoin="round"/>
<path d="M340.988 3343.11C340.988 3343.11 413.38 3117.39 711.007 3019.33C1011.68 2920.26 1302.33 3025.84 1428.42 2881.48C1501.38 2798.39 1501.85 2702.47 1504.01 2622.79" stroke="#999999" stroke-width="1.33333" stroke-miterlimit="10" stroke-linecap="round" stroke-linejoin="round"/>
<path d="M2203.97 2255.29C2210.86 2441.71 2104.87 2509 1915.07 2516.62" stroke="#999999" stroke-width="1.33333" stroke-miterlimit="10" stroke-linecap="round" stroke-linejoin="round"/>
<path d="M2227.81 2279.07C2236.49 2486.35 2105.93 2547.01 1880.18 2543.03" stroke="#999999" stroke-width="1.33333" stroke-miterlimit="10" stroke-linecap="round" stroke-linejoin="round"/>
<path d="M2251.65 2302.85C2262.29 2530.89 2104.85 2582.28 1842.91 2566.4" stroke="#999999" stroke-width="1.33333" stroke-miterlimit="10" stroke-linecap="round" stroke-linejoin="round"/>
<path d="M2275.48 2326.63C2288.19 2574.25 2103.3 2614.53 1808.05 2587.7C1806.01 2587.52 1803.99 2587.34 1802 2587.21" stroke="#999999" stroke-width="1.33333" stroke-miterlimit="10" stroke-linecap="round" stroke-linejoin="round"/>
<path d="M515.791 3451.57C515.791 3451.57 545.492 3227.44 916.44 3143.31C1193.46 3080.48 1484.99 3206.57 1613.91 3056.48C1773.19 2871.03 1539.38 2586.9 1832.58 2613.55C2125.78 2640.2 2313.33 2600.86 2299.31 2350.4" stroke="#999999" stroke-width="1.33333" stroke-miterlimit="10" stroke-linecap="round" stroke-linejoin="round"/>
<path d="M544.926 3469.64C544.926 3469.64 567.219 3245.01 950.681 3163.97C1223.47 3106.32 1515.47 3236.73 1644.82 3085.64C1802.7 2901.24 1565.95 2612.94 1857.11 2639.4C2148.27 2665.86 2338.47 2627.45 2323.15 2374.18" stroke="#999999" stroke-width="1.33333" stroke-miterlimit="10" stroke-linecap="round" stroke-linejoin="round"/>
<path d="M574.061 3487.72C574.061 3487.72 588.886 3262.31 984.922 3184.63C1253.43 3131.97 1545.95 3266.9 1675.74 3114.81C1832.21 2931.45 1592.53 2638.97 1881.63 2665.25C2170.75 2691.53 2363.6 2654.05 2346.98 2397.95" stroke="#999999" stroke-width="1.33333" stroke-miterlimit="10" stroke-linecap="round" stroke-linejoin="round"/>
<path d="M603.196 3505.79C603.196 3505.79 610.5 3279.33 1019.16 3205.3C1283.36 3157.43 1576.44 3297.06 1706.65 3143.98C1861.72 2961.67 1619.1 2665.01 1906.16 2691.1C2193.23 2717.19 2388.73 2680.64 2370.82 2421.73" stroke="#999999" stroke-width="1.33333" stroke-miterlimit="10" stroke-linecap="round" stroke-linejoin="round"/>
<path d="M632.329 3523.86C632.329 3523.86 632.076 3296.05 1053.4 3225.96C1313.26 3182.73 1606.93 3327.23 1737.57 3173.15C1891.24 2991.88 1645.67 2691.05 1930.69 2716.95C2215.71 2742.86 2413.87 2707.24 2394.65 2445.5" stroke="#999999" stroke-width="1.33333" stroke-miterlimit="10" stroke-linecap="round" stroke-linejoin="round"/>
<path d="M661.464 3541.94C661.464 3541.94 653.615 3312.45 1087.64 3246.62C1343.16 3207.87 1637.42 3357.4 1768.48 3202.32C1920.76 3022.11 1672.24 2717.08 1955.22 2742.8C2238.2 2768.52 2439 2733.84 2418.49 2469.28" stroke="#999999" stroke-width="1.33333" stroke-miterlimit="10" stroke-linecap="round" stroke-linejoin="round"/>
<path d="M690.599 3560.01C690.599 3560.01 675.134 3328.5 1121.88 3267.28C1373.05 3232.87 1668.23 3387.84 1799.39 3231.49C1950.64 3052.63 1698.82 2743.12 1979.75 2768.65C2260.68 2794.18 2464.14 2760.43 2442.32 2493.05" stroke="#999999" stroke-width="1.33333" stroke-miterlimit="10" stroke-linecap="round" stroke-linejoin="round"/>
<path d="M719.734 3578.09C719.734 3578.09 696.637 3344.2 1156.12 3287.95C1402.95 3257.73 1698.72 3418.01 1830.31 3260.65C1980.15 3082.85 1725.39 2769.15 2004.28 2794.5C2283.16 2819.85 2489.27 2787.03 2466.16 2516.83" stroke="#999999" stroke-width="1.33333" stroke-miterlimit="10" stroke-linecap="round" stroke-linejoin="round"/>
<path d="M748.87 3596.16C748.87 3596.16 718.138 3359.51 1190.36 3308.61C1432.87 3282.47 1729.21 3448.17 1861.22 3289.82C2009.67 3113.06 1751.96 2795.19 2028.81 2820.35C2305.64 2845.51 2514.4 2813.63 2489.99 2540.6" stroke="#999999" stroke-width="1.33333" stroke-miterlimit="10" stroke-linecap="round" stroke-linejoin="round"/>
<path d="M778.004 3614.24C778.004 3614.24 739.646 3374.43 1224.6 3329.27C1462.8 3307.1 1759.71 3478.34 1892.14 3318.99C2039.17 3143.27 1778.54 2821.22 2053.33 2846.2C2328.13 2871.18 2539.54 2840.23 2513.82 2564.37" stroke="#999999" stroke-width="1.33333" stroke-miterlimit="10" stroke-linecap="round" stroke-linejoin="round"/>
<path d="M807.136 3632.31C807.136 3632.31 761.173 3388.91 1258.84 3349.94C1492.77 3331.62 1790.19 3508.51 1923.05 3348.16C2068.69 3173.49 1805.11 2847.26 2077.86 2872.05C2350.61 2896.84 2564.67 2866.82 2537.66 2588.15" stroke="#999999" stroke-width="1.33333" stroke-miterlimit="10" stroke-linecap="round" stroke-linejoin="round"/>
<path d="M836.274 3650.38C836.274 3650.38 782.73 3402.95 1293.09 3370.6C1522.78 3356.04 1820.69 3538.68 1953.96 3377.33C2098.2 3203.7 1831.68 2873.3 2102.39 2897.9C2373.09 2922.5 2589.82 2893.42 2561.5 2611.93" stroke="#999999" stroke-width="1.33333" stroke-miterlimit="10" stroke-linecap="round" stroke-linejoin="round"/>
<path d="M1596.09 1631.22H1596.32C1872.56 1631.22 2096.5 1855.08 2096.5 2131.28C2096.5 2407.45 1872.56 2631.31 1596.32 2631.31C1320.08 2631.31 1096.13 2407.45 1096.13 2131.28C1096.13 2124.95 1096.26 2118.68 1096.47 2112.4" stroke="#999999" stroke-width="1.33333" stroke-miterlimit="10" stroke-linecap="round" stroke-linejoin="round"/>
<path d="M1581.24 1659.39C1586.25 1659.24 1591.28 1659.16 1596.32 1659.16C1857.12 1659.16 2068.56 1870.52 2068.56 2131.28C2068.56 2392.01 1857.12 2603.37 1596.32 2603.37C1335.5 2603.37 1124.08 2392.01 1124.08 2131.28C1124.08 2124.26 1124.23 2117.28 1124.54 2110.34" stroke="#999999" stroke-width="1.33333" stroke-miterlimit="10" stroke-linecap="round" stroke-linejoin="round"/>
<path d="M1567.47 1688.03C1577 1687.41 1586.63 1687.1 1596.32 1687.1C1841.7 1687.1 2040.62 1885.96 2040.62 2131.28C2040.62 2376.57 1841.7 2575.46 1596.32 2575.46C1350.94 2575.46 1152.02 2376.57 1152.02 2131.28C1152.02 2123.4 1152.23 2115.6 1152.62 2107.83" stroke="#999999" stroke-width="1.33333" stroke-miterlimit="10" stroke-linecap="round" stroke-linejoin="round"/>
<path d="M1554.71 1717.07C1568.4 1715.71 1582.27 1715.01 1596.32 1715.01C1826.25 1715.01 2012.67 1901.38 2012.67 2131.28C2012.67 2361.15 1826.25 2547.52 1596.32 2547.52C1366.36 2547.52 1179.97 2361.15 1179.97 2131.28C1179.97 2122.37 1180.25 2113.51 1180.82 2104.76" stroke="#999999" stroke-width="1.33333" stroke-miterlimit="10" stroke-linecap="round" stroke-linejoin="round"/>
<path d="M1542.73 1746.61C1560.24 1744.18 1578.14 1742.95 1596.32 1742.95C1810.84 1742.95 1984.73 1916.82 1984.73 2131.28C1984.73 2345.71 1810.84 2519.58 1596.32 2519.58C1381.8 2519.58 1207.91 2345.71 1207.91 2131.28C1207.91 2121.08 1208.3 2110.98 1209.07 2100.99" stroke="#999999" stroke-width="1.33333" stroke-miterlimit="10" stroke-linecap="round" stroke-linejoin="round"/>
<path d="M1531.39 1776.72C1552.47 1772.87 1574.16 1770.88 1596.32 1770.88C1795.39 1770.88 1956.78 1932.23 1956.78 2131.28C1956.78 2330.3 1795.39 2491.65 1596.32 2491.65C1397.25 2491.65 1235.86 2330.3 1235.86 2131.28C1235.86 2119.48 1236.42 2107.83 1237.54 2096.32" stroke="#999999" stroke-width="1.33333" stroke-miterlimit="10" stroke-linecap="round" stroke-linejoin="round"/>
<path d="M1520.62 1807.49C1544.92 1801.81 1570.29 1798.82 1596.32 1798.82C1779.97 1798.82 1928.84 1947.67 1928.84 2131.28C1928.84 2314.86 1779.97 2463.71 1596.32 2463.71C1412.67 2463.71 1263.8 2314.86 1263.8 2131.28C1263.8 2117.46 1264.65 2103.83 1266.28 2090.46" stroke="#999999" stroke-width="1.33333" stroke-miterlimit="10" stroke-linecap="round" stroke-linejoin="round"/>
<path d="M1510.24 1839.1C1537.54 1831.07 1566.41 1826.76 1596.32 1826.76C1764.53 1826.76 1900.89 1963.09 1900.89 2131.28C1900.89 2299.44 1764.53 2435.77 1596.32 2435.77C1428.11 2435.77 1291.75 2299.44 1291.75 2131.28C1291.75 2114.86 1293.04 2098.72 1295.57 2082.99" stroke="#999999" stroke-width="1.33333" stroke-miterlimit="10" stroke-linecap="round" stroke-linejoin="round"/>
<path d="M1500.17 1871.86C1530.1 1860.76 1562.51 1854.69 1596.32 1854.69C1749.11 1854.69 1872.95 1978.53 1872.95 2131.28C1872.95 2284 1749.11 2407.84 1596.32 2407.84C1443.53 2407.84 1319.69 2284 1319.69 2131.28C1319.69 2111.34 1321.81 2091.9 1325.84 2073.16" stroke="#999999" stroke-width="1.33333" stroke-miterlimit="10" stroke-linecap="round" stroke-linejoin="round"/>
<path d="M1488.78 1907.03C1521.34 1891.38 1557.81 1882.63 1596.32 1882.63C1733.67 1882.63 1845 1993.94 1845 2131.28C1845 2268.59 1733.67 2379.9 1596.32 2379.9C1458.97 2379.9 1347.61 2268.59 1347.61 2131.28C1347.61 2106.26 1351.3 2082.12 1358.17 2059.37" stroke="#999999" stroke-width="1.33333" stroke-miterlimit="10" stroke-linecap="round" stroke-linejoin="round"/>
<path d="M1469.69 1950.49C1505.54 1925.34 1549.21 1910.57 1596.32 1910.57C1718.22 1910.57 1817.06 2009.38 1817.06 2131.28C1817.06 2253.15 1718.22 2351.96 1596.32 2351.96C1474.39 2351.96 1375.55 2253.15 1375.55 2131.28C1375.55 2097.17 1383.3 2064.87 1397.12 2036.03" stroke="#999999" stroke-width="1.33333" stroke-miterlimit="10" stroke-linecap="round" stroke-linejoin="round"/>
<path d="M1596.31 1938.51C1702.8 1938.51 1789.12 2024.81 1789.12 2131.27C1789.12 2237.72 1702.8 2324.02 1596.31 2324.02C1489.83 2324.02 1403.51 2237.72 1403.51 2131.27C1403.51 2024.81 1489.83 1938.51 1596.31 1938.51Z" stroke="#999999" stroke-width="1.33333" stroke-miterlimit="10" stroke-linecap="round" stroke-linejoin="round"/>
<path d="M1596.31 1966.44C1687.37 1966.44 1761.18 2040.24 1761.18 2131.26C1761.18 2222.3 1687.37 2296.09 1596.31 2296.09C1505.26 2296.09 1431.45 2222.3 1431.45 2131.26C1431.45 2040.24 1505.26 1966.44 1596.31 1966.44Z" stroke="#999999" stroke-width="1.33333" stroke-miterlimit="10" stroke-linecap="round" stroke-linejoin="round"/>
<path d="M1596.31 1994.38C1671.94 1994.38 1733.24 2055.66 1733.24 2131.26C1733.24 2206.87 1671.94 2268.15 1596.31 2268.15C1520.7 2268.15 1459.39 2206.87 1459.39 2131.26C1459.39 2055.66 1520.7 1994.38 1596.31 1994.38Z" stroke="#999999" stroke-width="1.33333" stroke-miterlimit="10" stroke-linecap="round" stroke-linejoin="round"/>
<path d="M1596.31 2022.31C1656.5 2022.31 1705.29 2071.09 1705.29 2131.26C1705.29 2191.44 1656.5 2240.21 1596.31 2240.21C1536.13 2240.21 1487.34 2191.44 1487.34 2131.26C1487.34 2071.09 1536.13 2022.31 1596.31 2022.31Z" stroke="#999999" stroke-width="1.33333" stroke-miterlimit="10" stroke-linecap="round" stroke-linejoin="round"/>
<path d="M1596.31 2050.25C1641.07 2050.25 1677.35 2086.52 1677.35 2131.26C1677.35 2176.01 1641.07 2212.28 1596.31 2212.28C1551.56 2212.28 1515.28 2176.01 1515.28 2131.26C1515.28 2086.52 1551.56 2050.25 1596.31 2050.25Z" stroke="#999999" stroke-width="1.33333" stroke-miterlimit="10" stroke-linecap="round" stroke-linejoin="round"/>
<path d="M1649.41 2131.26C1649.41 2160.58 1625.64 2184.34 1596.31 2184.34C1566.99 2184.34 1543.22 2160.58 1543.22 2131.26C1543.22 2101.95 1566.99 2078.19 1596.31 2078.19C1625.64 2078.19 1649.41 2101.95 1649.41 2131.26Z" stroke="#999999" stroke-width="1.33333" stroke-miterlimit="10" stroke-linecap="round" stroke-linejoin="round"/>
<path d="M1625.91 2131.27C1625.91 2147.61 1612.66 2160.86 1596.31 2160.86C1579.97 2160.86 1566.72 2147.61 1566.72 2131.27C1566.72 2114.92 1579.97 2101.68 1596.31 2101.68C1612.66 2101.68 1625.91 2114.92 1625.91 2131.27Z" stroke="#999999" stroke-width="1.33333" stroke-miterlimit="10" stroke-linecap="round" stroke-linejoin="round"/>
<path d="M653.222 1950.6C653.222 2293.01 375.573 2570.58 33.0796 2570.58C-309.418 2570.58 -587.065 2293.01 -587.065 1950.6C-587.065 1608.2 -309.418 1330.62 33.0796 1330.62C375.573 1330.62 653.222 1608.2 653.222 1950.6Z" stroke="#999999" stroke-width="1.33333" stroke-miterlimit="10" stroke-linecap="round" stroke-linejoin="round"/>
<path d="M33.0802 1365.25C356.441 1365.25 618.576 1627.33 618.576 1950.6C618.576 2273.88 356.441 2535.95 33.0802 2535.95C-290.282 2535.95 -552.42 2273.88 -552.42 1950.6C-552.42 1627.33 -290.282 1365.25 33.0802 1365.25Z" stroke="#999999" stroke-width="1.33333" stroke-miterlimit="10" stroke-linecap="round" stroke-linejoin="round"/>
<path d="M33.0801 1399.89C337.306 1399.89 583.932 1646.45 583.932 1950.6C583.932 2254.75 337.306 2501.31 33.0801 2501.31C-271.147 2501.31 -517.774 2254.75 -517.774 1950.6C-517.774 1646.45 -271.147 1399.89 33.0801 1399.89Z" stroke="#999999" stroke-width="1.33333" stroke-miterlimit="10" stroke-linecap="round" stroke-linejoin="round"/>
<path d="M33.0799 1434.53C318.173 1434.53 549.288 1665.58 549.288 1950.6C549.288 2235.62 318.173 2466.68 33.0799 2466.68C-252.015 2466.68 -483.13 2235.62 -483.13 1950.6C-483.13 1665.58 -252.015 1434.53 33.0799 1434.53Z" stroke="#999999" stroke-width="1.33333" stroke-miterlimit="10" stroke-linecap="round" stroke-linejoin="round"/>
<path d="M33.0799 1469.16C299.038 1469.16 514.642 1684.71 514.642 1950.6C514.642 2216.49 299.038 2432.04 33.0799 2432.04C-232.881 2432.04 -448.484 2216.49 -448.484 1950.6C-448.484 1684.71 -232.881 1469.16 33.0799 1469.16Z" stroke="#999999" stroke-width="1.33333" stroke-miterlimit="10" stroke-linecap="round" stroke-linejoin="round"/>
<path d="M33.0795 1503.8C279.905 1503.8 479.998 1703.84 479.998 1950.6C479.998 2197.36 279.905 2397.4 33.0795 2397.4C-213.748 2397.4 -413.84 2197.36 -413.84 1950.6C-413.84 1703.84 -213.748 1503.8 33.0795 1503.8Z" stroke="#999999" stroke-width="1.33333" stroke-miterlimit="10" stroke-linecap="round" stroke-linejoin="round"/>
<path d="M33.0804 1538.44C260.771 1538.44 445.352 1722.97 445.352 1950.6C445.352 2178.24 260.771 2362.77 33.0804 2362.77C-194.614 2362.77 -379.195 2178.24 -379.195 1950.6C-379.195 1722.97 -194.614 1538.44 33.0804 1538.44Z" stroke="#999999" stroke-width="1.33333" stroke-miterlimit="10" stroke-linecap="round" stroke-linejoin="round"/>
<path d="M33.0804 1573.07C241.638 1573.07 410.708 1742.1 410.708 1950.6C410.708 2159.11 241.638 2328.13 33.0804 2328.13C-175.479 2328.13 -344.549 2159.11 -344.549 1950.6C-344.549 1742.1 -175.479 1573.07 33.0804 1573.07Z" stroke="#999999" stroke-width="1.33333" stroke-miterlimit="10" stroke-linecap="round" stroke-linejoin="round"/>
<path d="M33.0801 1607.71C222.504 1607.71 376.064 1761.23 376.064 1950.6C376.064 2139.98 222.504 2293.5 33.0801 2293.5C-156.346 2293.5 -309.905 2139.98 -309.905 1950.6C-309.905 1761.23 -156.346 1607.71 33.0801 1607.71Z" stroke="#999999" stroke-width="1.33333" stroke-miterlimit="10" stroke-linecap="round" stroke-linejoin="round"/>
<path d="M33.0797 1642.34C203.37 1642.34 341.417 1780.36 341.417 1950.6C341.417 2120.85 203.37 2258.86 33.0797 2258.86C-137.212 2258.86 -275.262 2120.85 -275.262 1950.6C-275.262 1780.36 -137.212 1642.34 33.0797 1642.34Z" stroke="#999999" stroke-width="1.33333" stroke-miterlimit="10" stroke-linecap="round" stroke-linejoin="round"/>
<path d="M33.08 1676.98C184.237 1676.98 306.774 1799.49 306.774 1950.6C306.774 2101.72 184.237 2224.23 33.08 2224.23C-118.079 2224.23 -240.615 2101.72 -240.615 1950.6C-240.615 1799.49 -118.079 1676.98 33.08 1676.98Z" stroke="#999999" stroke-width="1.33333" stroke-miterlimit="10" stroke-linecap="round" stroke-linejoin="round"/>
<path d="M33.0804 1711.62C165.102 1711.62 272.13 1818.61 272.13 1950.6C272.13 2082.59 165.102 2189.59 33.0804 2189.59C-98.9445 2189.59 -205.971 2082.59 -205.971 1950.6C-205.971 1818.61 -98.9445 1711.62 33.0804 1711.62Z" stroke="#999999" stroke-width="1.33333" stroke-miterlimit="10" stroke-linecap="round" stroke-linejoin="round"/>
<path d="M33.08 1746.25C145.969 1746.25 237.484 1837.74 237.484 1950.6C237.484 2063.46 145.969 2154.96 33.08 2154.96C-79.8099 2154.96 -171.326 2063.46 -171.326 1950.6C-171.326 1837.74 -79.8099 1746.25 33.08 1746.25Z" stroke="#999999" stroke-width="1.33333" stroke-miterlimit="10" stroke-linecap="round" stroke-linejoin="round"/>
<path d="M33.0798 1780.89C126.834 1780.89 202.838 1856.87 202.838 1950.6C202.838 2044.33 126.834 2120.32 33.0798 2120.32C-60.6772 2120.32 -136.68 2044.33 -136.68 1950.6C-136.68 1856.87 -60.6772 1780.89 33.0798 1780.89Z" stroke="#999999" stroke-width="1.33333" stroke-miterlimit="10" stroke-linecap="round" stroke-linejoin="round"/>
<path d="M33.0797 1815.52C107.7 1815.52 168.193 1876 168.193 1950.6C168.193 2025.2 107.7 2085.68 33.0797 2085.68C-41.5433 2085.68 -102.037 2025.2 -102.037 1950.6C-102.037 1876 -41.5433 1815.52 33.0797 1815.52Z" stroke="#999999" stroke-width="1.33333" stroke-miterlimit="10" stroke-linecap="round" stroke-linejoin="round"/>
<path d="M33.0803 1850.16C88.5681 1850.16 133.549 1895.13 133.549 1950.6C133.549 2006.08 88.5681 2051.05 33.0803 2051.05C-22.4089 2051.05 -67.3906 2006.08 -67.3906 1950.6C-67.3906 1895.13 -22.4089 1850.16 33.0803 1850.16Z" stroke="#999999" stroke-width="1.33333" stroke-miterlimit="10" stroke-linecap="round" stroke-linejoin="round"/>
<path d="M98.9044 1950.6C98.9044 1986.95 69.4326 2016.41 33.0797 2016.41C-3.27645 2016.41 -32.7461 1986.95 -32.7461 1950.6C-32.7461 1914.26 -3.27645 1884.79 33.0797 1884.79C69.4326 1884.79 98.9044 1914.26 98.9044 1950.6Z" stroke="#999999" stroke-width="1.33333" stroke-miterlimit="10" stroke-linecap="round" stroke-linejoin="round"/>
<path d="M72.2956 1950.6C72.2956 1972.26 54.7376 1989.81 33.0797 1989.81C11.4194 1989.81 -6.13867 1972.26 -6.13867 1950.6C-6.13867 1928.95 11.4194 1911.4 33.0797 1911.4C54.7376 1911.4 72.2956 1928.95 72.2956 1950.6Z" stroke="#999999" stroke-width="1.33333" stroke-miterlimit="10" stroke-linecap="round" stroke-linejoin="round"/>
<path d="M447.807 2926.25C435.23 2891.24 428.386 2853.46 428.386 2814.11C428.386 2630.71 577.096 2482.04 760.542 2482.04C932.471 2482.04 1073.87 2612.61 1090.97 2779.98" stroke="#999999" stroke-width="1.33333" stroke-miterlimit="10" stroke-linecap="round" stroke-linejoin="round"/>
<path d="M473.299 2911.58C462.916 2880.99 457.286 2848.2 457.286 2814.11C457.286 2646.67 593.057 2510.91 760.543 2510.91C918.137 2510.91 1047.68 2631.1 1062.4 2784.81" stroke="#999999" stroke-width="1.33333" stroke-miterlimit="10" stroke-linecap="round" stroke-linejoin="round"/>
<path d="M499.358 2898.31C490.783 2871.8 486.16 2843.5 486.16 2814.11C486.16 2662.63 609.018 2539.8 760.543 2539.8C903.493 2539.8 1020.93 2649.12 1033.74 2788.68" stroke="#999999" stroke-width="1.33333" stroke-miterlimit="10" stroke-linecap="round" stroke-linejoin="round"/>
<path d="M525.83 2886.23C518.831 2863.43 515.06 2839.21 515.06 2814.11C515.06 2678.56 624.952 2568.67 760.542 2568.67C888.617 2568.67 993.809 2666.73 1005.04 2791.86" stroke="#999999" stroke-width="1.33333" stroke-miterlimit="10" stroke-linecap="round" stroke-linejoin="round"/>
<path d="M552.664 2875.1C546.982 2855.76 543.935 2835.29 543.935 2814.11C543.935 2694.52 640.914 2597.56 760.543 2597.56C873.612 2597.56 966.433 2684.16 976.273 2794.65" stroke="#999999" stroke-width="1.33333" stroke-miterlimit="10" stroke-linecap="round" stroke-linejoin="round"/>
<path d="M-238.562 2609.7C-1.78332 2843.03 195.867 2718.53 308.86 3037.74" stroke="#999999" stroke-width="1.33333" stroke-miterlimit="10" stroke-linecap="round" stroke-linejoin="round"/>
<path d="M-195.069 2602.88C33.5744 2816.75 224.252 2704.95 334.532 3012.59" stroke="#999999" stroke-width="1.33333" stroke-miterlimit="10" stroke-linecap="round" stroke-linejoin="round"/>
<path d="M-118.286 2622.99C87.8367 2782.07 258.808 2705.98 360.824 2989.15" stroke="#999999" stroke-width="1.33333" stroke-miterlimit="10" stroke-linecap="round" stroke-linejoin="round"/>
<path d="M202.068 2616.69C292.073 2651.89 370.535 2673.27 433.113 2758.01" stroke="#999999" stroke-width="1.33333" stroke-miterlimit="10" stroke-linecap="round" stroke-linejoin="round"/>
<path d="M249.098 2603.19C323.013 2631.36 388.613 2653.54 443.262 2715.51" stroke="#999999" stroke-width="1.33333" stroke-miterlimit="10" stroke-linecap="round" stroke-linejoin="round"/>
<path d="M291.428 2587.83C353.231 2611.22 408.862 2632.39 456.77 2679.62" stroke="#999999" stroke-width="1.33333" stroke-miterlimit="10" stroke-linecap="round" stroke-linejoin="round"/>
<path d="M329.78 2570.94C382.518 2590.98 430.582 2610.5 472.912 2647.94" stroke="#999999" stroke-width="1.33333" stroke-miterlimit="10" stroke-linecap="round" stroke-linejoin="round"/>
<path d="M491.506 2619.33C453.464 2588.37 411.005 2570.48 364.801 2552.81" stroke="#999999" stroke-width="1.33333" stroke-miterlimit="10" stroke-linecap="round" stroke-linejoin="round"/>
<path d="M512.606 2593.12C477.534 2566.27 438.794 2549.69 396.98 2533.61" stroke="#999999" stroke-width="1.33333" stroke-miterlimit="10" stroke-linecap="round" stroke-linejoin="round"/>
<path d="M536.29 2569.16C502.896 2544.48 466.196 2528.7 426.733 2513.47" stroke="#999999" stroke-width="1.33333" stroke-miterlimit="10" stroke-linecap="round" stroke-linejoin="round"/>
<path d="M562.762 2547.29C529.626 2523.02 493.262 2507.48 454.161 2492.42" stroke="#999999" stroke-width="1.33333" stroke-miterlimit="10" stroke-linecap="round" stroke-linejoin="round"/>
<path d="M592.282 2527.74C558.062 2502.18 520.329 2486.25 479.626 2470.66" stroke="#999999" stroke-width="1.33333" stroke-miterlimit="10" stroke-linecap="round" stroke-linejoin="round"/>
<path d="M625.211 2510.75H625.185C588.485 2481.91 547.602 2465.1 503.231 2448.17" stroke="#999999" stroke-width="1.33333" stroke-miterlimit="10" stroke-linecap="round" stroke-linejoin="round"/>
<path d="M661.678 2497.02H661.653C621.208 2462.29 575.366 2444.09 525.133 2425.03" stroke="#999999" stroke-width="1.33333" stroke-miterlimit="10" stroke-linecap="round" stroke-linejoin="round"/>
<path d="M701.554 2487.28H701.528C656.306 2443.11 603.775 2423.38 545.432 2401.3" stroke="#999999" stroke-width="1.33333" stroke-miterlimit="10" stroke-linecap="round" stroke-linejoin="round"/>
<path d="M744.324 2482.43H744.298C693.703 2423.95 632.856 2403.11 564.234 2377.03" stroke="#999999" stroke-width="1.33333" stroke-miterlimit="10" stroke-linecap="round" stroke-linejoin="round"/>
<path d="M788.901 2483.26H788.875C732.831 2404.12 662.428 2383.28 581.564 2352.09" stroke="#999999" stroke-width="1.33333" stroke-miterlimit="10" stroke-linecap="round" stroke-linejoin="round"/>
<path d="M597.499 2326.58C692.128 2364.07 772.991 2382.84 833.994 2490.2" stroke="#999999" stroke-width="1.33333" stroke-miterlimit="10" stroke-linecap="round" stroke-linejoin="round"/>
<path d="M612.633 2300.55C722.061 2345.64 813.823 2359.5 878.725 2503.71" stroke="#999999" stroke-width="1.33333" stroke-miterlimit="10" stroke-linecap="round" stroke-linejoin="round"/>
<path d="M627.717 2274.27C752.382 2328.18 855.043 2333.78 922.451 2524.1" stroke="#999999" stroke-width="1.33333" stroke-miterlimit="10" stroke-linecap="round" stroke-linejoin="round"/>
<path d="M643.6 2248.04C775.135 2308.02 883.09 2306.23 952.202 2510.57C957.368 2525.81 962.533 2540.47 967.776 2554.62" stroke="#999999" stroke-width="1.33333" stroke-miterlimit="10" stroke-linecap="round" stroke-linejoin="round"/>
<path d="M661.291 2222.32C796.958 2287.41 908.271 2279.59 978.856 2488.19C996.444 2540.19 1014.37 2585.63 1033.79 2625.24C1033.79 2625.27 1033.81 2625.29 1033.81 2625.32" stroke="#999999" stroke-width="1.33333" stroke-miterlimit="10" stroke-linecap="round" stroke-linejoin="round"/>
<path d="M681.952 2197.84C820.383 2266.94 934.02 2254.49 1005.51 2465.8C1052.38 2604.4 1101.56 2695.94 1175.76 2754.62" stroke="#999999" stroke-width="1.33333" stroke-miterlimit="10" stroke-linecap="round" stroke-linejoin="round"/>
<path d="M706.952 2175.38C846.21 2246.33 960.518 2231.59 1032.16 2443.39C1080.33 2585.81 1130.92 2678.17 1209.02 2736.09" stroke="#999999" stroke-width="1.33333" stroke-miterlimit="10" stroke-linecap="round" stroke-linejoin="round"/>
<path d="M737.505 2155.78C875.058 2225.34 987.972 2211.53 1058.81 2421C1107.11 2563.74 1157.83 2655.81 1236.66 2713.16" stroke="#999999" stroke-width="1.33333" stroke-miterlimit="10" stroke-linecap="round" stroke-linejoin="round"/>
<path d="M775.238 2139.7C907.806 2203.99 1016.64 2195.13 1085.47 2398.62C1132.86 2538.69 1182.6 2629.6 1259.36 2686.61" stroke="#999999" stroke-width="1.33333" stroke-miterlimit="10" stroke-linecap="round" stroke-linejoin="round"/>
<path d="M822.32 2127.66C945.72 2182.74 1046.99 2183.62 1112.12 2376.23C1157.96 2511.74 1206.05 2600.87 1279.01 2657.7" stroke="#999999" stroke-width="1.33333" stroke-miterlimit="10" stroke-linecap="round" stroke-linejoin="round"/>
<path d="M882.806 2120.48C990.968 2163.45 1079.81 2179.41 1138.8 2353.82C1182.42 2482.82 1228.08 2569.44 1295.65 2626.07" stroke="#999999" stroke-width="1.33333" stroke-miterlimit="10" stroke-linecap="round" stroke-linejoin="round"/>
<path d="M1213.62 2453.23C1241.1 2511.12 1271.7 2556.27 1309.23 2591.08" stroke="#999999" stroke-width="1.33333" stroke-miterlimit="10" stroke-linecap="round" stroke-linejoin="round"/>
<path d="M959.279 2118.24C1013.41 2138.97 1061.6 2160.07 1102.26 2209.72" stroke="#999999" stroke-width="1.33333" stroke-miterlimit="10" stroke-linecap="round" stroke-linejoin="round"/>
<path d="M1319.77 2551.81C1316.67 2548.53 1313.62 2545.2 1310.62 2541.76" stroke="#999999" stroke-width="1.33333" stroke-miterlimit="10" stroke-linecap="round" stroke-linejoin="round"/>
<path d="M1096.7 2155.34C1076.53 2138.66 1054.89 2126.37 1031.93 2115.84" stroke="#999999" stroke-width="1.33333" stroke-miterlimit="10" stroke-linecap="round" stroke-linejoin="round"/>
<path d="M1096.42 2114.34C1095.46 2113.75 1094.51 2113.15 1093.55 2112.58" stroke="#999999" stroke-width="1.33333" stroke-miterlimit="10" stroke-linecap="round" stroke-linejoin="round"/>
</g>
<defs>
<clipPath id="clip0_1357_2646">
<rect width="1937" height="1779" fill="white" transform="translate(-14)"/>
</clipPath>
<clipPath id="clip1_1357_2646">
<rect width="1937" height="1779" fill="white" transform="translate(-7 1762)"/>
</clipPath>
</defs>
</svg>
