<svg width="24" height="24" viewBox="0 0 24 24" fill="none" xmlns="http://www.w3.org/2000/svg">
<g clip-path="url(#clip0_2_17414)">
<path d="M11.8502 22.6496H2.1002C1.3502 22.6496 0.825195 22.0496 0.825195 21.3746C0.825195 18.5996 3.0752 16.3496 5.8502 16.3496H8.17519C10.9502 16.3496 13.2002 18.5996 13.2002 21.3746C13.1252 22.1246 12.5252 22.6496 11.8502 22.6496Z" stroke="#052D23" stroke-width="1.5" stroke-miterlimit="10" stroke-linecap="round" stroke-linejoin="round"/>
<path d="M6.9002 5.47461C5.0252 5.47461 3.4502 6.97461 3.4502 8.92461C3.4502 10.8746 4.9502 13.7246 6.9002 13.7246C8.8502 13.7246 10.3502 10.7996 10.3502 8.92461C10.3502 7.04961 8.8502 5.47461 6.9002 5.47461Z" stroke="#052D23" stroke-width="1.5" stroke-miterlimit="10" stroke-linecap="round" stroke-linejoin="round"/>
<path d="M21.6 16.4992H14.025C13.125 16.4992 12.375 15.7492 12.375 14.8492C12.375 12.6742 14.1 10.9492 16.275 10.9492H19.35C21.525 10.9492 23.25 12.6742 23.25 14.8492C23.25 15.7492 22.5 16.4992 21.6 16.4992Z" stroke="#052D23" stroke-width="1.5" stroke-miterlimit="10" stroke-linecap="round" stroke-linejoin="round"/>
<path d="M17.7749 1.34961C16.1249 1.34961 14.7749 2.69961 14.7749 4.34961C14.7749 5.99961 16.1249 8.62461 17.7749 8.62461C19.4249 8.62461 20.7749 5.99961 20.7749 4.34961C20.7749 2.69961 19.4999 1.34961 17.7749 1.34961Z" stroke="#052D23" stroke-width="1.5" stroke-miterlimit="10" stroke-linecap="round" stroke-linejoin="round"/>
</g>
<defs>
<clipPath id="clip0_2_17414">
<rect width="24" height="24" fill="white"/>
</clipPath>
</defs>
</svg>
