<svg width="28" height="24" viewBox="0 0 28 24" fill="none" xmlns="http://www.w3.org/2000/svg">
<path d="M17.086 8.60444C17.3399 8.3432 17.7575 8.33748 18.0188 8.59141L21.7445 12.2094L25.6445 8.19351L18.8473 1.59276C16.3998 4.11305 13.9523 6.63334 11.5048 9.15363L14.1029 11.6765L17.086 8.60444ZM17.0561 23.6235C16.8021 23.8848 16.3842 23.8905 16.123 23.6366L14.2517 21.8193L12.3279 23.8002C12.074 24.0615 11.6561 24.0672 11.3951 23.8133L3.6512 16.2934C3.38995 16.0391 3.38423 15.6215 3.63817 15.3603L5.56128 13.38L0.962468 8.914C0.701222 8.66006 0.695501 8.24245 0.949437 7.9812L8.46962 0.237275C8.72356 -0.0239709 9.14149 -0.0296916 9.40273 0.224244L14.0006 4.68926L18.3604 0.199772C18.6147 -0.0614733 19.0323 -0.067194 19.2935 0.186742L27.0374 7.70693C27.2987 7.96086 27.3044 8.37848 27.0505 8.63972L22.691 13.1286L24.5632 14.9468C24.8245 15.2007 24.8302 15.6183 24.576 15.8796C22.0693 18.4609 19.5627 21.0422 17.0561 23.6235ZM21.0517 17.6146L17.9797 14.6315C17.3577 14.0264 18.2775 13.0803 18.8997 13.6854L21.9711 16.6681L23.1699 15.4334L17.5725 9.99743L14.5895 13.0695C14.3356 13.3307 13.9176 13.3364 13.6564 13.0822L10.1118 9.64021C9.85054 9.38627 9.84482 8.96834 10.0988 8.7071L13.0811 5.63603L8.9562 1.63027L2.35546 8.42742C7.09348 13.0285 11.8315 17.6295 16.5695 22.2305L17.7683 20.9958L14.6963 18.0125C14.0743 17.4077 14.9941 16.4615 15.6164 17.0666L18.6878 20.049L19.4102 19.3053L16.3378 16.322C15.7159 15.7169 16.6356 14.7707 17.2579 15.3759L20.3293 18.3586L21.0517 17.6146ZM13.3052 20.8998L6.50774 14.2994L5.04419 15.8065L11.8413 22.4072L13.3052 20.8998Z" fill="#052D23"/>
</svg>
