<svg width="18" height="24" viewBox="0 0 18 24" fill="none" xmlns="http://www.w3.org/2000/svg">
<path d="M15.4112 15.7494L10.8375 14.2771V13.519C12.7567 13.3693 14.072 11.7757 14.072 9.54036V4.01207C14.0708 2.94846 13.6478 1.92875 12.8958 1.17661C12.1437 0.424469 11.1241 0.00132591 10.0605 0H7.85127C6.78766 0.00132591 5.768 0.424469 5.01597 1.17661C4.26393 1.92875 3.84093 2.94846 3.83975 4.01207V9.54036C3.83975 11.7412 5.21904 13.3671 7.16051 13.519V14.2771L2.59016 15.7505C2.03808 15.9268 1.55653 16.2745 1.21534 16.743C0.874161 17.2115 0.691082 17.7765 0.692661 18.356V23.4279C0.690918 23.4683 0.697379 23.5087 0.711656 23.5466C0.725933 23.5845 0.747731 23.6191 0.775736 23.6483C0.803741 23.6776 0.837373 23.7008 0.874609 23.7167C0.911844 23.7326 0.951911 23.7408 0.992398 23.7408C1.03288 23.7408 1.07295 23.7326 1.11019 23.7167C1.14742 23.7008 1.18105 23.6776 1.20906 23.6483C1.23706 23.6191 1.25886 23.5845 1.27314 23.5466C1.28742 23.5087 1.29388 23.4683 1.29213 23.4279V18.356C1.29088 17.9032 1.43389 17.4619 1.70041 17.0959C1.96693 16.7299 2.34311 16.4583 2.7744 16.3205L7.13045 14.9172C7.12155 15.3954 7.18946 16.1546 7.6353 16.6745C7.70743 16.7591 7.78842 16.8358 7.87687 16.9032L7.29521 22.6069C7.28972 22.6571 7.29705 22.7079 7.31652 22.7545C7.33599 22.8011 7.36696 22.8421 7.40653 22.8735L8.77079 23.9366C8.82343 23.9777 8.88827 24 8.95503 24C9.0218 24 9.08664 23.9777 9.13927 23.9366L10.5035 22.8735C10.543 22.842 10.5739 22.801 10.5933 22.7544C10.6128 22.7078 10.6202 22.6571 10.6149 22.6069L10.0376 16.9032C10.1266 16.8362 10.2081 16.7599 10.2809 16.6756C10.7356 16.1451 10.7963 15.3664 10.7818 14.89L15.2258 16.321C15.6571 16.459 16.0333 16.7307 16.2998 17.0968C16.5663 17.4629 16.7093 17.9043 16.7081 18.3571V23.429C16.7064 23.4694 16.7128 23.5098 16.7271 23.5477C16.7414 23.5856 16.7632 23.6202 16.7912 23.6494C16.8192 23.6787 16.8528 23.7019 16.8901 23.7178C16.9273 23.7337 16.9674 23.7419 17.0078 23.7419C17.0483 23.7419 17.0884 23.7337 17.1256 23.7178C17.1629 23.7019 17.1965 23.6787 17.2245 23.6494C17.2525 23.6202 17.2743 23.5856 17.2886 23.5477C17.3029 23.5098 17.3093 23.4694 17.3076 23.429V18.356C17.3089 17.7765 17.1259 17.2116 16.785 16.743C16.4441 16.2744 15.963 15.9264 15.4112 15.7494ZM7.85127 0.599473H10.0627C10.9675 0.600357 11.835 0.960182 12.4748 1.59998C13.1146 2.23977 13.4744 3.10727 13.4753 4.01207V5.89621L11.9507 3.91355C11.9131 3.86458 11.8612 3.82845 11.8022 3.81011C11.7432 3.79177 11.68 3.79213 11.6212 3.81113C9.89153 4.37623 8.02689 4.37623 6.2972 3.81113C6.23843 3.79205 6.17519 3.79165 6.11617 3.80999C6.05716 3.82833 6.00529 3.86451 5.96769 3.91355L4.44145 5.89621V4.01207C4.44234 3.10775 4.80178 2.24067 5.44097 1.60096C6.08017 0.961243 6.94695 0.601094 7.85127 0.599473ZM10.0065 22.5028L8.95726 23.3204L7.90804 22.5028L8.4513 17.1765C8.78402 17.2552 9.1305 17.2552 9.46322 17.1765L10.0065 22.5028ZM9.82335 16.286C9.76023 16.3593 9.68628 16.4226 9.60404 16.4735C9.58433 16.4822 9.56565 16.493 9.54838 16.5058C9.36298 16.5896 9.16185 16.633 8.95837 16.633C8.7549 16.633 8.55377 16.5896 8.36836 16.5058C8.35098 16.4935 8.33232 16.483 8.3127 16.4747C8.22893 16.4238 8.15378 16.3599 8.09006 16.2854C7.73382 15.8724 7.71323 15.1855 7.7316 14.8159H10.1807C10.1991 15.1861 10.179 15.873 9.82335 16.286ZM7.75998 14.2165V13.2313C7.75998 13.1518 7.72843 13.0757 7.67227 13.0195C7.61612 12.9634 7.53995 12.9318 7.46053 12.9318C5.67936 12.9318 4.43923 11.5369 4.43923 9.54036V6.87919L6.31279 4.44567C8.03712 4.96515 9.87628 4.96515 11.6006 4.44567L13.4753 6.87919V9.54203C13.4753 11.2302 12.568 12.9335 10.5403 12.9335C10.4608 12.9335 10.3847 12.965 10.3285 13.0212C10.2724 13.0773 10.2408 13.1535 10.2408 13.2329V14.2193L7.75998 14.2165Z" fill="#052D23"/>
</svg>
