<svg width="27" height="24" viewBox="0 0 27 24" fill="none" xmlns="http://www.w3.org/2000/svg">
<path d="M26.59 17.7977C26.5846 17.789 26.5781 17.7813 26.5723 17.7729L23.7874 12.9275C23.7321 12.8314 23.6525 12.7516 23.5566 12.6961C23.4607 12.6406 23.3518 12.6113 23.2409 12.6113H18.8668C18.7563 12.6113 18.6477 12.6404 18.552 12.6956C18.4562 12.7508 18.3767 12.8303 18.3213 12.9259C18.2659 13.0216 18.2367 13.1301 18.2365 13.2407C18.2364 13.3512 18.2653 13.4598 18.3204 13.5557L20.5872 17.4997H19.2762V16.682C19.2762 16.5591 19.2403 16.4389 19.1729 16.3361C19.1054 16.2334 19.0094 16.1526 18.8967 16.1037C18.7839 16.0548 18.6593 16.04 18.5383 16.061C18.4172 16.082 18.3049 16.1379 18.2152 16.2219L14.6438 19.5661C14.5808 19.6251 14.5307 19.6963 14.4963 19.7754C14.462 19.8546 14.4443 19.9399 14.4443 20.0262C14.4443 20.1124 14.462 20.1977 14.4963 20.2769C14.5307 20.356 14.5808 20.4273 14.6438 20.4862L18.2152 23.8304C18.3049 23.9144 18.4172 23.9703 18.5383 23.9913C18.6593 24.0123 18.7839 23.9975 18.8967 23.9486C19.0094 23.8997 19.1054 23.8189 19.1729 23.7162C19.2403 23.6134 19.2762 23.4932 19.2762 23.3703V22.5526H24.1743C24.2917 22.5526 24.4067 22.5198 24.5065 22.4579C24.6063 22.396 24.6868 22.3075 24.7389 22.2023L26.6191 18.41C26.6667 18.3139 26.6891 18.2072 26.684 18.1001C26.6789 17.9929 26.6465 17.8889 26.59 17.7977ZM19.9561 13.8719H22.8762L24.9613 17.4997H22.0412L19.9561 13.8719ZM23.7832 21.2921H18.6459C18.4798 21.2921 18.3203 21.3577 18.2023 21.4747C18.0842 21.5917 18.0172 21.7505 18.0157 21.9167L15.9967 20.0262L18.0157 18.1356C18.0171 18.3018 18.0842 18.4607 18.2022 18.5777C18.3203 18.6946 18.4797 18.7603 18.6459 18.7603H25.0385L23.7832 21.2921Z" fill="#052D23"/>
<path d="M10.803 17.4967L6.25387 17.4879L6.90936 16.3525L7.61753 16.7614C7.72396 16.8228 7.84604 16.8518 7.96873 16.8448C8.09142 16.8377 8.20938 16.795 8.30809 16.7218C8.4068 16.6486 8.48196 16.5481 8.52432 16.4328C8.56667 16.3174 8.57438 16.1922 8.54649 16.0725L7.43605 11.3075C7.41648 11.2235 7.37987 11.1444 7.3285 11.0752C7.27712 11.0059 7.21207 10.9479 7.13737 10.9048C7.06268 10.8616 6.97992 10.8343 6.89424 10.8244C6.80855 10.8146 6.72175 10.8224 6.63921 10.8475L1.95739 12.2683C1.8398 12.304 1.7352 12.3733 1.65648 12.4676C1.57775 12.562 1.52833 12.6773 1.51429 12.7994C1.50025 12.9215 1.52221 13.045 1.57746 13.1548C1.63271 13.2645 1.71885 13.3558 1.82527 13.4172L2.53345 13.8261L0.0844363 18.0679C0.0257316 18.1696 -0.00340306 18.2856 0.000316414 18.403C0.00403589 18.5203 0.0404615 18.6343 0.105488 18.7321L2.44965 22.2565C2.50717 22.343 2.58518 22.4139 2.67673 22.463C2.76828 22.5121 2.87053 22.5377 2.9744 22.5377C2.98104 22.5377 2.98772 22.5376 2.9944 22.5374C3.00464 22.5371 3.01457 22.5353 3.02472 22.5345L8.61349 22.5454H8.61472C8.72535 22.5454 8.83404 22.5163 8.92985 22.461C9.02566 22.4056 9.10522 22.3261 9.16054 22.2303L11.3476 18.4422C11.4029 18.3464 11.432 18.2379 11.432 18.1273C11.4321 18.0168 11.4031 17.9082 11.3479 17.8124C11.2927 17.7166 11.2134 17.6371 11.1177 17.5816C11.0221 17.5262 10.9135 17.497 10.803 17.4967ZM3.94025 13.9105C4.02335 13.7666 4.04624 13.5957 4.00394 13.435C3.96165 13.2743 3.85759 13.1368 3.71442 13.0524L6.36116 12.2492L6.98892 14.9429C6.84426 14.8611 6.67316 14.8398 6.51284 14.8835C6.35251 14.9272 6.21595 15.0325 6.13284 15.1764L2.93661 20.7125L1.37162 18.3596L3.94025 13.9105ZM8.25123 21.2842L4.06686 21.276L5.52694 18.7471L9.71131 18.7552L8.25123 21.2842Z" fill="#052D23"/>
<path d="M18.0614 10.2687C18.1966 10.2687 18.3283 10.2252 18.4369 10.1446C18.5455 10.064 18.6253 9.95065 18.6646 9.82122L20.0838 5.13896C20.1194 5.02135 20.1199 4.89589 20.0852 4.778C20.0505 4.66012 19.982 4.55496 19.8883 4.47547C19.7946 4.39597 19.6797 4.34561 19.5577 4.33059C19.4357 4.31556 19.312 4.33651 19.2018 4.39088L18.4685 4.7526L16.3017 0.359927C16.2497 0.254641 16.1694 0.165955 16.0697 0.103862C15.9701 0.0417694 15.8551 0.00873793 15.7377 0.00848967L11.5049 0H11.5036C11.3966 -4.52735e-07 11.2913 0.0272616 11.1977 0.0792153C11.1041 0.131169 11.0253 0.206102 10.9687 0.29695C10.9633 0.305597 10.9593 0.314799 10.9543 0.323629L7.84077 4.96489C7.77901 5.05694 7.74262 5.16364 7.73527 5.27425C7.72793 5.38485 7.74988 5.49543 7.79892 5.59484L9.73394 9.51769C9.78284 9.61683 9.85695 9.70135 9.94883 9.7628C10.0407 9.82424 10.1471 9.86044 10.2574 9.86776C10.2714 9.86869 10.2854 9.86915 10.2993 9.86915C10.4027 9.86913 10.5046 9.84365 10.5958 9.79497C10.6871 9.74628 10.765 9.67589 10.8226 9.58999L13.3569 5.81221L13.9369 6.98796L13.2035 7.34974C13.0933 7.40411 13.0014 7.48951 12.9391 7.59544C12.8768 7.70137 12.8468 7.8232 12.8528 7.94595C12.8589 8.06869 12.9007 8.187 12.9731 8.2863C13.0455 8.3856 13.1453 8.46158 13.2603 8.50487L17.8394 10.2283C17.9104 10.255 17.9856 10.2687 18.0614 10.2687ZM10.3826 7.98317L9.09077 5.36425L11.4219 1.88937L12.7137 4.50826L10.3826 7.98317ZM15.0648 7.83711C15.2132 7.76226 15.326 7.63185 15.3787 7.47423C15.4314 7.31662 15.4197 7.14457 15.3462 6.99553L12.5182 1.26257L15.3441 1.26824L17.6168 5.87552C17.6903 6.02458 17.8197 6.13857 17.9768 6.19267C18.1339 6.24678 18.3061 6.23663 18.4558 6.16443L17.6535 8.81144L15.0648 7.83711Z" fill="#052D23"/>
</svg>
