<svg width="1937" height="1779" viewBox="0 0 1937 1779" fill="none" xmlns="http://www.w3.org/2000/svg">
<g opacity="0.2" clip-path="url(#clip0_1126_1270)">
<path d="M2159.07 -364.705C1808.83 -386.363 1635.51 -324.996 1505.53 115.397C1445.23 319.695 1306.94 350.031 920.591 357.251C665.403 362.019 663.916 487.727 573.675 611.704C435.386 801.693 224.953 875.29 40.0797 875.29C6.48376 875.29 -153.583 873.7 -268.262 804.275" stroke="#999999" stroke-opacity="0.75" stroke-width="1.33333" stroke-miterlimit="10" stroke-linecap="round" stroke-linejoin="round"/>
<path d="M2146.45 -390.111C1796.05 -415.934 1620.64 -352.179 1492.2 80.6878C1431.67 284.036 1299.44 319.487 911.566 323.791C731.373 325.792 666.011 383.804 621.434 467.918C606.276 496.516 567.185 573.344 526.428 617.119C403.243 749.431 235.043 842.579 40.0804 842.579C-63.4303 842.579 -198.971 821.773 -337.549 720.92" stroke="#999999" stroke-opacity="0.75" stroke-width="1.33333" stroke-miterlimit="10" stroke-linecap="round" stroke-linejoin="round"/>
<path d="M596.726 462.178C596.751 462.152 596.777 462.126 596.777 462.074C649.386 366.231 701.169 291.043 902.539 290.32C1291.93 288.951 1418.12 248.388 1478.86 45.9852C1605.77 -379.373 1783.28 -445.498 2133.83 -415.521" stroke="#999999" stroke-opacity="0.75" stroke-width="1.33333" stroke-miterlimit="10" stroke-linecap="round" stroke-linejoin="round"/>
<path d="M653.027 283.4C700.574 245.471 768.653 222.104 884.486 223.42C1276.95 227.861 1391.02 177.048 1452.21 -23.4445C1576.05 -433.724 1757.71 -504.652 2108.59 -466.335" stroke="#999999" stroke-opacity="0.75" stroke-width="1.33333" stroke-miterlimit="10" stroke-linecap="round" stroke-linejoin="round"/>
<path d="M658.451 236.047C705.972 205.786 771.985 188.022 875.447 189.958C1269.43 197.317 1377.47 141.391 1438.86 -58.1462C1561.17 -460.912 1744.95 -534.215 2095.99 -491.741" stroke="#999999" stroke-opacity="0.75" stroke-width="1.33333" stroke-miterlimit="10" stroke-linecap="round" stroke-linejoin="round"/>
<path d="M660.207 193.366C707.496 168.14 771.494 154.017 866.433 156.495C1261.94 166.772 1364.35 105.862 1425.53 -92.8485C1547.15 -487.843 1732.17 -563.805 2083.39 -517.148" stroke="#999999" stroke-opacity="0.75" stroke-width="1.33333" stroke-miterlimit="10" stroke-linecap="round" stroke-linejoin="round"/>
<path d="M659.226 153.346C706.23 131.683 768.472 120.064 857.394 123.033C1254.45 136.227 1350.84 70.2311 1412.2 -127.576C1532.4 -514.979 1719.38 -593.369 2070.76 -542.555" stroke="#999999" stroke-opacity="0.75" stroke-width="1.33333" stroke-miterlimit="10" stroke-linecap="round" stroke-linejoin="round"/>
<path d="M655.895 115.105C702.692 95.947 763.643 86.1613 848.381 89.5695C1246.94 105.681 1337.33 34.5988 1398.88 -162.279C1517.6 -542.143 1706.63 -622.933 2058.15 -567.963" stroke="#999999" stroke-opacity="0.75" stroke-width="1.33333" stroke-miterlimit="10" stroke-linecap="round" stroke-linejoin="round"/>
<path d="M650.419 78.1055C697.217 60.7028 757.341 52.208 839.341 56.1068C1239.45 75.1361 1323.82 -1.05863 1385.55 -196.981C1502.8 -569.305 1693.84 -652.523 2045.52 -593.369" stroke="#999999" stroke-opacity="0.75" stroke-width="1.33333" stroke-miterlimit="10" stroke-linecap="round" stroke-linejoin="round"/>
<path d="M642.8 42.0869C689.804 25.8461 749.671 18.2551 830.327 22.6445C1231.96 44.5915 1310.32 -36.6899 1372.2 -231.708C1487.98 -596.467 1681.06 -682.087 2032.92 -618.776" stroke="#999999" stroke-opacity="0.75" stroke-width="1.33333" stroke-miterlimit="10" stroke-linecap="round" stroke-linejoin="round"/>
<path d="M633.141 6.84277C680.636 -8.80415 740.838 -15.7755 821.288 -10.8181C1224.44 14.0466 1296.81 -72.3471 1358.87 -266.41C1473.15 -623.63 1668.3 -711.65 2020.29 -644.183" stroke="#999999" stroke-opacity="0.75" stroke-width="1.33333" stroke-miterlimit="10" stroke-linecap="round" stroke-linejoin="round"/>
<path d="M641.405 340.772C688.513 289.804 757.496 256.341 893.499 256.883C1284.44 258.407 1404.56 212.705 1465.53 11.2576C1590.9 -406.562 1770.5 -475.088 2121.22 -440.928" stroke="#999999" stroke-opacity="0.75" stroke-width="1.33333" stroke-miterlimit="10" stroke-linecap="round" stroke-linejoin="round"/>
<path d="M596.777 462.074C596.777 462.126 596.751 462.152 596.726 462.178" stroke="#999999" stroke-opacity="0.75" stroke-width="1.33333" stroke-miterlimit="10" stroke-linecap="round" stroke-linejoin="round"/>
<path d="M173.167 1472.67C173.167 1472.67 283.422 1240.08 512.556 1133.34C830.328 985.343 1126.4 1082.81 1249.93 944.47C1296.32 892.52 1316.77 838.04 1327.49 786.451" stroke="#999999" stroke-opacity="0.75" stroke-width="1.33333" stroke-miterlimit="10" stroke-linecap="round" stroke-linejoin="round"/>
<path d="M202.301 1490.74C202.301 1490.74 306.718 1259.5 546.802 1154.03C862.482 1015.35 1156.91 1113 1280.85 973.621C1329.82 918.65 1349.29 860.374 1358.87 805.61" stroke="#999999" stroke-opacity="0.75" stroke-width="1.33333" stroke-miterlimit="10" stroke-linecap="round" stroke-linejoin="round"/>
<path d="M231.433 1508.82C231.433 1508.82 329.807 1278.86 581.049 1174.68C894.275 1044.81 1187.38 1143.15 1311.76 1002.8C1364.11 943.825 1382.09 880.592 1390.22 821.774" stroke="#999999" stroke-opacity="0.75" stroke-width="1.33333" stroke-miterlimit="10" stroke-linecap="round" stroke-linejoin="round"/>
<path d="M260.591 1526.89C260.591 1526.89 352.689 1298.15 615.268 1195.34C925.757 1073.8 1217.88 1173.31 1342.68 1031.97C1399.21 968.121 1414.81 898.666 1421.29 835.148" stroke="#999999" stroke-opacity="0.75" stroke-width="1.33333" stroke-miterlimit="10" stroke-linecap="round" stroke-linejoin="round"/>
<path d="M289.724 1544.96C289.724 1544.96 375.391 1317.34 649.515 1215.99C956.956 1102.36 1248.36 1203.5 1373.59 1061.12C1434.98 991.617 1447.12 914.673 1451.85 845.941" stroke="#999999" stroke-opacity="0.75" stroke-width="1.33333" stroke-miterlimit="10" stroke-linecap="round" stroke-linejoin="round"/>
<path d="M318.856 1563.04C318.856 1563.04 397.964 1336.44 683.761 1236.68C987.922 1130.5 1278.86 1233.65 1404.51 1090.3C1471.37 1014.37 1478.6 928.669 1481.73 854.436" stroke="#999999" stroke-opacity="0.75" stroke-width="1.33333" stroke-miterlimit="10" stroke-linecap="round" stroke-linejoin="round"/>
<path d="M347.988 1581.11C347.988 1581.11 420.38 1355.39 718.007 1257.33C1018.68 1158.26 1309.33 1263.84 1435.42 1119.48C1508.38 1036.39 1508.85 940.468 1511.01 860.787" stroke="#999999" stroke-opacity="0.75" stroke-width="1.33333" stroke-miterlimit="10" stroke-linecap="round" stroke-linejoin="round"/>
<path d="M377.121 1599.19C377.121 1599.19 442.643 1374.19 752.228 1277.99C1049.29 1185.68 1339.84 1294 1466.33 1148.63C1545.98 1057.66 1537.46 949.969 1539.97 865.332" stroke="#999999" stroke-opacity="0.75" stroke-width="1.33333" stroke-miterlimit="10" stroke-linecap="round" stroke-linejoin="round"/>
<path d="M2210.97 493.291C2217.86 679.711 2111.87 746.998 1922.07 754.615" stroke="#999999" stroke-opacity="0.75" stroke-width="1.33333" stroke-miterlimit="10" stroke-linecap="round" stroke-linejoin="round"/>
<path d="M406.254 1617.26C406.254 1617.26 464.803 1392.83 786.474 1298.67C1079.74 1212.79 1370.34 1324.15 1497.25 1177.81C1584.23 1078.14 1563.81 956.76 1568.92 868.146" stroke="#999999" stroke-opacity="0.75" stroke-width="1.33333" stroke-miterlimit="10" stroke-linecap="round" stroke-linejoin="round"/>
<path d="M2234.81 517.072C2243.49 724.355 2112.93 785.006 1887.18 781.03" stroke="#999999" stroke-opacity="0.75" stroke-width="1.33333" stroke-miterlimit="10" stroke-linecap="round" stroke-linejoin="round"/>
<path d="M435.386 1635.34C435.386 1635.34 486.858 1411.3 820.72 1319.32C1110.06 1239.59 1400.81 1354.34 1528.16 1206.98C1623.33 1097.63 1587.2 960.065 1598.88 869.282" stroke="#999999" stroke-opacity="0.75" stroke-width="1.33333" stroke-miterlimit="10" stroke-linecap="round" stroke-linejoin="round"/>
<path d="M2258.65 540.852C2269.29 768.894 2111.85 820.276 1849.91 804.396" stroke="#999999" stroke-opacity="0.75" stroke-width="1.33333" stroke-miterlimit="10" stroke-linecap="round" stroke-linejoin="round"/>
<path d="M464.519 1653.41C464.519 1653.41 508.837 1429.58 854.966 1339.98C1140.27 1266.14 1431.31 1384.5 1559.08 1236.13C1663.73 1115.55 1606.26 958.129 1631.52 868.534" stroke="#999999" stroke-opacity="0.75" stroke-width="1.33333" stroke-miterlimit="10" stroke-linecap="round" stroke-linejoin="round"/>
<path d="M2282.48 564.632C2295.19 812.246 2110.3 852.525 1815.05 825.698C1813.01 825.518 1810.99 825.337 1809 825.208" stroke="#999999" stroke-opacity="0.75" stroke-width="1.33333" stroke-miterlimit="10" stroke-linecap="round" stroke-linejoin="round"/>
<path d="M493.651 1671.48C493.651 1671.48 530.687 1447.62 889.213 1360.64C1170.41 1292.42 1461.79 1414.65 1589.99 1265.31C1706.88 1130.19 1617.11 945.503 1671.99 864.634" stroke="#999999" stroke-opacity="0.75" stroke-width="1.33333" stroke-miterlimit="10" stroke-linecap="round" stroke-linejoin="round"/>
<path d="M522.791 1689.57C522.791 1689.57 552.492 1465.44 923.44 1381.31C1200.46 1318.48 1491.99 1444.57 1620.91 1294.48C1780.19 1109.03 1546.38 824.903 1839.58 851.552C2132.78 878.198 2320.33 838.856 2306.31 588.402" stroke="#999999" stroke-opacity="0.75" stroke-width="1.33333" stroke-miterlimit="10" stroke-linecap="round" stroke-linejoin="round"/>
<path d="M551.927 1707.64C551.927 1707.64 574.22 1483.01 957.682 1401.97C1230.47 1344.32 1522.47 1474.73 1651.82 1323.64C1809.7 1139.24 1572.95 850.937 1864.11 877.4C2155.27 903.862 2345.47 865.453 2330.15 612.176" stroke="#999999" stroke-opacity="0.75" stroke-width="1.33333" stroke-miterlimit="10" stroke-linecap="round" stroke-linejoin="round"/>
<path d="M581.062 1725.72C581.062 1725.72 595.886 1500.31 991.922 1422.63C1260.43 1369.97 1552.95 1504.9 1682.74 1352.81C1839.21 1169.45 1599.53 876.974 1888.63 903.251C2177.75 929.525 2370.6 892.047 2353.98 635.952" stroke="#999999" stroke-opacity="0.75" stroke-width="1.33333" stroke-miterlimit="10" stroke-linecap="round" stroke-linejoin="round"/>
<path d="M610.196 1743.79C610.196 1743.79 617.5 1517.33 1026.16 1443.3C1290.36 1395.43 1583.44 1535.06 1713.65 1381.98C1868.72 1199.67 1626.1 903.008 1913.16 929.099C2200.23 955.191 2395.73 918.645 2377.82 659.727" stroke="#999999" stroke-opacity="0.75" stroke-width="1.33333" stroke-miterlimit="10" stroke-linecap="round" stroke-linejoin="round"/>
<path d="M639.329 1761.86C639.329 1761.86 639.076 1534.05 1060.4 1463.96C1320.26 1420.73 1613.93 1565.23 1744.57 1411.15C1898.24 1229.88 1652.67 929.045 1937.69 954.951C2222.71 980.856 2420.87 945.242 2401.65 683.502" stroke="#999999" stroke-opacity="0.75" stroke-width="1.33333" stroke-miterlimit="10" stroke-linecap="round" stroke-linejoin="round"/>
<path d="M668.464 1779.94C668.464 1779.94 660.615 1550.45 1094.64 1484.62C1350.16 1445.87 1644.42 1595.4 1775.48 1440.32C1927.76 1260.11 1679.24 955.082 1962.22 980.798C2245.2 1006.52 2446 971.839 2425.49 707.277" stroke="#999999" stroke-opacity="0.75" stroke-width="1.33333" stroke-miterlimit="10" stroke-linecap="round" stroke-linejoin="round"/>
<path d="M697.599 1798.01C697.599 1798.01 682.134 1566.5 1128.88 1505.28C1380.05 1470.87 1675.23 1625.84 1806.39 1469.49C1957.64 1290.63 1705.82 981.116 1986.75 1006.65C2267.68 1032.18 2471.14 998.434 2449.32 731.052" stroke="#999999" stroke-opacity="0.75" stroke-width="1.33333" stroke-miterlimit="10" stroke-linecap="round" stroke-linejoin="round"/>
<path d="M726.734 1816.09C726.734 1816.09 703.637 1582.2 1163.12 1525.95C1409.95 1495.73 1705.72 1656.01 1837.31 1498.65C1987.15 1320.85 1732.39 1007.15 2011.28 1032.5C2290.16 1057.85 2496.27 1025.03 2473.16 754.825" stroke="#999999" stroke-opacity="0.75" stroke-width="1.33333" stroke-miterlimit="10" stroke-linecap="round" stroke-linejoin="round"/>
<path d="M755.87 1834.16C755.87 1834.16 725.138 1597.51 1197.36 1546.61C1439.87 1520.47 1736.21 1686.17 1868.22 1527.82C2016.67 1351.06 1758.96 1033.19 2035.81 1058.35C2312.64 1083.51 2521.4 1051.63 2496.99 778.599" stroke="#999999" stroke-opacity="0.75" stroke-width="1.33333" stroke-miterlimit="10" stroke-linecap="round" stroke-linejoin="round"/>
<path d="M785.005 1852.24C785.005 1852.24 746.647 1612.43 1231.6 1567.27C1469.8 1545.1 1766.71 1716.34 1899.14 1556.99C2046.18 1381.27 1785.54 1059.22 2060.33 1084.2C2335.13 1109.18 2546.54 1078.23 2520.83 802.374" stroke="#999999" stroke-opacity="0.75" stroke-width="1.33333" stroke-miterlimit="10" stroke-linecap="round" stroke-linejoin="round"/>
<path d="M814.137 1870.31C814.137 1870.31 768.173 1626.91 1265.85 1587.94C1499.77 1569.62 1797.2 1746.51 1930.05 1586.16C2075.69 1411.49 1812.11 1085.26 2084.86 1110.05C2357.61 1134.84 2571.67 1104.82 2544.66 826.15" stroke="#999999" stroke-opacity="0.75" stroke-width="1.33333" stroke-miterlimit="10" stroke-linecap="round" stroke-linejoin="round"/>
<path d="M843.275 1888.38C843.275 1888.38 789.731 1640.95 1300.09 1608.6C1529.78 1594.04 1827.69 1776.68 1960.97 1615.33C2105.2 1441.7 1838.68 1111.3 2109.39 1135.9C2380.09 1160.5 2596.82 1131.42 2568.5 849.925" stroke="#999999" stroke-opacity="0.75" stroke-width="1.33333" stroke-miterlimit="10" stroke-linecap="round" stroke-linejoin="round"/>
<path d="M872.407 1906.46C872.407 1906.46 811.335 1654.52 1334.32 1629.26C1559.83 1618.37 1858.17 1806.85 1991.88 1644.49C2134.71 1471.91 1865.26 1137.33 2133.92 1161.75C2402.58 1186.17 2621.95 1158.02 2592.33 873.7" stroke="#999999" stroke-opacity="0.75" stroke-width="1.33333" stroke-miterlimit="10" stroke-linecap="round" stroke-linejoin="round"/>
<path d="M901.542 1924.54C901.542 1924.54 835.498 1704.54 1368.57 1649.93C1588.9 1627.35 1888.67 1837.02 2022.79 1673.66C2164.22 1502.13 1891.83 1163.37 2158.44 1187.6C2425.06 1211.83 2647.08 1184.61 2616.16 897.475" stroke="#999999" stroke-opacity="0.75" stroke-width="1.33333" stroke-miterlimit="10" stroke-linecap="round" stroke-linejoin="round"/>
<path d="M930.677 1942.61C930.677 1942.61 856.043 1709.56 1402.81 1670.59C1619.58 1655.14 1919.16 1867.18 2053.71 1702.83C2193.73 1532.34 1918.4 1189.4 2182.97 1213.45C2447.54 1237.5 2672.21 1211.21 2640 921.25" stroke="#999999" stroke-opacity="0.75" stroke-width="1.33333" stroke-miterlimit="10" stroke-linecap="round" stroke-linejoin="round"/>
<path d="M959.812 1960.68C959.812 1960.68 876.989 1712.93 1437.05 1691.25C1650.17 1683 1949.65 1897.35 2084.62 1732C2223.25 1562.55 1944.97 1215.44 2207.5 1239.3C2470.03 1263.16 2697.34 1237.81 2663.84 945.022" stroke="#999999" stroke-opacity="0.75" stroke-width="1.33333" stroke-miterlimit="10" stroke-linecap="round" stroke-linejoin="round"/>
<path d="M988.947 1978.76C988.947 1978.76 898.515 1703.65 1471.29 1711.91C1680.63 1714.94 1980.14 1927.52 2115.54 1761.17C2252.76 1592.77 1971.55 1241.47 2232.03 1265.15C2492.51 1288.82 2722.47 1264.4 2687.68 968.797" stroke="#999999" stroke-opacity="0.75" stroke-width="1.33333" stroke-miterlimit="10" stroke-linecap="round" stroke-linejoin="round"/>
<path d="M1018.08 1996.83C1018.08 1996.83 920.591 1714.53 1505.53 1732.58C1711.02 1738.92 2010.63 1957.69 2146.45 1790.34C2282.27 1622.98 1998.12 1267.51 2256.55 1291C2514.99 1314.49 2747.62 1291 2711.52 992.573" stroke="#999999" stroke-opacity="0.75" stroke-width="1.33333" stroke-miterlimit="10" stroke-linecap="round" stroke-linejoin="round"/>
<path d="M1603.09 -130.778H1603.32C1879.56 -130.778 2103.5 93.081 2103.5 369.277C2103.5 645.448 1879.56 869.308 1603.32 869.308C1327.08 869.308 1103.13 645.448 1103.13 369.277C1103.13 362.952 1103.26 356.677 1103.47 350.403" stroke="#999999" stroke-opacity="0.75" stroke-width="1.33333" stroke-miterlimit="10" stroke-linecap="round" stroke-linejoin="round"/>
<path d="M1588.24 -102.608C1593.25 -102.763 1598.28 -102.84 1603.32 -102.84C1864.12 -102.84 2075.56 108.522 2075.56 369.278C2075.56 630.009 1864.12 841.371 1603.32 841.371C1342.5 841.371 1131.08 630.009 1131.08 369.278C1131.08 362.255 1131.23 355.284 1131.54 348.338" stroke="#999999" stroke-opacity="0.75" stroke-width="1.33333" stroke-miterlimit="10" stroke-linecap="round" stroke-linejoin="round"/>
<path d="M1574.47 -73.9743C1584 -74.594 1593.63 -74.9038 1603.32 -74.9038C1848.7 -74.9038 2047.62 123.962 2047.62 369.278C2047.62 614.568 1848.7 813.459 1603.32 813.459C1357.94 813.459 1159.02 614.568 1159.02 369.278C1159.02 361.402 1159.23 353.605 1159.62 345.833" stroke="#999999" stroke-opacity="0.75" stroke-width="1.33333" stroke-miterlimit="10" stroke-linecap="round" stroke-linejoin="round"/>
<path d="M1561.71 -44.9262C1575.4 -46.2946 1589.27 -46.9918 1603.32 -46.9918C1833.25 -46.9918 2019.67 139.377 2019.67 369.278C2019.67 599.154 1833.25 785.522 1603.32 785.522C1373.36 785.522 1186.97 599.154 1186.97 369.278C1186.97 360.37 1187.25 351.514 1187.82 342.761" stroke="#999999" stroke-opacity="0.75" stroke-width="1.33333" stroke-miterlimit="10" stroke-linecap="round" stroke-linejoin="round"/>
<path d="M1549.73 -15.3883C1567.24 -17.8154 1585.14 -19.0547 1603.32 -19.0547C1817.84 -19.0547 1991.73 154.817 1991.73 369.278C1991.73 583.713 1817.84 757.585 1603.32 757.585C1388.8 757.585 1214.91 583.713 1214.91 369.278C1214.91 359.079 1215.3 348.983 1216.07 338.991" stroke="#999999" stroke-opacity="0.75" stroke-width="1.33333" stroke-miterlimit="10" stroke-linecap="round" stroke-linejoin="round"/>
<path d="M1538.39 14.7175C1559.47 10.8704 1581.16 8.88219 1603.32 8.88219C1802.39 8.88219 1963.78 170.231 1963.78 369.278C1963.78 568.298 1802.39 729.647 1603.32 729.647C1404.25 729.647 1242.86 568.298 1242.86 369.278C1242.86 357.478 1243.42 345.833 1244.54 334.317" stroke="#999999" stroke-opacity="0.75" stroke-width="1.33333" stroke-miterlimit="10" stroke-linecap="round" stroke-linejoin="round"/>
<path d="M1527.62 45.4948C1551.92 39.8144 1577.29 36.8193 1603.32 36.8193C1786.97 36.8193 1935.84 185.672 1935.84 369.278C1935.84 552.858 1786.97 701.71 1603.32 701.71C1419.67 701.71 1270.8 552.858 1270.8 369.278C1270.8 355.464 1271.65 341.831 1273.28 328.456" stroke="#999999" stroke-opacity="0.75" stroke-width="1.33333" stroke-miterlimit="10" stroke-linecap="round" stroke-linejoin="round"/>
<path d="M1517.24 77.0991C1544.54 69.0691 1573.41 64.7571 1603.32 64.7571C1771.53 64.7571 1907.89 201.087 1907.89 369.278C1907.89 537.444 1771.53 673.773 1603.32 673.773C1435.11 673.773 1298.75 537.444 1298.75 369.278C1298.75 352.857 1300.04 336.719 1302.57 320.995" stroke="#999999" stroke-opacity="0.75" stroke-width="1.33333" stroke-miterlimit="10" stroke-linecap="round" stroke-linejoin="round"/>
<path d="M1507.17 109.864C1537.1 98.7618 1569.51 92.6941 1603.32 92.6941C1756.11 92.6941 1879.95 216.527 1879.95 369.278C1879.95 522.003 1756.11 645.836 1603.32 645.836C1450.53 645.836 1326.69 522.003 1326.69 369.278C1326.69 349.345 1328.81 329.902 1332.84 311.157" stroke="#999999" stroke-opacity="0.75" stroke-width="1.33333" stroke-miterlimit="10" stroke-linecap="round" stroke-linejoin="round"/>
<path d="M1495.78 145.031C1528.34 129.384 1564.81 120.631 1603.32 120.631C1740.67 120.631 1852 231.941 1852 369.278C1852 506.588 1740.67 617.898 1603.32 617.898C1465.97 617.898 1354.61 506.588 1354.61 369.278C1354.61 344.258 1358.3 320.116 1365.17 297.369" stroke="#999999" stroke-opacity="0.75" stroke-width="1.33333" stroke-miterlimit="10" stroke-linecap="round" stroke-linejoin="round"/>
<path d="M1476.69 188.486C1512.54 163.337 1556.21 148.568 1603.32 148.568C1725.22 148.568 1824.06 247.381 1824.06 369.277C1824.06 491.148 1725.22 589.961 1603.32 589.961C1481.39 589.961 1382.55 491.148 1382.55 369.277C1382.55 335.169 1390.3 302.868 1404.12 274.028" stroke="#999999" stroke-opacity="0.75" stroke-width="1.33333" stroke-miterlimit="10" stroke-linecap="round" stroke-linejoin="round"/>
<path d="M1603.31 176.509C1709.8 176.509 1796.12 262.809 1796.12 369.265C1796.12 475.724 1709.8 562.024 1603.31 562.024C1496.83 562.024 1410.51 475.724 1410.51 369.265C1410.51 262.809 1496.83 176.509 1603.31 176.509Z" stroke="#999999" stroke-opacity="0.75" stroke-width="1.33333" stroke-miterlimit="10" stroke-linecap="round" stroke-linejoin="round"/>
<path d="M1603.31 204.443C1694.37 204.443 1768.18 278.237 1768.18 369.265C1768.18 460.296 1694.37 534.087 1603.31 534.087C1512.26 534.087 1438.45 460.296 1438.45 369.265C1438.45 278.237 1512.26 204.443 1603.31 204.443Z" stroke="#999999" stroke-opacity="0.75" stroke-width="1.33333" stroke-miterlimit="10" stroke-linecap="round" stroke-linejoin="round"/>
<path d="M1603.31 232.38C1678.94 232.38 1740.24 293.664 1740.24 369.265C1740.24 444.866 1678.94 506.152 1603.31 506.152C1527.7 506.152 1466.39 444.866 1466.39 369.265C1466.39 293.664 1527.7 232.38 1603.31 232.38Z" stroke="#999999" stroke-opacity="0.75" stroke-width="1.33333" stroke-miterlimit="10" stroke-linecap="round" stroke-linejoin="round"/>
<path d="M1603.31 260.315C1663.5 260.315 1712.3 309.094 1712.3 369.265C1712.3 429.436 1663.5 478.215 1603.31 478.215C1543.13 478.215 1494.34 429.436 1494.34 369.265C1494.34 309.094 1543.13 260.315 1603.31 260.315Z" stroke="#999999" stroke-opacity="0.75" stroke-width="1.33333" stroke-miterlimit="10" stroke-linecap="round" stroke-linejoin="round"/>
<path d="M1603.31 288.252C1648.07 288.252 1684.35 324.524 1684.35 369.265C1684.35 414.008 1648.07 450.28 1603.31 450.28C1558.56 450.28 1522.28 414.008 1522.28 369.265C1522.28 324.524 1558.56 288.252 1603.31 288.252Z" stroke="#999999" stroke-opacity="0.75" stroke-width="1.33333" stroke-miterlimit="10" stroke-linecap="round" stroke-linejoin="round"/>
<path d="M1656.41 369.265C1656.41 398.581 1632.64 422.343 1603.31 422.343C1573.99 422.343 1550.22 398.581 1550.22 369.265C1550.22 339.951 1573.99 316.186 1603.31 316.186C1632.64 316.186 1656.41 339.951 1656.41 369.265Z" stroke="#999999" stroke-opacity="0.75" stroke-width="1.33333" stroke-miterlimit="10" stroke-linecap="round" stroke-linejoin="round"/>
<path d="M1632.91 369.265C1632.91 385.609 1619.66 398.857 1603.31 398.857C1586.97 398.857 1573.72 385.609 1573.72 369.265C1573.72 352.924 1586.97 339.675 1603.31 339.675C1619.66 339.675 1632.91 352.924 1632.91 369.265Z" stroke="#999999" stroke-opacity="0.75" stroke-width="1.33333" stroke-miterlimit="10" stroke-linecap="round" stroke-linejoin="round"/>
<path d="M660.223 188.602C660.223 531.009 382.573 808.584 40.0798 808.584C-302.417 808.584 -580.064 531.009 -580.064 188.602C-580.064 -153.805 -302.417 -431.38 40.0798 -431.38C382.573 -431.38 660.223 -153.805 660.223 188.602Z" stroke="#999999" stroke-opacity="0.75" stroke-width="1.33333" stroke-miterlimit="10" stroke-linecap="round" stroke-linejoin="round"/>
<path d="M40.0804 -396.745C363.441 -396.745 625.577 -134.675 625.577 188.602C625.577 511.881 363.441 773.949 40.0804 773.949C-283.282 773.949 -545.42 511.881 -545.42 188.602C-545.42 -134.675 -283.282 -396.745 40.0804 -396.745Z" stroke="#999999" stroke-opacity="0.75" stroke-width="1.33333" stroke-miterlimit="10" stroke-linecap="round" stroke-linejoin="round"/>
<path d="M40.0803 -362.107C344.306 -362.107 590.933 -115.547 590.933 188.602C590.933 492.752 344.306 739.314 40.0803 739.314C-264.147 739.314 -510.773 492.752 -510.773 188.602C-510.773 -115.547 -264.147 -362.107 40.0803 -362.107Z" stroke="#999999" stroke-opacity="0.75" stroke-width="1.33333" stroke-miterlimit="10" stroke-linecap="round" stroke-linejoin="round"/>
<path d="M40.0802 -327.473C325.174 -327.473 556.289 -96.417 556.289 188.602C556.289 473.624 325.174 704.677 40.0802 704.677C-245.015 704.677 -476.13 473.624 -476.13 188.602C-476.13 -96.417 -245.015 -327.473 40.0802 -327.473Z" stroke="#999999" stroke-opacity="0.75" stroke-width="1.33333" stroke-miterlimit="10" stroke-linecap="round" stroke-linejoin="round"/>
<path d="M40.0802 -292.837C306.039 -292.837 521.642 -77.2894 521.642 188.602C521.642 454.494 306.039 670.042 40.0802 670.042C-225.881 670.042 -441.483 454.494 -441.483 188.602C-441.483 -77.2894 -225.881 -292.837 40.0802 -292.837Z" stroke="#999999" stroke-opacity="0.75" stroke-width="1.33333" stroke-miterlimit="10" stroke-linecap="round" stroke-linejoin="round"/>
<path d="M40.0797 -258.2C286.906 -258.2 486.998 -58.1595 486.998 188.602C486.998 435.364 286.906 635.404 40.0797 635.404C-206.748 635.404 -406.84 435.364 -406.84 188.602C-406.84 -58.1595 -206.748 -258.2 40.0797 -258.2Z" stroke="#999999" stroke-opacity="0.75" stroke-width="1.33333" stroke-miterlimit="10" stroke-linecap="round" stroke-linejoin="round"/>
<path d="M40.0804 -223.565C267.771 -223.565 452.352 -39.0319 452.352 188.602C452.352 416.237 267.771 600.77 40.0804 600.77C-187.614 600.77 -372.195 416.237 -372.195 188.602C-372.195 -39.0319 -187.614 -223.565 40.0804 -223.565Z" stroke="#999999" stroke-opacity="0.75" stroke-width="1.33333" stroke-miterlimit="10" stroke-linecap="round" stroke-linejoin="round"/>
<path d="M40.0804 -188.927C248.638 -188.927 417.708 -19.9017 417.708 188.603C417.708 397.107 248.638 566.135 40.0804 566.135C-168.479 566.135 -337.549 397.107 -337.549 188.603C-337.549 -19.9017 -168.479 -188.927 40.0804 -188.927Z" stroke="#999999" stroke-opacity="0.75" stroke-width="1.33333" stroke-miterlimit="10" stroke-linecap="round" stroke-linejoin="round"/>
<path d="M40.0801 -154.292C229.504 -154.292 383.064 -0.771417 383.064 188.603C383.064 377.98 229.504 531.5 40.0801 531.5C-149.346 531.5 -302.905 377.98 -302.905 188.603C-302.905 -0.771417 -149.346 -154.292 40.0801 -154.292Z" stroke="#999999" stroke-opacity="0.75" stroke-width="1.33333" stroke-miterlimit="10" stroke-linecap="round" stroke-linejoin="round"/>
<path d="M40.0797 -119.657C210.37 -119.657 348.417 18.3557 348.417 188.602C348.417 358.849 210.37 496.862 40.0797 496.862C-130.212 496.862 -268.262 358.849 -268.262 188.602C-268.262 18.3557 -130.212 -119.657 40.0797 -119.657Z" stroke="#999999" stroke-opacity="0.75" stroke-width="1.33333" stroke-miterlimit="10" stroke-linecap="round" stroke-linejoin="round"/>
<path d="M40.08 -85.0195C191.237 -85.0195 313.774 37.4861 313.774 188.603C313.774 339.722 191.237 462.228 40.08 462.228C-111.079 462.228 -233.615 339.722 -233.615 188.603C-233.615 37.4861 -111.079 -85.0195 40.08 -85.0195Z" stroke="#999999" stroke-opacity="0.75" stroke-width="1.33333" stroke-miterlimit="10" stroke-linecap="round" stroke-linejoin="round"/>
<path d="M40.0804 -50.3848C172.102 -50.3848 279.13 56.6133 279.13 188.603C279.13 320.592 172.102 427.59 40.0804 427.59C-91.9445 427.59 -198.971 320.592 -198.971 188.603C-198.971 56.6133 -91.9445 -50.3848 40.0804 -50.3848Z" stroke="#999999" stroke-opacity="0.75" stroke-width="1.33333" stroke-miterlimit="10" stroke-linecap="round" stroke-linejoin="round"/>
<path d="M40.08 -15.7497C152.969 -15.7497 244.484 75.741 244.484 188.603C244.484 301.462 152.969 392.955 40.08 392.955C-72.8099 392.955 -164.326 301.462 -164.326 188.603C-164.326 75.741 -72.8099 -15.7497 40.08 -15.7497Z" stroke="#999999" stroke-opacity="0.75" stroke-width="1.33333" stroke-miterlimit="10" stroke-linecap="round" stroke-linejoin="round"/>
<path d="M40.0803 18.8851C133.835 18.8851 209.839 94.8708 209.839 188.603C209.839 282.334 133.835 358.317 40.0803 358.317C-53.6767 358.317 -129.68 282.334 -129.68 188.603C-129.68 94.8708 -53.6767 18.8851 40.0803 18.8851Z" stroke="#999999" stroke-opacity="0.75" stroke-width="1.33333" stroke-miterlimit="10" stroke-linecap="round" stroke-linejoin="round"/>
<path d="M40.0797 53.5228C114.7 53.5228 175.193 114.001 175.193 188.603C175.193 263.204 114.7 323.683 40.0797 323.683C-34.5433 323.683 -95.0371 263.204 -95.0371 188.603C-95.0371 114.001 -34.5433 53.5228 40.0797 53.5228Z" stroke="#999999" stroke-opacity="0.75" stroke-width="1.33333" stroke-miterlimit="10" stroke-linecap="round" stroke-linejoin="round"/>
<path d="M40.0803 88.1605C95.5681 88.1605 140.549 133.129 140.549 188.603C140.549 244.077 95.5681 289.048 40.0803 289.048C-15.4089 289.048 -60.3906 244.077 -60.3906 188.603C-60.3906 133.129 -15.4089 88.1605 40.0803 88.1605Z" stroke="#999999" stroke-opacity="0.75" stroke-width="1.33333" stroke-miterlimit="10" stroke-linecap="round" stroke-linejoin="round"/>
<path d="M105.904 188.602C105.904 224.946 76.4326 254.412 40.0797 254.412C3.72355 254.412 -25.7461 224.946 -25.7461 188.602C-25.7461 152.258 3.72355 122.792 40.0797 122.792C76.4326 122.792 105.904 152.258 105.904 188.602Z" stroke="#999999" stroke-opacity="0.75" stroke-width="1.33333" stroke-miterlimit="10" stroke-linecap="round" stroke-linejoin="round"/>
<path d="M79.2956 188.603C79.2956 210.258 61.7376 227.811 40.0797 227.811C18.4194 227.811 0.861328 210.258 0.861328 188.603C0.861328 166.95 18.4194 149.398 40.0797 149.398C61.7376 149.398 79.2956 166.95 79.2956 188.603Z" stroke="#999999" stroke-opacity="0.75" stroke-width="1.33333" stroke-miterlimit="10" stroke-linecap="round" stroke-linejoin="round"/>
<path d="M879.269 1042.2C852.771 1044.91 825.498 1048.06 797.579 1052.11" stroke="#999999" stroke-opacity="0.75" stroke-width="1.33333" stroke-miterlimit="10" stroke-linecap="round" stroke-linejoin="round"/>
<path d="M586.55 1102.95H586.523" stroke="#999999" stroke-opacity="0.75" stroke-width="1.33333" stroke-miterlimit="10" stroke-linecap="round" stroke-linejoin="round"/>
<path d="M454.807 1164.25C442.23 1129.24 435.386 1091.46 435.386 1052.11C435.386 868.714 584.096 720.042 767.542 720.042C939.471 720.042 1080.87 850.614 1097.97 1017.98" stroke="#999999" stroke-opacity="0.75" stroke-width="1.33333" stroke-miterlimit="10" stroke-linecap="round" stroke-linejoin="round"/>
<path d="M480.299 1149.58C469.916 1118.99 464.286 1086.2 464.286 1052.11C464.286 884.671 600.057 748.909 767.543 748.909C925.137 748.909 1054.68 869.101 1069.4 1022.81" stroke="#999999" stroke-opacity="0.75" stroke-width="1.33333" stroke-miterlimit="10" stroke-linecap="round" stroke-linejoin="round"/>
<path d="M506.358 1136.31C497.783 1109.8 493.16 1081.5 493.16 1052.11C493.16 900.628 616.018 777.802 767.543 777.802C910.493 777.802 1027.93 887.124 1040.74 1026.68" stroke="#999999" stroke-opacity="0.75" stroke-width="1.33333" stroke-miterlimit="10" stroke-linecap="round" stroke-linejoin="round"/>
<path d="M532.83 1124.23C525.831 1101.43 522.061 1077.21 522.061 1052.11C522.061 916.559 631.953 806.669 767.543 806.669C895.617 806.669 1000.81 904.733 1012.04 1029.86" stroke="#999999" stroke-opacity="0.75" stroke-width="1.33333" stroke-miterlimit="10" stroke-linecap="round" stroke-linejoin="round"/>
<path d="M559.664 1113.1C553.982 1093.76 550.935 1073.29 550.935 1052.11C550.935 932.516 647.914 835.561 767.543 835.561C880.612 835.561 973.433 922.162 983.273 1032.65" stroke="#999999" stroke-opacity="0.75" stroke-width="1.33333" stroke-miterlimit="10" stroke-linecap="round" stroke-linejoin="round"/>
<path d="M586.782 1102.85C582.263 1086.71 579.835 1069.7 579.835 1052.11C579.835 948.472 663.875 864.453 767.543 864.453C865.529 864.453 946.005 939.512 954.502 1035.25" stroke="#999999" stroke-opacity="0.75" stroke-width="1.33333" stroke-miterlimit="10" stroke-linecap="round" stroke-linejoin="round"/>
<path d="M614.184 1093.5C610.594 1080.31 608.709 1066.42 608.709 1052.11C608.709 964.403 679.81 893.321 767.543 893.321C850.447 893.321 918.5 956.812 925.731 1037.81" stroke="#999999" stroke-opacity="0.75" stroke-width="1.33333" stroke-miterlimit="10" stroke-linecap="round" stroke-linejoin="round"/>
<path d="M641.819 1085.03C639.082 1074.53 637.609 1063.5 637.609 1052.11C637.609 980.36 695.771 922.213 767.543 922.213C835.39 922.213 891.098 974.163 896.961 1040.47" stroke="#999999" stroke-opacity="0.75" stroke-width="1.33333" stroke-miterlimit="10" stroke-linecap="round" stroke-linejoin="round"/>
<path d="M669.66 1077.39C667.594 1069.31 666.483 1060.84 666.483 1052.11C666.483 996.316 711.732 951.079 767.543 951.079C820.41 951.079 863.799 991.668 868.241 1043.36" stroke="#999999" stroke-opacity="0.75" stroke-width="1.33333" stroke-miterlimit="10" stroke-linecap="round" stroke-linejoin="round"/>
<path d="M697.759 1070.55C696.209 1064.66 695.383 1058.49 695.383 1052.11C695.383 1012.27 727.692 979.973 767.542 979.973C805.534 979.973 836.706 1009.33 839.496 1046.59" stroke="#999999" stroke-opacity="0.75" stroke-width="1.33333" stroke-miterlimit="10" stroke-linecap="round" stroke-linejoin="round"/>
<path d="M726.04 1064.43C724.878 1060.53 724.258 1056.4 724.258 1052.11C724.258 1028.2 743.628 1008.84 767.543 1008.84C790.839 1008.84 809.822 1027.2 810.777 1050.26" stroke="#999999" stroke-opacity="0.75" stroke-width="1.33333" stroke-miterlimit="10" stroke-linecap="round" stroke-linejoin="round"/>
<path d="M-623.51 1102.69C-364.504 1357.93 -148.731 1217.6 -27.1147 1577.13C94.5015 1936.66 227.929 2051.93 609.879 2070.11" stroke="#999999" stroke-opacity="0.75" stroke-width="1.33333" stroke-miterlimit="10" stroke-linecap="round" stroke-linejoin="round"/>
<path d="M-593.362 1083.07C-335.873 1336.82 -121.362 1197.31 -0.457917 1554.74C120.447 1912.16 253.092 2026.76 632.808 2044.83" stroke="#999999" stroke-opacity="0.75" stroke-width="1.33333" stroke-miterlimit="10" stroke-linecap="round" stroke-linejoin="round"/>
<path d="M-563.212 1063.46C-307.239 1315.71 -93.9933 1177.02 26.1993 1532.34C146.391 1887.66 278.257 2001.58 655.734 2019.55" stroke="#999999" stroke-opacity="0.75" stroke-width="1.33333" stroke-miterlimit="10" stroke-linecap="round" stroke-linejoin="round"/>
<path d="M-533.062 1043.84C-278.608 1294.6 -66.6249 1156.73 52.8547 1509.95C172.336 1863.17 303.419 1976.41 678.66 1994.27" stroke="#999999" stroke-opacity="0.75" stroke-width="1.33333" stroke-miterlimit="10" stroke-linecap="round" stroke-linejoin="round"/>
<path d="M-502.915 1024.23C-249.975 1273.49 -39.2556 1136.45 79.5127 1487.56C198.281 1838.67 328.585 1951.24 701.586 1968.99" stroke="#999999" stroke-opacity="0.75" stroke-width="1.33333" stroke-miterlimit="10" stroke-linecap="round" stroke-linejoin="round"/>
<path d="M-472.765 1004.61C-221.342 1252.38 -11.8871 1116.16 106.17 1465.16C224.225 1814.17 353.748 1926.06 724.516 1943.71" stroke="#999999" stroke-opacity="0.75" stroke-width="1.33333" stroke-miterlimit="10" stroke-linecap="round" stroke-linejoin="round"/>
<path d="M-442.617 984.995C-192.71 1231.27 15.4822 1095.87 132.827 1442.77C250.171 1789.67 378.911 1900.89 747.442 1918.43" stroke="#999999" stroke-opacity="0.75" stroke-width="1.33333" stroke-miterlimit="10" stroke-linecap="round" stroke-linejoin="round"/>
<path d="M-412.467 965.382C-164.078 1210.16 42.8517 1075.58 159.484 1420.38C276.116 1765.17 404.074 1875.72 770.369 1893.15" stroke="#999999" stroke-opacity="0.75" stroke-width="1.33333" stroke-miterlimit="10" stroke-linecap="round" stroke-linejoin="round"/>
<path d="M-382.312 945.761C-135.434 1189.06 70.2228 1055.29 186.133 1397.97C189.775 1408.71 193.417 1419.22 197.057 1429.5" stroke="#999999" stroke-opacity="0.75" stroke-width="1.33333" stroke-miterlimit="10" stroke-linecap="round" stroke-linejoin="round"/>
<path d="M-352.172 926.138C-106.818 1167.94 97.599 1034.99 212.787 1375.59C214.956 1382.02 217.151 1388.37 219.347 1394.62" stroke="#999999" stroke-opacity="0.75" stroke-width="1.33333" stroke-miterlimit="10" stroke-linecap="round" stroke-linejoin="round"/>
<path d="M-322.032 906.54C-78.1766 1146.82 124.95 1014.73 239.466 1353.2C240.472 1356.14 241.455 1359.06 242.462 1361.98" stroke="#999999" stroke-opacity="0.75" stroke-width="1.33333" stroke-miterlimit="10" stroke-linecap="round" stroke-linejoin="round"/>
<path d="M-291.867 886.917C-49.5358 1125.73 152.326 994.432 266.118 1330.81C266.17 1331 266.247 1331.15 266.299 1331.33" stroke="#999999" stroke-opacity="0.75" stroke-width="1.33333" stroke-miterlimit="10" stroke-linecap="round" stroke-linejoin="round"/>
<path d="M-261.728 867.294C-22.3149 1103.21 177.351 975.66 290.782 1302.59" stroke="#999999" stroke-opacity="0.75" stroke-width="1.33333" stroke-miterlimit="10" stroke-linecap="round" stroke-linejoin="round"/>
<path d="M-231.562 847.697C5.21668 1081.03 202.867 956.528 315.86 1275.74" stroke="#999999" stroke-opacity="0.75" stroke-width="1.33333" stroke-miterlimit="10" stroke-linecap="round" stroke-linejoin="round"/>
<path d="M-188.069 840.88C40.5744 1054.75 231.252 942.947 341.532 1250.59" stroke="#999999" stroke-opacity="0.75" stroke-width="1.33333" stroke-miterlimit="10" stroke-linecap="round" stroke-linejoin="round"/>
<path d="M-111.286 860.994C94.8367 1020.07 265.808 943.98 367.824 1227.15" stroke="#999999" stroke-opacity="0.75" stroke-width="1.33333" stroke-miterlimit="10" stroke-linecap="round" stroke-linejoin="round"/>
<path d="M-38.3008 871.502C147.264 990.222 300.597 943.462 394.709 1205.43" stroke="#999999" stroke-opacity="0.75" stroke-width="1.33333" stroke-miterlimit="10" stroke-linecap="round" stroke-linejoin="round"/>
<path d="M32.0518 875.246C198.53 964.325 335.721 942.223 422.215 1185.32" stroke="#999999" stroke-opacity="0.75" stroke-width="1.33333" stroke-miterlimit="10" stroke-linecap="round" stroke-linejoin="round"/>
<path d="M97.4443 872.923C247.393 942.069 370.742 939.28 450.288 1166.99" stroke="#999999" stroke-opacity="0.75" stroke-width="1.33333" stroke-miterlimit="10" stroke-linecap="round" stroke-linejoin="round"/>
<path d="M156.407 865.59C268.391 912.118 364.001 928.333 435.386 1051.75" stroke="#999999" stroke-opacity="0.75" stroke-width="1.33333" stroke-miterlimit="10" stroke-linecap="round" stroke-linejoin="round"/>
<path d="M209.068 854.694C299.073 889.887 377.535 911.266 440.113 996.007" stroke="#999999" stroke-opacity="0.75" stroke-width="1.33333" stroke-miterlimit="10" stroke-linecap="round" stroke-linejoin="round"/>
<path d="M256.098 841.19C330.013 869.359 395.613 891.539 450.262 953.507" stroke="#999999" stroke-opacity="0.75" stroke-width="1.33333" stroke-miterlimit="10" stroke-linecap="round" stroke-linejoin="round"/>
<path d="M298.428 825.827C360.231 849.22 415.862 870.392 463.77 917.617" stroke="#999999" stroke-opacity="0.75" stroke-width="1.33333" stroke-miterlimit="10" stroke-linecap="round" stroke-linejoin="round"/>
<path d="M336.78 808.94C389.518 828.977 437.582 848.497 479.912 885.936" stroke="#999999" stroke-opacity="0.75" stroke-width="1.33333" stroke-miterlimit="10" stroke-linecap="round" stroke-linejoin="round"/>
<path d="M498.506 857.327C460.464 826.369 418.005 808.476 371.801 790.815" stroke="#999999" stroke-opacity="0.75" stroke-width="1.33333" stroke-miterlimit="10" stroke-linecap="round" stroke-linejoin="round"/>
<path d="M519.606 831.12C484.534 804.267 445.794 787.691 403.98 771.605" stroke="#999999" stroke-opacity="0.75" stroke-width="1.33333" stroke-miterlimit="10" stroke-linecap="round" stroke-linejoin="round"/>
<path d="M543.29 807.159C509.896 782.475 473.197 766.699 433.733 751.465" stroke="#999999" stroke-opacity="0.75" stroke-width="1.33333" stroke-miterlimit="10" stroke-linecap="round" stroke-linejoin="round"/>
<path d="M569.762 785.29C536.627 761.019 500.263 745.476 461.161 730.423" stroke="#999999" stroke-opacity="0.75" stroke-width="1.33333" stroke-miterlimit="10" stroke-linecap="round" stroke-linejoin="round"/>
<path d="M599.282 765.744C565.062 740.182 527.329 724.251 486.626 708.656" stroke="#999999" stroke-opacity="0.75" stroke-width="1.33333" stroke-miterlimit="10" stroke-linecap="round" stroke-linejoin="round"/>
<path d="M632.211 748.754H632.185C595.485 719.913 554.602 703.104 510.231 686.166" stroke="#999999" stroke-opacity="0.75" stroke-width="1.33333" stroke-miterlimit="10" stroke-linecap="round" stroke-linejoin="round"/>
<path d="M668.678 735.018H668.653C628.208 700.29 582.366 682.087 532.133 663.031" stroke="#999999" stroke-opacity="0.75" stroke-width="1.33333" stroke-miterlimit="10" stroke-linecap="round" stroke-linejoin="round"/>
<path d="M708.555 725.284H708.529C663.306 681.106 610.775 661.38 552.433 639.304" stroke="#999999" stroke-opacity="0.75" stroke-width="1.33333" stroke-miterlimit="10" stroke-linecap="round" stroke-linejoin="round"/>
<path d="M751.324 720.43H751.298C700.703 661.947 639.856 641.111 571.234 615.032" stroke="#999999" stroke-opacity="0.75" stroke-width="1.33333" stroke-miterlimit="10" stroke-linecap="round" stroke-linejoin="round"/>
<path d="M795.901 721.256H795.875C739.831 642.118 669.428 621.281 588.564 590.09" stroke="#999999" stroke-opacity="0.75" stroke-width="1.33333" stroke-miterlimit="10" stroke-linecap="round" stroke-linejoin="round"/>
<path d="M604.499 564.58C699.128 602.07 779.991 620.842 840.994 728.201" stroke="#999999" stroke-opacity="0.75" stroke-width="1.33333" stroke-miterlimit="10" stroke-linecap="round" stroke-linejoin="round"/>
<path d="M619.634 538.553C729.061 583.635 820.824 597.5 885.726 741.705" stroke="#999999" stroke-opacity="0.75" stroke-width="1.33333" stroke-miterlimit="10" stroke-linecap="round" stroke-linejoin="round"/>
<path d="M634.717 512.269C759.382 566.181 862.043 571.784 929.451 762.104" stroke="#999999" stroke-opacity="0.75" stroke-width="1.33333" stroke-miterlimit="10" stroke-linecap="round" stroke-linejoin="round"/>
<path d="M650.6 486.036C782.135 546.016 890.09 544.235 959.202 748.574C964.368 763.808 969.533 778.474 974.776 792.623" stroke="#999999" stroke-opacity="0.75" stroke-width="1.33333" stroke-miterlimit="10" stroke-linecap="round" stroke-linejoin="round"/>
<path d="M668.291 460.319C803.958 525.411 915.271 517.588 985.856 726.187C1003.44 778.189 1021.37 823.632 1040.79 863.24C1040.79 863.266 1040.81 863.292 1040.81 863.317" stroke="#999999" stroke-opacity="0.75" stroke-width="1.33333" stroke-miterlimit="10" stroke-linecap="round" stroke-linejoin="round"/>
<path d="M1072.68 920.716V920.742C1094.15 954.695 1117.78 983.071 1144.79 1006.7" stroke="#999999" stroke-opacity="0.75" stroke-width="1.33333" stroke-miterlimit="10" stroke-linecap="round" stroke-linejoin="round"/>
<path d="M688.952 435.842C827.383 504.936 941.02 492.491 1012.51 703.802C1059.38 842.403 1108.56 933.935 1182.76 992.624" stroke="#999999" stroke-opacity="0.75" stroke-width="1.33333" stroke-miterlimit="10" stroke-linecap="round" stroke-linejoin="round"/>
<path d="M713.952 413.379C853.21 484.332 967.518 469.589 1039.16 681.39C1087.33 823.814 1137.92 916.172 1216.02 974.086" stroke="#999999" stroke-opacity="0.75" stroke-width="1.33333" stroke-miterlimit="10" stroke-linecap="round" stroke-linejoin="round"/>
<path d="M744.506 393.781C882.059 463.34 994.973 449.526 1065.82 659.004C1114.11 801.737 1164.83 893.811 1243.66 951.157" stroke="#999999" stroke-opacity="0.75" stroke-width="1.33333" stroke-miterlimit="10" stroke-linecap="round" stroke-linejoin="round"/>
<path d="M782.238 377.695C914.807 441.987 1023.64 433.131 1092.47 636.618C1139.86 776.692 1189.6 867.604 1266.36 924.614" stroke="#999999" stroke-opacity="0.75" stroke-width="1.33333" stroke-miterlimit="10" stroke-linecap="round" stroke-linejoin="round"/>
<path d="M829.32 365.663C952.72 420.737 1053.99 421.615 1119.12 614.232C1164.96 749.736 1213.05 838.866 1286.01 895.696" stroke="#999999" stroke-opacity="0.75" stroke-width="1.33333" stroke-miterlimit="10" stroke-linecap="round" stroke-linejoin="round"/>
<path d="M889.807 358.485C997.969 401.449 1086.81 417.406 1145.8 591.82C1189.42 720.817 1235.08 807.443 1302.65 864.066" stroke="#999999" stroke-opacity="0.75" stroke-width="1.33333" stroke-miterlimit="10" stroke-linecap="round" stroke-linejoin="round"/>
<path d="M1220.62 691.227C1248.1 749.116 1278.7 794.275 1316.23 829.08" stroke="#999999" stroke-opacity="0.75" stroke-width="1.33333" stroke-miterlimit="10" stroke-linecap="round" stroke-linejoin="round"/>
<path d="M966.279 356.238C1020.41 376.972 1068.6 398.067 1109.26 447.719" stroke="#999999" stroke-opacity="0.75" stroke-width="1.33333" stroke-miterlimit="10" stroke-linecap="round" stroke-linejoin="round"/>
<path d="M1326.77 789.809C1323.67 786.529 1320.62 783.199 1317.62 779.765" stroke="#999999" stroke-opacity="0.75" stroke-width="1.33333" stroke-miterlimit="10" stroke-linecap="round" stroke-linejoin="round"/>
<path d="M1103.7 393.342C1083.53 376.662 1061.89 364.372 1038.93 353.837" stroke="#999999" stroke-opacity="0.75" stroke-width="1.33333" stroke-miterlimit="10" stroke-linecap="round" stroke-linejoin="round"/>
<path d="M1103.42 352.34C1102.46 351.746 1101.51 351.152 1100.55 350.584" stroke="#999999" stroke-opacity="0.75" stroke-width="1.33333" stroke-miterlimit="10" stroke-linecap="round" stroke-linejoin="round"/>
</g>
<defs>
<clipPath id="clip0_1126_1270">
<rect width="1937" height="1779" fill="white"/>
</clipPath>
</defs>
</svg>
