<svg width="21" height="20" viewBox="0 0 21 20" fill="none" xmlns="http://www.w3.org/2000/svg">
<g clip-path="url(#clip0_2_13393)">
<path d="M3.79102 7.5H5.04102V6.25H3.79102V7.5ZM8.79102 6.25H10.041V5H8.79102V6.25ZM11.291 6.25H12.541V5H11.291V6.25ZM13.791 6.25H15.041V5H13.791V6.25ZM8.79102 3.75H10.041V2.5H8.79102V3.75ZM11.291 3.75H12.541V2.5H11.291V3.75ZM13.791 3.75H15.041V2.5H13.791V3.75ZM8.79102 11.25H10.041V10H8.79102V11.25ZM11.291 11.25H12.541V10H11.291V11.25ZM13.791 11.25H15.041V10H13.791V11.25ZM8.79102 13.75H10.041V12.5H8.79102V13.75ZM13.791 13.75H15.041V12.5H13.791V13.75ZM8.79102 16.25H10.041V15H8.79102V16.25ZM13.791 16.25H15.041V15H13.791V16.25ZM17.541 15H18.791V13.75H17.541V15ZM17.541 11.25V12.5H18.791V11.25H17.541ZM17.541 17.5H18.791V16.25H17.541V17.5ZM8.79102 8.75H10.041V7.5H8.79102V8.75ZM11.291 8.75H12.541V7.5H11.291V8.75ZM13.791 8.75H15.041V7.5H13.791V8.75ZM3.79102 10H5.04102V8.75H3.79102V10ZM3.79102 12.5H5.04102V11.25H3.79102V12.5ZM3.79102 15H5.04102V13.75H3.79102V15ZM3.79102 17.5H5.04102V16.25H3.79102V17.5ZM11.291 13.75H12.541V12.5H11.291V13.75Z" fill="#052D23"/>
<path fill-rule="evenodd" clip-rule="evenodd" d="M20.041 18.75C20.041 19.4409 19.482 20 18.791 20H2.54102C1.85008 20 1.29102 19.4409 1.29102 18.75V5C1.29102 4.30906 1.85008 3.75 2.54102 3.75H6.29102V1.25C6.29102 0.559062 6.85008 0 7.54102 0H16.291C16.982 0 17.541 0.559062 17.541 1.25V8.75H18.791C19.482 8.75 20.041 9.30906 20.041 10V18.75ZM6.29102 5H2.54102V18.75H6.29102V5ZM16.291 1.25H7.54102V18.75H11.291V15H12.541V18.75H16.291V1.25ZM18.791 10H17.541V18.75H18.791V10Z" fill="#052D23"/>
</g>
<defs>
<clipPath id="clip0_2_13393">
<rect width="20" height="20" fill="white" transform="translate(0.666016)"/>
</clipPath>
</defs>
</svg>
