<svg width="21" height="20" viewBox="0 0 21 20" fill="none" xmlns="http://www.w3.org/2000/svg">
<path d="M13.2885 13.6282L13.8782 13.0385L10.6667 9.82654V5.83333H9.83333V10.1731L13.2885 13.6282ZM10.2528 17.5C9.21567 17.5 8.2406 17.3032 7.32758 16.9096C6.41457 16.516 5.62037 15.9818 4.94498 15.3071C4.2696 14.6323 3.73493 13.8389 3.34096 12.9267C2.94699 12.0145 2.75 11.0399 2.75 10.0028C2.75 8.96567 2.9468 7.9906 3.3404 7.07758C3.73401 6.16457 4.26819 5.37037 4.94294 4.69498C5.61769 4.0196 6.41114 3.48493 7.32329 3.09096C8.23546 2.69699 9.2101 2.5 10.2472 2.5C11.2843 2.5 12.2594 2.6968 13.1724 3.0904C14.0854 3.48401 14.8796 4.01819 15.555 4.69294C16.2304 5.36769 16.7651 6.16114 17.159 7.07329C17.553 7.98546 17.75 8.9601 17.75 9.99721C17.75 11.0343 17.5532 12.0094 17.1596 12.9224C16.766 13.8354 16.2318 14.6296 15.5571 15.305C14.8823 15.9804 14.0889 16.5151 13.1767 16.909C12.2645 17.303 11.2899 17.5 10.2528 17.5ZM10.25 16.6667C12.0972 16.6667 13.6701 16.0174 14.9688 14.7188C16.2674 13.4201 16.9167 11.8472 16.9167 10C16.9167 8.15278 16.2674 6.57986 14.9688 5.28125C13.6701 3.98264 12.0972 3.33333 10.25 3.33333C8.40278 3.33333 6.82986 3.98264 5.53125 5.28125C4.23264 6.57986 3.58333 8.15278 3.58333 10C3.58333 11.8472 4.23264 13.4201 5.53125 14.7188C6.82986 16.0174 8.40278 16.6667 10.25 16.6667Z" fill="#616161"/>
</svg>
