<svg width="24" height="24" viewBox="0 0 24 24" fill="none" xmlns="http://www.w3.org/2000/svg">
<g clip-path="url(#clip0_37_766)">
<path d="M12 0C9.62663 0 7.30655 0.703788 5.33316 2.02236C3.35977 3.34094 1.8217 5.21509 0.913451 7.4078C0.00519943 9.60051 -0.232441 12.0133 0.230582 14.3411C0.693605 16.6689 1.83649 18.8071 3.51472 20.4853C5.19295 22.1635 7.33115 23.3064 9.65892 23.7694C11.9867 24.2324 14.3995 23.9948 16.5922 23.0866C18.7849 22.1783 20.6591 20.6402 21.9776 18.6668C23.2962 16.6935 24 14.3734 24 12C23.9966 8.81846 22.7312 5.76821 20.4815 3.51852C18.2318 1.26883 15.1815 0.00344108 12 0ZM12 22C10.0222 22 8.08879 21.4135 6.4443 20.3147C4.79981 19.2159 3.51809 17.6541 2.76121 15.8268C2.00433 13.9996 1.8063 11.9889 2.19215 10.0491C2.578 8.10929 3.53041 6.32746 4.92894 4.92893C6.32746 3.53041 8.10929 2.578 10.0491 2.19215C11.9889 1.8063 13.9996 2.00433 15.8268 2.7612C17.6541 3.51808 19.2159 4.79981 20.3147 6.4443C21.4135 8.08879 22 10.0222 22 12C21.9971 14.6513 20.9426 17.1931 19.0679 19.0679C17.1931 20.9426 14.6513 21.9971 12 22Z" fill="#052D23"/>
<path d="M16.7076 7.29259C16.52 7.10512 16.2657 6.99981 16.0006 6.99981C15.7354 6.99981 15.4811 7.10512 15.2936 7.29259L12.0006 10.5856L8.70757 7.29259C8.61532 7.19708 8.50498 7.1209 8.38297 7.06849C8.26097 7.01608 8.12975 6.9885 7.99697 6.98734C7.86419 6.98619 7.73251 7.01149 7.60962 7.06177C7.48672 7.11205 7.37507 7.18631 7.28117 7.2802C7.18728 7.37409 7.11303 7.48574 7.06275 7.60864C7.01247 7.73154 6.98717 7.86321 6.98832 7.99599C6.98947 8.12877 7.01706 8.25999 7.06947 8.382C7.12188 8.504 7.19806 8.61435 7.29357 8.70659L10.5866 11.9996L7.29357 15.2926C7.19806 15.3848 7.12188 15.4952 7.06947 15.6172C7.01706 15.7392 6.98947 15.8704 6.98832 16.0032C6.98717 16.136 7.01247 16.2676 7.06275 16.3905C7.11303 16.5134 7.18728 16.6251 7.28117 16.719C7.37507 16.8129 7.48672 16.8871 7.60962 16.9374C7.73251 16.9877 7.86419 17.013 7.99697 17.0118C8.12975 17.0107 8.26097 16.9831 8.38297 16.9307C8.50498 16.8783 8.61532 16.8021 8.70757 16.7066L12.0006 13.4136L15.2936 16.7066C15.4822 16.8888 15.7348 16.9895 15.997 16.9873C16.2592 16.985 16.51 16.8798 16.6954 16.6944C16.8808 16.509 16.986 16.2582 16.9882 15.996C16.9905 15.7338 16.8897 15.4812 16.7076 15.2926L13.4146 11.9996L16.7076 8.70659C16.895 8.51907 17.0004 8.26476 17.0004 7.99959C17.0004 7.73443 16.895 7.48012 16.7076 7.29259Z" fill="#052D23"/>
</g>
<defs>
<clipPath id="clip0_37_766">
<rect width="24" height="24" fill="white"/>
</clipPath>
</defs>
</svg>
