<svg width="11" height="11" viewBox="0 0 11 11" fill="none" xmlns="http://www.w3.org/2000/svg">
<path d="M5.49757 11C5.37349 11 5.25799 10.9744 5.15108 10.9233C5.04416 10.8722 4.94252 10.7845 4.84617 10.6602L0.218899 4.68889C0.0763328 4.50493 0.00340263 4.2737 0.000107899 3.9952C-0.00320399 3.71669 0.0697262 3.48119 0.218899 3.28872C0.368054 3.09624 0.548886 3 0.761396 3C0.973906 3 1.15474 3.09624 1.30389 3.28872L5.49757 8.70046L9.69125 3.28872C9.83379 3.10476 10.013 3.01065 10.2288 3.00638C10.4446 3.00212 10.6271 3.09624 10.7762 3.28872C10.9254 3.48119 11 3.71456 11 3.98882C11 4.26305 10.9254 4.49641 10.7762 4.68889L6.14897 10.6602C6.05262 10.7845 5.95098 10.8722 5.84406 10.9233C5.73715 10.9744 5.62165 11 5.49757 11Z" fill="white"/>
</svg>
