<svg width="46" height="46" viewBox="0 0 46 46" fill="none" xmlns="http://www.w3.org/2000/svg">
<rect x="0.5" y="0.5" width="45.0006" height="45" rx="5.5" fill="#BFD8BD"/>
<rect x="0.5" y="0.5" width="45.0006" height="45" rx="5.5" stroke="#052D23"/>
<path d="M35.8292 30.7869C35.8433 30.7435 35.8528 30.6978 35.8528 30.6497V14.7675C35.8528 14.719 35.8433 14.673 35.8289 14.6293C35.8268 14.6234 35.8256 14.6174 35.8232 14.6114C35.8041 14.5603 35.776 14.5142 35.7407 14.4739C35.7383 14.4712 35.738 14.4679 35.7356 14.4652C35.7341 14.4637 35.7323 14.4631 35.7309 14.4616C35.6932 14.4216 35.6486 14.3893 35.5987 14.3651C35.5948 14.3633 35.5918 14.3609 35.588 14.3591C35.5407 14.3379 35.4893 14.3259 35.4352 14.3223C35.4298 14.322 35.4247 14.3208 35.4193 14.3208C35.4143 14.3205 35.4098 14.3193 35.4047 14.3193H10.5308C10.5257 14.3193 10.5209 14.3205 10.5158 14.3208C10.511 14.3211 10.5062 14.322 10.5015 14.3223C10.4467 14.3259 10.3944 14.3382 10.3466 14.3597C10.3436 14.3609 10.3412 14.363 10.3382 14.3642C10.2874 14.3884 10.2423 14.4213 10.2043 14.4619C10.2028 14.4634 10.201 14.4637 10.1995 14.4652C10.1971 14.4676 10.1968 14.4709 10.1944 14.4736C10.1592 14.514 10.1308 14.5603 10.1116 14.6114C10.1092 14.6174 10.108 14.6234 10.1059 14.6296C10.0916 14.6733 10.082 14.7193 10.082 14.7678V30.6502C10.082 30.6993 10.0919 30.7459 10.1065 30.7902C10.1086 30.7961 10.1098 30.8018 10.1119 30.8078C10.1314 30.8592 10.1601 30.9056 10.1956 30.9459C10.1977 30.9483 10.1983 30.9513 10.2004 30.9537C10.2022 30.9558 10.2046 30.957 10.2067 30.9591C10.2213 30.9743 10.2375 30.9878 10.2542 31.0009C10.2617 31.0066 10.2683 31.0135 10.276 31.0189C10.2958 31.0326 10.317 31.0437 10.3388 31.0538C10.3442 31.0562 10.349 31.0601 10.3544 31.0622C10.4085 31.0852 10.468 31.0984 10.5305 31.0984H35.4041C35.4666 31.0984 35.5261 31.0855 35.5802 31.0622C35.5886 31.0586 35.5963 31.0532 35.6044 31.049C35.6229 31.0398 35.6415 31.0302 35.6585 31.0186C35.6675 31.0123 35.6755 31.0042 35.6842 30.9973C35.6995 30.9851 35.7144 30.9728 35.7276 30.9588C35.73 30.9564 35.7326 30.9546 35.735 30.9522C35.7374 30.9495 35.738 30.9459 35.7404 30.9432C35.7754 30.9032 35.8035 30.8571 35.8226 30.8063C35.8256 30.7997 35.8271 30.7934 35.8292 30.7869ZM10.9792 15.7845L18.5267 22.6785L10.9792 29.6276V15.7845ZM26.4485 22.3407C26.4174 22.361 26.3845 22.3781 26.3585 22.4068C26.3487 22.4175 26.3454 22.4316 26.3367 22.4429L22.9676 25.5203L11.6865 15.2159H34.2487L26.4485 22.3407ZM19.1916 23.2857L22.665 26.4584C22.7508 26.5367 22.8591 26.5759 22.9676 26.5759C23.0761 26.5759 23.1843 26.5367 23.2698 26.4584L26.7002 23.3251L34.2466 30.2015H11.6799L19.1916 23.2857ZM27.3654 22.7177L34.956 15.7845V29.6347L27.3654 22.7177Z" fill="black"/>
</svg>
