<svg width="46" height="46" viewBox="0 0 46 46" fill="none" xmlns="http://www.w3.org/2000/svg">
<rect x="0.5" y="0.5" width="45" height="45" rx="5.5" fill="#BFD8BD"/>
<rect x="0.5" y="0.5" width="45" height="45" rx="5.5" stroke="#052D23"/>
<g clip-path="url(#clip0_2_16056)">
<path d="M25.8125 32.3747V26.7497C25.8125 26.5011 25.7137 26.2626 25.5379 26.0868C25.3621 25.911 25.1236 25.8122 24.875 25.8122H21.125C20.8764 25.8122 20.6379 25.911 20.4621 26.0868C20.2863 26.2626 20.1875 26.5011 20.1875 26.7497V32.3747C20.1875 32.6233 20.0887 32.8618 19.9129 33.0376C19.7371 33.2134 19.4986 33.3122 19.25 33.3122H13.625C13.3764 33.3122 13.1379 33.2134 12.9621 33.0376C12.7863 32.8618 12.6875 32.6233 12.6875 32.3747V21.5349C12.6896 21.4051 12.7176 21.2771 12.77 21.1584C12.8223 21.0396 12.8978 20.9325 12.9922 20.8435L22.3672 12.3239C22.54 12.1658 22.7658 12.0781 23 12.0781C23.2342 12.0781 23.46 12.1658 23.6328 12.3239L33.0078 20.8435C33.1022 20.9325 33.1777 21.0396 33.23 21.1584C33.2824 21.2771 33.3104 21.4051 33.3125 21.5349V32.3747C33.3125 32.6233 33.2137 32.8618 33.0379 33.0376C32.8621 33.2134 32.6236 33.3122 32.375 33.3122H26.75C26.5014 33.3122 26.2629 33.2134 26.0871 33.0376C25.9113 32.8618 25.8125 32.6233 25.8125 32.3747Z" stroke="#052D23" stroke-linecap="round" stroke-linejoin="round"/>
</g>
<defs>
<clipPath id="clip0_2_16056">
<rect width="30" height="30" fill="white" transform="translate(8 8)"/>
</clipPath>
</defs>
</svg>
