<svg width="12" height="17" viewBox="0 0 12 17" fill="none" xmlns="http://www.w3.org/2000/svg">
<path d="M6.00287 8.26396C6.37928 8.26396 6.70054 8.12993 6.96667 7.86189C7.23279 7.59384 7.36585 7.27162 7.36585 6.89522C7.36585 6.51881 7.23183 6.19756 6.9638 5.93144C6.69575 5.66531 6.37353 5.53224 5.99713 5.53224C5.62072 5.53224 5.29946 5.66627 5.03333 5.93431C4.76721 6.20235 4.63415 6.52457 4.63415 6.90099C4.63415 7.27739 4.76817 7.59865 5.0362 7.86476C5.30425 8.13089 5.62647 8.26396 6.00287 8.26396ZM6 16.1176C4.01301 14.3604 2.51626 12.7217 1.50976 11.2013C0.503252 9.68103 0 8.29756 0 7.05094C0 5.26232 0.582386 3.78698 1.74716 2.62491C2.91192 1.46286 4.32953 0.881836 6 0.881836C7.67047 0.881836 9.08808 1.46286 10.2528 2.62491C11.4176 3.78698 12 5.26232 12 7.05094C12 8.29756 11.4967 9.68103 10.4902 11.2013C9.48374 12.7217 7.98699 14.3604 6 16.1176Z" fill="#483C32"/>
</svg>
