<svg width="24" height="24" viewBox="0 0 24 24" fill="none" xmlns="http://www.w3.org/2000/svg">
<path d="M4.4 1.31543C3.62188 1.45137 2.98438 1.76074 2.51563 2.22949C2.13594 2.60918 1.90625 3.0123 1.70938 3.63574L1.57812 4.05762V6.00293V7.94824L1.70938 8.37012C2.00469 9.30762 2.51094 9.9498 3.25156 10.3107C4.03906 10.6998 4.1375 10.7139 6.28906 10.7139C8.10781 10.7139 8.20156 10.7092 8.5625 10.6061C9.80469 10.2639 10.55 9.51855 10.8922 8.27637C10.9953 7.91543 11 7.82168 11 6.00293C11 4.18418 10.9953 4.09043 10.8922 3.72949C10.5547 2.51074 9.85625 1.79824 8.65625 1.42793L8.23438 1.29668L6.42969 1.2873C5.43594 1.28262 4.52188 1.29199 4.4 1.31543ZM8.10781 2.83887C8.8625 3.01699 9.275 3.42949 9.45313 4.18418C9.55156 4.61074 9.55156 7.39512 9.45313 7.82168C9.275 8.57637 8.8625 8.98887 8.10781 9.16699C7.68125 9.26543 4.89688 9.26543 4.47031 9.16699C3.71563 8.98887 3.30313 8.57637 3.125 7.82168C3.02656 7.39512 3.02656 4.61074 3.125 4.18418C3.30313 3.43887 3.71563 3.01699 4.45156 2.84355C4.85 2.74512 7.7 2.74512 8.10781 2.83887Z" fill="#052D23"/>
<path d="M16.4 1.31543C15.6219 1.45137 14.9844 1.76074 14.5156 2.22949C14.1359 2.60918 13.9062 3.0123 13.7094 3.63574L13.5781 4.05762V6.00293V7.94824L13.7094 8.37012C14.0047 9.30762 14.5109 9.9498 15.2516 10.3107C16.0391 10.6998 16.1375 10.7139 18.2891 10.7139C20.1078 10.7139 20.2016 10.7092 20.5625 10.6061C21.8047 10.2639 22.55 9.51855 22.8922 8.27637C22.9953 7.91543 23 7.82168 23 6.00293C23 4.18418 22.9953 4.09043 22.8922 3.72949C22.5547 2.51074 21.8563 1.79824 20.6563 1.42793L20.2344 1.29668L18.4297 1.2873C17.4359 1.28262 16.5219 1.29199 16.4 1.31543ZM20.1078 2.83887C20.8625 3.01699 21.275 3.42949 21.4531 4.18418C21.5516 4.61074 21.5516 7.39512 21.4531 7.82168C21.275 8.57637 20.8625 8.98887 20.1078 9.16699C19.6813 9.26543 16.8969 9.26543 16.4703 9.16699C15.7156 8.98887 15.3031 8.57637 15.125 7.82168C15.0266 7.39512 15.0266 4.61074 15.125 4.18418C15.3031 3.43887 15.7156 3.01699 16.4516 2.84355C16.85 2.74512 19.7 2.74512 20.1078 2.83887Z" fill="#052D23"/>
<path d="M4.4 13.3154C3.62188 13.4514 2.98438 13.7607 2.51563 14.2295C2.13594 14.6092 1.90625 15.0123 1.70938 15.6357L1.57812 16.0576V18.0029V19.9482L1.70938 20.3701C2.00469 21.3076 2.51094 21.9498 3.25156 22.3107C4.03906 22.6998 4.1375 22.7139 6.28906 22.7139C8.10781 22.7139 8.20156 22.7092 8.5625 22.6061C9.80469 22.2639 10.55 21.5186 10.8922 20.2764C10.9953 19.9154 11 19.8217 11 18.0029C11 16.1842 10.9953 16.0904 10.8922 15.7295C10.5547 14.5107 9.85625 13.7982 8.65625 13.4279L8.23438 13.2967L6.42969 13.2873C5.43594 13.2826 4.52188 13.292 4.4 13.3154ZM8.10781 14.8389C8.8625 15.017 9.275 15.4295 9.45313 16.1842C9.55156 16.6107 9.55156 19.3951 9.45313 19.8217C9.275 20.5764 8.8625 20.9889 8.10781 21.167C7.68125 21.2654 4.89688 21.2654 4.47031 21.167C3.71563 20.9889 3.30313 20.5764 3.125 19.8217C3.02656 19.3951 3.02656 16.6107 3.125 16.1842C3.30313 15.4389 3.71563 15.017 4.45156 14.8436C4.85 14.7451 7.7 14.7451 8.10781 14.8389Z" fill="#052D23"/>
<path d="M16.4 13.3154C15.6219 13.4514 14.9844 13.7607 14.5156 14.2295C14.1359 14.6092 13.9062 15.0123 13.7094 15.6357L13.5781 16.0576V18.0029V19.9482L13.7094 20.3701C14.0047 21.3076 14.5109 21.9498 15.2516 22.3107C16.0391 22.6998 16.1375 22.7139 18.2891 22.7139C20.1078 22.7139 20.2016 22.7092 20.5625 22.6061C21.8047 22.2639 22.55 21.5186 22.8922 20.2764C22.9953 19.9154 23 19.8217 23 18.0029C23 16.1842 22.9953 16.0904 22.8922 15.7295C22.5547 14.5107 21.8563 13.7982 20.6563 13.4279L20.2344 13.2967L18.4297 13.2873C17.4359 13.2826 16.5219 13.292 16.4 13.3154ZM20.1078 14.8389C20.8625 15.017 21.275 15.4295 21.4531 16.1842C21.5516 16.6107 21.5516 19.3951 21.4531 19.8217C21.275 20.5764 20.8625 20.9889 20.1078 21.167C19.6813 21.2654 16.8969 21.2654 16.4703 21.167C15.7156 20.9889 15.3031 20.5764 15.125 19.8217C15.0266 19.3951 15.0266 16.6107 15.125 16.1842C15.3031 15.4389 15.7156 15.017 16.4516 14.8436C16.85 14.7451 19.7 14.7451 20.1078 14.8389Z" fill="#052D23"/>
</svg>
