<svg width="19" height="32" viewBox="0 0 19 32" fill="none" xmlns="http://www.w3.org/2000/svg">
<path d="M18.1805 15.9393C18.1805 16.3059 18.1232 16.6497 18.0086 16.9705C17.894 17.2913 17.6992 17.5893 17.4242 17.8643L4.77422 30.5143C4.27005 31.0184 3.62839 31.2705 2.84922 31.2705C2.07005 31.2705 1.42839 31.0184 0.924219 30.5143C0.420052 30.0101 0.167969 29.3684 0.167969 28.5893C0.167969 27.8101 0.420052 27.1684 0.924219 26.6643L11.6492 15.9393L0.924218 5.21426C0.420051 4.71009 0.167968 4.06842 0.167968 3.28926C0.167967 2.51009 0.420051 1.86842 0.924217 1.36426C1.42838 0.86009 2.07005 0.608007 2.84922 0.608007C3.62838 0.608007 4.27005 0.86009 4.77422 1.36426L17.4242 14.0143C17.6992 14.2893 17.894 14.5872 18.0086 14.908C18.1232 15.2288 18.1805 15.5726 18.1805 15.9393Z" fill="white" fill-opacity="0.5"/>
</svg>
