<svg width="47" height="47" viewBox="0 0 47 47" fill="none" xmlns="http://www.w3.org/2000/svg">
<rect x="0.725586" y="1.21484" width="45" height="45" rx="5.5" fill="#052D23"/>
<rect x="0.725586" y="1.21484" width="45" height="45" rx="5.5" stroke="#052D23"/>
<path d="M32.5946 28.373C31.7391 27.4941 29.3075 25.8477 27.7137 25.8477C27.3446 25.8477 27.0223 25.9297 26.7587 26.0996C25.9794 26.5977 25.3583 26.9844 25.0594 26.9844C24.8954 26.9844 24.7196 26.8379 24.3329 26.5039L24.2684 26.4453C23.1962 25.5137 22.9676 25.2734 22.5516 24.8398L22.4462 24.7285C22.37 24.6523 22.3055 24.582 22.2411 24.5176C21.8778 24.1426 21.6141 23.873 20.6825 22.8184L20.6415 22.7715C20.1962 22.2676 19.9032 21.9395 19.8856 21.6992C19.868 21.4648 20.0731 21.084 20.5946 20.375C21.2274 19.5195 21.2508 18.4648 20.6708 17.2402C20.2079 16.2734 19.452 15.3477 18.784 14.5332L18.7255 14.4629C18.1512 13.7598 17.4833 13.4082 16.7391 13.4082C15.913 13.4082 15.2274 13.8535 14.8641 14.0879C14.8348 14.1055 14.8055 14.1289 14.7762 14.1465C13.9618 14.6621 13.37 15.3711 13.1473 16.0918C12.8133 17.1758 12.5907 18.582 14.1903 21.5059C15.5731 24.0371 16.827 25.7363 18.8192 27.7812C20.6942 29.7031 21.5262 30.3242 23.3895 31.6719C25.4637 33.1719 27.4559 34.0332 28.8505 34.0332C30.1454 34.0332 31.1649 34.0332 32.618 32.2812C34.1415 30.4414 33.5087 29.3164 32.5946 28.373ZM31.9208 31.6484C30.7489 33.0664 30.0751 33.0664 28.8563 33.0664C27.6669 33.0664 25.8212 32.2461 23.9227 30.8809C22.1063 29.5684 21.2977 28.9648 19.4755 27.0957C17.5477 25.1211 16.3348 23.4746 14.9989 21.0313C13.5868 18.4473 13.745 17.3164 14.0321 16.3848C14.1844 15.8867 14.6415 15.3535 15.2626 14.9668C15.2919 14.9492 15.3212 14.9258 15.3563 14.9082C15.6669 14.709 16.1825 14.375 16.745 14.375C17.2137 14.375 17.6298 14.6094 18.0282 15.0957L18.0868 15.166C19.5809 16.9941 20.7469 18.6113 19.868 19.8066C19.2469 20.6445 18.9188 21.2129 18.9715 21.7988C19.0184 22.3672 19.3993 22.7949 19.9735 23.4395L20.0145 23.4863C20.9579 24.5527 21.2274 24.834 21.6024 25.2148C21.6669 25.2793 21.7313 25.3496 21.8075 25.4258L21.913 25.5371C22.3465 25.9883 22.5868 26.2344 23.6883 27.2012L23.7528 27.2598C24.2215 27.6699 24.5673 27.9688 25.0712 27.9688C25.5926 27.9688 26.1669 27.6406 27.2567 26.9434C27.368 26.873 27.5262 26.832 27.7255 26.832C28.9969 26.832 31.1883 28.2852 31.9559 29.0762C32.659 29.791 33.0106 30.3301 31.9208 31.6484Z" fill="#BFD8BD"/>
</svg>
