<svg width="30" height="30" viewBox="0 0 30 30" fill="none" xmlns="http://www.w3.org/2000/svg">
<g clip-path="url(#clip0_211_78)">
<path d="M15 0C12.0333 0 9.13319 0.879735 6.66645 2.52796C4.19972 4.17618 2.27713 6.51886 1.14181 9.25975C0.00649929 12.0006 -0.290551 15.0166 0.288228 17.9264C0.867006 20.8361 2.29562 23.5088 4.3934 25.6066C6.49119 27.7044 9.16394 29.133 12.0737 29.7118C14.9834 30.2906 17.9994 29.9935 20.7403 28.8582C23.4812 27.7229 25.8238 25.8003 27.4721 23.3336C29.1203 20.8668 30 17.9667 30 15C29.9957 11.0231 28.4139 7.2103 25.6018 4.3982C22.7897 1.58609 18.9769 0.00434362 15 0ZM15 27.5C12.5277 27.5 10.111 26.7669 8.05538 25.3934C5.99976 24.0199 4.39761 22.0676 3.45151 19.7835C2.50542 17.4995 2.25788 14.9861 2.74019 12.5614C3.22251 10.1366 4.41302 7.90932 6.16117 6.16117C7.90933 4.41301 10.1366 3.2225 12.5614 2.74018C14.9861 2.25787 17.4995 2.50541 19.7836 3.45151C22.0676 4.3976 24.0199 5.99976 25.3934 8.05537C26.7669 10.111 27.5 12.5277 27.5 15C27.4963 18.3141 26.1781 21.4913 23.8347 23.8347C21.4913 26.1781 18.3141 27.4963 15 27.5Z" fill="white"/>
<path d="M19.9678 13.3596L14.3213 9.41818C14.0214 9.20904 13.6699 9.0861 13.3051 9.0627C12.9402 9.0393 12.5759 9.11634 12.2518 9.28546C11.9276 9.45457 11.6561 9.7093 11.4665 10.0219C11.277 10.3346 11.1768 10.6932 11.1768 11.0588V18.9416C11.1765 19.3073 11.2765 19.6661 11.466 19.9789C11.6555 20.2918 11.9271 20.5466 12.2514 20.7158C12.5756 20.8849 12.94 20.9619 13.305 20.9384C13.67 20.9148 14.0215 20.7916 14.3213 20.5822L19.9678 16.6408V16.6398C20.2319 16.4555 20.4476 16.2101 20.5965 15.9246C20.7455 15.639 20.8232 15.3217 20.8232 14.9996C20.8232 14.6776 20.7455 14.3603 20.5965 14.0747C20.4476 13.7892 20.2319 13.5439 19.9678 13.3596Z" fill="white"/>
</g>
<defs>
<clipPath id="clip0_211_78">
<rect width="30" height="30" fill="white"/>
</clipPath>
</defs>
</svg>
