<svg width="23" height="22" viewBox="0 0 23 22" fill="none" xmlns="http://www.w3.org/2000/svg">
<path d="M6.71524 3.2998C6.52204 3.2998 6.34302 3.40117 6.24362 3.56683L2.94362 9.06683C2.82326 9.26743 2.84296 9.5222 2.99271 9.7019L11.2427 19.6019C11.3472 19.7273 11.502 19.7998 11.6652 19.7998C11.8285 19.7998 11.9832 19.7273 12.0877 19.6019L20.3377 9.7019C20.4876 9.5222 20.5073 9.26743 20.3869 9.06683L17.0869 3.56683C16.9875 3.40117 16.8084 3.2998 16.6152 3.2998H6.71524ZM4.38665 8.7998L7.02665 4.3998H9.20293L7.44293 8.7998H4.38665ZM7.43907 9.89981L9.93243 16.3113L4.58951 9.89981H7.43907ZM11.6652 17.7321L8.61932 9.89981H14.7111L11.6652 17.7321ZM8.62767 8.7998L10.3877 4.3998H12.9428L14.7028 8.7998H8.62767ZM15.8876 8.7998L14.1276 4.3998H16.3038L18.9438 8.7998H15.8876ZM15.8914 9.89981H18.741L13.3981 16.3114L15.8914 9.89981Z" fill="#052D23"/>
</svg>
