<svg width="19" height="32" viewBox="0 0 19 32" fill="none" xmlns="http://www.w3.org/2000/svg">
<path d="M0.81953 15.9406C0.81953 15.574 0.876823 15.2302 0.991405 14.9094C1.10599 14.5885 1.30078 14.2906 1.57578 14.0156L14.2258 1.36562C14.7299 0.861458 15.3716 0.609375 16.1508 0.609375C16.9299 0.609375 17.5716 0.861458 18.0758 1.36562C18.5799 1.86979 18.832 2.51146 18.832 3.29063C18.832 4.06979 18.5799 4.71146 18.0758 5.21563L7.35078 15.9406L18.0758 26.6656C18.5799 27.1698 18.832 27.8115 18.832 28.5906C18.832 29.3698 18.5799 30.0115 18.0758 30.5156C17.5716 31.0198 16.9299 31.2719 16.1508 31.2719C15.3716 31.2719 14.7299 31.0198 14.2258 30.5156L1.57578 17.8656C1.30078 17.5906 1.10599 17.2927 0.991405 16.9719C0.876823 16.651 0.81953 16.3073 0.81953 15.9406Z" fill="white" fill-opacity="0.5"/>
</svg>
