<svg width="61" height="43" viewBox="0 0 61 43" fill="none" xmlns="http://www.w3.org/2000/svg">
<g clip-path="url(#clip0_90_2365)">
<path d="M14.88 42.9646C11.0756 42.9646 7.65167 41.4429 4.60819 38.3994C1.56471 35.2472 0.0429688 30.6277 0.0429688 24.5407C0.0429688 17.5842 1.8908 11.932 5.58645 7.58419C9.3908 3.12767 14.7713 0.899414 21.7278 0.899414C24.2278 0.899414 26.1843 1.06245 27.5973 1.38853V8.88853C26.0756 8.67114 24.1191 8.56245 21.7278 8.56245C18.0321 8.56245 15.043 9.81245 12.7604 12.3124C10.5865 14.4864 9.33645 17.3668 9.01036 20.9537C10.4234 19.2146 12.706 18.345 15.8582 18.345C19.1191 18.345 21.8908 19.4864 24.1734 21.769C26.456 23.9429 27.5973 26.8233 27.5973 30.4103C27.5973 34.1059 26.4017 37.1494 24.0104 39.5407C21.6191 41.8233 18.5756 42.9646 14.88 42.9646ZM47.3256 42.9646C43.5213 42.9646 40.0973 41.4429 37.0539 38.3994C34.0104 35.2472 32.4886 30.6277 32.4886 24.5407C32.4886 17.5842 34.3365 11.932 38.0321 7.58419C41.8365 3.12767 47.2169 0.899414 54.1734 0.899414C56.6734 0.899414 58.63 1.06245 60.043 1.38853V8.88853C58.5213 8.67114 56.5647 8.56245 54.1734 8.56245C50.4778 8.56245 47.4886 9.81245 45.206 12.3124C43.0321 14.4864 41.7821 17.3668 41.456 20.9537C42.8691 19.2146 45.1517 18.345 48.3039 18.345C51.5647 18.345 54.3365 19.4864 56.6191 21.769C58.9017 23.9429 60.043 26.8233 60.043 30.4103C60.043 34.1059 58.8473 37.1494 56.456 39.5407C54.0647 41.8233 51.0213 42.9646 47.3256 42.9646Z" fill="#052D23"/>
</g>
<defs>
<clipPath id="clip0_90_2365">
<rect width="60" height="43" fill="white" transform="translate(0.0429688)"/>
</clipPath>
</defs>
</svg>
