<svg width="15" height="22" viewBox="0 0 15 22" fill="none" xmlns="http://www.w3.org/2000/svg">
<g clip-path="url(#clip0_164_1157)">
<path d="M9.23827 19.701C9.00844 19.701 8.81169 19.5259 8.78943 19.2919C8.76596 19.044 8.94827 18.8238 9.19676 18.8003L13.8416 18.3599V0.960864C12.0577 0.958458 9.90491 0.945823 7.76418 0.931383C5.47122 0.917544 3.19269 0.902502 1.39852 0.902502C1.14943 0.902502 0.947266 0.700342 0.947266 0.451251C0.947266 0.202161 1.14943 0 1.39852 0C3.1939 0 5.47482 0.0138384 7.77079 0.0288801C10.092 0.0433201 12.4289 0.0583618 14.2929 0.0583618C14.542 0.0583618 14.7441 0.261124 14.7441 0.509613V18.7708C14.7441 19.0037 14.5672 19.198 14.335 19.2203L9.28219 19.7004C9.26715 19.7004 9.25271 19.701 9.23827 19.701Z" fill="#052D23"/>
<path d="M8.96411 21.9993C8.9238 21.9993 8.8829 21.9932 8.84379 21.983L0.667122 19.7141C0.47158 19.6594 0.336193 19.4813 0.336193 19.2785L0.335 15.4044C0.333195 10.9839 0.331385 6.66575 0.352443 2.34456C0.35485 1.87045 0.468564 1.41799 0.580474 0.979379C0.627404 0.79226 0.674335 0.606344 0.712842 0.419225C0.738714 0.288663 0.821744 0.176151 0.938467 0.111773C1.05459 0.0491995 1.19357 0.0383695 1.31871 0.0871046C2.70556 0.626199 3.97809 1.08166 5.2085 1.52389C6.44793 1.96792 7.72829 2.42759 9.12838 2.9715C9.30226 3.03829 9.41658 3.20615 9.41658 3.39147V21.5468C9.41658 21.687 9.351 21.8206 9.23849 21.906C9.15847 21.9674 9.06158 21.9993 8.96411 21.9993ZM1.2393 18.9362L8.51347 20.9542V3.70193C7.23613 3.21036 6.05205 2.78559 4.90407 2.37405C3.81324 1.98296 2.68812 1.57924 1.47817 1.11596C1.47034 1.14484 1.46433 1.17312 1.45711 1.20139C1.35482 1.60451 1.25855 1.98477 1.25674 2.34878C1.23569 6.66815 1.2375 10.9851 1.2393 15.4032V18.9362Z" fill="#052D23"/>
</g>
<defs>
<clipPath id="clip0_164_1157">
<rect width="14.41" height="22" fill="white" transform="translate(0.333984)"/>
</clipPath>
</defs>
</svg>
