<svg width="47" height="47" viewBox="0 0 47 47" fill="none" xmlns="http://www.w3.org/2000/svg">
<rect x="1.11914" y="1.21484" width="45" height="45" rx="5.5" fill="#052D23"/>
<rect x="1.11914" y="1.21484" width="45" height="45" rx="5.5" stroke="#052D23"/>
<path d="M23.6191 10.5898C21.3579 10.5886 19.1348 11.1719 17.1655 12.2831C15.1962 13.3943 13.5476 14.9957 12.3796 16.9319C11.2117 18.8681 10.5641 21.0734 10.4996 23.3336C10.4352 25.5939 10.9562 27.8325 12.012 29.832L10.4941 35.9023L15.4001 33.9402C17.0354 35.2561 18.9624 36.1606 21.0195 36.5779C23.0766 36.9952 25.2038 36.913 27.2226 36.3382C29.2413 35.7634 31.0928 34.7129 32.6217 33.2747C34.1505 31.8365 35.3121 30.0526 36.009 28.0726C36.706 26.0927 36.9178 23.9745 36.6269 21.8958C36.336 19.817 35.5508 17.8384 34.3371 16.1258C33.1234 14.4133 31.5167 13.0168 29.6518 12.0535C27.7869 11.0903 25.7181 10.5883 23.6191 10.5898Z" stroke="#BFD8BD" stroke-linejoin="round"/>
<path d="M24.9925 26.3197L26.3181 24.994C26.6703 24.6437 27.1469 24.447 27.6437 24.447C28.1405 24.447 28.6171 24.6437 28.9694 24.994L30.295 26.3197C30.6454 26.6719 30.842 27.1485 30.842 27.6453C30.842 28.1421 30.6454 28.6187 30.295 28.9709L28.9694 30.2975C28.9694 30.2975 25.6553 33.6115 19.6881 27.6453C13.7209 21.679 17.0359 18.364 17.0359 18.364L18.3625 17.0375C18.715 16.6876 19.1915 16.4912 19.6881 16.4912C20.1848 16.4912 20.6613 16.6876 21.0137 17.0375L22.3394 18.364C22.6897 18.7163 22.8864 19.1929 22.8864 19.6897C22.8864 20.1865 22.6897 20.6631 22.3394 21.0153L21.0137 22.3409L24.9925 26.3197Z" stroke="#BFD8BD" stroke-linejoin="round"/>
</svg>
