<svg width="90" height="57" viewBox="0 0 90 57" fill="none" xmlns="http://www.w3.org/2000/svg">
<path d="M17.0846 11.2622H9.46827C1.85206 12.5136 -7.35107 31.9098 9.46833 40.0438H17.0847V33.1612H12.6418C9.15099 32.8484 4.39076 21.586 12.6418 18.1448H17.0846V11.2622Z" fill="#00652E"/>
<path d="M18.3535 21.8989H25.9699V40.0438H18.3536L18.3535 21.8989Z" fill="#00652E"/>
<path d="M27.875 11.2622V18.1448H36.7608C41.2036 19.0833 45.5196 30.4082 34.8567 33.1612V21.8989H27.875V40.0438H39.9342C48.82 39.7309 57.198 18.2699 39.9342 11.2622H27.875Z" fill="#00652E"/>
<path d="M51.3574 11.2622V18.1448H61.1952C62.782 18.1448 64.0514 20.9603 61.1952 21.8989H51.3574V29.4071H61.1952C62.4646 30.0328 63.734 31.9098 61.1952 33.1612H51.3574V40.0438H65.0034C68.4942 40.0438 73.9526 30.721 66.5901 25.9658C70.081 23.7759 73.1275 14.5158 65.0034 11.2622H51.3574Z" fill="#00652E"/>
<path d="M71.668 11.2622H79.2843V40.0438H71.668V11.2622Z" fill="#00652E"/>
<path d="M18.3535 11.2622V18.1448H25.9699V11.2622H18.3535Z" fill="#EC2028"/>
<path d="M68.4961 9.38547H81.8247C79.6033 7.19557 75.1604 2.87832 75.1604 3.12859C75.1604 3.37887 70.7175 7.40411 68.4961 9.38547Z" fill="#EC2028"/>
<path d="M1.53516 47.468V46.9152H4.48145V47.468H3.34008V50.5556H2.67653V47.468H1.53516ZM5.67331 48.9558V50.5556H5.02058V46.9152H5.65888V48.2892H5.69134C5.75625 48.1352 5.85662 48.0137 5.99246 47.9249C6.1295 47.8348 6.3038 47.7897 6.51538 47.7897C6.70769 47.7897 6.87538 47.8295 7.01844 47.9089C7.1615 47.9883 7.27207 48.1044 7.3502 48.2572C7.42953 48.4101 7.4692 48.5967 7.4692 48.8172V50.5556H6.81648V48.9167C6.81648 48.733 6.76837 48.5902 6.67221 48.4883C6.57726 48.3852 6.44385 48.3337 6.27194 48.3337C6.15654 48.3337 6.05316 48.3585 5.9618 48.4083C5.87165 48.4569 5.80073 48.5274 5.74904 48.6198C5.69855 48.7123 5.67331 48.8243 5.67331 48.9558ZM9.36066 50.6089C9.08298 50.6089 8.84319 50.552 8.64123 50.4383C8.44048 50.3233 8.28599 50.1609 8.17784 49.9512C8.06963 49.7403 8.01555 49.492 8.01555 49.2065C8.01555 48.9256 8.06963 48.6791 8.17784 48.467C8.2872 48.2537 8.43991 48.0878 8.63584 47.9693C8.83177 47.8496 9.06197 47.7897 9.32645 47.7897C9.49712 47.7897 9.65821 47.817 9.80965 47.8715C9.96229 47.9249 10.097 48.0078 10.2136 48.1204C10.3314 48.233 10.4239 48.3763 10.4912 48.5506C10.5585 48.7236 10.5922 48.9297 10.5922 49.1691V49.3664H8.32211V48.9327H9.96654C9.96534 48.8095 9.9383 48.6998 9.88537 48.6039C9.8325 48.5067 9.75855 48.4302 9.6636 48.3746C9.56986 48.3189 9.46044 48.291 9.33547 48.291C9.20199 48.291 9.08482 48.323 8.98384 48.387C8.88286 48.4498 8.8041 48.5327 8.74761 48.6358C8.69233 48.7378 8.66408 48.8498 8.66288 48.9718V49.3504C8.66288 49.5092 8.69233 49.6455 8.75123 49.7593C8.81013 49.8718 8.89245 49.9584 8.99825 50.0187C9.10405 50.078 9.22782 50.1076 9.36968 50.1076C9.46469 50.1076 9.55063 50.0946 9.62755 50.0685C9.70448 50.0413 9.77118 50.0016 9.82767 49.9494C9.88416 49.8973 9.92688 49.8327 9.95569 49.7557L10.5652 49.8232C10.5267 49.982 10.4534 50.1207 10.3452 50.2392C10.2382 50.3565 10.1012 50.4478 9.93405 50.5129C9.767 50.5769 9.57583 50.6089 9.36066 50.6089ZM13.6922 50.5556V46.9152H15.1059C15.3727 46.9152 15.5945 46.9567 15.7712 47.0397C15.9491 47.1214 16.082 47.2334 16.1697 47.3756C16.2587 47.5178 16.3031 47.679 16.3031 47.8591C16.3031 48.0072 16.2743 48.134 16.2166 48.2395C16.1589 48.3438 16.0813 48.4285 15.984 48.4936C15.8866 48.5588 15.7778 48.6056 15.6576 48.6341V48.6696C15.7886 48.6768 15.9142 48.7164 16.0344 48.7887C16.1559 48.8598 16.2551 48.9606 16.332 49.0909C16.4089 49.2212 16.4474 49.3788 16.4474 49.5637C16.4474 49.7521 16.4011 49.9216 16.3086 50.0721C16.216 50.2214 16.0765 50.3393 15.8902 50.4258C15.7039 50.5123 15.4695 50.5556 15.187 50.5556H13.6922ZM14.3612 50.0045H15.0806C15.3234 50.0045 15.4983 49.9589 15.6053 49.8677C15.7135 49.7752 15.7676 49.6567 15.7676 49.5122C15.7676 49.4043 15.7406 49.3071 15.6864 49.2207C15.6324 49.1329 15.5554 49.0642 15.4557 49.0144C15.3559 48.9635 15.2369 48.938 15.0986 48.938H14.3612V50.0045ZM14.3612 48.4634H15.0229C15.1383 48.4634 15.2423 48.4427 15.3349 48.4012C15.4274 48.3585 15.5001 48.2987 15.553 48.2217C15.6071 48.1435 15.6342 48.0511 15.6342 47.9444C15.6342 47.8034 15.5837 47.6872 15.4827 47.596C15.3829 47.5048 15.2345 47.4591 15.0373 47.4591H14.3612V48.4634ZM18.7657 49.4073V47.8253H19.4184V50.5556H18.7856V50.0703H18.7567C18.6942 50.2231 18.5914 50.3482 18.4484 50.4454C18.3065 50.5426 18.1317 50.5911 17.9237 50.5911C17.7422 50.5911 17.5817 50.5514 17.4423 50.472C17.304 50.3914 17.1958 50.2747 17.1177 50.1218C17.0395 49.9678 17.0005 49.7818 17.0005 49.5637V47.8253H17.6532V49.4642C17.6532 49.6372 17.7013 49.7747 17.7974 49.8766C17.8937 49.9785 18.0198 50.0294 18.1761 50.0294C18.2722 50.0294 18.3654 50.0063 18.4556 49.9601C18.5457 49.9139 18.6197 49.8452 18.6774 49.7539C18.7363 49.6615 18.7657 49.546 18.7657 49.4073ZM20.0896 50.5556V47.8253H20.7424V50.5556H20.0896ZM20.4178 47.4378C20.3145 47.4378 20.2255 47.4041 20.151 47.3365C20.0764 47.2678 20.0392 47.1854 20.0392 47.0894C20.0392 46.9922 20.0764 46.9099 20.151 46.8423C20.2255 46.7736 20.3145 46.7393 20.4178 46.7393C20.5224 46.7393 20.6114 46.7736 20.6847 46.8423C20.7592 46.9099 20.7965 46.9922 20.7965 47.0894C20.7965 47.1854 20.7592 47.2678 20.6847 47.3365C20.6114 47.4041 20.5224 47.4378 20.4178 47.4378ZM22.0663 46.9152V50.5556H21.4136V46.9152H22.0663ZM23.7653 50.6036C23.5477 50.6036 23.353 50.5484 23.1811 50.4383C23.0092 50.3281 22.8734 50.1681 22.7736 49.9584C22.6738 49.7486 22.6239 49.4938 22.6239 49.194C22.6239 48.8906 22.6744 48.6346 22.7754 48.4261C22.8776 48.2164 23.0152 48.0581 23.1883 47.9515C23.3614 47.8437 23.5544 47.7897 23.7671 47.7897C23.9294 47.7897 24.0628 47.817 24.1674 47.8715C24.272 47.9249 24.3549 47.9894 24.4162 48.0653C24.4776 48.1399 24.525 48.2104 24.5587 48.2768H24.5858V46.9152H25.2403V50.5556H24.5983V50.1254H24.5587C24.525 50.1918 24.4763 50.2622 24.4126 50.337C24.3489 50.4104 24.2648 50.4732 24.1602 50.5253C24.0556 50.5775 23.924 50.6036 23.7653 50.6036ZM23.9475 50.0757C24.0857 50.0757 24.2035 50.0389 24.3009 49.9654C24.3982 49.8908 24.4722 49.7871 24.5226 49.6544C24.5731 49.5216 24.5983 49.367 24.5983 49.1904C24.5983 49.0139 24.5731 48.8604 24.5226 48.7301C24.4734 48.5997 24.4 48.4984 24.3026 48.4261C24.2065 48.3538 24.0881 48.3177 23.9475 48.3177C23.802 48.3177 23.6806 48.355 23.5832 48.4297C23.4858 48.5043 23.4125 48.6074 23.3632 48.739C23.314 48.8705 23.2893 49.0209 23.2893 49.1904C23.2893 49.3611 23.314 49.5134 23.3632 49.6473C23.4137 49.78 23.4876 49.8848 23.585 49.9619C23.6836 50.0377 23.8044 50.0757 23.9475 50.0757ZM27.1619 50.6089C26.8843 50.6089 26.6445 50.552 26.4425 50.4383C26.2418 50.3233 26.0873 50.1609 25.9791 49.9512C25.8709 49.7403 25.8168 49.492 25.8168 49.2065C25.8168 48.9256 25.8709 48.6791 25.9791 48.467C26.0885 48.2537 26.2411 48.0878 26.4371 47.9693C26.633 47.8496 26.8633 47.7897 27.1277 47.7897C27.2984 47.7897 27.4595 47.817 27.6109 47.8715C27.7636 47.9249 27.8982 48.0078 28.0148 48.1204C28.1326 48.233 28.2252 48.3763 28.2925 48.5506C28.3598 48.7236 28.3934 48.9297 28.3934 49.1691V49.3664H26.1233V48.9327H27.7678C27.7666 48.8095 27.7395 48.6998 27.6866 48.6039C27.6338 48.5067 27.5598 48.4302 27.4649 48.3746C27.3711 48.3189 27.2617 48.291 27.1367 48.291C27.0033 48.291 26.886 48.323 26.7851 48.387C26.6841 48.4498 26.6054 48.5327 26.5489 48.6358C26.4936 48.7378 26.4654 48.8498 26.4642 48.9718V49.3504C26.4642 49.5092 26.4936 49.6455 26.5525 49.7593C26.6114 49.8718 26.6937 49.9584 26.7995 50.0187C26.9053 50.078 27.0291 50.1076 27.171 50.1076C27.2659 50.1076 27.3518 50.0946 27.4288 50.0685C27.5058 50.0413 27.5725 50.0016 27.6289 49.9494C27.6854 49.8973 27.7281 49.8327 27.757 49.7557L28.3664 49.8232C28.3279 49.982 28.2546 50.1207 28.1464 50.2392C28.0395 50.3565 27.9024 50.4478 27.7353 50.5129C27.5683 50.5769 27.3771 50.6089 27.1619 50.6089ZM28.9457 50.5556V47.8253H29.5785V48.2803H29.6074C29.6579 48.1227 29.7445 48.0013 29.8671 47.9159C29.9909 47.8295 30.1321 47.7862 30.2908 47.7862C30.3269 47.7862 30.3672 47.788 30.4116 47.7915C30.4573 47.7939 30.4952 47.798 30.5252 47.804V48.3959C30.4975 48.3864 30.4537 48.3781 30.3936 48.371C30.3347 48.3627 30.2776 48.3585 30.2223 48.3585C30.1033 48.3585 29.9963 48.3841 29.9014 48.435C29.8075 48.4847 29.7336 48.5541 29.6795 48.643C29.6255 48.7318 29.5984 48.8344 29.5984 48.9505V50.5556H28.9457ZM33.0243 50.5556L31.9821 46.9152H32.7016L33.3669 49.5904H33.4012L34.1116 46.9152H34.7661L35.4784 49.5921H35.5108L36.1762 46.9152H36.8956L35.8534 50.5556H35.1935L34.4542 48.0013H34.4253L33.6843 50.5556H33.0243ZM37.3306 50.5556V47.8253H37.9833V50.5556H37.3306ZM37.6588 47.4378C37.5554 47.4378 37.4664 47.4041 37.3919 47.3365C37.3174 47.2678 37.2801 47.1854 37.2801 47.0894C37.2801 46.9922 37.3174 46.9099 37.3919 46.8423C37.4664 46.7736 37.5554 46.7393 37.6588 46.7393C37.7633 46.7393 37.8523 46.7736 37.9256 46.8423C38.0001 46.9099 38.0374 46.9922 38.0374 47.0894C38.0374 47.1854 38.0001 47.2678 37.9256 47.3365C37.8523 47.4041 37.7633 47.4378 37.6588 47.4378ZM40.0375 47.8253V48.323H38.4454V47.8253H40.0375ZM38.8385 47.1712H39.4912V49.7344C39.4912 49.8209 39.5044 49.8872 39.5308 49.9334C39.5585 49.9785 39.5946 50.0093 39.6391 50.0259C39.6836 50.0424 39.7328 50.0508 39.7869 50.0508C39.8278 50.0508 39.865 50.0478 39.8987 50.0419C39.9336 50.0359 39.96 50.0306 39.9781 50.0259L40.088 50.5289C40.0531 50.5407 40.0032 50.5538 39.9384 50.568C39.8747 50.5822 39.7965 50.5905 39.704 50.5929C39.5405 50.5976 39.3932 50.5733 39.2622 50.52C39.1312 50.4655 39.0272 50.3814 38.9503 50.2676C38.8745 50.1539 38.8373 50.0117 38.8385 49.841V47.1712ZM41.2957 48.9558V50.5556H40.643V46.9152H41.2812V48.2892H41.3137C41.3786 48.1352 41.479 48.0137 41.6148 47.9249C41.7518 47.8348 41.9261 47.7897 42.1377 47.7897C42.33 47.7897 42.4977 47.8295 42.6408 47.9089C42.7839 47.9883 42.8944 48.1044 42.9726 48.2572C43.0519 48.4101 43.0916 48.5967 43.0916 48.8172V50.5556H42.4388V48.9167C42.4388 48.733 42.3907 48.5902 42.2946 48.4883C42.1996 48.3852 42.0662 48.3337 41.8943 48.3337C41.7789 48.3337 41.6756 48.3585 41.5842 48.4083C41.494 48.4569 41.4231 48.5274 41.3714 48.6198C41.3209 48.7123 41.2957 48.8243 41.2957 48.9558ZM45.0452 50.5556V46.9152H47.447V47.468H45.7142V48.4563H47.3226V49.0091H45.7142V50.0028H47.4614V50.5556H45.0452ZM48.6344 47.8253L49.1933 48.8332L49.7613 47.8253H50.4519L49.6171 49.1904L50.4663 50.5556H49.7793L49.1933 49.5726L48.6127 50.5556H47.9203L48.7642 49.1904L47.942 47.8253H48.6344ZM50.9568 51.5794V47.8253H51.5987V48.2768H51.6365C51.6702 48.2104 51.7177 48.1399 51.779 48.0653C51.8403 47.9894 51.9232 47.9249 52.0278 47.8715C52.1324 47.817 52.2658 47.7897 52.4281 47.7897C52.6421 47.7897 52.835 47.8437 53.0069 47.9515C53.18 48.0581 53.317 48.2164 53.418 48.4261C53.5202 48.6346 53.5713 48.8906 53.5713 49.194C53.5713 49.4938 53.5214 49.7486 53.4216 49.9584C53.3219 50.1681 53.186 50.3281 53.0141 50.4383C52.8422 50.5484 52.6475 50.6036 52.4299 50.6036C52.2712 50.6036 52.1396 50.5775 52.035 50.5253C51.9305 50.4732 51.8463 50.4104 51.7826 50.337C51.7201 50.2622 51.6714 50.1918 51.6365 50.1254H51.6095V51.5794H50.9568ZM51.5969 49.1904C51.5969 49.367 51.6221 49.5216 51.6726 49.6544C51.7243 49.7871 51.7982 49.8908 51.8944 49.9654C51.9917 50.0389 52.1095 50.0757 52.2478 50.0757C52.392 50.0757 52.5129 50.0377 52.6102 49.9619C52.7076 49.8848 52.7809 49.78 52.8302 49.6473C52.8807 49.5134 52.9059 49.3611 52.9059 49.1904C52.9059 49.0209 52.8813 48.8705 52.832 48.739C52.7827 48.6074 52.7094 48.5043 52.612 48.4297C52.5146 48.355 52.3932 48.3177 52.2478 48.3177C52.1084 48.3177 51.9899 48.3538 51.8926 48.4261C51.7952 48.4984 51.7213 48.5997 51.6708 48.7301C51.6215 48.8604 51.5969 49.0139 51.5969 49.1904ZM55.3564 50.6089C55.0787 50.6089 54.8388 50.552 54.6369 50.4383C54.4362 50.3233 54.2817 50.1609 54.1735 49.9512C54.0653 49.7403 54.0113 49.492 54.0113 49.2065C54.0113 48.9256 54.0653 48.6791 54.1735 48.467C54.2829 48.2537 54.4356 48.0878 54.6315 47.9693C54.8274 47.8496 55.0576 47.7897 55.3221 47.7897C55.4928 47.7897 55.6539 47.817 55.8054 47.8715C55.958 47.9249 56.0926 48.0078 56.2092 48.1204C56.327 48.233 56.4196 48.3763 56.4869 48.5506C56.5542 48.7236 56.5879 48.9297 56.5879 49.1691V49.3664H54.3178V48.9327H55.9622C55.961 48.8095 55.934 48.6998 55.8811 48.6039C55.8281 48.5067 55.7543 48.4302 55.6593 48.3746C55.5655 48.3189 55.4562 48.291 55.3311 48.291C55.1977 48.291 55.0805 48.323 54.9795 48.387C54.8785 48.4498 54.7998 48.5327 54.7433 48.6358C54.688 48.7378 54.6597 48.8498 54.6585 48.9718V49.3504C54.6585 49.5092 54.688 49.6455 54.7469 49.7593C54.8058 49.8718 54.8882 49.9584 54.994 50.0187C55.0997 50.078 55.2235 50.1076 55.3654 50.1076C55.4603 50.1076 55.5463 50.0946 55.6232 50.0685C55.7001 50.0413 55.7669 50.0016 55.8234 49.9494C55.8799 49.8973 55.9225 49.8327 55.9514 49.7557L56.5608 49.8232C56.5224 49.982 56.4491 50.1207 56.3409 50.2392C56.2339 50.3565 56.0968 50.4478 55.9298 50.5129C55.7626 50.5769 55.5715 50.6089 55.3564 50.6089ZM57.1401 50.5556V47.8253H57.773V48.2803H57.8019C57.8523 48.1227 57.9389 48.0013 58.0615 47.9159C58.1853 47.8295 58.3266 47.7862 58.4852 47.7862C58.5213 47.7862 58.5615 47.788 58.606 47.7915C58.6517 47.7939 58.6896 47.798 58.7196 47.804V48.3959C58.692 48.3864 58.6481 48.3781 58.588 48.371C58.5291 48.3627 58.472 48.3585 58.4167 48.3585C58.2977 48.3585 58.1907 48.3841 58.0957 48.435C58.002 48.4847 57.928 48.5541 57.874 48.643C57.8199 48.7318 57.7928 48.8344 57.7928 48.9505V50.5556H57.1401ZM60.685 47.8253V48.323H59.0929V47.8253H60.685ZM59.486 47.1712H60.1387V49.7344C60.1387 49.8209 60.1519 49.8872 60.1784 49.9334C60.206 49.9785 60.2421 50.0093 60.2865 50.0259C60.331 50.0424 60.3803 50.0508 60.4344 50.0508C60.4753 50.0508 60.5125 50.0478 60.5462 50.0419C60.581 50.0359 60.6075 50.0306 60.6255 50.0259L60.7355 50.5289C60.7007 50.5407 60.6508 50.5538 60.5858 50.568C60.5221 50.5822 60.444 50.5905 60.3514 50.5929C60.1879 50.5976 60.0407 50.5733 59.9097 50.52C59.7786 50.4655 59.6747 50.3814 59.5977 50.2676C59.522 50.1539 59.4848 50.0117 59.486 49.841V47.1712ZM61.2309 50.5556V47.8253H61.8837V50.5556H61.2309ZM61.5591 47.4378C61.4557 47.4378 61.3668 47.4041 61.2922 47.3365C61.2177 47.2678 61.1804 47.1854 61.1804 47.0894C61.1804 46.9922 61.2177 46.9099 61.2922 46.8423C61.3668 46.7736 61.4557 46.7393 61.5591 46.7393C61.6637 46.7393 61.7526 46.7736 61.826 46.8423C61.9005 46.9099 61.9377 46.9922 61.9377 47.0894C61.9377 47.1854 61.9005 47.2678 61.826 47.3365C61.7526 47.4041 61.6637 47.4378 61.5591 47.4378ZM64.7439 48.547L64.1485 48.6109C64.132 48.5517 64.1028 48.496 64.0603 48.4439C64.0197 48.3918 63.9645 48.3496 63.8946 48.3177C63.8248 48.2857 63.7398 48.2697 63.6382 48.2697C63.5024 48.2697 63.3885 48.2987 63.2959 48.3568C63.2046 48.4148 63.1595 48.4901 63.1607 48.5825C63.1595 48.6619 63.1889 48.7265 63.249 48.7762C63.3103 48.826 63.4113 48.8669 63.5519 48.8989L64.0241 48.9985C64.2862 49.0542 64.4811 49.1425 64.6087 49.2633C64.7375 49.3842 64.8023 49.5424 64.8035 49.7379C64.8023 49.9097 64.7508 50.0614 64.6499 50.193C64.5503 50.3233 64.4113 50.4252 64.2336 50.4987C64.0558 50.5721 63.8515 50.6089 63.6204 50.6089C63.2815 50.6089 63.0087 50.539 62.8019 50.3991C62.5951 50.2581 62.4719 50.062 62.4322 49.8108L63.0688 49.7504C63.0976 49.8736 63.1589 49.9666 63.2526 50.0294C63.3464 50.0922 63.4684 50.1237 63.6185 50.1237C63.774 50.1237 63.8984 50.0922 63.9917 50.0294C64.0869 49.9666 64.1345 49.889 64.1345 49.7965C64.1345 49.7183 64.1035 49.6538 64.0425 49.6028C63.9822 49.5518 63.8883 49.5127 63.7613 49.4855L63.2887 49.3877C63.0231 49.3332 62.8265 49.2414 62.6991 49.1122C62.5717 48.9818 62.5086 48.8172 62.5098 48.6181C62.5086 48.4498 62.5549 48.304 62.6486 48.1808C62.7435 48.0564 62.8752 47.9604 63.0435 47.8928C63.213 47.8241 63.4083 47.7897 63.6293 47.7897C63.9543 47.7897 64.2094 47.8579 64.396 47.9941C64.5833 48.1305 64.6994 48.3147 64.7439 48.547ZM66.568 50.6089C66.29 50.6089 66.0501 50.552 65.8482 50.4383C65.6477 50.3233 65.4928 50.1609 65.3849 49.9512C65.2764 49.7403 65.2224 49.492 65.2224 49.2065C65.2224 48.9256 65.2764 48.6791 65.3849 48.467C65.4941 48.2537 65.647 48.0878 65.8425 47.9693C66.0386 47.8496 66.269 47.7897 66.5337 47.7897C66.7044 47.7897 66.865 47.817 67.0167 47.8715C67.169 47.9249 67.3042 48.0078 67.4204 48.1204C67.5384 48.233 67.6311 48.3763 67.6984 48.5506C67.7657 48.7236 67.7993 48.9297 67.7993 49.1691V49.3664H65.529V48.9327H67.1735C67.1722 48.8095 67.1456 48.6998 67.0922 48.6039C67.0396 48.5067 66.9653 48.4302 66.8707 48.3746C66.7768 48.3189 66.6676 48.291 66.5426 48.291C66.4093 48.291 66.2919 48.323 66.191 48.387C66.09 48.4498 66.0113 48.5327 65.9549 48.6358C65.8996 48.7378 65.8711 48.8498 65.8698 48.9718V49.3504C65.8698 49.5092 65.8996 49.6455 65.958 49.7593C66.0171 49.8718 66.0996 49.9584 66.2056 50.0187C66.3109 50.078 66.4347 50.1076 66.5769 50.1076C66.6714 50.1076 66.7578 50.0946 66.8346 50.0685C66.9114 50.0413 66.978 50.0016 67.0345 49.9494C67.091 49.8973 67.1341 49.8327 67.1627 49.7557L67.772 49.8232C67.7339 49.982 67.6603 50.1207 67.5524 50.2392C67.4451 50.3565 67.308 50.4478 67.1411 50.5129C66.9742 50.5769 66.7831 50.6089 66.568 50.6089ZM74.0599 48.1435H73.3859C73.3662 48.0344 73.3313 47.9379 73.2793 47.8537C73.2279 47.7684 73.1631 47.6961 73.0863 47.6369C73.0095 47.5776 72.9219 47.5332 72.8229 47.5036C72.7258 47.4727 72.6205 47.4574 72.5075 47.4574C72.3069 47.4574 72.1292 47.5071 71.9737 47.6066C71.8188 47.705 71.6976 47.8496 71.6094 48.0404C71.5218 48.23 71.478 48.4616 71.478 48.7354C71.478 49.0139 71.5218 49.2485 71.6094 49.4393C71.6989 49.6289 71.8201 49.7723 71.9737 49.8694C72.1292 49.9654 72.3063 50.0134 72.5056 50.0134C72.6166 50.0134 72.7195 49.9992 72.8159 49.9707C72.913 49.9411 73.0006 49.8979 73.0774 49.841C73.1555 49.7841 73.2209 49.7142 73.2742 49.6312C73.3281 49.5483 73.3656 49.4535 73.3859 49.3469L74.0599 49.3504C74.0346 49.5234 73.98 49.6857 73.8962 49.8375C73.813 49.9891 73.7045 50.123 73.5693 50.2392C73.4348 50.3541 73.2774 50.4442 73.0971 50.5093C72.9169 50.5733 72.7169 50.6053 72.4967 50.6053C72.1724 50.6053 71.8823 50.5313 71.6278 50.3831C71.3726 50.235 71.1721 50.0211 71.0255 49.7415C70.8788 49.4618 70.8052 49.1264 70.8052 48.7354C70.8052 48.3431 70.8795 48.0078 71.0274 47.7293C71.1752 47.4497 71.3764 47.2357 71.6316 47.0876C71.8861 46.9395 72.1749 46.8655 72.4967 46.8655C72.7023 46.8655 72.8934 46.8939 73.0704 46.9507C73.2469 47.0076 73.4043 47.0912 73.5427 47.2014C73.681 47.3104 73.7946 47.4443 73.8835 47.6031C73.9736 47.7607 74.0326 47.9408 74.0599 48.1435ZM75.441 50.6107C75.2652 50.6107 75.1072 50.5798 74.9663 50.5182C74.8273 50.4555 74.7169 50.363 74.635 50.241C74.5544 50.1189 74.5137 49.9684 74.5137 49.7895C74.5137 49.6354 74.5429 49.508 74.6007 49.4073C74.6585 49.3066 74.7372 49.226 74.8368 49.1655C74.9365 49.1051 75.0488 49.0595 75.1738 49.0287C75.3001 48.9967 75.4309 48.9736 75.5654 48.9594C75.7273 48.9427 75.8593 48.928 75.9602 48.9149C76.0611 48.9007 76.1341 48.8794 76.1798 48.8509C76.2268 48.8213 76.2503 48.7757 76.2503 48.714V48.7034C76.2503 48.5695 76.2103 48.4658 76.1297 48.3923C76.0491 48.3189 75.9329 48.2821 75.7819 48.2821C75.6219 48.2821 75.495 48.3165 75.4011 48.3852C75.3084 48.454 75.2462 48.5351 75.2138 48.6288L74.6039 48.5434C74.6521 48.3775 74.7315 48.2388 74.8419 48.1275C74.953 48.0149 75.0881 47.9308 75.2481 47.8751C75.408 47.8182 75.5845 47.7897 75.7781 47.7897C75.9114 47.7897 76.044 47.8052 76.1767 47.836C76.3087 47.8668 76.4293 47.9177 76.5391 47.9888C76.6482 48.0588 76.7358 48.1541 76.8025 48.275C76.8697 48.3959 76.9034 48.547 76.9034 48.7283V50.5556H76.2757V50.1805H76.2541C76.2141 50.2564 76.1583 50.3274 76.0865 50.3938C76.0154 50.459 75.926 50.5117 75.8174 50.552C75.7108 50.5911 75.5851 50.6107 75.441 50.6107ZM75.6105 50.1379C75.7413 50.1379 75.8549 50.1124 75.9513 50.0614C76.0472 50.0093 76.1214 49.9405 76.1728 49.8552C76.2255 49.7699 76.2522 49.6769 76.2522 49.5762V49.2545C76.2319 49.271 76.197 49.2864 76.1475 49.3006C76.0999 49.3148 76.0453 49.3273 75.9856 49.338C75.9253 49.3486 75.8657 49.3581 75.8066 49.3664C75.7482 49.3747 75.6968 49.3818 75.6537 49.3877C75.5559 49.4008 75.469 49.4221 75.3922 49.4517C75.3154 49.4813 75.2544 49.5228 75.21 49.5762C75.1656 49.6283 75.1434 49.6958 75.1434 49.7788C75.1434 49.8973 75.1872 49.9868 75.2748 50.0472C75.363 50.1076 75.4747 50.1379 75.6105 50.1379ZM77.5597 50.5556V47.8253H78.1924V48.2803H78.221C78.2718 48.1227 78.3581 48.0013 78.4806 47.9159C78.605 47.8295 78.7459 47.7862 78.9046 47.7862C78.9408 47.7862 78.9807 47.788 79.0252 47.7915C79.0709 47.7939 79.109 47.798 79.1388 47.804V48.3959C79.1115 48.3864 79.0677 48.3781 79.0074 48.371C78.9484 48.3627 78.8913 48.3585 78.836 48.3585C78.7173 48.3585 78.6101 48.3841 78.5149 48.435C78.4216 48.4847 78.3473 48.5541 78.2934 48.643C78.2394 48.7318 78.2121 48.8344 78.2121 48.9505V50.5556H77.5597ZM80.6849 50.6089C80.4069 50.6089 80.167 50.552 79.9652 50.4383C79.7646 50.3233 79.6104 50.1609 79.5018 49.9512C79.3939 49.7403 79.3394 49.492 79.3394 49.2065C79.3394 48.9256 79.3939 48.6791 79.5018 48.467C79.611 48.2537 79.764 48.0878 79.9601 47.9693C80.1556 47.8496 80.386 47.7897 80.6506 47.7897C80.8214 47.7897 80.9819 47.817 81.1336 47.8715C81.2866 47.9249 81.4212 48.0078 81.5373 48.1204C81.6554 48.233 81.748 48.3763 81.8153 48.5506C81.8826 48.7236 81.9162 48.9297 81.9162 49.1691V49.3664H79.6459V48.9327H81.2904C81.2891 48.8095 81.2625 48.6998 81.2092 48.6039C81.1565 48.5067 81.0829 48.4302 80.9877 48.3746C80.8937 48.3189 80.7846 48.291 80.6595 48.291C80.5262 48.291 80.4088 48.323 80.3079 48.387C80.207 48.4498 80.1283 48.5327 80.0718 48.6358C80.0166 48.7378 79.988 48.8498 79.9867 48.9718V49.3504C79.9867 49.5092 80.0166 49.6455 80.075 49.7593C80.134 49.8718 80.2165 49.9584 80.3225 50.0187C80.4279 50.078 80.5516 50.1076 80.6938 50.1076C80.789 50.1076 80.8747 50.0946 80.9515 50.0685C81.0283 50.0413 81.0956 50.0016 81.152 49.9494C81.2085 49.8973 81.2511 49.8327 81.2796 49.7557L81.8889 49.8232C81.8508 49.982 81.7772 50.1207 81.6693 50.2392C81.5621 50.3565 81.425 50.4478 81.258 50.5129C81.0911 50.5769 80.9001 50.6089 80.6849 50.6089Z" fill="#00652E"/>
<path d="M82.4375 1.63129V1.24023H85.2073V1.63129H84.0458V4.88059H83.599V1.63129H82.4375ZM85.8972 1.24023H86.431L87.6864 4.26201H87.7296L88.9844 1.24023H89.5182V4.88059H89.0999V2.11477H89.0637L87.9099 4.88059H87.5056L86.3517 2.11477H86.3155V4.88059H85.8972V1.24023Z" fill="black"/>
<path d="M22.2139 56.2494H21.7676L22.9633 53.9741H23.4794L23.9099 56.2494H23.4637L23.1538 54.4408H23.1357L22.2139 56.2494ZM22.3784 55.3573H23.5955L23.5391 55.6883H22.322L22.3784 55.3573ZM24.7729 55.2496L24.6061 56.2494H24.197L24.4855 54.543H24.8766L24.827 54.833H24.8484C24.9025 54.7374 24.9784 54.6615 25.0761 54.6052C25.1737 54.5489 25.2875 54.5208 25.4175 54.5208C25.5355 54.5208 25.6347 54.546 25.715 54.5963C25.7954 54.646 25.8525 54.7189 25.8863 54.8151C25.9201 54.9107 25.9254 55.0266 25.9021 55.1629L25.7173 56.2494H25.3093L25.4818 55.2251C25.5012 55.1118 25.4866 55.0229 25.4378 54.9585C25.3897 54.8933 25.3123 54.8607 25.2057 54.8607C25.1343 54.8607 25.0685 54.8763 25.0084 54.9074C24.9483 54.9377 24.8976 54.9818 24.8563 55.0396C24.8157 55.0973 24.7879 55.1673 24.7729 55.2496ZM27.7362 53.9741L27.353 56.2494H26.935L27.3181 53.9741H27.7362ZM29.3351 54.6107C29.3381 54.5078 29.3061 54.4289 29.2393 54.3741C29.1732 54.3193 29.0781 54.2919 28.9541 54.2919C28.867 54.2919 28.79 54.3049 28.7231 54.3308C28.657 54.3559 28.6036 54.3912 28.5631 54.4363C28.5225 54.4808 28.4973 54.5315 28.4876 54.5885C28.4793 54.6352 28.4834 54.6759 28.5 54.7107C28.5165 54.7456 28.5417 54.7752 28.5755 54.7996C28.6101 54.824 28.6492 54.8444 28.6927 54.8607C28.737 54.877 28.7821 54.8907 28.8279 54.9018L29.0353 54.9552C29.1179 54.9751 29.1968 55.0022 29.272 55.0363C29.3471 55.0695 29.4121 55.1125 29.4669 55.1651C29.5225 55.2169 29.5631 55.2795 29.5886 55.3529C29.6141 55.4262 29.6183 55.5121 29.601 55.6106C29.5785 55.7439 29.524 55.8613 29.4376 55.9628C29.352 56.0635 29.2393 56.1424 29.0995 56.1994C28.9605 56.2557 28.7986 56.2838 28.6138 56.2838C28.435 56.2838 28.284 56.2564 28.1608 56.2017C28.0376 56.1461 27.9474 56.0657 27.8903 55.9606C27.8339 55.8554 27.8159 55.7276 27.8362 55.5773H28.2476C28.2393 55.6565 28.2525 55.7224 28.287 55.775C28.3223 55.8276 28.373 55.8669 28.4391 55.8928C28.5053 55.9187 28.5819 55.9317 28.669 55.9317C28.76 55.9317 28.8422 55.9183 28.9158 55.8917C28.9895 55.8643 29.0496 55.8265 29.0962 55.7784C29.1435 55.7294 29.1724 55.6725 29.1829 55.6073C29.1935 55.5488 29.1848 55.4999 29.157 55.4606C29.1292 55.4214 29.086 55.3888 29.0274 55.3629C28.9695 55.3362 28.9004 55.3125 28.82 55.2918L28.5699 55.2251C28.3888 55.1762 28.2513 55.1029 28.1574 55.0052C28.0642 54.9074 28.0311 54.777 28.0582 54.6141C28.0808 54.4793 28.1375 54.3619 28.2284 54.2619C28.3193 54.1612 28.4331 54.083 28.5699 54.0275C28.7066 53.9712 28.8561 53.9431 29.0184 53.9431C29.1822 53.9431 29.3208 53.9712 29.4342 54.0275C29.5485 54.0838 29.6318 54.1623 29.6844 54.263C29.7378 54.363 29.7554 54.4789 29.7374 54.6107H29.3351ZM32.1161 55.1384C32.0755 55.3799 31.9955 55.5858 31.876 55.7561C31.7573 55.9257 31.6124 56.0557 31.4411 56.1461C31.2705 56.2357 31.0868 56.2805 30.8899 56.2805C30.6834 56.2805 30.506 56.2331 30.3581 56.1383C30.2101 56.0427 30.1034 55.9061 30.038 55.7284C29.9734 55.5506 29.9621 55.3373 30.0042 55.0884C30.0447 54.8477 30.1244 54.6419 30.2431 54.4708C30.3618 54.2997 30.5072 54.169 30.6792 54.0786C30.8513 53.9882 31.0368 53.9431 31.2359 53.9431C31.4411 53.9431 31.6169 53.9909 31.7634 54.0864C31.9106 54.1812 32.0165 54.3178 32.0811 54.4963C32.1465 54.6748 32.1581 54.8888 32.1161 55.1384ZM31.7048 55.0884C31.7326 54.9203 31.7299 54.7785 31.6968 54.663C31.6645 54.5474 31.6071 54.4604 31.5245 54.4019C31.4418 54.3426 31.34 54.313 31.219 54.313C31.0883 54.313 30.9673 54.3452 30.8562 54.4097C30.7457 54.4734 30.6518 54.5667 30.5744 54.6896C30.4978 54.8126 30.4452 54.9622 30.4167 55.1384C30.3866 55.3073 30.3885 55.4491 30.4223 55.564C30.4561 55.6787 30.5147 55.7654 30.598 55.8239C30.6814 55.8817 30.7833 55.9106 30.9035 55.9106C31.0335 55.9106 31.1537 55.8787 31.2641 55.815C31.3745 55.7513 31.4681 55.6584 31.5447 55.5362C31.6221 55.414 31.6754 55.2648 31.7048 55.0884ZM35.3383 54.7419H34.9236C34.9236 54.6737 34.9123 54.6134 34.8898 54.5607C34.8672 54.5074 34.8357 54.4622 34.7951 54.4252C34.7546 54.3882 34.7064 54.3604 34.6508 54.3419C34.5952 54.3227 34.5337 54.313 34.466 54.313C34.3368 54.313 34.2166 54.3452 34.1054 54.4097C33.9942 54.4741 33.8999 54.5678 33.8226 54.6907C33.7452 54.8129 33.6914 54.9614 33.6614 55.1362C33.6336 55.3065 33.6362 55.4491 33.6693 55.564C33.7031 55.6787 33.7617 55.7654 33.8451 55.8239C33.9285 55.8817 34.0299 55.9106 34.1494 55.9106C34.2222 55.9106 34.2921 55.9016 34.359 55.8839C34.4258 55.8654 34.4875 55.8383 34.5438 55.8028C34.6009 55.7665 34.6508 55.7224 34.6937 55.6706C34.7373 55.6188 34.7711 55.5599 34.7951 55.4939H35.2155C35.1809 55.6021 35.1302 55.7039 35.0633 55.7995C34.9964 55.8943 34.9161 55.978 34.8221 56.0506C34.7283 56.1224 34.623 56.1787 34.5066 56.2194C34.3902 56.2602 34.2647 56.2805 34.1302 56.2805C33.9236 56.2805 33.7467 56.2331 33.5994 56.1383C33.4529 56.0427 33.3477 55.9061 33.2839 55.7284C33.22 55.5499 33.2087 55.3362 33.2501 55.0874C33.2914 54.8452 33.371 54.6389 33.489 54.4686C33.6077 54.2982 33.7523 54.1682 33.9228 54.0786C34.0942 53.9882 34.2786 53.9431 34.4762 53.9431C34.6069 53.9431 34.7256 53.9608 34.8323 53.9964C34.9398 54.032 35.0318 54.0841 35.1084 54.153C35.1851 54.2212 35.2433 54.3049 35.2831 54.4041C35.3237 54.5026 35.3421 54.6152 35.3383 54.7419ZM36.2137 56.2827C36.0401 56.2827 35.8966 56.2471 35.7831 56.1761C35.6697 56.1042 35.5901 56.0028 35.5442 55.8717C35.4992 55.7398 35.4917 55.5847 35.5217 55.4062C35.551 55.2307 35.6108 55.0766 35.7009 54.944C35.7911 54.8107 35.9037 54.707 36.039 54.6329C36.1749 54.5582 36.3252 54.5208 36.4898 54.5208C36.5964 54.5208 36.6945 54.5378 36.7839 54.5719C36.8733 54.6052 36.9488 54.657 37.0104 54.7274C37.072 54.7977 37.1145 54.8874 37.1378 54.9963C37.1611 55.1044 37.1599 55.2332 37.1343 55.3829L37.1152 55.5061H35.6952L35.7392 55.2351H36.767C36.7805 55.1581 36.776 55.0896 36.7535 55.0296C36.7309 54.9689 36.6934 54.9211 36.6407 54.8863C36.5882 54.8514 36.5224 54.834 36.4435 54.834C36.3632 54.834 36.288 54.8544 36.2182 54.8952C36.149 54.9351 36.0908 54.987 36.0435 55.0507C35.9961 55.1144 35.9661 55.1814 35.9533 55.2517L35.9072 55.5117C35.8906 55.6184 35.8943 55.7054 35.9184 55.7728C35.9425 55.8402 35.9845 55.8898 36.0446 55.9217C36.1047 55.9535 36.1806 55.9695 36.2722 55.9695C36.3323 55.9695 36.3879 55.9613 36.439 55.945C36.4901 55.9287 36.5356 55.9043 36.5754 55.8717C36.616 55.8383 36.6498 55.7976 36.6769 55.7495L37.0499 55.7917C37.0085 55.8909 36.9481 55.9776 36.8684 56.0516C36.7888 56.1249 36.6934 56.182 36.5822 56.2227C36.4717 56.2627 36.3489 56.2827 36.2137 56.2827ZM37.3361 56.2494L37.6246 54.543H38.0201L37.9717 54.8274H37.9897C38.0371 54.7289 38.1039 54.653 38.1904 54.5996C38.2775 54.5456 38.3706 54.5186 38.4698 54.5186C38.4931 54.5186 38.5182 54.5196 38.5453 54.5219C38.5724 54.5234 38.5957 54.5259 38.6152 54.5296L38.5521 54.8996C38.5348 54.8937 38.5078 54.8885 38.471 54.884C38.4349 54.8788 38.3992 54.8763 38.3639 54.8763C38.2895 54.8763 38.2204 54.8922 38.1565 54.924C38.0934 54.9552 38.0401 54.9985 37.9965 55.054C37.9529 55.1096 37.9247 55.1737 37.912 55.2462L37.744 56.2494H37.3361ZM39.8433 54.543L39.7903 54.8541H38.7964L38.8482 54.543H39.8433ZM39.1614 54.1341H39.5694L39.299 55.7361C39.2907 55.7902 39.2922 55.8317 39.3035 55.8606C39.3155 55.8887 39.3347 55.908 39.3609 55.9183C39.388 55.9287 39.4184 55.9339 39.4522 55.9339C39.477 55.9339 39.5003 55.932 39.5221 55.9284C39.5439 55.9239 39.5612 55.9205 39.5739 55.9183L39.592 56.2328C39.5672 56.2401 39.5338 56.2483 39.4917 56.2572C39.4504 56.266 39.4008 56.2712 39.3429 56.2727C39.2393 56.2749 39.1491 56.2594 39.0725 56.2261C38.9965 56.192 38.9409 56.1398 38.9057 56.0694C38.8711 55.9983 38.8632 55.9095 38.882 55.8028L39.1614 54.1341ZM39.896 56.2494L40.1844 54.543H40.5924L40.3039 56.2494H39.896ZM40.4482 54.2986C40.3828 54.2986 40.3287 54.2771 40.2859 54.2341C40.2431 54.1912 40.2243 54.1397 40.2295 54.0797C40.2348 54.0197 40.2622 53.9683 40.3118 53.9253C40.3622 53.8824 40.4196 53.8608 40.4842 53.8608C40.5496 53.8608 40.6033 53.8824 40.6454 53.9253C40.6882 53.9683 40.707 54.0197 40.7017 54.0797C40.6972 54.1397 40.6698 54.1912 40.6195 54.2341C40.5699 54.2771 40.5128 54.2986 40.4482 54.2986ZM41.8898 54.543L41.8368 54.8541H40.8136L40.8666 54.543H41.8898ZM40.8327 56.2494L41.1494 54.3819C41.1675 54.2671 41.2069 54.1716 41.2677 54.0953C41.3293 54.019 41.4041 53.9619 41.492 53.9242C41.5807 53.8864 41.675 53.8675 41.7749 53.8675C41.8462 53.8675 41.9082 53.8731 41.9608 53.8842C42.0134 53.8953 42.0517 53.9053 42.0758 53.9142L41.9439 54.2252C41.9266 54.22 41.9056 54.2149 41.8808 54.2097C41.8567 54.2038 41.8286 54.2008 41.7963 54.2008C41.7204 54.2008 41.6637 54.219 41.6261 54.2553C41.5885 54.2908 41.5638 54.3419 41.5517 54.4086L41.2418 56.2494H40.8327ZM41.9228 56.2494L42.2113 54.543H42.6192L42.3307 56.2494H41.9228ZM42.475 54.2986C42.4096 54.2986 42.3556 54.2771 42.3127 54.2341C42.2699 54.1912 42.2511 54.1397 42.2563 54.0797C42.2616 54.0197 42.289 53.9683 42.3386 53.9253C42.3889 53.8824 42.4464 53.8608 42.5111 53.8608C42.5764 53.8608 42.6301 53.8824 42.6722 53.9253C42.715 53.9683 42.7338 54.0197 42.7286 54.0797C42.7241 54.1397 42.6966 54.1912 42.6462 54.2341C42.5967 54.2771 42.5396 54.2986 42.475 54.2986ZM43.512 56.2827C43.3385 56.2827 43.195 56.2471 43.0816 56.1761C42.9681 56.1042 42.8884 56.0028 42.8426 55.8717C42.7976 55.7398 42.7901 55.5847 42.8201 55.4062C42.8494 55.2307 42.9091 55.0766 42.9993 54.944C43.0895 54.8107 43.2021 54.707 43.3374 54.6329C43.4734 54.5582 43.6236 54.5208 43.7881 54.5208C43.8948 54.5208 43.9929 54.5378 44.0823 54.5719C44.1717 54.6052 44.2472 54.657 44.3088 54.7274C44.3704 54.7977 44.4129 54.8874 44.4362 54.9963C44.4594 55.1044 44.4583 55.2332 44.4328 55.3829L44.4136 55.5061H42.9937L43.0376 55.2351H44.0654C44.0789 55.1581 44.0744 55.0896 44.0518 55.0296C44.0293 54.9689 43.9917 54.9211 43.9392 54.8863C43.8866 54.8514 43.8208 54.834 43.7419 54.834C43.6616 54.834 43.5864 54.8544 43.5165 54.8952C43.4474 54.9351 43.3892 54.987 43.3419 55.0507C43.2945 55.1144 43.2645 55.1814 43.2517 55.2517L43.2055 55.5117C43.189 55.6184 43.1928 55.7054 43.2168 55.7728C43.2408 55.8402 43.2829 55.8898 43.343 55.9217C43.4031 55.9535 43.479 55.9695 43.5707 55.9695C43.6308 55.9695 43.6864 55.9613 43.7374 55.945C43.7885 55.9287 43.834 55.9043 43.8738 55.8717C43.9144 55.8383 43.9482 55.7976 43.9752 55.7495L44.3482 55.7917C44.3069 55.8909 44.2464 55.9776 44.1668 56.0516C44.0872 56.1249 43.9917 56.182 43.8805 56.2227C43.7701 56.2627 43.6473 56.2827 43.512 56.2827ZM45.2746 56.2794C45.1386 56.2794 45.0225 56.245 44.9264 56.1761C44.8302 56.1072 44.7618 56.0072 44.7213 55.8761C44.6815 55.745 44.677 55.5858 44.7077 55.3984C44.74 55.2088 44.799 55.0488 44.8847 54.9185C44.9703 54.7874 45.0725 54.6885 45.1912 54.6219C45.3106 54.5545 45.4369 54.5208 45.5698 54.5208C45.672 54.5208 45.7528 54.5378 45.8122 54.5719C45.8723 54.6052 45.9173 54.6456 45.9474 54.6929C45.9775 54.7396 45.9996 54.7837 46.0139 54.8251H46.0308L46.1739 53.9741H46.583L46.1998 56.2494H45.7987L45.8449 55.9805H45.82C45.7915 56.022 45.7535 56.0661 45.7062 56.1127C45.6589 56.1587 45.5999 56.1979 45.5293 56.2305C45.4586 56.2631 45.3738 56.2794 45.2746 56.2794ZM45.4369 55.9494C45.524 55.9494 45.6022 55.9265 45.6713 55.8806C45.7412 55.8339 45.7994 55.7691 45.8459 55.6862C45.8925 55.6032 45.9252 55.5065 45.944 55.3962C45.9628 55.2858 45.9628 55.1899 45.944 55.1085C45.9252 55.027 45.8888 54.9637 45.8347 54.9185C45.7806 54.8733 45.7096 54.8507 45.6217 54.8507C45.5315 54.8507 45.4523 54.874 45.3839 54.9207C45.3163 54.9674 45.2607 55.0318 45.2171 55.114C45.1735 55.1962 45.1428 55.2903 45.1247 55.3962C45.1067 55.5028 45.1056 55.598 45.1213 55.6817C45.1379 55.7647 45.172 55.8302 45.2239 55.8784C45.2765 55.9257 45.3474 55.9494 45.4369 55.9494ZM49.6686 54.7419H49.2538C49.2538 54.6737 49.2426 54.6134 49.2201 54.5607C49.1975 54.5074 49.166 54.4622 49.1254 54.4252C49.0848 54.3882 49.0367 54.3604 48.9812 54.3419C48.9256 54.3227 48.8639 54.313 48.7963 54.313C48.6671 54.313 48.5469 54.3452 48.4357 54.4097C48.3245 54.4741 48.2302 54.5678 48.1528 54.6907C48.0754 54.8129 48.0217 54.9614 47.9917 55.1362C47.9639 55.3065 47.9665 55.4491 47.9995 55.564C48.0334 55.6787 48.0919 55.7654 48.1753 55.8239C48.2587 55.8817 48.3602 55.9106 48.4796 55.9106C48.5525 55.9106 48.6224 55.9016 48.6893 55.8839C48.7561 55.8654 48.8177 55.8383 48.8741 55.8028C48.9311 55.7665 48.9812 55.7224 49.0239 55.6706C49.0675 55.6188 49.1014 55.5599 49.1254 55.4939H49.5457C49.5112 55.6021 49.4605 55.7039 49.3936 55.7995C49.3267 55.8943 49.2463 55.978 49.1524 56.0506C49.0585 56.1224 48.9534 56.1787 48.8369 56.2194C48.7204 56.2602 48.5949 56.2805 48.4604 56.2805C48.2539 56.2805 48.077 56.2331 47.9297 56.1383C47.7832 56.0427 47.678 55.9061 47.6141 55.7284C47.5503 55.5499 47.539 55.3362 47.5803 55.0874C47.6216 54.8452 47.7013 54.6389 47.8193 54.4686C47.938 54.2982 48.0825 54.1682 48.2531 54.0786C48.4244 53.9882 48.6088 53.9431 48.8064 53.9431C48.9372 53.9431 49.0559 53.9608 49.1625 53.9964C49.27 54.032 49.362 54.0841 49.4386 54.153C49.5153 54.2212 49.5735 54.3049 49.6134 54.4041C49.6539 54.5026 49.6723 54.6152 49.6686 54.7419ZM50.5417 56.2827C50.3711 56.2827 50.2292 56.2457 50.1157 56.1716C50.003 56.0975 49.9237 55.9935 49.8779 55.8595C49.8321 55.7254 49.8238 55.5698 49.8531 55.3928C49.8824 55.2181 49.941 55.0651 50.0289 54.934C50.1176 54.8029 50.2292 54.7014 50.3636 54.6296C50.4988 54.557 50.6502 54.5208 50.8178 54.5208C50.9883 54.5208 51.1299 54.5582 51.2426 54.6329C51.3553 54.707 51.4346 54.8111 51.4804 54.9452C51.527 55.0792 51.5356 55.2355 51.5064 55.414C51.4778 55.588 51.4188 55.7402 51.3294 55.8705C51.2407 56.0009 51.1292 56.1024 50.9947 56.1749C50.8602 56.2468 50.7092 56.2827 50.5417 56.2827ZM50.5754 55.9606C50.6701 55.9606 50.7532 55.9354 50.8245 55.885C50.8967 55.8339 50.9556 55.7654 51.0015 55.6795C51.048 55.5928 51.0803 55.4966 51.0984 55.3906C51.1149 55.2884 51.1153 55.1959 51.0995 55.1129C51.0837 55.0292 51.0499 54.9629 50.9981 54.9141C50.947 54.8644 50.876 54.8396 50.7851 54.8396C50.6905 54.8396 50.6067 54.8655 50.5338 54.9174C50.4616 54.9685 50.4027 55.0374 50.3569 55.124C50.311 55.2099 50.2795 55.3059 50.2622 55.4117C50.2449 55.514 50.2441 55.6065 50.2599 55.6895C50.2757 55.7724 50.3095 55.8383 50.3614 55.8872C50.4132 55.9361 50.4846 55.9606 50.5754 55.9606ZM51.714 56.2494L52.0025 54.543H52.3935L52.344 54.833H52.3654C52.418 54.7352 52.4905 54.6589 52.5829 54.6041C52.6753 54.5485 52.7793 54.5208 52.895 54.5208C53.0115 54.5208 53.1053 54.5489 53.1767 54.6052C53.2489 54.6607 53.2932 54.7367 53.3097 54.833H53.3277C53.3819 54.7374 53.4593 54.6615 53.5599 54.6052C53.6613 54.5489 53.7751 54.5208 53.9014 54.5208C54.0592 54.5208 54.1801 54.5704 54.2642 54.6696C54.3484 54.7689 54.3743 54.9137 54.342 55.104L54.1482 56.2494H53.7402L53.9251 55.1662C53.9416 55.0603 53.9251 54.9829 53.8755 54.934C53.8266 54.8844 53.7609 54.8596 53.6782 54.8596C53.5798 54.8596 53.4979 54.8896 53.4326 54.9496C53.368 55.0096 53.3281 55.0881 53.3131 55.1851L53.1317 56.2494H52.7316L52.9187 55.1496C52.9322 55.0614 52.9164 54.9911 52.8713 54.9385C52.827 54.8859 52.7617 54.8596 52.6753 54.8596C52.6166 54.8596 52.5607 54.8744 52.5073 54.904C52.454 54.9336 52.4086 54.9751 52.371 55.0285C52.3342 55.0811 52.3101 55.1422 52.2988 55.2118L52.123 56.2494H51.714ZM54.4539 56.8893L54.8528 54.543H55.254L55.2078 54.8251H55.2315C55.2585 54.7837 55.2949 54.7396 55.3407 54.6929C55.3873 54.6456 55.4463 54.6052 55.5177 54.5719C55.5891 54.5378 55.6759 54.5208 55.7781 54.5208C55.911 54.5208 56.0256 54.5545 56.1217 54.6219C56.2179 54.6885 56.2866 54.7874 56.328 54.9185C56.37 55.0488 56.3753 55.2088 56.3438 55.3984C56.3122 55.5858 56.254 55.745 56.1691 55.8761C56.0842 56.0072 55.9824 56.1072 55.8637 56.1761C55.745 56.245 55.6176 56.2794 55.4816 56.2794C55.3824 56.2794 55.3025 56.2631 55.2416 56.2305C55.1815 56.1979 55.1361 56.1587 55.1052 56.1127C55.0744 56.0661 55.0515 56.022 55.0365 55.9805H55.0184L54.8652 56.8893H54.4539ZM55.1086 55.3962C55.0906 55.5065 55.0902 55.6032 55.1075 55.6862C55.1255 55.7691 55.1612 55.8339 55.2146 55.8806C55.2679 55.9265 55.3378 55.9494 55.4241 55.9494C55.5143 55.9494 55.5932 55.9257 55.6608 55.8784C55.7292 55.8302 55.7859 55.7647 55.831 55.6817C55.8768 55.598 55.9091 55.5028 55.9279 55.3962C55.9452 55.2903 55.9452 55.1962 55.9279 55.114C55.9106 55.0318 55.8757 54.9674 55.8231 54.9207C55.7705 54.874 55.6992 54.8507 55.609 54.8507C55.5211 54.8507 55.4426 54.8733 55.3734 54.9185C55.3051 54.9637 55.2483 55.027 55.2033 55.1085C55.1582 55.1899 55.1267 55.2858 55.1086 55.3962ZM57.041 56.2838C56.9314 56.2838 56.836 56.2646 56.7548 56.2261C56.6737 56.1868 56.614 56.129 56.5756 56.0527C56.538 55.9765 56.5286 55.8824 56.5474 55.7706C56.564 55.6743 56.5955 55.5947 56.6421 55.5317C56.6894 55.4688 56.7473 55.4184 56.8157 55.3806C56.8848 55.3422 56.9599 55.3132 57.041 55.294C57.123 55.2747 57.2063 55.2606 57.2912 55.2517C57.3949 55.2414 57.4787 55.2318 57.5426 55.2229C57.6072 55.214 57.6556 55.2007 57.6879 55.1829C57.7202 55.1644 57.7398 55.1362 57.7465 55.0984V55.0918C57.76 55.0081 57.7465 54.9433 57.7059 54.8974C57.6654 54.8514 57.5978 54.8285 57.5031 54.8285C57.404 54.8285 57.3206 54.85 57.2529 54.8929C57.1853 54.9359 57.1361 54.9866 57.1053 55.0451L56.7356 54.9918C56.7822 54.8881 56.8461 54.8014 56.9272 54.7319C57.0083 54.6615 57.1019 54.6089 57.2078 54.5741C57.3145 54.5385 57.4283 54.5208 57.5493 54.5208C57.6319 54.5208 57.7127 54.5304 57.7916 54.5497C57.8712 54.5689 57.9415 54.6008 58.0024 54.6452C58.0639 54.6889 58.109 54.7485 58.1376 54.824C58.1669 54.8996 58.1718 54.994 58.1522 55.1073L57.9595 56.2494H57.5673L57.6079 56.015H57.5944C57.5621 56.0624 57.52 56.1068 57.4682 56.1483C57.4163 56.189 57.3547 56.222 57.2834 56.2471C57.212 56.2716 57.1312 56.2838 57.041 56.2838ZM57.1955 55.9883C57.2773 55.9883 57.351 55.9724 57.4163 55.9406C57.4817 55.908 57.5354 55.865 57.5775 55.8117C57.6196 55.7584 57.6458 55.7002 57.6564 55.6373L57.6902 55.4362C57.6752 55.4466 57.6519 55.4562 57.6203 55.465C57.5888 55.474 57.5534 55.4817 57.5144 55.4884C57.4761 55.4951 57.4381 55.501 57.4005 55.5061C57.363 55.5113 57.3307 55.5158 57.3036 55.5195C57.2413 55.5277 57.1842 55.541 57.1323 55.5595C57.0813 55.578 57.0388 55.6039 57.005 55.6373C56.9719 55.6698 56.9513 55.7121 56.943 55.7639C56.931 55.8373 56.9486 55.8931 56.996 55.9317C57.0433 55.9695 57.1098 55.9883 57.1955 55.9883ZM58.9467 55.2496L58.7799 56.2494H58.3709L58.6593 54.543H59.0504L59.0008 54.833H59.0222C59.0763 54.7374 59.1522 54.6615 59.2498 54.6052C59.3475 54.5489 59.4614 54.5208 59.5913 54.5208C59.7093 54.5208 59.8084 54.546 59.8889 54.5963C59.9692 54.646 60.0263 54.7189 60.0602 54.8151C60.0939 54.9107 60.0992 55.0266 60.0759 55.1629L59.8911 56.2494H59.4832L59.6555 55.2251C59.6751 55.1118 59.6604 55.0229 59.6116 54.9585C59.5635 54.8933 59.4861 54.8607 59.3794 54.8607C59.3081 54.8607 59.2424 54.8763 59.1823 54.9074C59.1221 54.9377 59.0714 54.9818 59.0301 55.0396C58.9896 55.0973 58.9618 55.1673 58.9467 55.2496ZM60.3892 56.8893C60.3336 56.8893 60.2829 56.8848 60.2371 56.876C60.192 56.8678 60.1563 56.8582 60.13 56.8471L60.2788 56.5338C60.3351 56.5509 60.3858 56.5582 60.4309 56.556C60.4767 56.5545 60.5188 56.5393 60.5571 56.5105C60.5962 56.4823 60.6345 56.436 60.6721 56.3716L60.7239 56.2794L60.3926 54.543H60.8096L60.9899 55.8339H61.0079L61.6266 54.543H62.0763L61.0631 56.4538C61.0143 56.5464 60.9576 56.6249 60.8929 56.6893C60.8283 56.7545 60.7543 56.8041 60.6709 56.8382C60.5883 56.8723 60.4944 56.8893 60.3892 56.8893Z" fill="#00652E"/>
</svg>
