<svg width="18" height="12" viewBox="0 0 18 12" fill="none" xmlns="http://www.w3.org/2000/svg">
<path d="M5.4615 11.1727C3.94683 11.1727 2.65792 10.651 1.59475 9.60748C0.531583 8.56382 0 7.28748 0 5.77848C0 4.26965 0.531583 2.99023 1.59475 1.94023C2.65792 0.890234 3.94683 0.365234 5.4615 0.365234H14.1923C15.2499 0.365234 16.149 0.728985 16.8895 1.45649C17.6298 2.18398 18 3.07657 18 4.13423C18 5.19207 17.6298 6.08473 16.8895 6.81223C16.149 7.53973 15.2499 7.90348 14.1923 7.90348H5.923C5.33583 7.90348 4.83008 7.69865 4.40575 7.28898C3.98142 6.87932 3.76925 6.37998 3.76925 5.79098C3.76925 5.20198 3.97808 4.69532 4.39575 4.27098C4.81342 3.84648 5.3225 3.63423 5.923 3.63423H14.2308V4.63423H5.923C5.60383 4.63423 5.33175 4.74357 5.10675 4.96223C4.88175 5.1809 4.76925 5.44982 4.76925 5.76898C4.76925 6.08815 4.88175 6.35707 5.10675 6.57573C5.33175 6.79423 5.60383 6.90348 5.923 6.90348H14.2115C14.9885 6.89965 15.6475 6.63257 16.1885 6.10223C16.7295 5.5719 17 4.9159 17 4.13423C17 3.3589 16.7263 2.70357 16.1788 2.16823C15.6314 1.6329 14.9693 1.36523 14.1923 1.36523H5.4615C4.22683 1.36123 3.17458 1.78873 2.30475 2.64773C1.43492 3.50673 1 4.55265 1 5.78548C1 7.00098 1.43492 8.03415 2.30475 8.88498C3.17458 9.73582 4.22683 10.1651 5.4615 10.1727H14.2308V11.1727H5.4615Z" fill="#1C1B1F"/>
</svg>
