<svg width="40" height="40" viewBox="0 0 40 40" fill="none" xmlns="http://www.w3.org/2000/svg">
<g clip-path="url(#clip0_1718_1320)">
<path d="M29.6251 25.3743V14.6258C30.222 14.4728 30.7679 14.1644 31.2072 13.7322C31.6464 13.3 31.9635 12.7592 32.1262 12.1648C32.2889 11.5704 32.2915 10.9435 32.1336 10.3478C31.9757 9.75207 31.663 9.20875 31.2272 8.77297C30.7914 8.3372 30.2481 8.02449 29.6524 7.86659C29.0567 7.70869 28.4298 7.71122 27.8354 7.87393C27.241 8.03664 26.7002 8.35373 26.268 8.79301C25.8357 9.23229 25.5274 9.77812 25.3743 10.3751H14.6258C14.4728 9.77812 14.1644 9.23229 13.7322 8.79301C13.3 8.35373 12.7592 8.03664 12.1648 7.87393C11.5704 7.71122 10.9435 7.70869 10.3478 7.86659C9.75207 8.02449 9.20875 8.3372 8.77297 8.77297C8.3372 9.20875 8.02449 9.75207 7.86659 10.3478C7.70869 10.9435 7.71122 11.5704 7.87393 12.1648C8.03664 12.7592 8.35373 13.3 8.79301 13.7322C9.23229 14.1644 9.77812 14.4728 10.3751 14.6258V25.3743C9.77812 25.5274 9.23229 25.8357 8.79301 26.268C8.35373 26.7002 8.03664 27.241 7.87393 27.8354C7.71122 28.4298 7.70869 29.0567 7.86659 29.6524C8.02449 30.2481 8.3372 30.7914 8.77297 31.2272C9.20875 31.663 9.75207 31.9757 10.3478 32.1336C10.9435 32.2915 11.5704 32.2889 12.1648 32.1262C12.7592 31.9635 13.3 31.6464 13.7322 31.2072C14.1644 30.7679 14.4728 30.222 14.6258 29.6251H25.3743C25.5274 30.222 25.8357 30.7679 26.268 31.2072C26.7002 31.6464 27.241 31.9635 27.8354 32.1262C28.4298 32.2889 29.0567 32.2915 29.6524 32.1336C30.2481 31.9757 30.7914 31.663 31.2272 31.2272C31.663 30.7914 31.9757 30.2481 32.1336 29.6524C32.2915 29.0567 32.2889 28.4298 32.1262 27.8354C31.9635 27.241 31.6464 26.7002 31.2072 26.268C30.7679 25.8357 30.222 25.5274 29.6251 25.3743ZM28.7501 9.50008C29.0962 9.50008 29.4345 9.60272 29.7223 9.79501C30.0101 9.9873 30.2344 10.2606 30.3669 10.5804C30.4993 10.9002 30.534 11.252 30.4665 11.5915C30.3989 11.931 30.2323 12.2428 29.9875 12.4875C29.7428 12.7323 29.431 12.8989 29.0915 12.9665C28.752 13.034 28.4002 12.9993 28.0804 12.8669C27.7606 12.7344 27.4873 12.5101 27.295 12.2223C27.1027 11.9345 27.0001 11.5962 27.0001 11.2501C27.0006 10.7861 27.1852 10.3413 27.5132 10.0132C27.8413 9.68516 28.2861 9.50062 28.7501 9.50008ZM9.50008 11.2501C9.50008 10.904 9.60272 10.5656 9.79501 10.2778C9.9873 9.99005 10.2606 9.76575 10.5804 9.63329C10.9002 9.50084 11.252 9.46619 11.5915 9.53371C11.931 9.60123 12.2428 9.7679 12.4875 10.0126C12.7323 10.2574 12.8989 10.5692 12.9665 10.9087C13.034 11.2481 12.9993 11.6 12.8669 11.9198C12.7344 12.2396 12.5101 12.5129 12.2223 12.7052C11.9345 12.8974 11.5962 13.0001 11.2501 13.0001C10.7861 12.9996 10.3412 12.8151 10.0132 12.487C9.68507 12.1589 9.50055 11.7141 9.50008 11.2501ZM11.2501 30.5001C10.904 30.5001 10.5656 30.3974 10.2778 30.2052C9.99005 30.0129 9.76575 29.7396 9.63329 29.4198C9.50084 29.1 9.46619 28.7481 9.53371 28.4087C9.60123 28.0692 9.7679 27.7574 10.0126 27.5126C10.2574 27.2679 10.5692 27.1012 10.9087 27.0337C11.2481 26.9662 11.6 27.0008 11.9198 27.1333C12.2396 27.2657 12.5129 27.49 12.7052 27.7778C12.8974 28.0656 13.0001 28.404 13.0001 28.7501C12.9996 29.214 12.815 29.6589 12.4869 29.9869C12.1589 30.315 11.714 30.4995 11.2501 30.5001ZM25.3743 27.8751H14.6258C14.4691 27.2735 14.1548 26.7246 13.7152 26.285C13.2756 25.8454 12.7267 25.531 12.1251 25.3743V14.6258C12.7266 14.469 13.2755 14.1546 13.7151 13.7151C14.1546 13.2755 14.469 12.7266 14.6258 12.1251H25.3743C25.531 12.7267 25.8454 13.2756 26.285 13.7152C26.7246 14.1548 27.2735 14.4691 27.8751 14.6258V25.3743C27.2735 25.531 26.7245 25.8453 26.2849 26.2849C25.8453 26.7245 25.531 27.2735 25.3743 27.8751ZM28.7501 30.5001C28.404 30.5001 28.0656 30.3974 27.7778 30.2052C27.49 30.0129 27.2657 29.7396 27.1333 29.4198C27.0008 29.1 26.9662 28.7481 27.0337 28.4087C27.1012 28.0692 27.2679 27.7574 27.5126 27.5126C27.7574 27.2679 28.0692 27.1012 28.4087 27.0337C28.7481 26.9662 29.1 27.0008 29.4198 27.1333C29.7396 27.2657 30.0129 27.49 30.2052 27.7778C30.3974 28.0656 30.5001 28.404 30.5001 28.7501C30.4995 29.214 30.3149 29.6588 29.9868 29.9868C29.6588 30.3149 29.214 30.4995 28.7501 30.5001Z" fill="#052D23"/>
</g>
<defs>
<clipPath id="clip0_1718_1320">
<rect width="28" height="28" fill="white" transform="translate(6 6)"/>
</clipPath>
</defs>
</svg>
