<svg width="40" height="40" viewBox="0 0 40 40" fill="none" xmlns="http://www.w3.org/2000/svg">
<g clip-path="url(#clip0_1718_1321)">
<path d="M18.5 13.8799C18.5 14.7083 19.1716 15.3799 20 15.3799C20.8284 15.3799 21.5 14.7083 21.5 13.8799C21.5 13.0515 20.8284 12.3799 20 12.3799C19.1716 12.3799 18.5 13.0515 18.5 13.8799Z" fill="#052D23"/>
<path d="M20.5 27.6201C20.2348 27.6201 19.9804 27.5148 19.7929 27.3272C19.6054 27.1397 19.5 26.8853 19.5 26.6201V20.1201H18.5C18.2348 20.1201 17.9804 20.0148 17.7929 19.8272C17.6054 19.6397 17.5 19.3853 17.5 19.1201C17.5 18.8549 17.6054 18.6005 17.7929 18.413C17.9804 18.2255 18.2348 18.1201 18.5 18.1201H20.5C20.7652 18.1201 21.0196 18.2255 21.2071 18.413C21.3946 18.6005 21.5 18.8549 21.5 19.1201V26.6201C21.5 26.8853 21.3946 27.1397 21.2071 27.3272C21.0196 27.5148 20.7652 27.6201 20.5 27.6201Z" fill="#052D23"/>
<path d="M20 33C17.4288 33 14.9154 32.2376 12.7776 30.8091C10.6398 29.3807 8.97351 27.3503 7.98957 24.9749C7.00563 22.5995 6.74819 19.9856 7.2498 17.4638C7.75141 14.9421 8.98954 12.6257 10.8076 10.8076C12.6257 8.98954 14.9421 7.75141 17.4638 7.2498C19.9856 6.74819 22.5995 7.00563 24.9749 7.98957C27.3503 8.97351 29.3807 10.6398 30.8091 12.7776C32.2376 14.9154 33 17.4288 33 20C33 23.4478 31.6304 26.7544 29.1924 29.1924C26.7544 31.6304 23.4478 33 20 33ZM20 9.00001C17.8244 9.00001 15.6977 9.64514 13.8887 10.8538C12.0798 12.0625 10.6699 13.7805 9.83733 15.7905C9.00477 17.8005 8.78693 20.0122 9.21137 22.146C9.63581 24.2798 10.6835 26.2398 12.2218 27.7782C13.7602 29.3166 15.7202 30.3642 17.854 30.7886C19.9878 31.2131 22.1995 30.9952 24.2095 30.1627C26.2195 29.3301 27.9375 27.9202 29.1462 26.1113C30.3549 24.3023 31 22.1756 31 20C31 17.0826 29.8411 14.2847 27.7782 12.2218C25.7153 10.1589 22.9174 9.00001 20 9.00001Z" fill="#052D23"/>
</g>
<defs>
<clipPath id="clip0_1718_1321">
<rect width="26" height="26" fill="white" transform="translate(7 7)"/>
</clipPath>
</defs>
</svg>
