<svg width="40" height="40" viewBox="0 0 40 40" fill="none" xmlns="http://www.w3.org/2000/svg">
<g clip-path="url(#clip0_1718_1322)">
<path d="M10.375 16.5H12.125V14.75H10.375V16.5ZM17.375 14.75H19.125V13H17.375V14.75ZM20.875 14.75H22.625V13H20.875V14.75ZM24.375 14.75H26.125V13H24.375V14.75ZM17.375 11.25H19.125V9.5H17.375V11.25ZM20.875 11.25H22.625V9.5H20.875V11.25ZM24.375 11.25H26.125V9.5H24.375V11.25ZM17.375 21.75H19.125V20H17.375V21.75ZM20.875 21.75H22.625V20H20.875V21.75ZM24.375 21.75H26.125V20H24.375V21.75ZM17.375 25.25H19.125V23.5H17.375V25.25ZM24.375 25.25H26.125V23.5H24.375V25.25ZM17.375 28.75H19.125V27H17.375V28.75ZM24.375 28.75H26.125V27H24.375V28.75ZM29.625 27H31.375V25.25H29.625V27ZM29.625 21.75V23.5H31.375V21.75H29.625ZM29.625 30.5H31.375V28.75H29.625V30.5ZM17.375 18.25H19.125V16.5H17.375V18.25ZM20.875 18.25H22.625V16.5H20.875V18.25ZM24.375 18.25H26.125V16.5H24.375V18.25ZM10.375 20H12.125V18.25H10.375V20ZM10.375 23.5H12.125V21.75H10.375V23.5ZM10.375 27H12.125V25.25H10.375V27ZM10.375 30.5H12.125V28.75H10.375V30.5ZM20.875 25.25H22.625V23.5H20.875V25.25Z" fill="#052D23"/>
<path fill-rule="evenodd" clip-rule="evenodd" d="M33.125 32.25C33.125 33.2173 32.3423 34 31.375 34H8.625C7.65769 34 6.875 33.2173 6.875 32.25V13C6.875 12.0327 7.65769 11.25 8.625 11.25H13.875V7.75C13.875 6.78269 14.6577 6 15.625 6H27.875C28.8423 6 29.625 6.78269 29.625 7.75V18.25H31.375C32.3423 18.25 33.125 19.0327 33.125 20V32.25ZM13.875 13H8.625V32.25H13.875V13ZM27.875 7.75H15.625V32.25H20.875V27H22.625V32.25H27.875V7.75ZM31.375 20H29.625V32.25H31.375V20Z" fill="#052D23"/>
</g>
<defs>
<clipPath id="clip0_1718_1322">
<rect width="28" height="28" fill="white" transform="translate(6 6)"/>
</clipPath>
</defs>
</svg>
