<svg width="40" height="40" viewBox="0 0 40 40" fill="none" xmlns="http://www.w3.org/2000/svg">
<path d="M20.4286 4C17.3975 4 14.4906 5.20408 12.3474 7.34735C10.2041 9.49062 9 12.3975 9 15.4286C9 21.3143 18.44 34.1029 19.5143 35.5429C19.6207 35.6848 19.7588 35.8 19.9175 35.8793C20.0762 35.9587 20.2511 36 20.4286 36C20.606 36 20.781 35.9587 20.9397 35.8793C21.0984 35.8 21.2364 35.6848 21.3429 35.5429C22.4171 34.1029 31.8571 21.3143 31.8571 15.4286C31.8571 13.9278 31.5615 12.4416 30.9872 11.055C30.4129 9.66847 29.571 8.40859 28.5098 7.34735C27.4486 6.28611 26.1887 5.44429 24.8021 4.86995C23.4155 4.29561 21.9294 4 20.4286 4ZM20.4286 32.9143C17.2286 28.4457 11.2857 19.3486 11.2857 15.4286C11.2857 13.0037 12.249 10.6782 13.9636 8.9636C15.6782 7.24898 18.0037 6.28571 20.4286 6.28571C22.8534 6.28571 25.1789 7.24898 26.8935 8.9636C28.6082 10.6782 29.5714 13.0037 29.5714 15.4286C29.5714 19.3486 23.6286 28.4457 20.4286 32.9143Z" fill="#052D23"/>
<path d="M20.4282 9.71387C19.298 9.71387 18.1932 10.049 17.2535 10.6769C16.3138 11.3048 15.5813 12.1972 15.1488 13.2414C14.7163 14.2855 14.6032 15.4345 14.8237 16.543C15.0442 17.6514 15.5884 18.6696 16.3875 19.4688C17.1867 20.2679 18.2049 20.8122 19.3134 21.0326C20.4218 21.2531 21.5708 21.14 22.6149 20.7075C23.6591 20.275 24.5515 19.5425 25.1794 18.6028C25.8073 17.6631 26.1424 16.5583 26.1424 15.4282C26.1424 13.9126 25.5404 12.4592 24.4688 11.3875C23.3971 10.3159 21.9437 9.71387 20.4282 9.71387ZM20.4282 18.8567C19.75 18.8567 19.0872 18.6556 18.5233 18.2789C17.9595 17.9022 17.5201 17.3667 17.2606 16.7402C17.0011 16.1137 16.9332 15.4243 17.0655 14.7593C17.1978 14.0942 17.5243 13.4833 18.0038 13.0038C18.4833 12.5243 19.0942 12.1978 19.7593 12.0655C20.4244 11.9332 21.1137 12.0011 21.7402 12.2606C22.3667 12.5201 22.9022 12.9595 23.2789 13.5233C23.6556 14.0872 23.8567 14.75 23.8567 15.4282C23.8567 16.3375 23.4955 17.2095 22.8525 17.8525C22.2095 18.4955 21.3375 18.8567 20.4282 18.8567Z" fill="#052D23"/>
</svg>
