<svg width="40" height="40" viewBox="0 0 40 40" fill="none" xmlns="http://www.w3.org/2000/svg">
<g clip-path="url(#clip0_1718_1324)">
<path d="M22.9522 32.656C22.6179 32.656 22.3317 32.4014 22.2994 32.0609C22.2652 31.7004 22.5304 31.3801 22.8918 31.3459L29.648 30.7053V5.39762C27.0532 5.39412 23.9219 5.37574 20.8081 5.35474C17.4729 5.33461 14.1587 5.31273 11.5489 5.31273C11.1866 5.31273 10.8926 5.01868 10.8926 4.65637C10.8926 4.29405 11.1866 4 11.5489 4C14.1604 4 17.4781 4.02013 20.8177 4.04201C24.194 4.06301 27.5932 4.08489 30.3044 4.08489C30.6667 4.08489 30.9608 4.37982 30.9608 4.74126V31.3031C30.9608 31.6417 30.7034 31.9244 30.3656 31.9568L23.0161 32.6552C22.9942 32.6552 22.9732 32.656 22.9522 32.656Z" fill="#052D23"/>
<path d="M22.5529 35.9995C22.4943 35.9995 22.4348 35.9908 22.3779 35.9759L10.4846 32.6757C10.2001 32.5961 10.0032 32.337 10.0032 32.0421L10.0015 26.407C9.99885 19.9772 9.99622 13.6963 10.0268 7.4109C10.0303 6.72128 10.1958 6.06316 10.3585 5.42517C10.4268 5.153 10.4951 4.88258 10.5511 4.6104C10.5887 4.4205 10.7095 4.25684 10.8792 4.1632C11.0482 4.07218 11.2503 4.05643 11.4323 4.12732C13.4496 4.91146 15.3005 5.57395 17.0902 6.21719C18.893 6.86305 20.7554 7.53167 22.7918 8.32281C23.0448 8.41995 23.211 8.66412 23.211 8.93366V35.3414C23.211 35.5453 23.1157 35.7396 22.952 35.8639C22.8356 35.9532 22.6947 35.9995 22.5529 35.9995ZM11.3168 31.5441L21.8974 34.4794V9.38524C20.0395 8.67024 18.3172 8.05238 16.6474 7.45378C15.0607 6.88493 13.4242 6.2977 11.6643 5.62383C11.6529 5.66584 11.6441 5.70697 11.6336 5.7481C11.4849 6.33446 11.3448 6.88755 11.3422 7.41702C11.3116 13.6998 11.3142 19.979 11.3168 26.4052V31.5441Z" fill="#052D23"/>
</g>
<defs>
<clipPath id="clip0_1718_1324">
<rect width="20.9599" height="32" fill="white" transform="translate(10 4)"/>
</clipPath>
</defs>
</svg>
