<svg width="30" height="433" viewBox="0 0 30 433" fill="none" xmlns="http://www.w3.org/2000/svg">
<path d="M15.5 433H0V0H17.5C16.8333 4 16.5 13.5 20.5 19.5C24.5 25.5 22.1667 33 20.5 36C18.6667 39.6667 15.7 47.9 18.5 51.5C21.3 55.1 20 61.6667 19 64.5C17.8333 66.6667 15.7 71.7 16.5 74.5C17.5 78 15.5 84.5 15.5 86C15.5 87.2 15.1667 90.5 15 92C14.1667 95.1667 12 102.2 10 105C8 107.8 8.83333 110.833 9.5 112C10.5 113.167 11.9 116.3 9.5 119.5C7.1 122.7 8.16667 127.167 9 129C13.5 139 12 135.5 14 141C15.6 145.4 13 154.167 11.5 158C10.6667 160.167 9.5 166 11.5 172C13.5 178 12.6667 184.5 12 187C11.5 188.5 10.9 191.8 12.5 193C14.1 194.2 17.1667 198.833 18.5 201C19.1667 203 20.1 207.6 18.5 210C16.9 212.4 17.5 215.667 18 217C18.6667 219.167 20.7 224.2 23.5 227C27 230.5 29 239.5 26.5 242.5C24 245.5 24.5 247.5 23 249.5C21.5 251.5 25 263 24.5 265C24 267 27.5 272 29 277.5C30.5 283 24.5 292.5 23.5 293.5C22.5 294.5 20.5 300.5 18 303.5C16 305.9 17.1667 308.5 18 309.5C19 311.333 20.2 316.4 17 322C13 329 13 328.5 12 330.5C11 332.5 16 336.5 12.5 344C9.7 350 10 355.5 10.5 357.5C16.5 377.5 11.5 387.5 10 389C8.5 390.5 7.5 399 9 400.5C10.5 402 10.5 407 9.5 408C8.7 408.8 8.83333 411.333 9 412.5C9.66667 415.667 11.5 422.5 13.5 424.5C15.5 426.5 15.6667 431 15.5 433Z" fill="#BFD8BD"/>
</svg>
