<svg width="995" height="431" viewBox="0 0 995 431" fill="none" xmlns="http://www.w3.org/2000/svg">
<g opacity="0.08" clip-path="url(#clip0_90_1255)">
<path d="M1111.36 -232.9C927.837 -244.236 837.019 -212.115 768.906 18.4038C737.308 125.341 664.844 141.22 462.396 144.999C328.676 147.495 327.896 213.295 280.61 278.189C208.145 377.637 97.8774 416.16 1.00252 416.16C-16.602 416.16 -100.478 415.328 -160.57 378.988" stroke="white" stroke-width="1.33333" stroke-miterlimit="10" stroke-linecap="round" stroke-linejoin="round"/>
<path d="M1104.75 -246.199C921.143 -259.716 829.228 -226.344 761.92 0.234626C730.206 106.675 660.916 125.231 457.667 127.484C363.245 128.531 328.994 158.897 305.636 202.925C297.693 217.895 277.209 258.109 255.852 281.023C191.302 350.28 103.165 399.037 1.00308 399.037C-53.2372 399.037 -124.261 388.147 -196.877 335.356" stroke="white" stroke-width="1.33333" stroke-miterlimit="10" stroke-linecap="round" stroke-linejoin="round"/>
<path d="M292.688 199.921C292.701 199.907 292.715 199.894 292.715 199.867C320.282 149.699 347.416 110.342 452.936 109.964C656.978 109.248 723.102 88.0154 754.932 -17.9299C821.435 -240.579 914.449 -275.191 1098.14 -259.5" stroke="white" stroke-width="1.33333" stroke-miterlimit="10" stroke-linecap="round" stroke-linejoin="round"/>
<path d="M322.191 106.343C347.106 86.489 382.78 74.2578 443.477 74.947C649.13 77.2716 708.906 50.6739 740.967 -54.2713C805.859 -269.027 901.053 -306.153 1084.92 -286.097" stroke="white" stroke-width="1.33333" stroke-miterlimit="10" stroke-linecap="round" stroke-linejoin="round"/>
<path d="M325.033 81.5557C349.935 65.7159 384.526 56.4175 438.74 57.4311C645.191 61.283 701.801 32.0091 733.97 -72.436C798.064 -283.259 894.367 -321.628 1078.31 -299.396" stroke="white" stroke-width="1.33333" stroke-miterlimit="10" stroke-linecap="round" stroke-linejoin="round"/>
<path d="M325.953 59.2148C350.733 46.0105 384.268 38.6178 434.017 39.9152C641.266 45.2943 694.926 13.412 726.986 -90.6006C790.715 -297.355 887.668 -337.117 1071.71 -312.695" stroke="white" stroke-width="1.33333" stroke-miterlimit="10" stroke-linecap="round" stroke-linejoin="round"/>
<path d="M325.439 38.2666C350.07 26.9274 382.685 20.8456 429.281 22.3998C637.342 29.3061 687.849 -5.23869 720.004 -108.778C782.988 -311.56 880.969 -352.592 1065.09 -325.994" stroke="white" stroke-width="1.33333" stroke-miterlimit="10" stroke-linecap="round" stroke-linejoin="round"/>
<path d="M323.693 18.251C348.216 8.22273 380.154 3.1005 424.557 4.8845C633.404 13.318 680.77 -23.8893 713.02 -126.942C775.233 -325.777 874.284 -368.066 1058.49 -339.292" stroke="white" stroke-width="1.33333" stroke-miterlimit="10" stroke-linecap="round" stroke-linejoin="round"/>
<path d="M316.102 136.373C340.786 109.694 376.934 92.1785 448.2 92.4623C653.054 93.2597 715.998 69.3379 747.95 -36.1074C813.641 -254.81 907.752 -290.679 1091.53 -272.798" stroke="white" stroke-width="1.33333" stroke-miterlimit="10" stroke-linecap="round" stroke-linejoin="round"/>
<path d="M292.714 199.867C292.714 199.894 292.701 199.908 292.688 199.921" stroke="white" stroke-width="1.33333" stroke-miterlimit="10" stroke-linecap="round" stroke-linejoin="round"/>
<path d="M70.7402 728.85C70.7402 728.85 128.515 607.105 248.582 551.233C415.096 473.765 570.243 524.784 634.973 452.37C659.278 425.178 669.997 396.661 675.613 369.658" stroke="white" stroke-width="1.33333" stroke-miterlimit="10" stroke-linecap="round" stroke-linejoin="round"/>
<path d="M86.0078 738.311C86.0078 738.311 140.723 617.269 266.529 562.06C431.947 489.47 586.227 540.584 651.173 467.629C676.832 438.856 687.037 408.352 692.057 379.686" stroke="white" stroke-width="1.33333" stroke-miterlimit="10" stroke-linecap="round" stroke-linejoin="round"/>
<path d="M101.271 747.771C101.271 747.771 152.82 627.406 284.473 572.872C448.605 504.891 602.195 556.37 667.371 482.902C694.803 452.033 704.222 418.934 708.485 388.147" stroke="white" stroke-width="1.33333" stroke-miterlimit="10" stroke-linecap="round" stroke-linejoin="round"/>
<path d="M116.551 757.232C116.551 757.232 164.811 637.502 302.404 583.685C465.102 520.069 618.177 572.156 683.57 498.174C713.195 464.751 721.369 428.395 724.766 395.148" stroke="white" stroke-width="1.33333" stroke-miterlimit="10" stroke-linecap="round" stroke-linejoin="round"/>
<path d="M131.816 766.692C131.816 766.692 176.706 647.543 320.349 594.496C481.45 535.016 634.147 587.954 699.77 513.432C731.939 477.049 738.299 436.774 740.776 400.797" stroke="white" stroke-width="1.33333" stroke-miterlimit="10" stroke-linecap="round" stroke-linejoin="round"/>
<path d="M147.082 776.153C147.082 776.153 188.535 657.544 338.294 605.322C497.677 549.747 650.13 603.74 715.969 528.704C751.007 488.956 754.796 444.099 756.434 405.243" stroke="white" stroke-width="1.33333" stroke-miterlimit="10" stroke-linecap="round" stroke-linejoin="round"/>
<path d="M162.348 785.614C162.348 785.614 200.282 667.464 356.24 616.134C513.795 564.276 666.099 619.54 732.169 543.977C770.4 500.485 770.644 450.276 771.781 408.568" stroke="white" stroke-width="1.33333" stroke-miterlimit="10" stroke-linecap="round" stroke-linejoin="round"/>
<path d="M177.613 795.074C177.613 795.074 211.947 677.303 374.171 626.946C529.832 578.629 682.082 635.325 748.368 559.234C790.105 511.621 785.639 455.249 786.952 410.946" stroke="white" stroke-width="1.33333" stroke-miterlimit="10" stroke-linecap="round" stroke-linejoin="round"/>
<path d="M1138.56 216.207C1142.17 313.787 1086.63 349.007 987.178 352.994" stroke="white" stroke-width="1.33333" stroke-miterlimit="10" stroke-linecap="round" stroke-linejoin="round"/>
<path d="M192.879 804.535C192.879 804.535 223.559 687.061 392.117 637.772C545.788 592.821 698.065 651.111 764.568 574.507C810.148 522.339 799.443 458.804 802.123 412.42" stroke="white" stroke-width="1.33333" stroke-miterlimit="10" stroke-linecap="round" stroke-linejoin="round"/>
<path d="M1151.05 228.655C1155.6 337.154 1087.19 368.902 968.895 366.82" stroke="white" stroke-width="1.33333" stroke-miterlimit="10" stroke-linecap="round" stroke-linejoin="round"/>
<path d="M208.145 813.996C208.145 813.996 235.116 696.725 410.062 648.584C561.676 606.849 714.034 666.911 780.767 589.78C830.637 532.543 811.704 460.534 817.821 413.015" stroke="white" stroke-width="1.33333" stroke-miterlimit="10" stroke-linecap="round" stroke-linejoin="round"/>
<path d="M1163.54 241.102C1169.12 360.468 1086.62 387.363 949.365 379.051" stroke="white" stroke-width="1.33333" stroke-miterlimit="10" stroke-linecap="round" stroke-linejoin="round"/>
<path d="M223.41 823.456C223.41 823.456 246.633 706.293 428.007 659.395C577.51 620.742 730.017 682.696 796.966 605.038C851.803 541.922 821.692 459.52 834.927 412.622" stroke="white" stroke-width="1.33333" stroke-miterlimit="10" stroke-linecap="round" stroke-linejoin="round"/>
<path d="M1176.04 253.55C1182.69 383.16 1085.81 404.244 931.096 390.202C930.027 390.107 928.972 390.012 927.93 389.945" stroke="white" stroke-width="1.33333" stroke-miterlimit="10" stroke-linecap="round" stroke-linejoin="round"/>
<path d="M238.676 832.917C238.676 832.917 258.083 715.74 445.952 670.208C593.303 634.501 745.986 698.481 813.166 620.31C874.418 549.585 827.376 452.911 856.134 410.582" stroke="white" stroke-width="1.33333" stroke-miterlimit="10" stroke-linecap="round" stroke-linejoin="round"/>
<path d="M253.945 842.382C253.945 842.382 269.509 725.066 463.888 681.03C609.05 648.143 761.809 714.143 829.365 635.578C912.832 538.506 790.31 389.785 943.95 403.734C1097.59 417.682 1195.87 397.089 1188.52 265.991" stroke="white" stroke-width="1.33333" stroke-miterlimit="10" stroke-linecap="round" stroke-linejoin="round"/>
<path d="M269.213 851.844C269.213 851.844 280.895 734.262 481.831 691.844C624.774 661.669 777.783 729.93 845.565 650.845C928.294 554.32 804.237 403.412 956.804 417.264C1109.37 431.116 1209.04 411.01 1201.01 278.436" stroke="white" stroke-width="1.33333" stroke-miterlimit="10" stroke-linecap="round" stroke-linejoin="round"/>
<path d="M284.48 861.305C284.48 861.305 292.249 743.32 499.774 702.66C640.473 675.094 793.757 745.72 861.765 666.112C943.758 570.134 818.162 417.041 969.657 430.796C1121.15 444.549 1222.21 424.931 1213.5 290.881" stroke="white" stroke-width="1.33333" stroke-miterlimit="10" stroke-linecap="round" stroke-linejoin="round"/>
<path d="M299.746 870.765C299.746 870.765 303.573 752.228 517.715 713.475C656.156 688.421 809.732 761.509 877.963 681.379C959.221 585.95 832.085 430.668 982.51 444.325C1132.93 457.982 1235.38 438.853 1225.99 303.326" stroke="white" stroke-width="1.33333" stroke-miterlimit="10" stroke-linecap="round" stroke-linejoin="round"/>
<path d="M315.012 880.226C315.012 880.226 314.879 760.98 535.656 724.292C671.826 701.663 825.71 777.301 894.163 696.648C974.689 601.768 846.01 444.297 995.362 457.857C1144.71 471.416 1248.55 452.775 1238.48 315.77" stroke="white" stroke-width="1.33333" stroke-miterlimit="10" stroke-linecap="round" stroke-linejoin="round"/>
<path d="M330.28 889.687C330.28 889.687 326.168 769.562 553.601 735.107C687.493 714.822 841.69 793.095 910.362 711.916C990.16 617.588 859.936 457.926 1008.22 471.387C1156.5 484.85 1261.72 466.697 1250.97 328.216" stroke="white" stroke-width="1.33333" stroke-miterlimit="10" stroke-linecap="round" stroke-linejoin="round"/>
<path d="M345.546 899.146C345.546 899.146 337.442 777.967 571.542 745.922C703.156 727.907 857.832 809.026 926.561 727.184C1005.82 633.564 873.857 471.553 1021.07 484.918C1168.28 498.283 1274.89 480.617 1263.46 340.66" stroke="white" stroke-width="1.33333" stroke-miterlimit="10" stroke-linecap="round" stroke-linejoin="round"/>
<path d="M360.814 908.608C360.814 908.608 348.711 786.183 589.484 756.738C718.825 740.922 873.811 824.816 942.761 742.45C1021.28 649.38 887.783 485.181 1033.92 498.449C1180.06 511.716 1288.06 494.539 1275.95 353.103" stroke="white" stroke-width="1.33333" stroke-miterlimit="10" stroke-linecap="round" stroke-linejoin="round"/>
<path d="M376.081 918.069C376.081 918.069 359.977 794.199 607.426 767.554C734.499 753.871 889.787 840.607 958.96 757.719C1036.75 665.195 901.707 498.809 1046.78 511.981C1191.84 525.151 1301.23 508.461 1288.44 365.548" stroke="white" stroke-width="1.33333" stroke-miterlimit="10" stroke-linecap="round" stroke-linejoin="round"/>
<path d="M391.348 927.53C391.348 927.53 371.248 802.004 625.369 778.37C750.187 766.762 905.766 856.399 975.159 772.987C1052.21 681.01 915.633 512.438 1059.63 525.511C1203.62 538.585 1314.4 522.384 1300.93 377.993" stroke="white" stroke-width="1.33333" stroke-miterlimit="10" stroke-linecap="round" stroke-linejoin="round"/>
<path d="M406.613 936.99C406.613 936.99 382.528 809.587 643.311 789.186C765.89 779.595 921.742 872.189 991.36 788.253C1067.67 696.825 929.557 526.066 1072.48 539.042C1215.4 552.018 1327.57 536.305 1313.42 390.437" stroke="white" stroke-width="1.33333" stroke-miterlimit="10" stroke-linecap="round" stroke-linejoin="round"/>
<path d="M421.881 946.451C421.881 946.451 393.824 816.935 661.253 800.002C781.613 792.38 937.719 887.981 1007.56 803.522C1083.14 712.639 943.481 539.693 1085.33 552.573C1227.18 565.451 1340.75 550.226 1325.91 402.882" stroke="white" stroke-width="1.33333" stroke-miterlimit="10" stroke-linecap="round" stroke-linejoin="round"/>
<path d="M437.147 955.913C437.147 955.913 405.145 824.039 679.195 810.817C797.36 805.116 953.696 903.772 1023.76 818.79C1098.6 728.454 957.406 553.322 1098.19 566.103C1238.97 578.884 1353.92 564.149 1338.4 415.327" stroke="white" stroke-width="1.33333" stroke-miterlimit="10" stroke-linecap="round" stroke-linejoin="round"/>
<path d="M452.414 965.374C452.414 965.374 417.806 850.22 697.137 821.634C812.594 809.819 969.674 919.563 1039.96 834.057C1114.07 744.27 971.33 566.95 1111.04 579.634C1250.75 592.318 1367.09 578.071 1350.89 427.772" stroke="white" stroke-width="1.33333" stroke-miterlimit="10" stroke-linecap="round" stroke-linejoin="round"/>
<path d="M820.027 -110.454H820.149C964.901 -110.454 1082.25 6.72216 1082.25 151.294C1082.25 295.852 964.901 413.028 820.149 413.028C675.396 413.028 558.049 295.852 558.049 151.294C558.049 147.983 558.117 144.698 558.225 141.414" stroke="white" stroke-width="1.33333" stroke-miterlimit="10" stroke-linecap="round" stroke-linejoin="round"/>
<path d="M812.247 -95.7088C814.872 -95.7899 817.511 -95.8304 820.15 -95.8304C956.81 -95.8304 1067.61 14.8046 1067.61 151.294C1067.61 287.77 956.81 398.405 820.15 398.405C683.477 398.405 572.693 287.77 572.693 151.294C572.693 147.618 572.775 143.969 572.937 140.333" stroke="white" stroke-width="1.33333" stroke-miterlimit="10" stroke-linecap="round" stroke-linejoin="round"/>
<path d="M805.033 -80.721C810.027 -81.0454 815.075 -81.2076 820.15 -81.2076C948.73 -81.2076 1052.96 22.8862 1052.96 151.294C1052.96 279.688 948.73 383.795 820.15 383.795C691.57 383.795 587.336 279.688 587.336 151.294C587.336 147.172 587.444 143.09 587.647 139.022" stroke="white" stroke-width="1.33333" stroke-miterlimit="10" stroke-linecap="round" stroke-linejoin="round"/>
<path d="M798.347 -65.5161C805.52 -66.2324 812.787 -66.5973 820.149 -66.5973C940.637 -66.5973 1038.32 30.9551 1038.32 151.294C1038.32 271.619 940.637 369.172 820.149 369.172C699.649 369.172 601.979 271.619 601.979 151.294C601.979 146.631 602.127 141.996 602.425 137.414" stroke="white" stroke-width="1.33333" stroke-miterlimit="10" stroke-linecap="round" stroke-linejoin="round"/>
<path d="M792.067 -50.0553C801.243 -51.3258 810.621 -51.9744 820.149 -51.9744C932.557 -51.9744 1023.68 39.0366 1023.68 151.293C1023.68 263.537 932.557 354.548 820.149 354.548C707.741 354.548 616.621 263.537 616.621 151.293C616.621 145.955 616.824 140.671 617.23 135.44" stroke="white" stroke-width="1.33333" stroke-miterlimit="10" stroke-linecap="round" stroke-linejoin="round"/>
<path d="M786.128 -34.2964C797.171 -36.3101 808.539 -37.3508 820.15 -37.3508C924.465 -37.3508 1009.04 47.1054 1009.04 151.294C1009.04 255.469 924.465 339.925 820.15 339.925C715.835 339.925 631.266 255.469 631.266 151.294C631.266 145.117 631.563 139.022 632.145 132.994" stroke="white" stroke-width="1.33333" stroke-miterlimit="10" stroke-linecap="round" stroke-linejoin="round"/>
<path d="M780.484 -18.1858C793.219 -21.1592 806.508 -22.7269 820.15 -22.7269C916.385 -22.7269 994.392 55.1879 994.392 151.294C994.392 247.387 916.385 325.302 820.15 325.302C723.914 325.302 645.908 247.387 645.908 151.294C645.908 144.064 646.355 136.928 647.207 129.927" stroke="white" stroke-width="1.33333" stroke-miterlimit="10" stroke-linecap="round" stroke-linejoin="round"/>
<path d="M775.043 -1.644C789.347 -5.84722 804.478 -8.10429 820.149 -8.10429C908.292 -8.10429 979.748 63.2558 979.748 151.293C979.748 239.318 908.292 310.678 820.149 310.678C732.007 310.678 660.551 239.318 660.551 151.293C660.551 142.698 661.227 134.251 662.554 126.02" stroke="white" stroke-width="1.33333" stroke-miterlimit="10" stroke-linecap="round" stroke-linejoin="round"/>
<path d="M769.764 15.5071C785.449 9.69558 802.434 6.51951 820.149 6.51951C900.212 6.51951 965.104 71.3382 965.104 151.294C965.104 231.236 900.212 296.055 820.149 296.055C740.086 296.055 675.193 231.236 675.193 151.294C675.193 140.86 676.303 130.683 678.414 120.871" stroke="white" stroke-width="1.33333" stroke-miterlimit="10" stroke-linecap="round" stroke-linejoin="round"/>
<path d="M763.797 33.9151C780.863 25.7249 799.972 21.1433 820.15 21.1433C892.12 21.1433 950.463 79.4071 950.463 151.294C950.463 223.168 892.12 281.432 820.15 281.432C748.18 281.432 689.824 223.168 689.824 151.294C689.824 138.198 691.759 125.561 695.359 113.654" stroke="white" stroke-width="1.33333" stroke-miterlimit="10" stroke-linecap="round" stroke-linejoin="round"/>
<path d="M753.796 56.6605C772.58 43.4967 795.465 35.766 820.15 35.766C884.027 35.766 935.819 87.4885 935.819 151.294C935.819 215.085 884.027 266.808 820.15 266.808C756.259 266.808 704.467 215.085 704.467 151.294C704.467 133.44 708.527 116.533 715.767 101.436" stroke="white" stroke-width="1.33333" stroke-miterlimit="10" stroke-linecap="round" stroke-linejoin="round"/>
<path d="M820.147 50.3911C875.946 50.3911 921.18 95.5642 921.18 151.287C921.18 207.012 875.946 252.185 820.147 252.185C764.349 252.185 719.115 207.012 719.115 151.287C719.115 95.5642 764.349 50.3911 820.147 50.3911Z" stroke="white" stroke-width="1.33333" stroke-miterlimit="10" stroke-linecap="round" stroke-linejoin="round"/>
<path d="M820.148 65.0125C867.861 65.0125 906.539 103.639 906.539 151.287C906.539 198.936 867.861 237.561 820.148 237.561C772.436 237.561 733.758 198.936 733.758 151.287C733.758 103.639 772.436 65.0125 820.148 65.0125Z" stroke="white" stroke-width="1.33333" stroke-miterlimit="10" stroke-linecap="round" stroke-linejoin="round"/>
<path d="M820.147 79.6359C859.773 79.6359 891.896 111.714 891.896 151.287C891.896 190.859 859.773 222.938 820.147 222.938C780.523 222.938 748.4 190.859 748.4 151.287C748.4 111.714 780.523 79.6359 820.147 79.6359Z" stroke="white" stroke-width="1.33333" stroke-miterlimit="10" stroke-linecap="round" stroke-linejoin="round"/>
<path d="M820.147 94.2583C851.686 94.2583 877.254 119.791 877.254 151.287C877.254 182.783 851.686 208.315 820.147 208.315C788.609 208.315 763.043 182.783 763.043 151.287C763.043 119.791 788.609 94.2583 820.147 94.2583Z" stroke="white" stroke-width="1.33333" stroke-miterlimit="10" stroke-linecap="round" stroke-linejoin="round"/>
<path d="M820.146 108.882C843.598 108.882 862.609 127.868 862.609 151.287C862.609 174.707 843.598 193.693 820.146 193.693C796.695 193.693 777.684 174.707 777.684 151.287C777.684 127.868 796.695 108.882 820.146 108.882Z" stroke="white" stroke-width="1.33333" stroke-miterlimit="10" stroke-linecap="round" stroke-linejoin="round"/>
<path d="M847.967 151.287C847.967 166.632 835.512 179.07 820.147 179.07C804.782 179.07 792.326 166.632 792.326 151.287C792.326 135.943 804.782 123.504 820.147 123.504C835.512 123.504 847.967 135.943 847.967 151.287Z" stroke="white" stroke-width="1.33333" stroke-miterlimit="10" stroke-linecap="round" stroke-linejoin="round"/>
<path d="M835.658 151.287C835.658 159.842 828.714 166.776 820.148 166.776C811.583 166.776 804.639 159.842 804.639 151.287C804.639 142.733 811.583 135.798 820.148 135.798C828.714 135.798 835.658 142.733 835.658 151.287Z" stroke="white" stroke-width="1.33333" stroke-miterlimit="10" stroke-linecap="round" stroke-linejoin="round"/>
<path d="M325.961 56.7213C325.961 235.95 180.471 381.243 1.00241 381.243C-178.468 381.243 -323.957 235.95 -323.957 56.7213C-323.957 -122.507 -178.468 -267.801 1.00241 -267.801C180.471 -267.801 325.961 -122.507 325.961 56.7213Z" stroke="white" stroke-width="1.33333" stroke-miterlimit="10" stroke-linecap="round" stroke-linejoin="round"/>
<path d="M1.00308 -249.671C170.446 -249.671 307.807 -112.493 307.807 56.7217C307.807 225.938 170.446 363.114 1.00308 363.114C-168.441 363.114 -305.803 225.938 -305.803 56.7217C-305.803 -112.493 -168.441 -249.671 1.00308 -249.671Z" stroke="white" stroke-width="1.33333" stroke-miterlimit="10" stroke-linecap="round" stroke-linejoin="round"/>
<path d="M1.00239 -231.54C160.419 -231.54 289.652 -102.481 289.652 56.722C289.652 215.925 160.419 344.985 1.00239 344.985C-158.415 344.985 -287.648 215.925 -287.648 56.722C-287.648 -102.481 -158.415 -231.54 1.00239 -231.54Z" stroke="white" stroke-width="1.33333" stroke-miterlimit="10" stroke-linecap="round" stroke-linejoin="round"/>
<path d="M1.00312 -213.411C150.394 -213.411 271.5 -92.468 271.5 56.7217C271.5 205.913 150.394 326.854 1.00312 326.854C-148.389 326.854 -269.494 205.913 -269.494 56.7217C-269.494 -92.468 -148.389 -213.411 1.00312 -213.411Z" stroke="white" stroke-width="1.33333" stroke-miterlimit="10" stroke-linecap="round" stroke-linejoin="round"/>
<path d="M1.00241 -195.283C140.366 -195.283 253.344 -82.4567 253.344 56.721C253.344 195.899 140.366 308.725 1.00241 308.725C-138.363 308.725 -251.34 195.899 -251.34 56.721C-251.34 -82.4567 -138.363 -195.283 1.00241 -195.283Z" stroke="white" stroke-width="1.33333" stroke-miterlimit="10" stroke-linecap="round" stroke-linejoin="round"/>
<path d="M1.00307 -177.151C130.341 -177.151 235.191 -72.4426 235.191 56.7218C235.191 185.886 130.341 290.595 1.00307 290.595C-128.336 290.595 -233.186 185.886 -233.186 56.7218C-233.186 -72.4426 -128.336 -177.151 1.00307 -177.151Z" stroke="white" stroke-width="1.33333" stroke-miterlimit="10" stroke-linecap="round" stroke-linejoin="round"/>
<path d="M1.00183 -159.023C120.313 -159.023 217.035 -62.4312 217.035 56.7211C217.035 175.873 120.313 272.465 1.00183 272.465C-118.312 272.465 -215.033 175.873 -215.033 56.7211C-215.033 -62.4312 -118.312 -159.023 1.00183 -159.023Z" stroke="white" stroke-width="1.33333" stroke-miterlimit="10" stroke-linecap="round" stroke-linejoin="round"/>
<path d="M1.00308 -140.892C110.288 -140.892 198.882 -52.4176 198.882 56.7214C198.882 165.86 110.288 254.336 1.00308 254.336C-108.283 254.336 -196.877 165.86 -196.877 56.7214C-196.877 -52.4176 -108.283 -140.892 1.00308 -140.892Z" stroke="white" stroke-width="1.33333" stroke-miterlimit="10" stroke-linecap="round" stroke-linejoin="round"/>
<path d="M1.00184 -122.762C100.261 -122.762 180.727 -42.4038 180.727 56.7217C180.727 155.849 100.261 236.207 1.00184 236.207C-98.2584 236.207 -178.725 155.849 -178.725 56.7217C-178.725 -42.4038 -98.2584 -122.762 1.00184 -122.762Z" stroke="white" stroke-width="1.33333" stroke-miterlimit="10" stroke-linecap="round" stroke-linejoin="round"/>
<path d="M1.0025 -104.633C90.2357 -104.633 162.573 -32.3921 162.573 56.7214C162.573 145.835 90.2357 218.076 1.0025 218.076C-88.2314 218.076 -160.57 145.835 -160.57 56.7214C-160.57 -32.3921 -88.2314 -104.633 1.0025 -104.633Z" stroke="white" stroke-width="1.33333" stroke-miterlimit="10" stroke-linecap="round" stroke-linejoin="round"/>
<path d="M1.00201 -86.5024C80.209 -86.5024 144.419 -22.3784 144.419 56.7218C144.419 135.823 80.209 199.947 1.00201 199.947C-78.2062 199.947 -142.416 135.823 -142.416 56.7218C-142.416 -22.3784 -78.2062 -86.5024 1.00201 -86.5024Z" stroke="white" stroke-width="1.33333" stroke-miterlimit="10" stroke-linecap="round" stroke-linejoin="round"/>
<path d="M1.00254 -68.3735C70.1826 -68.3735 126.266 -12.3666 126.266 56.7215C126.266 125.81 70.1826 181.816 1.00254 181.816C-68.1793 181.816 -124.262 125.81 -124.262 56.7215C-124.262 -12.3666 -68.1793 -68.3735 1.00254 -68.3735Z" stroke="white" stroke-width="1.33333" stroke-miterlimit="10" stroke-linecap="round" stroke-linejoin="round"/>
<path d="M1.00268 -50.2439C60.157 -50.2439 108.112 -2.35427 108.112 56.7218C108.112 115.797 60.157 163.688 1.00268 163.688C-58.1523 163.688 -106.107 115.797 -106.107 56.7218C-106.107 -2.35427 -58.1523 -50.2439 1.00268 -50.2439Z" stroke="white" stroke-width="1.33333" stroke-miterlimit="10" stroke-linecap="round" stroke-linejoin="round"/>
<path d="M1.00214 -32.1149C50.1302 -32.1149 89.9567 7.65884 89.9567 56.7216C89.9567 105.784 50.1302 145.557 1.00214 145.557C-48.1271 145.557 -87.9531 105.784 -87.9531 56.7216C-87.9531 7.65884 -48.1271 -32.1149 1.00214 -32.1149Z" stroke="white" stroke-width="1.33333" stroke-miterlimit="10" stroke-linecap="round" stroke-linejoin="round"/>
<path d="M1.00324 -13.9841C40.105 -13.9841 71.8037 17.6725 71.8037 56.7219C71.8037 95.7712 40.105 127.428 1.00324 127.428C-38.0997 127.428 -69.7988 95.7712 -69.7988 56.7219C-69.7988 17.6725 -38.0997 -13.9841 1.00324 -13.9841Z" stroke="white" stroke-width="1.33333" stroke-miterlimit="10" stroke-linecap="round" stroke-linejoin="round"/>
<path d="M1.00285 4.14588C30.0788 4.14588 53.649 27.6839 53.649 56.7212C53.649 85.7585 30.0788 109.298 1.00285 109.298C-28.0738 109.298 -51.6445 85.7585 -51.6445 56.7212C-51.6445 27.6839 -28.0738 4.14588 1.00285 4.14588Z" stroke="white" stroke-width="1.33333" stroke-miterlimit="10" stroke-linecap="round" stroke-linejoin="round"/>
<path d="M35.4955 56.7215C35.4955 75.7455 20.052 91.1689 1.00292 91.1689C-18.048 91.1689 -33.4902 75.7455 -33.4902 56.7215C-33.4902 37.6976 -18.048 22.274 1.00292 22.274C20.052 22.274 35.4955 37.6976 35.4955 56.7215Z" stroke="white" stroke-width="1.33333" stroke-miterlimit="10" stroke-linecap="round" stroke-linejoin="round"/>
<path d="M21.5512 56.7214C21.5512 68.0566 12.3507 77.2441 1.00182 77.2441C-10.3483 77.2441 -19.5488 68.0566 -19.5488 56.7214C-19.5488 45.3876 -10.3483 36.2 1.00182 36.2C12.3507 36.2 21.5512 45.3876 21.5512 56.7214Z" stroke="white" stroke-width="1.33333" stroke-miterlimit="10" stroke-linecap="round" stroke-linejoin="round"/>
<path d="M218.322 567.412C211.731 549.085 208.145 529.312 208.145 508.716C208.145 412.717 286.069 334.897 382.197 334.897C472.288 334.897 546.383 403.243 555.342 490.848" stroke="white" stroke-width="1.33333" stroke-miterlimit="10" stroke-linecap="round" stroke-linejoin="round"/>
<path d="M231.68 559.735C226.239 543.72 223.289 526.556 223.289 508.716C223.289 421.07 294.434 350.007 382.197 350.007C464.778 350.007 532.661 412.92 540.375 493.376" stroke="white" stroke-width="1.33333" stroke-miterlimit="10" stroke-linecap="round" stroke-linejoin="round"/>
<path d="M245.335 552.788C240.842 538.908 238.42 524.095 238.42 508.716C238.42 429.422 302.798 365.13 382.198 365.13C457.105 365.13 518.641 422.354 525.354 495.403" stroke="white" stroke-width="1.33333" stroke-miterlimit="10" stroke-linecap="round" stroke-linejoin="round"/>
<path d="M259.206 546.464C255.538 534.53 253.562 521.853 253.562 508.716C253.562 437.761 311.147 380.241 382.197 380.241C449.309 380.241 504.43 431.571 510.317 497.066" stroke="white" stroke-width="1.33333" stroke-miterlimit="10" stroke-linecap="round" stroke-linejoin="round"/>
<path d="M273.268 540.639C270.29 530.516 268.693 519.798 268.693 508.716C268.693 446.114 319.511 395.364 382.197 395.364C441.446 395.364 490.085 440.694 495.241 498.525" stroke="white" stroke-width="1.33333" stroke-miterlimit="10" stroke-linecap="round" stroke-linejoin="round"/>
<path d="M287.478 535.273C285.11 526.826 283.838 517.92 283.838 508.716C283.838 454.466 327.875 410.488 382.198 410.488C433.544 410.488 475.713 449.776 480.166 499.891" stroke="white" stroke-width="1.33333" stroke-miterlimit="10" stroke-linecap="round" stroke-linejoin="round"/>
<path d="M301.836 530.381C299.955 523.474 298.967 516.203 298.967 508.716C298.967 462.805 336.224 425.598 382.197 425.598C425.639 425.598 461.299 458.831 465.088 501.228" stroke="white" stroke-width="1.33333" stroke-miterlimit="10" stroke-linecap="round" stroke-linejoin="round"/>
<path d="M-172.939 422.245C-45.9563 547.247 59.8205 478.523 119.448 654.598C119.475 654.692 119.516 654.774 119.543 654.868" stroke="white" stroke-width="1.33333" stroke-miterlimit="10" stroke-linecap="round" stroke-linejoin="round"/>
<path d="M-157.146 411.974C-31.6928 535.462 72.9336 468.698 132.372 639.826" stroke="white" stroke-width="1.33333" stroke-miterlimit="10" stroke-linecap="round" stroke-linejoin="round"/>
<path d="M-141.34 401.716C-17.2661 523.853 86.3041 458.683 145.513 625.771" stroke="white" stroke-width="1.33333" stroke-miterlimit="10" stroke-linecap="round" stroke-linejoin="round"/>
<path d="M-118.549 398.148C1.26191 510.094 101.178 451.573 158.966 612.606" stroke="white" stroke-width="1.33333" stroke-miterlimit="10" stroke-linecap="round" stroke-linejoin="round"/>
<path d="M-78.3145 408.677C29.6952 491.944 119.285 452.114 172.742 600.335" stroke="white" stroke-width="1.33333" stroke-miterlimit="10" stroke-linecap="round" stroke-linejoin="round"/>
<path d="M-40.0703 414.178C57.1667 476.32 137.514 451.844 186.83 588.969" stroke="white" stroke-width="1.33333" stroke-miterlimit="10" stroke-linecap="round" stroke-linejoin="round"/>
<path d="M-3.20508 416.137C84.0304 462.764 155.92 451.195 201.243 578.44" stroke="white" stroke-width="1.33333" stroke-miterlimit="10" stroke-linecap="round" stroke-linejoin="round"/>
<path d="M31.0625 414.921C109.637 451.114 174.272 449.655 215.955 568.845" stroke="white" stroke-width="1.33333" stroke-miterlimit="10" stroke-linecap="round" stroke-linejoin="round"/>
<path d="M61.959 411.082C120.639 435.437 170.74 443.924 208.146 508.526" stroke="white" stroke-width="1.33333" stroke-miterlimit="10" stroke-linecap="round" stroke-linejoin="round"/>
<path d="M89.5527 405.378C136.716 423.799 177.83 434.99 210.621 479.347" stroke="white" stroke-width="1.33333" stroke-miterlimit="10" stroke-linecap="round" stroke-linejoin="round"/>
<path d="M114.197 398.311C152.929 413.056 187.304 424.665 215.941 457.102" stroke="white" stroke-width="1.33333" stroke-miterlimit="10" stroke-linecap="round" stroke-linejoin="round"/>
<path d="M136.379 390.269C168.764 402.514 197.915 413.596 223.019 438.315" stroke="white" stroke-width="1.33333" stroke-miterlimit="10" stroke-linecap="round" stroke-linejoin="round"/>
<path d="M156.475 381.43C184.11 391.918 209.295 402.135 231.476 421.732" stroke="white" stroke-width="1.33333" stroke-miterlimit="10" stroke-linecap="round" stroke-linejoin="round"/>
<path d="M241.221 406.757C221.286 390.552 199.037 381.186 174.826 371.942" stroke="white" stroke-width="1.33333" stroke-miterlimit="10" stroke-linecap="round" stroke-linejoin="round"/>
<path d="M252.278 393.039C233.9 378.983 213.6 370.307 191.689 361.887" stroke="white" stroke-width="1.33333" stroke-miterlimit="10" stroke-linecap="round" stroke-linejoin="round"/>
<path d="M264.688 380.497C247.189 367.577 227.958 359.319 207.279 351.345" stroke="white" stroke-width="1.33333" stroke-miterlimit="10" stroke-linecap="round" stroke-linejoin="round"/>
<path d="M278.56 369.05C261.197 356.346 242.142 348.209 221.652 340.33" stroke="white" stroke-width="1.33333" stroke-miterlimit="10" stroke-linecap="round" stroke-linejoin="round"/>
<path d="M294.028 358.819C276.097 345.439 256.325 337.1 234.996 328.937" stroke="white" stroke-width="1.33333" stroke-miterlimit="10" stroke-linecap="round" stroke-linejoin="round"/>
<path d="M311.283 349.926H311.27C292.039 334.829 270.616 326.031 247.365 317.165" stroke="white" stroke-width="1.33333" stroke-miterlimit="10" stroke-linecap="round" stroke-linejoin="round"/>
<path d="M330.393 342.735H330.379C309.186 324.557 285.164 315.029 258.842 305.055" stroke="white" stroke-width="1.33333" stroke-miterlimit="10" stroke-linecap="round" stroke-linejoin="round"/>
<path d="M351.288 337.641H351.274C327.577 314.516 300.05 304.191 269.479 292.635" stroke="white" stroke-width="1.33333" stroke-miterlimit="10" stroke-linecap="round" stroke-linejoin="round"/>
<path d="M373.698 335.1H373.684C347.173 304.488 315.288 293.581 279.33 279.931" stroke="white" stroke-width="1.33333" stroke-miterlimit="10" stroke-linecap="round" stroke-linejoin="round"/>
<path d="M397.058 335.532H397.044C367.677 294.108 330.785 283.202 288.412 266.875" stroke="white" stroke-width="1.33333" stroke-miterlimit="10" stroke-linecap="round" stroke-linejoin="round"/>
<path d="M296.762 253.522C346.348 273.146 388.721 282.972 420.686 339.168" stroke="white" stroke-width="1.33333" stroke-miterlimit="10" stroke-linecap="round" stroke-linejoin="round"/>
<path d="M304.691 239.899C362.032 263.497 410.116 270.754 444.125 346.236" stroke="white" stroke-width="1.33333" stroke-miterlimit="10" stroke-linecap="round" stroke-linejoin="round"/>
<path d="M312.596 226.14C377.921 254.36 431.716 257.293 467.038 356.913" stroke="white" stroke-width="1.33333" stroke-miterlimit="10" stroke-linecap="round" stroke-linejoin="round"/>
<path d="M320.918 212.41C389.843 243.805 446.413 242.873 482.628 349.832C485.334 357.806 488.041 365.482 490.788 372.889" stroke="white" stroke-width="1.33333" stroke-miterlimit="10" stroke-linecap="round" stroke-linejoin="round"/>
<path d="M330.189 198.948C401.28 233.02 459.609 228.925 496.595 338.114C505.811 365.333 515.204 389.12 525.381 409.852C525.381 409.866 525.394 409.879 525.394 409.893" stroke="white" stroke-width="1.33333" stroke-miterlimit="10" stroke-linecap="round" stroke-linejoin="round"/>
<path d="M341.016 186.135C413.554 222.302 473.101 215.788 510.561 326.396C535.124 398.945 560.892 446.856 599.773 477.576" stroke="white" stroke-width="1.33333" stroke-miterlimit="10" stroke-linecap="round" stroke-linejoin="round"/>
<path d="M354.115 174.378C427.087 211.518 486.986 203.8 524.527 314.665C549.767 389.215 576.278 437.559 617.203 467.873" stroke="white" stroke-width="1.33333" stroke-miterlimit="10" stroke-linecap="round" stroke-linejoin="round"/>
<path d="M370.125 164.119C442.204 200.529 501.371 193.299 538.493 302.947C563.8 377.659 590.38 425.854 631.684 455.871" stroke="white" stroke-width="1.33333" stroke-miterlimit="10" stroke-linecap="round" stroke-linejoin="round"/>
<path d="M389.898 155.7C459.365 189.352 516.395 184.717 552.461 291.23C577.295 364.549 603.36 412.136 643.581 441.978" stroke="white" stroke-width="1.33333" stroke-miterlimit="10" stroke-linecap="round" stroke-linejoin="round"/>
<path d="M414.57 149.402C479.233 178.23 532.297 178.689 566.428 279.512C590.45 350.44 615.649 397.094 653.88 426.841" stroke="white" stroke-width="1.33333" stroke-miterlimit="10" stroke-linecap="round" stroke-linejoin="round"/>
<path d="M446.264 145.645C502.941 168.134 549.496 176.486 580.406 267.781C603.264 335.303 627.191 380.646 662.594 410.285" stroke="white" stroke-width="1.33333" stroke-miterlimit="10" stroke-linecap="round" stroke-linejoin="round"/>
<path d="M619.613 319.814C634.013 350.115 650.05 373.753 669.714 391.972" stroke="white" stroke-width="1.33333" stroke-miterlimit="10" stroke-linecap="round" stroke-linejoin="round"/>
<path d="M486.336 144.468C514.702 155.321 539.955 166.363 561.256 192.353" stroke="white" stroke-width="1.33333" stroke-miterlimit="10" stroke-linecap="round" stroke-linejoin="round"/>
<path d="M675.234 371.415C673.61 369.699 672.013 367.955 670.443 366.158" stroke="white" stroke-width="1.33333" stroke-miterlimit="10" stroke-linecap="round" stroke-linejoin="round"/>
<path d="M558.348 163.89C547.778 155.159 536.437 148.726 524.406 143.211" stroke="white" stroke-width="1.33333" stroke-miterlimit="10" stroke-linecap="round" stroke-linejoin="round"/>
<path d="M558.199 142.428C557.699 142.117 557.198 141.806 556.697 141.509" stroke="white" stroke-width="1.33333" stroke-miterlimit="10" stroke-linecap="round" stroke-linejoin="round"/>
</g>
<defs>
<clipPath id="clip0_90_1255">
<rect width="1015" height="536" fill="white" transform="translate(-20 -42)"/>
</clipPath>
</defs>
</svg>
