<svg width="320" height="41" viewBox="0 0 320 41" fill="none" xmlns="http://www.w3.org/2000/svg">
<g clip-path="url(#clip0_433_1316)">
<g clip-path="url(#clip1_433_1316)">
<path d="M-49 24.5843C-49 24.5843 -38.4942 20.1615 -28.8519 19.853C-19.0656 19.5443 -10.7185 19.853 1.22644 21.3958C17.4889 23.4529 48.8622 31.7843 65.5569 27.2586C82.2509 22.7329 82.9703 22.5272 91.4615 19.6472C100.96 16.3558 120.245 9.77296 144.134 10.0816C169.607 10.3901 215.804 27.1558 234.801 26.3329C236.816 26.23 244.3 25.5101 249.912 24.2758C255.381 23.0414 263.44 20.3672 274.378 19.4415C278.983 19.0301 286.323 18.3101 294.813 18.5158C296.972 18.6186 303.881 18.9272 312.083 20.1615C320.287 21.3957 327.914 23.3501 334.822 23.9672C349.645 25.0986 359 23.4529 359 23.4529L359 34.5614L-49 34.5614L-49 24.5843ZM-16.3312 22.9386C-15.3238 23.9672 -13.4529 23.3501 -10.1429 23.3501C-6.83279 23.3501 -1.36402 24.5843 -1.79575 24.4815C-2.22749 24.3786 -6.25716 22.9386 -10.4307 22.5272C-14.7482 22.013 -17.1947 21.9101 -16.3312 22.9386ZM10.1492 25.7157C10.1492 25.7157 13.6032 25.9215 18.2085 26.6415C22.8134 27.4643 33.0318 29.5214 39.9399 30.2414C51.7407 31.3729 62.6785 30.2414 61.6707 30.1386C60.5195 30.0357 47.8551 30.7557 36.342 29.0072C31.5929 28.2872 22.9576 26.7443 18.4963 26.23C13.7471 25.6129 10.1492 25.7157 10.1492 25.7157ZM92.4686 25.8186C90.0219 26.5386 111.609 20.9844 119.093 19.5444C122.115 18.9272 128.016 17.8986 133.485 17.4872C139.098 17.0758 146.293 17.0758 146.149 16.9729C146.149 16.7672 137.802 16.1501 130.03 16.9729C122.259 17.7958 122.547 18.1044 119.093 18.6186C113.624 19.4415 94.9152 25.0986 92.4686 25.8186ZM72.4643 27.4643C72.1767 27.4643 73.6156 27.8757 79.3725 26.3329C85.1293 24.7901 89.0148 22.7329 89.3025 22.5272C89.5908 22.4243 84.2657 24.3786 79.8042 25.6129C75.4869 26.8471 72.6085 27.4643 72.4643 27.4643ZM-48.2804 28.39C-48.1365 28.2872 -45.546 27.2586 -41.3725 25.8186C-37.1989 24.3786 -31.4423 22.9386 -31.7302 23.0415C-32.018 23.0415 -36.7672 23.6587 -42.3799 25.6129C-47.9926 27.5672 -48.4243 28.4929 -48.2804 28.39ZM313.955 22.6301C313.811 22.8358 316.689 22.8358 320.43 23.8644C324.172 24.8929 328.202 25.5101 331.656 25.9215C337.413 26.7443 348.494 25.8186 347.919 25.7157C347.487 25.6129 336.117 26.0243 329.929 24.9958C326.763 24.4815 326.475 24.4815 321.726 23.3501C316.977 22.2186 314.098 22.3215 313.955 22.6301ZM253.942 25.0986C253.366 25.2014 248.905 26.7443 241.853 27.7729C234.801 28.9043 229.045 28.2872 229.045 28.5957C229.045 28.9043 230.483 29.5214 237.967 28.9043C245.451 28.2872 254.517 24.9958 253.942 25.0986ZM255.957 27.67C255.669 27.5672 251.064 29.0072 247.753 29.4186C244.443 29.7272 245.019 29.9329 245.019 30.0357C245.019 30.1386 246.602 30.2414 248.905 29.83C251.351 29.3157 256.245 27.7729 255.957 27.67ZM224.295 30.0357C224.151 29.83 219.258 29.2129 216.236 28.1843C213.213 27.1558 213.645 27.5672 213.502 27.67C213.358 27.7729 214.653 28.4929 216.955 29.0072C219.258 29.6243 224.439 30.2414 224.295 30.0357ZM264.879 23.1443C265.023 22.8358 264.447 22.6301 262.145 23.3501C259.842 24.07 258.403 24.6872 258.979 24.5843C259.555 24.4815 260.274 24.1729 262.577 23.7615C265.023 23.3501 264.736 23.4529 264.879 23.1443ZM309.349 21.8072C309.637 21.8072 306.327 20.9844 304.6 20.8815C302.873 20.7786 301.722 20.7786 301.722 21.0872C301.722 21.3957 301.866 21.6015 304.024 21.4986C306.327 21.3957 309.061 21.8072 309.349 21.8072ZM139.961 12.8587C140.105 12.7558 143.415 13.1673 150.755 13.1673C157.951 13.1673 170.327 15.6358 175.508 16.7672C180.689 17.8986 161.117 12.7558 151.762 12.5501C142.407 12.3444 139.817 12.9615 139.961 12.8587Z" fill="url(#paint0_linear_433_1316)"/>
<path d="M-28.9968 16.0472C-28.8529 16.15 -22.3767 15.7386 -18.6349 16.0472C-8.12906 16.7672 5.83073 19.3386 5.25504 19.03C4.67935 18.7214 -14.4614 15.8414 -19.2105 15.6357C-26.2624 15.2243 -29.1407 16.0472 -28.9968 16.0472Z" fill="url(#paint1_linear_433_1316)"/>
<path d="M31.736 24.4814C32.0237 24.5843 38.2123 25.51 45.4081 25.7158C52.6039 25.9214 63.6851 25.0986 63.1099 25.2015C62.6781 25.3043 54.6187 27.0529 43.9692 26.4357C33.3191 25.8186 31.4484 24.3786 31.736 24.4814Z" fill="url(#paint2_linear_433_1316)"/>
<path d="M64.6924 20.7781C64.8359 20.881 61.814 21.8067 60.0868 21.9095C58.3602 22.0124 57.209 21.9095 57.209 21.6009C57.209 21.2924 57.3525 21.0867 59.5115 21.1896C61.9581 21.2924 64.5482 20.6753 64.6924 20.7781Z" fill="url(#paint3_linear_433_1316)"/>
<path d="M69.7285 23.6584C69.7285 23.7613 76.0607 22.4241 78.7956 21.3956C81.5299 20.4699 87.7179 18.207 87.5744 18.207C87.4303 18.1042 81.5299 19.8527 78.5073 20.8813C75.4854 21.9098 69.7285 23.5555 69.7285 23.6584Z" fill="url(#paint4_linear_433_1316)"/>
<path d="M136.652 7.09916C136.796 7.20199 143.271 6.7906 147.013 7.09916C157.519 7.81918 171.479 10.3906 170.903 10.082C170.328 9.77344 151.187 6.89343 146.438 6.6877C139.386 6.27631 136.507 6.99633 136.652 7.09916Z" fill="url(#paint5_linear_433_1316)"/>
<path d="M298.699 14.711C298.699 14.711 296.972 15.0196 294.525 14.8139C292.079 14.6081 286.178 13.8881 282.724 14.0939C276.68 14.5053 272.074 16.871 272.65 16.7681C273.226 16.7681 278.838 14.5053 285.027 14.8139C287.617 14.9167 292.367 15.3282 294.669 15.2253C296.972 15.1224 298.699 14.711 298.699 14.711Z" fill="url(#paint6_linear_433_1316)"/>
<path d="M250.344 21.6004C250.056 21.4975 247.465 22.4232 244.155 22.7318C240.846 22.9375 241.133 23.0404 241.133 23.2461C241.133 23.349 243.723 23.6575 246.027 23.2461C248.329 22.7318 250.632 21.7033 250.344 21.6004Z" fill="url(#paint7_linear_433_1316)"/>
<path d="M336.549 20.9836C336.549 21.0864 330.361 20.9836 326.907 20.4693C323.453 19.955 319.711 18.5151 319.711 18.4122C319.711 18.3093 323.597 19.235 327.051 19.8522C330.361 20.4693 336.406 20.8807 336.549 20.9836Z" fill="url(#paint8_linear_433_1316)"/>
</g>
</g>
<defs>
<linearGradient id="paint0_linear_433_1316" x1="2.50008" y1="35.0002" x2="311.79" y2="-51.3633" gradientUnits="userSpaceOnUse">
<stop stop-color="#052D23"/>
<stop offset="1" stop-color="#BFD8BD"/>
</linearGradient>
<linearGradient id="paint1_linear_433_1316" x1="-13.367" y1="19.0038" x2="-13.3649" y2="15.3261" gradientUnits="userSpaceOnUse">
<stop stop-color="#052D23"/>
<stop offset="1" stop-color="#BFD8BD"/>
</linearGradient>
<linearGradient id="paint2_linear_433_1316" x1="46.043" y1="26.5367" x2="46.0438" y2="24.3612" gradientUnits="userSpaceOnUse">
<stop stop-color="#052D23"/>
<stop offset="1" stop-color="#BFD8BD"/>
</linearGradient>
<linearGradient id="paint3_linear_433_1316" x1="60.625" y1="21.9308" x2="60.626" y2="20.7015" gradientUnits="userSpaceOnUse">
<stop stop-color="#052D23"/>
<stop offset="1" stop-color="#BFD8BD"/>
</linearGradient>
<linearGradient id="paint4_linear_433_1316" x1="77.8705" y1="23.584" x2="77.8802" y2="17.9023" gradientUnits="userSpaceOnUse">
<stop stop-color="#052D23"/>
<stop offset="1" stop-color="#BFD8BD"/>
</linearGradient>
<linearGradient id="paint5_linear_433_1316" x1="152.281" y1="10.0557" x2="152.283" y2="6.36682" gradientUnits="userSpaceOnUse">
<stop stop-color="#052D23"/>
<stop offset="1" stop-color="#BFD8BD"/>
</linearGradient>
<linearGradient id="paint6_linear_433_1316" x1="284.507" y1="16.7317" x2="284.508" y2="13.908" gradientUnits="userSpaceOnUse">
<stop stop-color="#052D23"/>
<stop offset="1" stop-color="#BFD8BD"/>
</linearGradient>
<linearGradient id="paint7_linear_433_1316" x1="245.343" y1="23.4268" x2="245.345" y2="21.49" gradientUnits="userSpaceOnUse">
<stop stop-color="#052D23"/>
<stop offset="1" stop-color="#BFD8BD"/>
</linearGradient>
<linearGradient id="paint8_linear_433_1316" x1="327.392" y1="20.9812" x2="327.394" y2="18.2604" gradientUnits="userSpaceOnUse">
<stop stop-color="#052D23"/>
<stop offset="1" stop-color="#BFD8BD"/>
</linearGradient>
<clipPath id="clip0_433_1316">
<rect width="40" height="606.13" fill="white" transform="translate(-49 40.5614) rotate(-90)"/>
</clipPath>
<clipPath id="clip1_433_1316">
<rect width="28" height="408" fill="white" transform="translate(-49 34.5614) rotate(-90)"/>
</clipPath>
</defs>
</svg>
