<svg width="340" height="387" viewBox="0 0 340 387" fill="none" xmlns="http://www.w3.org/2000/svg">
<g opacity="0.08" clip-path="url(#clip0_900_1253)">
<path d="M779.677 -185.27C625.623 -194.788 549.389 -167.82 492.214 25.712C465.691 115.491 404.864 128.823 234.927 131.995C122.682 134.091 122.027 189.333 82.3342 243.816C21.5071 327.307 -71.0528 359.649 -152.37 359.649C-167.148 359.649 -237.554 358.95 -287.996 328.441" stroke="white" stroke-width="1.33333" stroke-miterlimit="10" stroke-linecap="round" stroke-linejoin="round"/>
<path d="M774.129 -196.435C620.003 -207.783 542.849 -179.766 486.35 10.4587C459.729 99.8206 401.566 115.4 230.957 117.291C151.698 118.17 122.949 143.664 103.341 180.628C96.674 193.196 79.4795 226.958 61.5523 246.195C7.36848 304.34 -66.6149 345.274 -152.37 345.274C-197.9 345.274 -257.518 336.131 -318.473 291.811" stroke="white" stroke-width="1.33333" stroke-miterlimit="10" stroke-linecap="round" stroke-linejoin="round"/>
<path d="M92.4727 178.105C92.484 178.094 92.4954 178.083 92.4954 178.06C115.636 135.941 138.413 102.9 226.986 102.582C398.261 101.981 453.766 84.155 480.485 -4.79165C536.308 -191.717 614.385 -220.776 768.574 -207.602" stroke="white" stroke-width="1.33333" stroke-miterlimit="10" stroke-linecap="round" stroke-linejoin="round"/>
<path d="M117.238 99.541C138.152 82.8727 168.097 72.604 219.047 73.1826C391.673 75.1343 441.85 52.8041 468.762 -35.3029C523.233 -215.602 603.14 -246.771 757.477 -229.933" stroke="white" stroke-width="1.33333" stroke-miterlimit="10" stroke-linecap="round" stroke-linejoin="round"/>
<path d="M119.623 78.7314C140.525 65.4331 169.562 57.6266 215.07 58.4776C388.367 61.7115 435.885 37.1345 462.888 -50.5526C516.689 -227.55 597.527 -259.763 751.932 -241.097" stroke="white" stroke-width="1.33333" stroke-miterlimit="10" stroke-linecap="round" stroke-linejoin="round"/>
<path d="M120.396 59.9756C141.197 48.8899 169.347 42.6833 211.106 43.7726C385.073 48.2885 430.115 21.5217 457.027 -65.8023C510.522 -239.384 591.905 -272.766 746.389 -252.262" stroke="white" stroke-width="1.33333" stroke-miterlimit="10" stroke-linecap="round" stroke-linejoin="round"/>
<path d="M119.965 42.3887C140.64 32.8688 168.018 27.7628 207.13 29.0677C381.779 34.8658 424.174 5.86371 451.166 -81.0632C504.035 -251.309 586.281 -285.757 740.834 -263.427" stroke="white" stroke-width="1.33333" stroke-miterlimit="10" stroke-linecap="round" stroke-linejoin="round"/>
<path d="M118.498 25.5838C139.082 17.1646 165.892 12.8642 203.164 14.3619C378.472 21.4423 418.232 -9.79512 445.303 -96.3135C497.524 -263.246 580.668 -298.75 735.289 -274.593" stroke="white" stroke-width="1.33333" stroke-miterlimit="10" stroke-linecap="round" stroke-linejoin="round"/>
<path d="M116.09 9.32422C136.674 1.67656 163.12 -2.05652 199.188 -0.343174C375.177 8.01933 412.29 -25.4647 439.441 -111.563C491.015 -275.182 575.045 -311.753 729.734 -285.758" stroke="white" stroke-width="1.33333" stroke-miterlimit="10" stroke-linecap="round" stroke-linejoin="round"/>
<path d="M112.125 124.754C132.846 102.355 163.188 87.6501 223.01 87.8884C394.966 88.5579 447.802 68.4743 474.623 -20.0525C529.764 -203.665 608.761 -233.779 763.03 -218.767" stroke="white" stroke-width="1.33333" stroke-miterlimit="10" stroke-linecap="round" stroke-linejoin="round"/>
<path d="M92.4952 178.06C92.4952 178.083 92.4839 178.094 92.4727 178.105" stroke="white" stroke-width="1.33333" stroke-miterlimit="10" stroke-linecap="round" stroke-linejoin="round"/>
<path d="M-93.832 622.169C-93.832 622.169 -45.3357 519.958 55.4502 473.051C195.224 408.012 325.455 450.846 379.79 390.05C400.192 367.221 409.189 343.279 413.904 320.608" stroke="white" stroke-width="1.33333" stroke-miterlimit="10" stroke-linecap="round" stroke-linejoin="round"/>
<path d="M-81.0156 630.112C-81.0156 630.112 -35.0873 528.492 70.5153 482.14C209.369 421.197 338.873 464.111 393.389 402.861C414.928 378.704 423.493 353.095 427.708 329.028" stroke="white" stroke-width="1.33333" stroke-miterlimit="10" stroke-linecap="round" stroke-linejoin="round"/>
<path d="M-68.2031 638.055C-68.2031 638.055 -24.9327 537.001 85.5774 491.217C223.352 434.144 352.276 477.363 406.986 415.683C430.013 389.767 437.919 361.979 441.498 336.131" stroke="white" stroke-width="1.33333" stroke-miterlimit="10" stroke-linecap="round" stroke-linejoin="round"/>
<path d="M-55.377 645.997C-55.377 645.997 -14.8672 545.477 100.63 500.295C237.2 446.886 365.693 490.616 420.584 428.504C445.451 400.444 452.313 369.921 455.164 342.008" stroke="white" stroke-width="1.33333" stroke-miterlimit="10" stroke-linecap="round" stroke-linejoin="round"/>
<path d="M-42.5625 653.94C-42.5625 653.94 -4.8814 553.908 115.694 509.373C250.923 459.436 379.098 503.881 434.183 441.315C461.185 410.77 466.525 376.957 468.603 346.752" stroke="white" stroke-width="1.33333" stroke-miterlimit="10" stroke-linecap="round" stroke-linejoin="round"/>
<path d="M-29.75 661.883C-29.75 661.883 5.04569 562.304 130.755 518.461C264.542 471.803 392.513 517.133 447.779 454.136C477.19 420.766 480.371 383.106 481.745 350.485" stroke="white" stroke-width="1.33333" stroke-miterlimit="10" stroke-linecap="round" stroke-linejoin="round"/>
<path d="M-16.9355 669.825C-16.9355 669.825 14.9065 570.632 145.819 527.538C278.072 484 405.918 530.397 461.377 466.958C493.469 430.444 493.674 388.291 494.628 353.276" stroke="white" stroke-width="1.33333" stroke-miterlimit="10" stroke-linecap="round" stroke-linejoin="round"/>
<path d="M-4.12109 677.769C-4.12109 677.769 24.6992 578.893 160.872 536.616C291.534 496.052 419.334 543.651 474.976 479.769C510.01 439.795 506.261 392.468 507.363 355.273" stroke="white" stroke-width="1.33333" stroke-miterlimit="10" stroke-linecap="round" stroke-linejoin="round"/>
<path d="M8.69336 685.711C8.69336 685.711 34.4465 587.085 175.935 545.704C304.928 507.965 432.751 556.903 488.574 492.591C526.834 448.792 517.849 395.452 520.098 356.51" stroke="white" stroke-width="1.33333" stroke-miterlimit="10" stroke-linecap="round" stroke-linejoin="round"/>
<path d="M21.5078 693.653C21.5078 693.653 44.1483 595.198 190.999 554.781C318.265 519.743 446.156 570.167 502.172 505.412C544.034 457.358 528.141 396.904 533.276 357.009" stroke="white" stroke-width="1.33333" stroke-miterlimit="10" stroke-linecap="round" stroke-linejoin="round"/>
<path d="M34.3203 701.597C34.3203 701.597 53.8141 603.232 206.061 563.859C331.555 531.408 459.571 583.421 515.768 518.223C561.799 465.234 536.523 396.053 547.633 356.68" stroke="white" stroke-width="1.33333" stroke-miterlimit="10" stroke-linecap="round" stroke-linejoin="round"/>
<path d="M47.1367 709.539C47.1367 709.539 63.427 611.163 221.126 572.936C344.814 542.958 472.978 596.673 529.369 531.044C580.784 471.667 541.297 390.504 565.437 354.967" stroke="white" stroke-width="1.33333" stroke-miterlimit="10" stroke-linecap="round" stroke-linejoin="round"/>
<path d="M59.9531 717.485C59.9531 717.485 73.0171 618.993 236.181 582.022C358.032 554.412 486.259 609.822 542.966 543.863C613.028 462.365 510.183 337.507 639.149 349.217C768.116 360.927 850.611 343.638 844.444 233.576" stroke="white" stroke-width="1.33333" stroke-miterlimit="10" stroke-linecap="round" stroke-linejoin="round"/>
<path d="M72.7676 725.429C72.7676 725.429 82.5735 626.713 251.241 591.101C371.229 565.767 499.666 623.076 556.563 556.68C626.006 475.642 521.872 348.947 649.937 360.576C778.005 372.205 861.666 355.326 854.927 244.023" stroke="white" stroke-width="1.33333" stroke-miterlimit="10" stroke-linecap="round" stroke-linejoin="round"/>
<path d="M85.584 733.371C85.584 733.371 92.1046 634.317 266.303 600.18C384.408 577.038 513.076 636.332 570.162 569.497C638.988 488.918 533.561 360.389 660.727 371.936C787.896 383.483 872.723 367.013 865.412 254.471" stroke="white" stroke-width="1.33333" stroke-miterlimit="10" stroke-linecap="round" stroke-linejoin="round"/>
<path d="M98.3984 741.314C98.3984 741.314 101.611 641.797 281.364 609.262C397.572 588.227 526.485 649.589 583.759 582.316C651.968 502.198 545.249 371.83 671.516 383.296C797.784 394.762 883.777 378.702 875.896 264.92" stroke="white" stroke-width="1.33333" stroke-miterlimit="10" stroke-linecap="round" stroke-linejoin="round"/>
<path d="M111.213 749.257C111.213 749.257 111.102 649.144 296.424 618.342C410.726 599.345 539.897 662.846 597.357 595.134C664.952 515.477 556.937 383.272 682.305 394.656C807.673 406.04 894.834 390.39 886.38 275.367" stroke="white" stroke-width="1.33333" stroke-miterlimit="10" stroke-linecap="round" stroke-linejoin="round"/>
<path d="M124.028 757.199C124.028 757.199 120.575 656.349 311.485 627.422C423.875 610.391 553.31 676.106 610.954 607.952C677.937 528.758 568.625 394.714 693.093 406.015C817.562 417.317 905.888 402.078 896.863 285.815" stroke="white" stroke-width="1.33333" stroke-miterlimit="10" stroke-linecap="round" stroke-linejoin="round"/>
<path d="M136.843 765.143C136.843 765.143 130.041 663.406 326.546 636.503C437.024 621.378 566.861 689.482 624.553 620.771C691.079 542.172 580.312 406.155 703.882 417.376C827.451 428.597 916.943 413.765 907.348 296.264" stroke="white" stroke-width="1.33333" stroke-miterlimit="10" stroke-linecap="round" stroke-linejoin="round"/>
<path d="M149.659 773.086C149.659 773.086 139.5 670.303 341.607 645.583C450.176 632.304 580.274 702.738 638.15 633.588C704.061 555.45 592.002 417.597 714.673 428.736C837.341 439.874 928 425.453 917.833 306.71" stroke="white" stroke-width="1.33333" stroke-miterlimit="10" stroke-linecap="round" stroke-linejoin="round"/>
<path d="M162.474 781.028C162.474 781.028 148.957 677.033 356.668 654.663C463.334 643.175 593.684 715.995 651.748 646.406C717.042 568.727 603.69 429.037 725.461 440.096C847.23 451.153 939.054 437.141 928.315 317.158" stroke="white" stroke-width="1.33333" stroke-miterlimit="10" stroke-linecap="round" stroke-linejoin="round"/>
<path d="M175.289 788.972C175.289 788.972 158.417 683.586 371.729 663.744C476.502 653.998 607.097 729.253 665.346 659.225C730.022 582.005 615.379 440.48 736.25 451.456C857.119 462.431 950.111 448.83 938.799 327.607" stroke="white" stroke-width="1.33333" stroke-miterlimit="10" stroke-linecap="round" stroke-linejoin="round"/>
<path d="M188.103 796.914C188.103 796.914 167.885 689.952 386.789 672.824C489.684 664.773 620.506 742.51 678.945 672.042C743.002 595.283 627.067 451.922 747.037 462.816C867.008 473.709 961.164 460.518 949.283 338.054" stroke="white" stroke-width="1.33333" stroke-miterlimit="10" stroke-linecap="round" stroke-linejoin="round"/>
<path d="M200.919 804.856C200.919 804.856 177.368 696.121 401.851 681.905C502.882 675.505 633.918 755.767 692.542 684.86C755.985 608.559 638.755 463.362 757.826 474.176C876.897 484.987 972.226 472.205 959.767 348.502" stroke="white" stroke-width="1.33333" stroke-miterlimit="10" stroke-linecap="round" stroke-linejoin="round"/>
<path d="M213.732 812.801C213.732 812.801 186.869 702.086 416.909 690.985C516.098 686.199 647.328 769.025 706.139 697.679C768.965 621.837 650.443 474.805 768.614 485.535C886.786 496.265 983.278 483.895 970.248 358.951" stroke="white" stroke-width="1.33333" stroke-miterlimit="10" stroke-linecap="round" stroke-linejoin="round"/>
<path d="M226.548 820.743C226.548 820.743 197.498 724.065 431.971 700.066C528.886 690.146 660.741 782.282 719.737 710.495C781.945 635.115 662.131 486.245 779.403 496.894C896.675 507.543 994.332 495.582 980.734 369.398" stroke="white" stroke-width="1.33333" stroke-miterlimit="10" stroke-linecap="round" stroke-linejoin="round"/>
<path d="M239.363 828.686C239.363 828.686 206.535 726.269 447.032 709.146C542.381 702.356 674.153 795.539 733.334 723.313C794.926 648.393 673.82 497.687 790.192 508.254C906.565 518.821 1005.39 507.27 991.219 379.846" stroke="white" stroke-width="1.33333" stroke-miterlimit="10" stroke-linecap="round" stroke-linejoin="round"/>
<path d="M535.128 -82.4706H535.23C656.736 -82.4706 755.239 15.9051 755.239 137.281C755.239 258.645 656.736 357.02 535.23 357.02C413.723 357.02 315.221 258.645 315.221 137.281C315.221 134.501 315.278 131.743 315.368 128.986" stroke="white" stroke-width="1.33333" stroke-miterlimit="10" stroke-linecap="round" stroke-linejoin="round"/>
<path d="M528.595 -70.0914C530.799 -70.1594 533.014 -70.1935 535.229 -70.1935C649.943 -70.1935 742.947 22.6904 742.947 137.281C742.947 251.859 649.943 344.743 535.229 344.743C420.505 344.743 327.512 251.859 327.512 137.281C327.512 134.194 327.58 131.131 327.716 128.078" stroke="white" stroke-width="1.33333" stroke-miterlimit="10" stroke-linecap="round" stroke-linejoin="round"/>
<path d="M522.54 -57.5078C526.731 -57.7801 530.969 -57.9163 535.229 -57.9163C643.16 -57.9163 730.655 29.4758 730.655 137.281C730.655 245.074 643.16 332.478 535.229 332.478C427.297 332.478 339.803 245.074 339.803 137.281C339.803 133.82 339.894 130.393 340.064 126.978" stroke="white" stroke-width="1.33333" stroke-miterlimit="10" stroke-linecap="round" stroke-linejoin="round"/>
<path d="M120.402 57.8819C120.402 208.354 -1.72323 330.335 -152.371 330.335C-303.02 330.335 -425.145 208.354 -425.145 57.8819C-425.145 -92.5898 -303.02 -214.571 -152.371 -214.571C-1.72323 -214.571 120.402 -92.5898 120.402 57.8819Z" stroke="white" stroke-width="1.33333" stroke-miterlimit="10" stroke-linecap="round" stroke-linejoin="round"/>
<path d="M-152.371 -199.351C-10.1388 -199.351 105.163 -84.1833 105.163 57.8817C105.163 199.948 -10.1388 315.114 -152.371 315.114C-294.603 315.114 -409.906 199.948 -409.906 57.8817C-409.906 -84.1833 -294.603 -199.351 -152.371 -199.351Z" stroke="white" stroke-width="1.33333" stroke-miterlimit="10" stroke-linecap="round" stroke-linejoin="round"/>
<path d="M-152.37 -184.129C-18.5546 -184.129 89.9254 -75.777 89.9254 57.8824C89.9254 191.542 -18.5546 299.895 -152.37 299.895C-286.186 299.895 -394.666 191.542 -394.666 57.8824C-394.666 -75.777 -286.186 -184.129 -152.37 -184.129Z" stroke="white" stroke-width="1.33333" stroke-miterlimit="10" stroke-linecap="round" stroke-linejoin="round"/>
<path d="M-152.37 -168.908C-26.9701 -168.908 74.6872 -67.3703 74.6872 57.8823C74.6872 183.136 -26.9701 284.673 -152.37 284.673C-277.771 284.673 -379.428 183.136 -379.428 57.8823C-379.428 -67.3703 -277.771 -168.908 -152.37 -168.908Z" stroke="white" stroke-width="1.33333" stroke-miterlimit="10" stroke-linecap="round" stroke-linejoin="round"/>
<path d="M-152.371 -153.688C-35.3879 -153.688 59.4465 -58.9648 59.4465 57.8822C59.4465 174.729 -35.3879 269.452 -152.371 269.452C-269.356 269.452 -364.189 174.729 -364.189 57.8822C-364.189 -58.9648 -269.356 -153.688 -152.371 -153.688Z" stroke="white" stroke-width="1.33333" stroke-miterlimit="10" stroke-linecap="round" stroke-linejoin="round"/>
<path d="M-152.369 -138.467C-43.8015 -138.467 44.2102 -50.5583 44.2102 57.8819C44.2102 166.322 -43.8015 254.23 -152.369 254.23C-260.938 254.23 -348.949 166.322 -348.949 57.8819C-348.949 -50.5583 -260.938 -138.467 -152.369 -138.467Z" stroke="white" stroke-width="1.33333" stroke-miterlimit="10" stroke-linecap="round" stroke-linejoin="round"/>
<path d="M-152.369 -123.247C-52.2181 -123.247 28.9707 -42.153 28.9707 57.8816C28.9707 157.916 -52.2181 239.01 -152.369 239.01C-252.522 239.01 -333.711 157.916 -333.711 57.8816C-333.711 -42.153 -252.522 -123.247 -152.369 -123.247Z" stroke="white" stroke-width="1.33333" stroke-miterlimit="10" stroke-linecap="round" stroke-linejoin="round"/>
<path d="M-152.37 -108.024C-60.6353 -108.024 13.7312 -33.7457 13.7312 57.8821C13.7312 149.51 -60.6353 223.79 -152.37 223.79C-244.106 223.79 -318.473 149.51 -318.473 57.8821C-318.473 -33.7457 -244.106 -108.024 -152.37 -108.024Z" stroke="white" stroke-width="1.33333" stroke-miterlimit="10" stroke-linecap="round" stroke-linejoin="round"/>
<path d="M30.0505 486.634C24.5182 471.247 21.5078 454.647 21.5078 437.355C21.5078 356.759 86.9187 291.425 167.609 291.425C243.232 291.425 305.428 348.805 312.949 422.355" stroke="white" stroke-width="1.33333" stroke-miterlimit="10" stroke-linecap="round" stroke-linejoin="round"/>
<path d="M41.262 480.188C36.6952 466.743 34.2188 452.332 34.2188 437.355C34.2188 363.771 93.9383 304.111 167.608 304.111C236.927 304.111 293.908 356.929 300.384 424.476" stroke="white" stroke-width="1.33333" stroke-miterlimit="10" stroke-linecap="round" stroke-linejoin="round"/>
<path d="M52.7249 474.356C48.9534 462.704 46.9199 450.267 46.9199 437.355C46.9199 370.784 100.959 316.808 167.609 316.808C230.486 316.808 282.14 364.85 287.775 426.179" stroke="white" stroke-width="1.33333" stroke-miterlimit="10" stroke-linecap="round" stroke-linejoin="round"/>
<path d="M64.368 469.046C61.2894 459.027 59.6309 448.383 59.6309 437.355C59.6309 377.784 107.968 329.493 167.608 329.493C223.942 329.493 270.211 372.588 275.153 427.574" stroke="white" stroke-width="1.33333" stroke-miterlimit="10" stroke-linecap="round" stroke-linejoin="round"/>
<path d="M76.1717 464.155C73.6725 455.656 72.332 446.659 72.332 437.355C72.332 384.797 114.989 342.19 167.608 342.19C217.342 342.19 258.17 380.247 262.498 428.799" stroke="white" stroke-width="1.33333" stroke-miterlimit="10" stroke-linecap="round" stroke-linejoin="round"/>
<path d="M88.0988 459.651C86.1108 452.56 85.043 445.082 85.043 437.355C85.043 391.809 122.008 354.887 167.607 354.887C210.707 354.887 246.105 387.872 249.842 429.946" stroke="white" stroke-width="1.33333" stroke-miterlimit="10" stroke-linecap="round" stroke-linejoin="round"/>
<path d="M100.152 455.544C98.5734 449.745 97.7441 443.641 97.7441 437.355C97.7441 398.81 129.018 367.573 167.608 367.573C204.074 367.573 234.007 395.474 237.188 431.068" stroke="white" stroke-width="1.33333" stroke-miterlimit="10" stroke-linecap="round" stroke-linejoin="round"/>
<path d="M112.309 451.822C111.105 447.204 110.457 442.359 110.457 437.355C110.457 405.823 136.04 380.27 167.609 380.27C197.452 380.27 221.955 403.1 224.534 432.238" stroke="white" stroke-width="1.33333" stroke-miterlimit="10" stroke-linecap="round" stroke-linejoin="round"/>
<path d="M-186.848 357.985C-105.226 410.157 -37.7816 389.608 3.61424 504.731" stroke="white" stroke-width="1.33333" stroke-miterlimit="10" stroke-linecap="round" stroke-linejoin="round"/>
<path d="M-155.902 359.63C-82.6761 398.776 -22.3317 389.064 15.7129 495.893" stroke="white" stroke-width="1.33333" stroke-miterlimit="10" stroke-linecap="round" stroke-linejoin="round"/>
<path d="M-127.139 358.609C-61.1828 388.995 -6.92726 387.77 28.0615 487.836" stroke="white" stroke-width="1.33333" stroke-miterlimit="10" stroke-linecap="round" stroke-linejoin="round"/>
<path d="M-101.203 355.386C-51.9464 375.833 -9.89168 382.958 21.5074 437.195" stroke="white" stroke-width="1.33333" stroke-miterlimit="10" stroke-linecap="round" stroke-linejoin="round"/>
<path d="M-78.0391 350.598C-38.4499 366.064 -3.93824 375.459 23.587 412.698" stroke="white" stroke-width="1.33333" stroke-miterlimit="10" stroke-linecap="round" stroke-linejoin="round"/>
<path d="M-57.3535 344.663C-24.8414 357.043 4.01297 366.789 28.0507 394.021" stroke="white" stroke-width="1.33333" stroke-miterlimit="10" stroke-linecap="round" stroke-linejoin="round"/>
<path d="M-38.7344 337.913C-11.5499 348.193 12.9195 357.497 33.9923 378.25" stroke="white" stroke-width="1.33333" stroke-miterlimit="10" stroke-linecap="round" stroke-linejoin="round"/>
<path d="M-21.8652 330.491C1.33189 339.296 22.4728 347.874 41.0919 364.327" stroke="white" stroke-width="1.33333" stroke-miterlimit="10" stroke-linecap="round" stroke-linejoin="round"/>
<path d="M49.2712 351.756C32.5379 338.151 13.8621 330.288 -6.46094 322.527" stroke="white" stroke-width="1.33333" stroke-miterlimit="10" stroke-linecap="round" stroke-linejoin="round"/>
<path d="M58.5521 340.238C43.1252 328.438 26.0852 321.153 7.69336 314.084" stroke="white" stroke-width="1.33333" stroke-miterlimit="10" stroke-linecap="round" stroke-linejoin="round"/>
<path d="M68.9684 329.709C54.2799 318.861 38.1374 311.929 20.7793 305.234" stroke="white" stroke-width="1.33333" stroke-miterlimit="10" stroke-linecap="round" stroke-linejoin="round"/>
<path d="M80.6126 320.099C66.0377 309.433 50.0428 302.602 32.8438 295.987" stroke="white" stroke-width="1.33333" stroke-miterlimit="10" stroke-linecap="round" stroke-linejoin="round"/>
<path d="M93.5992 311.509C78.5472 300.276 61.9502 293.275 44.0469 286.421" stroke="white" stroke-width="1.33333" stroke-miterlimit="10" stroke-linecap="round" stroke-linejoin="round"/>
<path d="M108.083 304.043H108.072C91.9291 291.369 73.9462 283.982 54.4297 276.539" stroke="white" stroke-width="1.33333" stroke-miterlimit="10" stroke-linecap="round" stroke-linejoin="round"/>
<path d="M124.123 298.006H124.111C106.322 282.745 86.1577 274.745 64.0625 266.371" stroke="white" stroke-width="1.33333" stroke-miterlimit="10" stroke-linecap="round" stroke-linejoin="round"/>
<path d="M141.661 293.729H141.65C121.759 274.314 98.6525 265.645 72.9902 255.944" stroke="white" stroke-width="1.33333" stroke-miterlimit="10" stroke-linecap="round" stroke-linejoin="round"/>
<path d="M160.475 291.596H160.464C138.209 265.895 111.445 256.739 81.2617 245.279" stroke="white" stroke-width="1.33333" stroke-miterlimit="10" stroke-linecap="round" stroke-linejoin="round"/>
<path d="M180.081 291.958H180.07C155.418 257.18 124.451 248.024 88.8828 234.317" stroke="white" stroke-width="1.33333" stroke-miterlimit="10" stroke-linecap="round" stroke-linejoin="round"/>
<path d="M95.8926 223.107C137.516 239.582 173.084 247.831 199.916 295.011" stroke="white" stroke-width="1.33333" stroke-miterlimit="10" stroke-linecap="round" stroke-linejoin="round"/>
<path d="M102.549 211.67C150.681 231.481 191.043 237.574 219.591 300.945" stroke="white" stroke-width="1.33333" stroke-miterlimit="10" stroke-linecap="round" stroke-linejoin="round"/>
<path d="M109.184 200.119C164.018 223.811 209.174 226.273 238.824 309.909" stroke="white" stroke-width="1.33333" stroke-miterlimit="10" stroke-linecap="round" stroke-linejoin="round"/>
<path d="M116.17 188.59C174.026 214.948 221.511 214.165 251.911 303.963C254.183 310.657 256.455 317.102 258.761 323.32" stroke="white" stroke-width="1.33333" stroke-miterlimit="10" stroke-linecap="round" stroke-linejoin="round"/>
<path d="M123.953 177.289C183.627 205.894 232.589 202.456 263.636 294.125C271.372 316.978 279.256 336.948 287.798 354.354C287.798 354.365 287.81 354.376 287.81 354.388" stroke="white" stroke-width="1.33333" stroke-miterlimit="10" stroke-linecap="round" stroke-linejoin="round"/>
<path d="M301.826 379.611V379.622C311.266 394.543 321.661 407.013 333.543 417.396" stroke="white" stroke-width="1.33333" stroke-miterlimit="10" stroke-linecap="round" stroke-linejoin="round"/>
<path d="M133.039 166.532C193.929 196.896 243.913 191.427 275.357 284.288C295.976 345.197 317.605 385.421 350.242 411.212" stroke="white" stroke-width="1.33333" stroke-miterlimit="10" stroke-linecap="round" stroke-linejoin="round"/>
<path d="M144.035 156.661C205.288 187.842 255.568 181.363 287.08 274.439C308.267 337.028 330.521 377.615 364.874 403.065" stroke="white" stroke-width="1.33333" stroke-miterlimit="10" stroke-linecap="round" stroke-linejoin="round"/>
<path d="M157.475 148.048C217.978 178.616 267.644 172.546 298.804 264.602C320.048 327.326 342.359 367.788 377.029 392.989" stroke="white" stroke-width="1.33333" stroke-miterlimit="10" stroke-linecap="round" stroke-linejoin="round"/>
<path d="M174.072 140.98C232.383 169.233 280.254 165.341 310.529 254.764C331.374 316.32 353.254 356.272 387.015 381.325" stroke="white" stroke-width="1.33333" stroke-miterlimit="10" stroke-linecap="round" stroke-linejoin="round"/>
<path d="M194.781 135.692C249.059 159.894 293.602 160.28 322.252 244.926C342.416 304.473 363.568 343.642 395.66 368.616" stroke="white" stroke-width="1.33333" stroke-miterlimit="10" stroke-linecap="round" stroke-linejoin="round"/>
<path d="M221.387 132.537C268.962 151.418 308.041 158.431 333.987 235.077C353.174 291.765 373.259 329.834 402.976 354.717" stroke="white" stroke-width="1.33333" stroke-miterlimit="10" stroke-linecap="round" stroke-linejoin="round"/>
<path d="M255.023 131.551C278.834 140.662 300.032 149.932 317.912 171.752" stroke="white" stroke-width="1.33333" stroke-miterlimit="10" stroke-linecap="round" stroke-linejoin="round"/>
<path d="M315.471 147.855C306.599 140.526 297.08 135.124 286.98 130.495" stroke="white" stroke-width="1.33333" stroke-miterlimit="10" stroke-linecap="round" stroke-linejoin="round"/>
<path d="M315.345 129.837C314.925 129.576 314.504 129.315 314.084 129.066" stroke="white" stroke-width="1.33333" stroke-miterlimit="10" stroke-linecap="round" stroke-linejoin="round"/>
</g>
<defs>
<clipPath id="clip0_900_1253">
<rect width="340" height="387" fill="white"/>
</clipPath>
</defs>
</svg>
