<svg width="36" height="431" viewBox="0 0 36 431" fill="none" xmlns="http://www.w3.org/2000/svg">
<path d="M14.1935 1.71696e-07C14.1935 1.71696e-07 20.5764 15.6076 21.0217 29.9323C21.4671 44.471 21.0217 56.8715 18.7952 74.617C15.8264 98.7768 3.80278 145.385 10.3341 170.187C16.8655 194.988 17.1623 196.057 21.3186 208.671C26.0686 222.782 35.5688 251.432 35.1234 286.923C34.6781 324.765 10.4825 393.397 11.67 421.618C11.8185 424.611 12.8575 435.73 14.6388 444.068C16.4202 452.192 20.2795 464.165 21.6155 480.415C22.2092 487.256 23.2483 498.16 22.9514 510.774C22.803 513.981 22.3577 524.244 20.5764 536.43C18.7952 548.617 15.9748 559.949 15.0841 570.211C13.4513 592.232 15.8264 606.13 15.8264 606.13H-0.205078L-0.205071 0L14.1935 1.71696e-07ZM16.5686 48.5331C15.0841 50.0298 15.9748 52.8092 15.9748 57.7266C15.9748 62.6442 14.1935 70.7686 14.3419 70.1272C14.4904 69.4858 16.5686 63.4993 17.1623 57.299C17.9045 50.8849 18.053 47.2504 16.5686 48.5331ZM12.5607 87.8728C12.5607 87.8728 12.2638 93.0041 11.2247 99.8458C10.0372 106.687 7.06845 121.868 6.02937 132.13C4.39654 149.662 6.02937 165.911 6.17781 164.414C6.32625 162.704 5.28718 143.889 7.81065 126.785C8.84972 119.73 11.0763 106.901 11.8185 100.273C12.7091 93.2179 12.5607 87.8728 12.5607 87.8728ZM12.4122 210.168C11.3732 206.533 19.3889 238.603 21.467 249.722C22.3577 254.211 23.8421 262.977 24.4358 271.102C25.0296 279.44 25.0296 290.13 25.178 289.916C25.4749 289.916 26.3655 277.516 25.178 265.97C23.9905 254.425 23.5452 254.852 22.803 249.722C21.6155 241.596 13.4513 213.802 12.4122 210.168ZM10.0372 180.449C10.0372 180.022 9.44347 182.159 11.67 190.712C13.8966 199.264 16.8655 205.037 17.1623 205.464C17.3108 205.892 14.4904 197.981 12.7091 191.353C10.9279 184.939 10.0372 180.663 10.0372 180.449ZM8.70128 1.06901C8.84972 1.28281 10.3341 5.13123 12.4122 11.3315C14.4904 17.5318 16.5686 26.0839 16.4202 25.6563C16.4202 25.2287 15.5294 18.1732 12.7091 9.83492C9.88879 1.49664 8.55284 0.85521 8.70128 1.06901ZM17.0139 539.21C16.717 538.996 16.717 543.272 15.2325 548.831C13.7482 554.39 12.8575 560.376 12.2638 565.507C11.0763 574.06 12.4122 590.522 12.5607 589.668C12.7091 589.026 12.1154 572.135 13.5997 562.942C14.3419 558.239 14.3419 557.81 15.9748 550.755C17.6077 543.7 17.4592 539.423 17.0139 539.21ZM13.4513 450.055C13.3029 449.199 11.0763 442.571 9.59191 432.095C7.95908 421.618 8.84972 413.066 8.40439 413.066C7.95908 413.066 7.06844 415.204 7.95908 426.323C8.84972 437.44 13.5997 450.909 13.4513 450.055ZM9.74035 453.048C9.88878 452.62 7.81064 445.778 7.21688 440.861C6.77157 435.943 6.47469 436.799 6.32624 436.799C6.1778 436.799 6.02937 439.15 6.62313 442.571C7.36532 446.206 9.59191 453.475 9.74035 453.048ZM6.32624 406.011C6.62313 405.797 7.51376 398.527 8.99816 394.038C10.4825 389.548 9.88878 390.189 9.74035 389.976C9.59191 389.762 8.55283 391.686 7.81064 395.107C6.92 398.527 6.02937 406.224 6.32624 406.011ZM16.2717 466.303C16.717 466.517 17.0139 465.661 15.9748 462.241C14.9357 458.82 14.045 456.682 14.1935 457.537C14.3419 458.393 14.7872 459.462 15.381 462.882C15.9748 466.517 15.8264 466.09 16.2717 466.303ZM18.2014 532.368C18.2014 532.795 19.3889 527.879 19.5374 525.313C19.6858 522.747 19.6858 521.036 19.2405 521.036C18.7952 521.036 18.4983 521.251 18.6467 524.457C18.7952 527.879 18.2014 531.941 18.2014 532.368ZM31.1156 280.723C31.2641 280.936 30.6703 285.854 30.6703 296.758C30.6703 307.448 27.1077 325.835 25.4749 333.532C23.8421 341.229 31.2641 312.152 31.5609 298.254C31.8578 284.357 30.9672 280.509 31.1156 280.723Z" fill="#BED7BC"/>
</svg>
