<svg width="1920" height="956" viewBox="0 0 1920 956" fill="none" xmlns="http://www.w3.org/2000/svg">
<g opacity="0.14" clip-path="url(#clip0_90_1480)">
<path d="M2179.88 -462.378C1822.05 -484.499 1644.98 -421.821 1512.17 27.9824C1450.56 236.646 1309.28 267.63 914.553 275.004C653.832 279.874 652.312 408.268 560.114 534.894C418.827 728.942 203.831 804.112 14.9491 804.112C-19.3753 804.112 -182.913 802.488 -300.078 731.58" stroke="white" stroke-width="1.33333" stroke-miterlimit="10" stroke-linecap="round" stroke-linejoin="round"/>
<path d="M2166.99 -488.328C1808.99 -514.702 1629.78 -449.585 1498.55 -7.46887C1436.71 200.224 1301.62 236.432 905.33 240.829C721.23 242.872 654.451 302.124 608.907 388.036C593.421 417.245 553.482 495.714 511.841 540.424C385.985 675.564 214.138 770.702 14.9482 770.702C-90.8069 770.702 -229.286 749.452 -370.869 646.444" stroke="white" stroke-width="1.33333" stroke-miterlimit="10" stroke-linecap="round" stroke-linejoin="round"/>
<path d="M583.664 382.173C583.69 382.146 583.717 382.12 583.717 382.067C637.466 284.176 690.372 207.381 896.109 206.643C1293.94 205.245 1422.87 163.815 1484.93 -42.9127C1614.59 -477.36 1795.95 -544.898 2154.09 -514.281" stroke="white" stroke-width="1.33333" stroke-miterlimit="10" stroke-linecap="round" stroke-linejoin="round"/>
<path d="M641.188 199.575C689.765 160.835 759.321 136.969 877.665 138.314C1278.64 142.85 1395.19 90.9502 1457.7 -113.826C1584.22 -532.873 1769.82 -605.316 2128.31 -566.18" stroke="white" stroke-width="1.33333" stroke-miterlimit="10" stroke-linecap="round" stroke-linejoin="round"/>
<path d="M646.729 151.21C695.28 120.302 762.724 102.159 868.429 104.137C1270.96 111.652 1381.33 54.5312 1444.05 -149.269C1569.02 -560.642 1756.79 -635.511 2115.44 -592.129" stroke="white" stroke-width="1.33333" stroke-miterlimit="10" stroke-linecap="round" stroke-linejoin="round"/>
<path d="M648.523 107.617C696.837 81.852 762.224 67.4268 859.221 69.9584C1263.31 80.4544 1367.93 18.2435 1430.44 -184.713C1554.69 -588.148 1743.73 -665.733 2102.56 -618.079" stroke="white" stroke-width="1.33333" stroke-miterlimit="10" stroke-linecap="round" stroke-linejoin="round"/>
<path d="M647.52 66.7412C695.543 44.6153 759.135 32.7481 849.984 35.7809C1255.65 49.2568 1354.13 -18.1493 1416.82 -220.183C1539.63 -615.864 1730.67 -695.929 2089.66 -644.029" stroke="white" stroke-width="1.33333" stroke-miterlimit="10" stroke-linecap="round" stroke-linejoin="round"/>
<path d="M644.115 27.6846C691.928 8.11677 754.2 -1.87809 840.775 1.60298C1247.97 18.0589 1340.33 -54.5424 1403.21 -255.627C1524.51 -643.607 1717.63 -726.124 2076.78 -669.979" stroke="white" stroke-width="1.33333" stroke-miterlimit="10" stroke-linecap="round" stroke-linejoin="round"/>
<path d="M629.312 258.174C677.442 206.116 747.921 171.938 886.873 172.492C1286.29 174.048 1409.01 127.37 1471.31 -78.3819C1599.39 -505.129 1782.88 -575.119 2141.22 -540.23" stroke="white" stroke-width="1.33333" stroke-miterlimit="10" stroke-linecap="round" stroke-linejoin="round"/>
<path d="M583.717 382.067C583.717 382.12 583.69 382.146 583.664 382.173" stroke="white" stroke-width="1.33333" stroke-miterlimit="10" stroke-linecap="round" stroke-linejoin="round"/>
<path d="M150.922 1414.26C150.922 1414.26 263.568 1176.7 497.67 1067.68C822.332 916.517 1124.83 1016.07 1251.04 874.77C1298.43 821.71 1319.32 766.066 1330.27 713.375" stroke="white" stroke-width="1.33333" stroke-miterlimit="10" stroke-linecap="round" stroke-linejoin="round"/>
<path d="M180.688 1432.72C180.688 1432.72 287.369 1196.53 532.659 1088.8C855.183 947.161 1155.99 1046.9 1282.62 904.544C1332.65 848.398 1352.55 788.878 1362.33 732.943" stroke="white" stroke-width="1.33333" stroke-miterlimit="10" stroke-linecap="round" stroke-linejoin="round"/>
<path d="M210.451 1451.18C210.451 1451.18 310.959 1216.31 567.648 1109.9C887.666 977.25 1187.13 1077.7 1314.21 934.344C1367.69 874.111 1386.06 809.526 1394.37 749.452" stroke="white" stroke-width="1.33333" stroke-miterlimit="10" stroke-linecap="round" stroke-linejoin="round"/>
<path d="M240.242 1469.64C240.242 1469.64 334.337 1236.01 602.61 1131C919.831 1006.87 1218.29 1108.5 1345.79 964.144C1403.55 898.927 1419.49 827.987 1426.11 763.113" stroke="white" stroke-width="1.33333" stroke-miterlimit="10" stroke-linecap="round" stroke-linejoin="round"/>
<path d="M270.006 1488.1C270.006 1488.1 357.53 1255.6 637.598 1152.1C951.705 1036.03 1249.43 1139.33 1377.38 993.917C1440.1 922.925 1452.5 844.337 1457.33 774.136" stroke="white" stroke-width="1.33333" stroke-miterlimit="10" stroke-linecap="round" stroke-linejoin="round"/>
<path d="M299.77 1506.56C299.77 1506.56 380.592 1275.12 672.587 1173.22C983.343 1064.78 1280.59 1170.13 1408.96 1023.72C1477.27 946.159 1484.66 858.631 1487.86 782.812" stroke="white" stroke-width="1.33333" stroke-miterlimit="10" stroke-linecap="round" stroke-linejoin="round"/>
<path d="M329.535 1525.02C329.535 1525.02 403.497 1294.48 707.577 1194.32C1014.77 1093.13 1311.73 1200.96 1440.55 1053.52C1515.09 968.653 1515.56 870.683 1517.78 789.3" stroke="white" stroke-width="1.33333" stroke-miterlimit="10" stroke-linecap="round" stroke-linejoin="round"/>
<path d="M359.299 1543.48C359.299 1543.48 426.242 1313.67 742.539 1215.41C1046.04 1121.14 1342.89 1231.76 1472.13 1083.29C1553.51 990.384 1544.8 880.387 1547.36 793.941" stroke="white" stroke-width="1.33333" stroke-miterlimit="10" stroke-linecap="round" stroke-linejoin="round"/>
<path d="M389.062 1561.94C389.062 1561.94 448.881 1332.71 777.527 1236.54C1077.15 1148.83 1374.05 1262.57 1503.71 1113.09C1592.58 1011.3 1571.71 887.323 1576.94 796.815" stroke="white" stroke-width="1.33333" stroke-miterlimit="10" stroke-linecap="round" stroke-linejoin="round"/>
<path d="M2257.27 438.239C2266.13 649.952 2132.75 711.899 1902.1 707.837" stroke="white" stroke-width="1.33333" stroke-miterlimit="10" stroke-linecap="round" stroke-linejoin="round"/>
<path d="M418.826 1580.4C418.826 1580.4 471.415 1351.57 812.515 1257.63C1108.12 1176.2 1405.19 1293.4 1535.3 1142.89C1632.53 1031.21 1595.62 890.699 1607.55 797.976" stroke="white" stroke-width="1.33333" stroke-miterlimit="10" stroke-linecap="round" stroke-linejoin="round"/>
<path d="M2281.62 462.528C2292.49 695.443 2131.64 747.922 1864.02 731.704" stroke="white" stroke-width="1.33333" stroke-miterlimit="10" stroke-linecap="round" stroke-linejoin="round"/>
<path d="M448.592 1598.86C448.592 1598.86 493.871 1370.24 847.505 1278.73C1139 1203.31 1436.35 1324.2 1566.89 1172.67C1673.8 1049.51 1615.09 888.721 1640.9 797.211" stroke="white" stroke-width="1.33333" stroke-miterlimit="10" stroke-linecap="round" stroke-linejoin="round"/>
<path d="M2305.98 486.817C2318.96 739.721 2130.06 780.861 1828.4 753.461C1826.32 753.276 1824.26 753.092 1822.23 752.96" stroke="white" stroke-width="1.33333" stroke-miterlimit="10" stroke-linecap="round" stroke-linejoin="round"/>
<path d="M478.355 1617.32C478.355 1617.32 516.194 1388.68 882.494 1299.83C1169.79 1230.16 1467.49 1355 1598.47 1202.47C1717.9 1064.46 1626.18 875.825 1682.25 793.229" stroke="white" stroke-width="1.33333" stroke-miterlimit="10" stroke-linecap="round" stroke-linejoin="round"/>
<path d="M508.127 1635.79C508.127 1635.79 538.472 1406.87 917.463 1320.95C1200.49 1256.78 1498.34 1385.56 1630.05 1232.26C1792.79 1042.84 1553.91 752.649 1853.47 779.867C2153.03 807.083 2344.64 766.9 2330.32 511.094" stroke="white" stroke-width="1.33333" stroke-miterlimit="10" stroke-linecap="round" stroke-linejoin="round"/>
<path d="M537.895 1654.25C537.895 1654.25 560.672 1424.82 952.448 1342.05C1231.15 1283.17 1529.48 1416.36 1661.64 1262.05C1822.94 1073.7 1581.06 779.238 1878.53 806.267C2176 833.295 2370.32 794.064 2354.67 535.376" stroke="white" stroke-width="1.33333" stroke-miterlimit="10" stroke-linecap="round" stroke-linejoin="round"/>
<path d="M567.66 1672.71C567.66 1672.71 582.806 1442.49 987.43 1363.15C1261.76 1309.36 1560.62 1447.17 1693.22 1291.84C1853.09 1104.56 1608.21 805.832 1903.59 832.671C2198.97 859.507 2396 821.228 2379.02 559.66" stroke="white" stroke-width="1.33333" stroke-miterlimit="10" stroke-linecap="round" stroke-linejoin="round"/>
<path d="M597.428 1691.17C597.428 1691.17 604.89 1459.87 1022.41 1384.26C1292.34 1335.37 1591.77 1477.98 1724.81 1321.63C1883.24 1135.42 1635.36 832.423 1928.65 859.071C2221.94 885.72 2421.68 848.394 2403.38 583.943" stroke="white" stroke-width="1.33333" stroke-miterlimit="10" stroke-linecap="round" stroke-linejoin="round"/>
<path d="M627.191 1709.63C627.191 1709.63 626.933 1476.95 1057.39 1405.36C1322.89 1361.21 1622.93 1508.8 1756.39 1351.42C1913.4 1166.28 1662.51 859.016 1953.71 885.474C2244.91 911.933 2447.36 875.559 2427.73 608.226" stroke="white" stroke-width="1.33333" stroke-miterlimit="10" stroke-linecap="round" stroke-linejoin="round"/>
<path d="M656.959 1728.09C656.959 1728.09 648.94 1493.7 1092.38 1426.46C1353.44 1386.88 1654.08 1539.61 1787.98 1381.21C1943.56 1197.15 1689.66 885.609 1978.77 911.875C2267.88 938.144 2473.04 902.724 2452.08 632.509" stroke="white" stroke-width="1.33333" stroke-miterlimit="10" stroke-linecap="round" stroke-linejoin="round"/>
<path d="M686.724 1746.55C686.724 1746.55 670.924 1510.1 1127.36 1447.57C1383.98 1412.42 1685.56 1570.7 1819.56 1411.01C1974.09 1228.33 1716.8 912.2 2003.83 938.279C2290.85 964.358 2498.72 929.888 2476.43 656.793" stroke="white" stroke-width="1.33333" stroke-miterlimit="10" stroke-linecap="round" stroke-linejoin="round"/>
<path d="M716.492 1765.01C716.492 1765.01 692.894 1526.13 1162.34 1468.67C1414.52 1437.81 1716.71 1601.51 1851.14 1440.79C2004.24 1259.19 1743.95 938.793 2028.89 964.682C2313.82 990.569 2524.4 957.053 2500.78 681.073" stroke="white" stroke-width="1.33333" stroke-miterlimit="10" stroke-linecap="round" stroke-linejoin="round"/>
<path d="M746.258 1783.47C746.258 1783.47 714.861 1541.77 1197.33 1489.78C1445.09 1463.08 1747.86 1632.32 1882.73 1470.59C2034.39 1290.05 1771.1 965.384 2053.95 991.086C2336.79 1016.78 2550.07 984.218 2525.13 705.356" stroke="white" stroke-width="1.33333" stroke-miterlimit="10" stroke-linecap="round" stroke-linejoin="round"/>
<path d="M776.026 1801.93C776.026 1801.93 736.837 1557 1232.31 1510.88C1475.67 1488.23 1779.01 1663.14 1914.32 1500.38C2064.54 1320.91 1798.25 991.977 2079.01 1017.49C2359.76 1043 2575.76 1011.38 2549.48 729.639" stroke="white" stroke-width="1.33333" stroke-miterlimit="10" stroke-linecap="round" stroke-linejoin="round"/>
<path d="M805.79 1820.39C805.79 1820.39 758.83 1571.8 1267.29 1531.99C1506.29 1513.27 1810.16 1693.95 1945.9 1530.17C2094.69 1351.77 1825.4 1018.57 2104.07 1043.89C2382.73 1069.21 2601.43 1038.55 2573.84 753.922" stroke="white" stroke-width="1.33333" stroke-miterlimit="10" stroke-linecap="round" stroke-linejoin="round"/>
<path d="M835.56 1838.85C835.56 1838.85 780.855 1586.13 1302.28 1553.09C1536.95 1538.22 1841.32 1724.76 1977.48 1559.96C2124.85 1382.62 1852.55 1045.16 2129.13 1070.29C2405.7 1095.42 2627.13 1065.71 2598.19 778.205" stroke="white" stroke-width="1.33333" stroke-miterlimit="10" stroke-linecap="round" stroke-linejoin="round"/>
<path d="M865.323 1857.32C865.323 1857.32 802.926 1600 1337.26 1574.2C1567.65 1563.07 1872.46 1755.58 2009.07 1589.75C2155 1413.48 1879.7 1071.75 2154.18 1096.69C2428.67 1121.63 2652.8 1092.88 2622.54 802.489" stroke="white" stroke-width="1.33333" stroke-miterlimit="10" stroke-linecap="round" stroke-linejoin="round"/>
<path d="M895.091 1875.78C895.091 1875.78 827.615 1651.08 1372.24 1595.3C1597.35 1572.25 1903.62 1786.39 2040.65 1619.54C2185.15 1444.34 1906.85 1098.34 2179.25 1123.09C2451.64 1147.84 2678.48 1120.05 2646.89 826.771" stroke="white" stroke-width="1.33333" stroke-miterlimit="10" stroke-linecap="round" stroke-linejoin="round"/>
<path d="M924.857 1894.24C924.857 1894.24 848.604 1656.2 1407.22 1616.41C1628.7 1600.63 1934.77 1817.2 2072.24 1649.33C2215.3 1475.2 1934 1124.94 2204.3 1149.5C2474.61 1174.06 2704.15 1147.21 2671.24 851.054" stroke="white" stroke-width="1.33333" stroke-miterlimit="10" stroke-linecap="round" stroke-linejoin="round"/>
<path d="M954.624 1912.7C954.624 1912.7 870.004 1659.65 1442.2 1637.51C1659.95 1629.08 1965.92 1848.01 2103.82 1679.13C2245.45 1506.06 1961.15 1151.53 2229.36 1175.9C2497.58 1200.27 2729.82 1174.37 2695.6 875.334" stroke="white" stroke-width="1.33333" stroke-miterlimit="10" stroke-linecap="round" stroke-linejoin="round"/>
<path d="M984.39 1931.16C984.39 1931.16 891.997 1650.17 1477.19 1658.61C1691.07 1661.7 1997.07 1878.82 2135.41 1708.92C2275.61 1536.92 1988.29 1178.12 2254.42 1202.3C2520.55 1226.48 2755.5 1201.54 2719.95 899.617" stroke="white" stroke-width="1.33333" stroke-miterlimit="10" stroke-linecap="round" stroke-linejoin="round"/>
<path d="M1014.16 1949.62C1014.16 1949.62 914.553 1661.28 1512.17 1679.72C1722.12 1686.2 2028.23 1909.64 2166.99 1738.71C2305.76 1567.78 2015.44 1204.72 2279.48 1228.71C2543.52 1252.7 2781.2 1228.71 2744.31 923.901" stroke="white" stroke-width="1.33333" stroke-miterlimit="10" stroke-linecap="round" stroke-linejoin="round"/>
<path d="M1611.85 -223.453H1612.09C1894.32 -223.453 2123.12 5.18927 2123.12 287.287C2123.12 569.359 1894.32 798.002 1612.09 798.002C1329.85 798.002 1101.05 569.359 1101.05 287.287C1101.05 280.826 1101.19 274.418 1101.4 268.01" stroke="white" stroke-width="1.33333" stroke-miterlimit="10" stroke-linecap="round" stroke-linejoin="round"/>
<path d="M1596.67 -194.682C1601.79 -194.84 1606.94 -194.919 1612.08 -194.919C1878.54 -194.919 2094.56 20.9596 2094.56 287.287C2094.56 553.589 1878.54 769.468 1612.08 769.468C1345.6 769.468 1129.6 553.589 1129.6 287.287C1129.6 280.114 1129.76 272.994 1130.08 265.9" stroke="white" stroke-width="1.33333" stroke-miterlimit="10" stroke-linecap="round" stroke-linejoin="round"/>
<path d="M1582.61 -165.436C1592.35 -166.068 1602.19 -166.385 1612.08 -166.385C1862.78 -166.385 2066.01 36.7299 2066.01 287.287C2066.01 537.819 1862.78 740.96 1612.08 740.96C1361.38 740.96 1158.15 537.819 1158.15 287.287C1158.15 279.244 1158.37 271.28 1158.76 263.342" stroke="white" stroke-width="1.33333" stroke-miterlimit="10" stroke-linecap="round" stroke-linejoin="round"/>
<path d="M1569.58 -135.767C1583.56 -137.165 1597.73 -137.877 1612.08 -137.877C1847.01 -137.877 2037.46 52.4737 2037.46 287.287C2037.46 522.075 1847.01 712.426 1612.08 712.426C1377.14 712.426 1186.71 522.075 1186.71 287.287C1186.71 278.189 1187 269.144 1187.58 260.204" stroke="white" stroke-width="1.33333" stroke-miterlimit="10" stroke-linecap="round" stroke-linejoin="round"/>
<path d="M1557.33 -105.598C1575.22 -108.077 1593.51 -109.343 1612.08 -109.343C1831.25 -109.343 2008.91 68.2441 2008.91 287.287C2008.91 506.304 1831.25 683.892 1612.08 683.892C1392.92 683.892 1215.26 506.304 1215.26 287.287C1215.26 276.871 1215.65 266.559 1216.44 256.353" stroke="white" stroke-width="1.33333" stroke-miterlimit="10" stroke-linecap="round" stroke-linejoin="round"/>
<path d="M1545.75 -74.8487C1567.28 -78.7781 1589.45 -80.8087 1612.09 -80.8087C1815.47 -80.8087 1980.36 83.9881 1980.36 287.288C1980.36 490.561 1815.47 655.357 1612.09 655.357C1408.7 655.357 1243.81 490.561 1243.81 287.288C1243.81 275.236 1244.39 263.342 1245.52 251.58" stroke="white" stroke-width="1.33333" stroke-miterlimit="10" stroke-linecap="round" stroke-linejoin="round"/>
<path d="M1534.74 -43.4136C1559.57 -49.2154 1585.49 -52.2745 1612.08 -52.2745C1799.72 -52.2745 1951.81 99.7583 1951.81 287.288C1951.81 474.79 1799.72 626.823 1612.08 626.823C1424.45 626.823 1272.36 474.79 1272.36 287.288C1272.36 273.179 1273.23 259.254 1274.89 245.594" stroke="white" stroke-width="1.33333" stroke-miterlimit="10" stroke-linecap="round" stroke-linejoin="round"/>
<path d="M1524.14 -11.1347C1552.03 -19.3363 1581.53 -23.7405 1612.08 -23.7405C1783.94 -23.7405 1923.26 115.502 1923.26 287.287C1923.26 459.046 1783.94 598.289 1612.08 598.289C1440.23 598.289 1300.91 459.046 1300.91 287.287C1300.91 270.515 1302.23 254.033 1304.81 237.972" stroke="white" stroke-width="1.33333" stroke-miterlimit="10" stroke-linecap="round" stroke-linejoin="round"/>
<path d="M1513.85 22.3309C1544.43 10.9911 1577.54 4.79376 1612.08 4.79376C1768.19 4.79376 1894.71 131.272 1894.71 287.287C1894.71 443.276 1768.19 569.755 1612.08 569.755C1455.98 569.755 1329.46 443.276 1329.46 287.287C1329.46 266.929 1331.62 247.071 1335.74 227.925" stroke="white" stroke-width="1.33333" stroke-miterlimit="10" stroke-linecap="round" stroke-linejoin="round"/>
<path d="M1502.21 58.2493C1535.48 42.268 1572.74 33.328 1612.08 33.328C1752.41 33.328 1866.16 147.016 1866.16 287.287C1866.16 427.532 1752.41 541.221 1612.08 541.221C1471.76 541.221 1357.98 427.532 1357.98 287.287C1357.98 261.733 1361.75 237.076 1368.77 213.842" stroke="white" stroke-width="1.33333" stroke-miterlimit="10" stroke-linecap="round" stroke-linejoin="round"/>
<path d="M1482.71 102.633C1519.34 76.9469 1563.96 61.8622 1612.08 61.8622C1736.63 61.8622 1837.61 162.787 1837.61 287.288C1837.61 411.762 1736.63 512.687 1612.08 512.687C1487.51 512.687 1386.53 411.762 1386.53 287.288C1386.53 252.451 1394.45 219.46 1408.56 190.002" stroke="white" stroke-width="1.33333" stroke-miterlimit="10" stroke-linecap="round" stroke-linejoin="round"/>
<path d="M1612.08 90.399C1720.87 90.399 1809.07 178.544 1809.07 287.274C1809.07 396.008 1720.87 484.152 1612.08 484.152C1503.29 484.152 1415.09 396.008 1415.09 287.274C1415.09 178.544 1503.29 90.399 1612.08 90.399Z" stroke="white" stroke-width="1.33333" stroke-miterlimit="10" stroke-linecap="round" stroke-linejoin="round"/>
<path d="M1612.08 118.931C1705.11 118.931 1780.52 194.301 1780.52 287.274C1780.52 380.25 1705.11 455.618 1612.08 455.618C1519.05 455.618 1443.64 380.25 1443.64 287.274C1443.64 194.301 1519.05 118.931 1612.08 118.931Z" stroke="white" stroke-width="1.33333" stroke-miterlimit="10" stroke-linecap="round" stroke-linejoin="round"/>
<path d="M1612.08 147.465C1689.34 147.465 1751.97 210.058 1751.97 287.275C1751.97 364.491 1689.34 427.087 1612.08 427.087C1534.82 427.087 1472.19 364.491 1472.19 287.275C1472.19 210.058 1534.82 147.465 1612.08 147.465Z" stroke="white" stroke-width="1.33333" stroke-miterlimit="10" stroke-linecap="round" stroke-linejoin="round"/>
<path d="M1612.08 175.997C1673.57 175.997 1723.42 225.818 1723.42 287.275C1723.42 348.731 1673.57 398.553 1612.08 398.553C1550.59 398.553 1500.74 348.731 1500.74 287.275C1500.74 225.818 1550.59 175.997 1612.08 175.997Z" stroke="white" stroke-width="1.33333" stroke-miterlimit="10" stroke-linecap="round" stroke-linejoin="round"/>
<path d="M1612.08 204.531C1657.81 204.531 1694.87 241.578 1694.87 287.275C1694.87 332.975 1657.81 370.021 1612.08 370.021C1566.36 370.021 1529.29 332.975 1529.29 287.275C1529.29 241.578 1566.36 204.531 1612.08 204.531Z" stroke="white" stroke-width="1.33333" stroke-miterlimit="10" stroke-linecap="round" stroke-linejoin="round"/>
<path d="M1666.32 287.274C1666.32 317.216 1642.04 341.486 1612.08 341.486C1582.12 341.486 1557.84 317.216 1557.84 287.274C1557.84 257.334 1582.12 233.062 1612.08 233.062C1642.04 233.062 1666.32 257.334 1666.32 287.274Z" stroke="white" stroke-width="1.33333" stroke-miterlimit="10" stroke-linecap="round" stroke-linejoin="round"/>
<path d="M1642.32 287.274C1642.32 303.968 1628.78 317.499 1612.08 317.499C1595.38 317.499 1581.84 303.968 1581.84 287.274C1581.84 270.584 1595.38 257.052 1612.08 257.052C1628.78 257.052 1642.32 270.584 1642.32 287.274Z" stroke="white" stroke-width="1.33333" stroke-miterlimit="10" stroke-linecap="round" stroke-linejoin="round"/>
<path d="M648.538 102.752C648.538 452.475 364.868 735.981 14.9483 735.981C-334.975 735.981 -618.643 452.475 -618.643 102.752C-618.643 -246.971 -334.975 -530.478 14.9483 -530.478C364.868 -530.478 648.538 -246.971 648.538 102.752Z" stroke="white" stroke-width="1.33333" stroke-miterlimit="10" stroke-linecap="round" stroke-linejoin="round"/>
<path d="M14.9497 -495.103C345.322 -495.103 613.141 -227.432 613.141 102.752C613.141 432.939 345.322 700.606 14.9497 700.606C-315.424 700.606 -583.246 432.939 -583.246 102.752C-583.246 -227.432 -315.424 -495.103 14.9497 -495.103Z" stroke="white" stroke-width="1.33333" stroke-miterlimit="10" stroke-linecap="round" stroke-linejoin="round"/>
<path d="M14.9484 -459.725C325.771 -459.725 577.745 -207.896 577.745 102.752C577.745 413.4 325.771 665.231 14.9484 665.231C-295.875 665.231 -547.85 413.4 -547.85 102.752C-547.85 -207.896 -295.875 -459.725 14.9484 -459.725Z" stroke="white" stroke-width="1.33333" stroke-miterlimit="10" stroke-linecap="round" stroke-linejoin="round"/>
<path d="M14.9499 -424.35C306.225 -424.35 542.351 -188.358 542.351 102.752C542.351 393.864 306.225 629.854 14.9499 629.854C-276.327 629.854 -512.453 393.864 -512.453 102.752C-512.453 -188.358 -276.327 -424.35 14.9499 -424.35Z" stroke="white" stroke-width="1.33333" stroke-miterlimit="10" stroke-linecap="round" stroke-linejoin="round"/>
<path d="M14.9487 -388.975C286.674 -388.975 506.952 -168.821 506.952 102.752C506.952 374.325 286.674 594.479 14.9487 594.479C-256.779 594.479 -477.057 374.325 -477.057 102.752C-477.057 -168.821 -256.779 -388.975 14.9487 -388.975Z" stroke="white" stroke-width="1.33333" stroke-miterlimit="10" stroke-linecap="round" stroke-linejoin="round"/>
<path d="M14.95 -353.598C267.128 -353.598 471.559 -149.283 471.559 102.751C471.559 354.786 267.128 559.101 14.95 559.101C-237.229 559.101 -441.66 354.786 -441.66 102.751C-441.66 -149.283 -237.229 -353.598 14.95 -353.598Z" stroke="white" stroke-width="1.33333" stroke-miterlimit="10" stroke-linecap="round" stroke-linejoin="round"/>
<path d="M14.9495 -318.223C247.577 -318.223 436.16 -129.747 436.16 102.751C436.16 335.25 247.577 523.726 14.9495 523.726C-217.682 523.726 -406.266 335.25 -406.266 102.751C-406.266 -129.747 -217.682 -318.223 14.9495 -318.223Z" stroke="white" stroke-width="1.33333" stroke-miterlimit="10" stroke-linecap="round" stroke-linejoin="round"/>
<path d="M14.9482 -282.844C228.028 -282.844 400.764 -110.207 400.764 102.752C400.764 315.712 228.028 488.352 14.9482 488.352C-198.134 488.352 -370.869 315.712 -370.869 102.752C-370.869 -110.207 -198.134 -282.844 14.9482 -282.844Z" stroke="white" stroke-width="1.33333" stroke-miterlimit="10" stroke-linecap="round" stroke-linejoin="round"/>
<path d="M14.9496 -247.47C208.481 -247.47 365.37 -90.6692 365.37 102.751C365.37 296.175 208.481 452.976 14.9496 452.976C-178.583 452.976 -335.473 296.175 -335.473 102.751C-335.473 -90.6692 -178.583 -247.47 14.9496 -247.47Z" stroke="white" stroke-width="1.33333" stroke-miterlimit="10" stroke-linecap="round" stroke-linejoin="round"/>
<path d="M14.9491 -212.095C188.932 -212.095 329.972 -71.1324 329.972 102.752C329.972 276.637 188.932 417.599 14.9491 417.599C-159.035 417.599 -300.078 276.637 -300.078 102.752C-300.078 -71.1324 -159.035 -212.095 14.9491 -212.095Z" stroke="white" stroke-width="1.33333" stroke-miterlimit="10" stroke-linecap="round" stroke-linejoin="round"/>
<path d="M14.9501 -176.717C169.384 -176.717 294.578 -51.5935 294.578 102.752C294.578 257.101 169.384 382.224 14.9501 382.224C-139.486 382.224 -264.68 257.101 -264.68 102.752C-264.68 -51.5935 -139.486 -176.717 14.9501 -176.717Z" stroke="white" stroke-width="1.33333" stroke-miterlimit="10" stroke-linecap="round" stroke-linejoin="round"/>
<path d="M14.9493 -141.342C149.833 -141.342 259.182 -32.0576 259.182 102.752C259.182 237.561 149.833 346.846 14.9493 346.846C-119.938 346.846 -229.285 237.561 -229.285 102.752C-229.285 -32.0576 -119.938 -141.342 14.9493 -141.342Z" stroke="white" stroke-width="1.33333" stroke-miterlimit="10" stroke-linecap="round" stroke-linejoin="round"/>
<path d="M14.9496 -105.967C130.286 -105.967 223.786 -12.5215 223.786 102.752C223.786 218.023 130.286 311.471 14.9496 311.471C-100.388 311.471 -193.889 218.023 -193.889 102.752C-193.889 -12.5215 -100.388 -105.967 14.9496 -105.967Z" stroke="white" stroke-width="1.33333" stroke-miterlimit="10" stroke-linecap="round" stroke-linejoin="round"/>
<path d="M14.9487 -70.5923C110.736 -70.5923 188.388 7.01701 188.388 102.752C188.388 198.486 110.736 276.093 14.9487 276.093C-80.8412 276.093 -158.492 198.486 -158.492 102.752C-158.492 7.01701 -80.8412 -70.5923 14.9487 -70.5923Z" stroke="white" stroke-width="1.33333" stroke-miterlimit="10" stroke-linecap="round" stroke-linejoin="round"/>
<path d="M14.9489 -35.2147C91.1876 -35.2147 152.992 26.5558 152.992 102.752C152.992 178.947 91.1876 240.718 14.9489 240.718C-61.2922 240.718 -123.098 178.947 -123.098 102.752C-123.098 26.5558 -61.2922 -35.2147 14.9489 -35.2147Z" stroke="white" stroke-width="1.33333" stroke-miterlimit="10" stroke-linecap="round" stroke-linejoin="round"/>
<path d="M14.9502 0.163939C71.6412 0.163939 117.597 46.093 117.597 102.753C117.597 159.412 71.6412 205.344 14.9502 205.344C-41.7421 205.344 -87.6992 159.412 -87.6992 102.753C-87.6992 46.093 -41.7421 0.163939 14.9502 0.163939Z" stroke="white" stroke-width="1.33333" stroke-miterlimit="10" stroke-linecap="round" stroke-linejoin="round"/>
<path d="M82.2004 102.752C82.2004 139.872 52.0895 169.968 14.9485 169.968C-22.1961 169.968 -52.3047 139.872 -52.3047 102.752C-52.3047 65.6308 -22.1961 35.5353 14.9485 35.5353C52.0895 35.5353 82.2004 65.6308 82.2004 102.752Z" stroke="white" stroke-width="1.33333" stroke-miterlimit="10" stroke-linecap="round" stroke-linejoin="round"/>
<path d="M55.0159 102.752C55.0159 124.869 37.0772 142.797 14.9496 142.797C-7.18033 142.797 -25.1191 124.869 -25.1191 102.752C-25.1191 80.6362 -7.18033 62.7087 14.9496 62.7087C37.0772 62.7087 55.0159 80.6362 55.0159 102.752Z" stroke="white" stroke-width="1.33333" stroke-miterlimit="10" stroke-linecap="round" stroke-linejoin="round"/>
<path d="M438.669 1099.25C425.819 1063.49 418.826 1024.9 418.826 984.714C418.826 797.396 570.761 645.548 758.185 645.548C933.841 645.548 1078.31 778.909 1095.78 949.851" stroke="white" stroke-width="1.33333" stroke-miterlimit="10" stroke-linecap="round" stroke-linejoin="round"/>
<path d="M464.713 1084.27C454.106 1053.02 448.354 1019.53 448.354 984.714C448.354 813.694 587.068 675.031 758.186 675.031C919.197 675.031 1051.55 797.791 1066.59 954.782" stroke="white" stroke-width="1.33333" stroke-miterlimit="10" stroke-linecap="round" stroke-linejoin="round"/>
<path d="M491.337 1070.71C482.577 1043.63 477.854 1014.72 477.854 984.715C477.854 829.991 603.375 704.541 758.185 704.541C904.236 704.541 1024.22 816.199 1037.3 958.738" stroke="white" stroke-width="1.33333" stroke-miterlimit="10" stroke-linecap="round" stroke-linejoin="round"/>
<path d="M518.384 1058.37C511.233 1035.08 507.381 1010.35 507.381 984.715C507.381 846.263 619.656 734.025 758.186 734.025C889.038 734.025 996.51 834.185 1007.99 961.982" stroke="white" stroke-width="1.33333" stroke-miterlimit="10" stroke-linecap="round" stroke-linejoin="round"/>
<path d="M545.8 1047C539.994 1027.25 536.881 1006.34 536.881 984.714C536.881 862.56 635.963 763.534 758.186 763.534C873.707 763.534 968.54 851.985 978.594 964.83" stroke="white" stroke-width="1.33333" stroke-miterlimit="10" stroke-linecap="round" stroke-linejoin="round"/>
<path d="M573.506 1036.54C568.889 1020.05 566.408 1002.67 566.408 984.715C566.408 878.858 652.27 793.045 758.186 793.045C858.297 793.045 940.518 869.707 949.2 967.494" stroke="white" stroke-width="1.33333" stroke-miterlimit="10" stroke-linecap="round" stroke-linejoin="round"/>
<path d="M601.502 1026.99C597.834 1013.51 595.908 999.324 595.908 984.714C595.908 895.129 668.551 822.528 758.186 822.528C842.887 822.528 912.416 887.376 919.804 970.103" stroke="white" stroke-width="1.33333" stroke-miterlimit="10" stroke-linecap="round" stroke-linejoin="round"/>
<path d="M629.735 1018.34C626.938 1007.6 625.434 996.343 625.434 984.714C625.434 911.427 684.856 852.038 758.185 852.038C827.503 852.038 884.419 905.098 890.408 972.82" stroke="white" stroke-width="1.33333" stroke-miterlimit="10" stroke-linecap="round" stroke-linejoin="round"/>
<path d="M658.179 1010.53C656.068 1002.28 654.934 993.627 654.934 984.714C654.934 927.724 701.163 881.521 758.185 881.521C812.198 881.521 856.528 922.977 861.066 975.773" stroke="white" stroke-width="1.33333" stroke-miterlimit="10" stroke-linecap="round" stroke-linejoin="round"/>
<path d="M686.888 1003.54C685.305 997.53 684.461 991.228 684.461 984.714C684.461 944.022 717.471 911.031 758.185 911.031C797 911.031 828.849 941.016 831.699 979.07" stroke="white" stroke-width="1.33333" stroke-miterlimit="10" stroke-linecap="round" stroke-linejoin="round"/>
<path d="M715.782 997.293C714.594 993.31 713.961 989.091 713.961 984.714C713.961 960.293 733.751 940.515 758.185 940.515C781.986 940.515 801.38 959.265 802.356 982.815" stroke="white" stroke-width="1.33333" stroke-miterlimit="10" stroke-linecap="round" stroke-linejoin="round"/>
<path d="M-539.82 956.233C-281.396 1210.82 -66.1073 1070.85 55.2362 1429.46C176.58 1788.08 309.709 1903.05 690.798 1921.18" stroke="white" stroke-width="1.33333" stroke-miterlimit="10" stroke-linecap="round" stroke-linejoin="round"/>
<path d="M-509.016 936.195C-252.142 1189.26 -38.1448 1050.13 82.4722 1406.59C203.087 1763.05 335.419 1877.34 714.226 1895.36" stroke="white" stroke-width="1.33333" stroke-miterlimit="10" stroke-linecap="round" stroke-linejoin="round"/>
<path d="M-478.215 916.161C-222.889 1167.7 -10.1825 1029.41 109.707 1383.72C229.595 1738.03 361.127 1851.63 737.649 1869.54" stroke="white" stroke-width="1.33333" stroke-miterlimit="10" stroke-linecap="round" stroke-linejoin="round"/>
<path d="M-447.41 896.129C-193.635 1146.14 17.781 1008.68 136.943 1360.85C256.103 1713.01 386.836 1825.92 761.073 1843.72" stroke="white" stroke-width="1.33333" stroke-miterlimit="10" stroke-linecap="round" stroke-linejoin="round"/>
<path d="M-416.602 876.089C-164.371 1124.59 45.745 987.958 164.169 1337.96C167.89 1348.93 171.61 1359.67 175.329 1370.16" stroke="white" stroke-width="1.33333" stroke-miterlimit="10" stroke-linecap="round" stroke-linejoin="round"/>
<path d="M-385.809 856.047C-135.135 1103.02 73.7147 967.23 191.4 1315.1C193.616 1321.67 195.859 1328.15 198.102 1334.54" stroke="white" stroke-width="1.33333" stroke-miterlimit="10" stroke-linecap="round" stroke-linejoin="round"/>
<path d="M-355.016 836.03C-105.872 1081.45 101.659 946.528 218.658 1292.23C219.685 1295.24 220.689 1298.22 221.718 1301.2" stroke="white" stroke-width="1.33333" stroke-miterlimit="10" stroke-linecap="round" stroke-linejoin="round"/>
<path d="M-324.195 815.988C-76.6095 1059.9 129.629 925.8 245.889 1269.37C245.941 1269.55 246.021 1269.71 246.073 1269.9" stroke="white" stroke-width="1.33333" stroke-miterlimit="10" stroke-linecap="round" stroke-linejoin="round"/>
<path d="M-293.402 795.946C-48.7986 1036.9 155.197 906.628 271.088 1240.55" stroke="white" stroke-width="1.33333" stroke-miterlimit="10" stroke-linecap="round" stroke-linejoin="round"/>
<path d="M-262.584 775.929C-20.6707 1014.25 181.266 887.086 296.708 1213.12" stroke="white" stroke-width="1.33333" stroke-miterlimit="10" stroke-linecap="round" stroke-linejoin="round"/>
<path d="M-218.146 768.967C15.4549 987.404 210.267 873.215 322.938 1187.43" stroke="white" stroke-width="1.33333" stroke-miterlimit="10" stroke-linecap="round" stroke-linejoin="round"/>
<path d="M-139.699 789.51C70.893 951.986 245.572 874.269 349.799 1163.49" stroke="white" stroke-width="1.33333" stroke-miterlimit="10" stroke-linecap="round" stroke-linejoin="round"/>
<path d="M-65.1309 800.244C124.457 921.501 281.115 873.742 377.268 1141.31" stroke="white" stroke-width="1.33333" stroke-miterlimit="10" stroke-linecap="round" stroke-linejoin="round"/>
<path d="M6.74609 804.068C176.834 895.051 317 872.476 405.369 1120.77" stroke="white" stroke-width="1.33333" stroke-miterlimit="10" stroke-linecap="round" stroke-linejoin="round"/>
<path d="M73.5566 801.694C226.757 872.317 352.78 869.469 434.051 1102.04" stroke="white" stroke-width="1.33333" stroke-miterlimit="10" stroke-linecap="round" stroke-linejoin="round"/>
<path d="M133.799 794.204C248.211 841.726 345.894 858.288 418.827 984.344" stroke="white" stroke-width="1.33333" stroke-miterlimit="10" stroke-linecap="round" stroke-linejoin="round"/>
<path d="M187.602 783.076C279.558 819.02 359.721 840.856 423.656 927.408" stroke="white" stroke-width="1.33333" stroke-miterlimit="10" stroke-linecap="round" stroke-linejoin="round"/>
<path d="M235.65 769.284C311.168 798.056 378.191 820.709 434.025 884.001" stroke="white" stroke-width="1.33333" stroke-miterlimit="10" stroke-linecap="round" stroke-linejoin="round"/>
<path d="M278.898 753.592C342.042 777.485 398.879 799.11 447.826 847.344" stroke="white" stroke-width="1.33333" stroke-miterlimit="10" stroke-linecap="round" stroke-linejoin="round"/>
<path d="M318.082 736.345C371.964 756.809 421.069 776.746 464.317 814.985" stroke="white" stroke-width="1.33333" stroke-miterlimit="10" stroke-linecap="round" stroke-linejoin="round"/>
<path d="M483.316 785.766C444.449 754.146 401.069 735.87 353.863 717.832" stroke="white" stroke-width="1.33333" stroke-miterlimit="10" stroke-linecap="round" stroke-linejoin="round"/>
<path d="M504.873 758.998C469.04 731.571 429.46 714.641 386.74 698.211" stroke="white" stroke-width="1.33333" stroke-miterlimit="10" stroke-linecap="round" stroke-linejoin="round"/>
<path d="M529.071 734.525C494.953 709.314 457.457 693.201 417.139 677.642" stroke="white" stroke-width="1.33333" stroke-miterlimit="10" stroke-linecap="round" stroke-linejoin="round"/>
<path d="M556.116 712.188C522.262 687.399 485.11 671.523 445.16 656.149" stroke="white" stroke-width="1.33333" stroke-miterlimit="10" stroke-linecap="round" stroke-linejoin="round"/>
<path d="M586.276 692.226C551.314 666.118 512.763 649.846 471.178 633.918" stroke="white" stroke-width="1.33333" stroke-miterlimit="10" stroke-linecap="round" stroke-linejoin="round"/>
<path d="M619.919 674.873H619.893C582.397 645.416 540.627 628.248 495.295 610.948" stroke="white" stroke-width="1.33333" stroke-miterlimit="10" stroke-linecap="round" stroke-linejoin="round"/>
<path d="M657.178 660.843H657.152C615.83 625.373 568.994 606.781 517.672 587.318" stroke="white" stroke-width="1.33333" stroke-miterlimit="10" stroke-linecap="round" stroke-linejoin="round"/>
<path d="M697.918 650.901H697.891C651.688 605.779 598.018 585.631 538.41 563.084" stroke="white" stroke-width="1.33333" stroke-miterlimit="10" stroke-linecap="round" stroke-linejoin="round"/>
<path d="M741.615 645.943H741.589C689.897 586.211 627.73 564.929 557.621 538.294" stroke="white" stroke-width="1.33333" stroke-miterlimit="10" stroke-linecap="round" stroke-linejoin="round"/>
<path d="M787.158 646.787H787.132C729.873 565.958 657.943 544.676 575.326 512.819" stroke="white" stroke-width="1.33333" stroke-miterlimit="10" stroke-linecap="round" stroke-linejoin="round"/>
<path d="M591.607 486.763C688.288 525.055 770.905 544.227 833.23 653.881" stroke="white" stroke-width="1.33333" stroke-miterlimit="10" stroke-linecap="round" stroke-linejoin="round"/>
<path d="M607.068 460.18C718.869 506.225 812.621 520.387 878.93 667.673" stroke="white" stroke-width="1.33333" stroke-miterlimit="10" stroke-linecap="round" stroke-linejoin="round"/>
<path d="M622.479 433.334C749.847 488.398 854.734 494.121 923.603 688.507" stroke="white" stroke-width="1.33333" stroke-miterlimit="10" stroke-linecap="round" stroke-linejoin="round"/>
<path d="M638.707 406.541C773.094 467.803 883.391 465.983 954.001 674.689C959.279 690.248 964.556 705.227 969.912 719.679" stroke="white" stroke-width="1.33333" stroke-miterlimit="10" stroke-linecap="round" stroke-linejoin="round"/>
<path d="M656.781 380.274C795.39 446.757 909.117 438.767 981.232 651.824C999.201 704.936 1017.51 751.35 1037.36 791.805C1037.36 791.831 1037.38 791.857 1037.38 791.884" stroke="white" stroke-width="1.33333" stroke-miterlimit="10" stroke-linecap="round" stroke-linejoin="round"/>
<path d="M1069.94 850.508V850.535C1091.87 885.214 1116.01 914.196 1143.61 938.326" stroke="white" stroke-width="1.33333" stroke-miterlimit="10" stroke-linecap="round" stroke-linejoin="round"/>
<path d="M677.891 355.274C819.323 425.844 935.424 413.133 1008.46 628.959C1056.35 770.523 1106.59 864.01 1182.4 923.953" stroke="white" stroke-width="1.33333" stroke-miterlimit="10" stroke-linecap="round" stroke-linejoin="round"/>
<path d="M703.434 332.331C845.711 404.8 962.498 389.742 1035.69 606.069C1084.91 751.535 1136.6 845.867 1216.39 905.019" stroke="white" stroke-width="1.33333" stroke-miterlimit="10" stroke-linecap="round" stroke-linejoin="round"/>
<path d="M734.648 312.315C875.184 383.36 990.546 369.251 1062.92 583.205C1112.27 728.988 1164.09 823.029 1244.62 881.601" stroke="white" stroke-width="1.33333" stroke-miterlimit="10" stroke-linecap="round" stroke-linejoin="round"/>
<path d="M773.199 295.885C908.642 361.55 1019.84 352.505 1090.16 560.34C1138.58 703.407 1189.4 796.262 1267.82 854.49" stroke="white" stroke-width="1.33333" stroke-miterlimit="10" stroke-linecap="round" stroke-linejoin="round"/>
<path d="M821.303 283.596C947.378 339.847 1050.84 340.743 1117.39 537.476C1164.22 675.875 1213.36 766.91 1287.9 824.954" stroke="white" stroke-width="1.33333" stroke-miterlimit="10" stroke-linecap="round" stroke-linejoin="round"/>
<path d="M883.1 276.264C993.607 320.147 1084.38 336.444 1144.64 514.585C1189.21 646.338 1235.86 734.815 1304.89 792.648" stroke="white" stroke-width="1.33333" stroke-miterlimit="10" stroke-linecap="round" stroke-linejoin="round"/>
<path d="M1221.09 616.117C1249.16 675.242 1280.43 721.366 1318.77 756.915" stroke="white" stroke-width="1.33333" stroke-miterlimit="10" stroke-linecap="round" stroke-linejoin="round"/>
<path d="M961.23 273.97C1016.54 295.147 1065.77 316.692 1107.31 367.405" stroke="white" stroke-width="1.33333" stroke-miterlimit="10" stroke-linecap="round" stroke-linejoin="round"/>
<path d="M1329.54 716.804C1326.37 713.455 1323.26 710.053 1320.2 706.545" stroke="white" stroke-width="1.33333" stroke-miterlimit="10" stroke-linecap="round" stroke-linejoin="round"/>
<path d="M1101.63 311.866C1081.03 294.83 1058.91 282.277 1035.46 271.517" stroke="white" stroke-width="1.33333" stroke-miterlimit="10" stroke-linecap="round" stroke-linejoin="round"/>
<path d="M1101.34 269.988C1100.37 269.382 1099.39 268.775 1098.42 268.195" stroke="white" stroke-width="1.33333" stroke-miterlimit="10" stroke-linecap="round" stroke-linejoin="round"/>
</g>
<defs>
<clipPath id="clip0_90_1480">
<rect width="1979" height="956" fill="white" transform="translate(-26)"/>
</clipPath>
</defs>
</svg>
