<svg width="435" height="486" viewBox="0 0 435 486" fill="none" xmlns="http://www.w3.org/2000/svg">
<path fill-rule="evenodd" clip-rule="evenodd" d="M223.517 0.0222643C263.497 -0.875746 297.643 25.5788 332.351 45.4512C367.178 65.3911 409.057 80.603 426.985 116.518C444.783 152.174 427.537 194.203 426.489 234.044C425.471 272.739 435.721 312.3 420.893 348.052C405.247 385.776 375.09 415.312 341.613 438.687C306.251 463.378 266.586 488.029 223.517 485.867C180.86 483.726 148.518 449.441 112.071 427.165C76.5352 405.445 31.583 392.999 11.6904 356.399C-8.13527 319.922 2.18534 275.272 7.10784 234.044C11.5803 196.585 19.6029 159.815 39.023 127.477C58.2406 95.4774 86.7631 71.4902 117.469 50.2778C150.213 27.6567 183.735 0.915837 223.517 0.0222643Z" fill="#BFD8BD"/>
</svg>
