<svg width="311" height="253" viewBox="0 0 311 253" fill="none" xmlns="http://www.w3.org/2000/svg">
<mask id="mask0_1435_1411" style="mask-type:alpha" maskUnits="userSpaceOnUse" x="0" y="0" width="311" height="253">
<path d="M186.052 23.1597C249.566 61.0657 287.69 67.7927 304.456 118.262C321.221 168.731 305.372 231.544 245.348 247.019C185.323 262.493 183.694 236.837 93.1009 240.92C2.50686 245.003 -29.6811 113.229 31.2309 53.0927C92.1429 -7.04434 122.538 -14.7453 186.052 23.1597Z" fill="white"/>
</mask>
<g mask="url(#mask0_1435_1411)">
<path d="M136.116 210.238C182.898 210.238 220.823 172.314 220.823 125.531C220.823 78.7492 182.898 40.8252 136.116 40.8252C89.3342 40.8252 51.4102 78.7492 51.4102 125.531C51.4102 172.314 89.3342 210.238 136.116 210.238Z" fill="#052D23"/>
<path d="M82.1757 130.36C82.4409 130.36 82.6953 130.255 82.8828 130.067C83.0703 129.88 83.1757 129.626 83.1757 129.36C83.1757 129.095 83.0703 128.841 82.8828 128.653C82.6953 128.466 82.4409 128.36 82.1757 128.36C81.9105 128.36 81.6561 128.466 81.4686 128.653C81.2811 128.841 81.1757 129.095 81.1757 129.36C81.1757 129.626 81.2811 129.88 81.4686 130.067C81.6561 130.255 81.9105 130.36 82.1757 130.36ZM83.2757 152.14C83.5409 152.14 83.7953 152.035 83.9828 151.847C84.1703 151.66 84.2757 151.406 84.2757 151.14C84.2757 150.875 84.1703 150.621 83.9828 150.433C83.7953 150.246 83.5409 150.14 83.2757 150.14C83.0105 150.14 82.7561 150.246 82.5686 150.433C82.3811 150.621 82.2757 150.875 82.2757 151.14C82.2757 151.406 82.3811 151.66 82.5686 151.847C82.7561 152.035 83.0105 152.14 83.2757 152.14ZM121.116 125.401C121.408 125.401 121.687 125.285 121.894 125.079C122.1 124.872 122.216 124.592 122.216 124.3C122.216 124.009 122.099 123.729 121.893 123.522C121.687 123.316 121.407 123.2 121.115 123.2C120.823 123.201 120.543 123.317 120.337 123.523C120.13 123.73 120.015 124.01 120.015 124.301C120.015 124.593 120.131 124.873 120.337 125.079C120.544 125.286 120.824 125.402 121.116 125.401ZM202.736 134.761C203.001 134.761 203.255 134.656 203.443 134.468C203.63 134.281 203.736 134.027 203.736 133.761C203.736 133.496 203.63 133.242 203.443 133.054C203.255 132.867 203.001 132.761 202.736 132.761C202.47 132.761 202.216 132.867 202.029 133.054C201.841 133.242 201.736 133.496 201.736 133.761C201.736 134.027 201.841 134.281 202.029 134.468C202.216 134.656 202.47 134.761 202.736 134.761ZM197.016 142.241C197.281 142.241 197.535 142.136 197.723 141.949C197.91 141.761 198.016 141.507 198.016 141.241C198.016 140.976 197.91 140.722 197.723 140.534C197.535 140.347 197.281 140.241 197.016 140.241C196.75 140.241 196.496 140.347 196.309 140.534C196.121 140.722 196.016 140.976 196.016 141.241C196.016 141.507 196.121 141.761 196.309 141.949C196.496 142.136 196.75 142.241 197.016 142.241ZM75.5757 151.04C75.8409 151.04 76.0953 150.935 76.2828 150.747C76.4703 150.56 76.5757 150.306 76.5757 150.04C76.5757 149.775 76.4703 149.521 76.2828 149.333C76.0953 149.146 75.8409 149.04 75.5757 149.04C75.3105 149.04 75.0561 149.146 74.8686 149.333C74.6811 149.521 74.5757 149.775 74.5757 150.04C74.5757 150.306 74.6811 150.56 74.8686 150.747C75.0561 150.935 75.3105 151.04 75.5757 151.04ZM110.336 104.84C110.601 104.84 110.855 104.735 111.043 104.547C111.23 104.36 111.336 104.106 111.336 103.84C111.336 103.575 111.23 103.321 111.043 103.133C110.855 102.946 110.601 102.84 110.336 102.84C110.07 102.84 109.816 102.946 109.629 103.133C109.441 103.321 109.336 103.575 109.336 103.84C109.336 104.106 109.441 104.36 109.629 104.547C109.816 104.735 110.07 104.84 110.336 104.84ZM76.0157 115.84C76.2809 115.84 76.5353 115.735 76.7228 115.548C76.9103 115.36 77.0157 115.106 77.0157 114.84C77.0157 114.575 76.9103 114.321 76.7228 114.133C76.5353 113.946 76.2809 113.84 76.0157 113.84C75.7505 113.84 75.4961 113.946 75.3086 114.133C75.1211 114.321 75.0157 114.575 75.0157 114.84C75.0157 115.106 75.1211 115.36 75.3086 115.548C75.4961 115.735 75.7505 115.84 76.0157 115.84ZM110.996 112.98C111.261 112.98 111.515 112.875 111.703 112.688C111.89 112.5 111.996 112.246 111.996 111.98C111.996 111.715 111.89 111.461 111.703 111.273C111.515 111.086 111.261 110.98 110.996 110.98C110.73 110.98 110.476 111.086 110.289 111.273C110.101 111.461 109.996 111.715 109.996 111.98C109.996 112.246 110.101 112.5 110.289 112.688C110.476 112.875 110.73 112.98 110.996 112.98ZM99.9957 129.261C100.261 129.261 100.515 129.156 100.703 128.968C100.89 128.781 100.996 128.527 100.996 128.261C100.996 127.996 100.89 127.742 100.703 127.554C100.515 127.367 100.261 127.261 99.9957 127.261C99.7305 127.261 99.4761 127.367 99.2886 127.554C99.1011 127.742 98.9957 127.996 98.9957 128.261C98.9957 128.527 99.1011 128.781 99.2886 128.968C99.4761 129.156 99.7305 129.261 99.9957 129.261ZM134.096 129.48C134.361 129.48 134.615 129.375 134.803 129.188C134.99 129 135.096 128.746 135.096 128.48C135.096 128.215 134.99 127.961 134.803 127.773C134.615 127.586 134.361 127.48 134.096 127.48C133.83 127.48 133.576 127.586 133.389 127.773C133.201 127.961 133.096 128.215 133.096 128.48C133.096 128.746 133.201 129 133.389 129.188C133.576 129.375 133.83 129.48 134.096 129.48ZM126.396 79.6404C126.687 79.6404 126.967 79.5245 127.174 79.3182C127.38 79.1119 127.496 78.8321 127.496 78.5404C127.496 78.2487 127.38 77.9689 127.174 77.7626C126.967 77.5563 126.687 77.4404 126.396 77.4404C126.104 77.4404 125.824 77.5563 125.618 77.7626C125.412 77.9689 125.296 78.2487 125.296 78.5404C125.296 78.8321 125.412 79.1119 125.618 79.3182C125.824 79.5245 126.104 79.6404 126.396 79.6404ZM118.916 96.8004C119.207 96.8004 119.487 96.6845 119.694 96.4782C119.9 96.2719 120.016 95.9921 120.016 95.7004C120.016 95.4086 119.9 95.1289 119.694 94.9226C119.487 94.7163 119.207 94.6004 118.916 94.6004C118.624 94.6004 118.344 94.7163 118.138 94.9226C117.932 95.1289 117.816 95.4086 117.816 95.7004C117.816 95.9921 117.932 96.2719 118.138 96.4782C118.344 96.6845 118.624 96.8004 118.916 96.8004ZM156.316 85.8004C156.607 85.8004 156.887 85.6845 157.094 85.4782C157.3 85.2719 157.416 84.9921 157.416 84.7004C157.416 84.4086 157.3 84.1289 157.094 83.9226C156.887 83.7163 156.607 83.6004 156.316 83.6004C156.024 83.6004 155.744 83.7163 155.538 83.9226C155.332 84.1289 155.216 84.4086 155.216 84.7004C155.216 84.9921 155.332 85.2719 155.538 85.4782C155.744 85.6845 156.024 85.8004 156.316 85.8004ZM110.776 95.1614C111.041 95.1614 111.295 95.056 111.483 94.8685C111.67 94.681 111.776 94.4266 111.776 94.1614C111.776 93.8962 111.67 93.6418 111.483 93.4543C111.295 93.2667 111.041 93.1614 110.776 93.1614C110.51 93.1614 110.256 93.2667 110.069 93.4543C109.881 93.6418 109.776 93.8962 109.776 94.1614C109.776 94.4266 109.881 94.681 110.069 94.8685C110.256 95.056 110.51 95.1614 110.776 95.1614ZM145.536 65.2414C145.801 65.2414 146.055 65.136 146.243 64.9485C146.43 64.761 146.536 64.5066 146.536 64.2414C146.536 63.9762 146.43 63.7218 146.243 63.5343C146.055 63.3467 145.801 63.2414 145.536 63.2414C145.27 63.2414 145.016 63.3467 144.829 63.5343C144.641 63.7218 144.536 63.9762 144.536 64.2414C144.536 64.5066 144.641 64.761 144.829 64.9485C145.016 65.136 145.27 65.2414 145.536 65.2414ZM100.656 124.64C100.921 124.64 101.175 124.535 101.363 124.347C101.55 124.16 101.656 123.906 101.656 123.64C101.656 123.375 101.55 123.121 101.363 122.933C101.175 122.746 100.921 122.64 100.656 122.64C100.39 122.64 100.136 122.746 99.9486 122.933C99.7611 123.121 99.6557 123.375 99.6557 123.64C99.6557 123.906 99.7611 124.16 99.9486 124.347C100.136 124.535 100.39 124.64 100.656 124.64ZM92.9557 74.8004C93.2474 74.8004 93.5272 74.6845 93.7335 74.4782C93.9398 74.2719 94.0557 73.9921 94.0557 73.7004C94.0557 73.4086 93.9398 73.1289 93.7335 72.9226C93.5272 72.7163 93.2474 72.6004 92.9557 72.6004C92.664 72.6004 92.3842 72.7163 92.1779 72.9226C91.9716 73.1289 91.8557 73.4086 91.8557 73.7004C91.8557 73.9921 91.9716 74.2719 92.1779 74.4782C92.3842 74.6845 92.664 74.8004 92.9557 74.8004ZM85.4757 91.9614C85.6202 91.9613 85.7633 91.9328 85.8968 91.8774C86.0303 91.8221 86.1516 91.7409 86.2537 91.6387C86.3559 91.5365 86.4369 91.4151 86.4921 91.2816C86.5474 91.148 86.5758 91.0049 86.5757 90.8604C86.5756 90.7159 86.5471 90.5728 86.4917 90.4393C86.4364 90.3058 86.3553 90.1845 86.253 90.0824C86.1508 89.9802 86.0294 89.8992 85.8959 89.844C85.7623 89.7887 85.6192 89.7603 85.4747 89.7604C85.1828 89.7605 84.903 89.8766 84.6967 90.0831C84.4904 90.2895 84.3746 90.5695 84.3747 90.8614C84.3748 91.1533 84.4909 91.4331 84.6974 91.6394C84.9039 91.8457 85.1838 91.9615 85.4757 91.9614ZM122.876 80.9614C123.02 80.9613 123.163 80.9328 123.297 80.8774C123.43 80.8221 123.552 80.7409 123.654 80.6387C123.756 80.5365 123.837 80.4151 123.892 80.2816C123.947 80.148 123.976 80.0049 123.976 79.8604C123.976 79.7159 123.947 79.5728 123.892 79.4393C123.836 79.3058 123.755 79.1845 123.653 79.0824C123.551 78.9802 123.429 78.8992 123.296 78.844C123.162 78.7887 123.019 78.7603 122.875 78.7604C122.583 78.7605 122.303 78.8766 122.097 79.0831C121.89 79.2895 121.775 79.5695 121.775 79.8614C121.775 80.1533 121.891 80.4331 122.097 80.6394C122.304 80.8457 122.584 80.9615 122.876 80.9614ZM68.0957 103.52C68.3609 103.52 68.6153 103.415 68.8028 103.227C68.9903 103.04 69.0957 102.786 69.0957 102.52C69.0957 102.255 68.9903 102.001 68.8028 101.813C68.6153 101.626 68.3609 101.52 68.0957 101.52C67.8305 101.52 67.5761 101.626 67.3886 101.813C67.2011 102.001 67.0957 102.255 67.0957 102.52C67.0957 102.786 67.2011 103.04 67.3886 103.227C67.5761 103.415 67.8305 103.52 68.0957 103.52ZM112.096 60.4004C112.361 60.4004 112.615 60.295 112.803 60.1075C112.99 59.92 113.096 59.6656 113.096 59.4004C113.096 59.1352 112.99 58.8808 112.803 58.6933C112.615 58.5057 112.361 58.4004 112.096 58.4004C111.83 58.4004 111.576 58.5057 111.389 58.6933C111.201 58.8808 111.096 59.1352 111.096 59.4004C111.096 59.6656 111.201 59.92 111.389 60.1075C111.576 60.295 111.83 60.4004 112.096 60.4004ZM111.216 76.2414C111.481 76.2414 111.735 76.136 111.923 75.9485C112.11 75.761 112.216 75.5066 112.216 75.2414C112.216 74.9762 112.11 74.7218 111.923 74.5343C111.735 74.3467 111.481 74.2414 111.216 74.2414C110.95 74.2414 110.696 74.3467 110.509 74.5343C110.321 74.7218 110.216 74.9762 110.216 75.2414C110.216 75.5066 110.321 75.761 110.509 75.9485C110.696 76.136 110.95 76.2414 111.216 76.2414ZM154.996 77.7814C155.261 77.7814 155.515 77.676 155.703 77.4885C155.89 77.301 155.996 77.0466 155.996 76.7814C155.996 76.5162 155.89 76.2618 155.703 76.0743C155.515 75.8867 155.261 75.7814 154.996 75.7814C154.73 75.7814 154.476 75.8867 154.289 76.0743C154.101 76.2618 153.996 76.5162 153.996 76.7814C153.996 77.0466 154.101 77.301 154.289 77.4885C154.476 77.676 154.73 77.7814 154.996 77.7814ZM135.196 89.6614C135.461 89.6614 135.715 89.556 135.903 89.3685C136.09 89.181 136.196 88.9266 136.196 88.6614C136.196 88.3962 136.09 88.1418 135.903 87.9543C135.715 87.7667 135.461 87.6614 135.196 87.6614C134.93 87.6614 134.676 87.7667 134.489 87.9543C134.301 88.1418 134.196 88.3962 134.196 88.6614C134.196 88.9266 134.301 89.181 134.489 89.3685C134.676 89.556 134.93 89.6614 135.196 89.6614ZM169.296 89.8804C169.561 89.8804 169.815 89.775 170.003 89.5875C170.19 89.4 170.296 89.1456 170.296 88.8804C170.296 88.6152 170.19 88.3608 170.003 88.1733C169.815 87.9857 169.561 87.8804 169.296 87.8804C169.03 87.8804 168.776 87.9857 168.589 88.1733C168.401 88.3608 168.296 88.6152 168.296 88.8804C168.296 89.1456 168.401 89.4 168.589 89.5875C168.776 89.775 169.03 89.8804 169.296 89.8804Z" fill="white"/>
<path d="M206.735 189.157L197.363 198.529L219.492 220.659L228.865 211.286L206.735 189.157Z" fill="#052D23"/>
<path fill-rule="evenodd" clip-rule="evenodd" d="M183.889 196.772L205.27 175.391L214.935 185.056C216.488 186.609 217.361 188.716 217.361 190.914C217.361 193.111 216.488 195.218 214.935 196.772L205.27 206.437C203.716 207.99 201.609 208.863 199.412 208.863C197.215 208.863 195.107 207.99 193.554 206.437L183.889 196.772Z" fill="#98C9A3"/>
<path d="M222.91 206.437L214.936 214.41C208.646 220.701 208.646 230.9 214.936 237.191L248.131 270.385C254.422 276.676 264.621 276.676 270.911 270.385L278.885 262.412C285.175 256.122 285.175 245.922 278.885 239.632L245.69 206.437C239.399 200.147 229.2 200.147 222.91 206.437Z" fill="url(#paint0_linear_1435_1411)"/>
<path d="M194.58 186.082C227.66 153.002 227.66 99.3685 194.58 66.2885C161.5 33.2085 107.867 33.2085 74.7866 66.2885C41.7066 99.3685 41.7066 153.002 74.7866 186.082C107.867 219.162 161.5 219.162 194.58 186.082Z" stroke="#77BFA3" stroke-width="20.711"/>
<mask id="mask1_1435_1411" style="mask-type:alpha" maskUnits="userSpaceOnUse" x="60" y="32" width="193" height="169">
<path d="M134.641 200.64C175.831 200.64 209.221 167.25 209.221 126.06C209.221 112.202 258.706 68.2231 252.121 57.1051C239.135 35.1781 167.104 32.1201 139.773 32.1201C98.5825 32.1201 60.0605 84.8711 60.0605 126.06C60.0605 167.25 93.4515 200.64 134.641 200.64Z" fill="white"/>
</mask>
<g mask="url(#mask1_1435_1411)">
<path fill-rule="evenodd" clip-rule="evenodd" d="M231.172 73.0351C231.636 77.3963 230.533 81.7803 228.061 85.4031L189.838 141.43L199.933 162.13C187.22 185.093 162.745 200.641 134.639 200.641C132.441 200.641 130.244 200.546 128.054 200.354L123.823 190.828L122.423 199.645C108.103 197.285 95.1593 190.847 84.8223 181.563L87.1373 157.725C87.4174 154.836 88.4081 152.06 90.021 149.647C91.6339 147.233 93.8189 145.256 96.3813 143.891L136.295 122.632L162.802 99.5191L187.263 78.3101L128.359 79.6411L127.586 65.9381L152.197 62.8461L210.842 56.6121C220.991 55.5321 230.093 62.8861 231.172 73.0351Z" fill="white"/>
<path fill-rule="evenodd" clip-rule="evenodd" d="M127.635 129.099L119.207 109.249L137.33 101.559L145.757 121.408" fill="white"/>
<path d="M127.635 129.099L119.207 109.249L137.33 101.559L145.757 121.408" stroke="#052D23" stroke-width="1.32" stroke-linecap="round" stroke-linejoin="round"/>
<mask id="mask2_1435_1411" style="mask-type:alpha" maskUnits="userSpaceOnUse" x="119" y="101" width="27" height="32">
<path d="M119.207 109.248L137.328 101.559L144.488 118.421C146.613 123.427 144.28 129.207 139.276 131.33C134.272 133.454 128.492 131.117 126.367 126.111L119.207 109.248Z" fill="white"/>
</mask>
<g mask="url(#mask2_1435_1411)">
<path d="M139.746 112.456C151.05 107.659 156.618 95.3006 152.183 84.8536C147.747 74.4066 134.988 69.8266 123.684 74.6236C112.38 79.4216 106.812 91.7786 111.248 102.226C115.683 112.673 128.442 117.253 139.746 112.456Z" fill="#052D23"/>
</g>
<path d="M114.443 65.6096L109.361 67.7666C101.66 71.0336 98.0695 79.9276 101.341 87.6306L106.075 98.7816C109.346 106.485 118.239 110.08 125.939 106.812L131.02 104.656C138.72 101.388 142.311 92.4946 139.041 84.7916L134.306 73.6406C131.035 65.9376 122.143 62.3416 114.443 65.6096Z" fill="#052D23"/>
<path fill-rule="evenodd" clip-rule="evenodd" d="M136.588 84.3277L138.313 83.2607C138.788 82.9671 139.324 82.7865 139.88 82.7328C140.436 82.679 140.997 82.7536 141.52 82.9508C142.042 83.1479 142.513 83.4624 142.895 83.87C143.277 84.2776 143.56 84.7674 143.723 85.3017L143.772 85.4607C144.194 86.8415 144.189 88.3175 143.757 89.6952C143.326 91.073 142.488 92.2883 141.354 93.1817L140.6 93.7767L136.588 84.3277Z" fill="white" stroke="#052D23" stroke-width="1.32" stroke-linecap="round" stroke-linejoin="round"/>
<path d="M139.771 86.3301L141.02 89.2721M140.556 88.1791L141.463 86.4841" stroke="#052D23" stroke-width="1.32" stroke-linecap="round" stroke-linejoin="round"/>
<path fill-rule="evenodd" clip-rule="evenodd" d="M107.569 96.6445L105.604 97.1445C105.062 97.282 104.56 97.5419 104.135 97.9043C103.71 98.2667 103.374 98.7219 103.152 99.2348C102.931 99.7476 102.83 100.304 102.858 100.862C102.886 101.42 103.042 101.964 103.313 102.453L103.394 102.599C104.094 103.861 105.16 104.883 106.451 105.53C107.742 106.177 109.198 106.419 110.629 106.224L111.581 106.095L107.569 96.6445Z" fill="white" stroke="#052D23" stroke-width="1.32" stroke-linecap="round" stroke-linejoin="round"/>
<path d="M106.799 100.326L108.048 103.268M107.583 102.176L105.734 101.651" stroke="#052D23" stroke-width="1.32" stroke-linecap="round" stroke-linejoin="round"/>
<path fill-rule="evenodd" clip-rule="evenodd" d="M134.677 79.8419L139.12 90.3059C142.522 98.3189 138.786 107.572 130.776 110.971C122.765 114.371 113.513 110.63 110.111 102.617L105.668 92.1529C102.266 84.1389 106.001 74.8869 114.012 71.4869C122.023 68.0879 131.275 71.8279 134.677 79.8419Z" fill="white" stroke="#052D23" stroke-width="1.32" stroke-linecap="round" stroke-linejoin="round"/>
<path d="M127.809 103.025C129.116 102.472 130.149 101.423 130.682 100.108C131.215 98.7927 131.203 97.3199 130.65 96.0133M122.486 93.7783L123.465 97.7433L125.654 97.2263" stroke="#052D23" stroke-width="1.32" stroke-linecap="round" stroke-linejoin="round"/>
<path d="M114.72 95.764C116.298 95.095 117.266 93.819 116.882 92.914C116.498 92.009 114.907 91.818 113.329 92.488C111.751 93.158 110.784 94.434 111.168 95.339C111.552 96.243 113.142 96.434 114.72 95.764Z" stroke="#052D23" stroke-width="0.73" stroke-linecap="round" stroke-linejoin="round"/>
<path d="M114.721 95.7638C115.668 95.3618 116.124 94.3028 115.74 93.3978C115.356 92.4938 114.277 92.0858 113.33 92.4878C112.384 92.8898 111.928 93.9488 112.312 94.8528C112.696 95.7578 113.775 96.1658 114.721 95.7638Z" fill="#052D23"/>
<path d="M130.547 89.0468C132.125 88.3768 133.093 87.1008 132.709 86.1958C132.324 85.2908 130.734 85.1008 129.156 85.7698C127.578 86.4398 126.61 87.7158 126.994 88.6208C127.378 89.5258 128.969 89.7158 130.547 89.0468Z" stroke="#052D23" stroke-width="0.73" stroke-linecap="round" stroke-linejoin="round"/>
<path d="M130.548 89.046C131.495 88.644 131.951 87.585 131.567 86.681C131.183 85.776 130.104 85.368 129.157 85.77C128.21 86.172 127.754 87.231 128.138 88.135C128.522 89.04 129.601 89.448 130.548 89.046Z" fill="#052D23"/>
<path fill-rule="evenodd" clip-rule="evenodd" d="M118.389 60.5303C120.957 60.3083 122.464 61.6003 122.91 64.4033C126.001 63.6373 128.897 63.5113 131.598 64.0273C137.639 65.1813 139.904 71.7153 136.857 77.5303C137.12 78.9653 137.414 80.7133 137.74 82.7733C136.892 83.6683 136.292 84.0543 135.942 83.9313C134.819 83.5319 133.754 82.9822 132.778 82.2973C130.056 84.4083 126.252 86.0493 121.243 86.7263C113.99 87.7073 109.268 86.7713 107.078 83.9213C107.587 88.4753 107.449 92.4023 106.664 95.7013C100.434 92.1813 97.1352 88.2353 96.7682 83.8633C96.4442 80.0063 98.0132 77.8283 101.473 77.3273C102.402 71.8053 111.295 61.1423 118.389 60.5303Z" fill="#052D23"/>
<path d="M106.664 95.7013C101.02 92.3753 97.1352 88.2343 96.7682 83.8633C96.4442 80.0063 98.0132 77.8273 101.473 77.3273C102.403 71.8043 111.295 61.1423 118.389 60.5303C120.956 60.3083 122.464 61.5993 122.91 64.4033C126.001 63.6363 128.897 63.5113 131.598 64.0273C136.901 65.0403 138.301 70.7793 136.746 75.9583C137.12 78.0323 137.378 80.6383 137.74 82.7723" stroke="white" stroke-width="0.88" stroke-linecap="round" stroke-linejoin="round"/>
<path d="M124.996 197.951L121.225 190.295" stroke="#052D23" stroke-width="1.32" stroke-linecap="round" stroke-linejoin="round"/>
<path d="M117.816 138.214L145.282 141.632L155.211 116.38" stroke="#052D23" stroke-width="1.32" stroke-linejoin="round"/>
<path fill-rule="evenodd" clip-rule="evenodd" d="M147.137 48.1499L149.368 93.6779L166.061 91.9499L151.611 108.878L211.642 236.338L230.741 200.171L196.575 138.86L231.731 84.3549C239.633 72.1049 236.109 55.7629 223.862 47.8529C219.04 44.7379 213.334 43.2802 207.61 43.7009L147.137 48.1499Z" fill="#BFD8BD" stroke="#052D23" stroke-width="1.32" stroke-linejoin="round"/>
<path d="M165.135 93.1033L174.779 80.9053" stroke="#052D23" stroke-width="1.32" stroke-linecap="round" stroke-linejoin="round"/>
<path fill-rule="evenodd" clip-rule="evenodd" d="M162.93 96.0107L168.417 128.479L176.437 126.883C177.388 126.694 178.367 126.703 179.314 126.91C180.262 127.118 181.156 127.518 181.941 128.087C182.726 128.656 183.385 129.381 183.877 130.217C184.368 131.052 184.682 131.98 184.799 132.943L191.755 190.295" fill="#BFD8BD"/>
<path d="M162.93 96.0107L168.417 128.479L176.437 126.883C177.388 126.694 178.367 126.703 179.314 126.91C180.262 127.118 181.156 127.518 181.941 128.087C182.726 128.656 183.385 129.381 183.877 130.217C184.368 131.052 184.682 131.98 184.799 132.943L191.755 190.295" stroke="#052D23" stroke-width="1.32" stroke-linejoin="round"/>
<path fill-rule="evenodd" clip-rule="evenodd" d="M116.564 132.88L170.176 254.976L150.281 264.112L123.109 208.549L119.211 225.646L81.3027 212.289L87.0227 157.999C87.3366 155.016 88.3724 152.154 90.0405 149.661C91.7087 147.168 93.9589 145.119 96.5967 143.691L116.564 132.88Z" fill="#BFD8BD" stroke="#052D23" stroke-width="1.32" stroke-linejoin="round"/>
<path d="M197.456 140.424L193.645 133.761" stroke="#052D23" stroke-width="1.32" stroke-linecap="round" stroke-linejoin="round"/>
<path fill-rule="evenodd" clip-rule="evenodd" d="M103.334 139.497L122.872 162.106L117.964 173.67C117.502 174.76 117.341 175.953 117.498 177.126C117.656 178.299 118.125 179.409 118.858 180.338L157.415 229.23" fill="#BFD8BD"/>
<path d="M103.334 139.497L122.872 162.106L117.964 173.67C117.502 174.76 117.341 175.953 117.498 177.126C117.656 178.299 118.125 179.409 118.858 180.338L157.415 229.23" stroke="#052D23" stroke-width="1.32" stroke-linejoin="round"/>
</g>
<path fill-rule="evenodd" clip-rule="evenodd" d="M143.536 79.222L95.981 83.092C94.3399 83.2251 92.71 82.7261 91.4247 81.697C90.1395 80.6679 89.296 79.1865 89.067 77.556C88.956 76.7681 89.0014 75.966 89.2004 75.1956C89.3995 74.4251 89.7484 73.7015 90.2272 73.0659C90.706 72.4304 91.3054 71.8954 91.991 71.4915C92.6766 71.0876 93.435 70.8227 94.223 70.712L94.25 70.708L146.07 63.665" fill="white"/>
<path d="M143.536 79.222L95.981 83.092C94.3399 83.2251 92.71 82.7261 91.4247 81.697C90.1395 80.6679 89.296 79.1865 89.067 77.556C88.956 76.7681 89.0014 75.966 89.2004 75.1956C89.3995 74.4251 89.7484 73.7015 90.2272 73.0659C90.706 72.4304 91.3054 71.8954 91.991 71.4915C92.6766 71.0876 93.435 70.8227 94.223 70.712L94.25 70.708L146.07 63.665" stroke="#052D23" stroke-width="1.716" stroke-linecap="round" stroke-linejoin="round"/>
<path fill-rule="evenodd" clip-rule="evenodd" d="M143.537 79.221L110.207 81.223C108.552 81.3221 106.921 80.7943 105.638 79.7446C104.355 78.695 103.514 77.2005 103.284 75.559C103.173 74.7723 103.218 73.9714 103.417 73.2022C103.616 72.433 103.964 71.7104 104.442 71.0758C104.92 70.4412 105.519 69.907 106.203 69.5036C106.888 69.1003 107.645 68.8357 108.432 68.725L108.468 68.72L146.07 63.666" fill="white"/>
<path d="M143.537 79.221L110.207 81.223C108.552 81.3221 106.921 80.7943 105.638 79.7446C104.355 78.695 103.514 77.2005 103.284 75.559C103.173 74.7723 103.218 73.9714 103.417 73.2022C103.616 72.433 103.964 71.7104 104.442 71.0758C104.92 70.4412 105.519 69.907 106.203 69.5036C106.888 69.1003 107.645 68.8357 108.432 68.725L108.468 68.72L146.07 63.666" stroke="#052D23" stroke-width="1.32" stroke-linecap="round" stroke-linejoin="round"/>
<path d="M88.6471 173.838C89.0358 173.075 89.2704 172.243 89.3376 171.389C89.4048 170.535 89.3031 169.677 89.0385 168.863C88.7739 168.048 88.3515 167.294 87.7954 166.643C87.2394 165.992 86.5605 165.457 85.7976 165.068C85.0346 164.679 84.2026 164.445 83.349 164.378C82.4954 164.31 81.637 164.412 80.8227 164.677C80.0083 164.941 79.2541 165.364 78.603 165.92C77.9519 166.476 77.4168 167.155 77.0281 167.918L70.5131 180.704C70.1184 181.467 69.8787 182.301 69.8075 183.158C69.7364 184.014 69.8353 184.876 70.0985 185.694C70.3618 186.512 70.7842 187.27 71.3414 187.925C71.8987 188.579 72.5798 189.117 73.3456 189.507C74.1114 189.897 74.9468 190.132 75.8037 190.198C76.6606 190.264 77.5221 190.16 78.3387 189.892C79.1552 189.624 79.9108 189.197 80.5618 188.636C81.2128 188.075 81.7464 187.391 82.1321 186.623L88.6471 173.838Z" fill="white" stroke="#052D23" stroke-width="1.32" stroke-linecap="round" stroke-linejoin="round"/>
<path d="M100.269 179.758C100.672 178.994 100.92 178.157 100.997 177.296C101.074 176.435 100.979 175.568 100.717 174.744C100.456 173.92 100.034 173.157 99.4747 172.497C98.9157 171.838 98.2313 171.297 97.4613 170.905C96.6912 170.512 95.8509 170.277 94.9891 170.213C94.1273 170.148 93.2613 170.255 92.4414 170.528C91.6214 170.801 90.8639 171.235 90.2129 171.803C89.5619 172.371 89.0303 173.063 88.6491 173.839L82.1342 186.625C81.7395 187.388 81.4998 188.222 81.4286 189.079C81.3575 189.935 81.4564 190.798 81.7196 191.616C81.9829 192.434 82.4053 193.192 82.9625 193.846C83.5198 194.5 84.2009 195.038 84.9667 195.428C85.7325 195.818 86.5679 196.053 87.4248 196.119C88.2817 196.185 89.1432 196.081 89.9598 195.813C90.7763 195.545 91.5319 195.118 92.1829 194.557C92.8339 193.996 93.3675 193.312 93.7531 192.544L100.269 179.758Z" fill="white" stroke="#052D23" stroke-width="1.32" stroke-linecap="round" stroke-linejoin="round"/>
<path d="M111.892 185.68C112.287 184.916 112.527 184.082 112.598 183.226C112.669 182.369 112.57 181.507 112.307 180.689C112.044 179.871 111.621 179.113 111.064 178.459C110.507 177.804 109.825 177.267 109.06 176.876C108.294 176.486 107.459 176.251 106.602 176.185C105.745 176.119 104.883 176.223 104.067 176.491C103.25 176.759 102.495 177.186 101.844 177.747C101.193 178.308 100.659 178.993 100.273 179.761L93.7573 192.547C93.354 193.311 93.1067 194.148 93.0298 195.009C92.9529 195.869 93.0478 196.737 93.309 197.561C93.5703 198.384 93.9927 199.148 94.5517 199.807C95.1106 200.466 95.7951 201.008 96.5651 201.4C97.3352 201.792 98.1755 202.027 99.0373 202.092C99.8991 202.157 100.765 202.049 101.585 201.776C102.405 201.503 103.162 201.07 103.813 200.502C104.464 199.933 104.996 199.241 105.377 198.466L111.892 185.68Z" fill="white" stroke="#052D23" stroke-width="1.32" stroke-linecap="round" stroke-linejoin="round"/>
<path d="M123.515 191.603C123.909 190.839 124.149 190.005 124.22 189.149C124.291 188.292 124.192 187.43 123.929 186.612C123.666 185.794 123.243 185.036 122.686 184.381C122.129 183.727 121.448 183.189 120.682 182.799C119.916 182.409 119.081 182.174 118.224 182.108C117.367 182.042 116.505 182.146 115.689 182.414C114.872 182.682 114.117 183.109 113.466 183.67C112.815 184.231 112.281 184.915 111.896 185.684L105.381 198.469C104.992 199.231 104.757 200.063 104.69 200.917C104.623 201.771 104.724 202.629 104.989 203.443C105.254 204.258 105.676 205.012 106.232 205.663C106.788 206.314 107.467 206.849 108.23 207.238C108.993 207.627 109.825 207.861 110.679 207.929C111.532 207.996 112.391 207.894 113.205 207.629C114.019 207.365 114.773 206.942 115.425 206.386C116.076 205.83 116.611 205.151 117 204.389L123.515 191.603Z" fill="white" stroke="#052D23" stroke-width="1.32" stroke-linecap="round" stroke-linejoin="round"/>
</g>
<defs>
<linearGradient id="paint0_linear_1435_1411" x1="211.293" y1="235.195" x2="287.637" y2="235.624" gradientUnits="userSpaceOnUse">
<stop stop-color="#052D23"/>
<stop offset="1" stop-color="#BFD8BD"/>
</linearGradient>
</defs>
</svg>
