<svg width="1198" height="81" viewBox="0 0 1198 81" fill="none" xmlns="http://www.w3.org/2000/svg">
<line x1="-39" y1="39.3965" x2="694" y2="39.3965" stroke="#052D23" stroke-width="11"/>
<line x1="814" y1="39.3965" x2="1081.17" y2="39.3965" stroke="#052D23" stroke-width="11"/>
<circle cx="708" cy="67" r="3" fill="#052D23" stroke="#052D23" stroke-width="2"/>
<circle cx="775" cy="49" r="3" fill="#052D23" stroke="#052D23" stroke-width="2"/>
<path d="M795 18.9856L795.342 20.3L795.416 20.5841L795.7 20.658L797.014 21L795.7 21.342L795.416 21.4159L795.342 21.7L795 23.0144L794.658 21.7L794.584 21.4159L794.3 21.342L792.986 21L794.3 20.658L794.584 20.5841L794.658 20.3L795 18.9856Z" fill="#052D23" stroke="#052D23"/>
<path d="M732 37.9856L732.342 39.3L732.416 39.5841L732.7 39.658L734.014 40L732.7 40.342L732.416 40.4159L732.342 40.7L732 42.0144L731.658 40.7L731.584 40.4159L731.3 40.342L729.986 40L731.3 39.658L731.584 39.5841L731.658 39.3L732 37.9856Z" fill="#052D23" stroke="#052D23"/>
<mask id="path-7-inside-1_1428_1313" fill="white">
<path d="M707.555 17.4444C707.555 17.199 707.754 17 707.999 17C708.245 17 708.444 17.199 708.444 17.4444V20.1111C708.444 20.3566 708.245 20.5556 707.999 20.5556C707.754 20.5556 707.555 20.3566 707.555 20.1111V17.4444Z"/>
</mask>
<path d="M707.555 17.4444C707.555 17.199 707.754 17 707.999 17C708.245 17 708.444 17.199 708.444 17.4444V20.1111C708.444 20.3566 708.245 20.5556 707.999 20.5556C707.754 20.5556 707.555 20.3566 707.555 20.1111V17.4444Z" fill="#052D23"/>
<path d="M707.444 17.4444V20.1111H709.444V17.4444H707.444ZM708.555 20.1111V17.4444H706.555V20.1111H708.555ZM707.999 19.5556C708.306 19.5556 708.555 19.8043 708.555 20.1111H706.555C706.555 20.9089 707.201 21.5556 707.999 21.5556V19.5556ZM707.444 20.1111C707.444 19.8043 707.692 19.5556 707.999 19.5556V21.5556C708.797 21.5556 709.444 20.9089 709.444 20.1111H707.444ZM707.999 18C707.692 18 707.444 17.7513 707.444 17.4444H709.444C709.444 16.6467 708.797 16 707.999 16V18ZM707.999 16C707.201 16 706.555 16.6467 706.555 17.4444H708.555C708.555 17.7513 708.306 18 707.999 18V16Z" fill="#052D23" mask="url(#path-7-inside-1_1428_1313)"/>
<mask id="path-9-inside-2_1428_1313" fill="white">
<path d="M707.555 21.8898C707.555 21.6443 707.754 21.4453 707.999 21.4453C708.245 21.4453 708.444 21.6443 708.444 21.8898V24.5564C708.444 24.8019 708.245 25.0009 707.999 25.0009C707.754 25.0009 707.555 24.8019 707.555 24.5564V21.8898Z"/>
</mask>
<path d="M707.555 21.8898C707.555 21.6443 707.754 21.4453 707.999 21.4453C708.245 21.4453 708.444 21.6443 708.444 21.8898V24.5564C708.444 24.8019 708.245 25.0009 707.999 25.0009C707.754 25.0009 707.555 24.8019 707.555 24.5564V21.8898Z" fill="#052D23"/>
<path d="M707.444 21.8898V24.5564H709.444V21.8898H707.444ZM708.555 24.5564V21.8898H706.555V24.5564H708.555ZM707.999 24.0009C708.306 24.0009 708.555 24.2496 708.555 24.5564H706.555C706.555 25.3542 707.201 26.0009 707.999 26.0009V24.0009ZM707.444 24.5564C707.444 24.2496 707.692 24.0009 707.999 24.0009V26.0009C708.797 26.0009 709.444 25.3542 709.444 24.5564H707.444ZM707.999 22.4453C707.692 22.4453 707.444 22.1966 707.444 21.8898H709.444C709.444 21.092 708.797 20.4453 707.999 20.4453V22.4453ZM707.999 20.4453C707.201 20.4453 706.555 21.092 706.555 21.8898H708.555C708.555 22.1966 708.306 22.4453 707.999 22.4453V20.4453Z" fill="#052D23" mask="url(#path-9-inside-2_1428_1313)"/>
<rect x="704.222" y="20.7769" width="3.11111" height="0.444444" rx="0.222222" fill="#052D23" stroke="#052D23" stroke-width="0.444444"/>
<rect x="708.668" y="20.7769" width="3.11111" height="0.444444" rx="0.222222" fill="#052D23" stroke="#052D23" stroke-width="0.444444"/>
<mask id="path-13-inside-3_1428_1313" fill="white">
<path d="M794.555 61.4444C794.555 61.199 794.754 61 794.999 61C795.245 61 795.444 61.199 795.444 61.4444V64.1111C795.444 64.3566 795.245 64.5556 794.999 64.5556C794.754 64.5556 794.555 64.3566 794.555 64.1111V61.4444Z"/>
</mask>
<path d="M794.555 61.4444C794.555 61.199 794.754 61 794.999 61C795.245 61 795.444 61.199 795.444 61.4444V64.1111C795.444 64.3566 795.245 64.5556 794.999 64.5556C794.754 64.5556 794.555 64.3566 794.555 64.1111V61.4444Z" fill="#052D23"/>
<path d="M794.444 61.4444V64.1111H796.444V61.4444H794.444ZM795.555 64.1111V61.4444H793.555V64.1111H795.555ZM794.999 63.5556C795.306 63.5556 795.555 63.8043 795.555 64.1111H793.555C793.555 64.9089 794.201 65.5556 794.999 65.5556V63.5556ZM794.444 64.1111C794.444 63.8043 794.692 63.5556 794.999 63.5556V65.5556C795.797 65.5556 796.444 64.9089 796.444 64.1111H794.444ZM794.999 62C794.692 62 794.444 61.7513 794.444 61.4444H796.444C796.444 60.6467 795.797 60 794.999 60V62ZM794.999 60C794.201 60 793.555 60.6467 793.555 61.4444H795.555C795.555 61.7513 795.306 62 794.999 62V60Z" fill="#052D23" mask="url(#path-13-inside-3_1428_1313)"/>
<mask id="path-15-inside-4_1428_1313" fill="white">
<path d="M794.555 65.8898C794.555 65.6443 794.754 65.4453 794.999 65.4453C795.245 65.4453 795.444 65.6443 795.444 65.8898V68.5564C795.444 68.8019 795.245 69.0009 794.999 69.0009C794.754 69.0009 794.555 68.8019 794.555 68.5564V65.8898Z"/>
</mask>
<path d="M794.555 65.8898C794.555 65.6443 794.754 65.4453 794.999 65.4453C795.245 65.4453 795.444 65.6443 795.444 65.8898V68.5564C795.444 68.8019 795.245 69.0009 794.999 69.0009C794.754 69.0009 794.555 68.8019 794.555 68.5564V65.8898Z" fill="#052D23"/>
<path d="M794.444 65.8898V68.5564H796.444V65.8898H794.444ZM795.555 68.5564V65.8898H793.555V68.5564H795.555ZM794.999 68.0009C795.306 68.0009 795.555 68.2496 795.555 68.5564H793.555C793.555 69.3542 794.201 70.0009 794.999 70.0009V68.0009ZM794.444 68.5564C794.444 68.2496 794.692 68.0009 794.999 68.0009V70.0009C795.797 70.0009 796.444 69.3542 796.444 68.5564H794.444ZM794.999 66.4453C794.692 66.4453 794.444 66.1966 794.444 65.8898H796.444C796.444 65.092 795.797 64.4453 794.999 64.4453V66.4453ZM794.999 64.4453C794.201 64.4453 793.555 65.092 793.555 65.8898H795.555C795.555 66.1966 795.306 66.4453 794.999 66.4453V64.4453Z" fill="#052D23" mask="url(#path-15-inside-4_1428_1313)"/>
<rect x="791.222" y="64.7769" width="3.11111" height="0.444444" rx="0.222222" fill="#052D23" stroke="#052D23" stroke-width="0.444444"/>
<rect x="795.668" y="64.7769" width="3.11111" height="0.444444" rx="0.222222" fill="#052D23" stroke="#052D23" stroke-width="0.444444"/>
<path d="M1162.02 73.1963V6.69628C1161.22 2.69628 1158.69 1.02962 1157.52 0.696283C1155.19 -0.137051 1149.72 -0.903717 1146.52 2.69628C1143.32 6.29628 1143.19 10.1963 1143.52 11.6963H1110.52C1099.32 12.0963 1096.19 24.1963 1096.02 30.1963H1087.52C1083.52 30.1963 1082.86 32.5296 1083.02 33.6963V44.1963C1083.42 47.3963 1086.19 48.1963 1087.52 48.1963H1096.02C1095.62 63.3963 1105.52 67.8629 1110.52 68.1963H1143.52C1143.52 70.1963 1144.02 73.363 1144.52 74.6963C1144.9 75.6963 1147.02 79.7963 1153.02 80.1963C1159.02 80.5963 1161.52 75.6963 1162.02 73.1963Z" fill="#052D23"/>
<path d="M1193.02 16.6963H1165.02V29.6963H1193.02C1199.52 29.6963 1199.52 16.6963 1193.02 16.6963Z" fill="#052D23"/>
<path d="M1193.02 50.6963H1165.02V63.6963H1193.02C1199.52 63.6963 1199.52 50.6963 1193.02 50.6963Z" fill="#052D23"/>
</svg>
