<svg width="371" height="331" viewBox="0 0 371 331" fill="none" xmlns="http://www.w3.org/2000/svg">
<mask id="mask0_1441_1311" style="mask-type:alpha" maskUnits="userSpaceOnUse" x="0" y="0" width="360" height="253">
<path d="M215.134 23.7421C245.722 39.4272 267.357 44.4439 284.501 48.4192C288.231 49.284 291.747 50.0994 295.098 50.9647C304.466 53.3844 312.515 56.1882 320.3 61.5308C328.087 66.874 335.642 74.779 343.979 87.4441C360.6 112.693 363.271 148.964 353.006 180.885C342.745 212.796 319.591 240.256 284.673 247.991C251.371 255.368 231.09 250.606 208.67 245.343C207.515 245.072 206.354 244.799 205.186 244.527C181.292 238.96 154.229 233.523 106.456 241.852C59.0928 250.109 23.3412 218.236 8.29084 176.625C-6.7621 135.007 -1.01741 83.8597 34.4333 53.7871C70.0819 23.5468 96.7175 6.56787 123.68 1.86087C150.622 -2.84267 177.987 4.6933 215.134 23.7421Z" fill="white" stroke="white"/>
</mask>
<g mask="url(#mask0_1441_1311)">
<path d="M182.37 83.7148C208.479 83.7148 229.645 104.881 229.645 130.991C229.645 157.099 208.479 178.265 182.37 178.265C156.261 178.265 135.096 157.099 135.096 130.991C135.096 104.881 156.261 83.7148 182.37 83.7148Z" fill="#01133B" stroke="white"/>
<path d="M161.317 127.142L161.67 126.788L161.317 127.142C161.389 127.213 161.445 127.298 161.484 127.392C161.523 127.485 161.543 127.586 161.543 127.687C161.543 127.788 161.523 127.888 161.484 127.982L161.946 128.173L161.484 127.982C161.446 128.076 161.389 128.161 161.317 128.232L161.671 128.586L161.317 128.232C161.246 128.304 161.161 128.361 161.067 128.399C160.974 128.438 160.873 128.458 160.772 128.458C160.568 128.458 160.371 128.377 160.227 128.233C160.082 128.088 160.001 127.892 160.001 127.687C160.001 127.483 160.082 127.287 160.226 127.142C160.371 126.997 160.567 126.916 160.771 126.916C160.873 126.916 160.973 126.936 161.067 126.975C161.16 127.013 161.245 127.07 161.317 127.142ZM191.542 92.0028L191.536 92.0026C191.364 91.9972 191.203 91.9261 191.086 91.8049L190.727 92.1528L191.086 91.8049C190.967 91.6827 190.901 91.5192 190.901 91.349C190.901 91.1789 190.967 91.0154 191.086 90.8932L190.727 90.5453L191.086 90.8932C191.204 90.771 191.366 90.6996 191.536 90.6943L191.536 90.6943L191.542 90.694C191.631 90.6901 191.719 90.7041 191.802 90.7352C191.885 90.7663 191.96 90.8138 192.024 90.875L192.37 90.5136L192.024 90.875C192.088 90.9362 192.139 91.0096 192.174 91.091C192.209 91.1724 192.227 91.26 192.227 91.3485C192.227 91.4369 192.209 91.5245 192.174 91.6059C192.139 91.6873 192.088 91.7608 192.024 91.8219L192.368 92.1817L192.024 91.8219C191.96 91.8831 191.885 91.9306 191.802 91.9617C191.719 91.9929 191.631 92.0068 191.542 92.0029L191.542 92.0028ZM204.517 114.436L204.871 114.082L204.517 114.436C204.589 114.507 204.646 114.592 204.685 114.686C204.723 114.779 204.743 114.879 204.743 114.981C204.744 115.082 204.724 115.182 204.685 115.276C204.646 115.369 204.589 115.454 204.518 115.526C204.446 115.598 204.361 115.655 204.268 115.693C204.174 115.732 204.074 115.752 203.973 115.752C203.768 115.752 203.572 115.671 203.427 115.527C203.283 115.382 203.201 115.186 203.201 114.981C203.201 114.777 203.282 114.581 203.427 114.436C203.571 114.291 203.767 114.21 203.972 114.21C204.073 114.21 204.174 114.23 204.267 114.268C204.361 114.307 204.446 114.364 204.517 114.436ZM169.957 108.411C169.813 108.556 169.617 108.637 169.412 108.637C169.208 108.637 169.012 108.556 168.868 108.411C168.723 108.267 168.642 108.071 168.642 107.866C168.642 107.662 168.723 107.466 168.868 107.321C169.012 107.177 169.208 107.096 169.412 107.096C169.617 107.096 169.813 107.177 169.957 107.321L170.311 106.968L169.957 107.321C170.102 107.466 170.183 107.662 170.183 107.866C170.183 108.071 170.102 108.267 169.957 108.411ZM151.833 126.372C151.71 126.495 151.544 126.564 151.37 126.564C151.196 126.564 151.03 126.495 150.907 126.372C150.784 126.249 150.715 126.083 150.715 125.909C150.715 125.735 150.784 125.568 150.907 125.446C151.03 125.323 151.196 125.254 151.37 125.254C151.544 125.254 151.71 125.323 151.833 125.446C151.956 125.568 152.025 125.735 152.025 125.909C152.025 126.083 151.956 126.249 151.833 126.372ZM151.415 103.591L151.068 103.244L151.415 103.591C151.538 103.468 151.704 103.399 151.878 103.399C152.052 103.399 152.219 103.468 152.341 103.591C152.464 103.714 152.533 103.881 152.533 104.054C152.533 104.228 152.464 104.395 152.341 104.518C152.219 104.641 152.052 104.71 151.878 104.71C151.704 104.71 151.538 104.641 151.415 104.518C151.292 104.395 151.223 104.228 151.223 104.054C151.223 103.881 151.292 103.714 151.415 103.591ZM202.911 106.297C202.789 106.419 202.622 106.488 202.448 106.488C202.274 106.488 202.108 106.419 201.985 106.297C201.862 106.174 201.793 106.007 201.793 105.833C201.793 105.66 201.862 105.493 201.985 105.37C202.108 105.247 202.274 105.178 202.448 105.178C202.622 105.178 202.789 105.247 202.911 105.37C203.034 105.493 203.103 105.66 203.103 105.833C203.103 106.007 203.034 106.174 202.911 106.297ZM180.041 120.019C179.918 120.142 179.751 120.211 179.577 120.211C179.404 120.211 179.237 120.142 179.114 120.019C178.991 119.896 178.922 119.73 178.922 119.556C178.922 119.382 178.991 119.215 179.114 119.093C179.237 118.97 179.404 118.901 179.577 118.901C179.751 118.901 179.918 118.97 180.041 119.093C180.163 119.215 180.232 119.382 180.232 119.556C180.232 119.73 180.163 119.896 180.041 120.019ZM219.429 120.273C219.306 120.396 219.14 120.465 218.966 120.465C218.792 120.465 218.626 120.396 218.503 120.273C218.38 120.15 218.311 119.984 218.311 119.81C218.311 119.636 218.38 119.47 218.503 119.347C218.626 119.224 218.792 119.155 218.966 119.155C219.14 119.155 219.306 119.224 219.429 119.347C219.552 119.47 219.621 119.636 219.621 119.81C219.621 119.984 219.552 120.15 219.429 120.273Z" fill="white" stroke="white"/>
<mask id="mask1_1441_1311" style="mask-type:alpha" maskUnits="userSpaceOnUse" x="3" y="70" width="107" height="123">
<path d="M79.8989 70.501L38.9799 143.206L38.5605 143.951H39.4156H67.8448H68.3448V143.451V120.506H99.1353V143.451V143.951H99.6353H108.684V174.723H99.6353H99.1353V175.223V191.988H68.3448V175.223V174.723H67.8448H4.47852V141.741L44.5721 70.5021L79.8989 70.501Z" fill="white" stroke="white"/>
</mask>
<g mask="url(#mask1_1441_1311)">
<path d="M79.897 70.502L38.9779 143.207L38.5585 143.952H39.4137H67.8428H68.3428V143.452V120.507H99.1333V143.452V143.952H99.6333H108.682V174.724H99.6333H99.1333V175.224V191.989H68.3428V175.224V174.724H67.8428H4.47656V141.742L44.5701 70.5031L79.897 70.502Z" fill="#77BFA3" stroke="white"/>
<path d="M-31.123 211.337V67.9961H113.523V211.337H-31.123Z" fill="#77BFA3" stroke="white"/>
<path d="M7.9241 119.212L4.47467 129.817L-2.59198 123.016L7.9241 119.212ZM93.1455 147.056L94.1286 135.95L102.317 143.548L93.1455 147.056ZM24.9915 91.0723L25.5321 86.4702L28.8022 89.7651L24.9915 91.0723ZM64.5788 105.805L68.5075 103.327L67.9951 107.932L64.5788 105.805ZM55.423 79.7649L56.601 75.2829L59.3785 78.9991L55.423 79.7649ZM33.744 112.626L36.5215 116.342L32.566 117.108L33.744 112.626ZM99.0602 96.2879L97.7227 91.772L102.151 93.4159L99.0602 96.2879ZM71.0303 171.274L71.5157 168.683L73.3049 170.624L71.0303 171.274ZM76.8285 121.519L82.7856 119.768L80.6172 125.568L76.8285 121.519ZM46.3389 176.714L46.8325 170.544L51.4897 174.64L46.3389 176.714ZM7.56951 100.954L7.75662 98.622L9.51693 100.17L7.56951 100.954ZM22.5697 130.924L24.7237 129.993L24.178 132.269L22.5697 130.924ZM76.0992 141.092L76.7296 138.838L78.1606 140.692L76.0992 141.092ZM89.8642 162.498L90.3345 160.815L91.4036 162.2L89.8642 162.498ZM49.0991 94.3094L50.1627 93.8502L49.8936 94.9736L49.0991 94.3094ZM82.4588 76.7238L82.9441 74.1325L84.7334 76.0739L82.4588 76.7238ZM57.2103 152.176L65.4336 148.102L63.7704 157.101L57.2103 152.176ZM3.44923 148.888L4.83657 154.617L-0.318421 153.431L3.44923 148.888ZM106.791 169.322L110.558 164.779L111.945 170.508L106.791 169.322ZM28.6576 151.762L33.2886 150.829L31.2599 155.081L28.6576 151.762ZM106.265 117.068L110.896 116.135L108.866 120.387L106.265 117.068ZM96.0786 200.684L101.549 193.333L104.167 202.105L96.0786 200.684ZM51.6469 133.07L52.0591 127.24L56.4203 131.147L51.6469 133.07ZM14.4443 179.18L17.5558 174.227L19.5647 179.716L14.4443 179.18Z" fill="white" stroke="white"/>
</g>
<mask id="mask2_1441_1311" style="mask-type:alpha" maskUnits="userSpaceOnUse" x="256" y="70" width="106" height="123">
<path d="M332.495 70.501L291.576 143.206L291.156 143.951H292.011H320.441H320.941V143.451V120.506H351.731V143.451V143.951H352.231H361.28V174.723H352.231H351.731V175.223V191.988H320.941V175.223V174.723H320.441H257.074V141.741L297.168 70.5021L332.495 70.501Z" fill="white" stroke="white"/>
</mask>
<g mask="url(#mask2_1441_1311)">
<path d="M332.495 70.501L291.576 143.206L291.156 143.951H292.011H320.441H320.941V143.451V120.506H351.731V143.451V143.951H352.231H361.28V174.723H352.231H351.731V175.223V191.988H320.941V175.223V174.723H320.441H257.074V141.741L297.168 70.5021L332.495 70.501Z" fill="#77BFA3" stroke="white"/>
<path d="M244.854 211.337V67.9961H389.499V211.337H244.854Z" fill="#77BFA3" stroke="white"/>
<path d="M283.901 119.212L280.451 129.817L273.385 123.016L283.901 119.212ZM250.189 95.3994L255.958 104.952L246.171 105.806L250.189 95.3994ZM300.968 91.0723L301.51 86.4702L304.779 89.7651L300.968 91.0723ZM340.556 105.805L344.484 103.327L343.973 107.932L340.556 105.805ZM331.4 79.7649L332.578 75.2829L335.355 78.9991L331.4 79.7649ZM308.543 117.108L309.721 112.626L312.498 116.342L308.543 117.108ZM264.026 83.5829L262.611 88.0745L259.57 85.15L264.026 83.5829ZM347.008 171.274L347.493 168.683L349.282 170.624L347.008 171.274ZM352.806 121.519L358.763 119.768L356.595 125.568L352.806 121.519ZM322.316 176.714L322.81 170.544L327.466 174.64L322.316 176.714ZM283.547 100.954L283.734 98.6222L285.494 100.17L283.547 100.954ZM298.547 130.924L300.701 129.993L300.156 132.269L298.547 130.924ZM352.077 141.092L352.707 138.838L354.138 140.692L352.077 141.092ZM325.076 94.3095L326.14 93.8502L325.871 94.9739L325.076 94.3095ZM358.436 76.7238L358.921 74.1327L360.71 76.074L358.436 76.7238ZM333.188 152.176L341.41 148.102L339.747 157.101L333.188 152.176ZM279.426 148.889L280.813 154.617L275.659 153.432L279.426 148.889ZM304.635 151.762L309.266 150.829L307.237 155.081L304.635 151.762ZM258.619 164.801L261.993 168.098L257.997 169.47L258.619 164.801ZM327.624 133.07L328.037 127.24L332.397 131.147L327.624 133.07ZM290.421 179.18L293.533 174.227L295.542 179.716L290.421 179.18Z" fill="white" stroke="white"/>
</g>
<mask id="mask3_1441_1311" style="mask-type:alpha" maskUnits="userSpaceOnUse" x="87" y="36" width="190" height="190">
<path d="M88.3379 130.737C88.3379 78.945 130.437 36.957 182.371 36.957C234.305 36.957 276.404 78.945 276.404 130.737C276.404 182.528 234.305 224.516 182.371 224.516C130.437 224.516 88.3379 182.528 88.3379 130.737ZM230.645 130.991C230.645 104.329 209.032 82.7152 182.371 82.7152C155.709 82.7152 134.096 104.329 134.096 130.991C134.096 157.652 155.709 179.266 182.371 179.266C209.032 179.266 230.645 157.652 230.645 130.991Z" fill="white" stroke="white"/>
</mask>
<g mask="url(#mask3_1441_1311)">
<path d="M88.3379 130.738C88.3379 78.946 130.437 36.958 182.371 36.958C234.305 36.958 276.404 78.946 276.404 130.738C276.404 182.529 234.305 224.517 182.371 224.517C130.437 224.517 88.3379 182.529 88.3379 130.738ZM230.645 130.992C230.645 104.33 209.032 82.7162 182.371 82.7162C155.709 82.7162 134.096 104.33 134.096 130.992C134.096 157.653 155.709 179.267 182.371 179.267C209.032 179.267 230.645 157.653 230.645 130.992Z" fill="#77BFA3" stroke="white"/>
<mask id="mask4_1441_1311" style="mask-type:alpha" maskUnits="userSpaceOnUse" x="27" y="20" width="323" height="323">
<path d="M27.5371 342.002V20.7773H348.762V342.002H27.5371Z" fill="white" stroke="white"/>
</mask>
<g mask="url(#mask4_1441_1311)">
<path d="M27.5371 342.002V20.7773H348.762V342.002H27.5371Z" fill="#77BFA3" stroke="white"/>
<path d="M155.674 20.2773C160.23 79.4412 181.427 115.255 219.267 127.722C257.107 140.189 308.524 122.281 373.516 73.9984" stroke="white" stroke-width="1.32"/>
<path d="M178.067 20.2773C188.152 89.8324 165.502 125.767 110.116 128.085C27.0372 131.559 87.0593 68.4678 115.402 93.6177C143.744 118.769 141.436 173.227 97.2137 210.551C67.7323 235.435 34.1421 247.877 -3.55664 247.877M349.262 211.345C226.487 203.412 129.099 247.131 57.0996 342.502" stroke="white" stroke-width="1.32"/>
<path d="M27.0371 210.432C107.571 232.019 159.491 276.042 182.796 342.503" stroke="white" stroke-width="1.32"/>
<path d="M349.261 134.077C294.922 188.319 256.99 204.09 235.466 181.389C203.18 147.338 264.851 120.523 273.947 150.957C283.043 181.389 234.412 205.542 169.664 216.284C126.499 223.446 75.4211 254.774 16.4316 310.269M83.6893 20.2773C135.176 45.284 201.628 56.5819 283.043 54.1736C364.459 51.764 422.025 41.9873 455.745 24.8411" stroke="white" stroke-width="1.32"/>
<path d="M349.264 169.322C297.826 219.47 275.754 280.268 283.046 351.716M269.447 78.8097C291.324 78.8097 309.06 53.9267 309.06 23.2336C309.06 -7.46073 291.324 -32.3438 269.447 -32.3438C247.569 -32.3438 229.834 -7.46073 229.834 23.2336C229.834 53.9267 247.569 78.8097 269.447 78.8097Z" stroke="white" stroke-width="1.32"/>
<path d="M27.0371 143.163C154.081 168.832 253.775 238.35 326.115 351.716" stroke="white" stroke-width="1.32"/>
</g>
</g>
<path d="M182.373 36.458C130.164 36.458 87.8398 78.6686 87.8398 130.738C87.8398 182.806 130.164 225.017 182.373 225.017C234.582 225.017 276.906 182.806 276.906 130.738C276.906 78.6686 234.582 36.458 182.373 36.458Z" stroke="white" stroke-width="1.76"/>
</g>
<path d="M346.26 236.52L323.469 230.098L332.127 212.348L345.138 214.935" stroke="#01133B" stroke-width="1.32" stroke-linecap="round" stroke-linejoin="round"/>
<mask id="mask5_1441_1311" style="mask-type:alpha" maskUnits="userSpaceOnUse" x="343" y="206" width="29" height="77">
<path d="M351.17 248.388L344.404 240.783C346.617 239.194 347.773 236.541 347.873 232.825C348.116 223.684 346.79 216.643 343.895 211.7L357.173 207.642C359.86 206.821 362.648 206.38 365.457 206.331L369.183 206.267C369.25 206.265 369.316 206.277 369.378 206.302C369.44 206.326 369.497 206.363 369.545 206.409C369.593 206.455 369.631 206.511 369.658 206.572C369.684 206.633 369.698 206.699 369.699 206.766L371.001 281.091C371.005 281.337 370.95 281.579 370.841 281.799C370.731 282.018 370.57 282.208 370.372 282.352C370.173 282.496 369.942 282.59 369.7 282.626C369.457 282.662 369.209 282.639 368.977 282.558L365.544 281.369C364.094 280.867 362.794 280.008 361.763 278.871C360.732 277.735 360.003 276.357 359.644 274.865L355.061 255.831C354.395 253.068 353.059 250.512 351.17 248.388Z" fill="white"/>
</mask>
<g mask="url(#mask5_1441_1311)">
<path d="M343.237 240.619C345.769 239.236 347.01 236.6 347.111 232.805C347.364 223.326 345.925 216.137 342.727 211.261L356.952 206.914C359.706 206.072 362.565 205.62 365.445 205.57L369.928 205.491L371.763 281.078C371.769 281.379 371.716 281.677 371.606 281.957C371.496 282.236 371.331 282.491 371.122 282.707C370.898 282.94 370.626 283.123 370.326 283.243C370.025 283.363 369.703 283.418 369.379 283.403L365.304 282.094C363.731 281.55 362.321 280.62 361.202 279.388C360.083 278.156 359.293 276.662 358.904 275.044L354.32 256.01C353.685 253.369 352.408 250.926 350.602 248.896L343.237 240.619Z" stroke="#01133B" stroke-width="1.32"/>
<path d="M341.902 232.36L355.742 229.233L364.942 215.701" stroke="#01133B" stroke-width="4.4" stroke-linejoin="round"/>
<path fill-rule="evenodd" clip-rule="evenodd" d="M366.351 284.198L364.938 203.324L369.641 203.243L371.055 284.116L366.351 284.198Z" fill="#01133B"/>
<path fill-rule="evenodd" clip-rule="evenodd" d="M370.375 222.721L363.656 220.859C361.618 220.294 359.762 219.21 358.27 217.712C356.778 216.215 355.701 214.355 355.144 212.316L352.748 203.537L367.146 195.135L379.391 203.03L376.29 218.67L370.375 222.721Z" fill="white" stroke="#01133B" stroke-width="1.32" stroke-linecap="round" stroke-linejoin="round"/>
</g>
<path d="M353.717 258.45L358.761 257.221M351.939 253.343L356.944 249.83M348.473 248.264L352.351 244.771" stroke="#01133B" stroke-width="1.32" stroke-linecap="round" stroke-linejoin="round"/>
<path fill-rule="evenodd" clip-rule="evenodd" d="M331.658 232.358L334.967 212.728L333.937 212.746L328.805 231.58L331.658 232.358Z" fill="#01133B"/>
<path fill-rule="evenodd" clip-rule="evenodd" d="M179.059 117.921C195.892 110.888 215.356 116.496 225.875 131.409C242.681 155.241 252.501 168.473 255.332 171.105C258.463 174.017 271.264 177.571 280.187 181.86C287.166 185.215 293.009 193.681 300.553 196.591C317.746 203.224 324.589 200.828 334.607 209.45C331.655 219.504 327.455 235.863 322.006 258.526L235.521 204.158C229.816 200.572 224.881 195.889 221.002 190.379L209.962 174.693C216.581 190.373 221.006 199.872 223.237 203.186C226.585 208.158 234.129 208.523 244.165 215.818C254.203 223.112 255.805 228.518 264.079 234.618C272.354 240.717 286.272 244.031 293.686 254.064C289.352 263.256 280.966 278.469 268.529 299.701L189.632 224.685C185.771 221.013 182.788 216.517 180.906 211.531L161.208 159.344C155.03 142.979 162.923 124.665 179.059 117.921Z" fill="white" stroke="#01133B" stroke-width="1.32" stroke-linecap="round" stroke-linejoin="round"/>
<path d="M159.67 154.79C162.142 159.338 166.008 161.845 171.267 162.311" stroke="#01133B" stroke-width="1.32" stroke-linecap="round"/>
<path d="M160.488 160.549C163.799 163.908 167.932 165.535 172.887 165.429" stroke="#01133B" stroke-width="0.838" stroke-linecap="round" stroke-linejoin="round" stroke-dasharray="2.51 2.51"/>
<path d="M209.965 174.699L200.168 145.294" stroke="#01133B" stroke-width="1.32" stroke-linecap="round" stroke-linejoin="round"/>
<path fill-rule="evenodd" clip-rule="evenodd" d="M179.897 116.597C172.427 121.344 167.721 129.593 165.777 141.342C163.833 153.092 164.173 168.658 166.796 188.04C161.935 188.039 157.724 185.81 154.163 181.352C148.819 174.666 135.433 146.094 136.075 136.416C140.226 133.594 147.006 129.685 157.84 124.986C165.061 121.856 172.421 119.056 179.897 116.597Z" fill="#EDEEF2" stroke="#01133B" stroke-width="1.32" stroke-linecap="round" stroke-linejoin="round"/>
<path fill-rule="evenodd" clip-rule="evenodd" d="M200.168 145.294L217.874 184.951L208.907 173.918L200.168 145.294Z" fill="#01133B"/>
<path d="M165.32 145.289L187.108 200.975C190.156 208.767 196.006 215.139 203.51 218.841C213.327 223.684 220.476 228.207 224.955 232.409C234.063 240.952 241.204 253.382 250.493 261.394C259.783 269.407 272.835 271.794 280.755 279.623" stroke="#01133B" stroke-width="1.32" stroke-linejoin="round"/>
<path d="M301.939 282.298L283.023 274.871L292.517 256.612L302.907 261.144" stroke="#01133B" stroke-width="1.32" stroke-linecap="round" stroke-linejoin="round"/>
<mask id="mask6_1441_1311" style="mask-type:alpha" maskUnits="userSpaceOnUse" x="299" y="254" width="30" height="77">
<path d="M305.579 294.494L299.646 286.225C302.014 284.875 303.441 282.358 303.928 278.671C305.127 269.607 304.546 262.465 302.185 257.247L315.813 254.598C318.571 254.062 321.389 253.914 324.188 254.159L327.899 254.482C328.033 254.494 328.157 254.559 328.244 254.662C328.33 254.765 328.372 254.899 328.361 255.033L321.875 329.088C321.854 329.333 321.774 329.569 321.642 329.776C321.51 329.983 321.33 330.155 321.118 330.277C320.905 330.4 320.666 330.469 320.421 330.48C320.176 330.49 319.932 330.441 319.709 330.337L316.42 328.796C315.031 328.145 313.828 327.155 312.921 325.917C312.015 324.679 311.435 323.233 311.234 321.712L308.669 302.303C308.297 299.486 307.236 296.803 305.579 294.494Z" fill="white"/>
</mask>
<g mask="url(#mask6_1441_1311)">
<path d="M298.5 285.937C301.162 284.827 302.672 282.335 303.17 278.571C304.413 269.17 303.734 261.87 301.063 256.688L315.665 253.85C318.492 253.3 321.382 253.149 324.252 253.4L328.718 253.79L322.636 329.155C322.61 329.454 322.525 329.746 322.386 330.012C322.247 330.278 322.057 330.515 321.827 330.708C321.58 330.916 321.29 331.07 320.979 331.158C320.667 331.246 320.341 331.267 320.021 331.218L316.105 329.49C314.598 328.785 313.292 327.712 312.309 326.37C311.326 325.028 310.696 323.461 310.478 321.811L307.912 302.402C307.556 299.709 306.541 297.146 304.957 294.939L298.5 285.937Z" stroke="#01133B" stroke-width="1.32"/>
<path d="M298.035 277.583L312.125 275.919L322.691 263.422" stroke="#01133B" stroke-width="4.4" stroke-linejoin="round"/>
<path fill-rule="evenodd" clip-rule="evenodd" d="M316.928 331.694L323.98 251.114L328.667 251.524L321.615 332.102L316.928 331.694Z" fill="#01133B"/>
<path fill-rule="evenodd" clip-rule="evenodd" d="M327.359 270.973L320.871 268.419C318.904 267.645 317.172 266.373 315.845 264.727C314.518 263.082 313.641 261.119 313.301 259.033L311.836 250.053L327.035 243.2L338.386 252.33L333.665 267.562L327.359 270.973Z" fill="white" stroke="#01133B" stroke-width="1.32" stroke-linecap="round" stroke-linejoin="round"/>
</g>
<path d="M307.06 304.767L312.206 304.072M305.827 299.501L311.171 296.531M302.91 294.09L307.134 291.021" stroke="#01133B" stroke-width="1.32" stroke-linecap="round" stroke-linejoin="round"/>
<path fill-rule="evenodd" clip-rule="evenodd" d="M285.716 276.138L293.717 256.86L292.691 256.95L283.02 274.871L285.716 276.138Z" fill="#01133B"/>
</svg>
