<svg width="162" height="162" viewBox="0 0 162 162" fill="none" xmlns="http://www.w3.org/2000/svg">
<path d="M21.7738 86.1324C17.5742 86.1324 14.1699 82.7281 14.1699 78.5285V57.5135C14.1699 53.314 17.5742 49.9097 21.7738 49.9097C25.9734 49.9097 29.3777 53.314 29.3777 57.5135V78.5285C29.3773 82.7277 25.973 86.1324 21.7738 86.1324Z" stroke="black" stroke-width="0.25" stroke-miterlimit="10"/>
<mask id="mask0_2_10276" style="mask-type:luminance" maskUnits="userSpaceOnUse" x="14" y="49" width="16" height="38">
<path d="M21.7709 86.1324C17.5713 86.1324 14.167 82.7281 14.167 78.5285V57.5135C14.167 53.314 17.5713 49.9097 21.7709 49.9097C25.9705 49.9097 29.3747 53.314 29.3747 57.5135V78.5285C29.3744 82.7277 25.9701 86.1324 21.7709 86.1324Z" fill="white"/>
</mask>
<g mask="url(#mask0_2_10276)">
<path d="M34.4336 48.993L7.16797 62.0947" stroke="black" stroke-width="0.25" stroke-miterlimit="10"/>
<path d="M34.4336 53.5964L7.16797 66.698" stroke="black" stroke-width="0.25" stroke-miterlimit="10"/>
<path d="M34.4336 58.1995L7.16797 71.3011" stroke="black" stroke-width="0.25" stroke-miterlimit="10"/>
<path d="M34.4336 62.8027L7.16797 75.9044" stroke="black" stroke-width="0.25" stroke-miterlimit="10"/>
<path d="M34.4336 67.4061L7.16797 80.5077" stroke="black" stroke-width="0.25" stroke-miterlimit="10"/>
<path d="M34.4336 72.0095L7.16797 85.1107" stroke="black" stroke-width="0.25" stroke-miterlimit="10"/>
<path d="M34.4336 76.6124L7.16797 89.714" stroke="black" stroke-width="0.25" stroke-miterlimit="10"/>
</g>
<mask id="mask1_2_10276" style="mask-type:luminance" maskUnits="userSpaceOnUse" x="133" y="32" width="16" height="54">
<path d="M140.932 32.3287C144.951 32.3287 148.21 35.5868 148.21 39.6057V78.2876C148.21 82.3065 144.952 85.5646 140.932 85.5646C136.913 85.5646 133.655 82.3065 133.655 78.2876V39.6057C133.655 35.5868 136.913 32.3287 140.932 32.3287Z" fill="white"/>
</mask>
<g mask="url(#mask1_2_10276)">
<path d="M140.932 32.3287C144.951 32.3287 148.21 35.5868 148.21 39.6057V78.2876C148.21 82.3065 144.952 85.5646 140.932 85.5646C136.913 85.5646 133.655 82.3065 133.655 78.2876V39.6057C133.655 35.5868 136.913 32.3287 140.932 32.3287Z" stroke="black" stroke-width="0.25" stroke-miterlimit="10"/>
</g>
<mask id="mask2_2_10276" style="mask-type:luminance" maskUnits="userSpaceOnUse" x="133" y="32" width="16" height="54">
<path d="M140.932 32.3287C144.951 32.3287 148.21 35.5868 148.21 39.6057V78.2876C148.21 82.3065 144.952 85.5646 140.932 85.5646C136.913 85.5646 133.655 82.3065 133.655 78.2876V39.6057C133.655 35.5868 136.913 32.3287 140.932 32.3287Z" fill="white"/>
</mask>
<g mask="url(#mask2_2_10276)">
<path d="M129.932 71.2754L154.664 92.9406" stroke="black" stroke-width="0.25" stroke-miterlimit="10"/>
<path d="M129.932 63.4148L154.664 85.08" stroke="black" stroke-width="0.25" stroke-miterlimit="10"/>
<path d="M129.932 55.5542L154.664 77.219" stroke="black" stroke-width="0.25" stroke-miterlimit="10"/>
<path d="M129.932 47.693L154.664 69.3582" stroke="black" stroke-width="0.25" stroke-miterlimit="10"/>
<path d="M129.932 39.8325L154.664 61.4978" stroke="black" stroke-width="0.25" stroke-miterlimit="10"/>
<path d="M129.932 31.9716L154.664 53.6364" stroke="black" stroke-width="0.25" stroke-miterlimit="10"/>
<path d="M129.932 24.1107L154.664 45.776" stroke="black" stroke-width="0.25" stroke-miterlimit="10"/>
<path d="M129.932 45.776L154.664 24.1107" stroke="black" stroke-width="0.25" stroke-miterlimit="10"/>
<path d="M129.932 53.6364L154.664 31.9716" stroke="black" stroke-width="0.25" stroke-miterlimit="10"/>
<path d="M129.932 61.4978L154.664 39.8325" stroke="black" stroke-width="0.25" stroke-miterlimit="10"/>
<path d="M129.932 69.3582L154.664 47.693" stroke="black" stroke-width="0.25" stroke-miterlimit="10"/>
<path d="M129.932 77.219L154.664 55.5542" stroke="black" stroke-width="0.25" stroke-miterlimit="10"/>
<path d="M129.932 85.08L154.664 63.4148" stroke="black" stroke-width="0.25" stroke-miterlimit="10"/>
<path d="M129.932 92.9406L154.664 71.2754" stroke="black" stroke-width="0.25" stroke-miterlimit="10"/>
</g>
<path d="M152.181 113.434C152.181 117.293 149.052 120.421 145.194 120.421H101.223C97.3644 120.421 94.2363 117.293 94.2363 113.435C94.2363 109.576 97.3644 106.448 101.223 106.448H145.194C149.052 106.448 152.181 109.576 152.181 113.434Z" stroke="black" stroke-width="0.25" stroke-miterlimit="10"/>
<mask id="mask3_2_10276" style="mask-type:luminance" maskUnits="userSpaceOnUse" x="94" y="106" width="59" height="15">
<path d="M152.181 113.434C152.181 117.293 149.052 120.421 145.194 120.421H101.223C97.3644 120.421 94.2363 117.293 94.2363 113.435C94.2363 109.576 97.3644 106.448 101.223 106.448H145.194C149.052 106.447 152.181 109.576 152.181 113.434Z" fill="white"/>
</mask>
<g mask="url(#mask3_2_10276)">
<path d="M151.774 97.447C149.448 97.9328 147.998 100.848 149.013 102.996C149.463 103.947 150.269 104.677 150.847 105.556C151.426 106.434 151.752 107.64 151.164 108.511C150.907 108.893 150.51 109.153 150.13 109.413C148.741 110.361 147.294 111.736 147.486 113.407C147.741 115.641 150.839 117.215 150.149 119.355C149.692 120.774 147.887 121.151 146.763 122.131C145.55 123.189 145.189 124.974 145.451 126.562C145.713 128.15 146.503 129.595 147.283 131.002" stroke="black" stroke-width="0.25" stroke-miterlimit="10"/>
<path d="M148.848 97.2943C146.522 97.7801 145.071 100.695 146.087 102.844C146.536 103.795 147.342 104.525 147.92 105.403C148.499 106.281 148.826 107.487 148.237 108.359C147.98 108.74 147.584 109.001 147.204 109.26C145.814 110.208 144.368 111.584 144.559 113.255C144.815 115.488 147.912 117.062 147.223 119.202C146.765 120.621 144.96 120.999 143.836 121.978C142.623 123.036 142.262 124.821 142.524 126.409C142.786 127.997 143.576 129.442 144.356 130.849" stroke="black" stroke-width="0.25" stroke-miterlimit="10"/>
<path d="M145.923 97.1415C143.597 97.6273 142.147 100.542 143.162 102.691C143.612 103.642 144.418 104.372 144.996 105.25C145.575 106.128 145.901 107.335 145.313 108.206C145.056 108.587 144.659 108.848 144.279 109.107C142.89 110.055 141.443 111.431 141.635 113.102C141.89 115.335 144.988 116.909 144.299 119.049C143.842 120.468 142.036 120.846 140.912 121.825C139.699 122.883 139.338 124.669 139.6 126.256C139.863 127.844 140.652 129.289 141.432 130.697" stroke="black" stroke-width="0.25" stroke-miterlimit="10"/>
<path d="M142.997 96.9884C140.671 97.4742 139.221 100.389 140.236 102.538C140.685 103.489 141.491 104.219 142.07 105.097C142.648 105.975 142.975 107.181 142.386 108.053C142.129 108.434 141.733 108.695 141.353 108.954C139.964 109.902 138.517 111.278 138.708 112.949C138.964 115.182 142.062 116.756 141.372 118.896C140.915 120.315 139.109 120.693 137.986 121.672C136.772 122.73 136.411 124.516 136.674 126.103C136.936 127.691 137.725 129.136 138.505 130.544" stroke="black" stroke-width="0.25" stroke-miterlimit="10"/>
<path d="M140.072 96.8357C137.746 97.3215 136.296 100.236 137.311 102.385C137.761 103.336 138.567 104.066 139.145 104.944C139.724 105.823 140.05 107.028 139.462 107.9C139.204 108.281 138.808 108.542 138.428 108.801C137.039 109.749 135.592 111.125 135.784 112.796C136.039 115.029 139.137 116.604 138.447 118.743C137.99 120.162 136.185 120.54 135.061 121.52C133.847 122.577 133.486 124.363 133.749 125.951C134.011 127.538 134.8 128.983 135.581 130.391" stroke="black" stroke-width="0.25" stroke-miterlimit="10"/>
<path d="M137.143 96.6825C134.817 97.1683 133.366 100.083 134.382 102.232C134.831 103.183 135.637 103.913 136.216 104.791C136.794 105.669 137.121 106.875 136.533 107.747C136.275 108.128 135.879 108.389 135.499 108.648C134.11 109.596 132.663 110.972 132.854 112.643C133.11 114.876 136.208 116.45 135.519 118.59C135.061 120.009 133.256 120.387 132.132 121.366C130.919 122.424 130.558 124.21 130.82 125.797C131.082 127.385 131.871 128.83 132.652 130.238" stroke="black" stroke-width="0.25" stroke-miterlimit="10"/>
<path d="M134.219 96.5297C131.893 97.0155 130.442 99.9304 131.458 102.079C131.907 103.03 132.713 103.76 133.292 104.638C133.87 105.516 134.197 106.722 133.608 107.594C133.351 107.975 132.955 108.236 132.575 108.495C131.185 109.443 129.739 110.819 129.93 112.49C130.186 114.723 133.283 116.298 132.594 118.437C132.136 119.856 130.331 120.234 129.207 121.214C127.994 122.271 127.633 124.057 127.895 125.645C128.158 127.232 128.947 128.677 129.727 130.085" stroke="black" stroke-width="0.25" stroke-miterlimit="10"/>
<path d="M131.292 96.3765C128.966 96.8623 127.516 99.7772 128.531 101.926C128.98 102.877 129.786 103.607 130.365 104.485C130.943 105.363 131.27 106.57 130.681 107.441C130.424 107.822 130.028 108.083 129.648 108.342C128.259 109.29 126.812 110.666 127.003 112.337C127.259 114.57 130.356 116.144 129.667 118.284C129.21 119.703 127.404 120.081 126.281 121.06C125.067 122.118 124.706 123.904 124.968 125.491C125.231 127.079 126.02 128.524 126.8 129.932" stroke="black" stroke-width="0.25" stroke-miterlimit="10"/>
<path d="M128.366 96.2238C126.04 96.7096 124.589 99.6245 125.605 101.773C126.054 102.724 126.86 103.454 127.439 104.332C128.017 105.211 128.344 106.417 127.755 107.288C127.498 107.669 127.102 107.93 126.722 108.189C125.332 109.138 123.886 110.513 124.077 112.184C124.333 114.417 127.43 115.992 126.741 118.132C126.284 119.551 124.479 119.928 123.355 120.908C122.141 121.965 121.78 123.751 122.043 125.339C122.305 126.927 123.094 128.371 123.875 129.779" stroke="black" stroke-width="0.25" stroke-miterlimit="10"/>
<path d="M125.441 96.0706C123.115 96.5564 121.665 99.4713 122.68 101.62C123.13 102.571 123.936 103.301 124.514 104.179C125.093 105.058 125.419 106.263 124.831 107.135C124.574 107.516 124.177 107.777 123.797 108.036C122.408 108.984 120.961 110.36 121.153 112.031C121.408 114.264 124.506 115.839 123.816 117.978C123.359 119.397 121.554 119.775 120.43 120.755C119.217 121.812 118.856 123.598 119.118 125.186C119.38 126.773 120.169 128.218 120.95 129.626" stroke="black" stroke-width="0.25" stroke-miterlimit="10"/>
<path d="M122.513 95.9177C120.187 96.4035 118.736 99.3184 119.752 101.467C120.201 102.418 121.007 103.148 121.585 104.026C122.164 104.905 122.491 106.11 121.902 106.982C121.645 107.363 121.249 107.624 120.869 107.883C119.479 108.832 118.033 110.207 118.224 111.878C118.48 114.111 121.577 115.686 120.888 117.825C120.43 119.245 118.625 119.622 117.501 120.602C116.288 121.659 115.927 123.445 116.189 125.033C116.452 126.621 117.241 128.065 118.021 129.473" stroke="black" stroke-width="0.25" stroke-miterlimit="10"/>
<path d="M119.587 95.7651C117.261 96.251 115.811 99.1659 116.826 101.314C117.275 102.265 118.081 102.995 118.66 103.874C119.238 104.752 119.565 105.958 118.976 106.83C118.719 107.211 118.323 107.472 117.943 107.731C116.554 108.679 115.107 110.054 115.298 111.725C115.554 113.959 118.651 115.533 117.962 117.673C117.505 119.092 115.699 119.47 114.575 120.449C113.362 121.507 113.001 123.292 113.263 124.88C113.526 126.468 114.315 127.913 115.095 129.32" stroke="black" stroke-width="0.25" stroke-miterlimit="10"/>
<path d="M116.661 95.6123C114.335 96.0981 112.884 99.013 113.9 101.162C114.349 102.112 115.155 102.842 115.734 103.721C116.312 104.599 116.639 105.805 116.051 106.677C115.793 107.058 115.397 107.319 115.017 107.578C113.628 108.526 112.181 109.902 112.372 111.573C112.628 113.806 115.726 115.38 115.036 117.52C114.579 118.939 112.773 119.317 111.65 120.296C110.436 121.354 110.075 123.139 110.338 124.727C110.6 126.315 111.389 127.76 112.17 129.167" stroke="black" stroke-width="0.25" stroke-miterlimit="10"/>
<path d="M113.736 95.4591C111.41 95.9449 109.96 98.8598 110.975 101.008C111.425 101.959 112.231 102.689 112.809 103.568C113.388 104.446 113.714 105.652 113.126 106.524C112.869 106.905 112.472 107.165 112.092 107.425C110.703 108.373 109.256 109.748 109.448 111.419C109.703 113.653 112.801 115.227 112.111 117.367C111.654 118.786 109.849 119.164 108.725 120.143C107.511 121.201 107.15 122.986 107.413 124.574C107.675 126.162 108.464 127.607 109.245 129.014" stroke="black" stroke-width="0.25" stroke-miterlimit="10"/>
<path d="M110.81 95.3064C108.484 95.7922 107.033 98.7071 108.049 100.856C108.498 101.806 109.304 102.537 109.883 103.415C110.461 104.293 110.788 105.499 110.2 106.371C109.942 106.752 109.546 107.013 109.166 107.272C107.777 108.22 106.33 109.596 106.521 111.267C106.777 113.5 109.875 115.075 109.186 117.214C108.728 118.633 106.923 119.011 105.799 119.99C104.586 121.048 104.225 122.834 104.487 124.421C104.749 126.009 105.539 127.454 106.319 128.861" stroke="black" stroke-width="0.25" stroke-miterlimit="10"/>
<path d="M107.886 95.1533C105.56 95.6391 104.109 98.5541 105.125 100.703C105.574 101.653 106.38 102.384 106.959 103.262C107.537 104.14 107.864 105.346 107.275 106.218C107.018 106.599 106.622 106.86 106.242 107.119C104.852 108.067 103.406 109.443 103.597 111.114C103.853 113.347 106.95 114.922 106.261 117.061C105.803 118.48 103.998 118.858 102.874 119.837C101.661 120.895 101.3 122.68 101.562 124.268C101.825 125.856 102.614 127.301 103.394 128.708" stroke="black" stroke-width="0.25" stroke-miterlimit="10"/>
<path d="M104.957 95.0005C102.631 95.4863 101.18 98.4012 102.196 100.55C102.645 101.5 103.451 102.231 104.03 103.109C104.608 103.987 104.935 105.193 104.346 106.065C104.089 106.446 103.693 106.707 103.313 106.966C101.924 107.914 100.477 109.29 100.668 110.961C100.924 113.194 104.022 114.769 103.332 116.908C102.875 118.327 101.069 118.705 99.9455 119.684C98.7322 120.742 98.3712 122.528 98.6335 124.115C98.8958 125.703 99.6852 127.148 100.465 128.556" stroke="black" stroke-width="0.25" stroke-miterlimit="10"/>
<path d="M102.031 94.8473C99.7052 95.3331 98.2545 98.248 99.2701 100.397C99.7195 101.347 100.525 102.077 101.104 102.956C101.683 103.834 102.009 105.04 101.421 105.912C101.163 106.293 100.767 106.554 100.387 106.813C98.9983 107.761 97.5511 109.136 97.7425 110.808C97.9981 113.041 101.096 114.615 100.406 116.755C99.9489 118.174 98.1436 118.552 97.0198 119.531C95.8064 120.589 95.4454 122.374 95.7077 123.962C95.9701 125.55 96.7594 126.995 97.5396 128.402" stroke="black" stroke-width="0.25" stroke-miterlimit="10"/>
<path d="M99.1057 94.6946C96.7796 95.1804 95.3293 98.0953 96.3445 100.244C96.7939 101.194 97.5999 101.925 98.1784 102.803C98.757 103.681 99.0835 104.887 98.4955 105.759C98.2383 106.14 97.842 106.401 97.462 106.66C96.0727 107.608 94.6259 108.984 94.8173 110.655C95.0729 112.888 98.1705 114.463 97.4814 116.602C97.0241 118.021 95.2188 118.399 94.095 119.379C92.8816 120.436 92.5206 122.222 92.7829 123.81C93.0453 125.397 93.8346 126.842 94.6149 128.25" stroke="black" stroke-width="0.25" stroke-miterlimit="10"/>
</g>
<path d="M141.633 19.6517H23.0762V113.101H141.633V19.6517Z" fill="#E6E9FF"/>
<path d="M141.633 13.3231H23.0762V20.1931H141.633V13.3231Z" fill="#99C28F"/>
<path d="M44.7041 28.6353H32.4287V40.961H44.7041V28.6353Z" fill="#99C28F"/>
<path d="M59.3877 28.6353H47.1123V40.961H59.3877V28.6353Z" fill="#32977F" stroke="black" stroke-width="0.5" stroke-miterlimit="10"/>
<path d="M74.0703 28.6353H61.7949V40.961H74.0703V28.6353Z" fill="#99C28F"/>
<path d="M88.752 28.6353H76.4766V40.961H88.752V28.6353Z" fill="#99C28F"/>
<path d="M103.435 28.6353H91.1592V40.961H103.435V28.6353Z" fill="#99C28F"/>
<path d="M118.118 28.6353H105.843V40.961H118.118V28.6353Z" fill="#32977F" stroke="black" stroke-width="0.5" stroke-miterlimit="10"/>
<path d="M132.317 28.6353H120.042V40.961H132.317V28.6353Z" fill="#99C28F"/>
<path d="M44.7041 43.4987H32.4287V55.8244H44.7041V43.4987Z" fill="#32977F" stroke="black" stroke-width="0.5" stroke-miterlimit="10"/>
<path d="M59.3877 43.4987H47.1123V55.8244H59.3877V43.4987Z" fill="#99C28F"/>
<path d="M74.0703 43.4987H61.7949V55.8244H74.0703V43.4987Z" fill="#99C28F"/>
<path d="M88.752 43.4987H76.4766V55.8244H88.752V43.4987Z" fill="#32977F" stroke="black" stroke-width="0.5" stroke-miterlimit="10"/>
<path d="M103.435 43.4987H91.1592V55.8244H103.435V43.4987Z" fill="#99C28F"/>
<path d="M118.118 43.4987H105.843V55.8244H118.118V43.4987Z" fill="#99C28F"/>
<path d="M132.317 43.4987H120.042V55.8244H132.317V43.4987Z" fill="#32977F" stroke="black" stroke-width="0.5" stroke-miterlimit="10"/>
<path d="M44.7041 58.3621H32.4287V70.6878H44.7041V58.3621Z" fill="#99C28F"/>
<path d="M59.3877 58.3621H47.1123V70.6878H59.3877V58.3621Z" fill="#99C28F"/>
<path d="M74.0703 58.3621H61.7949V70.6878H74.0703V58.3621Z" fill="#99C28F"/>
<path d="M88.752 58.3621H76.4766V70.6878H88.752V58.3621Z" fill="#99C28F"/>
<path d="M103.435 58.3621H91.1592V70.6878H103.435V58.3621Z" fill="#32977F" stroke="black" stroke-width="0.5" stroke-miterlimit="10"/>
<path d="M118.118 58.3621H105.843V70.6878H118.118V58.3621Z" fill="#99C28F"/>
<path d="M132.317 58.3621H120.042V70.6878H132.317V58.3621Z" fill="#99C28F"/>
<path d="M44.7041 73.2258H32.4287V85.5516H44.7041V73.2258Z" fill="#99C28F"/>
<path d="M59.3877 73.2258H47.1123V85.5516H59.3877V73.2258Z" fill="#99C28F"/>
<path d="M74.0703 73.2258H61.7949V85.5516H74.0703V73.2258Z" fill="#99C28F"/>
<path d="M88.752 73.2258H76.4766V85.5516H88.752V73.2258Z" fill="#32977F" stroke="black" stroke-width="0.5" stroke-miterlimit="10"/>
<path d="M103.435 73.2258H91.1592V85.5516H103.435V73.2258Z" fill="#99C28F"/>
<path d="M118.118 73.2258H105.843V85.5516H118.118V73.2258Z" fill="#32977F" stroke="black" stroke-width="0.5" stroke-miterlimit="10"/>
<path d="M132.317 73.2258H120.042V85.5516H132.317V73.2258Z" fill="#99C28F"/>
<path d="M44.7041 88.0891H32.4287V100.415H44.7041V88.0891Z" fill="#99C28F"/>
<path d="M59.3877 88.0891H47.1123V100.415H59.3877V88.0891Z" fill="#99C28F"/>
<path d="M74.0703 88.0891H61.7949V100.415H74.0703V88.0891Z" fill="#99C28F"/>
<path d="M88.752 88.0891H76.4766V100.415H88.752V88.0891Z" fill="#32977F" stroke="black" stroke-width="0.5" stroke-miterlimit="10"/>
<path d="M125.546 49.6713L151.431 49.5227" stroke="#222221" stroke-width="0.5" stroke-miterlimit="10"/>
<path d="M126.737 49.5969C126.737 50.1719 126.271 50.6383 125.696 50.6383C125.121 50.6383 124.654 50.1723 124.654 49.5969C124.654 49.0219 125.12 48.5555 125.696 48.5555C126.271 48.5559 126.737 49.0219 126.737 49.5969Z" fill="black"/>
<path d="M10.1475 37.038L38.5682 49.053" stroke="#222221" stroke-width="0.5" stroke-miterlimit="10"/>
<path d="M38.6489 49.0354C38.6489 49.7233 38.091 50.2812 37.4031 50.2812C36.7152 50.2812 36.1572 49.7233 36.1572 49.0354C36.1572 48.3475 36.7152 47.7896 37.4031 47.7896C38.091 47.7896 38.6489 48.3471 38.6489 49.0354Z" fill="#222221"/>
<path d="M157.727 42.2354V56.437C153.854 56.3791 150.731 53.2233 150.731 49.336C150.731 45.4486 153.854 42.2928 157.727 42.2354Z" fill="#3A846E" stroke="black" stroke-width="0.5" stroke-miterlimit="10"/>
<path d="M157.678 45.1339V53.5378C155.386 53.5038 153.538 51.6362 153.538 49.3359C153.538 47.0356 155.386 45.168 157.678 45.1339Z" fill="black"/>
<path d="M156.327 102.276L152.574 100.264L148.789 102.215L149.543 98.0239L146.518 95.0273L150.737 94.4488L152.652 90.6459L154.505 94.4793L158.714 95.1256L155.641 98.073L156.327 102.276Z" fill="#32977F" stroke="black" stroke-width="0.5" stroke-miterlimit="10"/>
<path d="M154.464 99.7776L152.591 98.7735L150.702 99.7475L151.078 97.6556L149.568 96.1601L151.674 95.8712L152.63 93.9731L153.555 95.8863L155.656 96.2093L154.122 97.6802L154.464 99.7776Z" fill="black"/>
<path d="M101.083 23.3608L98.8207 22.1478L96.539 23.3239L96.9935 20.7977L95.1699 18.9912L97.7127 18.6425L98.8674 16.3501L99.9845 18.6611L102.522 19.0506L100.669 20.8275L101.083 23.3608Z" fill="black"/>
<path d="M43.2593 154.701C43.3009 154.826 43.3469 154.957 43.4547 155.052C43.5755 155.158 43.7507 155.2 43.9159 155.235C45.3456 155.541 46.7892 155.781 48.2384 155.954C47.6594 151.624 48.0608 147.242 47.4205 142.939C47.2513 141.802 47.002 140.655 46.4132 139.648C45.8239 138.641 44.8487 137.78 43.6488 137.523C42.449 137.266 41.043 137.734 40.4894 138.758C40.1158 139.449 40.1601 140.266 40.241 141.036C40.7324 145.731 41.7567 150.195 43.2593 154.701Z" fill="white" stroke="#222221" stroke-width="0.5" stroke-miterlimit="10"/>
<path d="M42.8616 154.637C43.5729 154.757 44.3104 154.783 45.0046 154.757C46.0947 154.716 47.1963 154.554 48.1807 154.119C48.5357 154.304 48.9229 154.708 49.3274 154.871C50.7179 155.43 52.1084 155.99 53.4989 156.55C54.5434 156.97 55.5979 157.396 56.5133 158.026C56.7332 158.177 56.9571 158.358 57.0225 158.605C57.3042 159.674 54.4848 159.347 53.9173 159.341C52.3989 159.327 50.8962 159.189 49.3794 159.172C48.0978 159.158 46.812 159.193 45.5356 159.129C44.7756 159.091 43.567 159.415 43.0035 158.859C42.5632 158.426 42.5902 157.547 42.7126 157.01C42.8882 156.238 42.8913 155.414 42.8616 154.637Z" fill="#161111"/>
<path d="M24.9345 155.228C24.9187 155.351 24.9001 155.481 24.8117 155.574C24.7126 155.678 24.5454 155.716 24.3869 155.749C23.0158 156.028 21.6166 156.241 20.1976 156.388C19.7736 156.431 19.5786 141.821 19.7399 140.573C19.8168 139.978 19.9095 139.378 20.1366 138.817C20.2357 138.573 20.3648 138.331 20.5756 138.158C20.7948 137.979 21.0856 137.891 21.3749 137.86C22.1619 137.773 22.9576 138.08 23.5587 138.561C24.1594 139.042 24.5874 139.684 24.9365 140.347C26.1467 142.644 26.4867 145.325 25.9228 147.826C25.3752 150.261 25.2531 152.733 24.9345 155.228Z" fill="white" stroke="#222221" stroke-width="0.5" stroke-miterlimit="10"/>
<path d="M16.9083 112.766C16.7498 107.438 16.6297 102.293 17.5336 96.9977C18.0206 94.1438 18.7636 91.2947 19.9084 88.6286C20.7857 86.5859 21.7285 84.5459 23.088 82.7869C24.4472 81.0279 26.27 79.5514 28.4174 78.9769C30.5124 78.4166 32.1296 78.9773 33.9773 79.8835C35.5889 80.6741 37.1585 81.0886 37.9217 82.9518C38.5399 84.4615 38.396 85.9966 39.1331 87.4569C41.2147 91.5804 41.4821 95.6742 42.1015 100.215C42.8334 105.579 43.5942 110.939 44.3832 116.296C45.8826 126.475 47.4887 136.64 49.1946 146.79C48.0609 147.045 46.9137 147.245 45.7538 147.367C43.7381 147.579 41.7135 147.526 39.7037 147.308C37.7394 138.078 35.642 128.873 33.4047 119.698C32.2853 115.107 31.3469 110.618 30.1902 106.261C29.4045 113.379 28.7264 120.509 28.2513 127.652C28.0092 131.293 27.8194 134.937 27.6962 138.583C27.5939 141.606 26.9873 144.892 27.1196 147.852C24.8086 148.234 22.049 147.885 19.681 147.728C19.4091 147.71 17.3846 147.461 17.3616 147.224C16.7423 140.829 16.7661 135.688 16.6226 128.972C16.5152 123.923 17.0561 117.716 16.9083 112.766Z" fill="#00652E" stroke="black" stroke-width="0.5" stroke-miterlimit="10"/>
<mask id="mask4_2_10276" style="mask-type:luminance" maskUnits="userSpaceOnUse" x="16" y="80" width="34" height="69">
<path d="M16.908 112.766C16.7495 107.438 16.6295 102.293 17.5333 96.9982C17.9209 94.728 19.9343 86.8979 22.9891 86.4719C23.1753 86.4461 23.3211 86.4608 23.4531 86.4901C23.6132 85.6936 23.9405 84.9451 24.3978 84.2607C25.7304 82.2656 28.1484 80.8093 30.6231 80.2632C33.368 79.6578 36.7144 80.0053 37.9218 82.9531C38.54 84.4628 38.3961 85.998 39.1332 87.4582C41.2148 91.5817 41.4822 95.6755 42.1016 100.217C42.8335 105.58 43.5943 110.941 44.3833 116.298C45.8827 126.476 47.4888 136.641 49.1947 146.792C48.061 147.046 46.9138 147.246 45.7539 147.368C43.7381 147.58 41.7136 147.527 39.7038 147.309C37.7395 138.079 35.6421 128.874 33.4048 119.699C32.2854 115.109 31.347 110.619 30.1903 106.262C29.4046 113.38 28.7265 120.51 28.2514 127.653C28.0093 131.294 27.8195 134.938 27.6963 138.585C27.594 141.607 26.9874 144.893 27.1197 147.853C24.8087 148.235 22.0491 147.887 19.6811 147.729C19.4092 147.711 17.3847 147.462 17.3617 147.225C16.7424 140.83 16.7662 135.689 16.6227 128.973C16.5149 123.923 17.0558 117.716 16.908 112.766Z" fill="white"/>
</mask>
<g mask="url(#mask4_2_10276)">
<path d="M12.5274 144.114C13.2918 144.09 14.1133 144.314 14.8666 144.425C15.6789 144.545 16.4928 144.654 17.3087 144.75C18.8538 144.933 20.4047 145.073 21.9573 145.184C23.5114 145.294 25.066 145.348 26.6233 145.399C27.4011 145.425 28.1798 145.442 28.9581 145.448C29.7906 145.455 30.6271 145.5 31.4585 145.464C31.7228 145.453 31.7224 145.836 31.4585 145.847C30.6232 145.883 29.7946 145.978 28.9581 146.011C28.1802 146.041 27.4015 146.062 26.6233 146.071C25.041 146.091 23.4536 146.029 21.8741 145.944C20.293 145.859 18.7155 145.721 17.1431 145.544C16.3862 145.459 15.631 145.365 14.8769 145.262C14.0875 145.153 13.1642 145.115 12.4232 144.831C12.0305 144.682 12.0559 144.128 12.5274 144.114Z" fill="black"/>
</g>
<mask id="mask5_2_10276" style="mask-type:luminance" maskUnits="userSpaceOnUse" x="16" y="80" width="34" height="69">
<path d="M16.908 112.766C16.7495 107.438 16.6295 102.293 17.5333 96.9982C17.9209 94.728 19.9343 86.8979 22.9891 86.4719C23.1753 86.4461 23.3211 86.4608 23.4531 86.4901C23.6132 85.6936 23.9405 84.9451 24.3978 84.2607C25.7304 82.2656 28.1484 80.8093 30.6231 80.2632C33.368 79.6578 36.7144 80.0053 37.9218 82.9531C38.54 84.4628 38.3961 85.998 39.1332 87.4582C41.2148 91.5817 41.4822 95.6755 42.1016 100.217C42.8335 105.58 43.5943 110.941 44.3833 116.298C45.8827 126.476 47.4888 136.641 49.1947 146.792C48.061 147.046 46.9138 147.246 45.7539 147.368C43.7381 147.58 41.7136 147.527 39.7038 147.309C37.7395 138.079 35.6421 128.874 33.4048 119.699C32.2854 115.109 31.347 110.619 30.1903 106.262C29.4046 113.38 28.7265 120.51 28.2514 127.653C28.0093 131.294 27.8195 134.938 27.6963 138.585C27.594 141.607 26.9874 144.893 27.1197 147.853C24.8087 148.235 22.0491 147.887 19.6811 147.729C19.4092 147.711 17.3847 147.462 17.3617 147.225C16.7424 140.83 16.7662 135.689 16.6227 128.973C16.5149 123.923 17.0558 117.716 16.908 112.766Z" fill="white"/>
</mask>
<g mask="url(#mask5_2_10276)">
<path d="M10.9977 142.656C11.8247 142.546 12.7527 142.796 13.5761 142.892C14.4063 142.99 15.2381 143.075 16.0706 143.154C17.7365 143.311 19.4052 143.436 21.0774 143.516C24.4753 143.679 27.8792 143.632 31.2796 143.646C31.4951 143.647 31.4813 143.926 31.2796 143.95C27.8681 144.355 24.4262 144.367 20.9938 144.24C19.295 144.178 17.5962 144.078 15.9042 143.924C15.0716 143.849 14.2403 143.761 13.4101 143.665C12.6097 143.571 11.6495 143.572 10.9145 143.247C10.66 143.134 10.7048 142.695 10.9977 142.656Z" fill="black"/>
</g>
<mask id="mask6_2_10276" style="mask-type:luminance" maskUnits="userSpaceOnUse" x="16" y="80" width="34" height="69">
<path d="M16.908 112.766C16.7495 107.438 16.6295 102.293 17.5333 96.9982C17.9209 94.728 19.9343 86.8979 22.9891 86.4719C23.1753 86.4461 23.3211 86.4608 23.4531 86.4901C23.6132 85.6936 23.9405 84.9451 24.3978 84.2607C25.7304 82.2656 28.1484 80.8093 30.6231 80.2632C33.368 79.6578 36.7144 80.0053 37.9218 82.9531C38.54 84.4628 38.3961 85.998 39.1332 87.4582C41.2148 91.5817 41.4822 95.6755 42.1016 100.217C42.8335 105.58 43.5943 110.941 44.3833 116.298C45.8827 126.476 47.4888 136.641 49.1947 146.792C48.061 147.046 46.9138 147.246 45.7539 147.368C43.7381 147.58 41.7136 147.527 39.7038 147.309C37.7395 138.079 35.6421 128.874 33.4048 119.699C32.2854 115.109 31.347 110.619 30.1903 106.262C29.4046 113.38 28.7265 120.51 28.2514 127.653C28.0093 131.294 27.8195 134.938 27.6963 138.585C27.594 141.607 26.9874 144.893 27.1197 147.853C24.8087 148.235 22.0491 147.887 19.6811 147.729C19.4092 147.711 17.3847 147.462 17.3617 147.225C16.7424 140.83 16.7662 135.689 16.6227 128.973C16.5149 123.923 17.0558 117.716 16.908 112.766Z" fill="white"/>
</mask>
<g mask="url(#mask6_2_10276)">
<path d="M35.3651 145.173C35.6852 145.013 36.0098 145.053 36.3664 145.053C36.7012 145.053 37.0361 145.051 37.3709 145.048C38.0684 145.04 38.7654 145.026 39.4624 145.005C40.8838 144.963 42.3044 144.89 43.7222 144.786C46.582 144.576 49.4732 144.344 52.2969 143.865C52.5288 143.826 52.6282 144.156 52.3948 144.196C49.5659 144.676 46.7548 145.165 43.8891 145.424C42.4443 145.555 40.9959 145.654 39.546 145.721C38.8213 145.755 38.0961 145.779 37.3709 145.796C37.0361 145.803 36.7012 145.809 36.3664 145.813C36.0141 145.817 35.6829 145.856 35.3651 145.696C35.1535 145.591 35.1527 145.279 35.3651 145.173Z" fill="black"/>
</g>
<mask id="mask7_2_10276" style="mask-type:luminance" maskUnits="userSpaceOnUse" x="16" y="80" width="34" height="69">
<path d="M16.908 112.766C16.7495 107.438 16.6295 102.293 17.5333 96.9982C17.9209 94.728 19.9343 86.8979 22.9891 86.4719C23.1753 86.4461 23.3211 86.4608 23.4531 86.4901C23.6132 85.6936 23.9405 84.9451 24.3978 84.2607C25.7304 82.2656 28.1484 80.8093 30.6231 80.2632C33.368 79.6578 36.7144 80.0053 37.9218 82.9531C38.54 84.4628 38.3961 85.998 39.1332 87.4582C41.2148 91.5817 41.4822 95.6755 42.1016 100.217C42.8335 105.58 43.5943 110.941 44.3833 116.298C45.8827 126.476 47.4888 136.641 49.1947 146.792C48.061 147.046 46.9138 147.246 45.7539 147.368C43.7381 147.58 41.7136 147.527 39.7038 147.309C37.7395 138.079 35.6421 128.874 33.4048 119.699C32.2854 115.109 31.347 110.619 30.1903 106.262C29.4046 113.38 28.7265 120.51 28.2514 127.653C28.0093 131.294 27.8195 134.938 27.6963 138.585C27.594 141.607 26.9874 144.893 27.1197 147.853C24.8087 148.235 22.0491 147.887 19.6811 147.729C19.4092 147.711 17.3847 147.462 17.3617 147.225C16.7424 140.83 16.7662 135.689 16.6227 128.973C16.5149 123.923 17.0558 117.716 16.908 112.766Z" fill="white"/>
</mask>
<g mask="url(#mask7_2_10276)">
<path d="M35.9496 142.984C36.5559 142.855 37.2711 142.986 37.8917 143.004C38.5586 143.024 39.2255 143.036 39.8928 143.039C41.2262 143.044 42.5608 143.018 43.8931 142.959C45.2245 142.901 46.5536 142.802 47.8806 142.693C48.5158 142.64 49.1487 142.571 49.7831 142.513C50.5098 142.447 51.2386 142.424 51.9586 142.309C52.1904 142.272 52.2898 142.602 52.0564 142.64C51.3733 142.749 50.7072 142.918 50.0272 143.043C49.3761 143.163 48.714 143.244 48.0566 143.329C46.7291 143.5 45.3961 143.619 44.0591 143.704C42.7273 143.789 41.3938 143.839 40.0592 143.851C39.3923 143.856 38.725 143.853 38.0581 143.841C37.6967 143.835 37.3357 143.826 36.9747 143.814C36.6359 143.803 36.2725 143.825 35.9492 143.723C35.5878 143.609 35.5303 143.073 35.9496 142.984Z" fill="black"/>
</g>
<path d="M25.6974 158.64C25.6951 158.655 25.6927 158.669 25.6903 158.684C25.6713 158.797 25.6416 158.922 25.5401 158.987C25.4688 159.032 25.3777 159.037 25.2913 159.041C21.9143 159.177 18.5865 159.305 15.2076 159.394C14.4432 159.414 11.2184 159.42 11.0064 158.402C10.9565 158.161 11.0936 157.914 11.2913 157.752C11.4887 157.591 11.7391 157.499 11.9848 157.412C13.5092 156.869 15.2417 156.546 16.6948 155.87C17.2325 155.619 17.7441 155.264 18.2869 154.999C18.5774 154.857 19.7705 153.996 20.0372 154.051C21.7007 154.394 23.5953 154.648 25.2889 154.384C25.789 155.745 25.9304 157.219 25.6974 158.64Z" fill="#161111"/>
<path d="M30.1904 106.26C30.2665 102.814 30.3668 99.3097 30.7916 95.5884" stroke="#131834" stroke-width="0.5" stroke-miterlimit="10"/>
<path d="M30.4977 103.034C30.5992 103.343 30.7311 103.643 30.8849 103.925C31.0596 104.245 31.2724 104.558 31.3315 104.914C31.404 105.352 31.2336 105.79 31.1947 106.231C31.1595 106.629 31.232 107.028 31.2883 107.424C31.3279 107.705 31.5601 110.845 31.44 110.853C31.1769 110.872 31.0378 109.653 30.9475 109.413C30.7818 108.972 30.741 108.444 30.5952 107.997C30.487 107.64 30.3032 106.616 30.1914 106.26C30.3067 104.823 30.3915 103.258 30.2782 101.834C30.2897 102.236 30.3689 102.642 30.4977 103.034Z" fill="#161111"/>
<path d="M36.8441 53.2047C36.7312 52.8932 36.499 52.6376 36.2751 52.3935C35.6542 51.7171 34.5759 51.0296 33.6249 51.1112C33.2734 51.1413 32.9398 51.2709 32.6041 51.3803C32.1536 51.5273 31.6915 51.6399 31.2239 51.7163C30.6561 51.8095 30.0542 51.859 29.5779 52.1815C28.6546 52.8072 28.5975 54.1422 27.9706 55.0647C27.3299 56.0075 26.0939 56.5103 25.7004 57.5802C25.5384 58.0213 25.5427 58.5122 25.3616 58.9453C25.1964 59.3412 24.8893 59.6594 24.6749 60.0311C24.1388 60.9615 24.2731 62.2304 24.9919 63.0284C25.6196 63.7247 26.5956 64.0286 27.5328 64.027C28.4703 64.0254 29.3845 63.7528 30.2729 63.4532C30.4397 63.397 30.6101 63.3375 30.7457 63.2254C31.0468 62.9761 31.0995 62.5438 31.2568 62.1856C31.4637 61.7152 31.8639 61.3606 32.1476 60.9322C32.4892 60.4167 32.6648 59.768 33.103 59.319C33.5258 58.8859 34.2791 58.8074 34.801 58.4833C35.4663 58.07 36.2581 57.7189 36.6936 57.071C37.3937 56.0285 37.3022 54.4668 36.8441 53.2047Z" fill="black"/>
<path d="M44.0819 76.0026C41.0866 75.0821 37.6645 72.8832 37.355 69.4278C37.2052 67.7544 38.7185 66.1575 40.3888 66.1067C41.1123 66.0846 41.7939 66.4222 42.4275 66.7733C43.887 67.5816 45.3206 68.5303 46.958 68.9408C48.4571 69.3169 49.9434 69.582 51.4988 69.6787C54.8345 69.8863 58.1909 69.5118 61.443 68.7676C62.2137 68.5913 62.992 68.3936 63.7821 68.4245C64.5719 68.4554 65.3929 68.7518 65.8625 69.3874C66.3638 70.0662 66.3729 71.0117 66.0963 71.809C65.849 72.5218 65.8526 72.7378 65.1865 73.1269C60.2756 75.9959 54.5143 77.6515 48.8303 76.996C47.2433 76.8138 45.6563 76.4864 44.0819 76.0026Z" fill="white" stroke="#222221" stroke-width="0.5" stroke-miterlimit="10"/>
<path d="M33.7779 62.8193C33.764 62.8657 33.7612 62.9152 33.7656 62.9636C33.7961 62.9553 33.8274 62.9493 33.8587 62.9434L33.7779 62.8193Z" fill="#522E97"/>
<path d="M43.5685 24.6407L38.9905 17.7145L33.799 18.272L28.3821 21.8526L25.835 26.4101L30.413 33.3363L43.5685 24.6407Z" fill="#00652E" stroke="black" stroke-width="0.5" stroke-miterlimit="10"/>
<path d="M29.5869 32.0851L32.1341 27.5277L37.551 23.9471L42.7424 23.3895L75.6021 73.103L62.447 81.7986L29.5869 32.0851Z" fill="#3A846E" stroke="black" stroke-width="0.5" stroke-miterlimit="10"/>
<path d="M71.9241 75.9508L33.917 18.45" stroke="black" stroke-width="0.5" stroke-miterlimit="10"/>
<path d="M66.5071 79.5313L28.5 22.0305" stroke="black" stroke-width="0.5" stroke-miterlimit="10"/>
<path d="M80.04 94.6783C80.0424 94.1208 75.5373 73.0063 75.5373 73.0063C75.5373 73.0063 61.3107 81.4832 62.3818 81.7019L80.04 94.6783Z" fill="white" stroke="black" stroke-width="0.5" stroke-miterlimit="10"/>
<path d="M74.667 90.7294L80.0403 94.6782C80.0411 94.4872 79.5129 91.8841 78.8182 88.5444C77.2459 88.9046 75.7904 89.5846 74.667 90.7294Z" fill="black"/>
<path d="M77.2289 87.0815C76.5009 85.1696 76.0516 83.1518 75.8994 81.1115" stroke="black" stroke-width="0.5" stroke-miterlimit="10"/>
<path d="M75.3064 79.0932C75.1657 78.3209 75.0254 77.5486 74.8848 76.7762" stroke="black" stroke-width="0.5" stroke-miterlimit="10"/>
<path d="M31.3428 32.48L37.3275 41.5342" stroke="black" stroke-width="0.5" stroke-miterlimit="10"/>
<path d="M38.6006 43.4636L40.7523 46.7193" stroke="black" stroke-width="0.5" stroke-miterlimit="10"/>
<path d="M19.833 82.8731C20.7658 83.1901 21.6915 83.4885 22.6465 83.739C24.7371 84.287 26.8417 84.6523 28.9653 85.0391C30.4437 85.3086 31.9111 85.6351 33.3935 85.8851C35.7481 86.2826 38.4288 86.6214 40.7477 85.9156C40.5678 82.2573 40.317 78.9806 40.1375 75.3223C40.2516 75.4495 41.9052 76.1006 42.5539 76.3887C42.695 76.4513 42.8574 76.3776 42.9026 76.2302C43.3932 74.6364 45.6832 67.069 45.0515 66.7373C44.7191 66.563 44.3977 66.3636 44.0755 66.1723C41.7582 64.7964 39.2051 63.7883 36.5577 63.1928C34.1389 62.6487 31.3167 62.004 28.8377 62.1038C24.134 62.2936 23.3233 66.2008 22.532 69.9542C22.2474 71.3034 21.9693 72.6535 21.6943 74.0048C21.3055 75.9151 20.9239 77.8267 20.5423 79.7383C20.4975 79.9646 20.1861 81.9752 19.833 82.8731Z" fill="#47D5A3" stroke="black" stroke-width="0.5" stroke-miterlimit="10"/>
<path d="M34.3395 61.7333C34.347 61.5875 34.3585 61.4432 34.3752 61.3018C34.4009 61.0842 34.4386 60.8544 34.5868 60.6887C34.7445 60.5124 34.9945 60.4435 35.2137 60.3412C35.9701 59.9877 36.2487 59.2083 36.4674 58.4839C36.7123 57.6728 36.7789 56.7986 36.6818 55.955C36.5752 55.0293 36.6489 53.6055 35.9408 52.9299C35.3512 52.3672 34.1017 52.5463 33.2898 52.7552C32.8198 52.876 32.4053 53.1384 32.0551 53.451C31.6465 53.8156 31.0521 54.4167 30.9007 54.9421C30.7918 55.3198 30.6899 55.6994 30.596 56.081C30.3547 57.0625 30.5306 58.0996 30.4173 59.1045C30.3174 59.9917 30.0916 60.9709 29.792 61.8185C29.733 61.9857 29.599 62.1252 29.4346 62.191C29.6874 62.7049 29.9402 63.2189 30.193 63.7332C30.5631 64.4857 31.0755 65.4304 31.8561 65.8195C32.6391 66.2099 33.4079 65.8259 33.82 65.1598C34.4409 64.1548 34.2789 62.8876 34.3395 61.7333Z" fill="white" stroke="#222221" stroke-width="0.5" stroke-miterlimit="10"/>
<path d="M36.4675 51.4082C36.2361 51.3614 35.996 51.346 35.7598 51.3388C34.9189 51.3131 34.0765 51.3785 33.2495 51.531C32.5703 51.6563 31.8003 51.6321 31.1905 51.9927C30.9143 52.1559 30.5683 52.4345 30.4209 52.7254C30.2688 53.0261 30.1269 53.3071 29.9018 53.5686C29.4798 54.0588 29.0475 54.457 29.0744 55.1763C29.0875 55.5234 29.2203 55.8285 29.4386 56.1071C29.6894 56.4265 30.115 56.8077 30.5216 56.8972C30.8085 56.9602 30.8636 56.7783 31.0217 56.581C31.1857 56.3765 31.4076 56.2763 31.6668 56.2561C31.9081 56.2374 32.1863 56.2271 32.3353 56.0365C32.4157 55.9339 32.4391 55.7984 32.455 55.6688C32.5457 54.9314 32.898 54.5173 33.7242 54.5236C34.1335 54.5268 34.5353 54.6389 34.9443 54.6587C35.2767 54.675 35.6088 54.6298 35.9381 54.5811C36.3435 54.5208 36.7607 54.4503 37.1063 54.2304C37.5497 53.9482 37.8271 53.4232 37.8112 52.8977C37.7954 52.3723 37.4879 51.8655 37.0294 51.6079C36.8547 51.51 36.6644 51.4478 36.4675 51.4082Z" fill="black"/>
<path d="M32.2803 56.6433C32.2763 56.3671 32.2311 56.0877 32.1099 55.8444C31.9886 55.6011 31.785 55.3966 31.5329 55.3186C31.3285 55.2552 31.1062 55.2777 30.8997 55.3403C30.1012 55.5821 29.6547 56.4313 29.8845 57.2594C29.9697 57.5669 30.2439 57.8281 30.5264 57.9363C30.7491 58.0215 30.9901 58.0425 31.2278 58.0627" fill="white"/>
<path d="M32.2803 56.6433C32.2763 56.3671 32.2311 56.0877 32.1099 55.8444C31.9886 55.6011 31.785 55.3966 31.5329 55.3186C31.3285 55.2552 31.1062 55.2777 30.8997 55.3403C30.1012 55.5821 29.6547 56.4313 29.8845 57.2594C29.9697 57.5669 30.2439 57.8281 30.5264 57.9363C30.7491 58.0215 30.9901 58.0425 31.2278 58.0627" stroke="#222221" stroke-width="0.5" stroke-miterlimit="10"/>
<path d="M35.9369 57.7153L33.7158 57.9864C33.8387 58.469 35.3607 59.5247 35.9369 57.7153Z" fill="white" stroke="#222221" stroke-width="0.5" stroke-miterlimit="10"/>
<path d="M34.8842 60.3669C34.4357 60.3955 33.997 60.3345 33.5615 60.2397C33.6947 60.4628 33.7882 60.7006 33.9221 60.9185C34.0727 61.1646 34.2704 61.3679 34.3485 61.6449C34.3707 61.4626 34.3917 61.2807 34.4317 61.1008C34.4658 60.9479 34.5114 60.7933 34.6081 60.6681C34.7432 60.4934 34.9623 60.3963 35.1803 60.3305C35.1874 60.3285 35.1953 60.3257 35.2024 60.3234C35.0978 60.3424 34.9924 60.3598 34.8842 60.3669Z" fill="black"/>
<path d="M23.7666 69.0089C23.9679 67.9711 24.5183 67.0102 25.4099 66.3829C27.6302 64.8208 29.1023 65.8309 31.0368 67.0589C32.0053 67.6735 33.015 68.3044 34.159 68.4736C35.4829 68.6693 36.8274 68.2093 37.9104 67.4829C39.4733 66.4348 40.7148 64.8759 41.938 63.4918C43.2045 62.0585 44.4709 60.6252 45.7378 59.1919C46.5236 58.3027 47.1826 57.4405 48.1379 56.7224C48.9194 56.1352 49.8652 55.5816 50.8325 55.3783C51.5232 55.2329 52.6169 55.175 53.0627 55.8554C53.5025 56.5267 53.1491 57.5732 52.7021 58.1446C52.2412 58.7335 51.5902 59.1373 50.9621 59.543C50.3289 59.952 49.6275 60.4251 49.211 61.0702C48.7034 61.8556 48.4038 62.8724 48.0337 63.7307C46.5252 67.2313 44.7535 70.5393 41.9154 73.1416C40.7187 74.2388 39.3714 75.2132 37.8339 75.7363C34.8584 76.7483 31.5916 75.9598 28.6054 74.979C27.186 74.513 25.7162 73.9614 24.7331 72.8368C23.8245 71.797 23.5083 70.34 23.7666 69.0089Z" fill="white" stroke="#222221" stroke-width="0.5" stroke-miterlimit="10"/>
<path d="M28.2326 62.1362C23.2135 62.2389 19.4621 65.1653 19.7217 69.4607C19.8822 72.1173 21.2917 74.5016 23.351 76.2559C23.5369 76.4144 27.9726 71.7551 28.3749 71.2998C28.6376 71.0022 32.2852 66.6314 32.2852 66.6314C32.2852 66.6314 31.5247 66.2181 31.1515 65.9689C30.1933 65.3297 29.545 64.469 28.7549 63.6476" fill="#47D5A3"/>
<path d="M28.2326 62.1362C23.2135 62.2389 19.4621 65.1653 19.7217 69.4607C19.8822 72.1173 21.2917 74.5016 23.351 76.2559C23.5369 76.4144 27.9726 71.7551 28.3749 71.2998C28.6376 71.0022 32.2852 66.6314 32.2852 66.6314C32.2852 66.6314 31.5247 66.2181 31.1515 65.9689C30.1933 65.3297 29.545 64.469 28.7549 63.6476" stroke="black" stroke-width="0.5" stroke-miterlimit="10"/>
<path d="M31.1279 55.9674C31.3332 56.0356 31.5519 56.1132 31.6771 56.2824C31.8281 56.4869 31.7968 56.7591 31.7592 57.0032" stroke="#222221" stroke-width="0.5" stroke-miterlimit="10"/>
<path d="M36.2441 75.4101C37.217 75.2306 38.1636 74.9088 39.0441 74.4579" stroke="#222221" stroke-width="0.5" stroke-miterlimit="10"/>
<path d="M39.4639 74.1142C39.9093 73.9062 40.3277 73.6399 40.7042 73.3241" stroke="#222221" stroke-width="0.5" stroke-miterlimit="10"/>
<path d="M46.96 75.8009C47.995 75.9673 49.5151 76.2324 50.562 76.2911" stroke="#222221" stroke-width="0.5" stroke-miterlimit="10"/>
<path d="M47.9307 75.4105C48.2766 75.4826 48.6297 75.5215 48.9831 75.5258" stroke="#222221" stroke-width="0.5" stroke-miterlimit="10"/>
<path d="M25.6235 87.306C24.0099 88.5535 21.962 89.2275 19.9229 89.1823" stroke="#222221" stroke-width="0.5" stroke-miterlimit="10"/>
<path d="M37.292 87.9426C38.1562 89.364 39.6818 90.3634 41.3303 90.5877" stroke="#222221" stroke-width="0.5" stroke-miterlimit="10"/>
<path d="M52.4423 55.4004C51.393 55.7012 50.4546 56.2932 49.5381 56.886" stroke="#222221" stroke-width="0.5" stroke-miterlimit="10"/>
<path d="M50.0654 57.5098C51.0791 57.0323 52.0602 56.4855 52.9994 55.874" stroke="#222221" stroke-width="0.5" stroke-miterlimit="10"/>
<path d="M53.2634 56.6506C52.4982 57.4229 51.5995 58.0629 50.6191 58.5329" stroke="#222221" stroke-width="0.5" stroke-miterlimit="10"/>
<path d="M28.0126 84.7869C27.2458 84.6522 26.4687 84.5824 25.7083 84.4112C24.9966 84.2511 24.325 83.9908 23.5935 83.9294C23.2146 83.8977 22.841 83.8469 22.535 83.6583C22.2481 83.971 21.9569 84.2809 21.6763 84.5987C21.4211 84.8875 21.4552 85.2501 21.76 85.5172C21.9922 85.7205 22.3262 85.7835 22.629 85.726C22.9321 85.6682 23.2055 85.5009 23.4338 85.2929C23.639 85.1055 23.855 84.8665 24.1324 84.8856C24.4767 84.9093 24.6511 85.3028 24.9213 85.518C25.1286 85.6832 25.4155 85.7435 25.6715 85.6753C25.9211 85.6091 26.1327 85.4324 26.3863 85.3833C27.0421 85.2561 27.5874 86.009 28.2551 85.9935C28.5598 85.9864 28.842 85.8132 29.0472 85.5877C29.1855 85.4356 29.2901 85.258 29.388 85.077C28.9295 84.9807 28.475 84.8681 28.0126 84.7869Z" fill="#222221"/>
<path d="M111.979 34.7983L125.12 20.0435" stroke="#222221" stroke-width="0.5" stroke-miterlimit="10"/>
<path d="M53.25 34.7986L65.9522 15.8148" stroke="#222221" stroke-width="0.5" stroke-miterlimit="10"/>
<path d="M97.2969 64.5252V47.2704" stroke="#222221" stroke-width="0.5" stroke-miterlimit="10"/>
<path d="M80.0622 95.676L76.333 126.273" stroke="#222221" stroke-width="0.5" stroke-miterlimit="10"/>
<path d="M83.1113 107.328H53.6377V134.297H83.1113V107.328Z" fill="#3A846E" stroke="black" stroke-width="0.5" stroke-miterlimit="10"/>
<path d="M80.4345 110.148H50.9609V137.117H80.4345V110.148Z" fill="white" stroke="#222221" stroke-width="0.5" stroke-miterlimit="10"/>
<path d="M67.3619 113.698H54.3506V118.545H67.3619V113.698Z" fill="#99C28F"/>
<path d="M70.125 117.727H77.2221" stroke="#222221" stroke-width="0.5" stroke-miterlimit="10"/>
<path d="M70.125 115.959H77.2221" stroke="#222221" stroke-width="0.5" stroke-miterlimit="10"/>
<path d="M70.125 114.19H77.2221" stroke="#222221" stroke-width="0.5" stroke-miterlimit="10"/>
<path d="M54.6279 119.964H77.2204" stroke="#222221" stroke-width="0.5" stroke-miterlimit="10"/>
<path d="M54.6279 122.199H77.2204" stroke="#222221" stroke-width="0.5" stroke-miterlimit="10"/>
<path d="M54.6279 124.435H77.2204" stroke="#222221" stroke-width="0.5" stroke-miterlimit="10"/>
<path d="M54.6279 126.671H77.2204" stroke="#222221" stroke-width="0.5" stroke-miterlimit="10"/>
<path d="M54.6279 128.907H77.2204" stroke="#222221" stroke-width="0.5" stroke-miterlimit="10"/>
<path d="M54.6279 131.143H77.2204" stroke="#222221" stroke-width="0.5" stroke-miterlimit="10"/>
<path d="M54.6279 133.378H77.2204" stroke="#222221" stroke-width="0.5" stroke-miterlimit="10"/>
<path d="M111.979 35.8902C112.582 35.8902 113.071 35.4014 113.071 34.7985C113.071 34.1956 112.582 33.7068 111.979 33.7068C111.376 33.7068 110.888 34.1956 110.888 34.7985C110.888 35.4014 111.376 35.8902 111.979 35.8902Z" fill="#110809"/>
<path d="M53.2499 35.8902C53.8528 35.8902 54.3416 35.4014 54.3416 34.7985C54.3416 34.1956 53.8528 33.7068 53.2499 33.7068C52.647 33.7068 52.1582 34.1956 52.1582 34.7985C52.1582 35.4014 52.647 35.8902 53.2499 35.8902Z" fill="#110809"/>
<path d="M97.2968 65.617C97.8997 65.617 98.3885 65.1282 98.3885 64.5253C98.3885 63.9224 97.8997 63.4336 97.2968 63.4336C96.6939 63.4336 96.2051 63.9224 96.2051 64.5253C96.2051 65.1282 96.6939 65.617 97.2968 65.617Z" fill="#110809"/>
<path d="M85.0224 3.05334H62.5381V17.2047H85.0224V3.05334Z" fill="black"/>
<path d="M82.4453 1H59.9609V15.1513H82.4453V1Z" fill="#47D5A3" stroke="black" stroke-width="0.5" stroke-miterlimit="10"/>
<path d="M82.4462 1C82.4462 1 72.0241 7.40637 71.2039 8.07566L59.9619 1" stroke="black" stroke-width="0.5" stroke-miterlimit="10"/>
<path d="M81.4346 9.76697C81.5348 10.9538 81.5384 12.1485 81.4449 13.3357" stroke="black" stroke-width="0.5" stroke-miterlimit="10"/>
<path d="M81.3984 9.06175C81.4147 8.62348 81.4313 8.18521 81.4476 7.74695" stroke="black" stroke-width="0.5" stroke-miterlimit="10"/>
<path d="M80.7842 8.78027C80.7842 9.09332 80.7842 9.40637 80.7842 9.71942" stroke="black" stroke-width="0.5" stroke-miterlimit="10"/>
<path d="M71.5801 6.94887C71.5801 6.94887 73.1628 5.94949 73.6933 5.58691" stroke="black" stroke-width="0.5" stroke-miterlimit="10"/>
<path d="M74.3408 5.10655C74.5639 4.93259 74.8037 4.78003 75.0553 4.65125" stroke="black" stroke-width="0.5" stroke-miterlimit="10"/>
<path d="M80.14 96.6513C80.8661 96.6513 81.4548 96.0627 81.4548 95.3365C81.4548 94.6104 80.8661 94.0217 80.14 94.0217C79.4139 94.0217 78.8252 94.6104 78.8252 95.3365C78.8252 96.0627 79.4139 96.6513 80.14 96.6513Z" fill="#110809"/>
<path d="M109.182 32.7806H81.0352V54.0809H109.182V32.7806Z" fill="white" stroke="#222221" stroke-width="0.5" stroke-miterlimit="10"/>
<path d="M84.0156 36.8446H105.496" stroke="black" stroke-width="0.5" stroke-miterlimit="10"/>
<path d="M84.0156 39.6046H105.496" stroke="black" stroke-width="0.5" stroke-miterlimit="10"/>
<path d="M84.0156 42.3646H105.496" stroke="black" stroke-width="0.5" stroke-miterlimit="10"/>
<path d="M84.0156 45.1246H105.496" stroke="black" stroke-width="0.5" stroke-miterlimit="10"/>
<path d="M0.544922 35.8414V33.2066C4.93789 33.2066 8.4991 29.6454 8.4991 25.2524H11.4988C11.4988 29.6454 15.06 33.2066 19.453 33.2066V35.8414C15.06 35.8414 11.4988 39.4026 11.4988 43.7955H8.4991C8.4991 39.4026 4.93789 35.8414 0.544922 35.8414Z" fill="#32977F" stroke="black" stroke-width="0.5" stroke-miterlimit="10"/>
<path d="M2.19434 35.0147V34.0332C6.19896 34.0332 9.44554 30.7866 9.44554 26.782H10.5547C10.5547 30.787 13.8013 34.0332 17.8059 34.0332V35.0151C13.8013 35.0151 10.5547 38.2617 10.5547 42.2663H9.44554C9.44593 38.2613 6.19936 35.0147 2.19434 35.0147Z" fill="#47D5A3" stroke="black" stroke-width="0.5" stroke-miterlimit="10"/>
<path d="M5.43066 34.5236C7.95406 34.5236 9.99996 32.4781 9.99996 29.9543C9.99996 32.4777 12.0455 34.5236 14.5693 34.5236C12.0459 34.5236 9.99996 36.5692 9.99996 39.0929C9.99996 36.5695 7.95446 34.5236 5.43066 34.5236Z" fill="black"/>
<path d="M129.262 4.01135H120.977V13.0073H129.262V4.01135Z" fill="white" stroke="#222221" stroke-width="0.5" stroke-miterlimit="10"/>
<path d="M141.73 4.01135H133.444V13.0073H141.73V4.01135Z" fill="#3A846E" stroke="black" stroke-width="0.5" stroke-miterlimit="10"/>
<path d="M154.201 4.01135H145.915V13.0073H154.201V4.01135Z" fill="white" stroke="#222221" stroke-width="0.5" stroke-miterlimit="10"/>
<path d="M129.262 15.5454H120.977V24.5414H129.262V15.5454Z" fill="white" stroke="#222221" stroke-width="0.5" stroke-miterlimit="10"/>
<path d="M141.73 15.5454H133.444V24.5414H141.73V15.5454Z" fill="white" stroke="#222221" stroke-width="0.5" stroke-miterlimit="10"/>
<path d="M154.201 15.5454H145.915V24.5414H154.201V15.5454Z" fill="#3A846E" stroke="black" stroke-width="0.5" stroke-miterlimit="10"/>
<path d="M122.31 7.55954L125.626 10.1816L130.563 1.69763" stroke="black" stroke-width="4" stroke-miterlimit="10"/>
<path d="M146.064 7.55954L149.381 10.1816L154.317 1.69763" stroke="black" stroke-width="4" stroke-miterlimit="10"/>
<path d="M134.188 19.2831L137.504 21.9056L142.44 13.4216" stroke="black" stroke-width="4" stroke-miterlimit="10"/>
<path d="M146.064 19.2831L149.381 21.9056L154.317 13.4216" stroke="black" stroke-width="4" stroke-miterlimit="10"/>
<path d="M90.7769 129.427C91.2449 128.538 92.3564 128.058 93.0859 127.401C94.1075 126.481 94.885 125.382 95.7389 124.316C96.6158 123.221 97.9798 122.219 99.3191 122.637C100.123 122.888 100.73 123.671 100.773 124.512C100.816 125.359 100.343 126.145 99.8097 126.805C98.378 128.577 96.4661 128.956 94.8691 130.354C94.4471 130.723 94.1313 131.212 93.6661 131.525C92.4757 132.327 90.5514 131.945 90.5645 130.294C90.5673 129.962 90.6453 129.677 90.7769 129.427Z" stroke="black" stroke-width="0.5" stroke-miterlimit="10"/>
<path d="M92.2871 158.894H93.5967C93.4616 157.553 93.0824 156.249 92.7051 154.954C91.7973 151.839 91.5029 148.348 89.8683 145.48C89.4193 144.692 88.9097 143.936 88.3225 143.225C87.1884 141.85 85.6481 140.866 83.9454 140.328C82.2502 139.793 79.9455 140.2 78.2978 140.81C76.7179 141.395 75.2728 142.583 74.8286 144.191C74.7018 144.65 74.6598 145.138 74.7596 145.603C75.0065 146.752 76.0859 147.581 77.2299 147.902C78.3739 148.222 79.5881 148.132 80.7753 148.061C82.2315 147.975 83.7968 147.91 85.0379 148.779C87.0778 150.208 88.4326 152.326 89.6904 154.413C90.3292 155.474 91.0535 156.514 91.6495 157.596C91.8262 157.916 92.0018 158.588 92.2871 158.894Z" fill="#47D5A3" stroke="black" stroke-width="0.5" stroke-miterlimit="10"/>
<path d="M108.045 143.97C107.731 143.641 107.342 143.368 106.898 143.266C106.008 143.063 105.127 143.572 104.355 144.06C101.654 145.768 98.9971 147.034 97.2385 149.835C95.8643 152.023 94.8229 154.489 94.2206 156.994C94.116 157.428 94.0506 157.86 93.9884 158.299C93.9535 158.544 93.8889 158.76 93.8584 158.985H94.5713C94.5606 158.985 94.9422 158.026 94.9901 157.938C95.1906 157.572 95.4407 157.246 95.6768 156.904C96.1294 156.248 96.5569 155.557 97.0677 154.936C97.7081 154.157 98.5275 153.526 99.4441 153.106C100.443 152.648 101.537 152.445 102.615 152.227C103.166 152.116 103.717 152 104.267 151.884C105.264 151.674 106.226 151.435 107.026 150.776C107.767 150.165 108.385 149.395 108.749 148.501C109.359 147.004 109.162 145.138 108.045 143.97Z" fill="#47D5A3" stroke="black" stroke-width="0.5" stroke-miterlimit="10"/>
<path d="M103.43 133.521C102.291 132.511 100.525 132.636 99.1056 133.185C96.4181 134.223 94.4408 136.44 92.7725 138.705C90.8847 141.269 90.3145 143.913 90.7615 147.098C90.979 148.649 91.3055 150.182 91.6463 151.71C91.9594 153.114 92.1567 154.575 92.5205 155.951C92.7079 156.659 92.8502 157.379 92.9453 158.104C93.0122 158.615 93.0071 158.865 93.2567 158.985H93.8333C93.819 157.717 94.4622 155.279 94.5691 154.582C94.7899 153.141 95.0411 151.701 95.4076 150.291C95.9283 148.291 96.6745 146.328 97.7737 144.57C98.762 142.99 100.698 141.904 102.024 140.539C102.957 139.578 103.848 138.514 104.244 137.234C104.639 135.955 104.433 134.409 103.43 133.521Z" fill="#47D5A3" stroke="black" stroke-width="0.5" stroke-miterlimit="10"/>
<path d="M92.7744 158.848C92.344 157.039 90.1563 149.84 89.4616 148.318C88.0291 145.178 84.9113 144.397 81.5752 144.323" stroke="#222221" stroke-width="0.5" stroke-miterlimit="10"/>
<path d="M94.2373 158.939C95.1515 155.716 96.7278 153.252 98.7995 151.792C100.932 150.289 103.341 149.495 105.31 147.692" stroke="#222221" stroke-width="0.5" stroke-miterlimit="10"/>
<path d="M98.202 137.858C92.3765 142.914 93.4314 151.903 93.4231 158.985" stroke="#222221" stroke-width="0.5" stroke-miterlimit="10"/>
<path d="M76.1045 146.242C76.6339 146.726 77.2905 147.069 77.9899 147.226" stroke="#222221" stroke-width="0.5" stroke-miterlimit="10"/>
<path d="M78.8438 147.34C79.3518 147.3 79.8598 147.259 80.3678 147.218" stroke="#222221" stroke-width="0.5" stroke-miterlimit="10"/>
<path d="M103.627 135.217C103.741 135.894 103.672 136.6 103.432 137.243C103.311 137.563 103.15 137.866 102.983 138.165C102.391 139.231 101.537 139.914 100.664 140.756" stroke="#222221" stroke-width="0.5" stroke-miterlimit="10"/>
<path d="M99.7937 141.411C99.4568 141.765 99.12 142.119 98.7832 142.472" stroke="#222221" stroke-width="0.5" stroke-miterlimit="10"/>
<path d="M102.372 146.241C101.614 146.531 100.895 146.924 100.241 147.405" stroke="#222221" stroke-width="0.5" stroke-miterlimit="10"/>
<path d="M99.8746 148.501C99.6102 148.724 99.3463 148.948 99.082 149.171" stroke="#222221" stroke-width="0.5" stroke-miterlimit="10"/>
<path d="M118.53 155.194C118.477 155.311 117.57 156.343 117.462 156.432C117.34 156.532 117.178 156.571 117.026 156.604C115.708 156.892 114.313 156.363 112.994 156.526C114.071 152.474 115.09 143.102 116.218 139.076C116.516 138.013 116.356 141.797 117.013 140.854C117.669 139.911 118.652 139.105 119.758 138.863C120.864 138.62 122.061 139.057 122.424 140.015C122.668 140.661 122.523 141.425 122.352 142.146C121.307 146.538 120.456 150.977 118.53 155.194Z" fill="white" stroke="#222221" stroke-width="0.5" stroke-miterlimit="10"/>
<path d="M104.472 158.978H118.904C119.246 158.509 119.186 157.667 119.052 157.14C118.848 156.34 118.809 155.486 118.804 154.681C117.168 154.978 115.614 154.743 113.985 154.532C113.784 154.507 113.581 154.48 113.38 154.508C113.112 154.544 112.869 154.673 112.625 154.784C111.29 155.395 109.784 155.544 108.346 155.883C106.909 156.222 105.429 156.833 104.654 158.039C104.506 158.268 104.385 158.532 104.422 158.798C104.431 158.864 104.451 158.922 104.472 158.978Z" fill="#161111"/>
<path d="M142.041 155.628C142.06 155.752 142.082 155.882 142.165 155.976C142.258 156.08 142.409 156.118 142.553 156.15C143.794 156.43 145.492 156.309 146.77 156.456C147.152 156.5 146.309 142.186 146.114 140.934C146.021 140.337 145.914 139.736 145.688 139.174C145.589 138.929 145.463 138.686 145.267 138.513C145.063 138.334 144.799 138.246 144.538 138.214C143.829 138.127 143.127 138.435 142.607 138.917C142.087 139.4 141.729 140.044 141.442 140.708C140.449 143.011 140.251 145.7 140.857 148.207C141.447 150.648 141.656 153.127 142.041 155.628Z" fill="white" stroke="#222221" stroke-width="0.5" stroke-miterlimit="10"/>
<path d="M148.146 114.904C147.993 111.765 147.81 108.628 147.599 105.493C147.173 99.1672 147.063 90.6967 140.304 87.6395C138.28 86.7237 136.027 86.4594 133.81 86.3049C132.981 86.247 132.141 86.2035 131.324 86.3524C126.322 87.2631 125.546 92.9082 124.058 96.8312C121.865 102.61 120.418 108.644 119.203 114.695C118.28 119.295 117.514 123.925 116.564 128.52C115.625 133.065 114.491 137.597 113.387 142.122C113.209 142.85 112.621 144.865 112.648 145.614C112.784 149.374 116.893 149.934 119.791 150.104C123.418 150.319 123.662 147.853 124.977 144.262C127.57 137.184 128.003 128.853 130.058 121.873C131.773 116.049 132.857 110.076 134.416 104.14C134.607 103.412 134.782 102.451 135.343 101.947C136.623 113.392 135.857 124.933 136.917 136.377C137.328 140.809 137.675 145.171 138.764 149.52C139.203 151.276 143.671 150.406 144.99 150.26C146.789 150.061 148.673 149.298 148.703 147.208C148.858 136.438 148.672 125.662 148.146 114.904Z" fill="#00652E" stroke="black" stroke-width="0.5" stroke-miterlimit="10"/>
<path d="M141.586 159.075C141.61 159.193 141.646 159.323 141.75 159.39C141.757 159.395 141.767 159.395 141.775 159.399H155.665C156.012 159.25 156.253 159.05 156.295 158.781C156.334 158.531 156.186 158.273 155.981 158.105C155.775 157.937 155.52 157.842 155.27 157.751C153.717 157.186 151.966 156.85 150.479 156.146C149.928 155.885 149.4 155.515 148.844 155.239C148.547 155.092 147.312 154.195 147.047 154.252C145.395 154.61 143.507 154.874 141.797 154.6C141.356 156.016 141.28 157.55 141.578 159.03C141.58 159.045 141.583 159.06 141.586 159.075Z" fill="#161111"/>
<path d="M126.291 75.0652C126.329 74.7497 126.392 74.4446 126.474 74.1383C126.53 73.9275 126.829 74.0167 126.788 74.2279C126.674 74.8088 126.585 75.4048 126.532 75.9948C126.516 76.1743 126.262 76.1811 126.257 75.9948C126.249 75.6837 126.254 75.3743 126.291 75.0652Z" fill="#161111"/>
<path d="M156.968 77.1525C156.942 76.8858 156.878 76.5898 156.773 76.2613C156.353 74.9461 155.729 73.5656 155.09 72.3336C154.879 71.9258 154.647 71.5307 154.4 71.1448C153.746 70.128 152.982 69.1801 152.195 68.2604C151.28 67.1913 150.326 66.1499 149.258 65.2333C148.211 64.3342 147.061 63.5599 145.86 62.8803C144.815 62.2887 143.676 61.8623 142.54 61.4974C140.838 60.9505 138.481 60.8317 137.673 60.8008C136.715 60.7643 135.755 60.7413 134.796 60.7588C132.903 60.7936 130.988 60.9755 129.174 61.5647C126.546 62.4179 125.047 64.2356 123.454 66.3833C121.598 68.8849 119.571 71.2197 117.81 73.8057C117.32 74.5241 116.834 75.2695 116.446 76.0533C116.048 76.8589 115.753 77.7053 115.667 78.6044C115.511 80.222 116.47 82.8979 118.399 82.8738C120.156 82.852 122.145 80.3634 123.239 79.1683C123.968 78.3722 123.916 75.64 125.087 75.6903C125.454 78.2288 125.052 81.3921 124.944 84.011C124.831 86.6921 124.777 90.3679 124.8 93.049C131.827 93.3113 139.609 93.2859 146.64 93.2004C146.439 87.3916 145.698 81.6473 145.181 75.8813C146.021 76.4194 146.871 76.9425 147.723 77.4604C148.919 78.1872 150.156 78.9202 151.536 79.1509C153.688 79.5107 157.239 79.8705 156.968 77.1525Z" fill="#47D5A3" stroke="black" stroke-width="0.5" stroke-miterlimit="10"/>
<path d="M119.758 74.472C122.701 72.6227 125.94 71.3035 129.159 69.9939C130.193 69.5735 131.235 69.1502 132.331 68.9398C132.582 68.8915 132.851 68.8566 133.085 68.9604C133.739 69.2509 133.55 70.2257 133.22 70.8601C131.665 73.8416 129.348 76.3479 126.986 78.7402C125.698 80.0443 124.295 81.3302 122.668 82.2C121.315 82.9227 118.272 83.8837 117.022 82.4452C116.721 82.0993 115.992 81.2144 115.891 80.7675C115.146 77.4567 117.013 76.1974 119.758 74.472Z" fill="white" stroke="#222221" stroke-width="0.5" stroke-miterlimit="10"/>
<path d="M127.556 74.813H141.105V65.7794H127.556V74.813Z" fill="#110809"/>
<path d="M155.471 80.9166C152.074 83.3996 146.189 81.3018 143.088 79.4314C142.259 78.9318 141.431 78.4325 140.603 77.9328C139.673 77.3725 138.762 76.7765 137.758 76.3549C135.726 75.5009 133.602 75.2743 131.926 73.7368C131.334 73.1931 130.786 72.401 131.041 71.6381C131.252 71.0065 131.966 70.657 132.633 70.6574C133.299 70.6582 133.93 70.9328 134.539 71.2027C135.004 71.4087 135.469 71.6144 135.934 71.8212C136.123 71.9052 136.955 72.4731 136.921 71.9215C136.911 71.7638 136.804 71.6322 136.721 71.4971C136.609 71.314 136.304 70.6309 136.639 70.5155C136.82 70.4533 137.326 71.0144 137.443 71.1286C138.014 71.6865 138.377 72.4826 139.074 72.9058C139.602 73.226 140.246 73.2612 140.857 73.346C141.856 73.4847 142.79 73.749 143.79 73.8659C144.992 74.0066 146.195 74.1409 147.399 74.2685C149.939 74.538 152.632 74.5313 155.07 75.3353C157.843 76.2502 156.992 79.8047 155.471 80.9166Z" fill="white" stroke="#222221" stroke-width="0.5" stroke-miterlimit="10"/>
<path d="M135.301 102.355C135.241 100.673 135.182 98.9916 135.123 97.3103L135.301 102.355Z" fill="#00652E"/>
<path d="M135.301 102.355C135.241 100.673 135.182 98.9916 135.123 97.3103" stroke="black" stroke-width="0.5" stroke-miterlimit="10"/>
<path d="M122.941 97.5946C123.846 97.908 124.868 97.6921 125.707 97.232C126.547 96.772 127.239 96.0888 127.917 95.412" stroke="black" stroke-width="0.5" stroke-miterlimit="10"/>
<path d="M143.562 95.7119C143.914 96.4006 144.596 96.8777 145.326 97.1297C146.057 97.3822 146.841 97.4329 147.614 97.4495" stroke="black" stroke-width="0.5" stroke-miterlimit="10"/>
<path d="M146.154 74.1058C145.102 72.4427 144.1 70.7482 143.149 69.0249" stroke="black" stroke-width="0.5" stroke-miterlimit="10"/>
<path d="M117.226 80.6927C117.253 81.1389 117.452 81.5728 117.773 81.8847" stroke="black" stroke-width="0.5" stroke-miterlimit="10"/>
<path d="M154.666 73.8624C154.179 72.6677 153.538 71.5356 152.764 70.5033" stroke="black" stroke-width="0.5" stroke-miterlimit="10"/>
<path d="M151.125 68.3971C151.39 68.6063 151.619 68.8623 151.797 69.1496" stroke="black" stroke-width="0.5" stroke-miterlimit="10"/>
<path d="M119.329 118.695C119.134 120.826 118.738 122.938 118.146 124.994" stroke="black" stroke-width="0.5" stroke-miterlimit="10"/>
<path d="M117.918 126.492C117.768 127.291 117.618 128.091 117.468 128.89" stroke="black" stroke-width="0.5" stroke-miterlimit="10"/>
<path d="M144.603 149.378C146.047 149.372 147.403 148.224 147.646 146.8" stroke="black" stroke-width="0.5" stroke-miterlimit="10"/>
<path d="M144.927 84.2141C144.965 85.4889 145.003 86.7633 145.042 88.038" stroke="black" stroke-width="0.5" stroke-miterlimit="10"/>
<path d="M145.203 89.3124C145.231 90.0625 145.206 90.8146 145.128 91.5612" stroke="black" stroke-width="0.5" stroke-miterlimit="10"/>
<path d="M154.826 80.3661C155.628 79.8846 156.119 78.928 156.043 77.9956" stroke="black" stroke-width="0.5" stroke-miterlimit="10"/>
<path d="M139.556 54.203C139.169 53.8761 138.67 53.7188 138.222 53.4811C137.263 52.9723 136.552 52.1021 135.924 51.2168C135.543 50.6807 135.136 50.0942 134.509 49.8945C133.932 49.7106 133.005 49.7455 132.534 50.1378C132.177 50.4354 131.885 50.8423 131.78 51.3004C131.67 51.7827 131.795 52.3137 131.816 52.8015C131.842 53.3824 131.842 53.9641 131.814 54.545C131.781 55.2452 131.71 55.9474 131.77 56.646C131.83 57.3446 132.033 58.0527 132.486 58.5881C132.885 59.0588 133.47 59.3703 134.085 59.4226C134.929 59.4943 135.732 59.0997 136.526 58.8025C136.934 58.6495 137.351 58.5211 137.753 58.3515C138.132 58.1918 138.434 57.9735 138.829 57.8384C139.63 57.5641 140.527 57.305 140.554 56.3112C140.574 55.5666 140.12 54.6786 139.556 54.203Z" fill="#161111"/>
<path d="M138.112 59.0778C138.082 58.2801 138.115 57.4781 138.104 56.6761C138.098 56.2493 138.093 55.8229 138.087 55.3962C138.239 54.8572 138.436 54.2827 138.466 53.7746C138.508 53.0455 138.503 52.2177 137.963 51.6562C137.472 51.1462 136.926 49.4732 136.253 49.3195C135.848 49.2267 134.995 49.2117 134.599 49.1059C134.156 48.9882 133.723 50.2118 133.27 50.1667C133.19 50.1588 133.109 50.1516 133.028 50.1461C132.899 50.137 132.758 50.1346 132.658 50.2158C132.593 50.2685 132.556 50.3498 132.525 50.429C132.283 51.0381 132.237 51.7157 132.193 52.3806C132.09 53.9419 131.776 56.9388 133.559 57.7182C133.571 57.7234 133.583 57.7262 133.595 57.7309C133.572 57.7214 133.532 59.0703 133.53 59.1404C133.518 59.8438 133.436 60.7932 132.706 61.1328C133.444 61.8992 134.579 62.1865 135.638 62.0898C136.657 61.9967 137.751 61.5988 138.613 61.0492C138.061 60.7742 138.131 59.5819 138.112 59.0778Z" fill="white" stroke="#222221" stroke-width="0.5" stroke-miterlimit="10"/>
<path d="M133.096 48.6325C133.551 48.556 134.013 48.4994 134.444 48.3389C134.873 48.1796 135.272 47.9188 135.727 47.8685C136.089 47.8285 136.451 47.9275 136.793 48.0528C137.348 48.2564 137.888 48.5406 138.291 48.9741C139.226 49.9802 139.277 51.608 140.282 52.5448C140.734 52.9664 140.978 53.3151 141.241 53.8723C141.521 54.4671 141.816 55.0599 141.991 55.6963C142.21 56.4912 142.223 57.3867 141.801 58.0956C141.272 58.9856 140.123 59.3958 139.105 59.2099C138.757 59.1465 138.413 59.0181 138.149 58.7835C137.816 58.4879 137.641 58.0536 137.529 57.6229C137.405 57.1454 137.344 56.6513 137.347 56.1575C137.35 55.7141 137.428 55.3052 137.616 54.9037C137.836 54.4338 137.517 54.3898 137.277 53.9983C137.133 53.7617 137.187 53.4633 136.954 53.2664C136.742 53.0877 136.643 53.027 136.526 52.7857C136.417 52.5622 136.285 52.412 136.077 52.2591C135.466 51.8097 134.656 51.7685 133.898 51.759C133.141 51.7495 132.337 51.742 131.694 51.3406C131.359 51.1313 131.079 50.8016 131.02 50.4113C130.945 49.9251 131.231 49.4369 131.629 49.1472C132.027 48.8576 132.519 48.7331 133.004 48.6483C133.035 48.6432 133.065 48.6377 133.096 48.6325Z" fill="#161111"/>
<path d="M136.93 54.7497C137.249 54.882 137.613 54.9177 137.926 54.8162C138.64 54.5852 138.936 53.5807 138.424 52.9867C138.175 52.6978 137.775 52.5318 137.398 52.5552C137.021 52.5785 136.679 52.7894 136.507 53.0972" fill="white"/>
<path d="M136.93 54.7497C137.249 54.882 137.613 54.9177 137.926 54.8162C138.64 54.5852 138.936 53.5807 138.424 52.9867C138.175 52.6978 137.775 52.5318 137.398 52.5552C137.021 52.5785 136.679 52.7894 136.507 53.0972" stroke="#222221" stroke-width="0.5" stroke-miterlimit="10"/>
<path d="M138.069 53.1899C137.799 53.0599 137.465 53.0718 137.205 53.2204C136.945 53.3694 136.766 53.6508 136.741 53.9492" fill="white"/>
<path d="M138.069 53.1899C137.799 53.0599 137.465 53.0718 137.205 53.2204C136.945 53.3694 136.766 53.6508 136.741 53.9492" stroke="#222221" stroke-width="0.5" stroke-miterlimit="10"/>
<path d="M133.099 55.7314C133.295 56.1222 133.666 56.3968 134.096 56.4094C134.547 56.4229 134.925 56.1455 135.103 55.7366C134.439 55.7909 133.766 55.7473 133.099 55.7314Z" fill="#C46345"/>
<path d="M135.628 57.6914C135.686 57.7001 135.74 57.7191 135.785 57.7568C136.099 58.0235 135.273 58.3841 135.103 58.4229C134.919 58.4653 134.727 58.4554 134.541 58.4895C134.341 58.5263 133.834 58.8251 133.65 58.7589C133.429 58.6789 133.53 58.01 133.566 57.8004C133.569 57.7798 133.574 57.758 133.588 57.7437C133.614 57.7187 133.655 57.7263 133.69 57.735C134.258 57.8753 134.853 57.7381 135.437 57.6902C135.5 57.685 135.566 57.6823 135.628 57.6914Z" fill="#161111"/>
<path d="M118.108 148.709C119.075 149.206 120.256 149.268 121.27 148.874" stroke="black" stroke-width="0.5" stroke-miterlimit="10"/>
<path d="M122.271 148.104C122.6 147.761 122.865 147.356 123.048 146.917" stroke="black" stroke-width="0.5" stroke-miterlimit="10"/>
<path d="M123.657 145.474C124.726 142.692 125.5 139.797 125.964 136.853" stroke="black" stroke-width="0.5" stroke-miterlimit="10"/>
<path d="M123.959 141.636C123.815 142.236 123.603 142.821 123.33 143.375" stroke="black" stroke-width="0.5" stroke-miterlimit="10"/>
<path d="M147.791 146.019C147.812 144.932 147.832 143.845 147.853 142.758" stroke="black" stroke-width="0.5" stroke-miterlimit="10"/>
<path d="M140.876 120.267C141.178 119.496 141.692 118.911 142.527 118.846C143.229 118.79 143.882 119.3 144.198 119.93C144.514 120.561 144.559 121.289 144.565 121.994C144.569 122.486 144.555 122.986 144.407 123.455C144.033 124.631 142.163 126.168 141.006 124.925C140.743 124.642 140.643 124.246 140.583 123.864C140.447 122.987 140.425 121.419 140.876 120.267Z" fill="#161111"/>
<path d="M121.39 121.249C121.542 120.826 121.802 120.451 122.059 120.082C122.404 119.588 122.757 119.084 123.242 118.726C123.727 118.369 124.376 118.177 124.943 118.382C125.804 118.692 126.138 119.754 126.09 120.668C126.006 122.273 124.877 124.41 123.164 124.804C121.265 125.24 120.896 122.631 121.39 121.249Z" fill="#161111"/>
<path d="M135.091 158.986C145.935 158.99 150.69 158.99 161.456 158.986" stroke="black" stroke-width="0.5" stroke-miterlimit="10"/>
<path d="M6.33594 158.986C48.4547 158.99 87.2884 158.99 129.144 158.986" stroke="black" stroke-width="0.5" stroke-miterlimit="10"/>
<path d="M15.6123 160.92H99.9603" stroke="black" stroke-width="0.5" stroke-miterlimit="10"/>
<path d="M118.593 160.92C126.635 161.027 134.164 161.027 142.09 160.92" stroke="black" stroke-width="0.5" stroke-miterlimit="10"/>
<path d="M104.422 160.92C106.965 160.92 109.508 160.92 112.051 160.92" stroke="black" stroke-width="0.5" stroke-miterlimit="10"/>
<path d="M91.1319 122.453C91.1319 123.206 90.5221 123.816 89.7696 123.816C89.0171 123.816 88.4072 123.206 88.4072 122.453C88.4072 121.701 89.0171 121.091 89.7696 121.091C90.5221 121.091 91.1319 121.701 91.1319 122.453Z" fill="black"/>
<path d="M83.7432 79.8569L97.8755 96.6802" stroke="#222221" stroke-width="0.5" stroke-miterlimit="10"/>
<path d="M99.2529 95.1066L101.346 97.263" stroke="#222221" stroke-width="0.5" stroke-miterlimit="10"/>
<path d="M103.187 96.5371L101.401 93.4692" stroke="#222221" stroke-width="0.5" stroke-miterlimit="10"/>
<path d="M104.861 95.1429L104.191 91.9633" stroke="#222221" stroke-width="0.5" stroke-miterlimit="10"/>
<path d="M106.535 91.6842L106.702 94.9197" stroke="#222221" stroke-width="0.5" stroke-miterlimit="10"/>
<path d="M109.053 91.731L108.533 94.9288" stroke="#222221" stroke-width="0.5" stroke-miterlimit="10"/>
<path d="M111.722 92.4092L110.606 95.6447" stroke="#222221" stroke-width="0.5" stroke-miterlimit="10"/>
<path d="M112.048 96.5938L114.011 94.0269" stroke="#222221" stroke-width="0.5" stroke-miterlimit="10"/>
<path d="M113.386 97.8587L115.617 95.5529" stroke="#222221" stroke-width="0.5" stroke-miterlimit="10"/>
<path d="M107.425 102.923C103.188 102.923 99.7529 98.8574 99.7529 98.8574C99.7529 98.8574 103.188 94.7921 107.425 94.7921C111.661 94.7921 115.096 98.8574 115.096 98.8574C115.096 98.8574 111.661 102.923 107.425 102.923Z" fill="#3A846E" stroke="black" stroke-width="0.5" stroke-miterlimit="10"/>
<path d="M107.399 102.933C105.557 102.933 104.064 101.111 104.064 98.8629C104.064 96.6149 105.557 94.7928 107.399 94.7928C109.24 94.7928 110.733 96.6153 110.733 98.8629C110.732 101.111 109.24 102.933 107.399 102.933Z" fill="#47D5A3" stroke="black" stroke-width="0.5" stroke-miterlimit="10"/>
<path d="M107.397 102.089C106.07 102.089 104.994 100.644 104.994 98.8625C104.994 97.0805 106.07 95.6361 107.397 95.6361C108.725 95.6361 109.801 97.0805 109.801 98.8625C109.8 100.645 108.725 102.089 107.397 102.089Z" fill="black"/>
<path d="M83.7441 81.2281C84.5013 81.2281 85.1152 80.6143 85.1152 79.857C85.1152 79.0998 84.5013 78.486 83.7441 78.486C82.9869 78.486 82.373 79.0998 82.373 79.857C82.373 80.6143 82.9869 81.2281 83.7441 81.2281Z" fill="#110809"/>
<path d="M112.866 99.2848C113.127 99.0629 113.389 98.841 113.65 98.6187" stroke="#222221" stroke-width="0.5" stroke-miterlimit="10"/>
<path d="M26.9434 7.96857C26.9434 7.29532 27.4894 6.74927 28.1627 6.74927C28.8359 6.74927 29.382 7.29492 29.382 7.96857" fill="black"/>
<path d="M32.4432 12.5777C33.0526 11.8538 33.8618 11.3311 34.5806 10.7153C35.2994 10.0995 35.9608 9.32602 36.1007 8.38965C36.2405 7.45328 35.6628 6.36634 34.7241 6.24508C34.18 6.17455 33.6419 6.42934 33.206 6.7626C31.8194 7.823 31.1914 9.64065 29.8441 10.7506C28.9438 11.492 27.921 12.0598 27.8386 13.3635C27.7978 14.0087 28.1017 14.6989 28.6787 14.9906C30.4119 15.8663 31.5607 13.6263 32.4432 12.5777Z" stroke="black" stroke-width="0.5" stroke-miterlimit="10"/>
</svg>
