<svg width="21" height="32" viewBox="0 0 21 32" fill="none" xmlns="http://www.w3.org/2000/svg">
<path d="M12.9522 28.656C12.6179 28.656 12.3317 28.4014 12.2994 28.0609C12.2652 27.7004 12.5304 27.3801 12.8918 27.3459L19.648 26.7053V1.39762C17.0532 1.39412 13.9219 1.37574 10.8081 1.35474C7.47288 1.33461 4.15865 1.31273 1.54894 1.31273C1.18663 1.31273 0.892578 1.01868 0.892578 0.656365C0.892578 0.294052 1.18663 0 1.54894 0C4.1604 0 7.47811 0.0201285 10.8177 0.0420074C14.194 0.0630111 17.5932 0.0848899 20.3044 0.0848899C20.6667 0.0848899 20.9608 0.379817 20.9608 0.741255V27.3031C20.9608 27.6417 20.7034 27.9244 20.3656 27.9568L13.0161 28.6552C12.9942 28.6552 12.9732 28.656 12.9522 28.656Z" fill="#052D23"/>
<path d="M12.5529 31.9995C12.4943 31.9995 12.4348 31.9908 12.3779 31.9759L0.484563 28.6757C0.200138 28.5961 0.00321277 28.337 0.00321277 28.0421L0.00147678 22.407C-0.00114868 15.9772 -0.00378141 9.69625 0.026849 3.4109C0.0303496 2.72128 0.195752 2.06316 0.35853 1.42517C0.426792 1.153 0.495055 0.882577 0.551065 0.610404C0.588697 0.420496 0.709468 0.256842 0.879248 0.1632C1.04815 0.0721843 1.2503 0.0564316 1.43234 0.127319C3.44956 0.911457 5.30051 1.57395 7.0902 2.21719C8.89302 2.86305 10.7554 3.53167 12.7918 4.32281C13.0448 4.41995 13.211 4.66412 13.211 4.93366V31.3414C13.211 31.5453 13.1157 31.7396 12.952 31.8639C12.8356 31.9532 12.6947 31.9995 12.5529 31.9995ZM1.31682 27.5441L11.8974 30.4794V5.38524C10.0395 4.67024 8.31718 4.05238 6.64739 3.45378C5.06074 2.88493 3.4242 2.2977 1.66426 1.62383C1.65289 1.66584 1.64413 1.70697 1.63363 1.7481C1.48485 2.33446 1.34482 2.88755 1.3422 3.41702C1.31157 9.69975 1.3142 15.979 1.31682 22.4052V27.5441Z" fill="#052D23"/>
</svg>
