<svg width="23" height="32" viewBox="0 0 23 32" fill="none" xmlns="http://www.w3.org/2000/svg">
<path d="M11.4286 0C8.39753 0 5.49062 1.20408 3.34735 3.34735C1.20408 5.49062 0 8.39753 0 11.4286C0 17.3143 9.44 30.1029 10.5143 31.5429C10.6207 31.6848 10.7588 31.8 10.9175 31.8793C11.0762 31.9587 11.2511 32 11.4286 32C11.606 32 11.781 31.9587 11.9397 31.8793C12.0984 31.8 12.2364 31.6848 12.3429 31.5429C13.4171 30.1029 22.8571 17.3143 22.8571 11.4286C22.8571 9.92775 22.5615 8.44162 21.9872 7.05505C21.4129 5.66847 20.571 4.40859 19.5098 3.34735C18.4486 2.28611 17.1887 1.44429 15.8021 0.869948C14.4155 0.295609 12.9294 0 11.4286 0ZM11.4286 28.9143C8.22857 24.4457 2.28571 15.3486 2.28571 11.4286C2.28571 9.00374 3.24898 6.67821 4.96359 4.9636C6.67821 3.24898 9.00374 2.28571 11.4286 2.28571C13.8534 2.28571 16.1789 3.24898 17.8935 4.9636C19.6082 6.67821 20.5714 9.00374 20.5714 11.4286C20.5714 15.3486 14.6286 24.4457 11.4286 28.9143Z" fill="#052D23"/>
<path d="M11.4282 5.71387C10.298 5.71387 9.19318 6.049 8.25347 6.6769C7.31376 7.30479 6.58134 8.19724 6.14884 9.24139C5.71634 10.2855 5.60318 11.4345 5.82367 12.543C6.04416 13.6514 6.58839 14.6696 7.38755 15.4688C8.1867 16.2679 9.20489 16.8122 10.3134 17.0326C11.4218 17.2531 12.5708 17.14 13.6149 16.7075C14.6591 16.275 15.5515 15.5425 16.1794 14.6028C16.8073 13.6631 17.1424 12.5583 17.1424 11.4282C17.1424 9.91263 16.5404 8.45918 15.4688 7.38754C14.3971 6.31591 12.9437 5.71387 11.4282 5.71387ZM11.4282 14.8567C10.75 14.8567 10.0872 14.6556 9.52334 14.2789C8.95952 13.9022 8.52007 13.3667 8.26057 12.7402C8.00107 12.1137 7.93317 11.4243 8.06546 10.7593C8.19776 10.0942 8.52429 9.48328 9.00379 9.00379C9.48328 8.52429 10.0942 8.19775 10.7593 8.06546C11.4244 7.93317 12.1137 8.00107 12.7402 8.26057C13.3667 8.52007 13.9022 8.95951 14.2789 9.52334C14.6556 10.0872 14.8567 10.75 14.8567 11.4282C14.8567 12.3375 14.4955 13.2095 13.8525 13.8525C13.2095 14.4955 12.3375 14.8567 11.4282 14.8567Z" fill="#052D23"/>
</svg>
