<svg width="26" height="26" viewBox="0 0 26 26" fill="none" xmlns="http://www.w3.org/2000/svg">
<g clip-path="url(#clip0_2_15013)">
<path d="M11.5 6.87988C11.5 7.70831 12.1716 8.37988 13 8.37988C13.8284 8.37988 14.5 7.70831 14.5 6.87988C14.5 6.05146 13.8284 5.37988 13 5.37988C12.1716 5.37988 11.5 6.05146 11.5 6.87988Z" fill="#052D23"/>
<path d="M13.5 20.6201C13.2348 20.6201 12.9804 20.5148 12.7929 20.3272C12.6054 20.1397 12.5 19.8853 12.5 19.6201V13.1201H11.5C11.2348 13.1201 10.9804 13.0148 10.7929 12.8272C10.6054 12.6397 10.5 12.3853 10.5 12.1201C10.5 11.8549 10.6054 11.6005 10.7929 11.413C10.9804 11.2255 11.2348 11.1201 11.5 11.1201H13.5C13.7652 11.1201 14.0196 11.2255 14.2071 11.413C14.3946 11.6005 14.5 11.8549 14.5 12.1201V19.6201C14.5 19.8853 14.3946 20.1397 14.2071 20.3272C14.0196 20.5148 13.7652 20.6201 13.5 20.6201Z" fill="#052D23"/>
<path d="M13 26C10.4288 26 7.91543 25.2376 5.77759 23.8091C3.63975 22.3807 1.97351 20.3503 0.989572 17.9749C0.0056327 15.5995 -0.251811 12.9856 0.249797 10.4638C0.751405 7.94208 1.98954 5.6257 3.80762 3.80762C5.6257 1.98954 7.94208 0.751405 10.4638 0.249797C12.9856 -0.251811 15.5995 0.0056327 17.9749 0.989572C20.3503 1.97351 22.3807 3.63975 23.8091 5.77759C25.2376 7.91543 26 10.4288 26 13C26 16.4478 24.6304 19.7544 22.1924 22.1924C19.7544 24.6304 16.4478 26 13 26ZM13 2.00001C10.8244 2.00001 8.69767 2.64514 6.88873 3.85384C5.07979 5.06254 3.66989 6.7805 2.83733 8.79049C2.00477 10.8005 1.78693 13.0122 2.21137 15.146C2.63581 17.2798 3.68345 19.2398 5.22183 20.7782C6.76021 22.3166 8.72022 23.3642 10.854 23.7886C12.9878 24.2131 15.1995 23.9952 17.2095 23.1627C19.2195 22.3301 20.9375 20.9202 22.1462 19.1113C23.3549 17.3023 24 15.1756 24 13C24 10.0826 22.8411 7.28473 20.7782 5.22183C18.7153 3.15893 15.9174 2.00001 13 2.00001Z" fill="#052D23"/>
</g>
<defs>
<clipPath id="clip0_2_15013">
<rect width="26" height="26" fill="white"/>
</clipPath>
</defs>
</svg>
