<svg width="26" height="26" viewBox="0 0 26 26" fill="none" xmlns="http://www.w3.org/2000/svg">
<g clip-path="url(#clip0_2_15025)">
<path d="M21.9376 17.9905V8.0097C22.4919 7.86756 22.9987 7.58127 23.4066 7.1799C23.8146 6.77854 24.109 6.27639 24.2601 5.72443C24.4112 5.17248 24.4135 4.59038 24.2669 4.03722C24.1203 3.48406 23.8299 2.97955 23.4253 2.5749C23.0206 2.17026 22.5161 1.87988 21.9629 1.73326C21.4098 1.58664 20.8277 1.58899 20.2757 1.74008C19.7238 1.89116 19.2216 2.1856 18.8203 2.59351C18.4189 3.00141 18.1326 3.50825 17.9905 4.06258H8.0097C7.86756 3.50825 7.58127 3.00141 7.1799 2.59351C6.77854 2.1856 6.27639 1.89116 5.72443 1.74008C5.17248 1.58899 4.59038 1.58664 4.03722 1.73326C3.48406 1.87988 2.97955 2.17026 2.5749 2.5749C2.17026 2.97955 1.87988 3.48406 1.73326 4.03722C1.58664 4.59038 1.58899 5.17248 1.74008 5.72443C1.89116 6.27639 2.1856 6.77854 2.59351 7.1799C3.00141 7.58127 3.50825 7.86756 4.06258 8.0097V17.9905C3.50825 18.1326 3.00141 18.4189 2.59351 18.8203C2.1856 19.2216 1.89116 19.7238 1.74008 20.2757C1.58899 20.8277 1.58664 21.4098 1.73326 21.9629C1.87988 22.5161 2.17026 23.0206 2.5749 23.4253C2.97955 23.8299 3.48406 24.1203 4.03722 24.2669C4.59038 24.4135 5.17248 24.4112 5.72443 24.2601C6.27639 24.109 6.77854 23.8146 7.1799 23.4066C7.58127 22.9987 7.86756 22.4919 8.0097 21.9376H17.9905C18.1326 22.4919 18.4189 22.9987 18.8203 23.4066C19.2216 23.8146 19.7238 24.109 20.2757 24.2601C20.8277 24.4112 21.4098 24.4135 21.9629 24.2669C22.5161 24.1203 23.0206 23.8299 23.4253 23.4253C23.8299 23.0206 24.1203 22.5161 24.2669 21.9629C24.4135 21.4098 24.4112 20.8277 24.2601 20.2757C24.109 19.7238 23.8146 19.2216 23.4066 18.8203C22.9987 18.4189 22.4919 18.1326 21.9376 17.9905ZM21.1251 3.25008C21.4465 3.25008 21.7607 3.34538 22.0279 3.52394C22.2951 3.7025 22.5034 3.95629 22.6264 4.25322C22.7494 4.55015 22.7816 4.87688 22.7189 5.1921C22.6562 5.50732 22.5014 5.79687 22.2741 6.02413C22.0469 6.25139 21.7573 6.40615 21.4421 6.46885C21.1269 6.53156 20.8001 6.49937 20.5032 6.37638C20.2063 6.25339 19.9525 6.04511 19.7739 5.77788C19.5954 5.51065 19.5001 5.19647 19.5001 4.87508C19.5006 4.44425 19.6719 4.03121 19.9766 3.72658C20.2812 3.42194 20.6943 3.25057 21.1251 3.25008ZM3.25008 4.87508C3.25008 4.55368 3.34538 4.23951 3.52394 3.97228C3.7025 3.70505 3.95629 3.49677 4.25322 3.37377C4.55015 3.25078 4.87688 3.2186 5.1921 3.2813C5.50732 3.344 5.79687 3.49877 6.02413 3.72603C6.25139 3.95329 6.40615 4.24284 6.46885 4.55806C6.53156 4.87328 6.49937 5.20001 6.37638 5.49694C6.25339 5.79387 6.04511 6.04766 5.77788 6.22622C5.51065 6.40477 5.19647 6.50008 4.87508 6.50008C4.44423 6.49965 4.03116 6.3283 3.7265 6.02365C3.42185 5.719 3.25051 5.30592 3.25008 4.87508ZM4.87508 22.7501C4.55368 22.7501 4.23951 22.6548 3.97228 22.4762C3.70505 22.2977 3.49677 22.0439 3.37377 21.7469C3.25078 21.45 3.2186 21.1233 3.2813 20.8081C3.344 20.4928 3.49877 20.2033 3.72603 19.976C3.95329 19.7488 4.24284 19.594 4.55806 19.5313C4.87328 19.4686 5.20001 19.5008 5.49694 19.6238C5.79387 19.7468 6.04766 19.955 6.22622 20.2223C6.40477 20.4895 6.50008 20.8037 6.50008 21.1251C6.49958 21.5559 6.32822 21.9689 6.02358 22.2736C5.71894 22.5782 5.3059 22.7496 4.87508 22.7501ZM17.9905 20.3126H8.0097C7.86419 19.754 7.57228 19.2443 7.16409 18.8361C6.7559 18.4279 6.2462 18.136 5.68758 17.9905V8.0097C6.24617 7.86411 6.75582 7.57217 7.164 7.164C7.57217 6.75582 7.86411 6.24617 8.0097 5.68758H17.9905C18.136 6.2462 18.4279 6.7559 18.8361 7.16409C19.2443 7.57228 19.754 7.86419 20.3126 8.0097V17.9905C19.7539 18.1359 19.2442 18.4278 18.836 18.836C18.4278 19.2442 18.1359 19.7539 17.9905 20.3126ZM21.1251 22.7501C20.8037 22.7501 20.4895 22.6548 20.2223 22.4762C19.955 22.2977 19.7468 22.0439 19.6238 21.7469C19.5008 21.45 19.4686 21.1233 19.5313 20.8081C19.594 20.4928 19.7488 20.2033 19.976 19.976C20.2033 19.7488 20.4928 19.594 20.8081 19.5313C21.1233 19.4686 21.45 19.5008 21.7469 19.6238C22.0439 19.7468 22.2977 19.955 22.4762 20.2223C22.6548 20.4895 22.7501 20.8037 22.7501 21.1251C22.7495 21.5559 22.5781 21.9689 22.2735 22.2735C21.9689 22.5781 21.5559 22.7495 21.1251 22.7501Z" fill="#052D23"/>
</g>
<defs>
<clipPath id="clip0_2_15025">
<rect width="26" height="26" fill="white"/>
</clipPath>
</defs>
</svg>
