<svg width="39" height="40" viewBox="0 0 39 40" fill="none" xmlns="http://www.w3.org/2000/svg">
<rect x="0.375" y="0.875" width="38.25" height="38.25" rx="19.125" stroke="white" stroke-width="0.75"/>
<path d="M13.8199 21.1256C13.8199 20.9214 13.8518 20.73 13.9156 20.5514C13.9794 20.3727 14.0879 20.2068 14.241 20.0537L21.2848 13.01C21.5655 12.7292 21.9228 12.5889 22.3566 12.5889C22.7905 12.5889 23.1478 12.7292 23.4285 13.01C23.7092 13.2907 23.8496 13.648 23.8496 14.0818C23.8496 14.5157 23.7092 14.873 23.4285 15.1537L17.4566 21.1256L23.4285 27.0975C23.7092 27.3782 23.8496 27.7355 23.8496 28.1693C23.8496 28.6032 23.7092 28.9605 23.4285 29.2412C23.1478 29.5219 22.7905 29.6623 22.3566 29.6623C21.9228 29.6623 21.5655 29.5219 21.2848 29.2412L14.241 22.1975C14.0879 22.0443 13.9794 21.8785 13.9156 21.6998C13.8518 21.5212 13.8199 21.3298 13.8199 21.1256Z" fill="white" fill-opacity="0.5"/>
</svg>
