<svg width="56" height="56" viewBox="0 0 56 56" fill="none" xmlns="http://www.w3.org/2000/svg">
<rect width="56" height="56" fill="white"/>
<path d="M5 5V16.5H16.5V5H5ZM18.8 5V9.6H23.4V7.3H21.1V5H18.8ZM25.7 5V9.6H28V5H25.7ZM30.3 5V7.3H32.6V11.9H34.9V9.6H37.2V7.3H34.9V5H30.3ZM34.9 11.9V14.2H32.6V11.9H30.3V14.2H28V16.5H30.3V18.8H32.6V16.5H37.2V11.9H34.9ZM32.6 18.8V23.4H34.9V18.8H32.6ZM32.6 23.4H28V16.5H25.7V18.8H23.4V21.1H25.7V25.7H32.6V23.4ZM32.6 25.7V28H34.9V30.3H37.2V28H39.5V23.4H41.8V21.1H46.4V18.8H39.5V21.1H37.2V25.7H32.6ZM46.4 21.1V23.4H48.7V28H51V21.1V18.8H48.7V21.1H46.4ZM48.7 28H46.4V25.7H44.1V28H39.5V30.3H46.4V34.9H48.7V32.6H51V30.3H48.7V28ZM48.7 34.9V37.2H51V34.9H48.7ZM48.7 37.2H46.4V39.5H48.7V37.2ZM46.4 37.2V34.9H44.1V37.2H46.4ZM44.1 37.2H39.5V39.5H41.8V44.1H44.1V37.2ZM44.1 44.1V46.4H46.4V44.1H44.1ZM46.4 44.1H51V41.8H46.4V44.1ZM44.1 46.4H41.8V44.1H39.5V51H41.8V48.7H44.1V46.4ZM44.1 48.7V51H51V46.4H48.7V48.7H44.1ZM39.5 44.1V41.8H37.2V44.1H39.5ZM37.2 41.8V39.5H34.9V34.9H32.6V37.2H30.3V34.9H25.7V37.2H28V39.5H32.6V44.1H30.3V46.4H32.6V48.7H34.9V51H37.2V46.4H34.9V41.8H37.2ZM30.3 44.1V41.8H28V44.1H30.3ZM28 44.1H25.7V41.8H23.4V44.1H21.1V46.4H23.4V48.7H21.1V46.4H18.8V51H30.3V48.7H25.7V46.4H28V44.1ZM21.1 44.1V39.5H25.7V37.2H21.1V34.9H16.5V37.2H18.8V44.1H21.1ZM16.5 34.9V32.6H21.1V34.9H23.4V32.6H25.7V30.3H21.1V25.7H18.8V30.3H16.5V28H14.2V30.3H11.9V32.6H14.2V34.9H16.5ZM14.2 28V25.7H11.9V28H14.2ZM14.2 25.7H16.5V23.4H18.8V21.1H14.2V18.8H11.9V21.1H7.3V18.8H5V23.4H14.2V25.7ZM21.1 25.7H23.4V21.1H21.1V25.7ZM23.4 25.7V28H25.7V25.7H23.4ZM25.7 28V30.3H28V32.6H30.3V34.9H32.6V32.6V30.3H30.3V28H25.7ZM34.9 34.9H37.2V37.2H39.5V34.9H44.1V32.6H39.5V30.3H37.2V32.6H34.9V34.9ZM44.1 25.7V23.4H41.8V25.7H44.1ZM28 14.2V11.9H21.1V14.2H18.8V18.8H21.1V16.5H23.4V14.2H28ZM39.5 5V16.5H51V5H39.5ZM7.3 7.3H14.2V14.2H7.3V7.3ZM41.8 7.3H48.7V14.2H41.8V7.3ZM9.6 9.6V11.9H11.9V9.6H9.6ZM44.1 9.6V11.9H46.4V9.6H44.1ZM5 25.7V30.3H7.3V28H9.6V25.7H5ZM7.3 30.3V34.9H5V37.2H11.9V34.9H9.6V30.3H7.3ZM5 39.5V51H16.5V39.5H5ZM7.3 41.8H14.2V48.7H7.3V41.8ZM9.6 44.1V46.4H11.9V44.1H9.6Z" fill="black"/>
</svg>
