<svg width="27" height="27" viewBox="0 0 27 27" fill="none" xmlns="http://www.w3.org/2000/svg">
<path fill-rule="evenodd" clip-rule="evenodd" d="M3.31543 25.9738V11.0527C3.31543 9.83197 4.30519 8.84221 5.52596 8.84221V6.63168C5.52596 6.02158 6.02111 5.52642 6.63122 5.52642H7.73648V1.10537C7.73648 0.800313 7.98351 0.552734 8.28911 0.552734C8.59472 0.552734 8.84175 0.800313 8.84175 1.10537V5.52642H9.94701C10.5571 5.52642 11.0523 6.02158 11.0523 6.63168V8.84221C12.273 8.84221 13.2628 9.83197 13.2628 11.0527V15.4738H17.1312V12.158H19.3417V10.5001H22.6575V12.158H23.2102V25.9738H3.31543ZM9.94701 7.18431C9.94701 6.87926 9.69998 6.63168 9.39438 6.63168H7.18385C6.87825 6.63168 6.63122 6.87926 6.63122 7.18431V8.84221H9.94701V7.18431ZM12.1575 11.0527C12.1575 10.4426 11.6624 9.94747 11.0523 9.94747H5.52596C4.91585 9.94747 4.42069 10.4426 4.42069 11.0527V24.8685H12.1575V11.0527ZM17.1312 16.5791H13.2628V24.8685H17.1312V16.5791ZM22.1049 13.2633H18.2365V24.8685H22.1049V13.2633ZM19.8944 14.9212H20.447C20.7526 14.9212 20.9996 15.1682 20.9996 15.4738V16.0264C20.9996 16.332 20.7526 16.5791 20.447 16.5791H19.8944C19.5888 16.5791 19.3417 16.332 19.3417 16.0264V15.4738C19.3417 15.1682 19.5888 14.9212 19.8944 14.9212ZM19.8944 18.2369H20.447C20.7526 18.2369 20.9996 18.484 20.9996 18.7896V19.3422C20.9996 19.6478 20.7526 19.8948 20.447 19.8948H19.8944C19.5888 19.8948 19.3417 19.6478 19.3417 19.3422V18.7896C19.3417 18.484 19.5888 18.2369 19.8944 18.2369ZM19.8944 21.5527H20.447C20.7526 21.5527 20.9996 21.7998 20.9996 22.1054V22.658C20.9996 22.9636 20.7526 23.2106 20.447 23.2106H19.8944C19.5888 23.2106 19.3417 22.9636 19.3417 22.658V22.1054C19.3417 21.7998 19.5888 21.5527 19.8944 21.5527ZM14.9207 18.2369H15.4733C15.7789 18.2369 16.026 18.484 16.026 18.7896V19.3422C16.026 19.6478 15.7789 19.8948 15.4733 19.8948H14.9207C14.6151 19.8948 14.3681 19.6478 14.3681 19.3422V18.7896C14.3681 18.484 14.6151 18.2369 14.9207 18.2369ZM14.9207 21.5527H15.4733C15.7789 21.5527 16.026 21.7998 16.026 22.1054V22.658C16.026 22.9636 15.7789 23.2106 15.4733 23.2106H14.9207C14.6151 23.2106 14.3681 22.9636 14.3681 22.658V22.1054C14.3681 21.7998 14.6151 21.5527 14.9207 21.5527ZM9.94701 23.2106H9.39438C9.08877 23.2106 8.84175 22.9636 8.84175 22.658V22.1054C8.84175 21.8003 9.08877 21.5527 9.39438 21.5527H9.94701C10.2526 21.5527 10.4996 21.8003 10.4996 22.1054V22.658C10.4996 22.9636 10.2526 23.2106 9.94701 23.2106ZM9.94701 19.8948H9.39438C9.08877 19.8948 8.84175 19.6478 8.84175 19.3422V18.7896C8.84175 18.4845 9.08877 18.2369 9.39438 18.2369H9.94701C10.2526 18.2369 10.4996 18.4845 10.4996 18.7896V19.3422C10.4996 19.6478 10.2526 19.8948 9.94701 19.8948ZM9.94701 16.5791H9.39438C9.08877 16.5791 8.84175 16.332 8.84175 16.0264V15.4738C8.84175 15.1687 9.08877 14.9212 9.39438 14.9212H9.94701C10.2526 14.9212 10.4996 15.1687 10.4996 15.4738V16.0264C10.4996 16.332 10.2526 16.5791 9.94701 16.5791ZM9.94701 13.2633H9.39438C9.08877 13.2633 8.84175 13.0162 8.84175 12.7106V12.158C8.84175 11.8529 9.08877 11.6054 9.39438 11.6054H9.94701C10.2526 11.6054 10.4996 11.8529 10.4996 12.158V12.7106C10.4996 13.0162 10.2526 13.2633 9.94701 13.2633ZM7.18385 23.2106H6.63122C6.32561 23.2106 6.07859 22.9636 6.07859 22.658V22.1054C6.07859 21.7998 6.32561 21.5527 6.63122 21.5527H7.18385C7.48946 21.5527 7.73648 21.7998 7.73648 22.1054V22.658C7.73648 22.9636 7.48946 23.2106 7.18385 23.2106ZM7.18385 19.8948H6.63122C6.32561 19.8948 6.07859 19.6478 6.07859 19.3422V18.7896C6.07859 18.484 6.32561 18.2369 6.63122 18.2369H7.18385C7.48946 18.2369 7.73648 18.484 7.73648 18.7896V19.3422C7.73648 19.6478 7.48946 19.8948 7.18385 19.8948ZM7.18385 16.5791H6.63122C6.32561 16.5791 6.07859 16.332 6.07859 16.0264V15.4738C6.07859 15.1687 6.32561 14.9212 6.63122 14.9212H7.18385C7.48946 14.9212 7.73648 15.1687 7.73648 15.4738V16.0264C7.73648 16.332 7.48946 16.5791 7.18385 16.5791ZM7.18385 13.2633H6.63122C6.32561 13.2633 6.07859 13.0162 6.07859 12.7106V12.158C6.07859 11.8529 6.32561 11.6054 6.63122 11.6054H7.18385C7.48946 11.6054 7.73648 11.8529 7.73648 12.158V12.7106C7.73648 13.0162 7.48946 13.2633 7.18385 13.2633Z" fill="white"/>
</svg>
