<svg width="46" height="46" viewBox="0 0 46 46" fill="none" xmlns="http://www.w3.org/2000/svg">
<path d="M0 0V11.5H11.5V0H0ZM13.8 0V4.6H18.4V2.3H16.1V0H13.8ZM20.7 0V4.6H23V0H20.7ZM25.3 0V2.3H27.6V6.9H29.9V4.6H32.2V2.3H29.9V0H25.3ZM29.9 6.9V9.2H27.6V6.9H25.3V9.2H23V11.5H25.3V13.8H27.6V11.5H32.2V6.9H29.9ZM27.6 13.8V18.4H29.9V13.8H27.6ZM27.6 18.4H23V11.5H20.7V13.8H18.4V16.1H20.7V20.7H27.6V18.4ZM27.6 20.7V23H29.9V25.3H32.2V23H34.5V18.4H36.8V16.1H41.4V13.8H34.5V16.1H32.2V20.7H27.6ZM41.4 16.1V18.4H43.7V23H46V16.1V13.8H43.7V16.1H41.4ZM43.7 23H41.4V20.7H39.1V23H34.5V25.3H41.4V29.9H43.7V27.6H46V25.3H43.7V23ZM43.7 29.9V32.2H46V29.9H43.7ZM43.7 32.2H41.4V34.5H43.7V32.2ZM41.4 32.2V29.9H39.1V32.2H41.4ZM39.1 32.2H34.5V34.5H36.8V39.1H39.1V32.2ZM39.1 39.1V41.4H41.4V39.1H39.1ZM41.4 39.1H46V36.8H41.4V39.1ZM39.1 41.4H36.8V39.1H34.5V46H36.8V43.7H39.1V41.4ZM39.1 43.7V46H46V41.4H43.7V43.7H39.1ZM34.5 39.1V36.8H32.2V39.1H34.5ZM32.2 36.8V34.5H29.9V29.9H27.6V32.2H25.3V29.9H20.7V32.2H23V34.5H27.6V39.1H25.3V41.4H27.6V43.7H29.9V46H32.2V41.4H29.9V36.8H32.2ZM25.3 39.1V36.8H23V39.1H25.3ZM23 39.1H20.7V36.8H18.4V39.1H16.1V41.4H18.4V43.7H16.1V41.4H13.8V46H25.3V43.7H20.7V41.4H23V39.1ZM16.1 39.1V34.5H20.7V32.2H16.1V29.9H11.5V32.2H13.8V39.1H16.1ZM11.5 29.9V27.6H16.1V29.9H18.4V27.6H20.7V25.3H16.1V20.7H13.8V25.3H11.5V23H9.2V25.3H6.9V27.6H9.2V29.9H11.5ZM9.2 23V20.7H6.9V23H9.2ZM9.2 20.7H11.5V18.4H13.8V16.1H9.2V13.8H6.9V16.1H2.3V13.8H0V18.4H9.2V20.7ZM16.1 20.7H18.4V16.1H16.1V20.7ZM18.4 20.7V23H20.7V20.7H18.4ZM20.7 23V25.3H23V27.6H25.3V29.9H27.6V27.6V25.3H25.3V23H20.7ZM29.9 29.9H32.2V32.2H34.5V29.9H39.1V27.6H34.5V25.3H32.2V27.6H29.9V29.9ZM39.1 20.7V18.4H36.8V20.7H39.1ZM23 9.2V6.9H16.1V9.2H13.8V13.8H16.1V11.5H18.4V9.2H23ZM34.5 0V11.5H46V0H34.5ZM2.3 2.3H9.2V9.2H2.3V2.3ZM36.8 2.3H43.7V9.2H36.8V2.3ZM4.6 4.6V6.9H6.9V4.6H4.6ZM39.1 4.6V6.9H41.4V4.6H39.1ZM0 20.7V25.3H2.3V23H4.6V20.7H0ZM2.3 25.3V29.9H0V32.2H6.9V29.9H4.6V25.3H2.3ZM0 34.5V46H11.5V34.5H0ZM2.3 36.8H9.2V43.7H2.3V36.8ZM4.6 39.1V41.4H6.9V39.1H4.6Z" fill="black"/>
</svg>
