<svg width="40" height="39" viewBox="0 0 40 39" fill="none" xmlns="http://www.w3.org/2000/svg">
<rect x="0.875" y="0.375" width="38.25" height="38.25" rx="19.125" stroke="white" stroke-width="0.75"/>
<path d="M25.5902 20.2504C25.5902 20.4337 25.5616 20.6056 25.5043 20.766C25.447 20.9264 25.3496 21.0754 25.2121 21.2129L18.8871 27.5379C18.635 27.79 18.3142 27.916 17.9246 27.916C17.535 27.916 17.2142 27.79 16.9621 27.5379C16.71 27.2858 16.584 26.965 16.584 26.5754C16.584 26.1858 16.71 25.865 16.9621 25.6129L22.3246 20.2504L16.9621 14.8879C16.71 14.6358 16.584 14.315 16.584 13.9254C16.584 13.5358 16.71 13.215 16.9621 12.9629C17.2142 12.7108 17.535 12.5848 17.9246 12.5848C18.3142 12.5848 18.635 12.7108 18.8871 12.9629L25.2121 19.2879C25.3496 19.4254 25.447 19.5743 25.5043 19.7348C25.5616 19.8952 25.5902 20.0671 25.5902 20.2504Z" fill="white" fill-opacity="0.5"/>
</svg>
