<svg width="21" height="12" viewBox="0 0 21 12" fill="none" xmlns="http://www.w3.org/2000/svg">
<path d="M4.36446 11.0565L0.220212 6.91226C0.0715116 6.76356 -0.00188008 6.58953 3.65857e-05 6.39016C0.00195325 6.19081 0.0804784 6.01358 0.235612 5.85846C0.390728 5.71358 0.566362 5.63858 0.762512 5.63346C0.958662 5.62833 1.1343 5.70333 1.28944 5.85846L5.01251 9.58154L5.35871 9.23536L6.41251 10.2892L5.62981 11.0565C5.44905 11.227 5.23815 11.3148 4.99714 11.32C4.75612 11.3251 4.54523 11.2373 4.36446 11.0565ZM10.0145 11.0565L5.87024 6.91226C5.73177 6.77381 5.66094 6.60235 5.65774 6.39786C5.65452 6.19338 5.72535 6.01358 5.87024 5.85846C6.02535 5.70333 6.20355 5.62576 6.40484 5.62576C6.6061 5.62576 6.7843 5.70333 6.93944 5.85846L10.6471 9.56616L19.3202 0.893064C19.4689 0.744347 19.643 0.670955 19.8423 0.672889C20.0417 0.674805 20.2189 0.753331 20.374 0.908465C20.5189 1.06358 20.5939 1.23921 20.599 1.43536C20.6042 1.63151 20.5292 1.80715 20.374 1.96226L11.2798 11.0565C11.099 11.2373 10.8882 11.3276 10.6471 11.3276C10.4061 11.3276 10.1952 11.2373 10.0145 11.0565ZM10.301 6.38536L9.23176 5.33154L13.6548 0.908465C13.7933 0.769998 13.9648 0.699165 14.1693 0.695965C14.3737 0.692748 14.5535 0.763581 14.7087 0.908465C14.8638 1.06358 14.9414 1.24178 14.9414 1.44306C14.9414 1.64433 14.8638 1.82253 14.7087 1.97766L10.301 6.38536Z" fill="#00652E"/>
</svg>
