<svg width="396" height="106" viewBox="0 0 396 106" fill="none" xmlns="http://www.w3.org/2000/svg">
<path d="M75.2688 90.6667V82H91.253V80V50.3333H55.2885V60.6667H49.2945V58H39.3043V63.3333H21.3221V60.6667H15.9941V67.3333H10V72.6667H12.664V82H15.9941V88H64.6126V90.6667H75.2688Z" fill="#BFD8BD"/>
<path d="M91.253 40V18.6667H75.2688V10H66.6107V12H15.9941V18.6667H12.664V23.3333H10V34H15.9941V40H39.3043V43.3333H49.2945V40H55.2885V50.3333M91.253 40H105.905M91.253 40V50.3333M105.905 40V31.3333H117.893V18.6667H126.551V21.3333H144.534V16H155.856V18.6667H165.846V40H159.186V51.3333M105.905 40V51.3333H159.186M159.186 51.3333H173.172V38H184.494V49.3333H195.816V51.3333H201.144M201.144 51.3333V40H193.152V18.6667H204.474V16H217.128V21.3333H233.779V18.6667H242.437V28.6667H253.093M201.144 51.3333H253.093V28.6667M253.093 28.6667V21.3333H267.079M267.079 21.3333V18.6667H283.063V10H293.719V12H343.004V18.6667H347V34H343.004V40H317.696V43.3333H309.038V40H302.377V51.3333M267.079 21.3333V51.3333M267.079 60.6667V82H283.063V90.6667H293.719V88H343.004V76H347V67.3333H343.004V60.6667H319.694V58H309.038V60.6667H302.377V51.3333M267.079 60.6667H251.095M267.079 60.6667V51.3333M251.095 60.6667V69.3333H257.089V92.6667H247.765V96H236.443V90.6667H217.128V92.6667H207.138V82H173.172V80M251.095 60.6667H195.816M173.172 80H161.184V92.6667H152.526V90.6667H135.209V92.6667H111.899V88H114.563V69.3333H120.965V60.6667M173.172 80V70.3333M120.965 60.6667H105.905V80H91.253M120.965 60.6667H173.172M91.253 80V82H75.2688V90.6667H64.6126V88H15.9941V82H12.664V72.6667H10V67.3333H15.9941V60.6667H21.3221V63.3333H39.3043V58H49.2945V60.6667H55.2885V50.3333M91.253 80V50.3333M173.172 60.6667V70.3333M173.172 60.6667H184.494M173.172 70.3333H184.494M195.816 60.6667V70.3333H184.494M195.816 60.6667H184.494M184.494 60.6667V70.3333M267.079 51.3333H302.377M55.2885 50.3333H91.253" stroke="#BFD8BD"/>
<path d="M375.928 47L369.88 38.024V47H368.248V35.512H370.168L376.072 44.248V35.512H377.704V47H375.928Z" fill="black"/>
<g filter="url(#filter0_d_2_15064)">
<path d="M373 52L386 76L373.381 72.2402L360 76L373 52Z" fill="#BFD8BD"/>
<path d="M361.003 75.1989L373 53.0498L384.985 75.1758L373.524 71.761L373.385 71.7197L373.246 71.7588L361.003 75.1989Z" stroke="white"/>
</g>
<path d="M45.008 76.728H50.352L50.832 78.152H44.416L45.008 76.728ZM51.152 81L47.648 71.432L44.096 81H42.32L46.72 69.512H48.656L53.024 81H51.152Z" fill="white"/>
<path d="M51.376 29.704C51.376 30.7493 51.0187 31.56 50.304 32.136C49.6 32.712 48.6507 33 47.456 33H43.248V21.512H47.232C48.3947 21.512 49.3013 21.7733 49.952 22.296C50.6133 22.808 50.944 23.5493 50.944 24.52C50.944 25.064 50.7893 25.5547 50.48 25.992C50.1707 26.4293 49.7387 26.7707 49.184 27.016C49.8987 27.2187 50.4427 27.5547 50.816 28.024C51.1893 28.4827 51.376 29.0427 51.376 29.704ZM47.12 22.92H44.864V26.376H47.12C47.8133 26.376 48.3413 26.2213 48.704 25.912C49.0773 25.6027 49.264 25.1813 49.264 24.648C49.264 24.1147 49.0773 23.6933 48.704 23.384C48.3413 23.0747 47.8133 22.92 47.12 22.92ZM47.344 27.784H44.864V31.592H47.344C48.0907 31.592 48.6667 31.4213 49.072 31.08C49.488 30.7387 49.696 30.264 49.696 29.656C49.696 29.0693 49.488 28.6107 49.072 28.28C48.6667 27.9493 48.0907 27.784 47.344 27.784Z" fill="black"/>
<path d="M137.008 81H135.248V69.512H137.008V74.312H142.832V69.512H144.592V81H142.832V75.848H137.008V81Z" fill="black"/>
<path d="M134.256 42.24C133.456 42.24 132.709 42.0907 132.016 41.792C131.333 41.4827 130.731 41.056 130.208 40.512C129.696 39.968 129.296 39.3333 129.008 38.608C128.72 37.872 128.576 37.0827 128.576 36.24C128.576 35.3973 128.72 34.6133 129.008 33.888C129.296 33.1627 129.696 32.5333 130.208 32C130.731 31.456 131.333 31.0347 132.016 30.736C132.709 30.4267 133.456 30.272 134.256 30.272C135.216 30.272 136.091 30.4693 136.88 30.864C137.68 31.2587 138.341 31.8133 138.864 32.528C139.397 33.2427 139.733 34.0747 139.872 35.024H138C137.893 34.4053 137.664 33.856 137.312 33.376C136.96 32.896 136.523 32.5227 136 32.256C135.488 31.9893 134.912 31.856 134.272 31.856C133.707 31.856 133.184 31.9627 132.704 32.176C132.235 32.3893 131.824 32.6933 131.472 33.088C131.131 33.4827 130.864 33.9467 130.672 34.48C130.491 35.0133 130.4 35.6 130.4 36.24C130.4 36.88 130.491 37.472 130.672 38.016C130.864 38.5493 131.131 39.0133 131.472 39.408C131.824 39.8027 132.235 40.112 132.704 40.336C133.184 40.5493 133.707 40.656 134.272 40.656C134.912 40.656 135.493 40.5227 136.016 40.256C136.539 39.9787 136.971 39.6 137.312 39.12C137.664 38.64 137.893 38.0907 138 37.472H139.872C139.733 38.4213 139.397 39.2533 138.864 39.968C138.341 40.6827 137.68 41.2427 136.88 41.648C136.091 42.0427 135.216 42.24 134.256 42.24Z" fill="black"/>
<path d="M219.88 42H216.248V30.512H219.88C221.107 30.512 222.152 30.7573 223.016 31.248C223.88 31.728 224.536 32.3947 224.984 33.248C225.432 34.1013 225.656 35.088 225.656 36.208C225.656 37.3173 225.427 38.3093 224.968 39.184C224.509 40.048 223.843 40.736 222.968 41.248C222.104 41.7493 221.075 42 219.88 42ZM218.008 32.032V40.48H219.8C220.685 40.48 221.427 40.3093 222.024 39.968C222.632 39.616 223.091 39.12 223.4 38.48C223.709 37.84 223.864 37.0827 223.864 36.208C223.864 35.344 223.709 34.6027 223.4 33.984C223.091 33.3547 222.632 32.8747 222.024 32.544C221.427 32.2027 220.685 32.032 219.8 32.032H218.008Z" fill="black"/>
<path d="M222.448 81.24C221.616 81.24 220.843 81.0907 220.128 80.792C219.424 80.4933 218.805 80.0773 218.272 79.544C217.739 79.0107 217.323 78.3813 217.024 77.656C216.725 76.92 216.576 76.1147 216.576 75.24C216.576 74.3867 216.72 73.6027 217.008 72.888C217.296 72.1627 217.696 71.528 218.208 70.984C218.731 70.44 219.344 70.0187 220.048 69.72C220.752 69.4213 221.52 69.272 222.352 69.272C223.344 69.272 224.219 69.4587 224.976 69.832C225.744 70.1947 226.384 70.6907 226.896 71.32C227.408 71.9493 227.781 72.664 228.016 73.464H225.968C225.829 72.9733 225.595 72.5307 225.264 72.136C224.944 71.7413 224.533 71.432 224.032 71.208C223.541 70.9733 222.965 70.856 222.304 70.856C221.547 70.856 220.869 71.0373 220.272 71.4C219.685 71.7627 219.227 72.2747 218.896 72.936C218.565 73.5867 218.4 74.3653 218.4 75.272C218.4 76.1147 218.565 76.872 218.896 77.544C219.227 78.216 219.696 78.7493 220.304 79.144C220.923 79.5387 221.659 79.736 222.512 79.736C223.216 79.736 223.829 79.6027 224.352 79.336C224.885 79.0587 225.317 78.6747 225.648 78.184C225.979 77.6827 226.197 77.1067 226.304 76.456H222.336V75.048H228.16C228.181 75.9653 228.059 76.8027 227.792 77.56C227.525 78.3173 227.141 78.9733 226.64 79.528C226.139 80.0827 225.531 80.5093 224.816 80.808C224.112 81.096 223.323 81.24 222.448 81.24Z" fill="black"/>
<path d="M292.008 79H290.248V67.512H297.224V69.048H292.008V72.792H296.456V74.328H292.008V79Z" fill="black"/>
<path d="M298.528 34.464V36H291.248V24.512H298.416V26.048H293.008V29.312H297.936V30.848H293.008V34.464H298.528Z" fill="black"/>
<defs>
<filter id="filter0_d_2_15064" x="356" y="52" width="34" height="32" filterUnits="userSpaceOnUse" color-interpolation-filters="sRGB">
<feFlood flood-opacity="0" result="BackgroundImageFix"/>
<feColorMatrix in="SourceAlpha" type="matrix" values="0 0 0 0 0 0 0 0 0 0 0 0 0 0 0 0 0 0 127 0" result="hardAlpha"/>
<feOffset dy="4"/>
<feGaussianBlur stdDeviation="2"/>
<feComposite in2="hardAlpha" operator="out"/>
<feColorMatrix type="matrix" values="0 0 0 0 0 0 0 0 0 0 0 0 0 0 0 0 0 0 0.25 0"/>
<feBlend mode="normal" in2="BackgroundImageFix" result="effect1_dropShadow_2_15064"/>
<feBlend mode="normal" in="SourceGraphic" in2="effect1_dropShadow_2_15064" result="shape"/>
</filter>
</defs>
</svg>
