<svg width="14" height="16" viewBox="0 0 14 16" fill="none" xmlns="http://www.w3.org/2000/svg">
<path d="M1.67926 15.4999C1.29565 15.4999 0.975369 15.3714 0.718424 15.1145C0.46148 14.8575 0.333008 14.5373 0.333008 14.1537V3.51283C0.333008 3.12921 0.46148 2.80894 0.718424 2.55199C0.975369 2.29505 1.29565 2.16658 1.67926 2.16658H3.15342V0.307617H4.05092V2.16658H10.0126V0.307617H10.8459V2.16658H12.3201C12.7037 2.16658 13.024 2.29505 13.2809 2.55199C13.5379 2.80894 13.6663 3.12921 13.6663 3.51283V14.1537C13.6663 14.5373 13.5379 14.8575 13.2809 15.1145C13.024 15.3714 12.7037 15.4999 12.3201 15.4999H1.67926ZM1.67926 14.6666H12.3201C12.4484 14.6666 12.566 14.6132 12.6728 14.5064C12.7796 14.3996 12.833 14.282 12.833 14.1537V6.84616H1.16634V14.1537C1.16634 14.282 1.21974 14.3996 1.32655 14.5064C1.43336 14.6132 1.55092 14.6666 1.67926 14.6666ZM1.16634 6.01262H12.833V3.51283C12.833 3.38449 12.7796 3.26692 12.6728 3.16012C12.566 3.05331 12.4484 2.99991 12.3201 2.99991H1.67926C1.55092 2.99991 1.43336 3.05331 1.32655 3.16012C1.21974 3.26692 1.16634 3.38449 1.16634 3.51283V6.01262ZM6.99967 9.7947C6.82773 9.7947 6.67787 9.73088 6.55009 9.60324C6.42245 9.4756 6.35863 9.32574 6.35863 9.15366C6.35863 8.98171 6.42245 8.83192 6.55009 8.70428C6.67787 8.57664 6.82773 8.51283 6.99967 8.51283C7.17162 8.51283 7.32148 8.57664 7.44926 8.70428C7.5769 8.83192 7.64072 8.98171 7.64072 9.15366C7.64072 9.32574 7.5769 9.4756 7.44926 9.60324C7.32148 9.73088 7.17162 9.7947 6.99967 9.7947ZM3.66634 9.7947C3.4944 9.7947 3.34454 9.73088 3.21676 9.60324C3.08912 9.4756 3.0253 9.32574 3.0253 9.15366C3.0253 8.98171 3.08912 8.83192 3.21676 8.70428C3.34454 8.57664 3.4944 8.51283 3.66634 8.51283C3.83829 8.51283 3.98815 8.57664 4.11592 8.70428C4.24356 8.83192 4.30738 8.98171 4.30738 9.15366C4.30738 9.32574 4.24356 9.4756 4.11592 9.60324C3.98815 9.73088 3.83829 9.7947 3.66634 9.7947ZM10.333 9.7947C10.1611 9.7947 10.0112 9.73088 9.88342 9.60324C9.75578 9.4756 9.69197 9.32574 9.69197 9.15366C9.69197 8.98171 9.75578 8.83192 9.88342 8.70428C10.0112 8.57664 10.1611 8.51283 10.333 8.51283C10.505 8.51283 10.6548 8.57664 10.7826 8.70428C10.9102 8.83192 10.974 8.98171 10.974 9.15366C10.974 9.32574 10.9102 9.4756 10.7826 9.60324C10.6548 9.73088 10.505 9.7947 10.333 9.7947ZM6.99967 12.9999C6.82773 12.9999 6.67787 12.9361 6.55009 12.8085C6.42245 12.6808 6.35863 12.531 6.35863 12.3589C6.35863 12.1869 6.42245 12.0371 6.55009 11.9093C6.67787 11.7816 6.82773 11.7178 6.99967 11.7178C7.17162 11.7178 7.32148 11.7816 7.44926 11.9093C7.5769 12.0371 7.64072 12.1869 7.64072 12.3589C7.64072 12.531 7.5769 12.6808 7.44926 12.8085C7.32148 12.9361 7.17162 12.9999 6.99967 12.9999ZM3.66634 12.9999C3.4944 12.9999 3.34454 12.9361 3.21676 12.8085C3.08912 12.6808 3.0253 12.531 3.0253 12.3589C3.0253 12.1869 3.08912 12.0371 3.21676 11.9093C3.34454 11.7816 3.4944 11.7178 3.66634 11.7178C3.83829 11.7178 3.98815 11.7816 4.11592 11.9093C4.24356 12.0371 4.30738 12.1869 4.30738 12.3589C4.30738 12.531 4.24356 12.6808 4.11592 12.8085C3.98815 12.9361 3.83829 12.9999 3.66634 12.9999ZM10.333 12.9999C10.1611 12.9999 10.0112 12.9361 9.88342 12.8085C9.75578 12.6808 9.69197 12.531 9.69197 12.3589C9.69197 12.1869 9.75578 12.0371 9.88342 11.9093C10.0112 11.7816 10.1611 11.7178 10.333 11.7178C10.505 11.7178 10.6548 11.7816 10.7826 11.9093C10.9102 12.0371 10.974 12.1869 10.974 12.3589C10.974 12.531 10.9102 12.6808 10.7826 12.8085C10.6548 12.9361 10.505 12.9999 10.333 12.9999Z" fill="#052D23"/>
</svg>
